/* XPM */
static char *dirt[] = {
/* columns rows colors chars-per-pixel */
"64 64 31 1",
"  c #2C211A",
". c #34261D",
"X c #38271D",
"o c #36281E",
"O c #3A291F",
"+ c #352720",
"@ c #362921",
"# c #3D2D22",
"$ c #3F3026",
"% c #402E1F",
"& c #412F23",
"* c #443226",
"= c #493527",
"- c #4C3927",
"; c #463429",
": c #4A3629",
"> c #47382B",
", c #4D3A2B",
"< c #503927",
"1 c #523D2D",
"2 c #4E3D30",
"3 c #533F30",
"4 c #55402F",
"5 c #59422E",
"6 c #554231",
"7 c #5A4533",
"8 c #5D4936",
"9 c #5E4A38",
"0 c #614A36",
"q c #624D39",
"w c #68513D",
/* pixels */
",>,,>4$;#4,:**7*,&*&;;+$31;&8788444$-4=#&+&+&7;***#:13,317O444-4",
"4,6,,,7$$;6,:37,3:*2;+;+33;:44778w,,84;;:+&&8333:2*,27,63:47444>",
"4=6,4=,$*:*$;26:7:,:;&;&<1:<*,11-7:,,1,4;&=;;379>22,>#366;;46>44",
"4=4,744;O**;;::373,:2&q&<31,*O;,*:*,64,7&&=3q737,7>:+::&6,:,4444",
"4*$=4=46&&33::&*:*,,;3,#+&03&+O&;O;55:o1&,,:9q9366:*@@11>666>4>4",
"44==$=6*3=1331*&$>2*,6:#*#:81=&Oo**1q;O13+3,3339622:#@&,>>444$4>",
">*$$=$=$1733333:+$*=704o&;X,31&61==18=:433;,9333>623#+*#$4>44644",
"44>$--=*&1331333#,6=q7;,q+#X55+:77=;,;,433#339q32222:2>*4>6666>$",
"1,1*1;*3<1<<::33&=1160418,,;,6*@,76$>,,3336*2q33:*2,*2:3$47764#$",
"*;<;=,1:531<,101*=:-*1<4:*-,,94:19,$*,,:::,7:33&@#32;*:34$>>64*$",
"3&::<,::030171111-1-X=11-:,,:6*,2>1**2:3*1*83322;;1q37:74$#o$-4$",
"30311,;<3<<31<<3551*%O<1476,:4**,*$**2,93::1:;&;;+1737704$$4444*",
";087:&:<3<3:1<<:55=-*-444544744=1,##,*::3;>;332@#>229679;;O,=>4,",
"&183:3&&33<&=<:<<5<44<454-54471::2>:2,:#*:>;:;@@@;2309:&;,**$;$4",
"113137::35:<*3:35<<5445<1&=:4<*;:696**##:::::&$;&@;:861=#==,::*$",
"3<:03<*:<73<*<:<<<5<55514,O:=1,::6,,#@*&*:3q,*&;;$&;181,1,;,,:4:",
"1:;8<;*,<330<::=<=<<555161=&16501+&;&;:<::307;;2;#2;3::<;#*:&:37",
"&,O1;::::<<31;<&&<<3<555<:1*=1708733&33q3230q*::;;2333,,:::<:&::",
";:#*&*&::1:,3==&&&<5=0<<1&&;:&10:0q7;:183;&87;:*;3#3:333:,,&3::&",
"&,3&&6=O113<<:<==&5<<3:<81#;81*36;30:,=13&#700,&#+;2<;:q,33:3::&",
"#*51*===1&=<<33:*X:3&<&=30#&661167#*07**&##&,q;:;;;<3:&:0:33<3:3",
"=&51131:=1&1=11<&&<:=**;<83;:*=166,*33=831##&1;3:;&:7:&;370533;<",
"**1007:O*11<==<1<&:*<<,1088,,=&,&,:@:::7q5:731,<3<:002;&:3::;33&",
"&-1q55=&=,<<<=<5<=,&:3:3181=*:*,1,=#*X&*077q03:*73&3;&:&===:;;<:",
",151167%*<1=110<7<:&:13::*=&:&,<1,,o:,.;303<w3333:;23:2:*:<33;<;",
"574=,117*1=.1333<1:&=&11:::<66:&,1:,77,#;7<30330<:&;2::<<:<<3<:3",
",144==,4:;= X&=&::::=&*3011366,=,1,:677O&37#<<,,33+::&:*<3330:;:",
",=441:*,:15&+*&=&<131**:3:11861,11,6,1;;&33:<3,323&;&;:<<;:3<<3:",
",1:1,;**=78=;1:1&180:&;::,3;306*,44,46#>&;;:3337;;:;:0:3<<=**<:=",
"7164=;*,&=01;<73,&<q;;:13<8&<3&&::404=1;&+;;:33::&&3;3::33<<*:=&",
"5574,*-,:=33&;3823<3:,:00<7:,&=1-:-,-;,,+<#&3<03*:&;#&&033333&&=",
"*,5784=*&&0;&;:11,*21<1333,:01114-:,***;3:;<*3:::&;2+;:3533<<:#<",
"*:11746#*##+*62>@$#**8,6444,87444444;,=$*3,&:23*3&*;;+;&83:*:3&:",
"4:58=4,:,#$:,,763,,##:367=,776>44,8-4>,;>*7;:7130#2:;&;&33*<<:+&",
"-*571411;*#,6767,62*+&::6,>>74444=444:>O;&***,333:::&+&::83*3&*&",
"4*,,71;;:=$,9976662#+&,6$49444444$-44=8*&&::&:;:,3;1:;&&:<7#;::+",
"*$;66,32:#,,676968;:$@#14,476,4,4:*;:,,4&&37:3&;;*;:22;&*3<1&##;",
"OO#=2#,66,#,66>6>>32*#*#@>;,16,44-%*;*$,83,333,&&+;,83101333q:;&",
"q6>@:&2633,*6997*23*$#$$;4=66673,6O,,*$;:331333&&;;3000173317&;3",
"17>::,2**,2*>,,>,8$$*,4$4,6961,,4;#,,*:4*::,;:;;&:*,8q7031<31;.:",
";96>#29:2*>>::,##3*2*:#67$2836*:0$O$,::44,==:1*&*:&:1w571:1;38+&",
",7:2+;6>;*##*$262,,936*;32#@*3&,7,#4:4,,444>11,$$+&$%w03131&87:1",
"6::6;*2>$$:#@$q97>,q33309:&**:6:8444-,*44,4,3;:*+;#$=<6131<;,3#1",
",>*###3*,2,,,#776,4,87893*;::,736844;=,,,,,,;#;&@;*&#&*101::,1**",
"1:**>7#2286,6>*87714973,:;:#:;*,$784$$o,1==*,&=;&3w2:*@=136737=,",
":36,:::,,7,,,,*,96,3783:&&::*:,*>44444*=4,,**:73w30,3,#=#,1,18;:",
"*2q6*#&#,774,7,*,:&11381711;,:,:4-484>;*4;,770761321**1o*#*,4,O,",
"1;*,#@$&>69,47;#*>##11886,&::>:14;46,;444=4,1=1731<3#1,&*=*,,111",
"6*;=$$#58$>6-*$@$;+#>9:17=&:*#11,*,1:;44=4,=*46731<3*1::=:o,:68q",
"60774>4474#4>oO$@$* @;:&=11==*:******$=*4644:,--733:8,:;**&*:66q",
",,q9,*$464#8977,***$;,>+=11:111&,$,o1*O44,464476131133:>&@::,#40",
"q,;944=,4$O*974=;;$#37q*&:3&,1,*;:7$%:=-476-*4,-=&1;:***q2+37=*7",
"47$*474$=$o$#,44**@,:89711406111O=7--,,*4-4=:11-&=1*:&@:7,.,7;54",
"444$*74-84=$$*=>3:#::713:176,1,*:*50474>==*41151=<1&,#&,746@,#;;",
"#**O*=$-8745746,,2+&*93*=,==#:11*,5864,4$,=-1477<:&*,,,6q6,*,$;,",
",7=$*$O$,q78q7777&=;***&1-*=1#=*=,744564-4-4,4781::&,3::6,,#*=:1",
"4:=>,1*O=84440883:*#1;;;40741<1,45*4574:&44:164044$$444$,*$;,;;$",
",,2:637o*44:117,3;#&;;>;48--1*O,,4;O$*OO*;$ =4;644$OO$=4,;>464*#",
";,6,,,1=O:5;&1,,,q&$:$&1185<%%-1::-*O.#O#,%.*@#*$*=4$$*4,,,444,=",
",,6,,,1*$;441151,>>:;&;74001&-11:14;:,O&,71OO:*#=445****,,>,644$",
"O44416,&:##*,7616&:::67,,04::1:,:113148#,76:,44=$-05$$=*$6$4444 ",
"=,*746;1#:&::=1,2&&>:*:$474-61:::::&-164#,6;;,8>4$45#$444$4o>4OO",
"4*-43**,:*&;:1613:>;&##36444,712,11#,,1*,,6,$$774$74$446444$4$4>",
"4,$4:#&,#3*3=:6:&;***>,,1,-,,686:*6*6,:O#46;;:,4:;*>>44444#44-4-"
};
