/* XPM */
static char *flower_tulip_orange_[] = {
/* columns rows colors chars-per-pixel */
"64 64 232 2",
"   c #162317",
".  c #172418",
"X  c #182718",
"o  c #192A19",
"O  c #1E341C",
"+  c #21341C",
"@  c #243B1E",
"#  c #273D21",
"$  c #293D21",
"%  c #25441E",
"&  c #29421E",
"*  c #274E1E",
"=  c #284C1F",
"-  c #2C4224",
";  c #2C4A21",
":  c #324523",
">  c #324A24",
",  c #3B4D23",
"<  c #33452C",
"1  c #34492C",
"2  c #394D2E",
"3  c #2C5022",
"4  c #2F5923",
"5  c #325625",
"6  c #395325",
"7  c #315A24",
"8  c #3A5D26",
"9  c #34522C",
"0  c #3C522D",
"q  c #345A2C",
"w  c #3A5B2B",
"e  c #364930",
"r  c #3B4D33",
"t  c #355E31",
"y  c #3D5D33",
"u  c #37632A",
"i  c #3C612E",
"p  c #366031",
"a  c #3D6434",
"s  c #3C653B",
"d  c #41542D",
"f  c #425B29",
"g  c #415334",
"h  c #475D35",
"j  c #485F36",
"k  c #465D39",
"l  c #41622A",
"z  c #4A662E",
"x  c #4B682C",
"c  c #446434",
"v  c #496435",
"b  c #4A6934",
"n  c #446439",
"m  c #4A643C",
"M  c #45693A",
"N  c #4A6A3C",
"B  c #526A30",
"V  c #536C39",
"C  c #59723B",
"Z  c #62722D",
"A  c #495B42",
"S  c #476741",
"D  c #456B44",
"F  c #4B6C42",
"G  c #4B6E4B",
"H  c #536D42",
"J  c #576E4C",
"K  c #4E7042",
"L  c #4B724D",
"P  c #547242",
"I  c #5E7B44",
"U  c #52754B",
"Y  c #4E7453",
"T  c #507555",
"R  c #5B7754",
"E  c #527856",
"W  c #5C7C52",
"Q  c #567759",
"!  c #557A5A",
"~  c #5A7C59",
"^  c #616E4B",
"/  c #627B43",
"(  c #6F7E41",
")  c #65744C",
"_  c #657C4B",
"`  c #717F4B",
"'  c #627A52",
"]  c #5D7C61",
"[  c #627D63",
"{  c #B46A2C",
"}  c #BC712C",
"|  c #A96736",
" . c #AE6D38",
".. c #BA7231",
"X. c #BD793B",
"o. c #C6792F",
"O. c #CD7B2C",
"+. c #DA7622",
"@. c #DC7A24",
"#. c #E27F25",
"$. c #B47640",
"%. c #BF7E41",
"&. c #AE7C56",
"*. c #678047",
"=. c #60804A",
"-. c #6D834E",
";. c #72854C",
":. c #6D8F58",
">. c #758555",
",. c #778951",
"<. c #798A55",
"1. c #778659",
"2. c #78875A",
"3. c #7B8C5A",
"4. c #779552",
"5. c #7D9056",
"6. c #7E9059",
"7. c #6D8562",
"8. c #7F8F60",
"9. c #7E9C66",
"0. c #6E8E78",
"q. c #D28234",
"w. c #DB8834",
"e. c #DE8C3A",
"r. c #E68227",
"t. c #E3812A",
"y. c #F38726",
"u. c #F18927",
"i. c #F18728",
"p. c #F38B2A",
"a. c #E28732",
"s. c #E28B34",
"d. c #EA8B31",
"f. c #E58D3A",
"g. c #F08E33",
"h. c #E6903A",
"j. c #ED923B",
"k. c #F69234",
"l. c #F99636",
"z. c #F4953A",
"x. c #F69A3F",
"c. c #FB9D3C",
"v. c #838A5F",
"b. c #81925C",
"n. c #819A5F",
"m. c #B5824A",
"M. c #B5875C",
"N. c #809973",
"B. c #B38A61",
"V. c #CB8642",
"C. c #D58B41",
"Z. c #DC8C41",
"A. c #D58F4D",
"S. c #DA9147",
"D. c #DA914D",
"F. c #C99059",
"G. c #DB9551",
"H. c #E49040",
"J. c #EA9542",
"K. c #EE9844",
"L. c #E49649",
"P. c #E6984F",
"I. c #EC984D",
"U. c #F09743",
"Y. c #F59B44",
"T. c #F99D40",
"R. c #F49D4A",
"E. c #EE9E54",
"W. c #E49D5D",
"Q. c #ED9F5E",
"!. c #F29E52",
"~. c #F39F5B",
"^. c #FBA646",
"/. c #FBAA45",
"(. c #F7A04C",
"). c #FAA34A",
"_. c #FBAC4B",
"`. c #EEA05A",
"'. c #F5A354",
"]. c #F9A553",
"[. c #F9AA56",
"{. c #F4A35A",
"}. c #F9A65A",
"|. c #F9AB5E",
" X c #FBB251",
".X c #FBB75B",
"XX c #CE9C6D",
"oX c #D39A62",
"OX c #DB9D62",
"+X c #D9A066",
"@X c #DAA069",
"#X c #CEA076",
"$X c #D4A075",
"%X c #E4A165",
"&X c #EBA364",
"*X c #E4A46C",
"=X c #EAA66A",
"-X c #ECA86E",
";X c #F3A564",
":X c #F3A864",
">X c #F9AC63",
",X c #F3A769",
"<X c #F5AA6C",
"1X c #F9AD69",
"2X c #F5B463",
"3X c #FAB266",
"4X c #F3B06C",
"5X c #F9B16B",
"6X c #FABA69",
"7X c #E6A673",
"8X c #EFAB74",
"9X c #F5AC73",
"0X c #F6AE78",
"qX c #E3B471",
"wX c #F5B275",
"eX c #F9B374",
"rX c #F9BB74",
"tX c #F6B179",
"yX c #F8B57A",
"uX c #F9B878",
"iX c #F8C477",
"pX c #F7C37F",
"aX c #F8C279",
"sX c #E1B188",
"dX c #F5B785",
"fX c #F6B983",
"gX c #F7B889",
"hX c #F5CB9C",
"jX c #F6CFA3",
"kX c #F6D0A4",
"lX c #F5D4AD",
"zX c None",
/* pixels */
"zXzXzXzXzXzXzXzXzXzXzXzXzXzXzXzXzXzXzXzXzXzXzXzXzXzXzXzXzXzXzXzXzXzXzXzXzXzXzXzXzXzXzXzXzXzXzXzXzXzXzXzXzXzXzXzXzXzXzXzXzXzXzXzX",
"zXzXzXzXzXzXzXzXzXzXzXzXzXzXzXzXzXzXzXzXzXzXzXzXzXzXzXzXzXzXzXzXzXzXzXzXzXzXzXzXzXzXzXzXzXzXzXzXzXzXzXzXzXzXzXzXzXzXzXzXzXzXzXzX",
"zXzXzXzXzXzXzXzXzXzXzXzXzXzXzXzXzXzXzXzXzXzXzXzXzXzXzXzXzXzXzXzXzXzXzXzXzXzXzXzXzXzXzXzXzXzXzXzXzXzXzXzXzXzXzXzXzXzXzXzXzXzXzXzX",
"zXzXzXzXzXzXzXzXzXzXzXzXzXzXzXzXzXzXzXzXzXzXzXzXzXzXzXzXzXzXzXzXzXzXzXzXzXzXzXzXzXzXzXzXzXzXzXzXzXzXzXzXzXzXzXzXzXzXzXzXzXzXzXzX",
"zXzXzXzXzXzXzXzXzXzXzXzXzXzXzXzXzXzXzXzXzXzXzXzXzXzXzXzXzXzXzXzXzXzXzXzXzXzXzXzXzXzXzXzXzXzXzXzXzXzXzXzXzXzXzXzXzXzXzXzXzXzXzXzX",
"zXzXzXzXzXzXzXzXzXzXzXzXzXzXzXzXzXzXzXzXzXzXzXzXzXzXzXzXzXzXzXzXzXzXzXzXzXzXzXzXzXzXzXzXzXzXzXzXzXzXzXzXzXzXzXzXzXzXzXzXzXzXzXzX",
"zXzXzXzXzXzXzXzXzXzXzXzXzXzXzXzXzXzXzXzXzXzXzXzXzXzXzXzXzXzXzXzXzXzXzXzXzXzXzXzXzXzXzXzXzXzXzXzXzXzXzXzXzXzXzXzXzXzXzXzXzXzXzXzX",
"zXzXzXzXzXzXzXzXzXzXzXzXzXzXzXzXzXzXzXzXzXzXzXzXzXzXzXzXzXzXzXzXzXzXzXzXzXzXzXzXzXzXzXzXzXzXzXzXzXzXzXzXzXzXzXzXzXzXzXzXzXzXzXzX",
"zXzXzXzXzXzXzXzXzXzXzXzXzXzXzXzXzXzXzXzXzXzXzXzXzXzXzXzXzXzXzXzXzXzXzXzXzXzXzXzXzXzXzXzXzXzXzXzXzXzXzXzXzXzXzXzXzXzXzXzXzXzXzXzX",
"zXzXzXzXzXzXzXzXzXzXzXzXzXzXzXzXzXzXzXzXzXzXzXzXzXzXzXzXzXzXzXzXzXzXzXzXzXzXzXzXzXzXzXzXzXzXzXzXzXzXzXzXzXzXzXzXzXzXzXzXzXzXzXzX",
"zXzXzXzXzXzXzXzXzXzXzXzXzXzXzXzXzXzXzXzXzXzXzXzXzXzXzXzXzXzXzXF.P.@XzXzXzXzXzXzXzXzXzXzXzXzXzXzXzXzXzXzXzXzXzXzXzXzXzXzXzXzXzXzX",
"zXzXzXzXzXzXzXzXzXzXzXzXzXzXzXzXzXzXzXzXzXzXzXzXzXzXzXzX%XW.h.Y.].5XdXzXzXzXzXzXzXzXzXzXzXzXzXzXzXzXzXzXzXzXzXzXzXzXzXzXzXzXzXzX",
"zXzXzXzXzXzXzXzXzXzXzXzXzXzXzXzXzXzXzXzXzXzXzXzXzXzXzX4Xa.J.R.T.5XtXgXzXzXzXzXzXzXzXzXzXzXzXzXzXzXzXzXzXzXzXzXzXzXzXzXzXzXzXzXzX",
"zXzXzXzXzXzXzXzXzXzXzXzXzXzXzXzXzXzXzXzXzXzXzXzXzXzXzX5X|.uX5X>X>XtXgXlXzXzXzXzXzXzXzXzXzXzXzXzXzXzXzXzXzXzXzXzXzXzXzXzXzXzXzXzX",
"zXzXzXzXzXzXzXzXzXzXzXzXzXzXzXzXzXzXzXzXzXzXzXzXzXzXzXuX|.eX}.].>X0X0XjXzXzXzXzXzXzXzXzXzXzXzXzXzXzXzXzXzXzXzXzXzXzXzXzXzXzXzXzX",
"zXzXzXzXzXzXzXzXzXzXzXzXzXzXzXzXzXzXzXzXzXzXzXzXzXzXzXyX|.}.].].<X<X0XjXzXzXzXzXzXzXzXzXzXzXzXzXzXzXzXzXzXzXzXzXzXzXzXzXzXzXzXzX",
"zXzXzXzXzXzXzXzXzXzXzXzXzXzXzXzXzXzXzXzXzXzXzXzXzXzXzXtX>XR.R.{.9X;X,XjXzXzXzXzXzXzXzXzXzXzXzXzXzXzXzXzXzXzXzXzXzXzXzXzXzXzXzXzX",
"zXzXzXzXzXzXzXzXzXzXzXzXzXzXzXzXzXzXzXzXzXzXzXzXzXzXzXzX<XY.Y.;X,X~.;XjXzXzXzXzXzXzXzXzXzXzXzXzXzXzXzXzXzXzXzXzXzXzXzXzXzXzXzXzX",
"zXzXzXzXzXzXzXzXzXzXzXzXzXzXzXzXzXzXzXzXzXzXzXzXzXzXzXzX=XE.h.&XQ.I.{.zXzXzXzXzXzXzXzXzXzXzXzXzXzXzXzXzXzXzXzXzXzXzXzXzXzXzXzXzX",
"zXzXzXzXzXzXzXzXzXzXzXzXzXzXzXzXzXzXzXzXzXzXzXzXzXzXzXzXzXOXq.G.Z.Z.$XzXzXzXzXzXzXzXzXzXzXzXzXzXzXzXzXzXzXzXzXzXzXzXzXzXzXzXzXzX",
"zXzXzXzXzXzXzXzXzXzXzXzXzXzXzXzXzXzXzX# zXzXzXzXzXzXzXzXzXzX&.m.B.zXzXzXzXzXzXzXzXzXzXzXzXzXzXzXzXzXzXzXzXzXzXzXzXzXzXzXzXzXzXzX",
"zXzXzXzXzXzXzXzXzXzXzXzXzXzXzXzXzXzXzX< zXzXzXzXzXzXzXzXzXzXzX<.zXzXzXzXzXzXzXzXzXzXzXzXzXzXzXzXzXzXzXzXzXzXzXzXm zXzXzXzXzXzXzX",
"zXzXzXzXzXzXzXzXzXzXzXzXzXzXzXzXzXzXzXg r zXzXzXzXzXzXzXzXzXzX3.zXzXzXzXzXzXzXzXzXzXzXzXzXzXzXzXzXzXzXzXzXzXzX7.zXzXzXzXzXzXzXzX",
"zXzXzXzXzXzXzXzXzXzXzXzXzXzXzXzXzXzXzXg k - zXzXzXzXzXzXzXzXzX6.zXzXzXzXzXzXzXzXD.Y.R.).[.zXzXzXzXzXzXzXzXzX' zXzXzXzXzXzXzXzXzX",
"zXzXzXzXzXzXzXzXzXzXzXzXzXzXzXzXzXzXzXe , A zXzXzXzXzXzXzXzXzX3.zXzXzXzXzXzXz.p.u.p.T.^._.2XzXzXzXzXzXzXzX' N.zXzXzXzXzXzXzXzXzX",
"zXzXzXzXzXzXzXzXzXzXzXzXzXzXzXzXzXzXzXzXd 2 r zXzXzXzXzXzXzXzXv.zXzXzXzXzXc.p.y.u.y.l.^.^..XzXzXzXzXzXzXv :.zXzXzXzXzXzXzXzXzXzX",
"zXzXzXzXzXzXzXzXzXzXzXzXzXzXzXzXzXzXzXzXg : < zXzXzXzXzXzXzXzX3.zXzXzXzXhXY.p.p.y.y.l.^._. XqXzXzXzXzXk _ H zXzXzXzXzXzXzXzXzXzX",
"zXzXzXzXzXzXzXzXzXzXzXzXzXzXzXzXzXzXzXzX1 , : e zXzXzXzXzXzXzX3.zXzXzXzXiX2X2XR.y.y.k.c./._.pXzXzXzXzX/ n.zXzXzXzXzXzXzXzXzXzXzX",
"zXzXzXzXzXzXzXzXzXzXzXzXzX7X@X7XzXzXzXzXzX0 , : zXzXzXzXzXzXzX6.zXzXzXzX[.6XiXrX|.}.k.[.rX<XhXzXzXzX_ 4.zXzXzXzXzXzXzXzXzXzXzXzX",
"zXzXzXzXzXzXzXzXzXzXzXzXd.@.t.r.g.wXzXzXzXd , @ zXzXzXzXzXzXzX3.zXzXzXzX|.).[.3X1X'.5XeXtX<XtXzXzX7.F n.zXzXzXzXzXzXzXzXzXzXzXzX",
"zXzXzXzXzXzXzXzXzXzXzXf.t.@.+.+.r.5XhXzXzXr : @ e zXzXzXzXzXzX3.zXzXzXzX:Xx.z.'.!.R.<X9X8X=XeXzXzXf P j zXzXzXzXzXzXzXzXzXzXzXzX",
"zXzXzXzXzXzXzXzXzXzXzXH.#.@.+.r.d.}.fXsXzXzX> @ $ zXzXzXzXzXzXv.zXzXzXzX:Xz.j.R.R.&X-X=X&X,XeXzX^ S T zXzXzXzXzXzXzXzXzXzXzXzXzX",
"zXzXzXzXzXzXzXzXzXzXzXj.#.@.+.f.}.Y.9X9XzXzX, @ # e zXzXzXzXzX3.zXzXzXzX-Xj.j.K.`.&X*X*X&X8XzXzX6 F W zXzXzXzXzXzXzXzXzXzXzXzXzX",
"zXzXzXzXzXzXzXzXzXzXzX{.d.t.!.'.!.U.1X9XzXzX0 @ @ : zXzXzXzXzX2.zXzXzXzXzXJ.h.L.%X@X=X%X8XzXzX) S V 0 zXzXzXzXzXzXzXzXzXzXzXzXzX",
"zXzXzXzXzXzXzXzXzXzXzX:XE.{.R.j.L.f.,X9X<XzXr @ + + zXzXzXzXzX3.zXzXzXzXzXA.C.OXOX@X%X%XzXzXzXF S n zXzXzXzXzXzXzXzXzXzXzXzXzXzX",
"zXzXzXzXzXzXzXzXzXzXzXOXS.q.w.s.f.a.,X9X9XzX< & o + 1 zXzXzXzX<.zXzXzXzXzXzXM.#XXXoXOXzXzXzXR F F zXzXzXzXzXzXzXzXzXzXzXzXzXzXzX",
"zXzXzXzXzXzXzXzXzXzXzXzX%.} } q.f.s.`.9X$XzXzX> o . @ zXzXzXzX1.zXzXzXzXzXzX<.b.3.zXzXzXzXzXF G G zXzXzXzXzXzXzXzXzXzXzXzXzXzXzX",
"zXzXzXzXzXzXzXzXzXzXzXzXzX$.{ ..o.O.e.7XzXzXzX2 @ o + 1 zXzXzX<.zXzXzXzXzXzX3.8.zXzXzXzXzXG S L zXzXzXzXzXzXzXzXzXzXzXzXzXzXzXzX",
"zXzXzXzXzXzXzXzXzXzXzXzXzXzXzX|  .X.V.v.zXzXzX2 - O o - zXzXzX<.zXzXzXzXzXzX6.zXzXzXzXzXzXT G ! zXzXzXzXzXzXzXzXzXzXzXzXzXzXzXzX",
"zXzXzXzXzXzXzXzXzXzXzXzXzXzXzXzXzXzXzX<.zXzXzXzX; + o @ zXzXzX1.zXzXzXzXzXzXb.zXzXzXzXzXG L Y G zXzXzXzXzXzXzXzXzXzXzXzXzXzXzXzX",
"zXzXzXzXzXzXzXzXzXzXzXzXzXzXzXzXzXzXzX>.8.zXzXzXe % O O e zXzX1.zXzXzXzXzXzXb.zXzXzXzXzXY G T zXzXzXzXzXzXzXzXzXzXzXzXzXzXzXzXzX",
"P P zXzXzXzXzXzXzXzXzXzXzXzXzXzXzXzXzXzX>.<.zXzX- - O X < zXzX1.zXzXzXzXzXzX6.zXzXzXzXm Y Y k zXzXzXzXzXzXzXzXzXzXzXzXzXzXzXzXzX",
"zXzXF N zXzXzXzXzXzXzXzXzXzXzXzXzXzXzXzXzX<.zXzXzX2 O X % zXzX1.zXzXzXzXzX<.6.zXzXzXzXf L D zXzXzXzXzXzXzXzXzXzXzXzXzXzXzXzXzXzX",
"zXzXzXzXJ N F a zXzXzXzXzXzXzXzXzXzXzXzXzX1.2.zXzX< + o + 2 zX1.zXzXzXzXzX8.3.zXzXzXm m L Y zXzXzXzXzXzXzXzXzXzXzXzXzXzXzXzXzXzX",
"zXzXzXzXzXzXN a N F zXzXzXzXzXzXzXzXzXzXzXzX` zXzXzX# O X > zX2.zXzXzXzXzX6.zXzXzXzXV D D zXzXzXzXzXzXzXzXzXzXzXzXzXzXzXzXzXzXzX",
"zXzXzXzXzXzXzXzXzXc x P F zXzXzXzXzXzXzXzXzX1.1.zXzX- + X & zX2.zXzXzXzXzX6.zXzXzXm G G G zXzXzXzXzXzXzXzXzXzXzXzXzXzXzXzXzXzXzX",
"zXzXzXzXzXzXzXzXzXzXzXa l b J zXzXzXzXzXzXzXzX` zXzX# # O % N 2.zXzXzXzXzX5.zXzXzXF L T zXzXzXzXzXzXzXzXzXzXzXzXzXzXzXzXzXzXzXzX",
"zXzXzXzXzXzXzXzXzXzXzXzXzXy i W zXzXzXzXzXzXzX2.>.zXe q O @ F 2.zXzXzXzXzX6.zXzXF G T T zXzXzXzXzXzXzXzXzXzXzXzXzXzXzXzXzXzXzXzX",
"zXzXzXzXzXzXzXzXzXzXzXzXzXzXzXS U zXzXzXzXzXzXzX>.zXzX5 % % 2 2.zXzXzXzX<.3.zXzXT T T zXzXzXzXzXzXzXzXzXzXzXzXzXzXzXzXzXzXzXzXzX",
"zXzXzXzXzXzXzXzXzXzXzXzXzXzXzXzXG b W zXzXzXzXzX1.>.zXN 4 @ - 2.zXzXzXzX3.3.zXn T T zXzXzXzXzXzXzXzXzXzXzXzXzXzXzXzXzXzXzXzXzXzX",
"zXzXzXzXzXzXzXzXzXzXzXzXzXzXzXzXzXS n =.zXzXzXzXzX>.zXF u - $ 2.zXzXzXzX6.zXzXY Y T zXzXzXzXzXzXzXzXzXzXzXzXzXzXzXzXzXzXzXzXzXzX",
"zXzXzXzXzXzXzXzXzXzXzXzXzXzXzXzXzXzXD i P _ zXzXzX2.2.N a ; - 1.zXzXzXzX5.zXn L Y zXzXzXzXzXzXzXzXzXzXzXzXzXzXzXzXzXzXzXzXzXzXzX",
"zXzXzXzXzXzXzXzXzXzXzXzXzXzXzXzXzXzXzXF i x C zXzXzX,.zXb 5 9 2.zXzXzX3.3.zXy L ! zXzXzXzXzXzXzXzXzXzXzXzXzXzXzXzXzXzXzXzXzXzXzX",
"zXzXzXzXzXzXzXzXzXzXzXzXzXzXzXzXzXzXzXzXS u b B zXzX2.n 0 w 9 <.zXzXzX3.zX] L E zXzXzXzXzXzXzXzXzXzXzXzXzXzXzXzXzXzXzXzXzXzXzXzX",
"zXzXzXzXzXzXzXzXzXzXzXzXzXzXzXzXzXzXzXzXzXH a l l zXK ,.q i 9 <.zXzXzX<.0.Q Y ! zXzXzXzXzXzXzXzXzXzXzXzXzXzXzXzXzXzXzXzXzXzXzXzX",
"zXzXzXzXzXzXzXzXzXzXzXzXzXzXzXzXzXzXzXzXzXzXF 5 a ; s 3.F n 1 1.zXzXzX3.0.! Y zXzXzXzXzXzXzXzXzXzXzXzXzXzXzXzXzXzXzXzXzXzXzXzXzX",
"zXzXzXzXzXzXzXzXzXzXzXzXzXzXzXzXzXzXzXzXzXzXzXF ; s p <.P w e ,.zXzXzX3.! ! ] zXzXzXzXzXzXzXzXzXzXzXzXzXzXzXzXzXzXzXzXzXzXzXzXzX",
"zXzXzXzXzXzXzXzXzXzXzXzXzXzXzXzXzXzXzXzXzXzXzXzXM s s z 3.x # <.zXzX2.7.! U zXzXzXzXzXzXzXzXzXzXzXzXzXzXzXzXzXzXzXzXzXzXzXzXzXzX",
"zXzXzXzXzXzXzXzXzXzXzXzXzXzXzXzXzXzXzXzXzXzXzXzXzXa s t ;.Z zX,.zXzX6.! F m zXzXzXzXzXzXzXzXzXzXzXzXzXzXzXzXzXzXzXzXzXzXzXzXzXzX",
"zXzXzXzXzXzXzXzXzXzXzXzXzXzXzXzXzXzXzXzXzXzXzXzXzXzXp s / ,.zX,.zXzX5.! R zXzXzXzXzXzXzXzXzXzXzXzXzXzXzXzXzXzXzXzXzXzXzXzXzXzXzX",
"zXzXzXzXzXzXzXzXzXzXzXzXzXzXzXzXzXzXzXzXzXzXzXzXzXzXS q * ;.zX,.zXzXW Y 7.zXzXzXzXzXzXzXzXzXzXzXzXzXzXzXzXzXzXzXzXzXzXzXzXzXzXzX",
"zXzXzXzXzXzXzXzXzXzXzXzXzXzXzXzXzXzXzXzXzXzXzXzXzXzXzXv @ *.3.,.zXzX3.~ zXzXzXzXzXzXzXzXzXzXzXzXzXzXzXzXzXzXzXzXzXzXzXzXzXzXzXzX",
"zXzXzXzXzXzXzXzXzXzXzXzXzXzXzXzXzXzXzXzXzXzXzXzXzXzXzXzXw 4 3.;.M *.M ~ zXzXzXzXzXzXzXzXzXzXzXzXzXzXzXzXzXzXzXzXzXzXzXzXzXzXzXzX",
"zXzXzXzXzXzXzXzXzXzXzXzXzXzXzXzXzXzXzXzXzXzXzXzXzXzXzXzXb * -.,.M -.U ( zXzXzXzXzXzXzXzXzXzXzXzXzXzXzXzXzXzXzXzXzXzXzXzXzXzXzXzX"
};
