/* XPM */
static char *flower_rose[] = {
/* columns rows colors chars-per-pixel */
"64 64 256 2",
"   c #182D07",
".  c #1C3C03",
"X  c #1E370B",
"o  c #213E05",
"O  c #233B0B",
"+  c #2B2E12",
"@  c #3E2F18",
"#  c #272E0D",
"$  c #480203",
"%  c #411101",
"&  c #540502",
"*  c #6C0000",
"=  c #7C0000",
"-  c #740100",
";  c #761D1C",
":  c #4C2606",
">  c #4D391E",
",  c #613219",
"<  c #7E391F",
"1  c #692B05",
"2  c #6A3A22",
"3  c #753921",
"4  c #2D4F04",
"5  c #25420C",
"6  c #2D4D0B",
"7  c #284707",
"8  c #30530A",
"9  c #3A5D0D",
"0  c #355706",
"q  c #2B4816",
"w  c #354D15",
"e  c #3B5C12",
"r  c #365616",
"t  c #314606",
"y  c #3C620B",
"u  c #3B6307",
"i  c #3B6312",
"p  c #3D621A",
"a  c #364D24",
"s  c #3B5124",
"d  c #3F592E",
"f  c #3B532F",
"g  c #3E5632",
"h  c #4A4211",
"j  c #515314",
"k  c #655617",
"l  c #40640B",
"z  c #406D0C",
"x  c #516E0A",
"c  c #4E790E",
"v  c #537008",
"b  c #486A18",
"n  c #586719",
"m  c #4C7417",
"M  c #567918",
"N  c #627819",
"B  c #405B2F",
"V  c #435B32",
"C  c #544A28",
"Z  c #60572A",
"A  c #6A4B31",
"S  c #764D2D",
"D  c #4B6A23",
"F  c #466725",
"G  c #53662C",
"H  c #516D23",
"J  c #4A7127",
"K  c #5D7B2B",
"L  c #577927",
"P  c #506A31",
"I  c #597A35",
"U  c #5C753E",
"Y  c #496B32",
"T  c #626E2A",
"R  c #6A6737",
"E  c #7E6933",
"W  c #687837",
"Q  c #767E34",
"!  c #707824",
"~  c #657846",
"^  c #7E7F48",
"/  c #820000",
"(  c #8C0100",
")  c #910201",
"_  c #9B0000",
"`  c #9F1B0D",
"'  c #831D1C",
"]  c #A30000",
"[  c #AC0000",
"{  c #A80C06",
"}  c #B40101",
"|  c #BA0100",
" . c #BA160C",
".. c #B41918",
"X. c #882212",
"o. c #94311B",
"O. c #923A20",
"+. c #883C2A",
"@. c #B62320",
"#. c #BC3231",
"$. c #C30101",
"%. c #CD0101",
"&. c #CD0B0A",
"*. c #CD0608",
"=. c #D30202",
"-. c #DB0202",
";. c #DE0806",
":. c #DC090B",
">. c #D60A0D",
",. c #CC100F",
"<. c #D4140C",
"1. c #DE140F",
"2. c #C41A17",
"3. c #D71416",
"4. c #E40304",
"5. c #EA0405",
"6. c #E90608",
"7. c #E40B0C",
"8. c #EB0B0B",
"9. c #E70807",
"0. c #F20405",
"q. c #F40B0B",
"w. c #FA0D0D",
"e. c #E3120E",
"r. c #ED100D",
"t. c #F7100D",
"y. c #EC0E12",
"u. c #E30B10",
"i. c #F70F13",
"p. c #EE1312",
"a. c #E51C14",
"s. c #EB1A15",
"d. c #E9171D",
"f. c #E11A19",
"g. c #EC1C1D",
"h. c #E71119",
"j. c #F51414",
"k. c #FA1112",
"l. c #FB161A",
"z. c #F61B1C",
"x. c #D82017",
"c. c #E82218",
"v. c #E61D24",
"b. c #FC1E22",
"n. c #F61A21",
"m. c #D32A28",
"M. c #C33323",
"N. c #E62C2A",
"B. c #F62325",
"V. c #FA2626",
"C. c #FB2B2B",
"Z. c #F92728",
"A. c #EC2A32",
"S. c #FB2C32",
"D. c #F22C32",
"F. c #EB3334",
"G. c #E43438",
"H. c #F33137",
"J. c #F53439",
"K. c #FC343C",
"L. c #FB3234",
"P. c #AF4029",
"I. c #AF513D",
"U. c #91623A",
"Y. c #CD403C",
"T. c #EC3C43",
"R. c #FA3641",
"E. c #BF5340",
"W. c #87785A",
"Q. c #EF4143",
"!. c #F84648",
"~. c #F34B54",
"^. c #E95154",
"/. c #5C8617",
"(. c #658B1B",
"). c #788D1E",
"_. c #65921B",
"`. c #7A981F",
"'. c #78AA18",
"]. c #5E8422",
"[. c #628527",
"{. c #678C28",
"}. c #7A8D28",
"|. c #6C9627",
" X c #789D25",
".X c #7D962B",
"XX c #769A27",
"oX c #658735",
"OX c #6A8933",
"+X c #6D873A",
"@X c #6A8A3F",
"#X c #7C863E",
"$X c #748735",
"%X c #6E953B",
"&X c #799D38",
"*X c #759538",
"=X c #77A627",
"-X c #7BA23C",
";X c #7BA136",
":X c #6A824C",
">X c #708D42",
",X c #7D8843",
"<X c #759146",
"1X c #7A9445",
"2X c #7C944A",
"3X c #7C984C",
"4X c #789547",
"5X c #7B8A57",
"6X c #7C9A53",
"7X c #789355",
"8X c #6D9544",
"9X c #7BA442",
"0X c #83982F",
"qX c #829930",
"wX c #829B3B",
"eX c #869338",
"rX c #868E2B",
"tX c #8EB52D",
"yX c #84A43A",
"uX c #8CAE3F",
"iX c #85AC35",
"pX c #8AB634",
"aX c #90B235",
"sX c #98C232",
"dX c #869E43",
"fX c #829A4E",
"gX c #87924D",
"hX c #8E8D51",
"jX c #97805C",
"kX c #8C9451",
"lX c #849B52",
"zX c #829751",
"xX c #919054",
"cX c #9B9E4A",
"vX c #83A342",
"bX c #8AA34A",
"nX c #8BAD49",
"mX c #93AC4E",
"MX c #93A74D",
"NX c #8BB341",
"BX c #8BB14C",
"VX c #95B94E",
"CX c #95B843",
"ZX c #89A754",
"AX c #9FA05D",
"SX c #92AD58",
"DX c #98BA57",
"FX c #A6A857",
"GX c #A1BD58",
"HX c #A4BE47",
"JX c #939866",
"KX c #8DB660",
"LX c #9CB264",
"PX c #A1A668",
"IX c #9BC349",
"UX c None",
/* pixels */
"UXUXUXUXUXUXUXUXUXUXUXUXUXUXUXUXUXUXUXUXUXUXUXUXUXUXUXUXUXUXUXUXUXUXUXUXUXUXUXUXUXUXUXUXUXUXUXUXUXUXUXUXUXUXUXUXUXUXUXUXUXUXUXUX",
"UXUXUXUXUXUXUXUXUXUXUXUXUXUXUXUXUXUXUXUXUXUXUXUXUXUXUXUXUXUXUXUXUXUXUXUXUXUXUXUXUXUXUXUXUXUXUXUXUXUXUXUXUXUXUXUXUXUXUXUXUXUXUXUX",
"UXUXUXUXUXUXUXUXUXUXUXUXUXUXUXUXUXUXUXUXUXUXUXUXUXUXUXUXUXUXUXUXUXUXUXUXUXUXUXUXUXUXUXUXUXUXUXUXUXUXUXUXUXUXUXUXUXUXUXUXUXUXUXUX",
"UXUXUXUXUXUXUXUXUXUXUXUXUXUXUXUXUXUXUXUXUXUXUXUXUXUXUXUXUXUXUXUXUXUXUXUXUXUXUXUXUXUXUXUXUXUXUXUXUXUXUXUXUXUXUXUXUXUXUXUXUXUXUXUX",
"UXUXUXUXUXUXUXUXUXUXUXUXUXUXUXUXUXUXUXUXUXUXUXUXUXUXUXUXUXUXUXUXUXUXUXUXUXUXUXUXUXUXUXUXUXUXUXUXUXUXUXUXUXUXUXUXUXUXUXUXUXUXUXUX",
"UXUXUXUXUXUXUXUXUXUXUXUXUXUXUXUXUXUXUXUXUXUXUXUXUXUXUXUXUXUXUXUXUXUXUXUXUXUXUXUXUXUXUXUXUXUXUXUXUXUXUXUXUXUXUXUXUXUXUXUXUXUXUXUX",
"UXUXUXUXUXUXUXUXUXUXUXUXUXUXUXUXUXUXUXUXUXUXUXUXUXUXUXUXUXUXUXUXUXUXUXUXUXUXUXUXUXUXUXUXUXUXUXUXUXUXUXUXUXUXUXUXUXUXUXUXUXUXUXUX",
"UXUXUXUXUXUXUXUXUXUXUXUXUXUXUXUXUXUXUXUXUXUXUXUXUXUXUXUXUXUXUXUXUXUXUXUXUXUXUXUXUXUXUXUXUXUXUXUXUXUXUXUXUXUXUXUXUXUXUXUXUXUXUXUX",
"UXUXUXUXUXUXUXUXUXUXUXUXUXUXUXUXUXUXUXUXUXUXUXUXUXUXUXUXUXUXUXUXUXUXUXUXUXUXUXUXUXUXUXUXUXUXUXUXUXUXUXUXUXUXUXUXUXUXUXUXUXUXUXUX",
"UXUXUXUXUXUXUXUXUXUXUXUXUXUXUXUXUXUXUXUXUXUXUXUXUXUXUXUXUXUXUXUXUXUXUXUXUXUXUXUXUXUXUXUXUXUXUXUXUXUXUXUXUXUXUXUXUXUXUXUXUXUXUXUX",
"UXUXUXUXUXUXUXUXUXUXUXUXUXUXUXUXUXUXUXUXUXUXUXUXUXUXUXUXUXM.q.5.t.9.2.UXUXUXUXUXUXUXUXUXUXUXUXUXUXUXUXUXUXUXUXUXUXUXUXUXUXUXUXUX",
"UXUXUXUXUXUXUXUXUXUXUXUXUXUXUXUXUXUXUXUXUXUXUXUXUXUX~.G.v.7.w.q.w.q.q.6.@.=.UXUXUXUXUXUXUXUXUXUXUXUXUXUXUXUXUXUXUXUXUXUXUXUXUXUX",
"UXUXUXUXUXUXUXUXUXUXUXUXUXUXUXUXUXUXUXUXUXUXUXUXv.A.R.v.u.6.w.w.t.l.b.6.$.>.S.v.h.UXUXUXUXUXUXUXUXUXUXUXUXUXUXUXUXUXUXUXUXUXUXUX",
"UXUXUXUXUXUXUXUXUXUXUXUXUXUXUXUXUXUXUXUXUXUXUX%.u.v.v.>.=.i.k.k.l.z.K.*.$.*.8.:.y.:.UXUXUXUXUXUXUXUXUXUXUXUXUXUXUXUXUXUXUXUXUXUX",
"UXUXUXUXUXUXUXUXUXUXUXUXUXUXUXUXUXUXUXUXUXUX%.%.;.;.i.>.%.J.j.i.l.S.D.%.=.%.%.=.;.9.UXUXUXUXUXUXUXUXUXUXUXUXUXUXUXUXUXUXUXUXUXUX",
"UXUXUXUXUXUXUXUXUXUXUXUXUXUXUXUXUXUXUXUXUXUX-.-.=.8.6.8.=.7.8.j.z.R.d.4.=.$.;.9.-.-.t.s.UXUXUXUXUXUXUXUXUXUXUXUXUXUXUXUXUXUXUXUX",
"UXUXUXUXUXUXUXUXUXUXUXUXUXUXUXUXUXUXUXUXUXUX5.5.-.8.s.-.5.%.<.M.I.I.x.a.f.=.4.5.=.4.0.w.J.UXUXUXUXUXUXUXUXUXUXUXUXUXUXUXUXUXUXUX",
"UXUXUXUXUXUXUXUXUXUXUXUXUXUXUXUXUXUXUXUXUX7.8.0.4.e.s.=.6.1.P.O.O.A O.U.T.=.-.=.-.4.0.0.D.!.UXUXUXUXUXUXUXUXUXUXUXUXUXUXUXUXUXUX",
"UXUXUXUXUXUXUXUXUXUXUXUXUXUXUXUXUXUXUXUXJ.k.q.w.q.q.s.-.a.2.< S JXW.C < ,.=.-.=.4.0.0.-.J.!.~.UXUXUXUXUXUXUXUXUXUXUXUXUXUXUXUXUX",
"UXUXUXUXUXUXUXUXUXUXUXUXUXUXUXUXUXUXUX^.S.l.k.w.q.0.5.=.&., @ R FXxX> 2 ,.-.4.=.4.5.%.3.J.K.~.UXUXUXUXUXUXUXUXUXUXUXUXUXUXUXUXUX",
"UXUXUXUXUXUXUXUXUXUXUXUXUXUXUXUXUXUXUXF.z.n.w.q.9.8.5.$.$.} X. .,.` { =.=.9.%.| 5.-.| &.B.C.UXUXUXUXUXUXUXUXUXUXUXUXUXUXUXUXUXUX",
"UXUXUXUXUXUXUXUXUXUXUXUXUXUXUXUXUXUXUXUXk.8.%.6.7.| } | | | | %.$.| $.%.>.%.| %.=.] } 3.L.F.UXUXUXUXUXUXUXUXUXUXUXUXUXUXUXUXUXUX",
"UXUXUXUXUXUXUXUXUXUXUXUXUXUXUXUXUXUXUXUXUX5.%.$.%.%.| } ] [ | | [ / ) } %.%.[ ] ) ] $.-.g.UXUXUXUXUXUXUXUXUXUXUXUXUXUXUXUXUXUXUX",
"UXUXUXUXUXUXUXUXUXUXUXUXUXUXUXUXUXUXUXUXUXUX-.%.| ] ] [ | } [ _ [ | | | } ( - / _ } =.<.UXUXUXUXUXUXUXUXUXUXUXUXUXUXUXUXUXUXUXUX",
"UXUXUXUXUXUXUXUXUXUXUXUXUXUXUXUXUXUXUXUXUXUXUX8.4.-.[ = = ( _ [ [ ] ] _ X.UXUXUXUXUXUXUXUXUXUXUXUXUXUXUXUXUXUXUXUXUXUXUXUXUXUXUX",
"UXUXUXUXUXUXUXUXUXUXUXUXUXUXUXUXUXUXUXUXUXUXUXUXy.q.5.4.%.$.[ _ ) / = * ; UXUXUXUXUXUXUXUXUXUXUXUXUXUXUXUXUXUXUXUXUXUXUXUXUXUXUX",
"UXUXUXUXUXUXUXUXUXUXUXUXUXUXUXUXUXUXUXUXUXUXUXUXUXB.z.l.q.5.=.=.%.| } } @.UXUXUXUXUXUXUXUXUXUXUXUXUXUXUXUXUXUXUXUXUXUXUXUXUXUXUX",
"UXUXUXUXUXUXUXUXUXUXUXUXUXUXUXUXUXUXUXUXUXUXUXUXUXUXC.V.V.8.s.j.8.;.=.,.G.UXUXUXUXUXUXUXUXUXUXUXUXUXUXUXUXUXUXUXUXUXUXUXUXUXUXUX",
"UXUXUXUXUXUXUXUXUXUXUXUXUXUXUXUXUXUXUXUXUXUXUXUXUXUXUXF.V.s.V.V.V.p.;.&.N.G.UXUXUXUXUXUXUXUXUXUXUXUXUXUXUXUXUXUXUXUXUXUXUXUXUXUX",
"UXUXUXUXUXUXUXUXUXUXUXUXUXUXUXUXUXUXUXUXUXUXUXUXUXUXUXUXm.v.C.C.l.V.s.e.3.UXUXUXUXUXUXUXUXUXUXUXUXUXUXUXUXUXUXUXUXUXUXUXUXUXUXUX",
"UXUXUXUXUXUXUXUXUXUXUXUXUXUXUXUXUXUXUXUXUXUXUXUXUXUXUXUXUXN.C.C.B.L.L.B.m.UXUXUXUXUXUXUXUXUXUXUXUXUXUXUXUXUXUXUXUXUXUXUXUXUXUXUX",
"UXUXUXUXUXUXUXUXUXUXUXUXUXUXUXUXUXUXUXUXUXUXUXUXUXUXUXUXUXUXUXrXF.C.Q.UXUXUXUXUXUXUXUXUXUXUXUXUXUXUXUXUXUXUXUXUXUXUXUXUXUXUXUXUX",
"UXUXUXUXUXUXUXUXUXUXUXUXUXUXUXUXUXUXUXUXUXUXUXUXUXUXUXUXUXUXUX.XUXUXUXUXUXUXUXUXUXUXUXUXUXUXUXUXUXUXUXUXUXUXUXUXUXUXUXUXUXUXUXUX",
"UXUXUXUXUXUXUXUXUXUXUXUXUXUXUXUXUXUXUXUXUXUXUXUXUXUXUXUXUXUXUX.XUXUXUXUXUXUXUXUXUXUXUXUXUXUXUXUXUXUXUXUXUXUXUXUXUXUXUXUXUXUXUXUX",
"UXUXUXUXUXUXUXUXUXUXUXUXUXUXUXUXUXUXUXUXUXUXUXUXUXUXUXUXUXUXUX.XUXUXUXUXUXUXUXUXUXUXUXUXUXUXUXUXUXUXUXUXUXUXUXUXUXUXUXUXUXUXUXUX",
"UXUXUXUXUXUXUXUXUXUXUXUXUXUXUXUXUXUXUXUXUXUXUXUXUXUXUXUXUXUXUX.XUXUXUXUXUXUXUXUXUXUXUXUXUXUXUXUXUXUXUXUXUXUXUXUXUXUXUXUXUXUXUXUX",
"UXUXUXUXUXUXUXUXUXUXUXUXUXUXUXUXUXUXUXUXUXUXUXUXUXUXUXUXUXUXUX.XUXUXUXUXUXUXUXUXUXUXUXUXUXUXUXUXUXUXUXUXUXUXUXUXUXUXUXUXUXUXUXUX",
"UXUXUXUXUXUXUXUXUXUXUXUXUXUXUXUXUXUXUXUXUXUXUXUXUXUXUXUXUXUXUXqXUXUXUXUXUXUXUXUXUXUXUXUXUXUXUXUXUXUXUXUXUXUXUXUXUXUXUXUXUXUXUXUX",
"UXUXUXUXUXUXUXUXUXUXUXUXUXUXUXUXUXUXUXUXUXUXUXUXUXUXUXUXUXUXUXqXUXUXUXUXUXUXUXUXUXUXUXUXUXUXUXUXUXUXUXUXUXUXUXUXUXUXUXUXUXUXUXUX",
"UXUXUXUXUXUXUXUXUXUXUXUXUXUXUXUXUXUXUXUXUXUXUXUXUXUXUXUXUXUXUXqXUXUXUXUXUXUXUXUXUXUXUXUXUXUXUXUXUXUXUXUXUXUXUXUXUXUXUXUXUXUXUXUX",
"UXUXUXUXUXUXUXUXUXUXUXUXUXUXUXUXUXUXUXUXUXUXUXUXUXUXUXUXUXUXUXqXlXUXUXUXUXUXUXUXUXUXUXUXUXUXUXUXUXUXUXUXUXUXUXUXUXUXUXUXUXUXUXUX",
"UXUXUXUXUXUXUXUXUXUXUXUXUXUXUXUXUXUXUXUXUXUXUXUXUXUXUXUXUXUX2X0XwXUXUXUXUXUXUXUXUXUXUXUXUXUXUXUXUXUXUXUXUXUXUXUXUXUXUXUXUXUXUXUX",
"UXUXUXUXUXUXUXUXUXUXUXUXUXUXUXUXUXUXUXUXUXUXUXUXUXUXUXUXUXUX<X0XdX3XUXUXUXUXUXUXUXUXUXUXUXUXUXUXUXUXUXUXUXUXUXUXUXUXUXUXUXUXUXUX",
"UXUXUXUXUXUXUXUXUXUXUXUXUXUXUXUXUXUXUXUXUXUX<X%X<XUXUXPX#X#XzX}.wXlXUXUXUXUXUXUXUXUXUXUXUXUXUXUXUXUXUXUXUXUXUXUXUXUXUXUXUXUXUXUX",
"UXUXUXUXUXUXUXUXUXUXUXUXUXUXUXUXUXUXUXUXUXUXUX<X|.7XUXwX#XaX0X}.&X*X6XUXUXUXUXUXUXUXUXUXUXUXUXUXUXUXUXUXUXUXUXUXUXUXUXUXUXUXUXUX",
"UXUXUXUXUXUXUXUXUXUXUXUXUXUXUXUXUXUXUXUXUXUXUXUXUX-XUXUX,XgX0X).[.CX<XUX<XUXUXUXUXUXUXUXUXUXUXUXUXUXUXUXUXUXUXUXUXUXUXUXUXUXUXUX",
"UXUXUXUXUXUXUXUXUXUXUXUXUXUXUXUXUXUXUXUXUXUXUXUXUXUX=XUXUXUXeX#XyX XlX X5XUXUXUXUXUXUXUXUXUXUXUXUXUXUXUXUXUXUXUXUXUXUXUXUXUXUXUX",
"UXUXUXUXUXUXUXUXUXUXUXUXUXUXUXUXUXUXUXUXUXUXUXUXUXUX3XvXvXUXzXN N tXvX*X<XUXUXUXUXUXUXUXUXUXUXUXUXUXUXUXUXUXUXUXUXUXUXUXUXUXUXUX",
"UXUXUXUXUXUXUXUXUXUXUXUXUXUXUXUXUXUXUXUXUXUXUXUXUXUXUXGX1XUXUXH v `.XX%XUX:XUXUXUXUXUXUXUXUXUXUXUXUXUXUXUXUXUXUXUXUXUXUXUXUXUXUX",
"UXUXUXUXUXUXUXUXUXUXUXUXUXUXUXUXUXUXUXUXUXUXUXMXbXUXUXlX1XUXUXfX4 9 M c HX2X|.UXUXUXUXUXUXUXUXUXUXUXUXUXUXUXUXUXUXUXUXUXUXUXUXUX",
"UXUXUXUXUXUXUXUXUXUXUXUXUXUXUXUXUXUXUXUXUXUX^ vXXXpXpX2X4X*XyXgXn e /.UXUX<XuX&XUXUXUXUXUXUXUXUXUXUXUXUXUXUXUXUXUXUXUXUXUXUXUXUX",
"UXUXUXUXUXUXUXUXUXUXUXUXUXUXUXUXUXUXUXUXUXW.E Q yXUXKX9X4XbX&X/.v n M {.UXUXUXZXSXUXUXUXUXUXUXUXUXUXUXUXUXUXUXUXUXUXUXUXUXUXUXUX",
"UXUXUXUXUXUXUXUXUXUXUXUXUXUXUXUXUXUXUXUXUXhXn T UXUX;XZXVXpXUXUX! w +X_./.UXUXlX|.4X@XfX:XUXUXUXUXUXUXUXUXUXUXUXUXUXUXUXUXUXUXUX",
"UXUXUXUXUXUXUXUXUXUXUXUXUXUXUXUXUXUXUXUXUXUXC UXUXZXsXIX'.mXv vX~ UX^ $X8Xy +XUXm OXK @X~ U UXUXUXUXUXUXUXUXUXUXUXUXUXUXUXUXUXUX",
"UXUXUXUXUXUXUXUXUXUXUXUXUXUXUXUXUXUXUXUXUXUXUXUXdXIXNXUXUXUXM .X~ UXUXUXUX>Xy ].DX|.W UX>XUXUXUXUXUXUXUXUXUXUXUXUXUXUXUXUXUXUXUX",
"UXUXUXUXUXUXUXUXUXUXUXUXUXUXUXUXUXUXUXUXUXUXUXwXkXUX'.I 9 m =X XW SXlXUXUXUX2Xy I XXUX*XvXUXUXUXUXUXUXUXUXUXUXUXUXUXUXUXUXUXUXUX",
"UXUXUXUXUXUXUXUXUXUXUXUXUXUXUXUXUXUXUXUXUXUX;X$XR U _.UXUX].pX(.j I ZX7X3XUXCXiXu x =XXX4XUXUXUXUXUXUXUXUXUXUXUXUXUXUXUXUXUXUXUX",
"UXUXUXUXUXUXUXUXUXUXUXUXUXUXUXUXUXUXUXUXUXfXmXW R 4 0 8 UXUXy 9 0 b D F D BXBXVXOXz M (.UXUXUXUXUXUXUXUXUXUXUXUXUXUXUXUXUXUXUXUX",
"UXUXUXUXUXUXUXUXUXUXUXUXUXUXUXUXUXUXUXUXUXG FXT Z UXUXi J 8 b 9 t 1 h O e p K UXOXl y e Y g UXUXUXUXUXUXUXUXUXUXUXUXUXUXUXUXUXUX",
"UXUXUXUXUXUXUXUXUXUXUXUXUXUXUXUXUXUXUXUXUXG hXZ > AXUXUX7X7 @Xr w : & UX/.UX0 b 7 q M i 7 d UXUXUXUXUXUXUXUXUXUXUXUXUXUXUXUXUXUX",
"UXUXUXUXUXUXUXUXUXUXUXUXUXUXUXUXUXUXUXUXUXG FXA , PXUXUX%Xo . X # $ $ k oXUXL   8 o q p q 6 g UXUXUXUXUXUXUXUXUXUXUXUXUXUXUXUXUX",
"UXUXUXUXUXUXUXUXUXUXUXUXUXUXUXUXUXUXUXUXUXG Q xX! MXGXSX8 b J P + % : 6 c ].].b J X UXY 6 q d g UXUXUXUXUXUXUXUXUXUXUXUXUXUXUXUX",
"UXUXUXUXUXUXUXUXUXUXUXUXUXUXUXUXUXUXUXUXJXgXW [.uX*XyXVX8XBX{.s   O u i 9 /.].i o r V UX5 s q V UXUXUXUXUXUXUXUXUXUXUXUXUXUXUXUX",
"UXUXUXUXUXUXUXUXUXUXUXUXUXUXUXUXUXUXUX}.N j cXoXnX].M nXuX3XK r # 7 iX|.4 L 9 F . a 7 5 o D . V UXUXUXUXUXUXUXUXUXUXUXUXUXUXUXUX"
};
