/* XPM */
static char *flower_tulip_red[] = {
/* columns rows colors chars-per-pixel */
"64 64 256 2",
"   c #0A1606",
".  c #020702",
"X  c #0E270B",
"o  c #142709",
"O  c #14330D",
"+  c #1B350B",
"@  c #153C0D",
"#  c #1A3A0B",
"$  c #1B3C07",
"%  c #173914",
"&  c #0F3514",
"*  c #223C09",
"=  c #253E1E",
"-  c #1D3E25",
";  c #590507",
":  c #5C0B10",
">  c #6C0305",
",  c #670307",
"<  c #760406",
"1  c #75141B",
"2  c #700D16",
"3  c #6E1C24",
"4  c #5C282E",
"5  c #783234",
"6  c #1C410E",
"7  c #1D4416",
"8  c #23440C",
"9  c #254C0D",
"0  c #224414",
"q  c #2B4C12",
"w  c #244319",
"e  c #284C17",
"r  c #324A1A",
"t  c #2B5D1F",
"y  c #29541B",
"u  c #36541A",
"i  c #2E4C0F",
"p  c #1E4724",
"a  c #2B4C23",
"s  c #2A4B2B",
"d  c #274825",
"f  c #324C28",
"g  c #2D5B24",
"h  c #2D5B2A",
"j  c #295327",
"k  c #36522C",
"l  c #335C2C",
"z  c #395825",
"x  c #2C5836",
"c  c #345D33",
"v  c #395734",
"b  c #324C36",
"n  c #2D612B",
"m  c #32642B",
"M  c #396629",
"N  c #356333",
"B  c #3C6D34",
"V  c #3D6239",
"C  c #396839",
"Z  c #3C7239",
"A  c #2F6433",
"S  c #67451F",
"D  c #41641C",
"F  c #455C29",
"G  c #455C37",
"H  c #5A672F",
"J  c #446939",
"K  c #586938",
"L  c #4F783B",
"P  c #6F7835",
"I  c #3A6544",
"U  c #3F7A48",
"Y  c #7B434A",
"T  c #456647",
"R  c #5A6A48",
"E  c #457B44",
"W  c #487747",
"Q  c #5A7C45",
"!  c #4D7B52",
"~  c #5A7E52",
"^  c #616E48",
"/  c #64724B",
"(  c #657C4A",
")  c #627545",
"_  c #737B45",
"`  c #6B7857",
"'  c #707D5B",
"]  c #5C7B64",
"[  c #860404",
"{  c #890709",
"}  c #9B0305",
"|  c #980709",
" . c #8C1819",
".. c #9D1417",
"X. c #A60305",
"o. c #AA0504",
"O. c #AC0509",
"+. c #A70B0B",
"@. c #B30405",
"#. c #BB0506",
"$. c #BC0609",
"%. c #B30A0D",
"&. c #BA0B0C",
"*. c #B2060A",
"=. c #AA0D13",
"-. c #A50F17",
";. c #B40E13",
":. c #BC0D13",
">. c #AB1718",
",. c #BC141A",
"<. c #B7151A",
"1. c #A1231F",
"2. c #881C23",
"3. c #9B1F21",
"4. c #A21E26",
"5. c #BA1D22",
"6. c #B61D21",
"7. c #8A262A",
"8. c #922727",
"9. c #873538",
"0. c #95323C",
"q. c #B7252A",
"w. c #A62B32",
"e. c #B92D32",
"r. c #A83137",
"t. c #B73536",
"y. c #C50A0D",
"u. c #C40809",
"i. c #C20C11",
"p. c #CB0E13",
"a. c #C51216",
"s. c #CD1115",
"d. c #CD141B",
"f. c #C7181C",
"g. c #D1151B",
"h. c #D2151A",
"j. c #CC201A",
"k. c #C31621",
"l. c #C71B23",
"z. c #D41C24",
"x. c #D81E27",
"c. c #C5272B",
"v. c #D7252A",
"b. c #CA2937",
"n. c #DA2531",
"m. c #D32A35",
"M. c #DC2B34",
"N. c #DC2C3B",
"B. c #D52733",
"V. c #D73436",
"C. c #C8393D",
"Z. c #E02A39",
"A. c #904D38",
"S. c #D1403E",
"D. c #9B3A43",
"F. c #833843",
"G. c #AE3D46",
"H. c #B13944",
"J. c #C63742",
"K. c #DB3442",
"L. c #D73C49",
"P. c #DF3C52",
"I. c #E13748",
"U. c #864546",
"Y. c #834851",
"T. c #A8414B",
"R. c #BA4B46",
"E. c #AB5159",
"W. c #B05E51",
"Q. c #857D5F",
"!. c #B36659",
"~. c #B65961",
"^. c #927F74",
"/. c #847C64",
"(. c #B56174",
"). c #B96A6B",
"_. c #D5444A",
"`. c #C74954",
"'. c #D84755",
"]. c #DA5A5E",
"[. c #C55552",
"{. c #E2454B",
"}. c #E4485A",
"|. c #E6505B",
" X c #CA5B68",
".X c #DA5765",
"XX c #DB5E71",
"oX c #E54D66",
"OX c #E4576A",
"+X c #E65E72",
"@X c #DC6568",
"#X c #CB6A77",
"$X c #D66778",
"%X c #C1757D",
"&X c #CF6A72",
"*X c #E4656E",
"=X c #E86376",
"-X c #E7677A",
";X c #E77979",
":X c #78803D",
">X c #61813E",
",X c #57875A",
"<X c #4F8655",
"1X c #69854C",
"2X c #67885C",
"3X c #72825B",
"4X c #778850",
"5X c #5D8662",
"6X c #5B8962",
"7X c #6D8364",
"8X c #678C69",
"9X c #798A66",
"0X c #7D9773",
"qX c #77936A",
"wX c #83916E",
"eX c #D9997F",
"rX c #B8778B",
"tX c #CE7C83",
"yX c #D8788A",
"uX c #D9748F",
"iX c #E66B84",
"pX c #E87889",
"aX c #E97A93",
"sX c #BC8796",
"dX c #8BA481",
"fX c #A4A19F",
"gX c #C68498",
"hX c #D48A99",
"jX c #CA969B",
"kX c #D89C97",
"lX c #E88497",
"zX c #E7969D",
"xX c #E68385",
"cX c #E8A293",
"vX c #C994A5",
"bX c #D995A7",
"nX c #DF99B1",
"mX c #EE95AA",
"MX c #E597A9",
"NX c #F097AB",
"BX c #F19EB1",
"VX c #D3A8B3",
"CX c #CDA9B5",
"ZX c #E8A3A3",
"AX c #E9A8B8",
"SX c #F0A5B8",
"DX c #F0B3BF",
"FX c #CDBEC4",
"GX c #EAB8C6",
"HX c #F1B4C3",
"JX c #DECFD4",
"KX c #E8CBD4",
"LX c #ECD8DE",
"PX c #E0C1CA",
"IX c #F2D7E0",
"UX c None",
/* pixels */
"UXUXUXUXUXUXUXUXUXUXUXUXUXUXUXUXUXUXUXUXUXUXUXUXUXUXUXUXUXUXUXUXUXUXUXUXUXUXUXUXUXUXUXUXUXUXUXUXUXUXUXUXUXUXUXUXUXUXUXUXUXUXUXUX",
"UXUXUXUXUXUXUXUXUXUXUXUXUXUXUXUXUXUXUXUXUXUXUXUXUXUXUXUXUXUXUXUXUXUXUXUXUXUXUXUXUXUXUXUXUXUXUXUXUXUXUXUXUXUXUXUXUXUXUXUXUXUXUXUX",
"UXUXUXUXUXUXUXUXUXUXUXUXUXUXUXUXUXUXUXUXUXUXUXUXUXUXUXUXUXUXUXUXUXUXUXUXUXUXUXUXUXUXUXUXUXUXUXUXUXUXUXUXUXUXUXUXUXUXUXUXUXUXUXUX",
"UXUXUXUXUXUXUXUXUXUXUXUXUXUXUXUXUXUXUXUXUXUXUXUXUXUXUXUXUXUXUXUXUXUXUXUXUXUXUXUXUXUXUXUXUXUXUXUXUXUXUXUXUXUXUXUXUXUXUXUXUXUXUXUX",
"UXUXUXUXUXUXUXUXUXUXUXUXUXUXUXUXUXUXUXUXUXUXUXUXUXUXUXUXUXUXUXUXUXUXUXUXUXUXUXUXUXUXUXUXUXUXUXUXUXUXUXUXUXUXUXUXUXUXUXUXUXUXUXUX",
"UXUXUXUXUXUXUXUXUXUXUXUXUXUXUXUXUXUXUXUXUXUXUXUXUXUXUXUXUXUXUXUXUXUXUXUXUXUXUXUXUXUXUXUXUXUXUXUXUXUXUXUXUXUXUXUXUXUXUXUXUXUXUXUX",
"UXUXUXUXUXUXUXUXUXUXUXUXUXUXUXUXUXUXUXUXUXUXUXUXUXUXUXUXUXUXUXUXUXUXUXUXUXUXUXUXUXUXUXUXUXUXUXUXUXUXUXUXUXUXUXUXUXUXUXUXUXUXUXUX",
"UXUXUXUXUXUXUXUXUXUXUXUXUXUXUXUXUXUXUXUXUXUXUXUXUXUXUXUXUXUXUXUXUXUXUXUXUXUXUXUXUXUXUXUXUXUXUXUXUXUXUXUXUXUXUXUXUXUXUXUXUXUXUXUX",
"UXUXUXUXUXUXUXUXUXUXUXUXUXUXUXUXUXUXUXUXUXUXUXUXUXUXUXUXUXUXUXUXUXUXUXUXUXUXUXUXUXUXUXUXUXUXUXUXUXUXUXUXUXUXUXUXUXUXUXUXUXUXUXUX",
"UXUXUXUXUXUXUXUXUXUXUXUXUXUXUXUXUXUXUXUXUXUXUXUXUXUXUXUXUXUXUXUXUXUXUXUXUXUXUXUXUXUXUXUXUXUXUXUXUXUXUXUXUXUXUXUXUXUXUXUXUXUXUXUX",
"UXUXUXUXUXUXUXUXUXUXUXUXUXUXUXUXUXUXUXUXUXUXUXUXUXUXUXUXUXUXUXUXUXUXUXUXUXUXUXUXUXUXUXUXUXUXUXUXUXUXUXUXUXUXUXUXUXUXUXUXUXUXUXUX",
"UXUXUXUXUXUXUXUXUXUXUXUXUXUXUXUXUXUXUXUXUXUXUXUXUXUXUXUXUXUXUXUXUXUXUXUXUXUXUXUXUXUXUXUXUXUXUXUXUXUXUXUXUXUXUXUXUXUXUXUXUXUXUXUX",
"UXUXUXUXUXUXUXUXUXUXUXUXUXUXUXUXUXUXUXUXUXUXUXUXUXUXUXUXUXyXuXUXUXUXUXUXUXUXUXUXUXUXUXUXUXUXUXUXUXUXUXUXUXUXUXUXUXUXUXUXUXUXUXUX",
"UXUXUXUXUXUXUXUXUXUXUXUXUXUXUXUXUXUXUXUXUXUXUXUXUXUXN.K.XXJ.w.rXUXUXUXUXUXUXUXUXUXUXUXUXUXUXUXUXUXUXUXUXUXUXUXUXUXUXUXUXUXUXUXUX",
"UXUXUXUXUXUXUXUXUXUXUXUXUXUXUXUXUXUXUXUXUXUXUXaXlXmXV.a.,.=.{ (.UXUXUXUXUXUXUXUXUXUXUXUXUXUXUXUXUXUXUXUXUXUXUXUXUXUXUXUXUXUXUXUX",
"UXUXUXUXUXUXUXUXUXUXUXUXUXUXUXUXUXUXUXUXUXUXUXAXI.d.:.O.X.| [ T.gXUXUXUXUXUXUXUXUXUXUXUXUXUXUXUXUXUXUXUXUXUXUXUXUXUXUXUXUXUXUXUX",
"UXUXUXUXUXUXUXUXUXUXUXUXUXUXUXUXUXUXUXUXUXUXUX$X XO.o.+...{ < 2.lXyXUXUXUXUXUXUXUXUXUXUXUXUXUXUXUXUXUXUXUXUXUXUXUXUXUXUXUXUXUXUX",
"UXUXUXUXUXUXUXUXUXUXUXUXUXUXUXUXUXUXUXUXUXUXUX XpXX.+.AXNXyXT.E.L.'.UXUXUXUXUXUXUXUXUXUXUXUXUXUXUXUXUXUXUXUXUXUXUXUXUXUXUXUXUXUX",
"UXUXUXUXUXUXUXUXUXUXUXUXUXUXUXUXUXUXUXUXUXUXUX~.-XzX&X-X-XpXB..Xy.q.UXUXUXUXUXUXUXUXUXUXUXUXUXUXUXUXUXUXUXUXUXUXUXUXUXUXUXUXUXUX",
"UXUXUXUXUXUXUXUXUXUXUXUXUXUXUXUXUXUXUXUXUXUXUXE.s.I.BX*X}.OXOXb.@.>.UXUXUXUXUXUXUXUXUXUXUXUXUXUXUXUXUXUXUXUXUXUXUXUXUXUXUXUXUXUX",
"UXUXUXUXUXUXUXUXUXUXUXUXUXUXUXUXUXUXUXUXUXUXUXUXu.s.I.SXl.z.=X<.o.>.UXUXUXUXUXUXUXUXUXUXUXUXUXUXUXUXUXUXUXUXUXUXUXUXUXUXUXUXUXUX",
"UXUXUXUXUXUXUXUXUXUXUXUXUXUXUXUXUXUXUXUXUXUXUXUXi.u.h.=X$Xu.XX;.+.>.UXUXUXUXUXUXUXUXUXUXUXUXUXUXUXUXUXUXUXUXUXUXUXUXUXUXUXUXUXUX",
"UXUXUXUXUXUXUXUXUXUXUXUXUXUXUXUXUXUXUXUXUXUXUXUXe.u.p.x.pX#.'.&.%.6.UXUXUXUXUXUXUXUXUXUXUXUXUXUXUXUXNXmXUXUXUXUXUXUXUXUXUXUXUXUX",
"UXUXUXUXUXUXUXUXUXUXUXCXvXUXMXUXUXUXUXUXUXUXUXUX5.u.p.p.oX#.m.a.a.f.UXUXUXUXUXUXUXUXUXUXUXUXUXUXUXUXbXDXHXUXPXvXUXUXUXUXUXUXUXUX",
"UXUXUXUXUXUXUXUXUXUXFXDXlXyXnX~.UXUXUXUXUXUXUXUXUX:.y.p.n.o.a.;.5.UXUXUXUXUXUXUXUXUXUXUXUXUXUXUXUXUXBXNXmXKXnXgXGXUXUXUXUXUXUXUX",
"UXUXUXUXUXUXUXUXUXUXJXaXoXOXaX'.UXUXUXUXUXUXUXUXUXUX,.:.<.{ w.5.UXUXUXUXUXUXUXUXUXUXUXUXUXUXUXUXUXUX+XoXaXKXhXiXGXbXUXUXUXUXUXUX",
"UXUXUXUXUXUXUXUXUXUXLXaXZ.K.m.aXJ.UXUXUXUXUXUXUXUXUXUX5.q.^ UXUXUXUXUXUXUXUXUXUXUXUXUXUXUXUXUXUXUXoXn.N.NXIXMXaXHXnXAXUXUXUXUXUX",
"UXUXUXUXUXUXUXUXCXKXLXHX'.p.i.+Xm.c.UXUXUXUXUXUXUXUXUXUXUX^ UXUXUXUXUXUXUXUXUXUXUXUXUXUXUXUXUXUX$Xa.L.BXHXiX'.f.iXMXHXGXUXUXUXUX",
"UXUXUXUXUXUXUX.XK.P.+XlXBXiXa.x.K.H.UXUXUXUXUXUXUXUXUXUXUX/ UXUXUXUXUXUXUXUXUXUXUXUXUXUXUXUXUXUXV.c.NXOXM.h.$.;..XAXaXiXlXUXUXUX",
"UXUXUXUXUXCXFXvXl.g.z.z.v.I.OXa.n.k.UXUXUXUXUXUXUXUXUXUXUX/ / UXUXUXUXUXUXUXUXUXUXUXUXUXUXUXUX`.a.oXN.h.g.y.@.d.OXpXB.`.UXUXUXUX",
"UXUXUXUXUXsX$XaXL.i.p.p.h.h.n.b.%.-.2.UXUXUXUXUXUXUXUXUXUX3X^ UXUXUXUXUXUXUXUXUXUXUXUX] UXUXUXe.%.V.h.h.y.$.y.g.-X'.e.UXUXUXUXUX",
"UXUXUXUXUXUXUX..XXp.u.y.y.h.x.:.< { 7.UXUXUXUXUXUXUXUXUXUXUXR UXUXUXUXUXUXUXUXUXUXUX,XR UXUXUXw.=.s.h.y.#.#.y.p.=Xt.UXUXUXUXUXUX",
"UXUXUXUXUXUXUXUXD.k.y.$.$.i.d.O.> 2 7.UXUXUXUXUXUXUXUXUXUXUX^ UXUXUXUXUXUXUXUXUXUX,XT UXUXUXUX .| i.:.O.o.@.$.z.`.UXUXUXUXUXUXUX",
"UXUXUXUXUXUXUXUXUX0.{ } X.X.} < 1 U.UXUXUXUXUXUXUXUXUXUXUXUX/ UXUXUXUXUXUXUXUXUX8XJ UXUXUXUXUXUX2.| } [ { X.*.q.UXUXUXUXUXUXUXUX",
"UXUXUXUXUXUXUXUXUXUXUX: , > < ; 9.^.UXUXUXUXUXUXUXUXUXUXUXUX/ ` UXUXUXUXUXUXUXUX<XW UXUXUXUXUXUX9.1 ; ; < [ 8.UXUXUXUXUXUXUXUXUX",
"UXUXUXUXUXUXUXUXUXUXUXUXUX4 4 Y ^.7XUXUXUXUXUXUXUXUXUXUXUXUX3X/ UXUXUXUXUXUXUX,XW UXUXUXUXUXUXUXdX5 3 1 3 1 UXUXUXUXUXUXUXUXUXUX",
"UXUXUXUXUXUXUXUXUXUXUXUXUXUXUXUXUXUX7XUXUXUXUXUXUXW._.'.UXUXUX) UXUXUXUXUXUX8XL UXUXUXUXUXUXUXUX7XUXUXUXUXUXUXUXUXUXUXUXUXUXUXUX",
"UXUXUXUXUXUXUXUXUXUXUXUXUXUXUXUXUXUXUX7XUXUX*X].C.V.&.&.S.ZXUX) UXUXUXUXUXUX<X<XUXUXUXUXUXUXUX4XUXUXUXUXUXUXUXUXUXUXUXUXUXUXUXUX",
"UXUXUXUXUXUXUXUXUXUXUXUXUXUXUXUXUXUXUXUX7XUX@X>.+.j.o.o.>.V.pX_ UXUXUXUXUX6X<XUXUXUXUXUXUXUX( ( UXUXUXUXUXUXUXUXUXUXUXUXUXUXUXUX",
"UXUXUXUXUXUXUXUXUXUXUXUXUXUXUXUXUXUXUXUXUX9XeXc.| j.o.+.*X|.;XS UXUXUXUX8X<X,XUXUXUXUXUXUXUX( UXUXUXUXUXUXUXUXUXUXUXUXUXUXUXUXUX",
"UXUXUXUXUXUXUXUXUXUXUXUXUXUXUXUXUXUXUXUXUXR.|.v.+.+.+.@X{.;XzXA.UXUXUXUX<X<XUXUXUXUXUXUXUX1X( UXUXUXUXUXUXUXUXUXUXUXUXUXUXUXUXUX",
"UXUXUXUXUXUXUXUXUXUXUXUXUXUXUXUXUXUXUXUXUXUX@Xc.{ { 1.eXI.Z.eX!.` UXUX! U ,XUXUXUXUXUXUX( ( UXUXUXUXUXUXUXUXUXUXUXUXUXUXUXUXUXUX",
"UXUXUXUXUXUXCXUXUXUXUXUXUXUXUXUXUXUXUXUXUXUXw.<...9.ZXcX*XZ.h.[./ UXB B Z UXUXUXUXUXUXUX>XUXUXUXUXUXUXUXUXUXUXUXl.l.c.l.z.*XjXUX",
"UXUXUXCXKXjXjXhXUXUXUXUXUXUXUXUXUXUXUXUXUXUXUX{ q.kXkXt.zX=X|._.K l M m B UXUXUXUXUXUX9Xb UXUXUXUXUXUXUXUXUX0.,.i.i.i.M.pXxXjXUX",
"UXUXUXrXH.T.).GXm.T.UXUXUXUXUXUXUXUXUXUXUXUXUX7.[ hX!.{ R.a.|.$XK B M m L UXUXUXUXUXUXL f UXUXUXUXUXUXUXf.;.y.s.h.x.|.*XM.V. XUX",
"UXUX(. X5.tXSXSX-Xv.C.UXUXUXUXUXUXUXUXUXUXUXUXUXU.).!.> < *.s.[.D M t n Z UXUXUXUXUX2Xs 7 UXUXUXUXUXUXUXJ.h.M.n.{.*X'.M.M.n.#XUX",
"UXrXP.b.,.tXaXiXlX'.h.r.UXUXUXUXUXUXUXUXUXUXUXUXUXUXW.< > | i.UXM y g t E UXUXUXUX1Xe d - UXUXUXUXUXUXUX;XM.h.v.v.v.M.V.{.@XkXvX",
"UXvXiXb.+.VXP.n.v.$XM.>.UXUXUXUXUXUXUXUXUXUXUXUXUXUX3X8. . .wXUXL n n t E z UXUXUX1Xp d I UXUXUXUXUX4X:XeXN.g.p.u.u.@.#.p.v.q.gX",
"vXrXuXOXL.AXiX.X.XL.q.{ UXUXUXUXUXUXUXUXUXUXUXUXUXUXUX0XUXUX1XUXJ h t n M z UXUXV d b & ] UXUXUX_ :XUXUXc.B.u.@.o.} | o.>.1.8.UX",
"vXvXuX`. Xl.*.+.O.;.;.1 UXUXUXUXUXUX5XUXUXUXUXUXUXUXUX0XUXUXK UXM n t t i z UXUXl s p s UXUX_ P UXUXUXUXUXUX5.<.6.6.,.UXUXUXUXUX",
"UXUXY.F.> [ | X.O.$.O.U.' 0XUXUXUXUX5X,X5X7XUXUXUXUXUXUXqXUX` ` l A y e 9 t UXJ c T o T UX_ H UXUXUXUXUXUXUXUXUXUXUXUXUXUXUXUXUX",
"UXUXUXUXUX .: > [ X.r.UXUXUX9XwXUXUXUX5Xc I 7XUXUXUXUXUXqXUXUXK N C 9 * J UXUXl T & b T H UXUXUXUXUXUXUXUXUXUXUXUXUXUXUXUXUXUXUX",
"UXUXUXUXUXUXUX....-.UXUXUXUXUXUX9X9XUXUXv s l ,X5XUXUXUXUXdXUXF C A 6 a UXUXV a 7 X + u UXUXUXUXUXUXUXUXUXUXUXUXUXUXUXUXUXUXUXUX",
"UXUXUXUXUXUXUXUXUXUXUXUXUXUXUXUXUXUXwX' UXr j h ,X,XUXUXUX8XUXF V h % v UXh l @ & o i UXUXUXUXUXUXUXUXUXUXUXUXUXUXUXUXUXUXUXUXUX",
"UXUXUXUXUXUXUXUXUXUXUXUXUXUXUXz k UXUX` wXk f r c ,X5XUXUXqX7XF T l 7 b UXV *   o * UXUXUXUXUXUXUXUXUXUXUXUXUXUXUXUXUXUXUXUXUXUX",
"UXUXUXUXUXUXUXUXUXUXUXUXUXUXUXUXr q z z z ` 3Xv w a 6XJ UXUXJ F T N j c V h   o * UXUXUXUXUXUXUXUXUXUXUXUXUXUXUXUXUXUXUXUXUXUXUX",
"UXUXUXUXUXUXUXUXUXUXUXUXUXUXUXUXUXJ G u V ~ l r k 0 B 6X8XUXz u n C h j c $   8 UXUXUXUXUXUXUXUXUXUXUXUXUXUXUXUXUXUXUXUXUXUXUXUX",
"UXUXUXUXUXUXUXUXUXUXUXUXUXUXUXUXUXUXUXf 9 z J M = s 0 N <X5XT i n C h j 0 o * UXUXUXUXUXUXUXUXUXUXUXUXUXUXUXUXUXUXUXUXUXUXUXUXUX",
"UXUXUXUXUXUXUXUXUXUXUXUXUXUXUXUXUXUXUXUX0 8 q B B a w 6 l W c q c c j x 8 + + UXUXUXUXUXUXUXUXUXUXUXUXUXUXUXUXUXUXUXUXUXUXUXUXUX",
"UXUXUXUXUXUXUXUXUXUXUXUXUXUXUXUXUXUXUXUXUXUX$ $ u M v w 6 e N q r g 6 h 8 + = UXUXUXUXUXUXUXUXUXUXUXUXUXUXUXUXUXUXUXUXUXUXUXUXUX",
"UXUXUXUXUXUXUXUXUXUXUXUXUXUXUXUXUXUXUXUXUXUXUX$ O # l k w # 7 N ! y 6 x 0   UXUXUXUXUXUXUXUXUXUXUXUXUXUXUXUXUXUXUXUXUXUXUXUXUXUX",
"UXUXUXUXUXUXUXUXUXUXUXUXUXUXUXUXUXUXUXUXUXUXUXUXr # # 6 s 0 6 9 x p & j   UXUXUXUXUXUXUXUXUXUXUXUXUXUXUXUXUXUXUXUXUXUXUXUXUXUXUX",
"UXUXUXUXUXUXUXUXUXUXUXUXUXUXUXUXUXUXUXUXUXUXUXUXUX# # O X + @ 6 e 7 & 7 . UXUXUXUXUXUXUXUXUXUXUXUXUXUXUXUXUXUXUXUXUXUXUXUXUXUXUX",
"UXUXUXUXUXUXUXUXUXUXUXUXUXUXUXUXUXUXUXUXUXUXUXUXUXUXUX% X O @ @ 6 p % X UXUXUXUXUXUXUXUXUXUXUXUXUXUXUXUXUXUXUXUXUXUXUXUXUXUXUXUX"
};
