/* XPM */
static char *flower_tulip_white_p[] = {
/* columns rows colors chars-per-pixel */
"64 64 256 2",
"   c #1F331B",
".  c #22351D",
"X  c #253C1E",
"o  c #283B1E",
"O  c #273E21",
"+  c #2A3C23",
"@  c #2D3D28",
"#  c #26431C",
"$  c #2C441C",
"%  c #2E4A1E",
"&  c #31461A",
"*  c #334C1C",
"=  c #394F1B",
"-  c #35521D",
";  c #3B541C",
":  c #3C5B1E",
">  c #3E611E",
",  c #274720",
"<  c #2C4322",
"1  c #2D4C22",
"2  c #334721",
"3  c #354D22",
"4  c #33462C",
"5  c #324B2A",
"6  c #394C2C",
"7  c #2C5021",
"8  c #355421",
"9  c #3C5423",
"0  c #375821",
"q  c #3B5B23",
"w  c #34542A",
"e  c #3E522C",
"r  c #365B29",
"t  c #3B5B2B",
"y  c #344834",
"u  c #3D5631",
"i  c #3E6226",
"p  c #3C652D",
"a  c #3F6338",
"s  c #41571D",
"d  c #425D1E",
"f  c #44651F",
"g  c #46681F",
"h  c #546B1F",
"j  c #50711F",
"k  c #5E791E",
"l  c #414F2B",
"z  c #435D22",
"x  c #435C2A",
"c  c #435D36",
"v  c #445439",
"b  c #446423",
"n  c #4B6523",
"m  c #466A22",
"M  c #4B6C22",
"N  c #45652B",
"B  c #496229",
"V  c #4B6B2D",
"C  c #456A2A",
"Z  c #526D23",
"A  c #506B28",
"S  c #4E7122",
"D  c #48702A",
"F  c #547325",
"G  c #5A7424",
"H  c #557F25",
"J  c #5B7C24",
"K  c #56742C",
"L  c #5A772B",
"P  c #567B2C",
"I  c #5A7B2B",
"U  c #446432",
"Y  c #4C6634",
"T  c #476834",
"R  c #4D6934",
"E  c #44663C",
"W  c #496638",
"Q  c #44693B",
"!  c #4E6D3B",
"~  c #5E6F36",
"^  c #517234",
"/  c #567831",
"(  c #50703F",
")  c #5E753F",
"_  c #5C7C3B",
"`  c #5B7835",
"'  c #617C24",
"]  c #627D2B",
"[  c #637934",
"{  c #637839",
"}  c #577743",
"|  c #5C7445",
" . c #5A7949",
".. c #587553",
"X. c #697A42",
"o. c #667C48",
"O. c #6A7F4A",
"+. c #677F5A",
"@. c #617B51",
"#. c #6F7C60",
"$. c #66841E",
"%. c #5E8224",
"&. c #5D822A",
"*. c #628224",
"=. c #6A8823",
"-. c #63842D",
";. c #688F2A",
":. c #6C8429",
">. c #708B21",
",. c #6E9327",
"<. c #7F9824",
"1. c #75902F",
"2. c #618531",
"3. c #678C31",
"4. c #6B833D",
"5. c #6A8A35",
"6. c #718A37",
"7. c #70873B",
"8. c #718F3B",
"9. c #788A3C",
"0. c #729234",
"q. c #75993E",
"w. c #678A40",
"e. c #668446",
"r. c #7F974B",
"t. c #7B9B48",
"y. c #6B8353",
"u. c #6E8850",
"i. c #6D8B58",
"p. c #65825B",
"a. c #738655",
"s. c #758C52",
"d. c #768D5D",
"f. c #6D9057",
"g. c #7B935A",
"h. c #76935D",
"j. c #798C60",
"k. c #7F8F6D",
"l. c #758964",
"z. c #7C9263",
"x. c #77966A",
"c. c #7FA066",
"v. c #81992B",
"b. c #92AA2A",
"n. c #8AA132",
"m. c #889945",
"M. c #849D52",
"N. c #8F995F",
"B. c #81975C",
"V. c #8AA44E",
"C. c #96A945",
"Z. c #86A054",
"A. c #8DA958",
"S. c #96A850",
"D. c #97A558",
"F. c #868E6B",
"G. c #8B9564",
"H. c #859C62",
"J. c #809268",
"K. c #8A9469",
"L. c #91986E",
"P. c #809177",
"I. c #8B9271",
"U. c #879D79",
"Y. c #949C76",
"T. c #989E7C",
"R. c #8FA267",
"E. c #88A571",
"W. c #97A271",
"Q. c #98A17E",
"!. c #9CB274",
"~. c #ACB168",
"^. c #B5B462",
"/. c #AFA876",
"(. c #A5A57D",
"). c #A0AB7C",
"_. c #ACB77F",
"`. c #B7B37D",
"'. c #9A9E81",
"]. c #979B89",
"[. c #969C82",
"{. c #9CA183",
"}. c #9EA389",
"|. c #A3A684",
" X c #A2A68B",
".X c #A3A98B",
"XX c #ABAB8D",
"oX c #ACAB85",
"OX c #ADB187",
"+X c #AEB38E",
"@X c #ABBD84",
"#X c #A3A592",
"$X c #A4AA90",
"%X c #ACAE96",
"&X c #A4A59B",
"*X c #A6A89D",
"=X c #ABAD9C",
"-X c #AEB195",
";X c #AFB19C",
":X c #B2B493",
">X c #B3B49A",
",X c #BBBA9E",
"<X c #B4B89D",
"1X c #ADADA2",
"2X c #B3B5A3",
"3X c #BBBBA3",
"4X c #BCBDAB",
"5X c #BDBDB1",
"6X c #C2BF83",
"7X c #C1BFA3",
"8X c #C0BFAF",
"9X c #C0BEB1",
"0X c #BFC18E",
"qX c #B4C19A",
"wX c #BBC1A2",
"eX c #C3C1A7",
"rX c #C3C3AD",
"tX c #C8C7AE",
"yX c #C7C8AD",
"uX c #CACAAD",
"iX c #C4C4B2",
"pX c #C8C7B6",
"aX c #C7CBB5",
"sX c #CACAB4",
"dX c #C4C4BA",
"fX c #C9C7BB",
"gX c #C7C8B9",
"hX c #CCCCBB",
"jX c #D1CFBD",
"kX c #CCD1B4",
"lX c #D2D1BE",
"zX c #D3D5BA",
"xX c #CECDC1",
"cX c #D0CFC3",
"vX c #CFD0C4",
"bX c #D4D3C3",
"nX c #D8D6C4",
"mX c #DAD9C6",
"MX c #D5D4C9",
"NX c #D9D7CA",
"BX c #DCDBCC",
"VX c #DDDDD2",
"CX c #E0DFCE",
"ZX c #E0DFD3",
"AX c #E1DFD9",
"SX c #E2E0CD",
"DX c #E3E2D4",
"FX c #E9E7D6",
"GX c #E5E5D9",
"HX c #E8E7DA",
"JX c #EAEADC",
"KX c #EDEDE4",
"LX c #F0EFE6",
"PX c #F0F0E7",
"IX c #F2F2E8",
"UX c None",
/* pixels */
"UXUXUXUXUXUXUXUXUXUXUXUXUXUXUXUXUXUXUXUXUXUXUXUXUXUXUXUXUXUXUXUXUXUXUXUXUXUXUXUXUXUXUXUXUXUXUXUXUXUXUXUXUXUXUXUXUXUXUXUXUXUXUXUX",
"UXUXUXUXUXUXUXUXUXUXUXUXUXUXUXUXUXUXUXUXUXUXUXUXUXUXUXUXUXUXUXUXUXUXUXUXUXUXUXUXUXUXUXUXUXUXUXUXUXUXUXUXUXUXUXUXUXUXUXUXUXUXUXUX",
"UXUXUXUXUXUXUXUXUXUXUXUXUXUXUXUXUXUXUXUXUXUXUXUXUXUXUXUXUXUXUXUXUXUXUXUXUXUXUXUXUXUXUXUXUXUXUXUXUXUXUXUXUXUXUXUXUXUXUXUXUXUXUXUX",
"UXUXUXUXUXUXUXUXUXUXUXUXUXUXUXUXUXUXUXUXUXUXUXUXUXUXUXUXUXUXUXUXUXUXUXUXUXUXUXUXUXUXUXUXUXUXUXUXUXUXUXUXUXUXUXUXUXUXUXUXUXUXUXUX",
"UXUXUXUXUXUXUXUXUXUXUXUXUXUXUXUXUXUXUXUXUXUXUXUXUXUXUXUXUXUXUXUXUXUXUXUXUXUXUXUXUXUXUXUXUXUXUXUXUXUXUXUXUXUXUXUXUXUXUXUXUXUXUXUX",
"UXUXUXUXUXUXUXUXUXUXUXUXUXUXUXUXUXUXUXUXUXUXUXUXUXUXUXUXUXUXUXUXUXUXUXUXUXUXUXUXUXUXUXUXUXUXUXUXUXUXUXUXUXUXUXUXUXUXUXUXUXUXUXUX",
"UXUXUXUXUXUXUXUXUXUXUXUXUXUXUXUXUXUXUXUXUXUXUXUXUXUXUXUXUXUXUXUXUXUXUXUXUXUXUXUXUXUXUXUXUXUXUXUXUXUXUXUXUXUXUXUXUXUXUXUXUXUXUXUX",
"UXUXUXUXUXUXUXUXUXUXUXUXUXUXUXUXUXUXUXUXUXUXUXUXUXUXUXUXUXUXUXUXUXUXUXUXUXUXUXUXUXUXUXUXUXUXUXUXUXUXUXUXUXUXUXUXUXUXUXUXUXUXUXUX",
"UXUXUXUXUXUXUXUXUXUXUXUXUXUXUXUXUXUXUXUXUXUXUXUXUXUXUXUXUXUXUXUXUXUXUXUXUXUXUXUXUXUXUXUXUXUXUXUXUXUXUXUXUXUXUXUXUXUXUXUXUXUXUXUX",
"UXUXUXUXUXUXUXUXUXUXUXUXUXUXUXUXUXUXUXUXUXUXUXUXUXUXUXUXUXUXUXUXUXUXUXUXUXUXUXUXUXUXUXUXUXUXUXUXUXUXUXUXUXUXUXUXUXUXUXUXUXUXUXUX",
"UXUXUXUXUXUXUXUXUXUXUXUXUXUXUXUXUXUXUXUXUXKXKXAXUXUXUXUXUXUXUXUXUXUXUXUXUXUXUXUXUXUXUXUXUXUXUXUXUXUXUXUXUXUXUXUXUXUXUXUXUXUXUXUX",
"UXUXUXUXUXUXUXUXUXUXUXUXUXUXUXUXUXUXUXAXLXLXKXKXUXUXUXUXUXUXUXUXUXUXUXUXUXUXUXUXUXUXUXUXUXUXUXUXUXUXUXUXUXUXUXUXUXUXUXUXUXUXUXUX",
"UXUXUXUXUXUXUXUXUXUXUXUXUXUXUXUXUXUXGXVXIXJXGXBXVXUXUXUXUXUXUXUXUXUXUXUXUXUXUXUXUXUXUXUXUXUXUXUXUXUXUXUXUXUXUXUXUXUXUXUXUXUXUXUX",
"UXUXUXUXUXUXUXUXUXUXUXUXUXUXUXUXUXUXMXBXDXCXVXnXbXUXUXUXUXUXUXUXUXUXUXUXUXUXUXUXUXUXUXUXUXUXUXUXUXUXUXUXUXUXUXUXUXUXUXUXUXUXUXUX",
"UXUXUXUXUXUXUXUXUXUXUXUXUXUXUXUXUXUXUXbXbXmXbXbXfXUXUXUXUXUXUXUXUXUXUXUXUXUXUXUXUXUXUXUXUXUXUXUXUXUXUXUXUXUXUXUXUXUXUXUXUXUXUXUX",
"UXUXUXUXUXUXUXUXUXUXUXUXUXUXUXUXUXUXUXUXpXbXlXlXyXUXUXUXUXNXMXBXMXxXUXUXUXUXUXUXUXUXUXUXUXUXUXUXUXUXUXUXUXUXUXUXUXUXUXUXUXUXUXUX",
"UXUXUXUXUXUXUXUXUXUXUXUXUXUXUXUXUXUXUXUXrXyXtXhX3XUXUXUXUXBXbXmXVXVXhXUXUXUXUXUXUXUXUXUXUXUXUXUXUXUXUXUXUXUXUXUXUXUXUXUXUXUXUXUX",
"UXUXUXUXUXUXUXUXUXUXUXUXUXUXUXUXUXUXUXUX;X%X+X(.#Xa.UXUXUXNXyX_.lXbXdXUXUXUXUXUXUXUXUXUXUXUXUXUXUXUXUXUXUXUXUXUXUXUXUXUXUXUXUXUX",
"UXUXUXUXUXUXUXUXUXUXUXUXUXUXUXUXUXUXUXUXUXW.D.G.UXe.UXUXx 4X<X1.+XhXiXUXUXUXUXUXUXUXUXUXUXUXUXUXUXUXUXUXUXUXUXUXUXUXUXUXUXUXUXUX",
"UXUXUXUXUXUXUXUXUXUXUXUXUXUXUXUXUXUXUXKXFX).n.C.UXo.j.UXt.2X.X' 7.rXdXUXUXMXGXVXUXUXUXUXUXUXUXUXUXUXUXUXUXUXUXUXUXUXUXUXUXUXUXUX",
"UXUXUXUXUXUXUXUXUXUXUXUXUXUXVXBXBXMXUXJXGXmXS.b.UXO.w.UXJ..XY.h j .XiXUXbXDXDXBXGXVXUXUXUXUXUXUXUXUXUXUXUXUXUXUXUXUXUXUXUXUXUXUX",
"UXUXUXUXUXUXUXUXUXUXUXUXUXUXMXMXVXBXZXFXFXGXwX<.L.a.I UXUXH.K.M G Y.UXUXBXJXVXmXGXGXDXUXUXUXUXUXUXUXUXUXUXUXUXUXUXUXUXUXUXUXUXUX",
"UXUXUXUXUXUXUXUXUXUXUXUXUXVXxXVXFXZXDXDXFXVXaX=.S.a._ UXUXg.4.F ' UXUXUXFXJXVXVXVXKXKXvXUXUXUXUXUXUXUXUXUXUXUXUXUXUXUXUXUXUXUXUX",
"UXUXUXUXUXUXUXUXUXUXUXUXUXVXxXPXDXMXbXSXSXxXwX$.v.B._ UXUXH.F 2.-.UXUXUXLXIXJXVXxXwXMXxXUXUXUXUXUXUXUXUXUXUXUXUXUXUXUXUXUXUXUXUX",
"UXUXUXUXUXUXUXUXUXUXUXUXUXxXfXFXhXiXbXDXbXhX$X=.=.6./ UXUXB.F 2.*.V.UXM.JXJXSXzX2X4XhXUXUXUXUXUXUXUXUXUXUXUXUXUXUXUXUXUXUXUXUXUX",
"UXUXUXUXUXUXUXUXUXUXUXUXUXbXbXlX8X8XVXhXpXfXd.S $.k S UXUXx K I %.5.r.0.mXmXaX<X%X-X XUXUXUXUXUXUXUXUXNXdXMXUXUXUXUXUXUXUXUXUXUX",
"UXUXUXUXUXUXUXUXUXUXUXUXUXUXjXtX3X8XlXhXpXhXJ.q g ' S UXUXUXu.J *.%.,.8.qXyX:X.X|. XUXUXUXUXUXUXUXUXMXVXMXBXUXUXUXUXUXUXUXUXUXUX",
"UXUXUXUXUXUXUXUXUXUXUXUXUXUXhXjX>X3XrXpXpX XUXt ; g j UXUXUXl.H &.%.,.H Z.}.Q.[. XUXUXUXUXUXUXUXUXmXVXBXMXfXbXUXUXUXUXUXUXUXUXUX",
"UXUXUXUXUXUXUXUXUXUXUXUXUXUXUX.X|.XXhXiXrXz.P.UX- : m y.UXUXsXmXqX0XzXA.0.UXUXUXUXUXUXUXUXUXUXUXMXSXBXZXmXfXMXMXUXUXUXUXUXUXUXUX",
"UXUXUXUXUXUXUXUXUXUX3 z R ) j.z.G.G.iXK.) _ x.UXUX: > e.UXhXCXCXkXuXCXkXE.UXUXUXUXUXUXUXUXUXUX!.mXBXmXBXbX9XfX4XbXUXUXUXUXUXUXUX",
"UXUXUXUXUXUXUXUXUXUXUXw b M I t.q.;.] { > S f.UXUX: f P UXbXDX:X~.0XlXpXE.UXUXUXUXUXUXUXUXUXM.R.zXnXmXnXbXlXMXfX5XUXUXUXUXUXUXUX",
"UXUXUXUXUXUXUXUXUXUXUXUXc C A I ' *.*.UX^ m 3.UXUXUXm g W bXDX6X^.yX2XiXh.UXUXUXUXr 7 T t g.] W.uXzXmXlXjXcXcX1XxXUXUXUXUXUXUXUX",
"UXUXUXUXUXUXUXUXUXUXUXUXUXUXt ; ; n Z I UXM H w.UXUXC m s.cXhXcXhX2X=X4Xi.UXUXUX1 7 m q 1 L Z UXOX7XjXmXjX;XfXUXUXUXUXUXUXUXUXUX",
"UXUXUXUXUXUXUXUXUXUXUXUXUXUXUX8 * ; q B P o.g %.e.UXD m K 4X;X=X2X%X%X[.p.UXUXUX1 r 8 % 2 z X.m.I.iXrX8X8XfXUXUXUXUXUXUXUXUXUXUX",
"UXUXUXUXUXUXUXUXUXUXUXUXUXUXUXUX9 * * 3 b m N M q U } D f .X$X X#X$X}.} ..UXQ # 1 1 8 # 2 ; { UXUXUXUXUXUXUXUXUXUXUXUXUXUXUXUXUX",
"UXUXUXUXUXUXUXUXUXUXUXUXUXUXUXUXUXUX; & * b b W M M ^ D : Y T.T.}.I.5.{ ..E 7 # t 1 % O 3 UXUXUXUXUXUXUXUXUXUXUXUXUXUXUXUXUXUXUX",
"UXUXUXUXUXUXUXUXUXUXUXUXUXUXUXUXUXUXUX& * * : U b > D b ; i L 9.{ T H p Q r # w r 8 , 5 UXUXUXUXUXUXUXUXUXUXUXUXUXUXUXUXUXUXUXUX",
"UXUXUXUXUXUXUXUXUXUXUXUXUXUXUXUXUXUXUXUX2 & * q N i i i - m M :.R T M p Q q 7 p t 1 5 UXUXUXUXUXUXUXUXUXUXUXUXUXUXUXUXUXUXUXUXUX",
"UXUXUXUXUXUXUXUXUXUXUXUXUXUXUXUXUXUXUXUXUX2 & & q q 0 r r : F G } U b r Q i a UXUXUXUXUXUXUXUXUXUXUXUXUXUXUXUXUXUXUXUXUXUXUXUXUX",
"UXUXUXUXUXUXUXUXUXUXUXUXUXUXUXUXUXUXUXUXUXUX+ $ & 0 - q : n L M T ! i +.xXgX2XxXbXxXUXUXUXUXUXUXUXUXUXUXUXUXUXUXUXUXUXUXUXUXUXUX",
"UXUXUXUXUXUXUXUXUXUXUXUXUXUXUXUXUXUXUXUXUXUXUX& & & * q - - ^ f ! R U.ZXNXsXsXpXsXhXcXUXUXUXUXUXUXUXUXUXUXUXUXUXUXUXUXUXUXUXUXUX",
"UXUXUXUXUXUXUXUXUXUXUXUXUXUXUXUXUXUXUXUXUXUXUXe * & - : - q - m N } VXGXBXtXtXsXrXjXcXBXUXUXUXUXUXUXUXUXUXUXUXUXUXUXUXUXUXUXUXUX",
"UXUXUXUXUXUXUXUXUXUXUXUXUXUXUXUXUXUXUXUXUXUXUXUX; ; ; d : q - C @.fXNXmXNXeX7X,XeXpXhXZXBXUXUXUXUXUXUXUXUXUXUXUXUXUXUXUXUXUXUXUX",
"UXUXUXUXUXUXUXUXUXUXUXUXUXUXUXUXUXUXUXUXUXUXUXUXx ; ; d : r : S u.3XdXMXNX`.,X3X3XpXNXFXxXUXUXUXUXUXUXUXUXUXUXUXUXUXUXUXUXUXUXUX",
"UXUXUXUXUXUXUXUXUXUXUXUXUXUXUXUXUXUXUXUXUXUXUXUXUX9 d d q t g g R ;XiXfXmX/.oX:X,XsXBXMXUXUXUXUXUXUXUXUXUXUXUXUXUXUXUXUXUXUXUXUX",
"UXUXUXUXUXUXUXUXUXUXUXUXUXUXUXUXUXUXUXUXUXUXUXUXUX^ z d : N M : - | 2X4XfX3X(.XX>XiX9XUXUXUXUXUXUXUXUXUXUXUXUXUXUXUXUXUXUXUXUXUX",
"UXUXUXUXUXUXUXUXUXUXUXUXUXUXUXUXUXUXUXUXUXUXUXUXUXUXV n s W C * C ` >XiXrX:X(.%X;X1XUXUXUXUXUXUXUXUXUXUXUXUXUXUXUXUXUXUXUXUXUXUX",
"UXUXUXUXUXUXUXUXUXUXUXUXUXUXUXUXUXUXUXUXUXUXUXUXUXUXV g z c t o K ~ %X2XdX5X5X&XUXUXUXUXUXUXUXUXUXUXUXUXUXUXUXUXUXUXUXUXUXUXUXUX",
"UXUXUXUXUXUXUXUXUXUXUXUXUXUXUXUXUXUXUXUXUXUXUXUXUXUXUXM B e < @ l x V #.].*X*XUXUXUXUXUXUXUXUXUXUXUXUXUXUXUXUXUXUXUXUXUXUXUXUXUX",
"UXUXUXUXUXUXUXUXUXUXUXUXUXUXUXUXUXUXUXUXUXUXUXUXUXUXUXZ B 6 < @ 4 * 8 $ z UXUXUXUXUXUXUXUXUXUXUXUXUXUXUXUXUXUXUXUXUXUXUXUXUXUXUX",
"UXUXUXUXUXUXUXUXUXUXUXUXUXUXUXUXUXUXUXUXUXUXUXUXUXUXUXF x 6 + + 3 g # * UXUXUXUXUXUXUXUXUXUXUXUXUXUXUXUXUXUXUXUXUXUXUXUXUXUXUXUX",
"UXUXUXUXUXUXUXUXUXUXUXUXUXUXUXUXUXUXUXUXUXUXUXUXUXUXUXZ x 6 + @ z : . 6 UXUXUXUXUXUXUXUXUXUXUXUXUXUXUXUXUXUXUXUXUXUXUXUXUXUXUXUX",
"UXUXUXUXUXUXUXUXUXUXUXUXUXUXUXUXUXUXUXUXUXUXUXUXUXUXUXK B v . y 8 < . UXUXUXUXUXUXUXUXUXUXUXUXUXUXUXUXUXUXUXUXUXUXUXUXUXUXUXUXUX",
"UXUXUXUXUXUXUXUXUXUXUXUXUXUXUXUXUXUXUXUXUXUXUXUXUXUXUXL n 6 @ 4 * o O UXUXUXUXUXUXUXUXUXUXUXUXUXUXUXUXUXUXUXUXUXUXUXUXUXUXUXUXUX",
"UXUXUXUXUXUXUXUXUXUXUXUXUXUXUXUXUXUXUXUXUXUXUXUXUXUXUXX.n 3 O 5 8 . 1 UXUXUXUXUXUXUXUXUXUXUXUXUXUXUXUXUXUXUXUXUXUXUXUXUXUXUXUXUX",
"UXUXUXUXUXUXUXUXUXUXUXUXUXUXUXUXUXUXUXUXUXUXUXUXUXUXUX[ A = + 2 1 . UXUXUXUXUXUXUXUXUXUXUXUXUXUXUXUXUXUXUXUXUXUXUXUXUXUXUXUXUXUX",
"UXUXUXUXUXUXUXUXUXUXUXUXUXUXUXUXUXUXUXUXUXUXUXUXUXUXUX[ Z ; # 1 $ # UXUXUXUXUXUXUXUXUXUXUXUXUXUXUXUXUXUXUXUXUXUXUXUXUXUXUXUXUXUX",
"UXUXUXUXUXUXUXUXUXUXUXUXUXUXUXUXUXUXUXUXUXUXUXUXUXUXUX[ G s $ % # < UXUXUXUXUXUXUXUXUXUXUXUXUXUXUXUXUXUXUXUXUXUXUXUXUXUXUXUXUXUX",
"UXUXUXUXUXUXUXUXUXUXUXUXUXUXUXUXUXUXUXUXUXUXUXUXUXUXUX[ G z & 2 $ $ UXUXUXUXUXUXUXUXUXUXUXUXUXUXUXUXUXUXUXUXUXUXUXUXUXUXUXUXUXUX",
"UXUXUXUXUXUXUXUXUXUXUXUXUXUXUXUXUXUXUXUXUXUXUXUXUXUXUX{ G z & & o UXUXUXUXUXUXUXUXUXUXUXUXUXUXUXUXUXUXUXUXUXUXUXUXUXUXUXUXUXUXUX",
"UXUXUXUXUXUXUXUXUXUXUXUXUXUXUXUXUXUXUXUXUXUXUXUXUXUXUX[ G n = & O UXUXUXUXUXUXUXUXUXUXUXUXUXUXUXUXUXUXUXUXUXUXUXUXUXUXUXUXUXUXUX",
"UXUXUXUXUXUXUXUXUXUXUXUXUXUXUXUXUXUXUXUXUXUXUXUXUXUXUX[ G h = = # UXUXUXUXUXUXUXUXUXUXUXUXUXUXUXUXUXUXUXUXUXUXUXUXUXUXUXUXUXUXUX",
"UXUXUXUXUXUXUXUXUXUXUXUXUXUXUXUXUXUXUXUXUXUXUXUXUXUXUX[ ' Z ; 8 $ UXUXUXUXUXUXUXUXUXUXUXUXUXUXUXUXUXUXUXUXUXUXUXUXUXUXUXUXUXUXUX",
"UXUXUXUXUXUXUXUXUXUXUXUXUXUXUXUXUXUXUXUXUXUXUXUXUXUXUX[ G Z s = * UXUXUXUXUXUXUXUXUXUXUXUXUXUXUXUXUXUXUXUXUXUXUXUXUXUXUXUXUXUXUX"
};
