/* XPM */
static char *flower_tulip_pink_pn[] = {
/* columns rows colors chars-per-pixel */
"64 64 256 2",
"   c #023B1D",
".  c #06381C",
"X  c #002D18",
"o  c #0B3C23",
"O  c #76373F",
"+  c #06451D",
"@  c #114F1F",
"#  c #034521",
"$  c #054A22",
"%  c #094F2E",
"&  c #134E23",
"*  c #19492B",
"=  c #0C5223",
"-  c #1C532C",
";  c #165528",
":  c #195B38",
">  c #235929",
",  c #295934",
"<  c #254D38",
"1  c #1D6338",
"2  c #276938",
"3  c #396939",
"4  c #2D7137",
"5  c #35763F",
"6  c #753442",
"7  c #266A42",
"8  c #336B41",
"9  c #356640",
"0  c #2E7748",
"q  c #367849",
"w  c #397F52",
"e  c #72464D",
"r  c #466747",
"t  c #467D48",
"y  c #517F5D",
"u  c #4A7256",
"i  c #7E6E75",
"p  c #901833",
"a  c #A30E35",
"s  c #AA1A32",
"d  c #862537",
"f  c #972435",
"g  c #8B343B",
"h  c #B21D43",
"j  c #843243",
"k  c #9A2E4B",
"l  c #AB2247",
"z  c #B3254E",
"x  c #B73B57",
"c  c #A03646",
"v  c #CA2C56",
"b  c #C33351",
"n  c #D82F60",
"m  c #C53C6D",
"M  c #95465F",
"N  c #B2435B",
"B  c #BB4667",
"V  c #AA526A",
"C  c #BC536C",
"Z  c #BC5775",
"A  c #A7526A",
"S  c #9B606F",
"D  c #976A7D",
"F  c #A36475",
"G  c #C7425E",
"H  c #C84865",
"J  c #D6466E",
"K  c #DC4877",
"L  c #C75776",
"P  c #D0537A",
"I  c #E34979",
"U  c #C46179",
"Y  c #37823D",
"T  c #42903A",
"R  c #3C8148",
"E  c #3D835B",
"W  c #3B8452",
"Q  c #468748",
"!  c #54844A",
"~  c #4A964B",
"^  c #569B4C",
"/  c #428554",
"(  c #478959",
")  c #578A59",
"_  c #4D925C",
"`  c #58935D",
"'  c #618D4D",
"]  c #5CAD50",
"[  c #67AB56",
"{  c #69B455",
"}  c #76B65F",
"|  c #4C8F61",
" . c #4C9362",
".. c #479066",
"X. c #539462",
"o. c #569A65",
"O. c #54966A",
"+. c #5C9C69",
"@. c #5B9767",
"#. c #5C9D71",
"$. c #559A70",
"%. c #708361",
"&. c #6A9E62",
"*. c #619D69",
"=. c #699869",
"-. c #6A8D76",
";. c #6A9D73",
":. c #6B9D79",
">. c #679B76",
",. c #759A78",
"<. c #6A8A65",
"1. c #5AA06B",
"2. c #5AA067",
"3. c #5EA175",
"4. c #64A563",
"5. c #64A36B",
"6. c #6BA96A",
"7. c #76A465",
"8. c #64A375",
"9. c #6CA373",
"0. c #6CAB73",
"q. c #6BA679",
"w. c #67A978",
"e. c #71A57B",
"r. c #75AB7C",
"t. c #79AD7D",
"y. c #72A773",
"u. c #70B273",
"i. c #78B37D",
"p. c #899C75",
"a. c #839866",
"s. c #BE8A71",
"d. c #88A874",
"f. c #8AB573",
"g. c #95C47F",
"h. c #A85A87",
"j. c #BC6D8B",
"k. c #BB7394",
"l. c #B37599",
"z. c #B9719B",
"x. c #AE6F8D",
"c. c #DA5E84",
"v. c #CF5A88",
"b. c #E55489",
"n. c #D96589",
"m. c #CB768C",
"M. c #DB6B94",
"N. c #D36C99",
"B. c #CF7C9B",
"V. c #C5749B",
"C. c #DC739C",
"Z. c #D47E9C",
"A. c #DB799C",
"S. c #D57594",
"D. c #CF6989",
"F. c #E26C95",
"G. c #E4699D",
"H. c #E4739D",
"J. c #E57A9D",
"K. c #E57797",
"L. c #C87AA1",
"P. c #DC7CA3",
"I. c #D77AA4",
"U. c #E37CA2",
"Y. c #EA7AA2",
"T. c #E175A0",
"R. c #7EAF83",
"E. c #7BB582",
"W. c #7EB980",
"Q. c #9C8F87",
"!. c #A2898A",
"~. c #AC8395",
"^. c #A68894",
"/. c #BA8399",
"(. c #AE939E",
"). c #80AD82",
"_. c #98AA88",
"`. c #82B584",
"'. c #89B78A",
"]. c #8CBF90",
"[. c #99B88B",
"{. c #A4B186",
"}. c #ABB898",
"|. c #B9BD9F",
" X c #B0B291",
".X c #B899A5",
"XX c #BF85A5",
"oX c #BBB4A8",
"OX c #AFBCA3",
"+X c #C6859C",
"@X c #D9829C",
"#X c #D38299",
"$X c #D4939E",
"%X c #E5839F",
"&X c #CD83A4",
"*X c #D584A4",
"=X c #DC83A5",
"-X c #D58BA4",
";X c #DE8DA7",
":X c #DE8CAD",
">X c #D787AA",
",X c #CD97AA",
"<X c #DA92AD",
"1X c #D493AA",
"2X c #DA8EB1",
"3X c #DC94B3",
"4X c #DC9CB4",
"5X c #D89CB5",
"6X c #E582A5",
"7X c #E285AA",
"8X c #E38DAC",
"9X c #E886A9",
"0X c #E595AA",
"qX c #E393B3",
"wX c #E49AB6",
"eX c #E39CB9",
"rX c #EA99B7",
"tX c #E38BB1",
"yX c #DCA2B6",
"uX c #D5A3BA",
"iX c #DCA4BB",
"pX c #D4AABB",
"aX c #CEB9BA",
"sX c #D1ABB1",
"dX c #E3A3BE",
"fX c #EAA8BD",
"gX c #EDBABE",
"hX c #9CC290",
"jX c #B5C38E",
"kX c #BACC8E",
"lX c #B5C192",
"zX c #BAC593",
"xX c #BECA95",
"cX c #BAC298",
"vX c #BCC0A1",
"bX c #C0CA99",
"nX c #CACBA9",
"mX c #CBC6B4",
"MX c #CCD0AC",
"NX c #DCB4C5",
"BX c #DEB9CA",
"VX c #E3A5C1",
"CX c #E4ACC5",
"ZX c #E8ACC6",
"AX c #E2B0C5",
"SX c #E5B5CB",
"DX c #EAB3CA",
"FX c #E5BBCD",
"GX c #EBB9CE",
"HX c #EDBBC1",
"JX c #EABFD1",
"KX c #E4BFD1",
"LX c #E5C4D5",
"PX c #E9C2D3",
"IX c #F4C0C9",
"UX c None",
/* pixels */
"UXUXUXUXUXUXUXUXUXUXUXUXUXUXUXUXUXUXUXUXUXUXUXUXUXUXUXUXUXUXUXUXUXUXUXUXUXUXUXUXUXUXUXUXUXUXUXUXUXUXUXUXUXUXUXUXUXUXUXUXUXUXUXUX",
"UXUXUXUXUXUXUXUXUXUXUXUXUXUXUXUXUXUXUXUXUXUXUXUXUXUXUXUXUXUXUXUXUXUXUXUXUXUXUXUXUXUXUXUXUXUXUXUXUXUXUXUXUXUXUXUXUXUXUXUXUXUXUXUX",
"UXUXUXUXUXUXUXUXUXUXUXUXUXUXUXUXUXUXUXUXUXUXUXUXUXUXUXUXUXUXUXUXUXUXUXUXUXUXUXUXUXUXUXUXUXUXUXUXUXUXUXUXUXUXUXUXUXUXUXUXUXUXUXUX",
"UXUXUXUXUXUXUXUXUXUXUXUXUXUXUXUXUXUXUXUXUXUXUXUXUXUXUXUXUXUXUXUXUXUXUXUXUXUXUXUXUXUXUXUXUXUXUXUXUXUXUXUXUXUXUXUXUXUXUXUXUXUXUXUX",
"UXUXUXUXUXUXUXUXUXUXUXUXUXUXUXUXUXUXUXUXUXUXUXUXUXUXUXUXUXUXUXUXUXUXUXUXUXUXUXUXUXUXUXUXUXUXUXUXUXUXUXUXUXUXUXUXUXUXUXUXUXUXUXUX",
"UXUXUXUXUXUXUXUXUXUXUXUXUXUXUXUXUXUXUXUXUXUXUXUXUXUXUXUXUXUXUXUXUXUXUXUXUXUXUXUXUXUXUXUXUXUXUXUXUXUXUXUXUXUXUXUXUXUXUXUXUXUXUXUX",
"UXUXUXUXUXUXUXUXUXUXUXUXUXUXUXUXUXUXUXUXUXUXUXUXUXUXUXUXUXUXUXUXUXUXUXUXUXUXUXUXUXUXUXUXUXUXUXUXUXUXUXUXUXUXUXUXUXUXUXUXUXUXUXUX",
"UXUXUXUXUXUXUXUXUXUXUXUXUXUXUXUXUXUXUXUXUXUXUXUXUXUXUXUXUXUXUXUXUXUXUXUXUXUXUXUXUXUXUXUXUXUXUXUXUXUXUXUXUXUXUXUXUXUXUXUXUXUXUXUX",
"UXUXUXUXUXUXUXUXUXUXUXUXUXUXUXUXUXUXUXUXUXUXUXUXUXUXUXUXUXUXUXUXUXUXUXUXUXUXUXUXUXUXUXUXUXUXUXUXUXUXUXUXUXUXUXUXUXUXUXUXUXUXUXUX",
"UXUXUXUXUXUXUXUXUXUXUXUXUXUXUXUXUXUXUXUXUXUXUXUXUXUXUXUXUXUXUXUXUXUXUXUXUXUXUXUXUXUXUXUXUXUXUXUXUXUXUXUXUXUXUXUXUXUXUXUXUXUXUXUX",
"UXUXUXUXUXUXUXUXUXUXUXUXUXUXUXUXUXUXUXUXUXUXUXUXUXUXUXUXUXUXUXUXUXUXUXUXUXUXUXUXUXUXUXUXUXUXUXUXUXUXUXUXUXUXUXUXUXUXUXUXUXUXUXUX",
"UXUXUXUXUXUXUXUXUXUXUXUXUXUXUXUXUXUXUXUXUXUXUXUXUXUXUXUXUXUXUXUXUXUXUXUXUXUXUXUXUXUXUXUXUXUXUXUXUXUXUXUXUXUXUXUXUXUXUXUXUXUXUXUX",
"UXUXUXUXUXUXUXUXUXUXUXUXUXUXUXUXUXUXUXUXUXUXUXUXUXUXUXUXUXUXUXUXUXUXUXUXUXUXUXUXUXUX8XuXUXSXUXUXUXUXUXUXUXUXUXUXUXUXUXUXUXUXUXUX",
"UXUXUXUXUXUXUXUXUXUXUXUX.XUXUXUXUXUXUXUXUXUXUXUXUXUXUXUXUXUXUXUXUXUXUXUXUXUXUXUXUXUX8XpXFXAXBXUXUXUXUXUXUXUXUXUXUXUXUXUXUXUXUXUX",
"UXUXUXUXUXUXUXUXUXUX.XUX1XUXUXUXUXUXUXUXUXUXUXUXUXUXUXUXUXUXUXUXUXUXUXUXUXUXUXUXUXUX8XiXUXdXNXUXNXUXUXUXUXUXUXUXUXUXUXUXUXUXUXUX",
"UXUXUXUXUXUXUXUXUXUXGXUX3X*XUXUXUXUXUXUXUXUXUXUXUXUXUXUXUXUXUXUXUXUXUXUXUXUXUXUXUXUX8XyXA.dXUX.XGX(.UXUXUXUXUXUXUXUXUXUXUXUXUXUX",
"UXUXUXUXUXUXUXuXiX1XJXI.iX-XUXUXUXUXUXUXUXUXUXUXUXUXUXUXUXUXUXUXUXUXUXUXUXUXUXUXUXUX1X8XJ.qXSXCX(.UXUXUXUXUXUXUXUXUXUXUXUXUXUXUX",
"UXUXUXUXUXUXUXUXuXVXVXVXCX0X*XUXUXUXUXUXUXUXUXUXUXUXUXUXUXUXUXUXUXUXUXUXUXUXUXUXUX<X1X6XJ.eXiX.XUXUXUXUXUXUXUXUXUXUXUXUXUXUXUXUX",
"UXUXUXUXUXUXUXUXUXuX3X<XCXqXJ.C.>X>XUXUXUXUXUXUXUXUXUXUXUXUXUXUXUXUXUXUXUXUXUXUXB.SXU.Y.U.dX+XUXUXUXUXUXUXUXUXUXUXUXUXUXUXUXUXUX",
"UXUXUXUXUXUXUXUXUXUXuXI.M.dXP.F.M.P.UXUXUXUXUXUXUXUXUXUXUXUXUXUXUXUXUXUXUXUXUXx.<X:XH.J.J.uX^.UXUXUXUXUXUXUXUXUXUXUXUXUXUXUXUXUX",
"UXUXUXUXUXUXuXNXDXSXBXM.v m 4X=XT.P.*XUXUXUXUXUXUXUXUXUXUXUXUXUXUXUXUXUXUXUXUXB iXU.H.T.>XyX~.UXUXUXUXUXUXUXUXUXUXUXUXUXUXUXUXUX",
"UXUXUXUXUXUXUXUXUXUX*X8Xb h z 1XwXwX7X:XUXUXUXUXUXUXUXUXUXUXUXUXUXUXUXUXUXUXUXL 4X7XT.H.3X:X^.UXUXUXUXUXUXUXUXUXUXUXUXUXUXUXUXUX",
"UXUXUXUXUXUXUXUXUXUXUXVXS.s a l >X3XqX7XUXUXUXUXUXUXUXUXUXUXUXUXUXUXUXUXUXUXUXHXVXqXqXqX3XB.UXUXUXUXUXUXUXUXUXUXUXUXUXUXUXUXUXUX",
"UXUXUXUXUXUXUXUXUXUXUXpX3XS.l a x :XgX7XUXUXUXUXUXUXUXUXUXUXUXUXUXUXUXUXUXUXUXsXHXfXwX8Xv.UXUXUXUXUXUXUXUXUXUXUXFXUXUXUXUXUXUXUX",
"UXUXUXUXUXUXUXUXUXUXUXUXUX5XB.v.A.0XnXUXUXUXUXUXUXUXUXUXUXUXUXUXUXUXUXUXUXUXUXcXmXmXNX^.UXUXUXUXUXUXUXUXUXUXUXUXJXUXUXUXUXUXUXUX",
"UXUXUXUXUXUXUXUXUXUXUXUXUXUXV.I.=X>XxXoXUXUXUXUXUXUXUXUXUXUXUXUXUXUXUXUXUXUXUXvXcXUXUXUXUXUXUXUXUXUXUXUXUXUXUX+XJXUXUXUXUXUXUXUX",
"UXUXUXUXUXUXUXUXUXUXUXUXUXUXUXUXUXUXUXxXcXUXUXUXUXUXUXUXUXUXUXUXUXUXUXUXUXUX XOXUXUXUXUXUXUXUXUXUXUXUXUXUXUXUX8XPXLXLXUXUXUXUXUX",
"UXUXUXUXUXUXUXUXUXUXUXUXUXUXUXUXUXUXUXUXxXxXUXUXUXUXUXUXUXUXUXUXUXUXUXUXUX|.MXUXUXUXUXUXUXUXUXUXUXUXUXUXUXUXk.ZXGXqXLXCXUXUXUXUX",
"UXUXUXUXUXUXUXUXUXUXUXUXUXUXUXUXUXUXUXUXUXxXlXUXUXUXUXUXUXUXUXUX<XUXUXUXUXsX|.UXUXUXUXUXUXUXUXUXUXUXUXUXl.k.9XGXT.3XdXKXAXUXUXUX",
"UXUXUXUXUXUXUXUXUXUXUXUXUXUXUXUXUXUXUXUXUXUXxXUXUXUXyXUXUXUXUXUXwXUXUXUXA.mXUXUXUXUXUXUXUXUXUXUXUXUXk.k.&XI.8XJ.Y.tXVXAXPXCXUXUX",
"UXUXUXUXUXUXUXUXUXUXUXUXUXUXUXUXUXUXUXUXUXUXxXxXUXUXdX,XyXUXUXUXwXUXUX@XK.@XUXUXUXUXUXUXUXUXUXUXUXh.j.A p L SXZXZXZXSXBXUXUXUXUX",
"UXUXUXUXUXUXUXUXUXUXUXUXUXUXUXUXUXUXUXUXUXUXUXbXUXUXUXiXrX8XUXUX9XPX@XK.%X@XUXUXUXUXUXUXUXUXUXUXi M f z C.rXtXY.Y.Y.#X&X,XUXUXUX",
"UXUXUXUXUXUXUXUXUXUXUXUXUXUXUXUXUXUXUXUXUXUXUXlXcXUXUXUXAXDXDXdXJ 9X%XK.DXUXUXUXUXUXUXUXUXUXUXUXF k m N.qXtXtXI.V.UXUXUXUXUXUXUX",
"UXUXUXUXUXUXUXUXUXUXUXUXUXUXUXUXUXUXUXUXUXUXUXUXxXUXUXUXUXfX8XJXG b @XPX*XUXUXUXUXUXUXUXUXUXUXUXs.Z N.I.qX:X&XL.&XUXUXUXUXUXUXUX",
"UXUXUXUXUXUXUXUXUXUXUXUXUXUXUXUXUXUXUXUXUXUXUXUXlXxXUXUX_.sXK rXfXs yXwXS.UXUXUXUXUXUXUXUXUXUXUXQ.h.h.L.L.L.>XVXUXUXUXUXUXUXUXUX",
"UXUXUXUXUXUXUXUXUXUXUXUXUXUXUXUXUXUXUXUXUXUXUXUXUXzXUXUX[.#Xn G.AX;XDXK J D UXUXUXUXUXUXUXUX{.lXvX^.x.h.z.2X5Xl.UXUXUXUXUXUXUXUX",
"UXUXUXUXUXUXUXUXUXUXUXUXUXUXUXUXUXUXUXUXUXUXUXUXUXxXUXUXoXI v rXZXDX#XA.H /.UXUXUXUXUXUXzX{.xXUXUXUXUXl.l.l.UXUXUXUXUXUXUXUXUXUX",
"UXUXUXUXUXUXUXUXUXUXUXUXUXUXUXUXUXUXUXUXUX;XUXUXUXzXlXUXsXI G c.F.C g L =XD UXUXUXUXUXzX_.UXUXUXUXUXUXUXUXUXUXUXUXUXUXUXUXUXUXUX",
"UXUXUXUXUXUXUXUXUXUXUXUXUXUXUXUXUXUXUXOXUXm.UXUXUXUXzXUX}.c.H n.f f f P 3XUXUXUXUXUXzX{.UXUXUXUXUXUXUXUXUXUXUXUXUXUXUXUXUXUXUXUX",
"UXUXUXUXUXUXUXUXUXUXUXUXUXUXUXUXUXUXUXhXaXH -XUXUXUXxXUXW.!.G.c.f d d B +XUXUXUXUXzX XUXUXUXUXUXUXUXUXUXUXUXUXUXUXUXUXUXUXUXUXUX",
"UXUXUXUXUXUXUXUXUXUXUXUXUXUXUXUXUXUXUX'.0XD.fXUXUXUXkXlXu.-.UXC c O O S UXUXUXUX|.nXUXUXUXUXUXUXUXUXUXUXUXUXUXUXUXUXUXUXUXUXUXUX",
"UXUXUXUXUXUXUXUXUXUXUXUXUXUXUXUXF m.J.$X0X8XS.UXUXUXjXlX5.,.UXUX!.p.a.UXUXUXUXy.bXUXUXUXUXUXUXUXUXUXUXUXUXUXUXUXUXUXUXUXUXUXUXUX",
"UXUXUXUXUXUXUXUXUXUXUXUXUXUXUXUXUXUX<XwX8X9Xb B UXUXUXg.2.'.UXUXUXf.=.UXUXUXi.[.t.UXUXUXUXUXUXUXUXt.`.UXUXUXUXUXUXUXUXUXUXUXUXUX",
"UXUXUXUXUXUXUXUXUXUXUXUXUXUXUXUXUXUXUX&XeXeXm.N UXUXUXg.2.'.UXUX_.7.UXUXUXE.r.t.UXUXUXUXUXUXUXUXt.`.`.UXUXUXUXUXUXUXUXUXUXUXUXUX",
"UXUXUXUXUXUXUXUXUXUXUXUXUXUXUXUXUXUXUXZ GXK.L m.UXUXUX} 1.E.UXUXd.) UXUXe.t.r.UXUXUXUXUXUXUXUX).`.`.UXUXUXUXUXUXUXUXUXUXUXUXUXUX",
"UXUXUXUXUXUXUXUXUXUXUXUXUXUXUXUXUXUXUXU U.H c g e UXUX[ o.r.UXUXd.3 UXUX>.-.UXUXUXUXUXUXUXUX`.`.`.UXUXUXUXUXUXUXUXUXUXUXUXUXUXUX",
"UXUXUXUXUXUXUXUXUXUXUXUXUXUXUXUXUXUXUXU D.H x O 6 UXUX^  .w.UXUXa.3 UXq.8.>.UXUXUXUXUXUXUX).`.`.UXUXUXUXUXUXUXUXUXUXUXUXUXUXUXUX",
"UXUXUXUXUXUXUXUXUXUXUXUXUXUXUXUXUXUXUXZ M.x x j e UXUX[  .o.UXUX' u UXq.:.:.UXUXUXUXUXUXE.].e.UXUXUXUXUXUXUXUXUXUXUXUXUXUXUXUXUX",
"UXUXUXUXUXUXUXUXUXUXUXUXUXUXUXUX;.UXUXUXC.B g e > UXUX{  .( UXp.y y q.:.:.UXUXUXUXUXUX'.].r.UXUXUXUXUXUXUXUXUXUXUXUXUXUXUXUXUXUX",
"UXUXUXUXUXUXUXUXUXUXUXUXUXUXUXUX*.;.UXUXB V %.Q = 9 UX{ ( / UXd.! X.w.#.>.UXUXUXUXUXt.i.r.UXUXUXUXUXUXUXUXUXUXUXUXUXUXUXUXUXUXUX",
"UXUXUXUXUXUXUXUXUXUXUXUXUXUXUXUXUX` =.UXUXUX,.R % , UX] Q w [ d.t 5.8.O.:.UXUXUXUXy.W.i.:.UXUXUXUXUXUXUXUXUXUXUXUXUXUXUXUXUXUXUX",
"UXUXUXUXUXUXUXUXUXUXUXUXUXUXUXUXUXUX` ;.UXUXUXq = < UX^ Q q =.&.+.y.8.@.UXUXUXUX*.r.W.e.UXUXUXUXUXUXUXUXUXUXUXUXUXUXUXUXUXUXUXUX",
"UXUXUXUXUXUXUXUXUXUXUXUXUXUXUXUXUXUX0.9.y.UXUX3 1 * UXY R 2 &.&.0.q.#.O.UXUXUX+.+.r.5.UXUXUXUXUXUXUXUXUXUXUXUXUXUXUXUXUXUXUXUXUX",
"UXUXUXUXUXUXUXUXUXUXUXUXUXUXUXUXUXUXUX6.9.y.UX3 0 o UX1 4 1 f.5.0.q. .O.UXUX5.o.+.5.@.UXUXUXUXUXUXUXUXUXUXUXUXUXUXUXUXUXUXUXUXUX",
"UXUXUXUXUXUXUXUXUXUXUXUXUXUXUXUXUXUXUXUXu.9.9.r ( . 3 , 2 2 6.0.w.+.| UXUX .*._ o.X.UXUXUXUXUXUXUXUXUXUXUXUXUXUXUXUXUXUXUXUXUXUX",
"UXUXUXUXUXUXUXUXUXUXUXUXUXUXUXUXUXUXUXUX7.u.u.) ) & > & ; 2 @.0.w. .| UX- 2._ q ( UXUXUXUXUXUXUXUXUXUXUXUXUXUXUXUXUXUXUXUXUXUXUX",
"UXUXUXUXUXUXUXUXUXUXUXUXUXUXUXUXUXUXUXUXUX4.u.u.) ! - & @ 5  .w.#...q $ 7 o.q 4 ( UXUXUXUXUXUXUXUXUXUXUXUXUXUXUXUXUXUXUXUXUXUXUX",
"UXUXUXUXUXUXUXUXUXUXUXUXUXUXUXUXUXUXUXUXUXUX4.6.@.@.9 * & Q O.1.$.E $ $ / / 0 / UXUXUXUXUXUXUXUXUXUXUXUXUXUXUXUXUXUXUXUXUXUXUXUX",
"UXUXUXUXUXUXUXUXUXUXUXUXUXUXUXUXUXUXUXUXUXUX^ ^ ^ &.t > 2 Q ..#...: # : _ ..w UXUXUXUXUXUXUXUXUXUXUXUXUXUXUXUXUXUXUXUXUXUXUXUXUX",
"UXUXUXUXUXUXUXUXUXUXUXUXUXUXUXUXUXUXUXUXUXUXUXQ Q T ! > 4 q W $.E # # 4 W w y UXUXUXUXUXUXUXUXUXUXUXUXUXUXUXUXUXUXUXUXUXUXUXUXUX",
"UXUXUXUXUXUXUXUXUXUXUXUXUXUXUXUXUXUXUXUXUXUXUXUXY ~ 4 > Q > 0 ( 1   & > 7 u UXUXUXUXUXUXUXUXUXUXUXUXUXUXUXUXUXUXUXUXUXUXUXUXUXUX",
"UXUXUXUXUXUXUXUXUXUXUXUXUXUXUXUXUXUXUXUXUXUXUXUXUX/ 0 3 t & 7 0   + @ 7 8 UXUXUXUXUXUXUXUXUXUXUXUXUXUXUXUXUXUXUXUXUXUXUXUXUXUXUX",
"UXUXUXUXUXUXUXUXUXUXUXUXUXUXUXUXUXUXUXUXUXUXUXUXUXUXw ; 3 ; % 7 X + ; , UXUXUXUXUXUXUXUXUXUXUXUXUXUXUXUXUXUXUXUXUXUXUXUXUXUXUXUX",
"UXUXUXUXUXUXUXUXUXUXUXUXUXUXUXUXUXUXUXUXUXUXUXUXUXUX8 2 > ; % : X   : UXUXUXUXUXUXUXUXUXUXUXUXUXUXUXUXUXUXUXUXUXUXUXUXUXUXUXUXUX"
};
