/* XPM */
static char *gold_ore[] = {
/* columns rows colors chars-per-pixel */
"64 64 256 2",
"   c #37280C",
".  c #3D300E",
"X  c #3A2C12",
"o  c #322B1A",
"O  c #372D16",
"+  c #3D3116",
"@  c #2D240A",
"#  c #2B2B2A",
"$  c #3E3524",
"%  c #39362C",
"&  c #353434",
"*  c #3D3C3B",
"=  c #3A3936",
"-  c #2F2E2D",
";  c #433413",
":  c #4B3C13",
">  c #47381A",
",  c #523E1B",
"<  c #48380A",
"1  c #463B26",
"2  c #413F3A",
"3  c #453E31",
"4  c #503F20",
"5  c #4E421C",
"6  c #54441C",
"7  c #594819",
"8  c #52420E",
"9  c #6A571B",
"0  c #725D1B",
"q  c #755D18",
"w  c #624A14",
"e  c #79651B",
"r  c #4D432B",
"t  c #524323",
"y  c #584929",
"u  c #5D5229",
"i  c #44423D",
"p  c #4A453C",
"a  c #4A4537",
"s  c #544B34",
"d  c #544C3C",
"f  c #5A4C35",
"g  c #5D533D",
"h  c #5B5234",
"j  c #624D28",
"k  c #6C5B25",
"l  c #6B5C2C",
"z  c #655428",
"x  c #745C25",
"c  c #6C5C33",
"v  c #655A3D",
"b  c #6B5C3C",
"n  c #645736",
"m  c #765E34",
"M  c #7B6423",
"N  c #74642A",
"B  c #7A632B",
"V  c #7A6827",
"C  c #7E7228",
"Z  c #6D623C",
"A  c #6C6137",
"S  c #746335",
"D  c #7D6C35",
"F  c #72633B",
"G  c #786938",
"H  c #7E7339",
"J  c #6F652F",
"K  c #454442",
"L  c #494744",
"P  c #4C4A45",
"I  c #4D4C4A",
"U  c #524D44",
"Y  c #514E4B",
"T  c #555144",
"R  c #595445",
"E  c #5F5944",
"W  c #54524E",
"Q  c #5A554C",
"!  c #5E594C",
"~  c #4F5051",
"^  c #555452",
"/  c #595653",
"(  c #5C5A54",
")  c #5E5C5A",
"_  c #635A44",
"`  c #635C4C",
"'  c #695C47",
"]  c #625D55",
"[  c #615E5A",
"{  c #685F52",
"}  c #5F605E",
"|  c #6C6344",
" . c #6C634C",
".. c #6B664D",
"X. c #726343",
"o. c #7A6C43",
"O. c #72654C",
"+. c #776B49",
"@. c #7C724A",
"#. c #7C7244",
"$. c #656155",
"%. c #6B6454",
"&. c #64625D",
"*. c #6A655C",
"=. c #6E695E",
"-. c #6D6955",
";. c #746B54",
":. c #796C53",
">. c #736C5C",
",. c #726754",
"<. c #7C7254",
"1. c #7B735C",
"2. c #777054",
"3. c #656462",
"4. c #696662",
"5. c #6D6A64",
"6. c #6E6C69",
"7. c #726D65",
"8. c #716E6A",
"9. c #757166",
"0. c #7A7363",
"q. c #75716C",
"w. c #7A756D",
"e. c #7D796D",
"r. c #767471",
"t. c #7A7671",
"y. c #7D7A74",
"u. c #7C7B79",
"i. c #85691C",
"p. c #8B741C",
"a. c #93771C",
"s. c #836C2C",
"d. c #886B28",
"f. c #8B7423",
"g. c #8B732B",
"h. c #887628",
"j. c #957929",
"k. c #826D3A",
"l. c #887638",
"z. c #927C3D",
"x. c #937A33",
"c. c #825D22",
"v. c #856D45",
"b. c #8B7C43",
"n. c #82744E",
"m. c #877949",
"M. c #937F44",
"N. c #847A53",
"B. c #8B7C55",
"V. c #85795A",
"C. c #927A55",
"Z. c #837C6D",
"A. c #867B65",
"S. c #827C74",
"D. c #827E79",
"F. c #7F817F",
"G. c #99871C",
"H. c #A68A1D",
"J. c #A8921E",
"K. c #B59A1D",
"L. c #9B832C",
"P. c #9A8627",
"I. c #998434",
"U. c #988639",
"Y. c #8E8239",
"T. c #A3862D",
"R. c #A28B2C",
"E. c #A68B26",
"W. c #AA9427",
"Q. c #B69B28",
"!. c #A18632",
"~. c #A68D3A",
"^. c #A99437",
"/. c #B39A37",
"(. c #BCA528",
"). c #BBA334",
"_. c #BAA638",
"`. c #BBB332",
"'. c #B1A31D",
"]. c #C1AF1E",
"[. c #C3AB2C",
"{. c #C5AC29",
"}. c #C7B42B",
"|. c #D3BC26",
" X c #C3AB34",
".X c #C2AA3B",
"XX c #C9B538",
"oX c #D6BE3F",
"OX c #C69D2C",
"+X c #DAC82C",
"@X c #D6C636",
"#X c #CFC23B",
"$X c #ECD726",
"%X c #8D814C",
"&X c #8C8245",
"*X c #9A854B",
"=X c #998747",
"-X c #9C9247",
";X c #8D8354",
":X c #8B8159",
">X c #928354",
",X c #9A8A57",
"<X c #9A9156",
"1X c #A38C44",
"2X c #AC9542",
"3X c #A3944C",
"4X c #AA9A47",
"5X c #B29847",
"6X c #A28C57",
"7X c #A89757",
"8X c #B39D59",
"9X c #B8A548",
"0X c #B6A657",
"qX c #B2A74F",
"wX c #8B8263",
"eX c #8A836C",
"rX c #968A68",
"tX c #9B9367",
"yX c #868176",
"uX c #85817B",
"iX c #8A847C",
"pX c #8C8778",
"aX c #958C7A",
"sX c #9D9174",
"dX c #A89767",
"fX c #A89B72",
"gX c #B8AC6E",
"hX c #C4AD45",
"jX c #C3B245",
"kX c #C8B648",
"lX c #C2AC55",
"zX c #CFBB53",
"xX c #C9B966",
"cX c #CABB6F",
"vX c #D9C847",
"bX c #D5C258",
"nX c #E1D14C",
"mX c #D4C965",
"MX c #D4C769",
"NX c #EBE044",
"BX c #8C8A83",
"VX c #898681",
"CX c #948E84",
"ZX c #999487",
"AX c #9E9A90",
"SX c #A59C89",
"DX c #A19C92",
"FX c #AAA288",
"GX c #A6A399",
"HX c #B8B29C",
"JX c #B8B4A4",
"KX c #C3B58D",
"LX c #C3BCA5",
"PX c #CCC394",
"IX c #CEC8B0",
"UX c #DFDDD1",
/* pixels */
"uXw.S.q.q.D.P * 4.[ &.[ ) 4.4.5.4.( *.* K P ) 5.^ F.iX*.5.q.( = 4.q.[ *.7.D.8.6.3.t.r.K 4.} } 4.6.6.r.I W [ [ S.DXw.u.D.VX4.} D.",
"e.iXZ.w.D.*.Z.Y S.4.[ i ) 4.t.4.q.8./ ^ = I & ^ t.3.q.2 8.6.T I [ y.Y 8.5.VXF.VXD.u.VX5.D.6./ W u.F.u.3.*.W D.q.4.D.u.BX) 6.7.3.",
"5.4.5.&.q.D.CXS.q./ 4.5.K &.[ 4.5.6.e.4.&.& & 6.( ) t.4.* * 5.7.*.( Y & q.7.&.F.6.uXq.6.S.7.q.7.u.u.3.q.q.*.5.~ r.y.8.r.r.5.q.8.",
"ZXVX8.8.4.S.S.4.6.S.6.S.*.4.D.[ P ^ ^ 4.y.K I 6.*.( q.yXL ) [ 7.S.%./ = # W ~ ) r.$.( 6.w.t.8.) 3.q.4.) q.[ / 4.5.6.K } ) 3.S.7.",
"7.S.VX5.t.[ *.q.5.&.8.S.8.5.w.2 &.( I W ^ 6.&.W ) &.U &.*.T ( ( { S./ Y K K 3.5.3.uX/ I ) 6.8.w.I } &.&.[ 7.8.5.q./ [ *.S.u.r.S.",
"/ / [ *.] ] Y [ / 5.4.5.[ K & ] $.! P L ^ 4.P P 6.r.5.[ ) 5.>.&.q.[ Z.w./ 8.&.[ 8.*.9.=.) [ 5.6.5.[ 8.iX( r.3.4.w.e.7.[ Y } 6.4.",
"D.q.I / y.[ ] *.D.4.&.D.5.] &.S.=.7.=.6.yXyXq.] ) 6.*.5.*.] 5.5.[ 7.S.[ # ] 5.6.*.I I 5.q.7.[ w.3.[ ^ r.S.&.4.4.8.t.t.w.[ 6.BXBX",
"SXS.5./ &.4.8.*./ [ = ^ 6.7.w.8.&.e.y.9.] &.7.&.5.*.&.$.$.( ] 9.7.[ [ ] 7.[ ( ( $.&./ 7.[ 5.K 5.y.8.[ ( D.Z.D.4.W 5.iX7.[ &.4.D.",
"iXuXt.] Y ] 6.) 3.] [ r.t.5.&.iX7.q.[ ) q.w.Y P ` A.:.O._ _ 3 U / L ^ P P ] 4.w.( P ( ) ) 3.2 * P ) u.BX8.3.6.yXw.8.t.VXu.r.r.u.",
"&.4.U ) ) ( ) ^ 3.S.[ 8.[ I 7.5.y.6.7.&.3.W *.] { V.rXsXV.M.m X.f 2 U ] / ( *.) ^ ^ I I 4.) / & *.q.BXBX3.) 5.6.8.[ } 6.4.6.r.3.",
"5.L &.[ [ 5.K ) q.q.U 2 L = = Q ] q.q.[ K p *.>.q.AXCXSXFX8X1X5Xm.s _ 0.! Y [ t.q.6.q.^ 3.5.5.( Y &.I u.q.8.Y L 8.t.q.5.6.3.3.4.",
"I &.e.q.t.q.q.*.5.V.O._ { ] 7.0.Z.S.8.&.Y a ,.N.aXDXLXLXLXZXaXdXM.X.b v %.! / 3.Q / ( &.r.) q.w.6.5.q.w.4.5.4./ K ^ ( } 6.^ ) L ",
"6./ 8.4./ [ 7.R r n 6Xk.+.1.*.] %.4.yXw.] p ' -X*XiXGXGXeXV.%XsX6X7Xx m.n g -.%.$.5.*.4.VXZX&.) / r.VX3.3.8.q.&.Y 3.4.) ^ &.q.&.",
"Y U 7.W ( * # % n z.2X7Xx.+.R 2 F U 5.8.0.a | Y.^.dXHXpX<XL.p.~.1X2Xz.z.7X@.7.Z.w.5.5.r.VXq.6.* ( 3.) ^ 4.[ ZXq.7.[ &.q.u.e.4.7.",
"D.w.D.e.] Y ] :.:X-X~.!.-Xb.B.V.R n W w.` T _ :Xl.1XJXGX=XW.XXkX/.~.v.z.,X1.w.7.9.yX&.4.6.6.( / 6.q.q./ u.5.8.t.r./ 6.4.I r.q.pX",
"w.S.7.4.*.7.eXN.N.S U./.^./.7X9Xn.c n =.%.0.1.m B l.eXGXuX9XR.PX5X7XG A A.>.7.uX5.) / T ~ ~ 6.&.^ &.6.5.5.8.&.u.8.q.u.8./ ) 6.4.",
"I 5.VX5.8.Z.:.' c Y.4X&XH ;X4X).9XC l F $.R 1.B.1X9Xz.Z.7.1Xx.b.B.C...%.T W ^ p ! 6.,.%.d U [ ) } ( ) uX5.t.y.F.F.y.5.q.*.W [ I ",
"[ I ^ ^ / =.A.A.N.&X@.@.>X-X5XR.P.I.l.u r F N.;XC./.z.eX>X/.~.' ;.:X7.( P p s O.N.tXN.X.v _ ! 4.^ W ( r.} 5.t.t./ q.y.uXq.( i &.",
"8.4.} / 5.] [ %.1.2.1.2.O.=X~.^.W.^.u H j.l.B.wXsX1XM.rX~.2Xb.A.%.*.t.q.%.2.@.m.7X4XH A +.s p Y 2 Y ( 4.q.F.t.*.4.t.F.4.5.u.e.9.",
"3.4.8.5.q.*.Y Q ~ $.R ..;X4XkX/.`.8 @ k. XqXSXFX3X2XM.j./.L.l.B.;.$.( ( eXG z.m.o.Y.Y.N.e.7.Z.w.yXy.^ 4.r.5.5.^ ( 6.Y W t.4.5.&.",
"CXD.5.5.7.5.] y.4.! ! 2.tX-X_.W.W.P.h.^.T.lXyXA.4X X XOX(.5X7XD _ -.T g b.1X2X*XpXrX,XF.7.y.D.u.iXBX*.L I ~ / I ~ U &.( K ~ t.) ",
"r.3.[ u.7./ ^ Y &.p h #.4XI.C M R.i.[.(.L.d.-.AX9X+XQ. X_.^.5XG s l.A S 1X.Xg.B FXyXCXq.VX*.6.r.q.w.7.[ U ( 5.3./ ( w.y.6.q.5.r.",
"S.t.8.q.I [ S.7.9.$.g J H V x f.e (.W.P.E.Q.=XfX X[.[.^. X!.N N N /.h.8 L./.9X~.%XeXF.q.&.6.*.Q ` 1.` $.e.wX-.^ } &.6.) ) 4.} 4.",
"3.[ ) ( ~ 5.Y * a u F.Z 9 h.D v &X0XU.U.Q.XXXX^.].(.}.8X6X_.I.j.~.L._.f.x.MX/.9XH <.7.W [ / I O.4.t.&.W 3.8.t.r.q.5.3.3.) i ( r.",
"7.4.5.w.&.w.pX0.<.a c G ^.x.| ] yXAXe.1.;XrXZXm.}.NX$X/.C.T.p.j.Q.7XM.I.1XM j.C n A.7.q.w.*.] R ] 7.>.Q &.4.] W 2 - ^ ) P [ &.q.",
"6.q.t.7.5./ u.*.b a b %Xx.=XFXe.BX:X7X4X_.fXJXPXMXvX|.J.~.P.q j.I.m.3X9X9X1X8XU.J E ( 9.3.&.W a $ 3 O.O.0.L L W ( 9.! Y ) w.4.q.",
"3.6./ 8.q.^ 7.u.S.g s @.@.N.<X9X7XW.`.+X|.bXHXIXKXoX+XK.a.).j.a.< u <X3XI.l.4X4Xj Z Q 4.6.W ] T | 1 f f 3 f d ] >.&.5.7.I ( 6.6.",
") 4.^ 5.q.S.t.5.4.=.b ] ! 2.;X9X`.K.J.(.@X[.PXUXUXFX|.H.E.a.x e V : k c h.u 0 f.d.X.0.] ! P 3 p 4 6 7 x m.6X,X .-.e.( ( Y P ( ) ",
"K P K & ) 3.^ I u.&.-.@.T +.<.%XxXXX|.}.+XQ.>XPXKXHXkX X!.E.5Xj.s.N k.~._./.f.h.l.m.@.h n 6Xf U f 6 j.k.B.dXb.D <.=.*.( 9.( ( Q ",
"/ W e.9./ ) ^ - * I i @.;X;X6X9XxX}.+X].'.J.Y.fX6XsXrXq T.XXR.L.k C N N n.cXbXx.7 M k z.u xXdX' 5 X X > M X h m N.` >.yX=.*.W / ",
"L = ) 6.K I K 2 & ( ..-X9X9XkX`.@X[.@X{.G.G.^.eXA.n.g.d.).L.9 k u j l.M.SXDX,X-Xk d.s.S M q l.4 : : 7 k . @ 4 , h %.5.( 6.9.( $.",
"4.*.i &.5.^ i / 2 T h ^.bXvX`.vXp.G.G.Q.`.p.-XfX8XhX0X~.xXdX+.F G Z D M b.7Xm.CXSXdXdXz gXj , 4 > < ,     : t y l h d 7.4.6.3.} ",
"*.9.q.5.6.CXaX! &.@.-XXXkXL.G..X).XXR.XX`.J./.0XgXFXA.=X3Xc u 5 u N H G J v A 0.q.>.s f j z 7 j 1 1 , ; , j , V.7Xk.d Y 7.4.5.Y ",
"e.y.w.=.&.6.&.&.( -.3XR.9 0 3Xe w i.W.].(.W.Q.kXDXIXL.V c tXZXv s s a p i <...! ] _ +.g g m T.c.c.( v.C.N.n b s f g %.4.&.[ K Y ",
"q.q.w.w.( i ! >.$.;X7Xf.0Xj.j.P.Q.(..XXX}.].4XjXjX}.W.#.+.%.Q $.p 2 p Y P U *.( 7._ { T ' n k.j d.s.v.Z.d v X.o.' Z.pXe.r.D.Z.[ ",
"/ q.q.q.*.>.d r | <X`.mXE.H.kX}.[..X5XbX9X0X~.H.#X+XW.;XwX6.uX( &.| ..} &.] 6.yXq.=.[ %.' ' f m x.s.M.X.f b z m { t.D.D.5.D.D.4.",
"( ] 4.*.( T %.F.%X7X9X`.kX@XNXkXqXqX0X0X0X<XG.kX}.`.J.#.0.$.d | s | 0.%.$.9.*.) 4.[ W / %.! | <.m.6X=X:XeX,.O.<.8.r.3.6.8.4./ 4.",
"Z.5.) 7.9.7.V.<XY.7X3Xh.gXmXgXfXrX3X3X_.j.V./._.Q.-X%XZ d %.1.&XU.%X#.#.| 1.0.*./ ] 0.8.%.=.-.9.rXZ.| |  .;.:.! 7.8.) 3.4.^ ^ 4.",
"q.yXq.*.y.=.) o.Y.gX=X1XZ %XV.1.:X&Xk W.G.7X8X{.(.;XyXe.0.S.w.k.7 6 k M x.k.d T ` p >.>.6.e.$.7.*.=.` ! >.%.q.w.^ / 8.q.[ ] / 4.",
"4.6.} / ) 4.W | Y.6Xl.=XM.<.] Q | b.P.p.E.kXA. X(.h.O.:XpX*.r : + + z 6 V c + o 1 r a s ! ! %.d ( ;.0.q.5.iXq.5.4.} ) / ] ^ 5.7.",
"5.5.} r.6.&.^ &.E s s.g.' O.{ { N.Y.Y.9 J.bXU.h.j.C 8 5 T 1 X   8 X 5 V *Xj O o 1 $ 1 s f G ,XU.S a Y 7.VX6.q.q.4.8.*.5.S.8.D.6.",
"/ R &.q.$.I ( Q =.F !.D :.m.V.,._ c k j.d.7 J k 7 < . @ $ X ; 9 e x y 5 7 y O O $ r > $ > x.M M k ;.( ) u.uX&.) y.D.VXw.q.5.~ ^ ",
"} t.W *.4.yX9.T  .:.rXA.v.m _ ,.s > : 8 < X 5 &XD ; . O o + $ F U.N z N l r o o > > 4 v.+ n 7 k 0 r ! 7.Q y.*.[ 3.[ & 2 r.VX} / ",
"t.e.t.q.4.q.7.[ / 5.c y h r % 1 > 6 w M 7 : @ ; X ; : r 3 p R R T d u h v a $ 4 m d.9X2Xl.z.6 < 9 z D G R ! 5.q.q.8.r.8.[ / &.6.",
"( 6.4.3.w.3.6.u.*.e.n.:.X.+.G k.l d.T.m 5   X X O 4 s d U ] 7.{ E T ! ..T a s h s.5XR.R.h.i.e G.q `.oXhX>XN.q.4.t.iXD.5.^ / 6.8.",
"5.7.5.u.^ L r.iXe.7.%.O.c G g.j.q e 0 0 x C.5 r :.0.>.] S.D.5.&.6.9.9.1.` %.:.b j 4 7 > N M hX(.(.XXW.cX9X=X' 5.8.^ 3.D.6.3.8.5.",
"( w.r.6.q.5.3.5.] ) W r 1 X : H.j.d.8 e < 7 k k.dXSXS.q.) t.t.7.6.uX6.>.! R ! eXdXl 9 j.e W.vX}.@XvX_.9XI.U.M.:.5.[ * ~ 7.[ I 5.",
"q.} W / *.( } ^ 2 7.[  .t < w a.j.T.l.I.j.9 9 f.z.>X;.8.) I [ [ 4.6.y.9.] U T  .X.m 1Xj.E.h.^.XXE.kXnXXXi.f.x.k f T 8.3.} &.8.t.",
"4.6.5.( [ 6.K ~ ) D./ L b j.^.j.d.9 x v.v.C.6X2XT.2Xb P / ( / [ ~ U T 5.e.&.i i a n F t 7 V 1X/.nXXXnX{..X XL.w c V.( ^ 3.u.6.[ ",
"P i K iXy.8.8.7.K - 4.] >. .n.C.C.d.c.j.d.6XCXsXC.C.+.` %.[ 8.[ ( =.y.&.5.6.( R U { O.l.=Xl.D hXMXbX XJ.OX`.zX0Xs.| w.6.8.q.4.W ",
"( * 2 ~ ^ } q.L I ] [ 5.7.0.7.{ ' j d.g.m C.DXZ.X.{ Q _ { ` 7.[ %.#.E ..1.*.=.( =.T ..:.:.X.C.M.Y.C 9 8 V p.W.XX`.F $.T I ) 4.8.",
"4.&.&.* ^ * # = ( 8.q.Z.] W Y =.' ' v.d.d.sXSXO.4 d W ' d _ _ ] $.H l S @.1.5.) / L &.[ *.%.,.v.A u k t 7 9 p.0 U.tXyXw.^ 4.5.&.",
"&.5.7.6.( Q 4.BXBXVXr.D.aXt.7.[ =.] Y ] 1XfX7Xm X._ c j 6 .   > s , 6 L.u | *.5.) I L L &./ { ,.;.h %XF.e 9 x.s.o.eXe.5.&.) 3.8.",
"*.) S.q.4.u.ZXZXiXZ.S.CXBXD.8.e.w.[ Q ] v.5X7 y V.d.W.9 x X ; X X 6 > t r R *.q.q.$.6.I Y L L Q T _ +.>XH H | -.,.] I W &.u.8.&.",
"5.) ) ( 7.D.t.8.3.8.q.8.r.y.S.8.5.D.q.Z.A., 7 s.j W.T.c.Q.d.9 : + t R ! _ ,.$.( $.5./ 5.[ / / / &.q.q.6.-.$.=.5.^ ( 4.S.y./ *.q.",
"w.6.4.u.7.w.iXD.q.8.3.8.8.* Y 4./ ] 5.D.,.C.j _ a ; M T.OXH.H.W.G.z R ` Q { &.&.w.S.t.u.[ S.Z.[ U ^ U * I ^ ^ 3.} &.5.q.D.t.u.5.",
"6.5.6.r.D.r.D.D.S.t.F.VXY L } q.7.w.5.8.,.G :.CXiX0.Z.:.M.1X1Xj.f.s.,.` 3 3 ] 4.VXD.D.S.S.) [ S.4.) ^ r.q.D.3.) 6.$.( ^ 4.BXF.VX",
"/ &.&.5.8.&.5.iX5.[ ( 8.I / 5.^ [ 5.) 4.` :.Z.aXaXZ.eXw.0.0.A.C.@.SXZ.[ 4.{ 4.&.5.6.5.8.4.4.[ 4.Y / 5.VXD.D.D.D.t.uXy.5.3.VXr.r.",
"8.^ 8.VXr.[ / [ 8.5.3.3.t.5.) ~ ] / ^ T =.4.4.q.e.pXaXaX0.` 7.CXZXZ.&./ i K - K ~ ^ 8.4.S.4.Y * ~ q.& - I ) S.) 8.5.5.8.r.r.F.D.",
"^ ^ / / ^ 5.^ ^ [ [ 3.Y 3.[ r.r.8.6.Y S.CX0.S.q.) 5.5.aXCXD.S.D.Z.=.*.9.[ 5./ 2 * * * * Z.I 4.K - K ) 3.) / L ) 5.5.3.r.r.) ^ / ",
"6.~ L L &.) 4.* # 2 ^ &.[ &.5.&.5.6.CXw.D.DX8.8.[ 7.w.w.8.S.=.[ [ ] 4.7.q.D.q.W ~ I ^ ^ ^ S.S.4.[ 5.q.4.8.4.VXS.6.r.6.) ~ ) } ) ",
"3.] q.D.7.4.} r.r.&.Y &.5./ L ) e.[ t.8.8.y.7.D.8.) Y / 4.S.Q W [ 7.*.4.t.t.q.y.u.S.) ^ 4.~ I &.4.q.u.S.} ^ ^ [ 8.6.^ ) ) } 4.) ",
"Z.*.AXD.w.9.6.t.y.} } [ I S.^ ^ w.q.&.5.6.u.BXAXZX[ 4.Y L L Q 4.Z.A.S.9.&.5.t.8.3.) * ^ 3.^ ~ [ D.) ) 4.[ ^ [ ^ * [ 3.) 3.8.6.) ",
"iXS.S.5.3.] r.) ~ / VXD.7.7.S.I / ) W &.5.5.5.pXu.CXS.[ I L 5.Q D.*./ / &.S.VXF.) ^ I & 5.[ 3.8.4.&.~ [ [ 5.^ ^ 8.3.4.~ F.VX6.D."
};
