/* XPM */
static char *gravel[] = {
/* columns rows colors chars-per-pixel */
"64 64 256 2",
"   c #121413",
".  c #1B1D1B",
"X  c #191A17",
"o  c #0A0A0B",
"O  c #211F1A",
"+  c #1D211E",
"@  c #22231D",
"#  c #1D1F21",
"$  c #1E2223",
"%  c #232524",
"&  c #262925",
"*  c #2A2A25",
"=  c #252A2A",
"-  c #2B2D2B",
";  c #272724",
":  c #312E28",
">  c #2D312D",
",  c #2C3027",
"<  c #32332D",
"1  c #39362B",
"2  c #2B2F32",
"3  c #2D3332",
"4  c #2F3835",
"5  c #333533",
"6  c #353935",
"7  c #3A3B35",
"8  c #353B3B",
"9  c #3A3D3B",
"0  c #363735",
"q  c #302F30",
"w  c #413D34",
"e  c #413E3B",
"r  c #3D413D",
"t  c #444135",
"y  c #43443D",
"u  c #49453C",
"i  c #44483E",
"p  c #4C493D",
"a  c #5A533E",
"s  c #363D40",
"d  c #3B3F41",
"f  c #373F4B",
"g  c #3D4343",
"h  c #3B4447",
"j  c #434543",
"k  c #444945",
"l  c #4A4C45",
"z  c #444749",
"x  c #444B4B",
"c  c #4B4E4B",
"v  c #484742",
"b  c #524E45",
"n  c #514E4A",
"m  c #4C5046",
"M  c #47514E",
"N  c #4C524D",
"B  c #475146",
"V  c #535246",
"C  c #53534C",
"Z  c #5A564A",
"A  c #56594F",
"S  c #5C5A4C",
"D  c #5C5644",
"F  c #464D51",
"G  c #4C4F51",
"H  c #4D5353",
"J  c #4E5854",
"K  c #4B5557",
"L  c #535553",
"P  c #555A54",
"I  c #5B5C54",
"U  c #535659",
"Y  c #545C5B",
"T  c #5A5D5B",
"R  c #585554",
"E  c #635D4C",
"W  c #645C46",
"Q  c #615D54",
"!  c #605F5E",
"~  c #5D6155",
"^  c #56615D",
"/  c #5D625D",
"(  c #59665A",
")  c #4F615C",
"_  c #69634E",
"`  c #72674E",
"'  c #646254",
"]  c #6A6453",
"[  c #63645C",
"{  c #6A665C",
"}  c #636B5D",
"|  c #6C6A5C",
" . c #6C6C55",
".. c #736C5C",
"X. c #746C55",
"o. c #7C745C",
"O. c #545D61",
"+. c #5B5F61",
"@. c #556262",
"#. c #5C6462",
"$. c #5D6964",
"%. c #5B656A",
"&. c #5E6A6A",
"*. c #55656C",
"=. c #5F6A70",
"-. c #626563",
";. c #696661",
":. c #646A64",
">. c #6B6B64",
",. c #636C6B",
"<. c #6B6D6A",
"1. c #626769",
"2. c #736D63",
"3. c #716E69",
"4. c #6C7166",
"5. c #64716B",
"6. c #6C726C",
"7. c #6D786D",
"8. c #657066",
"9. c #747263",
"0. c #7A7463",
"q. c #73746C",
"w. c #7A766B",
"e. c #74796D",
"r. c #7B7A6D",
"t. c #797B67",
"y. c #636E73",
"u. c #6A6E71",
"i. c #606670",
"p. c #657372",
"a. c #6C7473",
"s. c #6C7A74",
"d. c #6C767A",
"f. c #6D7A7B",
"g. c #657677",
"h. c #727673",
"j. c #747B74",
"k. c #7B7C74",
"l. c #727678",
"z. c #737C7B",
"x. c #7B7E7A",
"c. c #787770",
"v. c #81775B",
"b. c #847B64",
"n. c #837D6C",
"m. c #86796B",
"M. c #837E73",
"N. c #837F79",
"B. c #758174",
"V. c #7D8175",
"C. c #75827B",
"Z. c #7C827C",
"A. c #77887E",
"S. c #7C806D",
"D. c #8B836E",
"F. c #8B836B",
"G. c #92866A",
"H. c #978C6A",
"J. c #838274",
"K. c #8A8474",
"L. c #83847C",
"P. c #89857B",
"I. c #85897C",
"U. c #8C8A7C",
"Y. c #898977",
"T. c #938A74",
"R. c #938C7B",
"E. c #9A8E73",
"W. c #9B9174",
"Q. c #99937C",
"!. c #879078",
"~. c #A1926D",
"^. c #A1957A",
"/. c #A79A7B",
"(. c #6E7C82",
"). c #737D81",
"_. c #7E7F84",
"`. c #758383",
"'. c #7C8583",
"]. c #7E8A84",
"[. c #7E858B",
"{. c #7D8A8A",
"}. c #778B8A",
"|. c #7C8E91",
" X c #75888A",
".X c #828582",
"XX c #8A8782",
"oX c #848B84",
"OX c #8B8C83",
"+X c #838C8B",
"@X c #8A8D8B",
"#X c #828689",
"$X c #928E84",
"%X c #958F87",
"&X c #8B9285",
"*X c #8C928D",
"=X c #859189",
"-X c #949185",
";X c #9A9484",
":X c #93938B",
">X c #9A968B",
",X c #9C998D",
"<X c #97988A",
"1X c #8A8E92",
"2X c #838F95",
"3X c #859394",
"4X c #8B9493",
"5X c #8E9A99",
"6X c #89969A",
"7X c #939693",
"8X c #959995",
"9X c #939A9B",
"0X c #9C9D9A",
"qX c #9B9A94",
"wX c #A39B85",
"eX c #A59C89",
"rX c #A39F93",
"tX c #9BA19C",
"yX c #ACA28C",
"uX c #B7A685",
"iX c #A4A294",
"pX c #A9A492",
"aX c #A4A59D",
"sX c #ACA99C",
"dX c #A7A99F",
"fX c #B4AB93",
"gX c #B4AB96",
"hX c #BDB399",
"jX c #BDB08C",
"kX c #979CA0",
"lX c #9E9FA0",
"zX c #9DA2A3",
"xX c #A2A6A4",
"cX c #ABAAA2",
"vX c #A7A9A9",
"bX c #B3ADA4",
"nX c #AEB1AB",
"mX c #B4B4AC",
"MX c #BAB5A6",
"NX c #BBBCB4",
"BX c #B5B7B9",
"VX c #ADB0B1",
"CX c #C5B898",
"ZX c #CAB68B",
"AX c #C6BCA5",
"SX c #C0BEB1",
"DX c #BEC1BD",
"FX c #D8C59C",
"GX c #CDC29C",
"HX c #CBC2A9",
"JX c #D7C9A9",
"KX c #C6C3B9",
"LX c #DCD2B0",
"PX c #E7D5B2",
"IX c #BCC0C0",
"UX c #C7C8C4",
/* pixels */
"= g I.+Xr / & ] N O.<.X K . %.#X8 -.BXO.i.y.= % {.*X7.& l B.z * X N .XP L.L.% k.yXJ.R.  . j h.* 9 5 [ R 8 h   F g.-.hXqXT <.x.^ ",
"a.N 7 5 / Z.3 w w.C J.; <.h.c 2X8 * %.; O.z ; D 9.oX4.oXP % 4 I N @.Z  .bXmX:.K.uX2.[ 5 C [ V ] yXA n.6 F +._.G F d t.k.2.y k 8 ",
",.r } T Z.e.9 6 e.q.XX< a.{.1.N R N +X& .X9X< ~.E.L [ :.5 '.6.w.B.f.L > cXmX@Xw H.V dXJ.7 JXCX>.Q U.rX< 2 L @.v 3.J.S D.eXyX .z ",
"I + r { l % #.p.a.- k.U .X0 $ % '.r 1.g .X! h.;.J.'.[ u j.UXNX8XT <.P 0.{ :X<.y ;.k R.R.MXT...9 :XA ~ V.k 7.I V..X&X~ i t I [ @.",
"3 :.B ,XiXr x / z.8 = x kX2 i.d c k j L c d.} 7.A 8.l 2.+Xh.:Xh.7.6 D.HXK.k r = N k ^ KXKXrXz.P q.C j A ~ I =XA.4.N z / 5 v ^ @.",
"4.oXk J.OX<.c : C F F 2 = a.P -.z.h.y L U K E ] ^ `.@.4 <.U g L.z.O.Q.J.-.zX- N A , a.nXNX.X@.8 N x r 3 % :.=X=X&.. P 1.R :Xw . ",
"k A 1 / y T L W.FXQ ,.x 7 t >.a.`.C.I 7X@Xa.W ..,.T y.v U.:.9 =X3X2Xk p.K + 7 ' m 5 >.r   > c z.,.v N c % L s.<.>.C f.9 , r c M ",
"k ` Y.k.e.6 <.+XjX^.  9 ~ wXyXp N 6 k I.&X>.  d.6X:.C.d.-.; - F U O.r 3X&.N pX{ @.j I.( h ~ g j.Z.q..X4.q.,Xl . I P I.P ( N &.^ ",
"c l t 3 L.>.z.<XG.K.r j.k.T.G.N 8.J = :.oXk j ].z K g z.7XU j 9 E ;Xl C 6 ~ <Xr.B }.k N e.I 8 ,.9 & <.4.0XiXJ.h Z.+X5 7 x C .X.X",
"a.h.v f [.=X$.#.5 7 j.S.e.< - x 4.J j.4XX - <.Z./ Y 5 j.c I z h p ' k - e.+X9 7 > Y d 4 L - g s.g N ..X.tXiX| C a.Z.3.q.L { qX-.",
"< ;.t 5 :.J.7 h.L = 6 9 @.r i > h % w.T z.@.j 3 - I p mX<.L.x.+.<.9 { { C 4.y Z., 6 8.Y t.T N #.x -.X.ZXX.~ L.g j c k.R :X9 L . ",
",.h.[ z K N N .XZ.I { g 8 I 0.r Z.6 ..q.y T s.<.r h.5 BXk L 0 c / M.-X-X' v - 7 8.t.k 9 c * H P N T y V b zXdX/ j :XmXc.L.g l.z.",
"Y %.U Y d = a.<.<.wXpXH *.;XLX| :./ MXmXr / 8.:.B.7 R <.0 l T - * [ r > y OXa.#.B.!.( >.q.K %   8 = h.<.H @XOXY.  OXcXq.7 < #.,.",
"# x j.k.k 4 d N m w ..y 6.hXCXl . k =XNXaXP 8 4.>.| gXsX5 3.q.: I e.*XL $.Y :.B 8 ~ 7.V.k.| r C z.L BXVX:X'.4X:X% 8 c % I h.{ 0 ",
"N x.H X   :.$ 7.8.C C N { b.T 1.5 Z.U 9 y T d 7 5 T U.rX<.<.0 n R 1.>.K ].s.$.c h } e.r.R.FXCXC x.R N.aX8Xl.'.Z.. - = s L '.b ;X",
"vXBXzXx 8 4Xx M ) c .X5.;XI 5 -.j.c L J 6.5.6 V k <.- j U 1X8 ! I < 5 -.B.7.f.+X~ z.9 m LXJXCXZ * ..1 G 9 <.V.:.8 X 0 L.j n < v ",
"c -.H g.M -.c P 5.J #.d.N q.w.$.V.Y x d.*Xa.W Y.I.C g oXU 9X+.e w L.:Xl :.L j.=X( N ~ ^ #.w.c x.G n.;.Y 6 oXj.v w.* L.@Xx.U.a a ",
"z.:.K 8 k 4 r wXv.1 ^ 9 .XnXtXz 9 a.>.* P 8 < P G 3 8 a.R L 3.2.N.C k b T.0.7 * Y C.5.C.$.g K G 9 v x = h N % ^.JXyXq.T R .XF.e.",
"Y '.'.x f.$.@.C ' Z h #.8 d 5 @.9 T Z I :.'.P #.+.K i.Z yXeXD Q y x.L C S A y l 4.7.h $.$.Y C. X@.x p.5.h F % uXFXGXJ.x 8 h Z.C.",
"#.> r 9 ].5.g q.L.t.B &.8 g g `.C.1.S ( 9 Y j = n q.{ W CXuXX.rX.XZ.C r k.d.B.r 8 r r c |.a.p.d.~ Y |.$.6 h > l E _ w k i f.%.N ",
"g r c / N 8 @ k.L.R :.l G.fX% &.a.C r / _ /.m.3.c.;.2.7 ! - 3.bX@X1.l 7 k.q.<.H 3 x N l s.g 6 3 m S k 6 #X.X;.oX4X:.8 #.6 x = 5.",
"9 N d./ *XZ.L x.L.R ,.U V } j.= = B. .x T ^.n.6 < J.qXA *X;.z .X>.P.;Xy N l g J z.> Y r > :.H 3 :.OX9.U 9X+XH h.Z.C / ;XC 8.< #.",
"n | 4.P j.<.H y I N y u.j.X j 0 8 N ~ j.s.N ~ w.;.r.C l { 6.K Y T 2.,XC :.A 3 > v r @.h <.>.n u v :X:Xc &.@.4.#.< = 5 M.m 7.-.% ",
". b % N 5 ,.'.K = <.<.T U >.x.j #.J T / / I 9 7 J.4.& 7 > j F ,.9X;.c >.+Xx H H N C :.3 l 5 Y.;Xr.9 H l V.f.N 8 c N A h.; g P M ",
"l I.oXq.L.z.|.f.j ^ z.> = .Xa.% y * a.F.D.5 8 q.hXR.Q V.} 6 x ( d.7X<.mXBXw.6 j 8.4.MXM 5.B R.pX,Xv |.).N P ^   e.B.#.{.8 - 5 $.",
"9 NXoXR / j &.#.:.M ,.7 P c x.l.8 a.9 gX0.z 8 - <.I & j N 5 k j.4.4Xh.KX7X:.s.;.*X7.L Y 7 1./ P.S L 3X(.+ 5 C.C.( 7.M K N :.r B ",
"z 9 x 6X=XN 9 8 g j.r A T G 7X-.x..X9 c.7X-.T :.'.`./ N b E.R.T B < y J.-.T c v #./ g f.,./ :.%.6 j @.J @.> T }.}.r r k {.C.< 7 ",
"2 6 &.].&Xz.H Y P / 9 g N L F H 1.5 .XBX4Xs.&.-.{.3Xf.#.wXHXHX..' ..w b 4.#.g @.M , r 6 ] ' z.R k.C $.}.3X%.3 s.g.g J B T L I.A ",
"$ x p X.p < = L vXzX6.=X#.:.6 x #.k *XmX#.{./ Q y y P 5 $.U.Q.W T.K.0.. 8 K &.%.d.$.} 5 ] | j qX$X- 9 s.5.J b.' = g 6.#.z.j.x } ",
"g 9 H.CX0.j.% x.mX/ :.*.N z.4XY 7XKX7Xj F x.< wXfX0.* * R l X n ;.M.' h @.,.c f.'.].4.j j `.p.9 T :X5 :.&Xj.p w V.+Xz.c 6X.X[ 6 ",
"K B.5.7 k ,.B.$.>.h g ~ L #.B.Z.R qX6.#.@.Q ~.b.p T x.z L ;.e ;.R x 5X{.`.*.x a.&./ 6 2 ,.- K `./ m / -.8.P :.= > -.,.9 6 g Z.L ",
"I C +X,.= c `.x g x c = 6 y 5 l c = &.$ k w.CX0.5 -.:.c '.c 7 v u.H 4Xp.f.*.y L.h f.^ 6 / 8 g g 9 6.x.m $.k 8.1 ^./.0.U - I z q.",
"cXqXH #.K r N j T j Y -.;.U.u.9 x c 5 = z -.% &.s.- T '.x z.Q R R J.9.z $.h G L 0 f.L.CXAXw.Z 9 % x C 9 }.h r ).&X7XS @ w.V.. XX",
"2.>X7 0 #X:.k.I C h.G ;.T j T ).R [ L %XC k 5 6 P L p.oXU I r H k rXsXw.% #.y.8 C e pXAXHX/.MXwX* >.[ G #.x P ].L.<.C v Z.l 8 9 ",
"6.n < 8 (.7.A 7 5 #XT -.0Xj z.l.P r @ z R <.- k 9.SXM.:.L L.a.$.N K.sXU.,.T y.x 5 v W fXCXb.| k ;.sXwXg P.T V.w.j T w.c k h a.6.",
"d.C d % O.c 1.<.5 j e N.7X9 e : 7 *X:Xw.j.xX<.6.-XAXI U = L a.z.<.b pXw.. r 1.U XX1 e < Z I -.j c ;XR.O ;X.Xe.x.T R x U % c :.x.",
"k $ U I Y +X+X:.* > * w c o.AXhXp Z ;.l Q .X>.Q i ' 9 K *.g #.a.3.9 T 9 2.m.n 5 P.Q L 0 #.#.$ z <.9 l ;XM.Q oXy O O : c % r #.U ",
">.<.xXP.5 M.JXCXC { >.] Q @ o.t.C v [ 5 ; O MX..K.k.+X+XK M <.N r l 7 ! { 2.n L H 0 v d d.,.6 - U q M.eXT.R v 2.;.C l k N N j [ ",
"x.L.,X5 = /.GXFX] j..Xq.i ;.R #.:X:X4XN k < m.u eXT h.q.x.x.4X<.. n.Q #.;.@X<.q 8 v R X 7 + g -.z C I C -.Q * C ' v v y q.6.d.].",
">.l >.5 - C.o.G.| U C U.K.N / H ( :Xz.a.h.c ;XV _ I / Z.9XU %.[ = t t.v <.+XR h.R XXU.Q T { d ).U l./ l h.R U R * <.=XZ.N ( x z.",
"$.[ n h.P &XB.N 5 # % '.j.j #.+.r [ T 4X+X3 l -.I -X9.oX4Xv < ; t A { v ;./ h.VXq.:X:XQ :X0XL 8 r 7.s.7.8 #X#X1.: x 4XU x q.* 1.",
"G x 9 L j ].7.P N.9 R 9 5 6 = 8 9 ! G z.T N T ;.t.fXU.l ;.c * m...T r & l [ k 7Xj w.9.5 ;XM.j . o % h ^ k c #.c +XP U ,.9X1.j U ",
"z * k k j.6 6 C :X1 CXj.x.s z = ; U 9 - x tX#.y :.~ I P U T V.;.L [ OX-.T 9XZ.> 6 [ :.0 l k T #X8 g A.B > V X . U c 8 xXIXxXP j ",
"j.a.sXZ.'.+X<.N <.0 b.h.>.8 T aX9X1.* r.<.y 9 9 #.8 #X'.c q.I.:X! G 0Xz.$.:X<X .q.L y Z l B.p.5X^ % A.8.U aXQ J @Xs.< L _.c j = ",
"8 k.NXP 1XzX[.- T -.NXDXoX. OXcXaXU < pXA z.&Xq.r f.f.v y { bXbX%Xc c.<.G L U.I j T <.w.; x 8 O.H r c J / 0X>.* 5 r G.D m./ *XO.",
"/ ,X.XI.[ <.h.d > C vXvX'.x T N k.9Xt wXv $.#.j j 5 g d.&.% ;.L.c.%X/ k.* c ;.v h $.0 d x.j.,.* l :.g 6 P &XS X d.i ~.D K.1.9X#X",
"y r 8 g 9 6.R C -X..l +.Z.h.$ { q.;.- [ P N / [ p = 0 f.f.3 | 7 n 3.6 T K 5 ,.5 :.6Xa.L x.u.c k.M.v <.[.z v ` t y.U < j.J j @Xw.",
"j.x $ $ 8 8 k A rXrX@ - L a.6 q.XX[ z.3X@.6 + V U j.r 0 c c ' $Xh.: N d.z.%.'.K h.[.+Xn r % & k.m.c # x . a FXuXr 4 J ,.M ,.P = ",
"* x '.a.2 6 8 6 k v g %.% % Y N >.g g  XP z Y ) 7 L.e.,Xx.VX;.u XX- :.j.4.A <.&.% ,Xr.y j = y.2 H g z ^ / } CXCX@ l '   :.j.4 m ",
"C 6.+XT - +.Y J r.c h 8 -./ Y I /./ B.k r N 7.=Xr k r.KX>XBXx.m.7 7 M.6.B $ = M r u A y n.j.8 z.oX1.k ~ :.M ' u ..hXAX8 C.7.I $X",
"& U T 4 <.c Y T 4X'.g / @.6 4.j D $.<.y c *Xj.j l j.' J.[ [ 9 r.2.q.V } 7 4.( ( S ' k.' D E.#.{.f.9 CXcX[ 6 r y D n.c x g D t v ",
"Y ; . U g -.j 9 +Xx.U f.Q b 3X/ k s F z j Z.L.l ,.1XH :.L 3 ;.0XmX4.l a.g / '.k 0.;XgXsXJ.V R z.A m.JXMX<X> y P *X=X4.+.% 7 v z.",
"H k.d c T 7XOX5 '.L J 0.AXQ./ 4.l.9 f.>.fX9.j.P x a.;.L.q.% R OX7Xc R T @.6 P l E.' R.pX,X; @X3.Q E jXE.7 O.> 8 / y   _ Q.^.' ].",
"' yX/ #Xj Z.x.- K 8 9 o.hXT.l K U < I 9 jX_ w 1.K $ ! x.:.>.L .XR L.z.x.T 9 P I 4./ q.{ q = G c W < Z.g ,.K g J 5.N T E.JXPXQ.^ ",
"y I x y T.w.0 d.).a.@.6.= ' { y 4 x P.{ W : G.l T Y P q.I *X8Xc I >X8 .Xz 6 t.,X-.h.l x F ! L.:.j c 7XA.a.= 3 8 J ~ J.S JXLXyX. ",
"v.v.b 6 *X>Xn l.'.K $.U 1 0..X'./ 7.. r 1.N 7 z P r.' 2...:.x.Q Q AX6 y ; } k R k ~ c U %.0 9 > 3 d % :.h z z g r Z.<.+ ] W.I * ",
"` CXZX- 6 V g & = k hXGX/.u .XtX%.~ m E.P 4Xx./ 7 l C 1 u ; w.M.' gX* $.U <.7.c s.} | rXe L #.q.K q.8 ~ A 7XmX~ v P @ k.t.' 6 X ",
"k A 7 c g } *./ 1.c jXLXLXr.,.f.h.6 n.&X*Xx..Xk.X Z z.%.>.I y w.w.p m.m.@.r } Y <.i 9 L 9 +.J Z.| L.L % g Z.mXB $.,.m q...4.$.k ",
"A.Z.L Z.P B.C.-.c N p W.D.i 6 l :.y l A.I.P 7 U j b <.:./ y e x ; 5 o.yX,XJ > / l hX7 P +.u.0 9 N V y C.A.r = h > o.U.A @ N c P ",
"X.S - x.Z.>.l 1 Q 1 s.^ - aXbXM.<.k.5 9 N L.-XT u c d.N `.r <.z.a.-.v <X,X8 k .Xr.-XI ].G y.H +X- [ 8 $.} / #.z.r ~ &XP >.Y   D.",
"CXCXE 2 :.a.9 t  .I }.h u } U.C y V.P A.6 $XeXj cX;.j.Y f.H k x / A./ L i 8 g.I | & P x.T @.N VXU N '.@.L Z.4.P x..Xx.; 9 = m 2.",
"l D.9.1.( j * :Xv J ).2Xf.= U T MXbXy &.= J [ >.cXT g 3 x '.6.Y k C 6.:X&X:.,.c .XP.c 5 K d.; k X 8 '.=Xq.P T X D.2.e X.C C :X>.",
"  7 c #.<.J L I 7 G x 5.=.% g j rXk.l.kX9 H J 8 <.:.8 h Y ].<.U :.r a.&X9X5Xc k T Q l <.c r Z.= x % 5 k [ s g c wXCXb wX/.C t.y ",
"4 6.@.+XoXc j K.y h $ # y.9 ).r 0 z BXkX9 8 M = f.*Xa.x P +XU 8 N q.*XY r #.< < Z ;XHXh.T :.z.r 6.P [ +.K s s g L K.eXQ b 9 r @."
};
