/* XPM */
static char *hardened_clay[] = {
/* columns rows colors chars-per-pixel */
"64 64 126 2",
"   c #5D2D1E",
".  c #61281B",
"X  c #73311F",
"o  c #5F392B",
"O  c #622F21",
"+  c #613324",
"@  c #6E3523",
"#  c #603629",
"$  c #6A3528",
"%  c #6E3D2E",
"&  c #703222",
"*  c #793625",
"=  c #723922",
"-  c #7C3925",
";  c #7B3728",
":  c #733B2B",
">  c #7D3D2B",
",  c #71412D",
"<  c #7C412E",
"1  c #7B4331",
"2  c #883523",
"3  c #843A25",
"4  c #8B3D26",
"5  c #823E2B",
"6  c #8B3E29",
"7  c #913E23",
"8  c #993F29",
"9  c #823F30",
"0  c #8A4227",
"q  c #83412C",
"w  c #8C432D",
"e  c #8A482D",
"r  c #934226",
"t  c #9B4526",
"y  c #94442C",
"u  c #9B462C",
"i  c #95482E",
"p  c #9C492D",
"a  c #844432",
"s  c #8C4531",
"d  c #8D4934",
"f  c #8C4A38",
"g  c #934632",
"h  c #9B4631",
"j  c #944B33",
"k  c #9C4C34",
"l  c #944D38",
"z  c #9B4E39",
"x  c #975036",
"c  c #9D5136",
"v  c #94513B",
"b  c #9D523A",
"n  c #A54324",
"m  c #A14B27",
"M  c #A3462C",
"N  c #A9452B",
"B  c #A34A2D",
"V  c #AA4C2D",
"C  c #B14C2E",
"Z  c #AA512F",
"A  c #B1512E",
"S  c #A14732",
"D  c #A34D33",
"F  c #AA4E33",
"G  c #A34E3A",
"H  c #A94E39",
"J  c #B14F34",
"K  c #A45135",
"L  c #AC5335",
"P  c #AE5836",
"I  c #A4533A",
"U  c #AC553A",
"Y  c #A6593D",
"T  c #AD593D",
"R  c #B25435",
"E  c #B95433",
"W  c #B35936",
"Q  c #B95936",
"!  c #B2553B",
"~  c #B9563B",
"^  c #B45A3C",
"/  c #BA5C3D",
"(  c #B5613F",
")  c #BB613F",
"_  c #C05E3E",
"`  c #C1623E",
"'  c #9A5641",
"]  c #9D5841",
"[  c #985948",
"{  c #A55641",
"}  c #AA5741",
"|  c #A45A42",
" . c #AD5B42",
".. c #A35E4A",
"X. c #B45740",
"o. c #B45D42",
"O. c #BA5D42",
"+. c #B45F49",
"@. c #9E6245",
"#. c #AD6146",
"$. c #AE624A",
"%. c #B56144",
"&. c #BC6244",
"*. c #BB6A45",
"=. c #B46349",
"-. c #BC644A",
";. c #B5694C",
":. c #BC6A4B",
">. c #B36A52",
",. c #BD6A52",
"<. c #C15E42",
"1. c #C15F49",
"2. c #C16444",
"3. c #C56A46",
"4. c #C1664A",
"5. c #CA6648",
"6. c #C36A4C",
"7. c #CB6C4B",
"8. c #C4704F",
"9. c #CB734B",
"0. c #C16650",
"q. c #C46D51",
"w. c #C47154",
"e. c #CA7352",
"r. c #C67658",
"t. c #C97058",
/* pixels */
"- H / ! l I a e > L R o.O.q.c T ! O.+.z u 8 +.D o.T * z T %.w.>.w $ ^ K R :.I &.o.-.~ U U U ^ z ~ T ! H S <.F L O.R W r { U I j ",
"~ U G b I H T !  .^ -.U G U ! ! H ! +.H D X.~ U H U z  .| =.=.-.W u &.! Z ) U D %./ L ! R U ! K o.X.G L H R E &.! &.) k S K I I ",
"X.X.y T T O.&.D i o.L ^ O.^ ! X.O.H T ! X. .D D ~ z j I =.b } T / L ^ L J P ! %.^ / R R S ~ ^ ! U ^ ! ! T B &.%.W o.T G I ^ -.&.",
"! ! U &.-.O.O.L X.I T ! O.X.o.-.O.G k ! z F k T &. .I ] o.K %.6.I ! Q 7.~ ~ O.L D L L ~ ^ O.! T &.^ F 2.^ ! ! U &.O.! &.^ W Y O.",
"U H ! ~ ^ O.O.R p H F F ! ! I X.T J O.! ! ! =.o.b T K 0 T ! &.&.e %.&.W ) O.&.^ ^ D P n W ^ O.^ W X.&.O.&.&.U / G ^ ^ L R / &.^ ",
"W D ~ ^ H D G G D L L R ! ~ ^ U ! J o.H L U z T %.&.K k Y k L ^ c f ^ X.&./ I ! X.R E L &.W U L i ^ &.^ ^ O.F ! ^ %.%.^ ~ R O.^ ",
"7 O.R ~ ^ X.X.G G G p F H k ~ H &.! u i T K T D  .o.i L K I K P I , ^ o.o.~ 2.O.^ &.~ D Y %.( T T ^ ^ :.%.Y Z L ! k O.S o.~ ~ T ",
"M ~ ! O.J ! U o.G T ! L L ! ^ ! ~ D p F K G I h b I T W 6.%.:.Y ,.a Y -.O.2.O.X.T U o.d I y D B L ^ %.@.K L o.o.U ^ ! o.T I ! ^ ",
"u L H H ! +.T U z U I X.u U L X.S U ~ T H 6 G I D I #.Y ;.=.;.%.P *.o k S o.&./ :.%.o.I I o.c K o.^ P P D L o.^ &.O.&.^ F X.i r ",
"s D G U o.} X.b z U I T I I I b O.^ X.~ D D T 6.o.T %. .[ o.^ :.2.( T l D I i o.4.o.I T  .^ D K T K L T R &.^ &.L X.I U O.U L k ",
"L z l =.o.{ X.I T H =.T I O.U U X.^ 0.H S X.D -.-.^ I b ] Y L K %.Y T S M H L 1 I I l g z h < - U T #.I -.6.T ! X.X.o.! U G ^ ^ ",
"&.O.g I X.o.I l I T =.X.X.T ! U ! ^ G D R o.F D &.X.T > b b M H =.&.Z  .T  .o.K c I o.b e ^ K T U Y T Y %.o.o.K U T I D D ! U ^ ",
"^ U I G U } $.I T -.I I -.-.o.~ 1.O.H ! F z X.h ^ ! ! T h { ! u ! L ^  .-.I ^ y U T ^ %.k D D P ( %.T ( X.;.o.%.T L K K I ^ ^ U ",
"L ! L w i I U > x %.D T -.~ U 4.6.O.O.M U I } o.o.O.H V T o.z { T X.W W K T %.T &./ !  .x K P Z P ^ #.b I T T } %.i j L L U ^ o.",
"b k w 5 M K z K T o.^ X.^ ! ~ ! 6.4.O.i ~ X.T O.I ! R Q K -.U l X.L U ) R &.P P W W K P b K T I Y W %.T Y Y i Y | p s U U L / I ",
"G O.h a T %.U o.:.Y ;.o.o.=.-.&.~ O.! T K k 2.o.L h J _ O.L ! / I ^ ^ ) ( ` *.W R R L P I q Y  .Y T ^ T I I I ^ %. .^ ^ I k l I ",
"V L ~ L < j &.o.T %.U c e  .-.&.6.^  .O.U X.^ T M K r K L L o.O.L L Y W ) ` ) P / L c P I g q L &.X.o.P T K  .T %.I %.o.k k W ^ ",
"=.^ O.L y & > 6.Y K P U T T  .I T D l L %.L W W W t L Y I ^ W D ! W W ) R A P ^ L P Z L U W q K W W K o.%.Y ^  .q.^ b i  .L ^ #.",
"I L L L ! W e - r 0 e t p K U %.T =.l U j &.^ &.%.D ^ r.| I W ! U I A ~ V R 5.&.W ^ &.^ O./ I a I U U L I i d k q x &./ O.4.&.I ",
"~ ^ -.I L ^ o.K p b x b j e = I -.T b b K z 6.-.^ ^ ^ %.T ^ Q ! U &./ P ^ / Q &.&./ ^ R ! ^ T 1 - 3 6 3 3 F O.~ Q Q L 0 O./ -.o.",
"%.I ^ O.R W ! O.&.T T L P T Z q b -. .$.| b =.:.^ &.B P D &.&.^ U o.O.p U &._ 6.^ &.L m U ^ s ^ L L L ~ R W &.) L ^ W Z H L L c ",
"2.-.^ ! ) O.F ^ %.U L P L &.%.I b o.&.%.:.I i L ^ %.u L &.^ *.2.2.O.I K t ^ 2.L W B ( :.-.T l W 2./ R W W / ~ W P ) K ) K K T %.",
"o.-.&.9.W ^ F ! L ^ / R Z W ` &.c L ! Q w.&.w K T s u T %.%.t W 6.e.L 3.) / ! F ^ p M p T T i L ~ / 2.Q W 2.~ L L K I I K T %.-.",
"K T o.j V L ^ V &.W Z ) W W 3.~ D ^ W W 6.3.c i i R L U T ( &.%.%.&._ T p M q.) ( W K Z T w W &.! ~ R R R ~ &.U U o.W U q o. .o.",
"^ -.=.X.R W G ^ R ^ ^ &.) L / 2.U o.L ! W ^ ^ ^ i U ^ I L K p T O.! &.^ V 4 3 ^ &.L z P T c ! ~ 2.Z ^ W y / %.I &.L %.L K K =.#.",
" .,.=.L O.W R T / P ) &.Q W R W O.U H T R L U ;.G o.,.I k I 6.^ T ^ V p ! R L 3 :.%.U 6.o.j ^ L M & V L k ^ ^ ^ &.-.^ p  .T I T ",
"f  .&./ o.^ ^ L T W Z W A / A ^ T p T ^ ^ %.Y I X.s  .r.Y %.K T ^ L T L R ~ Q S o.o.o.W W c c I $.j P O.-.^ ^ &.;.! D L / H I L ",
"I g I ` 3.~ W F K %.&.) &.L W ) ^ ^ >.o.Y T { T G ,.y U  .p o.T &.Y o.! ` ) / $.6 I I  .;.T a o. .L R L I / W ^ ^ T I u ~ L r I ",
"K T L &.^ ^ ^ T L K ^ W ( ( W :.W V e I ;.;.i j O.} G 6 q.O.^ o.O.4.) <.V R K I &.L X. .^ %.$ %.^ X.! D } &.-.P @.K P ( ^ I ^ ! ",
"%.%.` ^ U ^ U ~ H R O./ ^ V R 9.L c *.#.%.Y K K D z ....' f l v { R J / &.Y ^ I #.T T o.I -.< ( T y ^ -.! #.c &.^ t Z &.^ L O.6.",
"%.^ L &.L ^ ! _ E _ / &.W L m U ) W ( c *.%.%.U D D i  .:.T I < U ! V M I q./ %.L O.^ T Y X.q T L Y L ^ &.o.o.) ) ( K T %.` ~ L ",
"u P I W L ^ &.U B H O./ W K P 0 u R t c ^ W I D F F o.I I L o.| d g G K b K I -.o.T T #.%. .1 P p I L K T %.K A ` ) P I T ` &.W ",
"^  .! &.~ ~ ! S X.J H U { s p C N L L h L ) -.-.^ G y I U h I q.O.{ 5 > I O.g 6 I X.U K I o.c *.:.W c Y ^ ^ L W ) ~ K k p 3.W P ",
"I ! ! ! L S -.J J -.S l l T L L p ^ R N B M 6.:.L X.G o._ Q X.4.6.T S s o. .l U U &.^ ^ G -.*.&.b T / ^ ! o.T W &.W o.4.*.3.R T ",
"I ! ~ E V F R 3.-.o.h X.T o.X.T ^ ^ J ~ r o.O.D ! &.b g H / O.H ! J O.D h U b 2.L O.! L W P :.) T W Z P R M ^ W W T ! 2.I I ^ D ",
"T / O.<.2./ ~ Z O.U F _ &.O.V J ;.! / H i s O.I &. .>.Y 2 I -.X.H H } X.=.{ h T T D h &.%.p Y *.W W K r ^ L X./ ^ T G k H D j  .",
"z X.O./ I G V R R U i ~ X.I / ! ! _ U ! &.L S g s D f } h H h X.G z { ~ } T  .5 p T ^ L P ( D L K W W O.&.W G ^ C / I j U ! p l ",
"h I F ^  .L ~ &.I U W O.o.o.L &.! D ~ W U L ! Q O.! F z } 5 G G U D -.T !  .^ z U K I &.U T P V F W U L H O.R h F R o.T L z w z ",
"@ g M 4 R H V H Q 2.~ <./ i V N U ! U R ^ O.F ~ J U S G D & z G L L F U U &.,.=.#.0 j 1 i K W P p ^ / D Q ! L G L E %.L ! -.I z ",
"z a S Q ! U K N G S X.U E D L ! X.~ L F B i p p R ! T &.N S g ~ ^ L / | O. .%.F I L W ) p c U W R U ( R G V T 2.R A R B F T I T ",
"} k ; O.J D ^ z X.4.O.J J J &.<.O.G Y ( / k K R ! 7.H R / X.5 h P W 7.o.k c K W R R W ^ 4.< ' &.&.^ 3.L X.I &.R 2.4.^ k L ^ ^ c ",
"I U D 6 g o.X.k D R H V J F W C ~ F :.&.%.I %.6./ L X.~ ~ O.L =.i p /  .D S ! R R L W L W :.%.s Y z I I q L L &.I o.^ T L R ^ ^ ",
"! U W F k 5 3 U O.h E D J V N E / R :.^ ^ ^ o.&./ I L R H U ~ 5.I k ! ^ L R ^ R P L L L T ^ %.Y { %.D  .o.D I o.I D I T k R U T ",
"^ T ! / ~ 3 8 L H U } L J C V V P R ^ ! I T K K D T L z U ! ~ _ 2.z D R W n L K &.W L W R T L 6.b 1 I 4.O.D D ^ Y ^ &.^ ^ / I T ",
"I o.p U R * 4 S -.O.X.&.! p K L L ( ) ^ I T ^ ( R i ^ U ! 1.X.E ~ I L P 3.V L ) P %.( ( ^ W U &.=.%.f I I R D ^ T T ^ &.&.%.#.e ",
"%.o.3.K D k w p T G X.^ / L V K 4.D ^ P I T Z &.R K ^ V ! ! ! H R z W K %.3.^ *.( L ` 2.) 3.L T X.Y w K -.T T H W ~ T P %.#.K ^ ",
"%.%.T P ^ Y i % I T ! Q Q H L M K ^ L M 3.%.c x &.%.J H 8 T U X.! T Z Y y L L K L / A A L %.K c U K b U %.-.6.&.O.} F ( ^ i ;.o.",
" .o.T K P L D l o 1 -.L ! R t 7 K L P ( L W ) K I U ~ X.X.! ~ 6 B K K T ^ K / Q ( W &.) w D I ;.^ T I o.6./ &.&./ L o./ &.k < o.",
"T U ^ o.K U L I T e o 2.^ 5.P R T ^ L K &.W L I G  .! X.! X.H U c i W I %.( W &.*.^ ( P L K ^ o.^ U Y %.o.L &.&./ L B ^ P &.o.p ",
"K U ^ W &.^ O.&.I o.O f Q / ^ U X.&.o.U T ^ B w U p k S ! &.4.H W ^ ) L *.2.W ^ U 2.*.L o.L ^ T T &.I %.%.Y U L W k W Z K &.( b ",
"F R / F ! &.o.&.&.4.: y ! T U ^ L U &.I / ^  .O.1.! U i G ~ X.X.^ b Z Z 2.W W / ^ p W ^ L R W o.&.%.K U I X.c K &.;.L w s K L P ",
"~ F W 7.^ ^ 2.&./ I @   F S W U U D p ^ O.O.! X.X.-.! z g g l g ^ s 0 / ) V F L L ( %.^ W Q E W -.^ | T T e Y x > q b &.| ^ L ^ ",
"^ M ~ ~ R O.T X.G T l l S y g p z X.! +.X.O.O.O.! } z } +.X.O.+.I ;.e b K ! p o.O.^ L R V Q T P 3.&.b 1 v 1 v U 2.8.&.7.y U p O.",
"^ 5.<.J H O.! O.k d o.o.z v s S U f 9 > z H H ! O.H U U X.H h U S c y T -.-.~ %.&.K L R C A ` K &.&.I U %.! ^ T ( 8.^ L R R n y ",
"O.O.~ O.! H F b g &.:.&.r ! o.T X.S 1.g S } G h h X.X.~ ! } H ! Y K ^ T 6 I z T T p m ~ Q C L V o.T &.! j T W K W P O.^ R F K  .",
"! X.X.T ^ L o.q O.O.o.o.^ O.X.! H 1.O.} G ' { H G 2 S ! <.O.! S k ^ L *.B S T z ^ &.W Z ` k i p K R ^ W R / &.T *.&.-.U ^ J U k ",
"G F H F U h  .a K %.7.4.o.L &.L h y y 1.O.X.G z H U G B L h p O.L U Y D i K j W G o.! ^ ^ P ^ ) ) L ` &.%.w 6 L e.3.3.z %.&.( I ",
"O.X.4.U ~ K z o.I o.F L ^ O.T r I U ! O.O.O.<.l z O.O.L S U U ! L W U ^ Y Y c K ;.%.h ^ &.%.R A E U R W U w U ! T M &.O.e.^ &.-.",
"O.X.X.H U  .j h T G R X.~ K H 4 s X.! H 4.<.~ 0.9 o.! X.W 6 M D ! -.K T &.r ^ 6.U &.T ! } L ` W T L S ^ I h ! O.J L L L 4.&.o.&.",
"} G H X.+.z o. .=.O.^ ! U ^ / ^ J ~ X.O.~ O.4.O.> U I X.L K L T o.&./ L ! 4.W 6. .L } L &.L R J M J D O.H T } T ! R I T %.! l X.",
"! L X.T o.s U z > M T R ! 2.2.L X.J O.D k D ~ J ! g  .! U D ^ T -.-.W 4.k W / )  .l G R / J ! U / ! O.X.n H X.-.o. .T U  .^ o.G ",
"D X.L ! o.z } o.I O.H ` Z ~ J ! X.N H ~ ^ H ~ U G S a b ! H H ! O.2.~ E ! Q ) R l S o.^ <.E J H J ^ R / F J O.! -. .%.X.X.^ *.O.",
"3.^ ~ -.O.f w.t.G L ! H J R ! H ! ! X.O.~  .I U k U l G b U O.U ! ! ! L L ^ ! &./ ! ^ O.D F O.E F X.O.F <.O.O.&.I :.:./ q.T o.2.",
"&.L H -.-.. : c ( L M ! L O.2.! S F F F U O.T O.X.o.r z z ^ 4.o.2 { W ( W o.B o.a 3.O.^ / R X.X.J ! ! 2 ! M G H U U R R &.I Y %."
};
