/* XPM */
static char *ice[] = {
/* columns rows colors chars-per-pixel */
"64 64 123 2",
"   c #7C94AF",
".  c #7C9AB5",
"X  c #8599B5",
"o  c #849BB9",
"O  c #8A9FBB",
"+  c #8DA2BD",
"@  c #92A5BD",
"#  c #94AABF",
"$  c #98AABF",
"%  c #839DC0",
"&  c #84A2C2",
"*  c #8CA5C4",
"=  c #8FAAC7",
"-  c #86A6CE",
";  c #8BA6C9",
":  c #8EAACD",
">  c #90A7C2",
",  c #94AAC4",
"<  c #99ACC4",
"1  c #93A6C8",
"2  c #94ADCB",
"3  c #9AAECB",
"4  c #9EB1C5",
"5  c #95B0CE",
"6  c #9CB2CD",
"7  c #8CAAD3",
"8  c #93AED2",
"9  c #98AFD3",
"0  c #95B1D3",
"q  c #9CB4D3",
"w  c #9EB8D5",
"e  c #96B5D9",
"r  c #9BB6D9",
"t  c #96B9DF",
"y  c #9DBADB",
"u  c #A0AEC5",
"i  c #A0B2C7",
"p  c #A2B5CC",
"a  c #A9B7CB",
"s  c #A5B9CE",
"d  c #A9BACE",
"f  c #A2B6D3",
"g  c #A4BAD5",
"h  c #AABDD5",
"j  c #A3B7DA",
"k  c #A8B6DA",
"l  c #A4BDDB",
"z  c #A9BEDA",
"x  c #B1BED4",
"c  c #9EBEE1",
"v  c #A3BEE1",
"b  c #AABEE2",
"n  c #A4BFEA",
"m  c #ABBFE9",
"M  c #9FC0DE",
"N  c #ADC1D6",
"B  c #A6C1DD",
"V  c #ACC2DC",
"C  c #B3C2D6",
"Z  c #BBC7D7",
"A  c #BECAD6",
"S  c #B3C5DC",
"D  c #B9C7DB",
"F  c #B6C9DE",
"G  c #BBCADD",
"H  c #9FC0E2",
"J  c #A5C2E3",
"K  c #ACC4E3",
"L  c #AEC8E6",
"P  c #A5C3E9",
"I  c #ABC6E9",
"U  c #A6C8ED",
"Y  c #ADCAEB",
"T  c #B1C6E2",
"R  c #B4CAE4",
"E  c #BACCE4",
"W  c #B2C6EA",
"Q  c #B8C7EB",
"!  c #B4CCEA",
"~  c #BACEE9",
"^  c #BDD1E6",
"/  c #B6D1ED",
"(  c #BCD2EC",
")  c #ABCDF2",
"_  c #B3CEF1",
"`  c #B9CBF3",
"'  c #AFD0F3",
"]  c #ADD3F9",
"[  c #B5D2F3",
"{  c #BBD4F2",
"}  c #BDD9F5",
"|  c #B5D4F9",
" . c #BAD6F8",
".. c #B3D9F9",
"X. c #BDD9FA",
"o. c #C2CEDE",
"O. c #C2D0DF",
"+. c #C9D3DE",
"@. c #C1CFE0",
"#. c #C2D2E4",
"$. c #C9D5E4",
"%. c #CDD9E6",
"&. c #C2D4EB",
"*. c #C8D7EF",
"=. c #C4D9EE",
"-. c #CBDAEC",
";. c #D0D9E6",
":. c #D2DDED",
">. c #C1D6F1",
",. c #C4DAF4",
"<. c #CADDF2",
"1. c #C2DBF9",
"2. c #C9DFF9",
"3. c #D0DFF3",
"4. c #D5E1ED",
"5. c #DBE2EB",
"6. c #CDE1F5",
"7. c #CCE1FA",
"8. c #D4E3F2",
"9. c #DAE5F2",
"0. c #DCE8F6",
"q. c #DDEAF8",
"w. c #E4EDF7",
/* pixels */
"J b Y I ) ) J r I ..t I ! P J y y y U I ) [ _ W P P w I J W !  .J B ) U [ | / ( 6 k > % q S / Y R &.R V 6 , * * 2 / 6.7.7.} H H ",
"n P P I U ) P 0 K [ y Y ! K B e w P [ [ [ _ [ [ ! J e U Y R  .I J y H H  . ./ ~ g g 3 & j ~ R ! V / B w * * & 5 #.q.8.6.,.,...H ",
"c v b I v K I y v [ v K / / J P L /  ...| [ { [ ) c H P W ) Y K H H c y I  .{ K V f * 0 R l V Y g J y 2 4 * = N 6.<.8.,.6.,.{ I ",
"K l l v v b ! K K ! K I / { R / / { } X.| I _ W _ M y K ! _ l R H H y e t J I l B f o g ~ K K T w 0 y 5 6 6 g ^ ( =.{ ^ / ! / / ",
"j v l q K b J I P [ Y / / I / P J { } [ I K I Y { v V K ( ~ z ( 5 w ( B w B y g S z f q E z V o.^ w e B V V L ~ &./ ( R 2 f K K ",
"6 V 6 w z J l K y / L L K I / y B E R J l l I ! [ J W ! ( R z ( & B w B w B N F b s h f E S l G Z C N N ( ^ R Y I W >./ / ! L g ",
"h h 6 T l l q j 5 J L F V / ' K L ^ T g q q 5 j ! J I ~ &.! V R = V , + w S h T E S D F #.G z h N 4 , w ( { R / / / L V V B K B ",
"3 f p T W K l l w B T B N R J B ^ &.V * * 1 5 : z V J ~ >.K b ~ 5 M B 5 = N D A o.G S G C D a f 6 y e l R { ' / Y / R ^ L f g g ",
"f h h K K K ~ K h l V h h h l V -.E w 6 5 q V l y e j ! R z ! b B w 6 5 3 , i 4 F E o.Z Z 3 2 q l [ r J / [ [ L ! R V / ( K g z ",
"z z z K P R j g q q g p h g g -.8.h 5 T V B y q w 0 : 0 ~ z l m ^ B 5 = < $ < h E #.o.Z Z E q 9 c J V !  ./ Y J / / T ! &./ K l ",
"z j j l K T T f f z h h x f S 0.0.F l L L I y y : w : * ~ z h S F E F E s i 6 s C o.Z @.T F E K v l K R / / / Y / F F K f ~ ( W ",
">.W q S W b z g 6 C F x s S :.0.8.( L B R B L J : 0 ; * l #.z a F E F F R N p @ C o.+.o.@.^ ~ &.S R K I / /  .X.{ / R B g V ( &.",
"( V h R K z l z h f T S f G 9.4.8.&.~ L V q w B y B 5 2 5 %., S p G G x > @ < < a +.5.O.#.S @.E E R ~ L R P Y 1.1.( / B q s R { ",
"&.V B ~ B f g l V l E D E %.9.8.&.K T B B h 6 B V y 5 5 , #.G # A h ;.Z u O o 3 i a +.d a Z Z #.D K I K L M M Y X.! L ~ f 6 V ! ",
",.g -.&.F S g z E V W ~ #.*.8.%.T R / L g B B N N =.L &.F 5 G p a h #.G u C <   + . s A S i F #.E L T ~ L B y y J P B T g f 5 V ",
"g h 3.-.&.6 h h E ~ S Q #.>.>.~ ! T L / [ ! L ^ L L R R V ^ 6 p @ + a 5.$.s D p + , = N s Z #.E T V F V V L y y B B T V l f , g ",
"1 f ~ ~ E f p q S Q T S R ~ ~ T T R { } / R / / R R V S F / q 6 < 1 h o.3.s @.D N 4 , g 4 C ^ F L S D y B g r w V K K B V l f , ",
"* g g V B f > 5 S R ` W R V S S V F ~ ! / E l B B E ^ N g w l q q 6 h , z *.x @.o.C p 4 # N S F F G S B F z l w K K R l K l K q ",
"6 6 q 5 6 0 6 q f D z V R W R R L V K z V V p p 6 F D h s S y y g f 3 z 1 x Q x A A $ s 6 F F ^ V T S S S K K J K R z V V V l K ",
"6 l B p 3 3 h z V S V T E ! S V B V z K B S B L g F g B p B w q 8 6 g x h f #.S D C D @ 6 N G N V S T B W _ K R ! z l K l L K f ",
"6 B l h f h g N B T ^ K L L T S z l v v K B B l l h l h 6 5 q q r T V s 6 w S E C p 3 i 4 E V / ! T K P l I I Y J l B K f f B l ",
"g N G h N s f N f V R K L L ~ L V z k b W B l B B h N h R S q K K S g F g h E ! f s 2 p B R V L l l q V P K K I _ V f l g q 6 w ",
"6 D Z h h S N N g h h B T T ! ! ! E R D l W z l l B h l N &.8.~ l K l z ~ B V b z + 1 f F w = V ~ 2 q z R K K K P V 6 V z 6 q f ",
"6 3 d C f S F V B g g p B S S R V l E z g l f q q w B V h S R &.K 0 6 R 0 w * r f o 3 S 6 5 4 { R p q g S W V K R T R S h f 6 6 ",
"i 6 C Z G ^ S S S p p h 6 p g V V B h h z j z z 3 3 q z g N z V B r L Y L g y L 6 2 R h w q B ( g 6 l S E K b l T F #.@.%.S A a ",
"D h s Z G C B N ^ S N N S z B h F B h V l z z j f 3 g K f 3 h 6 5 l {  .B B ~ l V K ! q 6 g S V V g l ( l l l K g f z S T S G G ",
"D D h h N G F G $.G s h x h z F T N V V K g l h k f q f S + 6 g B L y / 8 J { L ( ( l g V N 5 6 3 2 h l r l K z z f f S f S E D ",
"F S C C C Z Z C N C d 6 h C S V F G V R V R l g p l S ! l f 9 T q f e y : / ~ ^ R z T E s < # , 5 g f z l J z S g l f f N S G G ",
"F G ^ C d N 4 5 N s , p C h z S S @.S ( V M / ~ h D E T T ~ l l V J ! ! Y R S V f x x S 3 3 T L R f , 5 f g r T E V @.f l F S T ",
"F E F F N N N s , N d S f g C h h E G %.T B ^ -.S f h h l L z W K z h k z V V z g f o 3 p g z g 6 5 , 5 2 g q V F q #.;.S h D E ",
"E S S V w g 6 4 O.h l g 6 f V V C G G ^ B V ^ ^ E G f 3 b b z l V z S z 3 x z f S G s k f * l h g , 6 , 5 z f f A V s +.$.@.z S ",
"S F V w s 5 5 C 6 G N f w q l S V D %.T B L ~ T l G 5.#.f k T T V 9 T g O @ 1 f g &.@.s > l l h N S g 6 5 q S g h C +.G :.@.E h ",
"S S h V g = 6 h q 2 $.E 0 8 0 l B S &.r B J y $.5.$.#.%.&.r v K ! 8 K K 3 V g ~ E S &.<./ L K l 6 h N f 0 0 ^ G #.A 5.O.+.G =.D ",
"D S S #.l 6 B f ; l V 7 7 e 0 0 w B R B y y y 0 g %.C f / [ Y ! K g 1 K V l ( ! R <.^ ^ ^ R f q p B V V w y S E E S $.&.G E ^ s ",
"E E E R B ^ y 5 0 r 7 - e 7 q q N V K B y M r 5 5 p l B R K V V q g 3 2 f T ! { / { ( N S S s V q l f K V P K K V J K R -.R G S ",
"( ~ S V ~ ^ L y v 0 7 - 8 8 8 q V ^ ! 0 y y v K V V F S J R T h 6 p q z B K ( ( ^ / ~ S N B N V B l l V J L I c I I P L R E E ^ ",
"E E T b ! y ! K ! y 8 7 9 8 : q g V E l J K K ! 8.4.-.%.v z E z h < 6 p 6 h V R R K ! l V R ~ W V l B B L L J q 0 B J M V ^ R R ",
"E K R z l K L / 1.r l 7 9 8 * 3 g l f e r K { R ~ w.4.T b &.R K N 6 < , 2 , q l j S g 2 3 K ! ! ! S V K L L w 2 y L L B B F R V ",
"z S T T g l ~ ( 6.l l 8 q q 5 l l q l 5 r L =.W v 0.8./ ! ~ ( l ! V w g f g V g f 3 3 g z W ! ~ R ~ R R Y L L ! R R L V V V V B ",
"h z T z W R ! ~ / R l j r r q V f 0 w : l W R ( ~ ( 0.[ _ ( K z I B B l F l P R F z z z V ! Q ~ ~ ~ R L L K V w J K L L F B B N ",
"f h B h g S ! R T L K y j K q V w r r 0 ; : 0 e v K { &.{ [ ! V K J B v B J J J B R V B S T ~ &.E ( E W v : 8 b V R g z z 6 p h ",
"i p g S E l V B g T B l K J e V y K 0 2 : - e e T K W / ( / &.W L K P K I J J J ~ K ( B V T Q E ~ E ( g 9 q q l q T z h 6 f s p ",
"p g f V K #.g L T B V l v l l K l B l 5 0 0 J K / ~ ~ #.&.E &.#.L K L K P P B J ! ( ~ R V S ~ ~ E #.S T R V e K K l f F g q h 6 ",
"h f g l h R R ^ R l V g T E v l S y l y r ~ / Y R *.^ E T R ~ ! I ~ R I K J l I / { ~ R K W b ~ E Q #.F B ~ R I l g l h f V F V ",
"l l V h K E E R T T E z S ~ K K V h B R &.! / R B V S } W W { ! ! V K ! ! K J K K >./ ~ ~ K K Q ~ E @.~ ( E R K K l l h 4 , 6 h ",
"g J V T R R f @.R V z K B T E R S ^ ( ^ V V V K / B J X.( ~ ~ { ! R R ! W / B V l ! ! W ( ! W l ~ E @.>.E ( / J j ~ F f h < 6 l ",
"w h F ( T h V S $.#.E E ! R K R ~ ^ ^ ^ S z l ( F w &.1.} E 2.>.R ! W E  ./ B L z K / / ~ { z z z { >.` R W ~ J 0 6 W R h f f f ",
"6 l K p g h F f V =.#.E g W ~ V r l R ^ ( E &.&.S V V >.-.=.2.R S R [ { / V I / V ( T ~ K I q l z ~ ,.>.~ I v q q q q K ~ K f h ",
"B V N 6 C g V h E @.$.~ B g w w V B J y N ^ / F N B V R E 8.-.E C R ! W R V ! K R ! / / T R T z ~ z >.&.( W l q r r r q 6 y B 6 ",
"J 6 C , C s #.^ #.S E T V E R K r j R ~ 6.6./ V R F B S ~ >.E F F h F ! K ! / N R T K R B B T V K ! K ! ( K y P y q 1 * J I f ! ",
"h < D $ 4 D G E G S G #.&.&.L ,.! b z z ( ( ( y l *.^ z >.@.E R S C -./ ~ / / ~ K g z V ( &.( / ! } ! W { >.I r ; , 2 P K w W N ",
", X d # @ G D C h A C h E 9.( ! ! v K T T ~ ( #.w V G #.E S R &.^ ( E T ( ( ! R V ( ! ~ ,.6.7.1./  ./ l K / 8 & 0 q K K 0 y + 6 ",
"@ p z h f G ^ A h A C G %.V J I ! / ! K K K K ( L q 6 T / ( 1.( >.<.>.,._ ,./ ( [ } { / &.<.7.<./ { K l L I q : 0 y 5 w 0 5 = X ",
"r J M B V B w g S S h S ( l r R <.{ 6.y v K R R E F ~ T / R / ( ( ,.,.} { ,.} } 6.{ E ^ ( ( / ~ R Y r 7 Y I v ; * 0 e M q 5 : 0 ",
"B r B g h h g 4 f h S ( R ~ r l ( R &.~ K R ! L K T / ( ( { } ~ R ~ E ! _ { 1.1.<.( F / ( &.&.&.L / w l / / P J l l S F F / L J ",
"0 5 h q N g w h x S V E #.K ! &.~ K ! R ~ z V F ~ S ~ / R T ~ R ! ~ ( { { ~ { { { ( F ~ { &.( R ( L 0 v / Y B l q g 6 B V J M 5 ",
"e w 2 f , l V V T R ( V K 6.<.q.F R B / E N p N S &./ L K W ! / { R ! ~ ( ( { >.{ ( ~ E / >.( ( ! K y J v / L B 6 6 3 V > * O ; ",
"5 y e 1 g w l K V ~ ~ ( ,.&.6.E L E V L L L L ~ E / ( T / K [ / { >.( { ,. .,.,.( ( ! ! / >.~ R V L J J J I J K l p l f 8 9 ; q ",
"y r q v q l ! L K K R ! ~ ~ W R R L h B L I ! V V ~ / T ~ ! / I ! ! W / { } >.( ~ ,.( W ( / E V K Y P ' [ [ U v l k g g K v K c ",
"j j r 0 l Y I Y ' K L L K E R R / T V B L ,.! w q I ~ L l ! W _ Y P P W [ >.6.=.&.=.S S E R z g S Y Y P I J y y l z b b m W I v ",
"J r c ) [ U P I ' Y P K l f J K L R S V Y 1./ ! L I / K B I / P _ L Y ' ! I &.E &.&.^ V T B V f L / ) P P y e 0 q T R j b 9 y v ",
"' ..) P ) ] P I Y Y L r v l K K J J B K !  .Y K K K L F ! L K ) _ K ) [ K I / ~ R &.-.R B w r L J ! K / J y 0 e q S ~ l 9 v m _ ",
"P ~ ) n ) ] K K Y ..c J K r y J J J J I I [ [ L V Y L ^ I K K ! [ J Y ' I L T T R S R V 6 K K Y K R B B ! 5 ; 2 l V S K 8 : W m ",
"m I ) P ) ] I l I ..t P J J J c M J J P !  . .I J K T K P K J  .P J [ [ [  .V E p p 5 q 6 h K ! L / V K l , ; ; 8 V &.{ _ v P n "
};
