/* XPM */
static char *iron_ore[] = {
/* columns rows colors chars-per-pixel */
"64 64 256 2",
"   c #0B0A0C",
".  c #05070A",
"X  c #160D0C",
"o  c #1B110E",
"O  c #141213",
"+  c #1C1413",
"@  c #1A1619",
"#  c #1D1A1B",
"$  c #16161C",
"%  c #0F0E12",
"&  c #280F0D",
"*  c #29130D",
"=  c #39160D",
"-  c #231515",
";  c #2C1A15",
":  c #241C1C",
">  c #2C1D1B",
",  c #271715",
"<  c #331712",
"1  c #331B14",
"2  c #3E1B13",
"3  c #321D1B",
"4  c #3C1B18",
"5  c #29201C",
"6  c #35211E",
"7  c #3C221C",
"8  c #3A271A",
"9  c #291E21",
"0  c #242223",
"q  c #2B2424",
"w  c #2C2B2B",
"e  c #2D2728",
"r  c #342523",
"t  c #3C2623",
"y  c #3A2A26",
"u  c #332B2A",
"i  c #3B2D2B",
"p  c #352826",
"a  c #33312F",
"s  c #3C312E",
"d  c #352E31",
"f  c #353334",
"g  c #3B3534",
"h  c #3A3936",
"j  c #39363A",
"k  c #3D3B3B",
"l  c #35373A",
"z  c #2F2D30",
"x  c #4A1B0E",
"c  c #46190D",
"v  c #561B0B",
"b  c #431C13",
"n  c #491E16",
"m  c #531D11",
"M  c #591E11",
"N  c #56240E",
"B  c #4C2115",
"V  c #44231C",
"C  c #4B241B",
"Z  c #4C291D",
"A  c #472417",
"S  c #542413",
"D  c #5B2A14",
"F  c #52251B",
"G  c #532B1D",
"H  c #5B2C1A",
"J  c #5A2616",
"K  c #5C321E",
"L  c #58341C",
"P  c #4F2B14",
"I  c #63240C",
"U  c #6C260B",
"Y  c #75290E",
"T  c #6C2A13",
"R  c #662B18",
"E  c #762C14",
"W  c #65311A",
"Q  c #6A321B",
"!  c #6A3717",
"~  c #793819",
"^  c #442B25",
"/  c #4B2C23",
"(  c #432D2B",
")  c #482825",
"_  c #522C23",
"`  c #582D26",
"'  c #44322C",
"]  c #4C332C",
"[  c #4A3225",
"{  c #5C3224",
"}  c #54352A",
"|  c #55392C",
" . c #57362A",
".. c #472F31",
"X. c #443533",
"o. c #4D3531",
"O. c #423935",
"+. c #4D3B34",
"@. c #433D3C",
"#. c #4C3C3A",
"$. c #44363B",
"%. c #543432",
"&. c #533B34",
"*. c #5B3C34",
"=. c #523E3B",
"-. c #5A3A39",
";. c #682D23",
":. c #643B23",
">. c #6C3A23",
",. c #633D2B",
"<. c #6B3A2A",
"1. c #663526",
"2. c #733922",
"3. c #773825",
"4. c #6B3D33",
"5. c #643C33",
"6. c #753B30",
"7. c #6A1E08",
"8. c #44413E",
"9. c #4C433E",
"0. c #53423C",
"q. c #5B433B",
"w. c #5B4539",
"e. c #54402F",
"r. c #6A422B",
"t. c #784527",
"y. c #62443C",
"u. c #6C453B",
"i. c #694838",
"p. c #764838",
"a. c #73523E",
"s. c #4C3D42",
"d. c #463940",
"f. c #563B41",
"g. c #3F4042",
"h. c #454342",
"j. c #4A4543",
"k. c #4C4946",
"l. c #4D4C4A",
"z. c #4B454A",
"x. c #524543",
"c. c #5B4441",
"v. c #534A45",
"b. c #5C4B45",
"n. c #54454B",
"m. c #5C464A",
"M. c #524E4B",
"N. c #5B4D49",
"B. c #54514D",
"V. c #5B534D",
"C. c #5E564B",
"Z. c #4E4E50",
"A. c #554C52",
"S. c #555452",
"D. c #5A5653",
"F. c #5C5955",
"G. c #5E5C59",
"H. c #585459",
"J. c #624644",
"K. c #634B44",
"L. c #6B4B43",
"P. c #644D4B",
"I. c #6B4B49",
"U. c #754C46",
"Y. c #62534D",
"T. c #68544A",
"R. c #775548",
"E. c #644C52",
"W. c #615553",
"Q. c #6C5452",
"!. c #625C55",
"~. c #6A5C55",
"^. c #625E5A",
"/. c #6B5D5B",
"(. c #63545B",
"). c #755D5A",
"_. c #755854",
"`. c #5F605E",
"'. c #64615D",
"]. c #6A645D",
"[. c #6E695F",
"{. c #676157",
"}. c #7B655C",
"|. c #76665A",
" X c #6B5C65",
".X c #715E62",
"XX c #666462",
"oX c #696661",
"OX c #6D6A64",
"+X c #6E6C69",
"@X c #726D65",
"#X c #726E6A",
"$X c #7C6D69",
"%X c #7B6865",
"&X c #757167",
"*X c #797265",
"=X c #75716C",
"-X c #7A746D",
";X c #7E796E",
":X c #767571",
">X c #797671",
",X c #7D7973",
"<X c #7C7B78",
"1X c #7B6B76",
"2X c #863817",
"3X c #933C13",
"4X c #832D10",
"5X c #8D3C26",
"6X c #88431C",
"7X c #98461A",
"8X c #A64A1A",
"9X c #A8531E",
"0X c #BC4D18",
"qX c #874626",
"wX c #974926",
"eX c #854833",
"rX c #85553C",
"tX c #985635",
"yX c #98542E",
"uX c #A85227",
"iX c #B35625",
"pX c #A65936",
"aX c #AA5129",
"sX c #B6692D",
"dX c #A96427",
"fX c #C66933",
"gX c #D36621",
"hX c #885A46",
"jX c #86574E",
"kX c #956146",
"lX c #866559",
"zX c #966758",
"xX c #9B725F",
"cX c #A87659",
"vX c #BB6A4B",
"bX c #816767",
"nX c #82786E",
"mX c #827C74",
"MX c #817E79",
"NX c #8B7477",
"BX c #9D7565",
"VX c #A9776A",
"CX c #7F817F",
"ZX c #868176",
"AX c #85817B",
"SX c #8A847C",
"DX c #8A8477",
"FX c #937A83",
"GX c #8B8781",
"HX c #8D8A83",
"JX c #878683",
"KX c #948E85",
"LX c #999389",
"PX c #9E9A90",
"IX c #A29D93",
"UX c #A0988A",
/* pixels */
"AX>XmX$X$XAXj.k oX`.XX'.F.oXXX+X[.F.'.k k.k.G.OXS.CXDX{.+X=XF.h [.&X{.[.OXCX+X+X'.:X:Xh.OX`.XXXX+X+X:Xl.B.'.F.ZXIX=X:XCXAXXX`.AX",
";XDXmX=XMXXX-XB.-XOXG.8.G.OX-XoX=X+XD.S.l l.l S.CXG.&X8.+XOXB.l.F.CXk.+XOXSXCXHXCXCXAX@XAXOXF.B.:XCX<XXX].B.ZX=XXX<X<XHXXXOX#XXX",
"OXoXOX^.=XDXKX,X-XF.OXoXh.'.G.OX[.+X>XOX`.a a +XF.F.>XXXk 8.@X@X[.C.k.h +X&X'.CX+XAX=XOXZX@X=X+X<X<XXX=X=X[.XXZ.:X<X=X,X:X+X=X#X",
"LXSX=X#XoXmXmXoX+X-X+XmX{.'.AXF.k.G.B.oXCX8.l.&X[.F.&XCX9.G.G.@XCX!.F.h w B.Z.G.=X`.F.&X&X>X=XF.XX=XXXG.&X'.D.OXXX+Xh.`.F.XX,X@X",
"$X>XAX+X-X'.oX=XOX`.@X>XOXOX=Xh {.S.l.l.S.@X'.B.`.'.l.`.[.B.F.F.{.ZXC.l.j.8.'.OX'.SXD.l.G.OX=X-XZ. X'.'.{.+X=XOX=XF.`.[.mX,X=X<X",
"D.F.'.].F.{.l.'.B.].'.'.F.k a C.C.B.8.k.B.'.j.j.+X=X[.F.G.[.@X'.=X].;X*XD.#X'.`.#X].&X[.G.G.OX+XOXG.+XSXF.>XXXXX-X;XoX^.M.XX+X[.",
"AX*Xl.D.>X^.!.{.ZX{.F.>X'.B.F.&X{.{.^.'.,XZX&X!.G.OX].&X[.{.&X[.^.OXCX{.a G.+X+X[.k.l.oX&X=X'.=X`.F.D.>X;X'.XXoX+X;X;X-X].OXHXHX",
"PXmXOXD.XXoX@X{.B.D.a l.'.`.].{.S.[.&X[.C.F.OX'.+X].OXoXOX{.[.:X&X'.].F.[.F.F.D.G.`.D.OXG.[.j.oX,X+XG.F.ZX,XZX[.B.OXAX=XF.`.XXAX",
"SXZX,XG.M.^.OXD.`.S.F.XXOXG.B.[.D.D.M.l.oX-XB.M.F.,X].].F.B.k.D.{.l.F.k.j.F.].&XS.j.S.F.D.XXk k j.F.>XJX+XXX+XAX-X=X,XAXAX:X:XCX",
"'.XXk.D.F.F.G.S.XX,XF.OXD.g.F.9.N.b.0.u g.k.^.F.C.@X-XSX@X{.k.M.j.g.l.{.V.B.^.S.S.l.g.k.^.D.l.w F.+XAXAXG.F.oXOX+X'.`.+XXXOX:X'.",
"@Xk.].'.^.+Xh.G.>X,XZ.8.8.g s ' =.(.O . j n.F.G.D.OXG.OX].oX#XOXF.j.B.-XD.k.D.@X[.'.XXl.D.^.!.l.8.F.k.#XOXOXl.k.+X:X=XOXOXXX`.XX",
"k.'.>X-X-X#X=XXX&XZX{.B.F.C.F.b.%XW.. - ) q + h B.G.=XXXD.F.l.M.D.&X{.{.'.D.M.G.l.k.B.D.oXV.^.^.!.F.'.oXF.F.!.k.@.B.D.`.+XS.G.l.",
"+XF.&X].D.G.#XB.s 8.{.{.{.&X].-X~.X.3 ! I I = * y 0 8.S.l.z.h.oXg.h.S.@XM.z.F.^.B.C.C.D.,X-Xh z.h Z.Z.l.W.D.^.D.j.'.oXG.F.'.&X'.",
"B.k.@XB.F.h 0 f 8.B.'.].B.v.k.8.O.[ / } S C M 2 Z Z +.9.O.i @.X.F.h.+.Q.N.s %XnXF.8.O.#.%XM.h.j l k j j D.s.x.j.j.B.'.=X<X>XXX&X",
"AX=XAX=XF.B.'.,X&X{.Y.].;X!.V.{.9.+.n.r.6 q C ~ 1 C H F U.E. Xm.k.# f _.kX5.NX/.a 5 w.W.P.q # w f h.A.d.oX$.u g k.v.].oXZ.:X=XDX",
"=XmX=XoX].-XSXmX{.C.!.C.R.9.y.|.V.k.M.+.i N.m.= O p.pXaXvXzXz.(.i q H.U.X.u.bXO.5 w.U.i.zXJ.L.#.$.j.S.l.M.u i x.M.^.#X+XF.G.+XoX",
"l.OXAXOX+X,X]./.8.' {.O.G h s g 0.b.M.+.i. Xy.T b p.hXpXjX4.R.U.4...{ 6.rXlX@.  O # x.i &.Q.).q.0.M.Z.XXM.N.%XF.^.OX].=X].S.F.l.",
"^.l.S.H.D.oX@X@Xg ' V t 2 5 X.8 ] |.V.+.W.NXqX~ %.s.6.Q.hXu.oXeXzXp.6.%.3 m.> q O 5 @.@.c.j.#.g P.x.Z.l.k l.'.G.S.OX:XZX=XF.8.].",
"#XXXG.D.oXD.D.Q.C.V.8 W ~ ~ ! S ; *.w.r.U.BX7 1.H } p.m.J.%.J.) ,.u._ q % - > O 0 # 6 v.M.N.g u c.v.j.e 0 l.S.D.XX:X<XoXOX<X>X&X",
"'.OX=XOX=X{.@.+.9.i.qXpXp.k.3 Q 3 : A T pXqXn { Z wXQ , 3 f.3 ;.> : * 9 0 Z.f @ k f } q.9.M.}.lXVX).c.j.S.Z.G.S.H.#XB.B.:XXXOX].",
"KXCXOXoX@XOXM.].F.Z t.rXc.w q R M Y ! d (.3X3X/ ] 5.r.o p d.# c Z 5 8 3 @ : g w j q [ q.q 9.M.%X}.-XV.# 8.k.M.l.Z.l.'.F.h.S.:XG.",
"-XXX].>XoXB.h.h V.f i | C b n.| qX9X9X>.zXfXiX) 4 uX` V ^ L t.t.p ; S L [ ) ~ > p 1 i h g @.k ].).}./.j 9.D.G.XXD.F.;X>X+X=XOX:X",
"<X;X=X+Xl.F.^.@.d.h.o.} =._ ^ C *.eXp.9XuXgXjXf.%.3.m.m b ! p.' o y &.:.t.U.q.y : @ w @ u v.v.{.}._.W.k.G.=X^.S.`.^.+X^.^.'.'.XX",
"'.'.G.D.B.XXj.w z.NX(.(./.x.,.qXq.u E.VXvXiXwXM E 2   B W ~ ;.= 1.Q.x.' T.K.v.w.# O.8.w ' e.s k.!.oXC.k.'.#X>X=X&XOXXXXXG.h.F.>X",
"+XoX+X=X^.@X[.O.[.lXd.1XH.-.&.) X.c ( %X9 _ t.b , n N 8XqXp._ 2X<.@.e f s v.w.g h C.C.F.C.C.8.V.F.'.^.B.{.+X'.B.8.a D.`.k.^.`.&X",
"OX=X;XOX].B.K.I.0.#.0 l i _ & d ) 8XD )   Q -.@ + E N 7 t } %.i.K.q.9.+.v.9.g B.k l.k.{.C.B.9.8.0 8.{.[.CXk.k.F.F.*XC.l.`.&X'.:X",
"].@X|.=X'.l.v.F.M.j.$ $.hXi._ ;.0X9X8XQ J.U.%X; < + @ 4.%.P.X.#.W.v.#.Y.O.h j.8.8.k.l.F.].l.^.^.].k.9.B.k 8.F.{.-X[.[.&Xl.S.#X#X",
"G.OXF.bX~.@X{.].>X(.z.P.~ G 6Xp.p.H 8X5XhXaX<.n ) ^ 4 eXf.=.j.*.9.l.!.8.C.l.F.].F.{.XXF.B.B.l.'.[.[.[.CXCXCXCX[.>XCXG.C.l.l.F.`.",
"h.k.8.a F.h 0.y =.m.=XC.] u.t.i ' ^ c.<.f.2.E 3X;.R qXt.3.` C i.[.].F.[.[.!.B.B.&XOX=XF.8.B.B.B.+XHXS.=X=XCXCXCXCX@X[.^.*XC.F.S.",
"D.B.CX&XS.S.B.e / ^ o.U.B.k @.' ! H 0 X 1 *.+ < H T H t.wXE n.(.=XV.].].B.F.C.l.B.S.=Xh {.[.F.'.[.G.`.[.'.g.8.F.[.'.&XDX@X[.B.F.",
"k.k F.+X8.k.8.k j D.V.).s ^ ~.tX7X& 3 = &.T.i $.m 4 # %.U.E / i k.0.B.B.0.+.S.F.`.`.9.C.{.F.*Xh.8.9.S.k.8.S.OX+XF.'.OX^.&X-XF.{.",
"'.'.8.'.@XB.8.F.@.k.h h q.] | >.;.0 U >.P.1.eXE wX^ B -.5X7XY 7.x Q P ! _ +.q.b.OX'.9.*XB.[.F.F.k.F.a 0 8.F.F.F.B.B.k.&X+X+X'.`.",
"[.@X;XOX@XLXKX{.@X{.'.M.C.i.S.6 M @ T BXL.3X2X3X6.u 2.E fXpX~ uXqX3X3XN 4 q r.L.#.v.a.P.K.e.b.j.w.a.!.].B.G.].'.F.D.M.l.+XOXoXk.",
",XmX&XOX].-X-X=X].OX@X!.D.qXi.- , 9 2X8Xx ) y * 3 - e R sXW H ! _ K.U.N = < :.' j.$.) Z ` i 6 2.~ e.~.$Xv.M.^.].{.'.].[.].'.j.B.",
"@X#X=X,X].D.@XMXXX=XOX@XM.K yXT J.#.t.{ H ~ ;.S v T 5XqXeX>.$.d.1 9 i 3 > t 1.D ^ r , x C 1 C 2XqXT K._.K.X.5 z.F.*XmX=X=XAX-X'.",
"D.=X-X>X-XZX[.M.D.^.B.w.b.bXQ.8X;.5XhXw.t.sXiXiXeXR.2XK G ;.E.<.c & 4 # > #.$.b ( ( C E J F 2Xa.r.R &.J.*.'   > a #.~.-X].<XMXoX",
"^.!.oX$X@XOXmX,XoX:XD.j.B.9.F.[.[.|.*.4.U.3./.L.s.%.` t.C  XFX` 4XT S 7 ( 4 i 3 ) &.;.T 3X7X6.t = D { m.y q X X.e M.M.^.oX'.D.].",
"mX[.F.>XDXSXGXGX].=X:XOXXXV.{.*X[.].v.R T -.d   - e 3.~ m.;.jX) n V R Q .XE.) } eXtXE T S I U.3 Y c n n.' s 0 > #.M.l.F.^.B.Z.XX",
"&XCX>XOXHXMX>XKXGX@XXX^.`.&XG.j.V.D.j.] X.Z ; - t n.! 2.<.6.3.F 9 ( $ *.bX%.R J 5X2X7.b 1 b  .V = v v _ q u 9._ ) j.F.].F.B.F.].",
"XXOX'.`.OX>XOXoX=X<XXXOX].F.S.8.M.F.v.s.0.p o I 2X_ :.t.r u / + X e 9 2.5X5XT U.1.u.;.2XN / ).i * v R I.] 5.+.&.0.B.B.l.F.B.OX+X",
"@XOX'.<X>X=XOX>XXX`.:X'.XXXX{.v.0.0.C.B.n.o ! >.] qXt o X # + . o , m 0XaXqXp.q.d.@.8 N I 4.M.@ < x m #.9.O.j.M.B.'.C.'.-X+XZXOX",
"D.Z.'.>XOXD.@XXX-XD.=X<XoXF.{.Y.b.+.p.y.b.- L yX0.L.; X X &.8 2 Z ; 2XfXdXsX8X< e : t.7X3.-.u < v n M ..9.h 9.l.XX&XMX=X+X+XZ.S.",
"`.>XB.XX@XHXAX^.OX+Xa Z.^.].l.].j.#.| ' w = 6X~ C y.L - . , 2.w.).m.aXiXrXhXK C r 7 uX8Xv s.] 7.7.n ~ o.u j.k.v.G.V.z f +XJX`.F.",
"-X;X:X&XXX>X<X&XD.F.OX{.G.k w 0 a 5.s ' [ | e.a k.6 r.%   > t.! t ..[  .+.@ @ y c.; 3Xu.m 1 f.c b #.8X2.( @.D.].XXoX=X+XG.D.XXOX",
"F.+XXXXX>XOX:XGX,X-XAX<XD.B.l.B.~.rXD.^.*X*X[.9.B.M.'   . 5 | qX) E.$ 7 n.$ X.o.lXd 6 [ o q Y.J.J.X.yX{ g N.#X'.=XAXZXoXD.F.OX=X",
"OX&XOX<XS.k.:XHXLXCX<X>X+X,XSX[.[.{.].].{.].[.8.B.M.8.O @ s [ | ) %.` _ %.: + n - . . . o / _..XP.J.p.=.B.D.F.XX+XB.XX<X+XXX+XOX",
"F.>X:X+X=XOXXX+XXXXXXXF.'.AXmX;X].@XB.'.;X,X[.V.@X].!.*.C A P w.m ;.T & & c 2 = * * =   1 yX_.@X].v.#.D.>X-XoX'.=X'.g.l.+X^.l.oX",
"#X^.B.D.XXF.`.S.h.&XOX+XS.D.oX,X$X^.oXB.`.].'.].M.v.l p 7 , [ a E.s.` x V F < , B v x 3 / R.M.B.G.B.B.l.^.D.s s h.l.=X'.`.'.=X>X",
"[.&XoX`.^.+Xh.B.`.AXF.l.S.8.8.F.F.@X&XXX'.F.F.!.l.C.z V 1 X 8.w s t ~ ) #.m.j.0.E.( V ^ +.{.=X,X@X@X~.D.r ; 4 v.B.@XG.B.XX<X+X{.",
"k.g.8.AX:X=X=X=Xk.z +X^.&X&XZXnXZX,XoX].=X+X~.v.f 8.p # 8 8.w 5 7 S R ; m.H.y.0.~.b.T.-XY.B.F.'.~.k.9.# 9 #.I.-XD.G.=X+X=X#XXXS.",
"F.8.8.B.D.`.=Xk.l.^.'.&X&X,X>X[.oXXX;X;XoX].[.{.C.q.0.V.w.h C.:.E W D v .X).] xX}.Y.F.!.@XV.B.q.,.1 d $ = n L.;XnX#X'.M.Z.G.XX$X",
"'.`.`.k D.k 0 h D.=X=X-XG.B.l.].C.j.D.B.j.v.| ( w.i.I.q.' y :.:.6.8 6 4 bXxXxXb.8.N.^.G.G.T.s  .~ c n X.^  .9.D.].:XAX-XZ.XXOX`.",
"'.OXOXOXG.B.OXGXDXZX@XnXZX[.!.v.C.g #.y qXF ..5., ~ R.lXX.P ! ! I B | eX_.U.cX*XM.j.h.h.[.}.e H 2X2 ) j.g n.].D.,XAX>XOX].F.].+X",
"'.^.ZX&X[.,XLXKXMX&X@X,X-X{.k.r.rXG P ~ T ] ] } 1 T i.| 1 P 8 ~ Q U R wXp.0.lXlX~.F.G.8.8.L.o r.t.5 g =.-.^.G.G.G.F.l.B.^.CX=X'.",
"OXF.`.F.OX<X-XoXF.'.'.F.F.N.j.[ | ; 4 W %.$.x B y : 7X6XqX! :.e.eX>.3.p.zXR.y.~.T.[.B.F.T.w.5 { &.H.M.#.T.D.'.XXZ.D.oXMX,XF.'.=X",
">X@XoXCX&X-XSX>XoX{.D.V.B.q y  .Z p d v.^ V A D 2 - _ [ w.t.dXkXyX1.y.W.[.zXcX{.&X;X@X&X~.b.r.2.v.8.j.g h.M.l.'.G.'.XX=XAX>X,XOX",
"+XOX+X,XZX:X;X*X=XOX=X=Xk h k.Y.b.C.B.v.0.T.w.| ] #.@.w L a.sXfXeXW t.N.v.~.F.'.CX,XnX@X$XW.rX_.!.B.B.+XOX<X'.D.+X{.G.S.OXHXFXCX",
"D.`.XXXX+X`.XXCX'.S.l.G.k l.F.k.B.!.M.F.0.v.B.~.*X|.@XM.q.hX!.v.{.{.K.w.v.l.OXG.OXOX'.oX{.].V.^.j.l.[.<X,X<X<XAX:XZX>XOXXXJX:X=X",
"+XD.=XAX:X^.D.G.oX`.D.D.OXG.M.k.B.l.k.j.].{.F.{.'.#XOX{.8.F.G.XX*X@X*XV.h g.e 8.l.Z.OXXX&XoXl.l l.@Xf w k.S.-XG.=XOXOX#X:X:XJX<X",
"S.H.D.D.F.XXS.B.D.D.G.l.^.F.OXOX[.].l.,XSX&X,X&XD.F.F.ZX;X-X'.OX=X@XOX-X].].F.h h k h k =XS.oX@.w g.G.`.G.F.z.'.XX+XXX:X:XG.S.H.",
"+XB.z.z.'.G.XXh w k B.F.F.G.'.G.XXOXHX&XmXPX=X#XG.OX-X-X[.&X'.F.F.{.oX@X=XAX&XZ.B.Z.B.B.D.<X=XOX'.OX+XoX+XXXSX-X+X:XOXG.Z.G.`.G.",
"'.F.&X,X+X].`.>X:X'.l.^.oXF.j.G.-X`.-X=X&X>XOX<X@XF.Z.D.+X;XB.B.'.@X].].>X>X-X>X<X>XF.F.OXM.Z.^.XX-XAX>X`.S.D.G.#X+XH.G.G.G.+XG.",
"-X[.PXDX>X&X+X>X,X`.`.'.B.<XB.B.-X&X'.OX+X<XHXPXLX^.oXl.8.j.V.oX-X*XmX@X'.+X,X+XXXG.g.H.XXS.l.XXMXG.G.OXG.S.^.S.k `.XXG.XX+XXXG.",
"SX;XMXOX].F.>XG.B.S.JXZX@X&X,Xl.D.F.B.'.OXoXOXSX<XKXmX{.l.k.+XV.DX[.D.F.'.,XAXJXF.S.z.f OX^.XX+XOXXXl.G. XOXS.S.@XXXXXS.CXHX+XMX"
};
