/* XPM */
static char *lapis_ore[] = {
/* columns rows colors chars-per-pixel */
"64 64 256 2",
"   c #14141C",
".  c #0E0F1B",
"X  c #0D0F24",
"o  c #0D1022",
"O  c #131423",
"+  c #161824",
"@  c #1B1B23",
"#  c #13162C",
"$  c #1A1C2B",
"%  c #161A2D",
"&  c #161A34",
"*  c #1B1D35",
"=  c #151A3C",
"-  c #1B1E3C",
";  c #121536",
":  c #0D1137",
">  c #201F2F",
",  c #1E202C",
"<  c #1F2025",
"1  c #1E2134",
"2  c #1E213A",
"3  c #232327",
"4  c #23242B",
"5  c #2A2B2D",
"6  c #27282D",
"7  c #302E2C",
"8  c #31302F",
"9  c #232533",
"0  c #262934",
"q  c #2C2C33",
"w  c #22253B",
"e  c #262A3B",
"r  c #2A2C3C",
"t  c #282731",
"y  c #2E313B",
"u  c #2E3137",
"i  c #333334",
"p  c #3B3936",
"a  c #33343C",
"s  c #37383E",
"d  c #3C3B3C",
"f  c #393738",
"g  c #403F3C",
"h  c #42403E",
"j  c #151B45",
"k  c #1A1E42",
"l  c #1A1C4A",
"z  c #141A4C",
"x  c #0D1451",
"c  c #191F51",
"v  c #131C5B",
"b  c #1D2244",
"n  c #1C224C",
"m  c #162157",
"M  c #1C2355",
"N  c #1B235B",
"B  c #222544",
"V  c #242944",
"C  c #2A2C44",
"Z  c #21254B",
"A  c #242A4C",
"S  c #2A2D4A",
"D  c #2D3143",
"F  c #2D324A",
"G  c #333444",
"H  c #363A46",
"J  c #3C3C44",
"K  c #32354C",
"L  c #36394C",
"P  c #3C3D4B",
"I  c #383742",
"U  c #232651",
"Y  c #252B53",
"T  c #242B5C",
"R  c #2A2D5C",
"E  c #262B54",
"W  c #2D3154",
"Q  c #2C335D",
"!  c #27315A",
"~  c #313553",
"^  c #343953",
"/  c #3B3D52",
"(  c #31345C",
")  c #343A5B",
"_  c #3B3D5B",
"`  c #161C63",
"'  c #0D1775",
"]  c #1D2364",
"[  c #1C276B",
"{  c #1B2473",
"}  c #232B64",
"|  c #232C6A",
" . c #263163",
".. c #2C3462",
"X. c #2E3964",
"o. c #24326C",
"O. c #2A336C",
"+. c #303562",
"@. c #343C64",
"#. c #333B6C",
"$. c #3A3E67",
"%. c #252C72",
"&. c #252E74",
"*. c #2B3574",
"=. c #2C3974",
"-. c #25327B",
";. c #2D3D7D",
":. c #2B3479",
">. c #343D74",
",. c #333D7D",
"<. c #353773",
"1. c #413F43",
"2. c #403F4A",
"3. c #3E424C",
"4. c #3D4146",
"5. c #3E4253",
"6. c #3D425B",
"7. c #3C4264",
"8. c #3B426A",
"9. c #394569",
"0. c #394275",
"q. c #3B4D75",
"w. c #35427D",
"e. c #3B457A",
"r. c #364377",
"t. c #254578",
"y. c #444343",
"u. c #494645",
"i. c #4B4945",
"p. c #43444B",
"a. c #48474A",
"s. c #44494D",
"d. c #4C4B4C",
"f. c #464847",
"g. c #514E4B",
"h. c #504C47",
"j. c #53514E",
"k. c #59544E",
"l. c #434452",
"z. c #454954",
"x. c #4C4C53",
"c. c #42455B",
"v. c #44485B",
"b. c #4C4D5A",
"n. c #504E52",
"m. c #4F5052",
"M. c #4E515D",
"N. c #555453",
"B. c #595653",
"V. c #5C5955",
"C. c #53535A",
"Z. c #58575B",
"A. c #56585A",
"S. c #5D5B5A",
"D. c #4D514D",
"F. c #625D56",
"G. c #615E5B",
"H. c #5E605E",
"J. c #5F6057",
"K. c #64625D",
"L. c #69655D",
"P. c #6D695F",
"I. c #676257",
"U. c #71695F",
"Y. c #404462",
"T. c #454A63",
"R. c #4A4D63",
"E. c #4A4E69",
"W. c #43496B",
"Q. c #4D536A",
"!. c #4D5464",
"~. c #545561",
"^. c #565A63",
"/. c #5B5B62",
"(. c #5B5D6A",
"). c #55576B",
"_. c #444C7B",
"`. c #464B74",
"'. c #4C5375",
"]. c #4B5579",
"[. c #525676",
"{. c #585C77",
"}. c #615F63",
"|. c #5F6164",
" X c #5D616B",
".X c #576466",
"XX c #5C6475",
"oX c #656362",
"OX c #696662",
"+X c #6C6965",
"@X c #64646A",
"#X c #69666B",
"$X c #6D6C6A",
"%X c #716D66",
"&X c #716E6A",
"*X c #6E756B",
"=X c #757167",
"-X c #74726C",
";X c #7A756D",
":X c #7D796F",
">X c #787164",
",X c #646473",
"<X c #6D6C72",
"1X c #676B78",
"2X c #757472",
"3X c #797671",
"4X c #7D7974",
"5X c #7D7B79",
"6X c #757379",
"7X c #6D767A",
"8X c #817B6F",
"9X c #827C74",
"0X c #817E7A",
"qX c #6F817F",
"wX c #7C827A",
"eX c #858176",
"rX c #85817B",
"tX c #8A857C",
"yX c #8A8376",
"uX c #1A2981",
"iX c #1A2E94",
"pX c #253283",
"aX c #2D3B81",
"sX c #313F86",
"dX c #2B3992",
"fX c #263FB1",
"gX c #384587",
"hX c #3A4B95",
"jX c #3A459C",
"kX c #36459A",
"lX c #3E5091",
"zX c #2D4393",
"xX c #344DAF",
"cX c #424D82",
"vX c #414781",
"bX c #495585",
"nX c #495795",
"mX c #51578E",
"MX c #62688B",
"NX c #7F7D82",
"BX c #656C9A",
"VX c #6F7696",
"CX c #424DA7",
"ZX c #4354A5",
"AX c #5666AE",
"SX c #6F77A4",
"DX c #7881A9",
"FX c #868481",
"GX c #8A8682",
"HX c #8D8A83",
"JX c #938D84",
"KX c #979288",
"LX c #9A9A95",
"PX c #809096",
"IX c #A19D92",
"UX c #A0988A",
/* pixels */
"rX3X9X=X>X0Xh.g }.G.}.G.F.OXOX%XL.V.L.d y.u.S.$Xj.5XtXL.+X-XB.p L.=XK.L.+X0X&X$XoX3X2Xy.+XG.oX@X$X$X3Xx.k.K.F.9XIX;X5XwXrXoXH.rX",
":XyX8X3X0XOX;Xj.;X%XG.1.S.+X-XOX&X-XV.k.p i.i j.4XL.-Xy.-X+Xj.h.F.4Xi.-X%XGX0XGX0X0XFX$XrX+XB.j.3X0X5XoXI.j.eX&X#X5X4XHXoX$X%XK.",
"%XOX%XG.-X0XJX8X;XF.+X+Xy.L.G.OX+X$X;X+XoXp i +XB.F.:XoXh h +X%XP.V.h.i -X%XoXNX$XrX-X+X9X%X%X%X5X4XOX-X-XP.L.j.-X4X*X3X3X+X-X&X",
"KXtX&X&X+X8X9XOX%X3X%X8XL.OX0XF.u.V.N.OX4Xh D.*X+XV.-X9Xh S.S.=X9XI.V.p 6 j.j.S.-XK.V.=X;X:X=XV.oX-XoXS.-XI.N.oX#X+Xy.K.S.K.9X%X",
"%X8XGX+X3XG.OX-X+XK.&X4X%X%X-Xd I.V.g.g.N.&XG.g.S.K.i.K.I.h.k.B.I.9Xk.h.y.h K.+XK.yXB.h.F.OX%X4Xd.K.K.K.I.$X-X+X-XB.K.L.9X5X;X4X",
"B.B.G.L.F.F.g.G.B.+XOXOXB.J 7 F.F.k.i.f.k.OXi.u.+X-XP.B.V.L.P.I.%XI.8X;XV.=XK.K.&XK.+XoXZ.G.OXOXOXS.$XtXB.;X#XL.;X:XP.K.i.oX&XOX",
"0X;Xg.B.4XF.F.L.tXL.S.&XV.d.n.OXG.I.I.+X4XeX%XF.V.+XI.P.K.F.P.I.S.+XwXI.7 S.+X#XI.f.u.}.%XOXB.OXS.B.N.;X:XK.+X+X&X;X3X-XK.+XHXHX",
"UX9X+XB.G.%X%XL.B.Z.i u.x.N./.n.d.I.&X+XV.F.%X}.+XS.|.S.S.k.S.%X+XI.I.V.U.I.N.N.N.N.a.C.a.B.I G.$XK.N.N.9X4X5XL.j.$XtX=XF.K.oXrX",
"GX9X8XF.d.F.$XF.}.N.B.C.g.y.d./.x.n.a.N.OX:Xg.g.j.<X).}.g.a.y.g.V.i.B.h.i.V.L.$Xd.J a.a.2.p.D u d a.$X5X+XK.%XeX;X-X3XtXwX$X2XwX",
"L.OXu.F.F.F.G.B.}.&XN.N.J t 2.J R.P y.g./.Z.}./.C.}./.1X,Xb.p.p.h d j.I.V.B.G.N.l.p.L P l./ _ w a.C.<X$XN.B.+X&X%XK.H.&X$X$X2XK.",
"+Xu.G.}.G.$X1.}.&X,Xp.G I B * V C r I s.2.l.).[.(.{.2.E.c.b.C.,Xx.2.j.;XF.d.N.#X/.l./ _ P 2.K / K l.a C.H.#Xi.a.$X3X-X#X$XK.oX+X",
"d.G.8X;X3X2X2X+X&X6XC.d.Z.2.^ ) c.S W 3./ P Y.`.'.E.bX2.G P G 3.P C.B.G.K.N.1.a.f I F / 7.R.( [.R.T.J l.N.S.K.N.h j.V.K.$XN.S.f.",
"%XB.=X+XG.}.-XB.g 2.R.2.C.C.[._ C E | e.$.+.<.<.sX%.%.S V V F 6.W C N.#XN.j.u.d 1.y./ 2.c.$.<...G Y.L L b.K.%XI.i.K.+XS.B.I.-XL.",
"k.i.%XB.G.1.t d d.F.}.x.2.c.R.E Z * m :.| <.aX..S 2.$.) F ..w B A D J |.A.d.S.R.$.l.Y.P P W ) k K K G G b.N.JX-X%XK.K.-X4X:XOX%X",
"0X;X0X-XF.n.}.0X6X#X}.#X{.2._ O.T T v z v T } K Q.S W $.n j n = k O 5.T.v.s.V.y.S 8.$.i > 0 P ~ / $.p.f K.S.+X3X3XV.$XOXj.2X-XyX",
"-X9X>X+XOX6XGXNX6X#XG.}.).2.{.7.>.r.m b M M E <.2.W  .~ gX{ v 1 @ P E.9.@.K L 4.s ~ :.L C + C ( ) _ d.B.S.oXS.4X&X-X4X$XV.S.+XOX",
"d.OXtXOX&X0X<X}./.@X}.a./ r _ ) xXiXo.! ! ~ VXr.N W ) O N [ x A 6.6.9.[.=.! Y 1 0 r y D 9.n w S 8.R.a.&XS.-X3XrX5XwX+X-XL.j.S.h.",
"F.d.N.C.B.%X0XNX1X(.p.J l.$.j _.zXuX&.>.^ Q BX].N S b b ; : x 0 ~ ) ) nXo. XX.q.T.G b M M L 9 i G L l.oXN.oX-X2XN.;X3XrX=XS.h K.",
"&XOXG.B.OXF.OX}.<XS.n.n.p.`.! %.=.pX[ aX>.Z >.l.VXw :.nXX.x N i n ! ! { Q nX%.b 1 , V Z w b J.3.$ ^ l.C.OX4X-X+XOX3X5X+X+X4X:X>X",
"OXOX&X%X;XL.j.B.n.C.P 1.bXcXgXW #.lXAXhXZX,.xX$.{.( ` >.^ / z O.H Y n o q.} 9 0 b n =.hX7.N !.4.[.c.L N.oXoXoXj.V.$Xj.j.;X#X+XL.",
"JX0XOXOX=X$XB.6X|.l.J / lXr.bXgX-.gXjXgXgXO.uX` X k } l 9.O.| iXlXm   @ m *.z.b o.-.>._.].+.c.x.d.a.P G J d.V.d.D.h.I.S.4.j.;XS.",
"3XOXOX4XOXB.n.x.S.l./ ^ 0.Y w.xXgXgXdX#.]  .] c ; { <.$.[.kX;.%.m =.[ K ! x O 6 b # n kXhXaXl c./ J a / p.N.oXoXN.V.;X3X*X-X+X2X",
"4X4X&X&Xd./.<X}.+XA.G L 0.nXgXgXbXDXe.pX] uXR 9.- ] ` F ~ pX..B = l ] j n xXo.m.~ = k r.,.#.C <.~ ^.C J (.-XS.N.K.K.&XH.S.L.K.L.",
"K.G.G.B.n.OXa.s p.l.v.`.cXhXw.O.mXXXBX+.( N M & T ) ) T.# l r r 6.k m  .= t.% 5 Q.n l b ..w Z R +.9 0 K N./.$X-X-X+XK.oXS.f.B.;X",
"%XOX+X-XK.$X3X#X(.p.b.7.E._.Q...,.R.mXJ ^.I D $ [ } F , & w F.=X-Xd.8   r q 6 3 (.^ R  .[ A E l U w D ~ C.b.N.j.h 7 B.I.u.I.K.-X",
"$X-X4X%XoXN.#X/.x.P p.T.v.^ a  .Q 0 l.a G r r.SXw.F y @.dXjXL B.z.p.6 W & D I + y r U } n C .._.%.&.0.G !.G p.V.V.>XB.h.S.-XK.-X",
"L.$XB.&X-Xg.#X$X2X/.J x.z.v.M A E u G 9.V , b Q D O H q.jXCXCX/.N.C q t @ L d 0 J ^ 5.S ) B B :.,._.b 9 Y F m.S.>XP.*X%Xh.N.&X&X",
"V.+XN.OX$X3X&XoXoXoX2.f.x.p.2 B H S Y *.5. Xw 1 <Xy.- Q xXjXZX) l.I y 5 i f 4.d t J P a r 0 r 7._.n 9 6 f D.+XoX3X9XF.B.D.i.V.H.",
"u.u.h i S.S.g.a.&XS.K.a.i s a l.L C F a 4.v.xXw.(.M.z M e.bXmX}.,XC.l./.N.d.z.f a./.R.J K S w P W.2.S G a.B.-X4X5X&XP.J.>XV.V.k.",
"B.k.:X=XB.V.D.5 s a.d 4.J a r 6 u G G G 0.Q q.w i .X[ R $.9.b./.,X).1X2XZ./.R.P y.p.^.G G 2.2.I J t i 1.u.p f.V.+XI.=XtX%XL.j.k.",
"u.p V.$Xf.f.y.d i j.N.N.d.d I 3 i D ~ |  .F I r 3 1X) #.0.`.b.p.x.@XXX&XoXh./.S.Z.C.2.n.Z.a.}.a r i g d d D.+X-XS.L.-XI.>X-XI.K.",
"L.L.y.K.+Xj.y.B.d i.d J d.x.I 4 a 6 A T b O.! H @ 4 2 =.#.6.C.d.$XOXd.j.Z.;XV.N.@X}.l.&Xn.G.B.i.1.g.8 > h I.S.H.N.j.d.=X+X$XL.S.",
"L.%X:XL.%XKXHXF.+XoXoXg.d.1.s 8 V 9 w B Y =.] @ A.q T _ ..b.u.+XOX+X+X}.#XS.S.N.z.M.V.A.S.B.j.i.j.j.OX%XL.+X$X+XL.S.k.j.-X+X+Xi.",
"8X9X-X%XOX-X%X+XK.oX&XG.a.7 1.p.q 9 C r } m * 3 6 , b S d j.-XS.x.OXy.f.d p.a.A.s s m.S.|.L.K.F.>XtXJXtX:X+X-X=X=XP.U.*XoXL.u.h.",
"&X&X=X9XL.N.$X;XoX+XG.$X}.N.J C r ,   $ ^ * t y.N.0 s H 4.N.f.j.d f J l.L q i z.z.wXs.J C.d.-XI.K.+XtX;X;X2XK.3X-XJXtX4X3XtX8XG.",
"B.-X-X4X;XyXL.d.j.G.N.OXS.oXu.i I 6 3 + $ 1 @ 6 5 @ G l.B.K.rXJ.Z.p.l.G C A y u y M.3.3.P b.S.V.I.$X=X4XFX2X$X*X3X5XtXtX&X0X9XOX",
"F.F.OX&X%X+X9X;XoX+XS./.S.g.f.i i u @     3 9 t   u 8 J N.V.m.H.M.4.y y A o.K , 9 b =.* S ..p.y.i.B.K.S.J.S.*XHX5X2X$X&X&XOXB.OX",
"9XU.V.:XyXtXtXGXK.OXOXV.S.a.n.i.S.s.C 0 9 6 > @ + LX2Xy.5 j.N.m.4.G 6.y 2 N S ! 1 # b O * F ) s.D.B.u.V.K.;X;XoX2X-XB.+XOXj.g.+X",
"-X9X;X$XHX9X3XJXtX$XG.N.^.^.i.f.x./ S / w $ w @ @ A.4.N.B.i 4.d 8 3 < # O 2 , M N # n * + K b ( d f.f.f.S.K.3X2XN.B.&X-XS.F.B.OX",
"OX+XoXG.$X4XoXOX&X3XZ.N.N.f.p.d.a _ a 9 w # - , C s u @XB.N.d 8 e L 1 1 4.1 O 6 O # j n $ b 9 r G d s.D.I.3X$X$XoXK.G.V.G.k.+X&X",
"%X+XoX4X3X;X+X-XS.Z.oXd.d.a.s.6.K 3 9 O O + #.T.^ 6.z.x.H.A.C.y.s.4.T.'.XXgXC o % # n N * 3 4 @ D 3.4.D.-X+X&X$X+X-XL.+X4X$XrX+X",
"N.h.K.;X+XN.+XH.+Xu.S. Xx.l.H 4.G 0 S $ . X } Q 5.H D.B.tX*X^..Xv.5.Q '.9.cX, 2 N , 2 b * l.> 0 D 7X.XC.|.5XS.G.3XeXHX3X-X&Xm.N.",
"oX3Xj.oX+XHX3XN.N.j.6 P M.*X3.s w 9 & - n ' { l 8 I 8 &X*X|.m.I 9.9.Q.3.S 2 + b T d 2 ,   E i i 4.N.z. Xf.;XL.S.oXI.8 p -XFXH.V.",
";X3X3X=XoX2X;XL.y.4.z.d.M.3.e V &   @ w A l M ~ 3.y.s.|.H.m.3.3.C , 2 F R @ C ^ S M k Y R <.x.2.4.5.H J s B.$X-X-X-X-X-XS.V.K.+X",
"V.+X+XoX;X#X+X;XJ.z.E.XX3.M.b 2 2 , 2 & - & E XXu p.G.N.D.H p.P 4.1 n 9.b j b.eX{.O.( sXv.b.}.n.4.m.y.i V.$X3X$X;XHX9X+XN.V.$X=X",
"+X+X#X4XN.p.$XwX Xz.6.z.6.DX9.qX1 # b + @ * - 9 J M.Z.N.2XH.x.l.4.) 9.9.) 2 F 5.MXc.c.G x.Z.}.}.oXB.B.+XH.oXK.*X;XN.OX0X%XOX$X$X",
"V.-X2X+X&X$X1XOXs.4.~ e Y 6.! 6.1 b = Y Z .   H 3.^.|.oXA.|.m.4.C 7.K 2 i n [ r ( Z ~ G b.n.}.2X$XH.k.+XtXFX-X+X2XoXh d.$XF.i.+X",
"$XS.g.V.oXN.A.l.3.D.5 y 6., e 3.j b n = 7.V 9 p.N.z.C.#XC.J J 4.4.H 6.z.1 n W F L '._ ( R.x.l.C.#XL.L.B.&X$XH.y.d.j.;XoXG.H.-X:X",
"L.+XH.B.Z.#XJ v.M.*Xq e B w B '.u & j { ! * w P n.<Xd.f a.C.4.y.P q @ G S q V ~ $.0.F G L b.}.5X4XtX5XFXK.H.V.k.V.-XK.j.|.4X$XI.",
"u.h y.5X$X$X#XoXD.s c.r  X7.M F ).K W.bXgXX.L q a J p.b.$XS.oXM.~ p.a.q q 2.P C - R F 2.L K R.,X2X-X+XS.N.oX=XeXI.K.;X$X-X-XoXN.",
"V.d g d.N.C.@Xa.f.a.L r i s 5 I l.Y.$._.MX^ B M.v.T.b.Z.N.B.^.#Xp.P ^ K s 2._ C B - ~ G ( +.c.b.C.A.P.B.d.V.rXtXeX;XL.j.D.S.L.-X",
"oXK.H.d Z.I 4 i f.N.j.a.f u e C $.@.( W K 7.G f _ c.b.x.N.N.S.$XM.I 2.2.a.l.2.P G $ 2 S ( +.^ v.Z.+XI.D.L.&XN.K.$X3XFX;Xg.oX+XK.",
"K.+X%XOXK.d.S.4X&XOXB.OXoXx.L K 7.2.C r G 2.W.c._ C.Z.S.K.+X+XOX&Xd.u.u.d 2.D _ q >   4 | } ~ b.oXZ.%XL.N.L.$XS.0XGX4XP.K.S.K.&X",
"I.S.9X%X+X&XGXJX9XOXOX<XoXZ.M./.Z.n.g d u.1.c.).^.S.&X}.3X+X-XOXG.OXB.}.a.p.P p.p.J y G 2 U V J f.j.S.-XL.$XL.L.K.G.i.j.K.0X-XK.",
"+XV.K.F.+X9X3X+X/.#X#XG.}.,X}.G.}.<XV.}.$X/.}././.OX-X&X+X&Xj.&XZ.}.B.}.S./.l.L 2.p.G a L ( / y.B.&X3X;X$XH.+X+XN.B.+X5X4XV.L.-X",
";X&XoX5X&X-XtX4X%XOX}.OX#Xa d.G.n.Z.#X0XZ.s $X4X3X-XB.n.u.d.j.i d.Z.d.a.n.C.N.2.a.Z.M.a.2.~.S.S.u.N.h.d d.N.j.OXK.I.OX-X0X3X4X+X",
"$XOX%X4X9X2X9XwX4X6X0XrXa.p.Z.+XoX2XOX$XOX=X%XG.K.=X-XS.4X%X+Xi.f q g.x.I x.N.Z.6X,XS.d.S.b.C.-XI.V.B.;X-X0XOXS.$XI.S.B.OXHXNXFX",
"B.}.oXOX&XoX+XtX%XG.S.&Xd.Z.OXB.G.+XZ.+XB.F.L.-XJX9XyXF.G.OXS.g.F.OXG.g.N.S.*X|.OX@XZ.oXS.+XG.OXd.B.$XtXrX0X0XtX3X0X4XOXoXHX2X&X",
"&XB.&XrX2XK.V.K.&XOXoXOX3XOXS.j.F.B.D.j.%X+XOX%X+X3X=X+Xy.B.V.OX-X&X9XB.f.d.i a.C.A.&XOX4X%Xj.f N.-Xf 5 a.S.4XG.&XOX+X&X3X2XFX5X",
"N.B.B.N.B.+XN.j.S.S.oXg.OXK.-X;X-X%Xj.eXJX;X9X:XV.K.K.yX4X:XK.$X-X%X%X:X+X&XS.y.J y.g g -Xj.+Xy.5 y.G.K.S.A.i.F.+X$XOX2X<XS.N.Z.",
"OXg.i.i.K.S.L.d 5 d j.K.S.K.+XK.+X$XJX:X9XIX-X-XK.%X;X;XL.;XF.B.V.F.L.&X&X0X;XN.n.g.j.j.B.9X-X+XK.%X-XOX&XOXrX;X+X3X%XS.k.S.G.F.",
"oXF.%X0X$X+XK.;X;XK.j.H.+XV.f.S.:XK.;X-X-X3X%X9X$XV.j.B.%X:XB.j.I.%XL.L.3X3X-X3X5X4XS.V.OXN.g.K.oX-X9X4XK.N.N.G.-X$XZ.V.S.G.OXG.",
"8XOXIX0X;X=X$X3X3XH.H.L.j.9Xj.j.;X-XK.+X$X5XHXLXKXG.oXh.y.u.k.L.8X=X8X>XK.&X4X$XoXG.g Z.oXB.d.}.9XS.S.OXS.N.K.j.d S.H.S.oX$X#XS.",
"tX8X9X%XL.V.3XS.D.B.FXeX%X-X9Xi.B.V.j.I.+X+X+XHX4XJX9XI.i.u.%Xk.yX%XB.B.oX4XrXFXV.N.i.i OXS.oX%X$XL.D.S.K.+XN.B.%XoX+XN.5XHX-X0X"
};
