/* XPM */
static char *leaves_oak[] = {
/* columns rows colors chars-per-pixel */
"64 64 227 2",
"   c #2E4123",
".  c #324526",
"X  c #354827",
"o  c #344629",
"O  c #364929",
"+  c #3A4D2B",
"@  c #3D512D",
"#  c #3D4E33",
"$  c #3E5131",
"%  c #414B2E",
"&  c #41552E",
"*  c #44582F",
"=  c #425533",
"-  c #495733",
";  c #455A33",
":  c #495D34",
">  c #445639",
",  c #485739",
"<  c #46593A",
"1  c #4A5D3B",
"2  c #525739",
"3  c #4C6135",
"4  c #4D623B",
"5  c #506636",
"6  c #526937",
"7  c #51653C",
"8  c #556A3B",
"9  c #596E3D",
"0  c #5C713E",
"q  c #60753F",
"w  c #4C5D41",
"e  c #505D45",
"r  c #635743",
"t  c #6A5340",
"y  c #605E45",
"u  c #6E5946",
"i  c #75594A",
"p  c #4E6342",
"a  c #536543",
"s  c #5B6445",
"d  c #556A43",
"f  c #5A6D44",
"g  c #556549",
"h  c #5A634A",
"j  c #566A49",
"k  c #5B6D4B",
"l  c #5D7143",
"z  c #5D724C",
"x  c #5C6C51",
"c  c #5D7151",
"v  c #666747",
"b  c #606E4D",
"n  c #627544",
"m  c #657945",
"M  c #697D47",
"N  c #63744C",
"B  c #68774D",
"V  c #65794B",
"C  c #6A7D4C",
"Z  c #696150",
"A  c #626D54",
"S  c #686E50",
"D  c #756250",
"F  c #7A6650",
"G  c #726D53",
"H  c #7B6E54",
"J  c #78685D",
"K  c #637553",
"L  c #687554",
"P  c #657A54",
"I  c #6B7C53",
"U  c #637559",
"Y  c #6A765A",
"T  c #667A5A",
"R  c #6B7C5A",
"E  c #747353",
"W  c #707E56",
"Q  c #76775B",
"!  c #717E5B",
"~  c #6C7E61",
"^  c #717E62",
"/  c #956B55",
"(  c #906B58",
")  c #827456",
"_  c #807859",
"`  c #887861",
"'  c #9C7663",
"]  c #9C7860",
"[  c #9F7F68",
"{  c #A57C66",
"}  c #6E824F",
"|  c #71844E",
" . c #6D8253",
".. c #6F8853",
"X. c #6D835B",
"o. c #728455",
"O. c #7A8755",
"+. c #728A55",
"@. c #788A54",
"#. c #73835C",
"$. c #78865A",
"%. c #748A5C",
"&. c #7A8C5C",
"*. c #77905A",
"=. c #7B925C",
"-. c #6F8361",
";. c #738563",
":. c #798662",
">. c #758A63",
",. c #7B8C63",
"<. c #7A866B",
"1. c #768968",
"2. c #7B8D6A",
"3. c #779062",
"4. c #7B9164",
"5. c #7D926B",
"6. c #7E8F75",
"7. c #7E9070",
"8. c #808E5C",
"9. c #82925E",
"0. c #83985F",
"q. c #828361",
"w. c #898461",
"e. c #818D64",
"r. c #838E6D",
"t. c #839465",
"y. c #849865",
"u. c #899E64",
"i. c #83946C",
"p. c #89956D",
"a. c #86996C",
"s. c #8A9C6C",
"d. c #848B73",
"f. c #8A8D75",
"g. c #9C8672",
"h. c #978C73",
"j. c #849472",
"k. c #899573",
"l. c #869A73",
"z. c #8A9C74",
"x. c #879678",
"c. c #8B967B",
"v. c #8C9D7A",
"b. c #919D73",
"n. c #939E7D",
"m. c #989B7B",
"M. c #AB846B",
"N. c #AB886E",
"B. c #B28C72",
"V. c #BA967D",
"C. c #8CA166",
"Z. c #8FA46F",
"A. c #91A56F",
"S. c #8DA173",
"D. c #8EA17B",
"F. c #93A475",
"G. c #99A274",
"H. c #96A875",
"J. c #98A977",
"K. c #93A37C",
"L. c #9AA67B",
"P. c #97A97B",
"I. c #9AAA7C",
"U. c #A8A57B",
"Y. c #9E8A80",
"T. c #8D9680",
"R. c #979284",
"E. c #929C83",
"W. c #B59381",
"Q. c #BE9A83",
"!. c #A59890",
"~. c #AC9F92",
"^. c #B79F90",
"/. c #95A483",
"(. c #99A381",
"). c #97A884",
"_. c #9CAC83",
"`. c #96A288",
"'. c #9AA78B",
"]. c #9CAB8A",
"[. c #9FB184",
"{. c #9EAB92",
"}. c #A0A283",
"|. c #ABA183",
" X c #A2AD82",
".X c #A1A48F",
"XX c #ADA28C",
"oX c #A0AE8B",
"OX c #BDA48D",
"+X c #A4B48D",
"@X c #A1AD92",
"#X c #A8AC91",
"$X c #A4AE9A",
"%X c #B9AC93",
"&X c #A3B194",
"*X c #A9B792",
"=X c #ACBB96",
"-X c #AAB69C",
";X c #AEBC9C",
":X c #B4B09F",
">X c #B0BD9B",
",X c #AEB7A0",
"<X c #AFBAA1",
"1X c #B1BDA2",
"2X c #C9AA97",
"3X c #C4B098",
"4X c #CEB09C",
"5X c #C0BFAE",
"6X c #CEBAB2",
"7X c #D5BEB2",
"8X c #B2C09E",
"9X c #B6C3A3",
"0X c #B9C5A6",
"qX c #B6C3A8",
"wX c #B9C3AB",
"eX c #BFC7B2",
"rX c #C0CAB3",
"tX c #D7C2B4",
"yX c #D9C2B7",
"uX c #DAC3B8",
"iX c #D5CCC4",
"pX c #DCCCC5",
"aX c #DECFCB",
"sX c #DED0CA",
"dX c #E3D2CA",
"fX c #E7DCD7",
"gX c None",
/* pixels */
"gXI 8 H.gXgXgXgXgX#.R g . X @ d +.*X1XN - 0 gXgX2.V : @ O   T X.gXl.gXgX7  .7 '.gXgX:.t.gXgXC.=XT : 3 q l 6 : : V gXgX:.gXgXgXgX",
"gXgXgXp.e.I gXgXgX>.;.1   @ 8 ,.I.8X_.;.@ * 6 8 M C gXgX. + -.-.>.gXgXgXW & * R {.gX:.i.gXgXu.+XwXK - * * ; 3 n gXgXgXgXgXgXgXgX",
"gXgXgXgX].N ! gXj. .2.1 $ l gXb.K.gXD.X.@ @ ; : : n gX;.a j c f l.gXgXgXgX& @ = 1.].+.l.gXgXgXI.;X].j O @ ; N gXgXgXgXgXa.9 m gX",
"V @.gXgXb.R & K gX+.3.d l gXgXgXgXgXS.l 1 X ; f gXgXl < c $ z l.v.v.gXgXn & + X = >.X.D.gXgXgXH.+X). .4 . & ! gXgXgXgXp.H.N 6 l ",
"m gXgXgXgXi.; gXgX>.a.l n gXgXgXgX&.v.X.a X 8 gXgX#.O p . e k 5.v.t.gXgX/.| 9 : + > 8 ,.F.+XI.J.gXy.5.d p O = V #.gXgXgXI.@X3 3 ",
"9 ! gXgXgXgXgXa gXa.i.0 gXgXgXgXgXp.&.l.;.= + gXgX1 = + a U R gXX.9 gXgXgXgXgXgX5 X + K ].>XZ.gXgX=.j.%.5.: O + : n K.gX=X=Xd - ",
"@ * : 6 | gXgX! gXgXa.n gX .wXgXs.o.<.`.,.+ + * gXgXgX7 j j R gXgX! &.+.gXgXgXgX5 = @ = N 1XI.s.gX=.a.i.].c $ O & : 2.J._.).P + ",
". & 6 f C k.gXgX: #.gXgXgX4 ,.gXF.,.gXgX/.= + + 5 K.gX: 1 7 a gXgXgX_.8 #.gX! f : 8  .,.: 4 ,.s.gXy.} gXgX&X; ; % gXgXgXgXD.z + ",
". : gXgXgXgXgXgX> . 4 gXgX= l gXgXgXgXgX{.& + & 3 $.#.= e b , gXn.+X;X3 N gX&.M #.gXN z.n l 0 #.gXF.o.gXgXgX;.3 & m gXgX,.v.V a ",
"= O I gXgXn L U = 1 1 p > X ;  .gXgXgXgXv.3 @ 9 gXN 9 f gXgXgXgXgXL.2.: #.gXgXgXgXgX4 4 #.gX+.gXgXgXgXgXgXgXl.gX#.f :.gXa.&.v.P ",
"& O & gXgX+ + = >   > ~ + . . 3 m N gXgX&.R P 9 gXi.#.gXgXh 7 gXt.5.4 @ L gXN ,.gXgXgX@ 3 l n m V gXgXgX7 X.&.gXgXgXgXF.@.gXE.;.",
"& > + 3 gXgX4 f -.K > > j = $ = 5 0 m W gXgXgXgX_.v.5.gXR N z.&.&.;.= @ : gX> o + 4 o . . 3 l I t.p.e.e.- X 4 #.i.gXgXG.gXgXgXx.",
"& + - K gXgXgXk >.P l z T -.5.5.7.3.,.&.gXgXgXgX5.3.j.z K z f + j >.+ L gXM L ; j U p = c >.i.=.r.gX= p p j ;.%.gXgX%.9 ! gXgX'.",
"9 n 9 gXgXgXg gXgXgX5.5.c 3. ...+.*.=.gXgXgX*.gXX.d j 1 U g @ f v.< + gXgXf 1 > > $ P -.X...%.gXgXgXw 1 z K %.o.I p.F.R 3 gXgX&.",
"n &.N gXgXl.gX4 gXgXv.v.S.gXgX&.gXgXgXgXgX+.%.-.-.T j $ $ + gXgXP = + n + = c T g P f X.-.&.gXgXS > d R i.z.gXm n a.P.;X4 : 3 3 ",
"gXgX,.+.X.j p 1 f n l.v.gXgXgXgXgXgXgXgX*.i.2.j O . < j < + > gX^ 3 k t.gX7 f -.gXD.l.%.gXgXgXgXgXgXgXgXgXC m 0 ,.=.I._.P + : gX",
"gXgX+.N + 1 1 gXgXf C gXgXgXgXgXgXgXgXp.&.n 5 ; X X gXgXgX8 a gXgXI gXgXgX: A gXgXD.D.$ K gXgXgXgX,Xn.>.P n 8 l j.=.gXt.>.a & R ",
"3 $.gX#.K a gXgXgXgXz.H.z.V gXgXgXgXgXW m m M N l & = gXgXgXn.#.gXgXt.gXgXgXgXgXV f l $ N gXgXgX.X5XE.7 : $ @ X.*.X.gXi.,.l.+ @ ",
"& K gXgX(.a.gXgXgXoX9X{.5 n gX@.gXgXgXgXo.gXgXgXgX .a A gXn.m 9 0 9 #.gXgXgXgXgXI g d j ` tX7X6X!.aXpX_ X   < 5. .%.gXt.gXgXd + ",
"3 gXgXgXe.| ,.z.S.D.j.3 5 :.gXl R gXgXn & a o.9 ! gX&X,.gXgXF.;.3 : m ! 8 3 n ,.gXgXX.XXyXQ.( J gX^.uXV.2 + T X.#.gXgXb.gXgX#.d ",
":.gXgXgXgXgXr.>.P d $ 3 9 gXgX: f gX:.& + O @  .Y gXf U gXgXC.0X'.: = & : 8 K N gXgXR W./ i D gXgXh.Q.B.H j P z 3.gXgXn l gXC m ",
"gXgXgXgXgXgX`.5.4 X @ I gXgXgX; 5 N & X = - 3 Y gXj w + N gXgX*X+X5.< . & gXgXn ,.z.>.s e a gXgXv.: _ { r > c >.K.gXgXK.R & - gX",
"f #.gXk./.x.a = @ @ - o.p.gXgX- & + + = 1 R l.,.#.gX;.X. . .gX XF.D.f ; + 9 gXgXK.v.P P < O w 5 1 + = % h w X.].v.gXgXn.].z ; 4 ",
"= : gXR 5 = = + l gX3 0 gXgXn @ . = z v.].@XgXgXgXgXZ.gXgXgXgXgXgXv.%.T : + & 5 +.S.X.>.o o ;  .$XgX: = -.T gX,.i. .gXgXo.4.j.= ",
"7 b gXgXa + + 3 gXgXn n  .3 * ; k f X.v.gXL.P.e.gXgXgXJ.i.p.C.y.k.i.,.].R + + + 5 gXX.1.> = I gXgXgX: g a ;.gXgXl 8 b m N 8.gX/.",
"L.gXgXI m R n C gXgXgX| 0 : K /.D.D.v.=.&.8.gXi.4.,.gX=X9X;X).,.C y.+.gX].1 - % gXi.+.3.f 0 gXgXgXI + 4 7 z gXgXgX9 @ + N a.gXgX",
"gXt.9 n C m =.gXgXgXgXI 9 :.rX=X).gXgXgXgXgXgXo.z.D.K.).;XE.7 8 o.a.:.gXgXv.3 3 l gXgX&.I n gXgXgXa + A 1 8 o.gXgX* + ; 2.k.gXgX",
"gXs.i.5 : 0 gXgXW C e.t.a.J.F.I.I.gXgXgXgX(.b./.-.V N R 7 : 5 M &.gXgXgXgXz.V gXgXgXgX=.#.V gXgXgXgXgXgXgX#.7 V I + > k.gXgXgXgX",
"gXC._.1Xd : 3 : : 9 e.gXgXm.gXgXgXgXi.z.].&X/.2.P 4 @ @ : 6 9 gXgXgXgXgXgXgXt.,.gXgXgXgXgXgXgXgXgXgXgXW B gXn : @ = 2.E.gXgXgXgX",
"gXgXF.>X/.1 O = 8 gXgXgXgXgXgXgXgXgXgX8 3 = & % @ X O @ l gXM gXgXgX,.`.gXgX%.l.gXgXz.gXgX@Xv.gXgXI m n +.j.gX- O a %.&.$.e.gXgX",
"gXgXJ.+X).N ; X l gXgXgXgXgXgX0 gXgXgXN & = O O ; 8 : ; #.gXgXgXgX;.4 f j.).,.5.F._.>XZ.y.l 4 8 l 9 5 o.t.=.R : d 1.z.t.a.K.gXgX",
"1 gXL.gXy.,.z < X 5 C gXgXgX+X7 6 gXN 3 : + + 5 gXgX8 : gXgXgXgXN 5 + ; + 1 a a P x.;X].p.t.N O X O k i.%.gX8 3 /.P.gXgXgXa gX+ ",
"l gXgXgX4.i.v.X.+ + & 9 z.gX9X:.3 gXgXgXgX* 5 ;.gXgXl 5 gXgXgXgXgXgX: + + + + X + * : 3 9 gXgX. . 1 2. .#.gX0 R 0X+XI.gXgX8 p + ",
"K gXgXgXy.o.gX/.< = + b gXgX_.5.+ - 3 f p.} F.gXgXgXI m gXgXgXgXgXgX9 9 W gX5 - 3 V 8 4.l = p c g >.-.X.t.gX0 K.s.gXn gXgXT T X ",
"= + #.gXa.$.gXgXc.& @ +.gXgXi.X.= @ N R gXgXgXgXgXgXgXgXgXgX#.gXgXgXgXgXgXgX8 : gXgXM - X 4 p O z 4 >.gXgXgXr.&.9.gX} ,.gXj g @ ",
"+ N gXgX XgXgXgXK.f L 8 gXgXa.>.f & gXgXgXgXgXgXgXgX+.C n n S.gXgX$.n } gXgX8 V gXgXgXgXa o g w X.v.D.gXgXgXp.V $.gXgXv.l.p $ j ",
"gXgXgXgXi.gXgXgXgXgXgXgXgXgX%.c.T O 7 gX<.N k n V  .0 0 m i.*.gXa.F.5 0 #.&.9.gXgXgXgXgX4 p T T gXD.v.gXgXgX#.0 ,.gXgXj.j c j 4 ",
"e gXgXgX: ;.j.i.gXgXgXgXgXb.gXgX2.; @ o.gXgX; @ = @ = 7 i.%.i.gXu.+XX.: 4 | gXgXgXgXgXd + d k gXgX .V &.P m 7 4 5.gXgX;.>.< . O ",
"f #.n.gX: @ 1 #.*XgXgXgXgXgXgXgX2.; f gXgXgXgXX .   + :.3...gXgXgX;X1X- 5 gXgXgXgXgXgX= g a 3 gXa : f gXa & . w >.gXgX..2.+ $ 3 ",
"gXgXgXgXgXgX- : N ,.gXgXgXE.a.gXgXgXgXgXgXgXU # . + T -.} +.gXgXs.0X].N & 9 I ! gXgXgXgXgXgXg d $ N gXgXgXgX. k  .=.gX+.>.5 P gX",
"gXgXgXi.b.W C gX#.gXgX$.,.5.D.gXgXA #.I * + < T k P -.>.gX4.gX).I.)._.R O $ : : 4 } gX9 I gXX.K # gXgXgXgXj d T X.gXgX4. .n &.gX",
"z.F._.i.n gXgXgXk.4.3.>.>.z z j z b a + X a j $ < c 4 3.gXgXgXgXgXgXD.f $ + 3 5 l } ,.i.v.;.j x + , x gX8 > p j gXgXgXi.q gXgXI.",
"=XqX'.3 n gXgXgXV m N 1 = g v Q Y 1 - gX; O O w 7 >.>.z.gXgXgXgXgX=.v.V > + f gXgXgXgXgXl.1.1 $ p + >.gXX < # f /.v.gXgXgXgXgX_.",
"_.v.1 5 #.gXgXgXgXI n 1 X D M.Q.2X~.f.gX1 $ 6.j f 5.].D.gXgXgXgXgXl.5.>.N + 5 gXgXgXgXgX>.z j c a gXgXgXgX; x K 2.D.F.t.a.4.i.P.",
"z = 3 9 #.gXgXgXgXgXgX#.= y { Q.dXsXiX/.d.c j 1.gXgXv.l.gXgXgXgXt.o.&.@XT + & n gXgXgXgX+.R o o gXgXgXgXgXa j ~ gXV ! gX+.5.>.l ",
". @ n gXe.gXgXgX+ f gXgX#.gXm.8.|.pX:XfXpXOXE c gXgXm l gXgXgXn.a.$.gXgX;.$ O & m gXgX+.%.j . @ - d gXgXgX- 4 f gXgXgXgXc.v.d > ",
"@ : 9 gXgXgX1 7 $ N gXgXgXgXs.n %XpXY.R.yX4XM.E gXgXgXf a 7 d i.m k gXgXj.: + @ 5 p.gX>.5.4 9 I ;.oXc.gXgX: gX: gXgXgX$X6.4 @ + ",
"N 3 3 gXgXgXz d 1 k gXgXgXgXF.3XuX' G gXg.V.B.F 9 gXgXgXz a d @ : ;.gXgXj.= + d gXgXgXy.X.n o.gXgXgX+.gXgXW I gXgXt.,.7 = + & R ",
"gXN f L gXgX;.U j @ X a gXgXU.yX{ u gXgXgXgX` v l V gXgX1.p c @ N gXgXgX .N 4  .gXgXgXk.n gXgXgXgXt.: 5 V 5 <.gXgXgXf & + + C gX",
"gXgX| 0  .gXc j # p + i.gXgX%X{ t & C gXgXgXgX:.z.z.gXgX~ ~ x X gXgXgXgXgXgXI n gXgXgXgXp.9.gXgXgXq % + O l gXgXgXgXd 3 & : gXgX",
"gXgXgX%.v.).>.3 > p K gXgXI.(.q.T @ ; : 3 m gXgX/././.z 1 c   @ = gXgXgXgXgXgX$.gXgXC gXG.l N gXgX3 + = - 4 P gXgX! o.gXN &.gXgX",
"gXgXgXgX/.5.d P x 1 gXgXgXgXgXz.z @ @ 4 8 C e.gX].5.3.l =   p 4 . @ N x.,XgXgXgXM n m s.gX: 8 gXN + X = a ).z.gXgXgXgXgXgXr.gXgX",
"gXgXgXgXgX3.P T X . , 4 R gX,.k.I 1 @ gXgXgXgXgX4.X.3 c w c p O : i.gX#.l l V V l 0 i.4.gX6 : ; * + < 1.-XgXgXgXgXgXgXgXgXn C #X",
"gXgXgXgXgXgX;.x . + 1 N *XgXa.4.l.T X l gXgXgXgX-.-.X.c p j g -.gXgXgXgXe & @ @ = ,.%.l.gXC - + X a z.'.gXj.K.p.2.gXgXm n n s.gX",
"gXV ~ gXgX+.&.z @ l :.gXgXF.o.gXE.R + @ n gXgX4.} -.>.o o o gXgXgXgXgXgXgX# . . T 3.+.gXgXL & X a z %.,.gXgXf : 3 4 8 4 N i.=.K.",
"s - : #.gX;.3.P 0 gXgXgXgXI.gXgXgX2.; + * t.gX....5.p   X O $ gXgXgXgXgXgX< + a >. .+.gX9 6 = c  .l.v.l.#.| t.7 X X   1 5.+.a.l ",
"& + ; /.gXgX,.m n gXgXgX= r.gXgXgXz.= @ k gXgX..3.R $ @ ; - 1 4 N #.4 X w U j X.X.;.gXgX8 : N ].).i.gX&.t.I.gXgXo . + 1.>...gXl ",
"d X 1 `.gXgXs.q gXgXgX4 $ gXgXgXgXgXl 3 gXgXgX+.l.8 8 l  . ...D.K.<.= = = O p j X.gXgXo.9 7 qX;X*XgXgXgXv.f ; 1 c g >.X. .gXgXgX",
"W @ z D.:.&.I.I gXgXd d & gXgXgXgXgXgXN gXgXt.a.V 0 m gXgXgXgXt.gXgXgX& w j d ).l.gXgX} 8 z.*XI.H.J.gXK + X p x $ j f P ,.gXgXgX",
": O 4 >.l.gXgXgXgXgXK 1.X = + P gXgXgXgXgXgX2.t.n M gXgXgXgXM #.5.gX! # -.K T 2.K.gXgXq.o.S.u.gXgXgXgXgXgX- X # < z 1.5.E.+.8 3 ",
"3 @ 7 v.gXgXgXP gXgXT c . < @ E.gXy.9 n gXgXgXm m gXgXgXgXV 0 ,.=.gX; = p R gXgX#.gXgXgXL.gXgXgXgXgXgXgXgX7 w ;.z N K.v./.gXgXn ",
"gX3 K gXgXgXgXl 3.>.k > a = L gXgXH.z 8 C gXgXgXgXgXgXgXgXl 8 a.,.gX+ g 4 x gXgX9 gXgXgXgXgXgXW gXgXgX9.B + k j ~ gX>.z.,.gXgXgX",
"m 3 K 0Xz.gXgXi.v./.z < K g gXgXgXI.v.: 3 n gXgXgXgXj.o.l : g 5...gXgXgXa gXgXgXgXgXgXgXgXgX%.8 0 0 0 V = @ 8 k gXgXgXl N gXgX$.",
"gXC 5 _.p.gXgXgX].X.f c O + gX4 V [.eX1 3 gXgXgXx.,.a ; @   K +.+.,.gXgX#.gXV n.gXgXgX_.gXgXZ.#.* 3 6 N & f 5 : 9. XgX9 gXgXgXgX"
};
