/* XPM */
static char *leaves_big_oak[] = {
/* columns rows colors chars-per-pixel */
"64 64 163 2",
"   c #1E2C16",
".  c #1E2C18",
"X  c #202E17",
"o  c #212E18",
"O  c #25331B",
"+  c #28361D",
"@  c #2B3B1E",
"#  c #303E1F",
"$  c #293722",
"%  c #2D3C22",
"&  c #2F3F28",
"*  c #313E24",
"=  c #323E29",
"-  c #2F401F",
";  c #30401F",
":  c #2F4022",
">  c #334323",
",  c #384726",
"<  c #374824",
"1  c #3A4B26",
"2  c #35442B",
"3  c #39472B",
"4  c #37482A",
"5  c #3B4C2B",
"6  c #3F5127",
"7  c #3F512A",
"8  c #3B4633",
"9  c #3C4C32",
"0  c #3F5132",
"q  c #404D2E",
"w  c #43542C",
"e  c #48572F",
"r  c #47582E",
"t  c #495A2E",
"y  c #414E34",
"u  c #444E3A",
"i  c #445434",
"p  c #485732",
"a  c #465935",
"s  c #4B5B34",
"d  c #44543A",
"f  c #4A563B",
"g  c #47593B",
"h  c #4B5B3B",
"j  c #505E35",
"k  c #515E3C",
"l  c #4E6336",
"z  c #4E623C",
"x  c #526336",
"c  c #53633C",
"v  c #59663D",
"b  c #546A3D",
"n  c #5A6A3E",
"m  c #5B703F",
"M  c #4D5644",
"N  c #475A40",
"B  c #4D5C42",
"V  c #525D43",
"C  c #545D4C",
"Z  c #575D51",
"A  c #4F6342",
"S  c #536443",
"D  c #596545",
"F  c #556A44",
"G  c #5B6C44",
"H  c #55644A",
"J  c #5B654B",
"K  c #566949",
"L  c #5B6C4B",
"P  c #5D7144",
"I  c #5E714C",
"U  c #5D6551",
"Y  c #5E6952",
"T  c #5F7054",
"R  c #626E44",
"E  c #626D4C",
"W  c #686E4F",
"Q  c #627346",
"!  c #677D46",
"~  c #63744C",
"^  c #69754E",
"/  c #66784D",
"(  c #6A7C4D",
")  c #636754",
"_  c #636D54",
"`  c #686F55",
"'  c #646C5A",
"]  c #686E5C",
"[  c #647453",
"{  c #6A7454",
"}  c #667954",
"|  c #6B7C54",
" . c #67725A",
".. c #6A735B",
"X. c #677B59",
"o. c #6B7D5A",
"O. c #717D55",
"+. c #727D5C",
"@. c #696F60",
"#. c #6D7461",
"$. c #6E7C61",
"%. c #707763",
"&. c #7B7661",
"*. c #737C63",
"=. c #7B7C65",
"-. c #757C6A",
";. c #7A7D6A",
":. c #688047",
">. c #6C814D",
",. c #6D8152",
"<. c #6E815B",
"1. c #728455",
"2. c #748956",
"3. c #74845C",
"4. c #79835E",
"5. c #768A5A",
"6. c #7A8B5D",
"7. c #6F8460",
"8. c #748463",
"9. c #7A8463",
"0. c #768964",
"q. c #7C8C65",
"w. c #76816B",
"e. c #7B846A",
"r. c #778869",
"t. c #7C8C6A",
"y. c #7D9163",
"u. c #7D8572",
"i. c #7E8A71",
"p. c #80895F",
"a. c #818566",
"s. c #828D63",
"d. c #8A8965",
"f. c #828D6C",
"g. c #819065",
"h. c #83946D",
"j. c #8D956A",
"k. c #87996E",
"l. c #818B74",
"z. c #858C7B",
"x. c #888E7C",
"c. c #849375",
"v. c #899771",
"b. c #8B9D74",
"n. c #87937A",
"m. c #8A957A",
"M. c #8D9E79",
"N. c #919477",
"B. c #909F7B",
"V. c #8FA17A",
"C. c #92A27C",
"Z. c #8E9B81",
"A. c #939C84",
"S. c #939B89",
"D. c #95A284",
"F. c #98A783",
"G. c #9AAA84",
"H. c #9BA68B",
"J. c #9CAA8A",
"K. c #A0AB91",
"L. c #A6B296",
"P. c #A7B198",
"I. c None",
/* pixels */
"I.c 1 1.e.I.I.I.w.A B 9 . O + 4 b v.C.p % r I.I. .s > O X   N A Y | I.-.1 c , 0.I.&. .P I.I.:.M.h % < r r 1 ; > p I.I.E I.I.I.I.",
"I.I.J +.{ c I.I.I.L A 2   + 4 P 5.F.y.H + @ < 6 s s _ 8 . $ S A [ I.I.I.k @ % B n.I.E ~ I.I.! k.K.h @ + @ % > w  .I.I.I.a.I.I.I.",
"I.I.I.I.f.i J I.o.c L 2 + i [ 4.q.e.<.z + + : % > w Q J 9 9 g 9 } I.I.I.I.@ + % K t.b } *.I.I.6.V.q.i O + - h I.I.I.I.I./ 5 s I.",
"h n I.I.8.S % V I.b K 7 w J I.I.I.$.} 0 , o @ a B E w > 0 + 0 X.o.8.I.;.s @ O O & S A |  .I.I.5.k.0.h 2 X @ J I.I.I.I.3.5.p < w ",
"t I.I.I.I.[ * ` I.[ ~ w r I.I.I.I.G | z 5 o 1 I.I.D o 2 o 8 0 I o.L _ I.t.c w @ O % 5 G 1.k.s.5.I./ I 7 2 O @ s E u.I.I.6.c.: ; ",
"1 E ` I.3.I.I.5 I.} / 6 D I.I.I.../ G } D @ + G I.I.% + 8 g V I.D w I.I.I.I.I.I.1 o + g t.C.>.9.I.m } S I & O O # r 4.8.V.b.7 ; ",
"+ @ > 1 x I.I.I. .I.{ r I.z I.I.| l  .i.K $ O ; D I.I.5 9 9 H I.I.F G D I.I.I.I.> # + + h D.6.| I.m ~ ~ r.g % O + ;  .5.h.0.B O ",
"o @ 1 6 h O.I.I.* I.I.I.I., G e.2.W I.I.8.% O + < 6.I.> > 2 3 I.I.9.6.5 E I.L 5 * 5 l ~ > , ~ ( I./ s I.I.c.@ % + _ I.I.$.,.0 + ",
". > I.I.I.I.I.I.= o 2 I.I.+ 7 O.O.I.I.I.c.@ + + > v D % 9 M > I.t.k.D.> k I.n s E I.a | r w 6 D I.4.x I.I.l.D > @ e I.I.~ } a 5 ",
"% O c I.I.i h H % 2 2 2 = O % S _  .I.I.o.> @ 1 I.h 1 d I.I.I.I.I.4.L - J I.I.I.I.I.5 2 S  .D I.I.j.O.I.I.I.} i S w I.I./ D o.g ",
"+ O @ x I.+ O % % . & B O   o < r s I.{ D J h 5 +.~ c I.I.M 3 ..~ I 2 + S I.p I  .I.M O > w r r I.I.I.I.4 S G c R I.I.4.v I.r.D ",
"+ % O > 4.I.4 0 H d % & 9 & + % > w e D I.I.I.I.q.o.I I.J i | n F S @ @ ; D = o + > o X o > w l / { ^ W * O , S ~ I.I.1.I.I.I.o.",
"@ @ @ V I.I.> 9 A g 0 0 g A L T I G L G I.I.I.#.I L T 0 d i 5 O i K O I.I.s h % 9 N 4 % d S I P I.I.+ 2 2 9 K G I.I.D 6 J ~ I.w.",
"5 i q I.I.h I.I.I.I.} I a F a b b G P I.I.I.G S h 5 0 2 B 8 + i 8.* O I.J w 2 & % $ g A A b L I.I.f 2 2 0 a L c S | 2.c > I.I.G ",
"r n t I.*.} I., I.I.<.X.<.#.X.n I.I.I.I.I.b F A K g 9 % + O C I.I.+ + r O % d B 8 g 0 z K G I.I.y % 9 V { }  .s r ^ q.C.2 - > < ",
"I.I.E b A 9 2 , 5 i [ 3.I.I.I.I.I.I.I.o.G I L 9 O . % 9 & + 2 #.I.> f ~ C 3 3 H C <.} S I.-.I.I.I.I.8 I.F s p 6 G n 6.q.h O : U ",
"I.I.c i O 2 > 8 I.w k | *.I.I.I.I.I.I.| D r > > O O $ W h 1 5 I.I.c I.I.I.% V I.I.<.3.% h I.I.I.I.H.8.[ h w 1 i I P I./ K 2 @ L ",
"> G { E h u I.I.I.2.+.1.I.I.I.9.I.I.I.J t r e s 5 % & I.I.I.9.I.I.I.^ I.I.I.I.I.h i 7 + i I.I.I...a 4 , : + + A F G I.I.L } + + ",
"@ V I.I.f./ I.I.I.h.F.c.3 r I.v I.I.I.t.I.' I.I.I.l 3 V I.4.s 1 w 1 J I.I.I.I.I.k y 3 9 * C 8 -.I.I.M + O   : T l I.I.~ I.I.3 O ",
">  .I.I.{ x G } | <.{ > < ~ I.w J I.I.r @ 5 D I.I.I.m.L I.*.1.L > ; s G 5 > r E I.I.B H o + 5 I.I.I.I.C X O B A K I.I.4.I.I.D 5 ",
"L _ I.I.I.I...F a 9 + 1 6 I.I.> i I.E @ + O @ I.I.H y C I.I.! G.f.* + @ > 1 h h I.I.g 9 $ & I.I.I.-.g & g 8 g 0 I I.I.p i I.I.r ",
"I.I.I.I.I.I.t.~ > O + S I.I.J # > h @ o % @ > J I.9 2 + h I.I.b.k.[ > o + _ I.p G } K > 9 2 I.I.o.> O d $ & 0 K <.I.I.4.S + : ) ",
"i D I.I.w.o.9 $ O @ % I.I.I._ @ + O + % > S { G I.I.K h h I.I.g.4.<.5 > O 5 I.I.8.o.g g : $ 8 1 , O % o 2 2 A t.o.$.I.q.t.i % , ",
"@ > I.D 1 + % O p J > w c G r + o * d o.r.m.I.I.I.I.| 3.I.I.I.I.I.} F g > O + < b ,.S S o O % h S.I.> % H h ' L I c I.I.c I [ % ",
"5 f ` I.3 O O ; I.I.I.r x > # % i 7 A } e.6.4.I.I.I.I.5.+.| ! / 8.~ G q.h + O + 1 I.D K % % c I.I.I.> 2 9 S I.I.w 1 f s s Q I.9.",
"p.I.I.k r D r c I.I. .x r ; h 8.<.| } I G R s / P ~ +.b.F.M.q.Q s / D I.i.2 % + I.I.c G 9 7 I.I.I.S + , 2 i I.I. .5 O + y ^ I.I.",
"I.^ 5 r k s P x.I.I.I.c 1 L L.M.q...~ P ~ Q O.l } <.3.0.C.8.1 1 x / ~ I.I.7.- > w I.I.F l r I.I.I.5 + M 2 1 c I.=.> O * L +.I.I.",
"I.( / > > 6 I...S j ^ Q / 5.1.q.y.I.I.I.I.I.3.0.S a a B 3 > > l E s.*.I.I.,.s I.S I.I.I.S h I.I.I.) I.I.I.I.1 k k + % X.I.I.I.I.",
"I.>.y.A.y ; > - * 5 ^ I.I.s.I.I.I.3.{ | t.m.8.I g 2 + + ; 1 6 I.I.*.I.I.I.-.~ I.I.I.I.I.I.I.I.I.I.I.I.D k I.p > O & I t.I.I.I.I.",
"I.I.2.C.8.2 O + q +.I.I.I.I.` ..I.I.I.1 > @ @ + + X O + p I.t I.I.I.G i.I.I.F ~ I.f.3.I.f.c.8.I.I.S r w c | I.@ O 3 S D D / e.I.",
") I.5.k.5.a & X w I.I.I.I.I.G 6 ` I.I.i @ % O + @ 1 > : I.I.I.I.*.J , 9 X.0.L L o.y.C.| Q w , 3 6 5 , c I P L > 5 L } Q / e.I.I.",
"> I.6.I.~ L 0 > X < c 9.I.I.k.3 1 I.i , - O O ; ..I.1 @ I.I.I.&.s , + $ + > 5 4 h o.B.h.( Q f O O O i I G #.1 : 0.5.=.I.I.y C + ",
"w I.I.I.P ~ o.B O O @ q | 4.G.L > I.I.I.I.# < E I.I.w , I.I.I.I.I.I.# O O + O O + @ > ; w L Z . . > Y b L I.6 S J.h.6.I.I.5 4 + ",
"V I.I.I.~ c I.r.> # O f I.q.q.L + @ > w I.h 2.I.I.I.c I.I.I.I.I.I.I.w 1 D  .1 @ > s 1 I w @ 2 0 9 H A S ~ I.6 3.>.I.i I.I.h N O ",
"% O D I./ G I.I.o.@ @ D I.I.} A % + h I.I.I.I.I.I.I.I.I.~ s J I.I.I.l.I.I.I.1 > _ I.h > o 2 3 $ i 2 F I.I.I.I.G Q I.I.G J 9 9 + ",
"O s I.I.g...I.I.I.I.h 5 I.I./ S 5 @ I.I.-.D.I.I.I.I.v s w r ,.I.*.D w x I.I.5 s I.I.e.I.u X 8 > z X.<.I.I.I.I.s D I.I.o.} 2 $ 8 ",
"#.I.I.I.| I.I.I.I.I.I.%.I.| G e.A O 3 I.' a 7 i s c 6 6 w } b I.| 1.< w E E m I.I.I.I.I.3 9 N B Y <.,.I.z.I.D w I | I.{ 0 0 9 2 ",
"u M @.D % L { | I.I.I.I.I.1.I.I.[ % + I.I.Z % % % + % 2 } b } I.! h.S > > x +.I.I.I.I.3 + 4 9 Y I.A s D h p 3 > I #.I.K K % . $ ",
"5 D 8...; + , S b.I.I.I.I.I.S i I % i I.I.I.I.O o   + H G l I.I.*.C.D.* , ..I.I.I.I.I.% u 9 2 C 9 > q I.9 + o 2 F L I.b K O $ : ",
"I.I.I.I.I.a.% @ g R I.I.I.8.} D J J s I.I.I.V + o O B A l c I.I.1.G.q.g @ 1 D I.I.I.I.J I.I.9 3 % f I.I.I.C o i z G I.I.F 4 z #.",
"I.I.,.| 3.c k %.E I. .D I I <.I.I.f S c @ I.> B 0 g A K Y I I.f.6.q.r.B + + * @ 1 t 9.i S I.S N + I.I.I.I.0 8 h z I.I.P k r D I.",
"5.4.y./ r I.I.I.I.I.F F A i d 9 i 3 3 O O 2 9 $ % a 4 F I.I.I.e.I.| <.w + O > 1 w s ~ ~ o.K 9 9 O 8 M w.3 % 2 9 g w.I.| r E 5.6.",
"V.J.t.> r I.I.I.s e i 2 % 9 % 2 d % + u : o O 2 4 K L } I.I.I.I.I.P o.i * O i I.I.I.I.u.X.K 2 % 2 + L J + : $ 9 0.8.I.+._ I.I.s.",
"0.o.2 > L I.I.I.I.S r > O + 9 : = Y U I.2 $ T 8 0 I r.<.I.I.I.I.{ / I K i O 1 I.I.I.I.I.F 0 8 0 9 ..I.I.I.> d g T <.,./ / I / 3.",
"a % > 1 D I.I.I.I.I.I.J @ ) I.@ * I.I.i + 9 9 K ' I.} } I.I.I.I.~ c L c.a + + e I.I.I.*.z B O o I.I.I.I.I.9 9 S I.p L I.c I F 7 ",
"X + r I.{ I.I.I.+ q I.I.S I.I.I.I.I.I.% + 4 4 B I.I.s w f y I.q.( D I.u.H $ O @ s x.I.F F 9   + % 3 #.I.I.* , 9 I.] I.I.I.<.9 % ",
"+ % w I.I.I.> 3 + h I.I.I.I.( w r I.V * Z d > I.I.I.I.i u , 9 } t i I.I.X.> O + > O.I.~ ~ , 5 D L n.8.I.I.* V > I.I.I.I.T 2 $ + ",
"h < > I.I.I.i 3 2 f I.I.I.I.>.S , w c e.I.I.I.I.1 ) I.I.g 3 4 $ * L I.I.{ % O i I.I.I.P z r c I.I.m.b I.I.v V I.I.Q L 4 : O + D ",
"I.h 5 c I.I.Y g 0 $ O 3 ;.I.5.D.> >  .I.I.I.I.V w s I.I.H 2 0 $ h I.I.I.c i > c I.I.I.+.r _ =.I.I.~ ; 5 s , _ I.I.I.5 + + + k I.",
"I.I.x q l @.B 8 $ 4 O o.I.I.k.M.a : k I.I.I.I._ | } I.I.g H d O I.I.I.I...I.V e I.I.I.I.I.R I.I.I.r + O + 7 I.I.I.I.5 , @ >  .I.",
"I.I.a.D | 0.K 2 & 2 N I.I.q.c.5.S O @ : > t 9.I.8.7.<.a & d . + * M I.I.I.I.I.G I.#.j ..I.w h I.I.< O @ % > h ..I.I.I.I.k G I.I.",
"I.I.I.I.r.I 5 g 9 2 I.I.I.I.I.,.i % + , 1 h ^ I.t.I K 0 %   8 :   + i *.D.I.I. .s w r | I.> 3 J k O o @ 9 9.3.I.I.I.I.I.I.{ I.I.",
"I.I.I.I.I.G g d o o 8 , I.I.~ | h > + J I.I.I.I.I z : g & g 8 O # } n.D i w a s q w ~ P I.1 : - @ + & L Z.I.I.I.I.I.I.I.I.r s I.",
"I.%.I.I.I.Y S i   O > I.I.-.~ L } h O i I.I.I.I.L F A d 8 4 9 K -.I.I.I.8 + + + @ L b I.I.I.@ O O 3 X.t.I.I.I.| { I.J r w r |  .",
"I.p J I./ b K a + w _ I.I.4.c o.I.B + + t I.I.I g A H O . X I.I.I.I.I.I.I.%     g L c I.I.S + O 3 0 F I I.I.9 > > 4 4 , p I m 4.",
"i * > S I.L F h 6 J I.I.) 6...I.I.[ * O @ / I.l b I 2   X O % M I.I.t.J g & + 9 K l I.I.6 1 + g z { } } c x Q q O O . > I b } w ",
"@ O & t.I.*.L s r I.I.Z % ..I.I.I.X.@ @ f ` I.l F S + + % * > , a D > O 2 N 8 A A I.I...1 > p t.0.~ R ~ / 6.f.V   . $ K F l $.w ",
"w o & i.I.| ( w I.I.d 2 + ` I.I.I.F i > %.I.<.b | 3 1 w c l c 8.8.' = % % o 2 9 z I.I.c 6 3 J.V.k.I.I.w.3.7 @ & d 3 A A z [ $.I.",
"S + i o.L G 6.k I.M 3 5 + I.I.I.I.I.I.I.I.I.~ } s 6 r I.I.I.' ~ A.I.I.@ 2 9 0 <.| I.I.h 1 o.M.6.5.2.I.V O X 2 d $ 9 9 g P _ _ I.",
"# O , K / I.I.I.I.I.g K O % + h I.I.I.I.I.I.{ ~ w s I.I.I.I.t b } I.J @ H d H [ 8.+.I.W c ,.! I.I.I.I.I.I.% O $ : 0 L I w.v 1 > ",
"; + 5 | ..I.{ V I.I.B d . & + r.I.I.6 w I.I.N.s t I.I.I._ s w G P ~ * % 2 A I.I.b D I.I.I.I.I.I.I.I.I.I.I.5 2 H 0 g <.o.t.I._ p ",
" .; h h.k.9.) w I L 9 $ 9 % V I.I.2.i 6 k I.I.I.I.I.I.I._ r , [ G C + y 2 M I.I.q I.I.I.I.I.] F b I.I.Q h + 9 9 S I.L o.~ I.I.I.",
"t ; s J.3.I.I.~ o.0.a = N 9 I.I.| 5.3.; > r I.I.I.S.o.S w % 9 F l I.I.I.y I.{ I._ I.d.s.I.e.n 1 6 q q t @ + 3 i ' I._ w h I.I.G ",
"I.h , q.3.I.I.I.t.z 5 d o + M 2 h y.P.> > J I.I.8.L 3 % + o g S b ~ I.I.S I.h 8.I.I...g.I.I.>.D @ ; 1 s @ q > ; Q s.I.5 I.I.I.I."
};
