/* XPM */
static char *leaves_jungle[] = {
/* columns rows colors chars-per-pixel */
"64 64 254 2",
"   c #091107",
".  c #0C1509",
"X  c #0F190B",
"o  c #121E0D",
"O  c #14220F",
"+  c #162111",
"@  c #192612",
"#  c #1D2E15",
"$  c #192018",
"%  c #1F2B1A",
"&  c #342117",
"*  c #382518",
"=  c #332F1B",
"-  c #24341B",
";  c #25381C",
":  c #273521",
">  c #293325",
",  c #2C3D23",
"<  c #2F3D2A",
"1  c #30372D",
"2  c #363F32",
"3  c #462F1F",
"4  c #47301F",
"5  c #433123",
"6  c #493221",
"7  c #4E3E2A",
"8  c #563B25",
"9  c #593C26",
"0  c #523B2E",
"q  c #493A31",
"w  c #543D31",
"e  c #2F4225",
"r  c #314426",
"t  c #344927",
"y  c #34452A",
"u  c #36492B",
"i  c #3B4E2C",
"p  c #3D512D",
"a  c #384334",
"s  c #3B4C32",
"d  c #3D4B39",
"f  c #3E5232",
"g  c #5A4027",
"h  c #5F4529",
"j  c #5D4828",
"k  c #41542E",
"l  c #42592F",
"z  c #4E4039",
"x  c #414C39",
"c  c #4D4B3B",
"v  c #544137",
"b  c #584032",
"n  c #5D4A36",
"m  c #54433A",
"M  c #59463D",
"N  c #5F493E",
"B  c #425533",
"V  c #455933",
"C  c #495D36",
"Z  c #43543A",
"A  c #48553C",
"S  c #465A3A",
"D  c #4A5D3C",
"F  c #505E3F",
"G  c #614529",
"H  c #654A2C",
"J  c #6A4A2D",
"K  c #6A522F",
"L  c #614C33",
"P  c #634E3C",
"I  c #665332",
"U  c #6D5431",
"Y  c #725231",
"T  c #745B35",
"R  c #735D3A",
"E  c #4D613D",
"W  c #51653D",
"Q  c #54693D",
"!  c #7A6137",
"~  c #73623E",
"^  c #464C42",
"/  c #484F45",
"(  c #5E4D44",
")  c #465641",
"_  c #4B5443",
"`  c #475A42",
"'  c #4B5C44",
"]  c #4E5749",
"[  c #4D5D4A",
"{  c #555240",
"}  c #515C41",
"|  c #515D4C",
" . c #5D594C",
".. c #505F50",
"X. c #695247",
"o. c #6D5C45",
"O. c #63524B",
"+. c #6D564A",
"@. c #6D5B4B",
"#. c #6C5B55",
"$. c #6D5E59",
"%. c #715C55",
"&. c #4E6243",
"*. c #4E634A",
"=. c #526444",
"-. c #566A44",
";. c #596D44",
":. c #53644C",
">. c #5B654D",
",. c #556A4C",
"<. c #5A6C4C",
"1. c #5D7145",
"2. c #5D714C",
"3. c #556553",
"4. c #596554",
"5. c #566952",
"6. c #5B6C54",
"7. c #5E675A",
"8. c #5C6D5A",
"9. c #5D7153",
"0. c #5E725B",
"q. c #776A43",
"w. c #7B6946",
"e. c #627746",
"r. c #637847",
"t. c #62754D",
"y. c #657A4C",
"u. c #687D4E",
"i. c #7D704B",
"p. c #616557",
"a. c #626D55",
"s. c #6D635D",
"d. c #626E5B",
"f. c #6F6E5A",
"g. c #706657",
"h. c #73625B",
"j. c #627454",
"k. c #6A7455",
"l. c #667854",
"z. c #697B56",
"x. c #63745B",
"c. c #69755D",
"v. c #66795C",
"b. c #6B7C5C",
"n. c #797252",
"m. c #717659",
"M. c #72785F",
"N. c #5F6F60",
"B. c #646E61",
"V. c #766560",
"C. c #796762",
"Z. c #706C64",
"A. c #7A6B64",
"S. c #7D6E68",
"D. c #647462",
"F. c #6B7564",
"G. c #667A62",
"H. c #6B7C63",
"J. c #677769",
"K. c #6C7769",
"L. c #6C7C6B",
"P. c #707666",
"I. c #717D65",
"U. c #7E726A",
"Y. c #727C6B",
"T. c #787A69",
"R. c #6F7E70",
"E. c #757E73",
"W. c #787F71",
"Q. c #846A3D",
"!. c #846C40",
"~. c #836F4C",
"^. c #83724B",
"/. c #8C7349",
"(. c #8E7752",
"). c #8A785E",
"_. c #8E7D65",
"`. c #81726D",
"'. c #85796D",
"]. c #847671",
"[. c #837A72",
"{. c #897C76",
"}. c #8C7F7A",
"|. c #6E8357",
" X c #6E815C",
".X c #71845E",
"XX c #6E8164",
"oX c #6E816B",
"OX c #728364",
"+X c #768863",
"@X c #7A8B66",
"#X c #73846B",
"$X c #78856C",
"%X c #77896B",
"&X c #7A8B6C",
"*X c #7F906E",
"=X c #758473",
"-X c #7A8473",
";X c #778870",
":X c #7C8C73",
">X c #768378",
",X c #7A8479",
"<X c #7D8C7A",
"1X c #7F9075",
"2X c #7F9078",
"3X c #97886F",
"4X c #858276",
"5X c #818E76",
"6X c #818C7B",
"7X c #968972",
"8X c #819274",
"9X c #83937C",
"0X c #88967D",
"qX c #87987E",
"wX c #89997F",
"eX c #96947F",
"rX c #A89475",
"tX c #7E8D80",
"yX c #838C81",
"uX c #8C8E81",
"iX c #869482",
"pX c #8A9584",
"aX c #879881",
"sX c #8C9C84",
"dX c #889588",
"fX c #8D9B8A",
"gX c #909F87",
"hX c #9A978A",
"jX c #919E8B",
"kX c #939C92",
"lX c #8FA08B",
"zX c #93A28C",
"xX c #95A493",
"cX c #98A695",
"vX c #9AA995",
"bX c #9AA699",
"nX c #9DAB9B",
"mX c #A0AE9E",
"MX c #BFAE94",
"NX c #B9AB98",
"BX c #A3B19F",
"VX c #A1AEA1",
"CX c #A4B1A3",
"ZX c #A5B2A8",
"AX c #AAB5AB",
"SX c #ACB9AC",
"DX c #AFBBB1",
"FX c #B2BDB4",
"GX c #C8BBAB",
"HX c #B6C1B8",
"JX c #BAC5BE",
"KX c #BFC9C4",
"LX c #C3CCC7",
"PX c None",
/* pixels */
"D.3...8.6.PXxXSX8XPXPXqXsX&X&X.X Xb.PXH.sXCX*.>.PXdX=X:.[ 4.3.L.G.PXPX,Xv.G.=XE.J.PXPXF.tX=XL.L.XX-.fXJXj.B...H.9.PXPXPXiXL.` N.",
"=XF.3.4.4.d.#XsXPXPXzX0XqXpX&X+X.Xl.b.PXfXLXfX6.6.<X6.[ J.6.[ 8.7.x.PXPX0.x.=XE.PXPXPX8.>X>XD.8.6.C >.v.-.- > 6Xx.} PX;X=X5.3.=X",
"PXPX8.0.:.:.c.=.PXCX:X8XkXPX:X@Xb.v.<.c.PXkXnX:X8.D.*.D.,XPX3.x.4.5.d.PX6.E.PXPXPXD.' ..>XPXD.3.5.v.v.V D f @ f l.B i a.x.[ 8.PX",
"PX,X4.PX5.:.a.PX%X8Xb.6XPX#X@X@XPX| -.=.F.PX>X,.G.5.*.D.PXPX8.D.6.*.:.F.PXPXPXyXL.[ [ 3.oXPXPXY.6.6.PX=.9.V e u a.V V i [ :.L.PX",
"PX<X4.PXPX5.6.PXlX1XM.PXb.z.&X8XG.PXZ xX=.PXPX&.*.:.>.PXPXPX5.K.Y.*.:.d.PXPX6X<X:.3.N.[ 8.8.L.PXI.&XPXPXPXS s y -.W PXPXf 5.PXPX",
"PXtX8.J.PXH.Y.PXzXPXPXI.b.T.0X8Xb.6.PXAX#X%XPXPX<.*.v.PXPXPX6.D.PXv.>.6.PX=X#X8.3.oXPXB.8.5.>.c.H.<.V &.-.&.f e Q =.c.PXPXF.PXPX",
"PXyXH...> a PXPXPXPXI.OXPXPX8X8X:XXXx.9XfX;X*.&.-.:.PXPXPXPXD.7.E.d.: 2 PXG.0.=.>.PXPXL.D.6.| OXOXPXPXPX=Xj.D C ;.Q 2.<.b.G.PXPX",
"PXiXfXxX< . o / PXC k x.PXPX8X8X%X:XiXoX9.oXx.9.5.PXJ.PXPXyX=X=XfXnXZ . + [ -.B S PXPXJ.d.PX:.6.6XkX9X1X#X9.C ;.1.k.F.PX-.OXY.PX",
"fXxXiXXX:Xs O # PXC k i PX;.jX5Xj.;Xv.;X' <.' 8.0.8.;X<X0.PX:X9XfX0.H.[ + u <.k p V PXL.4.PXL.l.vXsX9XCXPXPX2.r.l.z.l.PXPXPXj.PX",
"PXPXPX7.u 5.f - PXV C V i F FX9XPXPXx.L.PXL.PX*.L.D.oX;X#XG.;Xx.v.PX_ &.Z t 6.C E C B L.6.E.>X9XBXlXPXPXPXpX&X.Xb.I.b.XXj.F.PXPX",
"%XXXG.F.0.S u u PXV <.I.=.B -X:XD 5.G.XX,.8.5.8.N.G.0.0.0.b.#Xb.9.6.6.E r r Q E PXPXPXL.x.=X'.[.BXPXPX9XsX8X%X.X.Xb.PXPXSXv.j.#X",
"<.S V &.*.S p t W V PXPX>.<.S D V G.G.oX8.5.4.8.D.R.L.PXPXb.j.E C x.6.D f t e.W <.<.c.iXx.[.`.C.U.jXvX9XsXPX5X.X Xj.c.PXAXsXH.v.",
"x.PXPXPX#X9.f r r.Q ;.<.2.b.#XD V *.6.L.L.0.0.PX8.=XtXoX#XXX,.PXPXY.oXj.C E -.Q e.t.j.#XP.4X].V.C.uX:X%XPXPX&X+XL.*.<.PXPX:Xb.b.",
"PXPXI.<X#X9.&.f u.Q t.2.2.j.#XG.&.5.D.0.PXPXPXPX3.J.J.R.D.x.cXfXaX9XH.-.E 1.1.j.PXPXPX<.4X].}.C.%.#.OXPXPXb.8X+XPXPX;X-.PX8XA Y.",
"CXzXaX:X%Xx.=.Q u.t.H.I.,X<.E XX6.,.PXPXPXPX' ' [ J.PXPX,.sXcX8XxXAXPX<X2.y.l.z.b.x.PXj.`.U.].h.$.#.T.PXb.PXpX@Xl.PXL.cXH.PX8XHX",
"1XsXSXPXPX-Xl.z.t.z.b.z.k.Y.PXD 9.PXPXPXD.x.*.[ 5.J.6.PX:XnXcXsXPXPXPXqX%X|. XPXb. Xj.9.U.C.`.$.#.#.Z.b.b.PXqXOX:XPXPXcX%XXXnXsX",
"aXPXPXPX5XqX:X.Xz.#Xb.b.OX6.j.PXPXPXPXoX<X3.` N.*.3.D.*.:XSXsXPXPX9XsX1X%X.Xm.I.PXPXnX<XU.h.`.%.#.$.s.#Xx.M.qXOXpX#XPXPXj.sXBXvX",
"#XPX$XqXsX5X%X.X.Xb.PXY.8XAXH.' PXPX0.;X0.*.R.0.*.3.5.4.,.&X<XPXzX8XlXyX*X+X Xl.G.PXPXFX{.h.A.%.O.%.$.:Xa.<.mXOXPXG.#XPXx.zXSXqX",
"PXPXzX5XzXPX&X@XXXb.j.PXPXFXZX=XA x.G.0.*.8.5.PXD.8.6.3...` :XnX&X8XPXPX*X+XG.<.;.F.PXpX}.$.A.%.O.h.#.-X<.j.AXH.PX| H.F.PX#X+XPX",
"mXvX%X9XPXPX8X@XOX2.2.<.PXPXnX#XH.PX0.6.*.*.PXPX0.4.PX,.*.:.%X1Xz.PXPX X&X+XPX_ G.-.j.H.].`.A.X.( +.#.p.=.&.E =.:.PX9XF.PXPXa.8X",
"vXOXz.PXPXM.+X*X-XPXD x.<.PXPX<.6.PX,.:.,.3.PXPX0.5.0.PX:.>.sXgX$XPXb.b.wX+Xj.PX5.VX=.PXA.%.M b m X.O.PXF.j.V =.V PX< PXPXPXPXb.",
"8X8XI.PXz.l.*X8Xb.PXd cX<.Y.PXPXs PX0.6.Z X $ PXoX3.:.PXx.5.9XzXPXb.b.PXsX+XH.c.PXFXc.iX`.v m 0 w P O.F.PXPXPX;X;X6X% X ^ PXV j.",
"p #XPXb.b.PX0X8Xb.PXPXdXbXv.PXPXPXPXiXcXcXs . o d G.C k E ,.PXl.c.5XF.#XsXM.sX#X,X;XG.#Xg.m m w M N  .:.PXPXPX6XfXj.H.; # PXB k ",
"<.B =.%XPXPX8X8X:X#XPXPXcXH.L.PXPX:XsX<X6.:XZ + - H.V p p =.PXPXc.$XP.2.cXH.yX#X6XPX<.Y.a.m m m M ( P.:.x.PXPXE.PXPX` &.< 6.C W ",
"PXPX<.$XPXb.8X8X6X9X6XPXPXx.PXPXPXPXPXPX7.y :.Z ; 6.l E V i A PX$XOXx.-.FXk.PX6.v.,XH.PXY.{ q m v p.PXv.F.PXXXv.6.=.&.f u E E PX",
"<.t.;X=.PX-.zX9XPX<Xx.6XPX<.PXPXH.&XH.G.v.6.S y u [ l =.PXPX| ' #X$X-.<.CXv.c.3.oX9.PXPXPXPXm q  .0.,XT.PX:Xb.PXPXPXx.D u 1.Q ;.",
"b.j.j.#Xv.=.FXsX:.&.x.XXPXH.PXXXb.<.V V E *.S p r Q l t.PXPXPXH.;X=X*.' &.E D PX=XH.PXPXPX=Xc M _ x.x.=.PXPXPXyX6X;Xb.-.V r.2.PX",
"j.PXPX=.<.6.fX2XV <.x.oXa.PXPXXXOXF.PXPXPXoX<.f t r.Q ;.2.<.v.:X_ yXE.a.B =.S F.>.=X<XsXbX9X6Xc + x PXk f k.cXsXlXPXPXb.2.y.l.b.",
"b.#X6.<.<.5.S E B <.0.;X,.oXXX#XPXPXPX%X2XXX9.E B u.;.PXj.2.2.#XL.PXPXPXPXH.5.K.G.;XL.G.PXPXs 6.y s PXV V i 8XsXPXPX9X8X+X XPXv.",
"PXfXVX,.5.PXB ;.V Z ` 5.D.=X<XXXnXSXlX1X9X2Xv.&.;.r.t.b.PXPXPXD l.H.x.0.4.6.3.K.,XPXXX#XG.L.x.V s y =.W PX#Xv.PXPXsXqX8X+X Xb.PX",
"PXPXAX9X6.PXPX0.S PX6.R.G.=XoX1XnX9XzXHXPXPX;Xb..Xl.z.b.l.l.PXPXD 6.N.N.8.0.8.J.>X#Xv.;.B &.,.' p t ;.W a.k.#XxXgX8XPXPX&Xb.l.<.",
"-.F.PX0.6.v.D.x.8.5.3.D.0.PXXXcXCXwX9XPXPX8XsX&X|.z.OXPXb.%Xj.,.8.oX>XE.PXPXPXD.tX&XH.x.a.v.#X9.V W Q ;.t.2.H.G.l.PXPXOX@XPX` j.",
"AX9.0.G.5.x.N.N.8.8.8.J.=XoX;XvXCXOXPX;XlXqX5X%XOX.Xb.PXPX<XSX;XS x.PXPXPXPX4.8.E.,X<XfX9X2X#X;.S 1.;.v.PXPXPXOXH.PXk.+X8XPXPXD ",
"cXiX;XG.8.L.>XG.PXPXPXN.>XtXL.OXOX0.sXzX@XzXPX:X+X.Xb.l.PXPXFXAX:X' PXPXK.:.[ 8.E.$XnXaXaXCX8X#X9.y.l.z.l.H.PXPXj.OXP.5X0XOXD.PX",
"PXPXXX6.6.0.0.PXPXPX` 5.J.D.G.*.,.xXnX%XqXPXPX:X@XOX9.<.<.PXPXVX;XoXE.>X5.` 5.3.oXsXVXsXiXx.H.qX%X|.b.PXb.XX9.j.>.#XPXOXpX8X:XyX",
"yXPX9.,.6.PXPXPX0.' &...L.PXPX*.,.sX+Xm.PXPX.X@X&XPXPXD j.<.PXPX0.,.iX0.[ N.4.[ x.fXCXPXPX9XsX8X%X.X XPXPX<XVX<.=.OXH.OXfXPXL.OX",
"H.] PXPXPXPXPXL.0.' 3...E.5.PXPXx.cX:Xl.PXPXz.8X8Xb.PXPXcX6.H.PXK.f G...N.,XPX4.d.9.9.8XxX6XgXPX*X+Xb.j.x.PXAXxXH.6.<.bXcXa.3.v.",
";X% % PX=.i <.F.[ 8.PX[ 3.0.*.PX6XvXzXPXb.b.PX0X8Xz.6.PXPXVXj.PXH.0.6.*.0.PXPXx.G.6.:.fX%X&XPXPX&X+XPX&.<.H.PX<Xj.P.=.,.<.=.xX<X",
"H., @ | ,.k p A 5.oXPX*.8.5.8.} A fX>.a.%XPXPXqX8X5XOX=XPXcXH.K.3.< a >.Y.PXPX8.F.PX9.zXOXPXPXz.8X+XPXPX:X-.PXPXs PXPXD =.S -.Z ",
"s <.< ` &.V E f f PXPX5.8.,.] 5 * g = >.OXPXb.9X&X6X9X<XPX6.j.fXyX-   @ PXPXC B 8.PX$XvX8XPXb.PXsX+Xj.PXY.cXL.PXPXPXPXPXPXd.PXx ",
"-.f t u Q Q ,.5.&.PXPX0.3.PXn 5 & 9 3 k.k.H.;.cX:XPX<Xx.6X:X<.;X;X;Xe + - PXk k i a.PXzXb.I.c.PXgXOX;X#XPXcX:XPXPXPXH.#XH.6.x.x.",
"&.A p l W E -.,.H.PXPXH.4.a.n g 3 J 8 m.G.l.c.JXiXPXPXx.L.PXc.yX:.a G.y ; PXB C k i PXH.PX#XPXb.jXI.fX#XPX6.v.PXPX-Xb.j.D V 6.-.",
"XX,.f Q Q -.2.j.x.oX` =X3.c.P H 3 J G L k.;.Y.bX8X=.PX6.XX9.x.d.PXa.f Z r 6.V ;.<.a.i PXPXOXPX<.SXb.PXv.#XPXx.PXPX5XOXPXPXPXPXoX",
"9.&.f |.;.b.PXPX-.b.G.<X8.f.@.R 6 Y h H R =.} =.=.B PXx.9X9.<.<.,.:.D f t E V b.c.v.PXPXPX0X<.Y.HXk.PX:.G.K.PXPXPXPX6XmXiX9X8XXX",
"iXH.-.u.l.z.l.PXPXPX-.;XG.f.o.L H Y H K ~ PXH.f =.V PXj.<.j.} 5.=XH.-.p , r.W -.<.<.OX>XPXPX=.<.<.=.- > dX,.S f.PXPXsXvX1XzXCXkX",
"9X9X X.Xb.PXb.b.9.PXPX,.x.c.).^.U T K ! q.H.XX,.I.S PX%XPXPXPXL.,X#X9.E V y.Q <.1.t.v.#X3.jXnXI.B =.p @ Z F.k k ,.5XBXzXzXPXPX,X",
"9X&X+XOX XPXPX#XVXx.>.&.9.L._.w.j K T Q.n.oX>X<XPXPXPXPXxXAXlXqX:Xv.9.E -.y.2.PXPXPX=.;.I.PXPX,XS d <.- k f.l l i $XSX8XPX-XqXsX",
"fX6X&X X Xj.PXPXAXnXoX| PXPX7X3XI ! T Q.F.oX=XG.v.0.PX@XBX<X9XCXZXPX<Xj.y.2.|.z.l.v.PXPXC H.G.d.PX:.i Z y <.C a.x.x.PXPXfXzX8XzX",
"PX&X8XOXj.6.-.PXPXkXG.x.6.D.eXNX~.Q.!.^.J.PXPX0.*.,.PXlXmXsXpXPXPXPXqX:X Xb.OXb.b.H.6.j.x.x.<.<.-.*.S i t W E PXPXPX<.6XnX&X8XPX",
"OXM.8XOXPXf H.=.PXPXD 6.#Xx.L.GXrX/./.M.K.<XoXG.PXPXPXnXBX#XPXPX8XlX1X%X.X.XI.PXH.8XmX9.E <.:.PXPXv.&.t t e.Q ;.;.j.9X<X%Xz.PXPX",
"t.OXwXz.PXPX<X:Xx.PXPX:.8.D.>XsXMX/.i.5.L.tX=XD.0.9.,.OXPXPXPXgX8XsXpX&X+X.Xl.v.PXyXKXVXH.' PXPX;XXX;.S ;.;.-.;.2.j.b.zXsXOXPXz.",
"PXPXzX+Xb.PXPXFXx.,XPX6.5.9.0.PXhX(.' 3.D.D.0.N.8.5.0.-.PXxXnX#X&XPXPX&X@Xb.l.<.PXPXPXZX:Xv.zX9X;Xx.,.D t.1.l.Y.PXPXE sXzXPXM.b.",
"PXOXzXOX5X:XPX<XH.=XPX,.5.PXPXPXPX:.' [ L.PXPX5.*.*.6.5.PX9X#Xz.PXPXOX%X@XPX| =.<.PXPX&Xx.G.sXFXPXPX%X2.|.y.z.b.j.Y.PXH.l.c.&Xc.",
"b.k.mXc.pXG.PXPX<.PXPX` + < PXL.H.=.[ 5.N.v.PXPX9.5.9.5.b.zX#XPXPXb.z.&X8XPXPXs jX=.#XzX9X=.sXPXPX9XqX#X Xz.OXb.OXv.<.PXPXx.#XPX",
"W 6XHX<.PXx.H.PXG.iXfXcX` X o d :.V B D ..8.8.v.G.0.,.,.v.zXzXPXM.b.PX0X8Xl.PXPXfXfXv.vXCX#XPXPXsXqX:X+X.X XPXPXH.vXfX=.<.z.I.v.",
"E :XFXD PX| XXx.c.6XiX>.v.,.+ ; :.k k i [ 0.G.=X;XD.9.5.x.zXOXH.%XPXPX8X1X:X#XPXPXnXH.,XOXPXPXsX1XzXPX&X+X Xl.PXPXcXKXpXx.[ H.2.",
"C ' =.D x.7.9Xx.PXPXPXPX) A *.; :.l C D i D 0.H.J.D.D.4.[ G.>.<.&X#XH.&X:X6X:X9XPXPXx.:XPXPXfX%XsXPXPX8X.XH.6.-.F.PX<XpX#X3.*.S ",
"F.&.D D ' L.=.XX#Xv.6.8.6.D e t V l PXG.5.' &.| :.,.PXPXPXD.J.x.XXH.;.sX:XPX<Xv.iXPX<.PXPXsXOXb.PXPX.X8X+XPXZ v.=.F.PXF.D PXPXPX",
"6.B.F.x.x.x.b.v.j.D B -.*.D f r Q C =.j.6.Y.j.0.x.0.0.8.4.5.L.#XOXv.=.CX6Xx.6.x.XX6.v.PXY.cX8XPXPXPXb.sXm.x.PX5.cX=.Y.G.Z 0.8.6.",
"8.0.K.6X6XPX:XOXPXPXPXPXH.9.D i u.Q ;.2.2.H.G.6.0.N.N.4.N.0.L.>X#X6.I.bX6X,.L.x.H.<.6.PX6XvXgXPXPXk.PXzX+Xb.PX4.JXx.9XD.N.N.4.8.",
"PXK.E.tXL.D.G.Y.jX<X1X<XXX<.C C r.;.PXPX9.<.&XG.=X=XR.E.PXE.J.yX=X&.&.E =.S ,Xx.9X3.6.R.Y.fXI.b.H.PX#XxX.X9X#XPXdX;X;X8.>X#XE.PX",
"8.3.K.,XK.5.9.aXmX9X9XnXfX#X,.2.t.l.b.b.H.<.V j.=XPXPXPXPX4.D.>X=XD.:.p W V 4.[ 5.PXK.K.G.oXv.b.b.PXy.mXb.yX#XPXPX;.Y.H.PXPXPXPX",
"` ..J.PXPXF..XmXzXxXcXPXPX1X%X|.z.b.XXz.j.j.,.<.PXPXPXK.[ [ D.E.PXK.3.*.x.B 5.x.8.5.4.D.=XPXY.#Xj.x.k.FXl.PXH.H.PX6.H.PXPXPXJ.[ ",
"4.3.B.G.PXPXzXZXsX:XPXPXqXsX#X.X.XY.L.z.iX2.=.PXPXPX<X6.) 4.8.L.PXPXPX5.>.x.8.d.8.8.8.J.=X6X6X0Xb.-.uXLX<.PX3.v.#XF.PXPXPX<X6.Z "
};
