/* XPM */
static char *leaves_spruce[] = {
/* columns rows colors chars-per-pixel */
"64 64 134 2",
"   c #1B1D16",
".  c #1D1F19",
"X  c #1F221A",
"o  c #23251D",
"O  c #25291E",
"+  c #262720",
"@  c #282720",
"#  c #272A21",
"$  c #2A2C23",
"%  c #2E3126",
"&  c #2F3229",
"*  c #303427",
"=  c #32352A",
"-  c #38372E",
";  c #363A2C",
":  c #393D2F",
">  c #3B3D32",
",  c #3C3E39",
"<  c #431901",
"1  c #481D02",
"2  c #531E00",
"3  c #581D01",
"4  c #4A250F",
"5  c #522102",
"6  c #5A2401",
"7  c #5E2E07",
"8  c #5B320E",
"9  c #4C2D14",
"0  c #572F14",
"q  c #583716",
"w  c #622402",
"e  c #6A2300",
"r  c #642A02",
"t  c #6A2C03",
"y  c #722500",
"u  c #732E02",
"i  c #773205",
"p  c #7B3304",
"a  c #7A3508",
"s  c #453B28",
"d  c #523C25",
"f  c #3B402F",
"g  c #3D4233",
"h  c #3F413A",
"j  c #7D451A",
"k  c #5E4427",
"l  c #414535",
"z  c #4A4737",
"x  c #434937",
"c  c #43453A",
"v  c #464A3A",
"b  c #494D3D",
"n  c #5D4E33",
"m  c #584D3B",
"M  c #4C523E",
"N  c #51533F",
"B  c #6B4E2E",
"V  c #714F2D",
"C  c #624E32",
"Z  c #634D39",
"A  c #6B5439",
"S  c #705438",
"D  c #454740",
"F  c #464942",
"G  c #4B4D43",
"H  c #4D4F48",
"J  c #514E45",
"K  c #4E5242",
"L  c #4E514A",
"P  c #515544",
"I  c #5A5542",
"U  c #545A45",
"Y  c #595E47",
"T  c #52554B",
"R  c #58554C",
"E  c #565B4A",
"W  c #595E4B",
"Q  c #545651",
"!  c #565951",
"~  c #5A5D53",
"^  c #5C5E59",
"/  c #635644",
"(  c #5C624C",
")  c #5E6253",
"_  c #5E6159",
"`  c #686247",
"'  c #61664F",
"]  c #6D6549",
"[  c #62684E",
"{  c #616553",
"}  c #656A54",
"|  c #696E56",
" . c #62655B",
".. c #666A5B",
"X. c #696E5B",
"o. c #6B7057",
"O. c #6C715C",
"+. c #71755D",
"@. c #74785E",
"#. c #636660",
"$. c #666A61",
"%. c #6A6E62",
"&. c #6D7262",
"*. c #6E716A",
"=. c #717664",
"-. c #757965",
";. c #797D65",
":. c #72766A",
">. c #767A6A",
",. c #797D6C",
"<. c #747772",
"1. c #777C70",
"2. c #7B7E71",
"3. c #843704",
"4. c #803904",
"5. c #813609",
"6. c #863B0B",
"7. c #953608",
"8. c #893D10",
"9. c #894319",
"0. c #85491E",
"q. c #984810",
"w. c #915225",
"e. c #7C816C",
"r. c #7E8173",
"t. c #81856E",
"y. c #828574",
"u. c #828679",
"i. c #85897C",
"p. c #8A8D7E",
"a. c #909385",
"s. c #959885",
"d. c #96978E",
"f. c None",
/* pixels */
"%.H H f.f.f.K : M { { -.&.&.{ l x o.f.f.X.X.P l } U O.f.f.! P , E f.f.f.f. .f.E g | r.e.&.p.f.,.+.>.,.=.W =.f.f.f...U K L X.f.f.",
"T H H  .f.f.G h } =.X.&.=.} G c ( e.f.f...} v b [ U W -.f.f.H g P f.f.f.f.f.G c L ;.=.O.} r.X.X.{ { / ,.i.f.f.f.f...E c M E f.f.",
"f.~ ~  .f.f.L b =.O...K W G s K { e.f.f.! P M ( } b Y { f.f.H g E f.f.f.f.E c M ....) ( K ~ W G g ( O.:.f.f.f.f.&.K K K c ) o.f.",
"^ Q ^ 2.! K g { | ) K P : ; L E +...r.f.G K =.| ' v M ( } U K h E f.f.f.K M K K ( P v g h > c l K O.&.} f.f.f.f.L c E ) v E E f.",
"f.1.*.>.f.c g ) W K : g ; P } y.1.) >.E b O.f.@.Y N M ( W P h c L f._ K > G P K : - : ; g x K ! ..=.O.E :.f.f. .h ~ } E E c K ..",
"f.f.f.*.W b K K v - : g M ( %.f.a.| P M E f.-.( ( M P K U P H s E K g c c b g + % f h x M P } :.&._ ..P &.o.&.K K f.f.f.E , b E ",
"..f.f.:.c K P c = & c M { f.^ ^ ..P L } y.y...( ( N U M K b g - P g $ # $ + X % g x M E _ .._ _ _ _ &.L O.| o.U ..,.f.f.f.F h P ",
") f.f.W : K h % % h K { Q _ ~ ^ P K ) :.*.o.P W { M ( K P P P x b - $ # + O % f x U .._ ^ _ ^ ! Q  .>.! E { K U ( ( >.f.G L g b ",
"L f.P x g h o O ; x { ) H  .^ K v U %.f.*.E K f.f.v ) U [ ( M f ; % ; ; ; f M U ( f.f.f.H _ ! Q _ %.%.) b ( U M M U U +.) G c c ",
"x ) ; # O o X ; x U f.f.L ^ T v x )  .f.f.M U f.W c c z o.M ; f f g h ; g M U P ) f.f.f.L _ H ! %.%. .{ z x [ [ M b P ) W K G , ",
"$ K h $ $ % ; x ( E } E P ~ c - c ! f.f.{ b W ) c @ O x N x g M M M ( x ( ) K v U P }  .L b O.-.} ( N q p 8 +.| ( M M P U M b > ",
"c g ; % f ; ; x M x P K b ) } ( T T r.a.X.W P b $ = x N U M M N ( ( | | [ ..( f x M P ) _ } ( ( P M s 2 r p Z @.U M U U b G b M ",
"l : * f x ; % ; * f g M M U [ o.=.&...W =.W x % * x v b P U U ( ( N v @.P P +.( P M M O.O.P ( N : U n 6 a 6.B ( [ P P W P P Y U ",
"= g x M ( M f g M M P P ( ( P E +.-.{ ( | b = : N ( y.f.=.f.f.) ( x K @.x M =.f.| ( ( } ( ( N ; g M d 6 1 t V P U Y P W P [ [ v ",
"f v M U { } f.( ( ( ) o.{ O.o.[ ( | P c M c K E { } O.f.f.f.f...( f M -.g M X.f.f.f.+.| O.( f % g Y k 1 p a A P U ..c ~ z | I x ",
"g M N ( U M f.( g # K f.f.f.f.-.O.O.G P ( ( { { W X.O.X.:.,.>.=.[ g M +.M g ) } f.f.;.O.( x % ; M Y d w i q.] c ) f.z > = M b x ",
"M N ( ( x M &.( b z b f.f.f.f.f.f.f.U b c l b b P P U ) } ) ;.,.E : ( f.U f ( ( | ( K U x x O l } ~ b 5.3.8.( x f.f.x O : z Y P ",
"( +.( ( M f ) } N N ( M M K M ) f.f.f.-.K v Y { ) -.:.r.f.f.f.-.K x O.f.| g M ( K M N N x @ & b f.) c ` w.f.~ b ( E = $ l x N U ",
"f.f.f.=.( ; U +.U l x N W E P b U ( O.t.o.( U ' +.X.;.e.f.f.f.O.P ( e.f.f.M ( ( P M x M W - P b f.P U } f.f.W N W l % : ( | U ) ",
"{ f.f.f.( f P -.( b % : M ..f.f.) { [ [ [ ' b N } -.} ) +.} O.O.| o.( ( M } ( U M g > / [ W P M ..) W f.f.P c P b * = Y W | : g ",
"h G f.f.O.g P e.U ( f O : M f.f.W ( U P N M U U P F } E U ( U N M x M f : M P g f f x ( } K Y K U ' ( e.{ M v Y b ; M W K ( K x ",
"M G P ,.-.b | s.( P ( f $ @ v c K M N M b U W +.} G F &.o.W M b h f ; * % ; g ; % f N U M K P U N ( O.f.X.% * N M U W P } f.f.E ",
"{ U K { o.} +.f.>.U | N l $ * ..W U U K U U O.f.f...v L =.X.' { ( M M M f = - % : b : x b b P P M ( o.e.M % : M Y ( ( } f.f.f.f.",
"f.f.=.g +.e.i.f.f.=.f.( z : x x M U M E ) =.f.f.f.} E M E | ..X.+.-.( g $ $ # + x G > b P E ( K v U [ } x g U ( | } b : f.f.f.f.",
"f.f.f.v b ..f.f.f.f.f.' ( M ( [ } M v W E W f.~ f.E P T E E W { ) +.v % O X + $ f L h G b P { U N b ( Y N b { f.{ N N U W f.f.f.",
"f.f.f.| P b  .f.f.f.f.| N g x ( ( U c P c ! f.L K G c c b P E { [ ( ; O X b h K L G L x L E &.{ ( P N P ' W T >.} M b N P M P &.",
"b } f.f.{ v c P T ) f.O.M M g f P P x b D c h g x L ) U W ( } o.( v * % c M : K L F T g G f.f.f.} } P U | | H >.} U ; x U U K c ",
"K K ) ;.f...P K W P W ) N N v f : x - c K K K U E ( ....1.,.} M g % & x P L g ! c G _ x h E f.f.f.{ P O.X...E -.[ ( f % c ( f.( ",
"f.) ( ( e.o.o.| X.+.o.( ( P N f = g K _ _  .#.$.*._ ^ T &.) M l f - G L P g ( Q h D _ L x L ^ T { c K %.O...E  .' U P $ ; P f.f.",
"K ( ( ( o.o.U P P W ( P ( [ M g = % ; ; ! _ f._ _ _ ~ %.} P = g - M ) } h M H T > D L ( b G E ) K c *._ H ~ } ) X.W ( g $ % P W ",
"K P P M ( o.( x g ; : g h ( ( M : $ $ - P _ _ ~ ! ^ ..( U ; : H P ) O.( v L ) F h F f.) ) b G K x Q  .H D Q =. .,.X.=.z : @ T G ",
"U E U Y x P } o.[ W ( } O.| P ; g $ + > : b ) _ Q _ ) P g G W K } &.-.K K T f.F T G #.&.) K x E L &. .H G ! 2.} ,.f.} x x * b X.",
"M P M L U U { } e.P L 1.f.( g % f % X g K g E P E =.| v b { &.>.&.,.&.h c f.f.O.+.{ ..f.=.P G E ) ..L ^ ..| e.e.f.f.o.U N ( N ( ",
"P P K U ( =.f.f.f._ g ) =.U g f x ; + o K E c c E { U G } ,.u.u.>.f.E c P { O.b U ( X.f.f.( P R X. .Q  .e.( | -.f.f.( P x P [ | ",
"U K K U W f.f.f.f...K G =.( f f P M = o ; L P c l W W  .%.t.f.f.f.f.K v E f.f.W > v U f.f...W W } X. .-.} ( X.=.f.f.( v x l ( N ",
"b l G F K K f.) f.( P P o.M f v ( P f % & b W X.P > x ~ %.2.f.f.f.%.x L $.f.,.O.E c x ( f.r.| W ..&.&.| ( { O.=.=.) ( M M f : P ",
"c > g c c h h g K F c G ) U g P o.) M g $ & P } =.{ v c P  .:.f.f.} G ..f.f.a.,.X.R > b P e.=.} X.,.X.( P ' { ( ( ( ( P M f : l ",
"P P T P L b M M K E K P | N M ( ;.f.{ M x : z ~ =.r.} E c G  .&.f.>.W =.f.f.2.u.r.{ G $ M ( :.=.1.:.} M M ( K : f l ( ( M f * f ",
": = f.f.f...} ) ( { ) O.[ U M } e.f.f.{ x g > T ..-.f.f.{ P ~ =.f.r.u.a.f.f.*.2.,.) K c f v ) e.f.f.) P M [ o.( U M M [ N f * % ",
"$ & P f.f.f.f.f.f.f.$.=.[ U ( =.o.O.f.f.P x : G ) =.u.f.f.,.y.:.! %.f.i.1.*. .%.:...( h : g v U =.f.U M x ( f.f.f.f.o.U M x ; O ",
"$ & b ) f.f.f.f.:.$.>.) U } ..&.) { O.f.X.x ; G ..y.2.f.f.f.=.:.*.#.:.=.E { ..=.,.e...W g & : g M } P g f ( f.f.f.f.P f $ = % $ ",
"+ F : F f.f.f.>.,.,.o.} ) o.X...{ U { f.f.( g z { &.#.:...f.E =.%.Q :...P c c P ) &.&.} P ; = & f M ( g f ( f.f.f.f.M : & g $ X ",
"X x v v ) f.f.r.{ =.O.{ e. ._ &.E P E T f.O.P g J &.&.%. .E b =.f.~ *..... .H b > b U ..P K & X % g v g ; M f.f.f.@.( P ( P ; X ",
"  , P b c P $.,...*... .) ^  ...E G U P f.f.( b g ) O.=.! > E f.%.Q T ~ _ $.) ! K G K g x E L O O X f f * g f.+.| K M M P o.} f ",
"% @ P P h > E &. .=.f.f.~ $. .K E h M ) T f.X.W b v &.) G v E H Q G { ..~ Q ~ ^ _ ~ H K l L b K % X ; ; g [ ( g g f g g v ) } U ",
"- & D W | K H X.W O.f.f.<.} 4 r N c U )  . .f.-.O.( o.G > ( !  ...~ X.&...{ R ^ f.*.~ F } c - c X % % f M ( ( M P ( o.) O.O.( v ",
"g ; > ( ..( v E P  .,.,.%.0 r < 9 ~ b W  .#. .f.f.X.T l W >.=.) .. .X..... .,. .*.Q L H ! L G c $ # % ; f M ( ( ( ( O.) _ X.( v ",
"h : g E &.e.....E X...=.I t 2 < 3 I c K =.$.^ #.*.%.> P { f.X.) ~  .I G :.%...^ P , D , , h , H > g f * f g U P ) ) _ %.Q ! } v ",
"x f f L } =.=.{ G ( | Y C r 3 6 < m h M O.<.#.%.f.H g ( ) } U H P c c v ,.1.1.*.! H L F F c D F T L M : : f M b ( o. ._ T Q  .W ",
"N g g K { >.f.&.U W ( M I a 3.r i / c g } f.*.%.) v K P ) b > > = g M E O.r.1.>.1..._ .._ !  .E D : ; K z : l b P | T T Q Q $.{ ",
"P c : P &.r.f.f.E b P Y b j u 3 a f.G g ) f.f.&.g P P K > = f f b M { %.%.^ T #.r.>.....W ! G c H U h E Y ( M M Y ( v ~  ._ ^  .",
"( b > { r.d.f.f.G > ' | U j e y 0.L c c T f.) G g L K $ % : x M E &.%.#.^ Q  . .=.) { K c x H T c P v P ( [ ' c N M &.{ ..F G ) ",
"f.P g ~ y.X.f.f.P P f.o.( N 9.7.S W K h T E > g F = O O f g P X.T  .#.Q ! X...{ P G c G K ! E f.E P P M N P > $ l x } U K ) ! _ ",
"@.( v P =.} f.E b | f.o.U M U I K b G - P g % # X X # ; g ( O.f.T ^ ! Q %.| ( P G l G ( f.~ f.f.} ) M P E ( E $ O * x ( U ( &.! ",
"f.| ( x e.} =.b K f.=.( [ P U P M K b g b g % $ $ + f M ( X.-.>.~ G Q #.O.) W E E E K } f.f.f.} ( M P U P M b b f = % ; M ( -.f.",
"f.f.+.M X.} b b f.f.=.M } P ( U P P ( v - & f g = g v U ( } ) | ~ c T ! X.X...:.} E b v X.f.X.( P x M P U ) f.f...N g ; f U | f.",
"f...%.>.f.E U f.f.f.W M f.G P } N | I ; f f f M % * g g M ( ( ( %.H f.f. .) ..f...$._ c c ) } U M P U Y ) } E } f.W Y b P M Y =.",
"f.T T f. .x W f.f.} c E f.P H > P [ l f x v N [ f f f g ; x M U { } f.f.L T H #.Q Q  .:.E K P P ( } +.o.( E P c b b M b Y v N ' ",
"G , G  .K P ..f.f.=.b f.f.b $ O x M f M P ( ( [ ( K K P N P N U U o.-.f.f.! _ T T  .%...%.=.( M U [ >.f.e.f.} ) f.f.f.f.s $ : P ",
"H h H G E b f.f. .{ ' E U = @ x N ( M M N ( ( f f.f.=.=.( } { ( } U } ;.%.Q H  .~ .. .P { X.| ' N z K O.} f.f.f.f.f.f.f.f.o * P ",
"F , H ~ G c f.%.T U } M l % : z M P ( { } ( v M +.f...G v E v ..O.' } O.^ ~  .! =.) L U X.=.X.W M h c f P P f.f.f.-.{ } f.f.f.f.",
"Q D D Q ..f.f.W l W b x $ c } ;.=.f.f.f.{ ) M g X._ g K  .) G P | ,.O.,...#.$. .%.&.....U T K P ) f.f.X.E l P { +...{ ( X.f.f.Q ",
"Q D G T f.f.W T > { ( : x O.O.X.| f.f.f.&.O.P f { K L f.f.E G K E u.1.u.u.u.r._ =.) { { ..%.f.>.,.f.f.f.f.-.Y M P { W W W f.f.T ",
"^ , ! L <.f.T b c ( } =.O.X.| W M O.f.f.) P M : } E ;.f.f.f.G b U f.f.f.f.f.f.P P X.,.=.=.r.f.f.,.f.f.,.O.W =.*.J X.E b E ..f.f."
};
