/* XPM */
static char *leaves_birch[] = {
/* columns rows colors chars-per-pixel */
"64 64 256 2",
"   c #2F4E19",
".  c #314D1A",
"X  c #34521C",
"o  c #37581D",
"O  c #38591F",
"+  c #375621",
"@  c #3B5423",
"#  c #3C5D23",
"$  c #3F6126",
"%  c #435C25",
"&  c #41552B",
"*  c #415B29",
"=  c #465932",
"-  c #4A5C35",
";  c #495938",
":  c #426326",
">  c #44652A",
",  c #4E6329",
"<  c #47692A",
"1  c #4A6B2E",
"2  c #4C6126",
"3  c #51652A",
"4  c #556A2B",
"5  c #596E2D",
"6  c #4E722C",
"7  c #51742E",
"8  c #5C722E",
"9  c #4A6434",
"0  c #4C6B32",
"q  c #4F6839",
"w  c #506537",
"e  c #556A34",
"r  c #5B6E32",
"t  c #53643C",
"y  c #546E3B",
"u  c #4F7033",
"i  c #537533",
"p  c #5E7331",
"a  c #567933",
"s  c #5A7B34",
"d  c #55753B",
"f  c #5D7239",
"g  c #57793C",
"h  c #5B7D3A",
"j  c #60762F",
"k  c #61782F",
"l  c #617632",
"z  c #647B34",
"x  c #697E37",
"c  c #65753C",
"v  c #657B39",
"b  c #697E3B",
"n  c #586845",
"m  c #567240",
"M  c #5B7643",
"N  c #5B7B43",
"B  c #5F7C49",
"V  c #6E684C",
"C  c #776D4A",
"Z  c #627E44",
"A  c #6D7E42",
"S  c #617D4A",
"D  c #6C7E4C",
"F  c #647246",
"G  c #727744",
"H  c #717D47",
"J  c #7A7E45",
"K  c #697B54",
"L  c #777A55",
"P  c #817B5F",
"I  c #847C65",
"U  c #5E813C",
"Y  c #6A8236",
"T  c #648E34",
"R  c #62823C",
"E  c #6C833B",
"W  c #668A3E",
"Q  c #698D3F",
"!  c #70863C",
"~  c #738A3D",
"^  c #788E3F",
"/  c #689237",
"(  c #78903F",
")  c #759D38",
"_  c #5F8044",
"`  c #638443",
"'  c #6D8443",
"]  c #668944",
"[  c #6B8D44",
"{  c #64844B",
"}  c #6A854D",
"|  c #678A48",
" . c #6B8C4B",
".. c #728543",
"X. c #7C8247",
"o. c #748B43",
"O. c #798E43",
"+. c #74864C",
"@. c #79874C",
"#. c #748B4B",
"$. c #7A8C4C",
"%. c #6D9047",
"&. c #6E914B",
"*. c #739245",
"=. c #7C9145",
"-. c #72934C",
";. c #7D934B",
":. c #668651",
">. c #6A8553",
",. c #678852",
"<. c #6B8B54",
"1. c #6C8158",
"2. c #6D8D5B",
"3. c #768653",
"4. c #7C8756",
"5. c #748D54",
"6. c #7D8C54",
"7. c #76875E",
"8. c #728D5C",
"9. c #7D8A5D",
"0. c #79835B",
"q. c #6F9050",
"w. c #6F915D",
"e. c #749453",
"r. c #7B9253",
"t. c #769954",
"y. c #7A9A55",
"u. c #73925C",
"i. c #7A955C",
"p. c #779858",
"a. c #7C9C5C",
"s. c #7FA246",
"d. c #7FA05F",
"f. c #768A62",
"g. c #7D8D69",
"h. c #759462",
"j. c #799564",
"k. c #779866",
"l. c #7D9B63",
"z. c #7E946B",
"x. c #7D9B6B",
"c. c #818F4E",
"v. c #819647",
"b. c #81964B",
"n. c #849A4D",
"m. c #818D54",
"M. c #838E5C",
"N. c #8C8B5A",
"B. c #85845F",
"V. c #968B5C",
"C. c #998D5F",
"Z. c #829553",
"A. c #889756",
"S. c #859954",
"D. c #8B9D54",
"F. c #84945A",
"G. c #8A945B",
"H. c #839C5B",
"J. c #8B9C5B",
"K. c #91935D",
"L. c #80A44E",
"P. c #85A849",
"I. c #8DAC4C",
"U. c #8BAB46",
"Y. c #8EA157",
"T. c #83A25F",
"R. c #8EA15D",
"E. c #92A45C",
"W. c #9AB353",
"Q. c #888B66",
"!. c #8D856A",
"~. c #878D6C",
"^. c #859464",
"/. c #8D9363",
"(. c #839D64",
"). c #8D9B64",
"_. c #83956C",
"`. c #829B6D",
"'. c #8C9E6A",
"]. c #8C9369",
"[. c #949D64",
"{. c #90906A",
"}. c #919B6C",
"|. c #839473",
" X c #849F72",
".X c #899D73",
"XX c #8C967A",
"oX c #8C9C78",
"OX c #9E9572",
"+X c #919971",
"@X c #909F7D",
"#X c #83A264",
"$X c #8AA465",
"%X c #86A56A",
"&X c #8BA56B",
"*X c #8BA96D",
"=X c #8BA964",
"-X c #93A364",
";X c #99A664",
":X c #97A961",
">X c #9CAC66",
",X c #94A36B",
"<X c #91A96D",
"1X c #9EAD69",
"2X c #9EB36A",
"3X c #99B164",
"4X c #85A174",
"5X c #8DA375",
"6X c #8EAC73",
"7X c #8CA47B",
"8X c #8DA87D",
"9X c #92A472",
"0X c #91AE74",
"qX c #9CAE73",
"wX c #93A47E",
"eX c #94AB7C",
"rX c #9AAF7E",
"tX c #9CA374",
"yX c #92B176",
"uX c #95B37B",
"iX c #99B77D",
"pX c #9BB87F",
"aX c #A1AE6B",
"sX c #A0B06B",
"dX c #A3BC65",
"fX c #A8AD78",
"gX c #A3A679",
"hX c #A5B472",
"jX c #A4B478",
"kX c #8D9A81",
"lX c #8EA980",
"zX c #93A384",
"xX c #94AC85",
"cX c #9CA981",
"vX c #95AE89",
"bX c #99AC89",
"nX c #9BA48C",
"mX c #9CB780",
"MX c #9CB981",
"NX c #97B08A",
"BX c #9CB18D",
"VX c #9EB591",
"CX c #ABA880",
"ZX c #A9AF8B",
"AX c #A2A98C",
"SX c #A1B583",
"DX c #A5B38B",
"FX c #ABB68A",
"GX c #A2B493",
"HX c #A3B997",
"JX c #A9B997",
"KX c #AAB69B",
"LX c #A6BA98",
"PX c #AABA98",
"IX c #B1C1A5",
"UX c None",
/* pixels */
"(.u.3.IXlXxXh.Z M : X UXUXv.~ x 4 4 UXUXUXX > 1.8.# = UXl 5 x -X! =.n.~ UX5 4 5 c n.p l UXUXUXUX5 k ..' k =.>XW [ t.&XuXiX0X%X%X",
"}.UXUXUXHXBX4X2.N d X UX1XhXS.v.E 5 e UXUX. 0 7X} UXUXUXx l v b.;.;.! 8 ! p v ! o.A.E l x UXUXUX8 8 n...Y E.Y.*.W %.y.*X6XyXeX'.",
"tXUXUXUXzXBX2.g N 8.UXUX~ ( =.=.O...@.UXUX& UXUX:X~ 5 UXo.l Y ;.$.v 4 v D.^ n.v.O.H.Y x l UXUXUXk l E J.=.n.~ UXUX-.-.a.UXUXUXc ",
"$.v @.UXUX_.9 $ >.zXUX=.n.E 8 ~ J.A.Y f.UXUX[.~ D.n.Y r UXc z v .., 3.UXUXE.Y.Y E R.z p l UXUXUXv v o.Z.E l 8 UXUXUXUXUXUXr , 4 ",
"A.o.p v UXUXt   q UXUXl Y ' ' J.o...l 6.UXJ.x o.l ~ $.b Q.UXUXUX).UXUXUXUXsX! z b H.Y 8 x UXUXUXUXx v ..4 UXUXUXUXUXUX..5 l Y #.",
"J...Y p A.UXUX; t UX8 5 8 ' ..;.l Y l ;.UX8 4 ' $.S.;.E UXUXUXUXUXUXUXUXUXO.=.~ @.E 8 8 ..UXUXUX2XUXUXUXUXUXUXUXUXUXUX~ E v.O.;.",
"jXz z l $.UXUXUXUXUX..4 3 5 8 k 5 l l UXUXUX8 8 v l Y l UXUXUXUXUXUXUXUXUX1X=.x c 8 3 H UXUX* ;.P.) T /.UXqXs s ' UXUXn.n.n.E $.",
"R.=.8 5 UXUXUXUXUXUXUXUX9.l 5 8 p UXUXUXUX*.UXUX8 8 l $.UXUXnX3.` i.KXUXUXUXx k 4 4 ! UXUX`.q =.U.U./ UXT.pXU 6 7 R UX1XsX~ 8 ..",
"o.E 8 r UXUXe.*X9XUXUXUXUXUXUXUXUXUX$Xt.-.| W UXUXUXUXUX{ <.`.s i d %XUXUXUXUX8 5 o.UXUX< >.M Z '.cX%.y.y.yXd.U a 7 UXUX..~ Y 5.",
"v 5 5 m.UXo.5.l.0X0X%XJ.UXUXUXUXUX9XyXyX%Xd.d.-.UXUXUX>.{ 2.2.<.> > d UXUXUXUXE UXUXUX+ $ g 3.G.SXzXUX%.t.6X6Xe.R i UXUXn.=.x ' ",
"3 8 m.UXUX' ] a.%XuX*X-.;.UXUXUX*X0X6XyXuXyXuXiX9XUXUX2.w.2.:. .i # X UXUXUXUXUXUXUXUX. * M N.9X8XpXS.Q %.%XyX#Xq.U s UXUXl p 5 ",
"r UXUXUXUXW ] e.#X0X6Xe.[ UXUXp.l.l.a.l.#X#Xd.t.T.UXUX`.x.w.{ <.d >   UXUX' R ` e.i.7.# : { N.L.=XL./ %.&.#XuX%Xt.| R UXUXY 5 4 ",
"UXUXt ; UXR U | d.6X6Xt.[ 5.UX5.]  . .&. .R U 7 R UXUX9XVX4Xh.{ N > . f s s | y.%XDX5X1 < 3.;.I.W.s.T *.-.#XyX6Xd. .R UXUXJ.v UX",
"_..X. = UXUXi U q.%XuXy.%.UXUXUXUXh U U a 7 6 i UXUXUXUXIXBXxXu.B :.> s 7 | l.*X0XUXxXi u F.n.dX3Xu.*.UXUX$X6X0X%Xu.' UXUXUXUX7.",
":.B * : UXUX6 6 U &.iX%X[ UXUXUXUXUXUXUX7 s s UXUX' p UXUXHX7XM d h.UXs s d.yXuX*XUXUXj.U ).-XW.{ UXUXUXUXUXUXUX*Xi.6.UXUX@ > j.",
"B M d B UXUXUX6 6 s =X0XUXUXUXbXHX4X<.UXUXUXUXv 5 4 p UXUXUXUX: # .XUXZ y.uX*Xa.y.UXUXUXUXCXQ.^.UXUXUXUXF.^.UXUXUXUXUXUX@ X # >.",
"d u.4XbX7XUXUX' s a UXUXUXUXxXBX4Xh.<.{ UXUXp 5 v v Y J.UXUXUXf . c UXUX0Xy.&.[ UXUXUXUXUXgXOXUXUXUXA , b b l E UXUXUXUX. + 0 _ ",
" .<.xXVX5XUXUXUXUXUXUXUXUX* M z.,.{ 2.u.UX@.8 E ;.Y $.=.UXUX9.v 4 5 z UXUXUX5.UXUXUX6X&XH.G.V.UXUX8 5 x $.S.x l o.UXUXi # $ d :.",
"B 2.4XvXPXUX8 l O.UXUXUXn m N { { ` { <.UXz l v J.l O.1XUX6.....! v 5 l UXUXUXe.%X&X0XuX&X[.N.Z.O.x O.;.;.Z.x z l UXUXi : < _ u.",
"{ <.k.VXUXUX4 8 l n.=.hXUXUX1.1 > $ < g UXv x O.A.v.n.n.UX, ..S...z z 8 ..UXUX#.u.a.#X6XuXtX/.*.E.( S.~ E R.x 5 l UX5Xd 1 0 a.{ ",
"2.w.k.4XUXUX3 p ' =.O.hXD.UXUXX   % N `.UXUXv $.' Y v ! UX4 E O.-XR.o.8 5 UXUXUXU  .t.#X6XqX'.-.UX:XE.Y l ;.O.8 p UXwXa i ` h.w.",
",.,.u.UXUX..8 ' ' z O.D.^ ..UXUXUXUXZXUXUXUXUX$.3 r v UX+.5 =.=.l E ;.p 5 UXUXUX' U R  .&.H.iX0XUX1X! ~ E $.8 5 ..UXUXg.Z 9X2.<.",
"_ _ UXUXUXH 4 Y $.z ~ n.Y 8 UXK q.4X5.h (.UXUXZ.UXUXUXUX@.p v.n.v Y ' p 4 UXUXUXUXR a i s s s UXUXUX=.n.v v 5 5 UXUXUXUXUXUXh. .",
"UXUXUXUXUXv p Y n.-XO.o.8 l UX_ ,.w.` 0 g BXUXu.%XqXUXUXUXY ( 1X~ ;.Y p 4 UXUXUXUXUXR 7 6 6 UXUX5 UXUXv s 4 4 UX{ { x.UXUXUXUXUX",
" .-.uXe.s ..8 5 z $.b.v 3 UX8.w.2.<.} > > (.UX .l.6X6X#XUXUXUXsXn.v.Y v UXUXUXUXUXUXUXUX#.UXUX4 5 x UXUX8 5 UXk.2.2.i.s } UXUX-.",
"-.%XiX%.6 R z k Y o.S.c r UX`.x.2.{ { < o r UX` a.%XuX%X&.UXUXUXUXUXUXUXUXUXUX{ { j.UXUXUXUXf 8 b =.O.UXUXA.UX7Xw.,.u.1 d eXQ [ ",
"d.6X6X] a 7 o.l l l l Z.{.UXzXvXx.:.{ 1 X % UXU q.#XyX*X&.Q UXUXUXUXUXUXUXUX`.u.<.k.i.UXUXUX8 x ' Y n.aXUXUXUXxXh.{ d : i iX[ -.",
"6XuXd.&.i i UXUXM.Z.r.UXUXUXUXHXbXk.B i X UXUXa ` p.*X6X-.Q UXUX' ` a.$XUXUXlXw.,.5.0 h UXUX8 o.Z.Y D.=.UXUXUXVXh.{ 0 o y UX-.a.",
"uXyXd. .a s UXUXUX-.e.y.UXUXUXUXbX:.M 8.n UXUXi 7 ` d.yXy.#.UXs ` e.%X0XUXUXxXw.{ i > { UXUXl x S.o.O.p UXUXUXS B { # + UXUX#XuX",
"uX%Xe.] a UXUXUX*X6XyX*X#.UXUXUXUX: 0 oXUXUXUXo.6 7 U uXd.UXR s | p.6X6XUXUX7X2.B > o 7.UXUXl v S.v 5 A UXUXUXUXd f.9 UXUXUX&X9X",
"6X#Xq.R ' UXUXUX6X%Xa.U s UXUXUXUXUXX UXUXUXUXUX[ a 7 H.UXUX6 h e.%XuX6XUXUX0 g M X # UXUXUXUX....r UXUXUXUXUXUXUXUXUXUXUXUXUXqX",
"*Xk.| ' UXUXUX^.p. .h i >.UXUXUXUXUXUXG.l k 5 UXUXUXUXUXUXR 7 U d.yXyXH.r.UX+ _.S UXUXUXUXUXUXUXUXUXUXUXUXUXUXUX'.<XH.UXUXUXUXUX",
"6.5.UXUXUXUXUXUXUX3.D >..XUXUXUXUXUXUXz l l 8 k 4 UXUXUXUX[ 6 R 6XyXd.&.Z.UXUXUXUXUXUX$.7 a s U U ` 6.UXUX(.<XuX0X6Xd.q.%.*.UXUX",
"UXUXUXUXUXUXUXUXUXUX{ { <.eXZ  .UXUXUXz o.v =.' 8 4 f UXUXUX7 [ uXd.%.[ UXUXUXUXUXUXs 6 7 s _  .&.e.e.UX5.p.(.&X0XuX6Xa.%.W r.UX",
"UXUXUXUXl 4 4 ..UXf.w.,.w.e.6 d u.UXB.A J.-XZ.o.+.8 4 E UXUXUX0X%X&.*.UXUXUXUXUXUXUX7 7 s  .t.p.l.(.&XUXUX| e.a.#X6XmX*Xy.-.[ UX",
"UXUX5 5 8 p l ! UX`.k.2.:.i.< < :.AX+.l Z.~ k x ~ x z @.UXUXUXUXUXUXUXUXUXUXUXUXUXR 7 U  .a.d.%X*X6X9XUXUX' ' e.a.(.6XyX*Xd.[ UX",
"UXb 8 Y -...O.v.UXBX4Xh.{ ` 1 $ h UXI G Y n.n.! O.v.UXUXUXUXUXUX'.UXUXO.S.:X( k UXUXU a.6X6XyXyXyX6XUXUXUXUXh ` | e.y.&XuXiXd.UX",
"UXl v o.;.p Y =.UXGXxX X} B 9   D fXUXm.c ~ n.hXD.UXUXUXUXUXUX..5 p Y ;.Y n.n.l 5 UXpXuXyX6X6X6X6XUXUXUXUXUXR s h U U W -.*XSXUX",
"UXv E Z.O.( :X>XUXUXLX7X<.N : X +.].UXUXX...;XUXUXUXUXUXUXUXUXUX4 5 b x 8 ! ;.Y , UXT.T.y.t.y.e.y.UXxX`.UXUXUX' 6 7 7 6 i a UXUX",
"UXb Y Z...=.=.UXUXUX7XN d :.y - UXUXUXV m.UXBXd X + > 8.z.@ UXUXl 4 R ;.;.A.$.R , UXUX[ %.| W -.(.s d : o   @ UX' U 7 7 s UXUXUX",
"UXUX6.r 5 5 UXUXUXUXUX# 9 4XK UXUX~.gXC N.nXZ : # 0 M N > X UXUXUX4 5 ~ n.$.Z.S.' UXUXUXUX*.n.UX} d < > # # + q UXUXUXUXUXUXUXUX",
"UXUXUXUXUXUXUXR  .i.UX= * UXUXUXUX4.UXI V.i.i < i S { h.K M UXUXUXUX5 k p Y E z 6.UXUXUXUXUXUXUX`.u u i M u M 8.|.UXG.l 4 A ^.0.",
"F.UXUXUX..a { &.a.%XUXUXUXUXb 5 5 c ' B.V.M.i h e.{ <.lXVXUXUXUXr.UXc 5 k l l x UXUXUXUXUXUXUXUXwXl.l. .{ { B g >.D o.x z z 3 ..",
"z 6.UXE 7 U  .a.%XyXUXUXUXUX~ O.o.Z.! X.C.UXzXj.2.:.k.8XVXUXUXUXe.%X0X#X..v ..UXUXUXUXUXUXUXUXUXq.<.2.,.{ <.8.d o . f b.;.E $.Z.",
"k z o.6 i | y.*XyX6XUXUXUXUXE.n.! J.b c.V.UXUX<.,.h.x.LXUXUXUXo. .l.6XyXa.H.UXUXUXUXc o.s l UXUX{ :.2.w.k.xXxX{ 0 E.:X=.~ r.S.O.",
"x l s 6 h e.6XuXuX&XUXUXUXUXn.Y v Z.j J C.UXUX1._ <.x.UXUXUXUX' { y.%XiXa.[ UXUXUX3 z A.O.Y l UXUX{ h.x.vXBXUXUXUX~ E z v E.v ! ",
"z 8 [ 7 W 6XyX*Xa.e.UXUXUXUXb.~ o.c p G OXUXUXUXUXUXUXUXUXUXUXR s  .#XyX#X[ UXUX4 v ! Z.Z.p 5 8 UXUXz. XbXUXUXUXUXv.o.v $.S.l l ",
"8 b.UXa =X6X%Xq.%.;.UXUXUXUX;.k 5 5 l UX!.UXUXUXUX<X$Xt.-.-.UXUX7 h &.yX%X%.UX6.p O.n.Y J.n.l 5 4.UXUXUXUXUXUXUXgXz z ' E Y 8 8 ",
"UXUXUXUXuXy.-.W Q J.3.3.UXUXUX5 p UXUXUX!.UXUX6X0X0XuX%Xt.W [ UXUXi h y.uXe.UXUX~ n.n.k E o.j 5 UXUXF.UXUXUXUXUX,X5 4 4 5 4 8 p ",
",X-.*.UXUXUXUXUXf ..Y v l UXUXJ.UXUXUX|.L UXe.(.#X&XuXuX%Xe.%.UXUXUX6 a qXUXUXUX;X1Xn.v E @.5 4 UX5.l.*XqX$XUXUXO.p l f UXUXUX;.",
"-.W [ W UXUXUXc p o.;.x l +.UXUXUXbXxXk.{ UX} | e.a.#X6XyX*Xy.y.UXUXUXUXUXUXUXUXUXsXo.n.E l 4 @.UXE e.#XyX6XT.UXUXUXUXUXUXUXa.-.",
"a.d.e.t.%.UXUX4 o.*.-X! 8 l UXUX9 8.h.:.2.z.UXh | q.t.l.%XmXMXJ.UXUXUXUXg <.x.bXUX'.J.v.z 5 5 UXUXR  .l.*XuXd.%.UXUXUXUXUX*X*X#X",
"uXyX6X*XyX&XUX~ n.~ x ;.k j UXUXM Z { { } XXUX#.h h ` _ U [ y.FXUXUXUX{ :.,.2.l.0 a 5.FXO.5 b UXUXR ] e.%XmXd.[ *.UXUXUX0X0XuXiX",
"6X6XyXuXuX=XUXaXsXE Y +.5 H UXUXUXd # : u UXUXUX' s 6 a 6 6 s UXUXUXUXk.2.2.2.q.6 0 N PXUX).,XUXUXR U &.d.yX%X%.-.UXUX<X6X6X6X6X",
"#Xp.e.] U a UXUXhXO.! l 4 UXUXr.3.Z y 5._.UXUXUXUXUX' a a ` UXUXUXUX4Xx.h.:.q. .: < d BXUXUXUXUXUXo.u s q.6X6X-.9.UXUXl.#Xa.a.a.",
"] ] a i 6 s UXUXUXUXx 5 v UX-.] t.#XyXUXUXUXUXUXUXUXUXUXUXUXUXUXUXUXbXBXk.:. .N < $ : UXUXUXUX. UXUXi 7 h e.pXe.UXUX$. .|  .<. .",
"h 6 7 7 a UXUXUXUXUXUX@.).UXt.#X6XuX&.s UXUX,._ { u.UXUXUXUXUXUXUXUXKXxX8X2. .N 0 . X UXUXS 2.* y UXo.7 6 i <XUXUXUXUXUX` R U h ",
"` 8 h R UXUXUXUXUXUXUXUXUX-X6XiX6Xa.s 6 UX`.h.,.2.u.5X+.UXUXUX,XUXUXUXLXbXk.B M > . * UX. 0 { <.lXUXUXUXUXUXUXUXUX[ s UXUXUXY h ",
"UXUXUXUXN <.k.5Xi UXu.UXUX&X6X%Xd.] 7 a UX8Xx.2.,.j.g i 5.UXUXp F.UXUXHXoX>.N <.> . UX> + i :._.HXkXUXUXUXUXUXUX7 6 6 6 6 $.UXUX",
"UXUXUX{ { <.w.a.0 u g UXUX9X%Xa. .s 7 UXUXVXk.<.| u.1 6 N DXl 4 x S.UXUXd < g 8.M UXUX6 : d :.h.lXGXUXUXUXUXUXa a a s i i s h UX",
"UXUXUX<.2.2.2.l.u < 1 j.UXUXe.{ R R UXUXUXBX7X{ } N $ : r.6.4 5 v v.[.UXw + B XXUXUXzXg < } { 2. XUXUXp r.UXrXuXd.%.&. .] U h E ",
"` UXUXx.k.<.:.{ g % # h UXUXUXUXUXUXUXUXUXVX4X<._ d o $ 5.3 p #.E =.=.UXUX  n UXUXUXUX{ i u.2.2.h.UX4 4 z UX).yXuXuX%Xl.t.q.| U ",
"| 3.UX8X Xh._  .M > X @ UXUXUXM.UXUXUXUXXX8.:.S g > X # v 5 R $.z Y sX>XUX; UXUXF +XUXUX9.7X<.`  .4 8 c ! v.y.t.#X6XuX6X#Xd.a.q.",
"p.e.UXLXvXx.2.<.N 1 X - UXUX~ 8 4 UXUXUXUX9 0 B { + X UXj 8 =.S.l ( D.O.UXUXl , , ..c UXUXUXUXUXb 4 v #.=.! S.%.-.#XyXiXyX%Xl.l."
};
