/* XPM */
static char *log_spruce[] = {
/* columns rows colors chars-per-pixel */
"64 64 256 2",
"   c #0A0C0B",
".  c #12120D",
"X  c #19160E",
"o  c #161611",
"O  c #1B1B14",
"+  c #1A1A15",
"@  c #0F0F0A",
"#  c #221E15",
"$  c #271E16",
"%  c #242116",
"&  c #24231A",
"*  c #2A251B",
"=  c #2D291E",
"-  c #2B2416",
";  c #332B1E",
":  c #37271A",
">  c #2D2B22",
",  c #262822",
"<  c #332D22",
"1  c #392D24",
"2  c #353124",
"3  c #3B3325",
"4  c #35332A",
"5  c #3B352A",
"6  c #3D392C",
"7  c #3F3826",
"8  c #3B3931",
"9  c #452C1B",
"0  c #56351F",
"q  c #423425",
"w  c #423926",
"e  c #42362A",
"r  c #443B2C",
"t  c #4B3D2D",
"y  c #4B3725",
"u  c #563D2A",
"i  c #443D32",
"p  c #493E31",
"a  c #4C3728",
"s  c #6A3C22",
"d  c #4C412E",
"f  c #46402C",
"g  c #53422C",
"h  c #5C4329",
"j  c #454132",
"k  c #4C4333",
"l  c #44433A",
"z  c #4D463A",
"x  c #4E493B",
"c  c #4D4838",
"v  c #524534",
"b  c #594534",
"n  c #544A35",
"m  c #5A4A36",
"M  c #544639",
"N  c #544B3B",
"B  c #5A4D3C",
"V  c #5D513D",
"C  c #56513C",
"Z  c #64442B",
"A  c #6C4529",
"S  c #634D3B",
"D  c #684A34",
"F  c #784E36",
"G  c #63523D",
"H  c #6C523D",
"J  c #69593E",
"K  c #73543B",
"L  c #7A583A",
"P  c #734B2D",
"I  c #534E41",
"U  c #5C4E41",
"Y  c #555142",
"T  c #5C5342",
"R  c #5F5945",
"E  c #5B554A",
"W  c #5C584D",
"Q  c #515147",
"!  c #635543",
"~  c #6B5642",
"^  c #645945",
"/  c #6B5B45",
"(  c #655B4A",
")  c #6B5D4B",
"_  c #655649",
"`  c #745C45",
"'  c #7C5C44",
"]  c #725E4A",
"[  c #7A5E4B",
"{  c #755742",
"}  c #6B5F50",
"|  c #645E51",
" . c #644F42",
".. c #6C624C",
"X. c #66614E",
"o. c #7C6246",
"O. c #74634C",
"+. c #7B644C",
"@. c #786549",
"#. c #6D6352",
"$. c #6B6758",
"%. c #736553",
"&. c #7B6652",
"*. c #756A54",
"=. c #7B6B54",
"-. c #756C5A",
";. c #7B6D5B",
":. c #706758",
">. c #7C7056",
",. c #7D725C",
"<. c #777058",
"1. c #7D7261",
"2. c #7C7568",
"3. c #766F62",
"4. c #88532F",
"5. c #97542B",
"6. c #845C3D",
"7. c #895737",
"8. c #965C36",
"9. c #88623F",
"0. c #9C623C",
"q. c #95623B",
"w. c #A6653A",
"e. c #A45F3A",
"r. c #845D46",
"t. c #82644C",
"y. c #8A644A",
"u. c #8C6B4D",
"i. c #866546",
"p. c #9E6442",
"a. c #9B6C4B",
"s. c #976A47",
"d. c #9A704D",
"f. c #846D54",
"g. c #8A6C53",
"h. c #836E59",
"j. c #876954",
"k. c #817055",
"l. c #8B7255",
"z. c #84735C",
"x. c #8B755D",
"c. c #8D785E",
"v. c #867A5E",
"b. c #937254",
"n. c #9B7354",
"m. c #93755C",
"M. c #937A5D",
"N. c #9B7B5C",
"B. c #9A7658",
"V. c #926D52",
"C. c #A36B43",
"Z. c #A96B45",
"A. c #B26D42",
"S. c #A3724C",
"D. c #AD754B",
"F. c #AA7247",
"G. c #B27245",
"H. c #B4764A",
"J. c #B5794D",
"K. c #BA7849",
"L. c #A27453",
"P. c #A47955",
"I. c #AA7B55",
"U. c #A47B5B",
"Y. c #AB7D5A",
"T. c #AA7652",
"R. c #B37C53",
"E. c #B97D52",
"W. c #B47D57",
"Q. c #837562",
"!. c #8A7662",
"~. c #857964",
"^. c #8C7A63",
"/. c #867B6A",
"(. c #8B7D69",
"). c #947C63",
"_. c #9B7D62",
"`. c #947E69",
"'. c #897E70",
"]. c #A37E62",
"[. c #C17D4E",
"{. c #AD825C",
"}. c #BB8256",
"|. c #B4835D",
" X c #BB855D",
".X c #B78455",
"XX c #8D826B",
"oX c #8A8068",
"OX c #948166",
"+X c #9C8265",
"@X c #94846B",
"#X c #9C846B",
"$X c #9B8A6E",
"%X c #91896F",
"&X c #8C8573",
"*X c #8A8574",
"=X c #938571",
"-X c #948A75",
";X c #9C8B74",
":X c #9B8D79",
">X c #988775",
",X c #9C917C",
"<X c #9B9077",
"1X c #A48364",
"2X c #AC8463",
"3X c #A3866C",
"4X c #AA8769",
"5X c #A48A6C",
"6X c #AC8B6C",
"7X c #AC8966",
"8X c #BB8A65",
"9X c #B28C6B",
"0X c #B68A67",
"qX c #BC936D",
"wX c #B5916D",
"eX c #A38C73",
"rX c #AC8D73",
"tX c #A38D78",
"yX c #A58B75",
"uX c #B38E72",
"iX c #A49175",
"pX c #AC9174",
"aX c #A4927B",
"sX c #AB947B",
"dX c #AA997C",
"fX c #B39273",
"gX c #BA9573",
"hX c #B3967B",
"jX c #B4997C",
"kX c #BB9B7D",
"lX c #BA9778",
"zX c #C38558",
"xX c #C9804E",
"cX c #C38D63",
"vX c #C2946D",
"bX c #C49167",
"nX c #C49973",
"mX c #C39E7B",
"MX c #C49973",
"NX c #CAA27D",
"BX c #C8A07B",
"VX c #AB9C84",
"CX c #A69884",
"ZX c #B39C83",
"AX c #B69D84",
"SX c #AFA287",
"DX c #BCA285",
"FX c #B4A38B",
"GX c #B9A389",
"HX c #B8A993",
"JX c #C2A58A",
"KX c #C6A787",
"LX c #C3AB92",
"PX c #C9AA90",
"IX c #C7B49A",
"UX c #D2B593",
/* pixels */
", + , $.N v A 7.5 M 7.8.Z.C.&.S i + h.L.t.T &.H.K.f.-.<.) r #.^.iX6XPXCX'.3.4 =.hXtXaXsXrX#X,.B V f.=XaX<X%X~.N.v.5X..B t &.@.i ",
"* % & ) B ! 4.L * b s r.p.n.{  .4   l t.B 1 n R.|.*...-.! C j Q.hXlXVXCXCX( I i AX>XaXFX;X#X=.Y ) ..%.aXiXiXjX9XOX7X&.k r o.o.r ",
"3 i > ;./ / 4.i.5 U K g.m.b.@.S <   4 r > # i 4X).N =...T c * Y wX6X@XaX!.] U   *X;XCXCXtXOX/ N R ..XX=X5XBXOXwX~.6Xc.; m i.L f ",
": T N 5 B B r./ * c ) ;.c.u.j./ l + > M 5 < Y -Xc.y ) n oXSXX.# T VXjXZX=.U ) 1 + *XCX-X-X>X) 3 k 2.CX>XiXNX+X0Xz.g B r *.L L j ",
"M W 3 o } B @.M i ;.-.| %.+.] =.c > 1 f.>.n X...,.r / @XPXKXGX*.) Y HXFX~ B B =.c l x W $.v.=.> t ~.-X%.iXvX1X{.z.t j 2 N B ) N ",
"| $.e o $.M _ c ( 1.=.h.#.c.f.(.I 6 &.n.{...C N ) < -X9XnXNX<X..X.,.,.v.=.j ^ 0XkXSX$.. ( *.z.e 8 <X/ KXkX0X1XI.c.k J V > ! g / ",
"p $.z + 3.M _ N l #...,./.g.*.E M 4 N.n._.,.c N N + *X9X0XDXaX&XoX#.~.*.=.c R +XUXkX>Xa T @Xz.%.> *XN KXmXjXN.ZX! n @.~.j =.OXiX",
"a p i o :.U v V I ) _ 1.h.u i i c > G j.c.*.T R R + W aXiX&X*XCXSX~.-.f.B j C jXPXiXz.).h.gXgX#Xc r E NXNXhX9XiX) j ( #Xj ( 6XN.",
"t u p # i 3 b B > ( ..] ] v B ! i l ` i.t.Q./ ^ ,.> 5 >X;X-.&XaX-X<X%X^ M U &.LXqX5Xk.{ M bXzXvXz.S * NX8XhX6XlX/ i ,.+Xk 6 6XP.",
"t t q # , i Z K T + $.] h %.G T c I +.r.m./ V $.,.i 5 sXaX-.~.*X-.%.;XO.v c z.IXmX$XB.M.] zXW.cX@X&.$ 2X|.GXhXkXB N +XiXV 2 pX1X",
"I $ 9 6 @ U ' o.&.< , B 6 l.d.) c + 3.l.x.[ &.*.*.2 ( Q.&X#.~.E N p ).l.^ 5 ~.JX7X=.f.N ] E.E.AX=.k.I uXkX5XJ.S.U k S.0.V r 9Xy.",
"i : 9 z @ } r.y.g.%.+ _ ^ B.q.U.@.# O :._.].).=.V , E ;.3.$.&X3 i eXJXkX%.5 ( 2X6X( ).* m.nXKXY.v.^ < ( ) ] K.D.T 5 J.F.M N fXOX",
"X : 9 M . ^ D 7.g.( E Q.b.i.0.P.=.k = t 6XfXOXv.N > r /.XX*X%.=.eXhXCXCXh.z ^.5X,.%.h.! aXIXhXP.S.v./ / p @.A.H.G j l.s.m Y <XaX",
"Z $ 9 j . m Z i.M.Y W z.b.q.C.l.( j = c.lX9XrX;XN < + i E ..l.+X!.:XCX=X;._ AXz.X.^ Y %.Q.IX3XL.R.1Xr T ~ ).H.w.@.G C n <.t l dX",
"p $ y p . v D Z t.% l ,.l.q.d.@.U i # ZXuX].].iXx 5 } rX*.^.;.3Xb.{ j.tX(./ -.Y ..V T @.-XIX>Xa.J.+X! O.O.).C.w.' V Y / ,.v.3 ^.",
"e < m M O T K P r.* % %X` 9.l...T 6 1 u 4.y.pXhX( & E eX! %.+.L.g.!.).r.sX! V z n r 2 ~ FXIX].D.H.+X/ j c / w.w.t.! M f ,.-Xg >.",
"1 i _ t # Y U { r.> o $.#.! <.c C 5 e 7.4.C.rXhXeXO < -.T ^.V.S.r.m.y.y.2X@.m d p 5 = ;.Q.GXD.J.F.S.z.r 1 O.C.0.t.k ^ ; *.XXv %.",
"o i M b 4 | #.N &.< o E *X`.oXd c 5 r r.s.a.rXlXZXN + j c ~._.P.[ m.r.V.6Xv.N k ) p % _ t.sXR.|.G.L.OXj ; ~ w.0.@.3 M t R XXf r ",
"& e p 1 6 U #.i ! 6 + E Q.$X1.c X.6 2 b.C.r.9XhXlXz.+ 6 r <.1.^.{  .[ y.9X3Xz.X.,.! $ %.kXIXJ.|.H.d.%.N < M F.I./ 5 e n k y t t ",
"$ e I > p U U e i r + l ~.)...V N 2 1 6Xp.7.L.lX6X^.5 < k *.3.&.{ u [ j.wXhX,.n ,.M.r h.c.B.H.}.H.P.;.n 3 t {.M.J 3 ; d m g 3 d ",
"$ 5 M $ T } _ M M k o N k.^.XX^ U 5 i B.8.p.4.p.s./ c & M 1.Q.F W.n.V.`.sXoX_ ^ =.5Xz.T.w.w.G.G.G.b.=.! d B @X[ v k 6 m B o.% k ",
"$ & 5 > -._ _ M ] S + Q c.=.<X..U > p C.e.p.p.a.N.f N % i ) / u.Z.Y.].!...^ M ^ ,.k 5XR.w.G.G.w.G.M.k.V r S H ` V n 3 g G g % q ",
"$ $ q 2 ) } #.U #.b & & /.h..... ., | p.p.p.p.a.m.t V j r ..+.L.g.&.~ } z.v.,./ =.< c.Y.G.G.G.w.w.+X@.C t N ) v.G n 7 C J G 3 M ",
"$ > < > &._ %.&.) N < o l -._ ^ ] 5  .5.7.p.p.Z.f.c B ^ j ..].%./ U _ -.$.<.7Xz.#X; ).E.J.K.H.G.K.C.@./ 3 W ^.|.d.V ; v G n , r ",
"$ # > 1 +._ #.1.%.N 5 o & E N *.) 3X#XU.s.L.4X_.&.v ~ _ ) z.U.=...^ -.T _ ! ^ <.^.k B.zX.XK.H.H.G.H.J @.fXp B.R.d.O.* C V m < 3 ",
"y * + 8 z._ 1.1.} _ 5 , , U N ! i fX@X3X_.tXHXAXU j c k V (.).z.=.*.T S G v ( iX^ q M.}.}.G.H.K.G.s.V =.M.t +. X.X9.7 g n g O r ",
"F < * @ ( _ %.Q..._ r + > r k v I kXtXAX3Xu U AX*.k > e ( ,./.Q.N N N ~ S ).n ).d 3 X.J.J.H.H.w.H.u.B ).u.* [ cXd.N.d y v d % t ",
"a * * # < J ) _ (.;.N > 3 r q i ~.9X;XaX>Xa b CX( T + +.U.)...^ _ _ S [ { h./ =.N k n f.H.H.H.J.{.+.^ c._.< ! vX{.B.V f 7 w 3 < ",
"3 8 2 * . G %.%.).(.j E n 3 q 5 $.2X3X>X5Xp 1 _ _ _ * u.0Xl.J /.x p ~ S b `.`.^.) T d ..P.|.wXlX+Xm V OXl.* q t..Xq.V n / n k r ",
"= 8 m 2 O ^ h.) ;.;.2 / B 2 5 N T Y.7X>X=X! q T Y ,.2 L.2Xc.! ) p 6 `.b B ;.>X%.c x c t %XfXBXzX0Xv J pXO.; t { D.8.K r M XXk 3 ",
"* > > k & @.+.=.h.U 6 E b 3 e c 8 !.9X^.&.;.U V %.>.C I.2XuX#X%.< O U / !.aXaX@.z.t j q $XfXvX.X|.n <.dXy w q 5X{.8.i.J q $XC f ",
"5 & i i . / h.:.;.U Y X.g r e i 6 &.9X;X{ #.Y M -.^ #.2XvX9XuXz.i 5 e Q.!.FXGXz.&.r q r ,.9XnX7XS.m ..5Xq k @XjX{.5.i./ d +X..J ",
"1 r 6 t + _ 1.Q.&.c > *._ 3 j 6 * =.6X^.H G T c } I } ].uXvXvX`.N 4 x :X(.uXZXh.O.7 j r -.0X7XrXrXv S ).w M f.kXU.5.9...m 5XO.@.",
"w v i k # ( T -.z.N o $.-.5 e V x z.rXeXS.^ d d =.| `.j.T.cXW.].( 3 5 -.).yXVX@Xz.N 3 V ( OX!.VX/.S v M.3 5 ).AX9X5.6.m n $X~ - ",
"5 T I Y % $.&./ !.B % $.,.r j r > -.@XQ.qXG ..-.=.i CXj.].W.cXMX..x c I tXCXHXVX=.j 3 T k *.=XGX^.^.m wXB k M.rXuX5.L ..v m.~ * ",
"4 1 e i % ( { ) g.D . W *.t i N c z.#X,X*.N R ~.E 4 j.r.j.B.].ZXO.R j r ZXVXAXGX,.r M B ) /.hXGXT ;.l.E.c.3 ).fXrX0.Z B S N.~ = ",
"< > 1 i & t ~ } x.~ o -.;.k t k r ^.4X=XX.V N ~.T :.b.h.;.].CXJXQ.N r i ZX_.CX>Xz.Y < p OX7X+X-Xr q B.E.c.t ,.KXpX].J ^ M N.m 3 ",
"* < : 2 + %.] ! !._ + I ..n k c + ;.;X~.*.$X^ X.p T ^.;.j.JXPXPXaX) 6 c CXm.tX(...^ < c +XBXnXM.v M l.I.O.j ^.BXfXrXD ) 3 ).G 3 ",
"3 3 - a # &.&.U Q.1.% . $.! r T + +.F D @._ #.N N yXQ.&.j.CXPXDXQ...j , ) M u } ^ ( 3 ^ jXnXgX@X5 ~ M.N.%.< @.gX6Xh.H ` < *._ 3 ",
"5 2 y Z o _ h.! p S h + 4 j ....G 8.Z.Z.n.( %.M #.KXCX!.!.ZXIXW.l.,.M @ I a ! :XXX*.; ^ JXnXBXl.= m ;.aX*.6 > dXM.B ` o.; ..d d ",
": P h P % 6 ^.=.&.r.Z % + 3 _ k y.5.e.Z.V.! %.3 ;.AXAXh.).rXJXcXN.( N O I M ;XaX#.<.= <.kXnXBX@.* 3 -XNXM.N 2 N V =.+.D 3 B ; g ",
"y K Z Z 2 f ~ C l.L A < + R V w 7.5.e.e.m.! ) e @XJXmXCXj.>XLX[.U...g < c !.hXz.%...2 #XqXnX6XX.m 3 LXNXwX+X../ t O.i.9 ; : 1 w ",
"9 L h y 2 #.t.' i v v % 5 ) ..3 u.n.A.A.N.$.;.i VXAXAXCXr.t.`.uXeXR 3 T c (.gX*.%.V N 5X0XvX+X/ v c UXMX2X5X/ V k b m y - : ; f ",
"y K Z f & -.' B N ; r 3 + ) _ k !.n.Z.W.f...-.%._.sXuXsXx.[ m.HXeXc t g c *.DXO.<.j /.gXvXqXOX..B I NXvX|.iX..t v t w : 3 q ; ; ",
"g ` m 6 > -.+.h.N 5 k ; O U i w a.p.F.M.*.-.#.c._.LXuXrX`.u.{.BXFX#.B v -.| *X( C 6 HXkXnXlX5X*.v I MX9X{.c.d w g ..7 d ) v ; - ",
"u H u j r ,.Q.Q._ c 5 3 < r t ' 8.w.T./ >.O.! g.yXHXlX3X3X X XbX@X=.M k Y r -.HX=.= LXwXlXnXDX/ r ! AX[ 1X^.d B n *.....5 w = * ",
"u P D O A (.1.:.1.*.5 < % > 4 u.w.C.l.%.~.%.).{ ;XAXCX!.aX0XbXnX@X=.1 k T 3 -XHXXX^ SX;XgXBXKX=.M Y LXQ.iXOXV j k <.*.l.3 6 3 ; ",
"h D m o T Q.Q.| E ,.r * O * 1 a.C.a.^ X.#.H r.#X;Xz.Q.j.Q.pXbX9X%X=.r k k 3 CXIX<XaXc ,.#XBXBX*./ c FXhXjXv.m d r C *.+X2 2 = 2 ",
"b K G O  .;././._ [ k 5 - 2 3 s.0.u.T ..~.m.' ).>Xg.K [ / sXgX@X-.M e N 5 1 HXZXsX`.=.).^.NXNX=.g N AX>X%Xz.v V < B *.^.2 ; = 6 ",
"3 L V . ) :.Q.U o.f.m = 5 = * d.0.O.^ r -XgXOX=.iXE.I./ ).F.}.)./ j 3 ! 5 _ ZXsXsXCX@X@X_ SXlXO.B c ^.@X/ z.5 w w v ) *.w q = 6 ",
"c K J . _ 3.| q ;.f.! 5 t 3 c V f./ R j 3.ZX;X/.n.D.}.`.8X.X{.oX~.G e U v =XsXtXhXeXGXpXX.$XnX/ n y G @X....V m v w _ ..C 5 = f ",
"x J ..X I '.} 1 =.f.O.3 = 2 z.n.T ^ R N O 5 *.u.C.R. X!.hXx.N =.I.o.a v 3 sXhXZXZXyX3XfXV z.tX=.V ) u.b.o.c 3 V v k H #.j 2 > f ",
"x #.O.% 4 2.! 9 ^ &.*.3 * 2 Q.+. .S O.G x & h.6.8.W.}.n.O.*....XzXI.G n = XXhXrXZXhXsXrX..G v O.Q.DX2XW.` j q d c C o.7 7 r & 5 ",
"4 T V & m m ] b ! o.l.3 3 t ;.g.z.&.^.=...< -.9.8.F.}. Xz.^.D }.xX.X@.g 5 1 GX3XCXZXZXT.z.J b l eXKXW.|.' 3 < 7 n k.O.7 6 k 2 & ",
"% w 3 7 @.H O.j ! L 6.B 3 j M B.Q.OXl.M.X.X.l b.8.zX[. Xv.*.t y.xXK.f.C B O } ZXLXHXDXI...f.@.O :XGX2XC.` ; r < n $Xv.g f c > = ",
"6 ! r < J O.&.i i l.i.O.B T < m.*XOXv.b.k.=.& z.7.zXzXW.h.^ k.3 [.zX+XB U 3 > '.=XHXtX]...M.z.% R :X6XD.O.q 3 5 n SXoX7 7 f = 2 ",
"j o.3 S G { ) ) 5 ) 5 J +.c n d. .:X&._.x.h.M %.7.H.G..X&./ O.r mXMX5XG t v 2 AXyXtXgXY.fX^.O.; i &.OX1X/ k ; 2 / hX-.r w t J = ",
"p m V v B H #.,.M j 3 6.i.V i i.] Q.&.!.h.;.p #.q.w.w.J.v.) O.C NXMX6XB U =.r vXbXDXAX9XrX!.! n , ~ !.:XC d 2 = ..6X@.r k C o.r ",
"j > g b r t c Q.j m % h 0.9.C 2 *X;.[ h.g.) 6 ) q.0.w.J.z.=.M oXnXnXrXT B ) v  XcXMXZXZXrX).=.@.< _ %X,XG m w & Y +X=.3 m ..f.J ",
"* O ; n m < d C ) ^ > u w.0.n X $.p D a.3X..N c N.F.D.T.@.^.3 tX8XmXb._ / ~ j 0X].0XAXZXmX).XX~ 3 c dX,X*.V 3 % c {.k.f c v.v.@.",
"O O & m ..q h n n ..% o.q.q.c X < 6Xp.T.wX..%.eXOX$Xk.&.&.Q.* 5X9XMX6X..f.~ 3 9X]._.ZXZXfXs.f.c c 6 -X-X;.G 3 O M.7Xl.7 f %XXX..",
"; = O <.#.u 0 y r f V u.s.u...f , `.b.L.|.z.N jX#XaX@XOXh.T N eXwXvXKX;.iXo.c 9X`.3XuXrXuXB.).* k e Q.tX:._ d 6 #XN.*.5 n l.oXw ",
"f 2 @ <.,.J 0 u 7 = o.F 7.q.>.J & B n.n.{.>.@..XJ.U.l.=.z.% oXsX8XmXsXOXrX%., h.ZXsXhXsX3X#X^.; 3 n ,.eX;.r p b 1.pXV 5 n c.=.2 ",
"l , @ W ^ b s P f 6 6.D.w.J.l.#.6 6 m.U.N.^ N.xXw.{.<.*.) ; *X`.uXkXJXCX:X1.. ) AX`.3X3X3X3X,.k 1 ~ %.yX>XT I @.~.pXR r C +.` 6 "
};
