/* XPM */
static char *log_big_oak_top[] = {
/* columns rows colors chars-per-pixel */
"64 64 94 2",
"   c #090603",
".  c #0E0904",
"X  c #0E0A0B",
"o  c #140D05",
"O  c #1A0F05",
"+  c #140E0A",
"@  c #1A0F0B",
"#  c #171004",
"$  c #1A1106",
"%  c #16110B",
"&  c #1B140B",
"*  c #1E180E",
"=  c #1D1512",
"-  c #1E1911",
";  c #1E1A18",
":  c #221605",
">  c #271A07",
",  c #23130E",
"<  c #2C150E",
"1  c #221A0D",
"2  c #2B1A0D",
"3  c #30160F",
"4  c #35180F",
"5  c #241511",
"6  c #2B1611",
"7  c #241C13",
"8  c #2D1A14",
"9  c #241C19",
"0  c #2B1B18",
"q  c #301710",
"w  c #331B13",
"e  c #3A1E14",
"r  c #331D18",
"t  c #3B1F18",
"y  c #32230F",
"u  c #262016",
"i  c #292216",
"p  c #262119",
"a  c #2B251B",
"s  c #2E281D",
"d  c #342216",
"f  c #3C2116",
"g  c #33261A",
"h  c #3D2419",
"j  c #322A1E",
"k  c #3B2A1B",
"l  c #2E2A20",
"z  c #342D21",
"x  c #392F23",
"c  c #373125",
"v  c #3A3225",
"b  c #3D3529",
"n  c #401F15",
"m  c #442415",
"M  c #4A2615",
"N  c #4D2916",
"B  c #43261A",
"V  c #4A2618",
"C  c #45291C",
"Z  c #4C2B1C",
"A  c #512B16",
"S  c #522E1B",
"D  c #4D301E",
"F  c #563015",
"G  c #593317",
"H  c #55311D",
"J  c #5A341D",
"K  c #5D391E",
"L  c #613B1F",
"P  c #4C2E20",
"I  c #512F20",
"U  c #413626",
"Y  c #4E3121",
"T  c #41372A",
"R  c #433A2C",
"E  c #493E2F",
"W  c #533322",
"Q  c #5A3621",
"!  c #563826",
"~  c #5D3A23",
"^  c #5C3B28",
"/  c #453E33",
"(  c #493F33",
")  c #613D23",
"_  c #623F29",
"`  c #4C4235",
"'  c #4D4339",
"]  c #504436",
"[  c #54493B",
"{  c #644125",
"}  c #694427",
"|  c #64432A",
" . c #694629",
".. c #6C4A2D",
/* pixels */
"$ a a R ` E s i 7 $ u z b s z s 1 $ : 9 7 o & ; & = % + % & @ & 5 % 9 9 = o % ; % l = . & 7 U T 7 u $ & u i * > a c x ` v j > 1 ",
"$ a z b [ T i i 1 & a c c a z a $ O % 7 * , < < 8 2 8 r d h h e t f w d d 0 8 9 7 0 + . & , c v 1 2 $ 1 z & # > s z j k k s * > ",
"$ a z b ` b g a & 1 u j a z p & o , 6 6 e m m B w f m B M N C B C Z Z Z C Z C B h h e w , & u j * i $ 7 j $ $ $ z x g b z i 1 s ",
"* 9 c E ] b s a & $ 9 a p p 7 @ < w m m M V f m M N Z H Z H Z D Z Z C Z W S W W Y Z B B M h 8 u $ # $ s z 7 1 > z z y b v j $ u ",
"j a v T ' z a p & o - p p = , w n n M M n V n A H Z N N D H Y H I Z Z S Z S W B Z P I I Z V V n 6 * o u j i 1 i z z s ` z 1 $ u ",
"a z x b p z u 7 % # - 7 & 6 r f n M m N V A S V N Z N Z N N N N N Z N S V V Z N V I Z Z W I P n B 8 5 9 u 1 > i j k v z s > # s ",
"x c v x T c a 1 & o & , 8 q f m N M V N A N A V M V N Z H H H S S Z N I Z I Z H A S V P P I I I Z B r 8 * * & i j z b b i 1 # u ",
"b c c b x a 9 & % . , w w m m N V M A V A A M V A S S S H S H D W H H W N N N Z W I I S V Z P I Z C P h 8 & % 8 v v R b j 1 1 a ",
"c s c v z s 7 & o , w f N N Z N N A A A A V A S S S S S A H Q J H J S S S S A S V S I I S V I V P P C Z P 8 5 9 i v z b i 1 $ s ",
"s s j & x p = + , w d N N A F A H A A N A H J A H S Q H H H H H S H S H S J Q S S S V V I I S V Z V Z C P h r 5 u s g s i 1 $ z ",
"s s 9 ; v 9 & 5 w w M N Z A N A A S N S J A G H J H S A S H S S S J W H J J I Q J J I I V I I I V I V P h C h 6 7 j a s u * 1 i ",
"j j & a x 1 , w w m N A F A A S I N A S V S J S S H S Z A S S S H S S A S I J L Q Q J I S V I I W V I P P B P t y 1 * & 1 * 1 a ",
"a a 7 p = & w w f M N A H S H A S G A A G J S G N S J ~ L Q S H J H G Q J S I J Q ) L Q I I V V I W I I P Z P B m q & u % % i * ",
"p u s p & 3 e w m N N A A G H H H H A J H H S S K Q H J Q H ) Q A H Q Q H Q Q Q Q Q _ Q Q Q I S V W W Z I W Z h Z B 6 = % & j i ",
"* l u % 2 e 4 4 m M N A A H F J G H J J H S S ) J Q ) H A J H J ) J G S A H J L Q Q Q _ ) _ L Q I V W W Z P P P P B h 7 . . x i ",
"u z 9 7 e d 4 e M m A N Z D J G H H J H A J ) S ) H J ~ ) J J J J J A S Q J A J ) ) Q Q ) _ ^ Q Q I S I S P P P P B Z 8 # # s a ",
"* p 7 4 w 3 f m m M m N N A J H H J H A J ~ H ) J ~ ~ ~ Q H H H H J J A J G J J H Q ) ) Q _ | ^ Q ~ Z I Y B W W Z h C t @ o a 9 ",
"% u , e 3 e m M m M N N A H J S H H S K J J ) H ) ~ ~ Q S J G J Q Q S I J ) ) G ) J Q ) | _ | | ^ Q W I I I P W P P P P 6 + a p ",
"u % 8 w 4 4 n m M M A A V S A S F A G J Q Q J J G ~ H Q K S G S A H V J ) Q L ) J L K J | | ^ | | ~ Q ! I P C P ! Z x P w % u p ",
"% - f d 4 n m m V N N N N N A S S S Q J K G K J K N { H J K H ) ) Q V J G J L L ) L K ) ~  .} _ | ~ Q ^ P I Z C W P t B e , 9 p ",
"u 2 4 4 m f m M M N M N A M A A m H F K A J J J F K K K H { K J J S S L L L L L ) } L ) J ) _ } ^ | { ! W Z P Z P ! P h B 6 = a ",
"i > f 3 m m m M m A N m M M A M M M C N A G S A K H H ~ { K K H ) H J J L L L L ) ) } L ) L } _ | | ^ ^ ! P W B P I P B C q = l ",
"s 8 y 4 m m M M m A M M M A A M F d D M A J A J H K ~ { J { { { L L L J G L L L ) L ) L L J ) ..| Q | ^ ! Z W Z B W P h C h 5 l ",
"s 2 4 4 m m M M M A N M M M M m m 8 M A F J A K K K K ~ { { { { L A L } L L } L L ) L } J ) ) ) | ^ | ^ W ! Z I C Y Z C B h 9 p ",
"a q w e m m M M m A M m N N N N M 2 m F A G F J A ) ) ) { { { K K G ~ ) { K ) L J L L _ L ) S ) _ | | _ ^ W I I C P P Z h B 6 9 ",
"p q w w m m N N M F N N A N N A N M N N A G A A G ) ) ) { { K { { ) D { { K K L J J ) L ) ) J ) | _ Q _ ^ I S W B C Y Z B h 8 ; ",
"u 4 4 e m m M M N A N N A A A N J S F N A J F A A K Q Q L K ~ | ~ ~ { J { ~ G { ) ) L ) ) L L L { ~ W _ ^ W I Q B P P P B B t = ",
", 4 < e f M N N N N N N N N S Z H J G H F J A A M ~ ) ) { K ~ K N G { ~ { { ~ } _ L L ) ) L L ) { Q S ) ^ S P I V V P I B h r % ",
"* w < e m m N N N M N F N D H S H A ~ A H J A A N ) ) ) } J K | { { { K { { L } _ ) ) L L L L J ) Q J ^ ^ S S I n B I W B t 0 = ",
", w < e m M N N M N N N N A G Z H J J A H H M F N K J )  .L K ) { ~ K G { L L } ) ) ) L J J J Q Q Q W Q Q I S S B P W W h 6 w = ",
"& < 3 e m M M N M D N N S N J H S ~ Q S F G N M N F G Q {  .{ K D { ) ) } ~ K { ) ) ) J G ) Q Q L Q Q ) ^ I V V n P W W n r 6 = ",
", < 3 4 M M N N C F N N A Z H H S ~ H H A S M n M A G H ~ ~ ) } { K { ..) G L } J H ) H G J A ) Q J H ^ ^ I W I n P W W n t 0 5 ",
"5 < 3 4 m D N D N H N M F N A H A I S I V A A M M A A G H ) ) ) K { ~ ~ J D K K A Q A J J L A Q Q Q Q ) Q I Q V n I I ^ n t t 0 ",
"0 > 4 4 N N M A A N N Z Z H Z H S A J ) A A A M M A A G J ) ) J D F G ! { { K N V Q A A J Q A J Q Q S ^ Q I Q V V I I I n t 0 ; ",
"p < 4 4 m D M Z D N D N N H Z H A S Q Q A V A S M M A A G ) _ ) G G ! K | { D C B n A S J S Q I Q Q I Q I I I n V I Q I t t 0 5 ",
"9 , y 4 k M B N A N Z M N N Z Z Q S Q I S A H H A M n M N A ) ) K K K K D H K K B B n I J A Q Q Q S S J S S I V V I I I t t 0 ; ",
"& , 4 e f M M M A A C A Z Z H Z Q S A H Q V A I J J A M N M A A S A W A F H F J S n V t V Q I Q Q S S S A S I V P V ! I t t 6 ; ",
"5 , 4 4 d M N m D Z N D N Z H N I H A Q S A S S J A J A N n M A A S N A Z H H S S I V t n V Q Q S S Q S S Q V V I V ! I t t 0 ; ",
", 6 e e 4 m N m Z N M Z N N S S W J S A J J S S A J A A A N N N Z V A H J H H H Q S I V n n V Q J S J V I I S V P I I I t r 0 = ",
"5 6 4 4 y f m M Z D M F N N D Z S H W S J I Q S A A J A N S H H Q S H H S H H H V S I I I V V V S Q S S S V I I V I V n t r 5 = ",
"* 5 3 e w e M N N Z N D N N W H Z W J N A J H J H H N M S N Z S A A I W Q S G S S J Q S Q S n V I I S S I n I I V I V t t t 5 X ",
"5 6 < w 4 w N Z N D D Z H D N D S H H J A S W H J Z A N Z Z S S J S H H S A S I Q Q Q Q Q S V V V V V S A I I V I I P t t t 5 X ",
"7 5 8 e e w m Z D H H Z Z Z Z J W N W W H F S H H H N J H M N N V N A A A Q ) I S Q I ) S J I S S n I S V V I V I V V t t 6 = X ",
"= 8 < f 4 w f C D D H D Z W Z Z I I Z W J A H S H N H Z N S W H I S H H H S S Q Q J J S J J Q I S S V V I V V S I V B t t 0 ; 0 ",
"& 6 5 m e d w Z W D H D Z Z W Z S W Z Z W W H H Z H Z Z W W W J H S Q Q Q Q Q Q Q I J J Q Q I I Q I V V V I V I P C t V r r 9 l ",
"l 9 , e B m d B D D Z H H D H H S H W I Z H H J H S S H S A J W J W Q I H H I S J I I Q Q I Q Q Q V I V V V I I C P V V q q 0 l ",
"v z & 6 f f f w B Z D Z W W H W W P S ! Y Z D H ! S S Z N A N N N Z A S S I J S Q Q Q Q S Q Q Q S I V I V I I P P V V t 0 r 9 l ",
"/ c 1 , w e f w f Z Z D W J W Z W W P S W P N H S W S Z S S W S H S I H Q Q Q ) J Q Q I Q Q Q I I I I V I I I P P C B r 6 0 0 c ",
"( v ; , q q e e w B C Y Z Y W H H Y ! W Z Z W Z N Z Z Z S W H W I Q Q W Q I W Q I I W ! ^ I Z I I I I Q I ! P I P t t 0 0 0 0 b ",
"z c 1 & , w w e r f B N W Z Z W W D W ! W Z Z Z C C B Z V B N Z Z Z I W I I I I Q W W I V I I I I I Q I ^ P I P B t 0 6 q 5 l l ",
"j u & + , , q w w w C C Z Y Z D W ! W W W W H Z Z N B V C Z Z V V Z Z V Z I W I I V I I Q P ^ I Q ^ I Q I ! I P t 0 0 0 + 9 l z ",
"s u   u - , < w w w w h C P Y P D H W W H W ! Z C C V B V B C Z S I I I I V I P I I P W ! W W ^ I I ! W ! I I t 0 B t 0 o 9 r z ",
"u *   - s - , 6 w h f w w C ! P Y C W W Q D Y W Q Y Y C Z Z Z P V P n P P P n I I ! ^ ! W ^ ! P ! ! P ! I I t r k Z k $ o p z v ",
"u 1 # - s p 5 6 8 8 h k B f d Z k P Z Z W W W D Y ! ^ Y C B B B P V t P P W ! ! W W W ! ! Y W W ! I ! ! I P t 0 m D 7 & o a v b ",
"u 7 o - u p p 7 5 w 6 h P B h Z C Z B W D ! ! ! W Z Y Y ! ^ ^ ^ W ! I W Y Y P W ^ ^ ! ! W ! Y P I ! ! P P B r 5 C k u $ o s u u ",
"j 7 o 7 c c z 7 , < 6 6 r h P P D Y C Y D D Y W W ! Z Y C P B P P P Y I W ! W ! ! W ! ! ! Y Y Y P C B t r 0 5 t k 1 g $ $ j c 8 ",
"a u % p s c z 1 & & 5 w f 6 e C D C d Z C Y Z C h B C C Y Y Y Y W Y ! Y Y W Y ! ! Y Y Y ! Y Y ! C d r w 7 * k k % p s > y x j * ",
"# - 1 b c b x u & o @ 5 8 r w w k B 2 w d w k B B k C h h h f h B x P C B U C Y Z U P P P P P h d 8 6 , 8 D k . * a j 7 g ` x j ",
"* - a v b ' j 7 = # o 1 8 6 6 8 h h e f Z h h k h B h h P C Z Y P C P Y P Y P f P P P h g t r 6 8 6 , h Y a # # 1 s s d j v v i ",
"u s 7 s / ` c u - % % 9 - 8 6 < 6 w h f C C C C U C D C h d B h B P B h f B h 8 h P B f 6 6 r m V e h g u 1 * $ u c j s j ] v # ",
"  s s j ` ` z i % & * p p p p i 6 < 6 w f e h h m B B C B f d w h h w q 8 e q r r 8 8 2 < 2 f D k k * * i 1 * $ a z j v v U v . ",
". a i v ` [ c a 7 % 1 a s s a a = @ 5 5 5 6 w e w w 8 8 w 8 q w w w r w w r 8 8 w 2 3 e f Z C k u : O 7 1 1 $ * i j j b x x 1 $ ",
"# i s b ` R j u 1 , 9 j z x a z * o % 7 5 , 5 7 5 5 , 6 6 8 6 8 8 q r 5 d h B C C B m k d i j j 1 & O 7 7 i * > i j j v x a * $ ",
". u z R ` b g u 1 & 9 z z c s z * O & 7 a o & 7 p a = , * 8 8 d k d k h d d g g 8 9 - o & 1 k U i 7 $ 2 i i : > i z j ` v z 1 $ "
};
