/* XPM */
static char *log_oak[] = {
/* columns rows colors chars-per-pixel */
"64 64 180 2",
"   c #030404",
".  c #090707",
"X  c #0A0907",
"o  c #060709",
"O  c #090708",
"+  c #070909",
"@  c #0C0C0C",
"#  c #100F0D",
"$  c #0F100D",
"%  c #13120E",
"&  c #1A140E",
"*  c #0E0F10",
"=  c #120F13",
"-  c #0F1012",
";  c #151412",
":  c #191613",
">  c #161816",
",  c #1B1A16",
"<  c #151719",
"1  c #181719",
"2  c #17191B",
"3  c #1D1C1A",
"4  c #211D16",
"5  c #221E1A",
"6  c #1F201D",
"7  c #222016",
"8  c #24221C",
"9  c #2A251D",
"0  c #2E291F",
"q  c #312A1E",
"w  c #1F1F20",
"e  c #1E2122",
"r  c #252422",
"t  c #2A2621",
"y  c #262824",
"u  c #2D2A23",
"i  c #242628",
"p  c #27292A",
"a  c #2E2D2A",
"s  c #322D24",
"d  c #322E29",
"f  c #382F28",
"g  c #2F3028",
"h  c #353126",
"j  c #3A3226",
"k  c #35322B",
"l  c #3B352B",
"z  c #3D392D",
"x  c #332F30",
"c  c #2D3233",
"v  c #343432",
"b  c #3A3631",
"n  c #3D3A33",
"m  c #3E3F3C",
"M  c #433827",
"N  c #41372A",
"B  c #433B2D",
"V  c #4A3D2D",
"C  c #423731",
"Z  c #433D33",
"A  c #493E32",
"S  c #433E39",
"D  c #3D423C",
"F  c #4B412F",
"G  c #454135",
"H  c #4B4334",
"J  c #44423B",
"K  c #4B453B",
"L  c #4D493D",
"P  c #514635",
"I  c #534936",
"U  c #5A4C36",
"Y  c #52463B",
"T  c #534B3C",
"R  c #594E3B",
"E  c #5C523E",
"W  c #62533E",
"Q  c #4E4740",
"!  c #444840",
"~  c #4C4B43",
"^  c #4D4B49",
"/  c #534E42",
"(  c #5A4F42",
")  c #504E49",
"_  c #4E5044",
"`  c #4C504B",
"'  c #555144",
"]  c #5B5344",
"[  c #5F5847",
"{  c #555349",
"}  c #5B554A",
"|  c #5D594C",
" . c #525450",
".. c #5D5751",
"X. c #5D5B52",
"o. c #5C5D5A",
"O. c #625643",
"+. c #645946",
"@. c #695C45",
"#. c #625748",
"$. c #635B4C",
"%. c #6A5E4B",
"&. c #705F47",
"*. c #635E52",
"=. c #695F51",
"-. c #5E6057",
";. c #5E6059",
":. c #66604F",
">. c #6C614D",
",. c #72634C",
"<. c #656154",
"1. c #6B6454",
"2. c #6E6857",
"3. c #646259",
"4. c #6B6659",
"5. c #66695E",
"6. c #6D695B",
"7. c #726653",
"8. c #736955",
"9. c #7A6D55",
"0. c #716759",
"q. c #746C5B",
"w. c #7A6E5B",
"e. c #76715E",
"r. c #7C725E",
"t. c #696760",
"y. c #6D6C61",
"u. c #736D61",
"i. c #7A6F63",
"p. c #6C7269",
"a. c #747264",
"s. c #7C7363",
"d. c #7F7965",
"f. c #73726B",
"g. c #7C756A",
"h. c #7D7A6C",
"j. c #747671",
"k. c #7C7C72",
"l. c #816F5A",
"z. c #81735D",
"x. c #8A7A5F",
"c. c #817663",
"v. c #837966",
"b. c #8A7C65",
"n. c #817769",
"m. c #847C6B",
"M. c #897E6B",
"N. c #837E71",
"B. c #887F70",
"V. c #86806D",
"C. c #8C816D",
"Z. c #92846D",
"A. c #9B8B6D",
"S. c #848274",
"D. c #8C8372",
"F. c #8E8876",
"G. c #84867C",
"H. c #8B867A",
"J. c #8E897C",
"K. c #928672",
"L. c #998771",
"P. c #958A76",
"I. c #9A8C74",
"U. c #928679",
"Y. c #948C7B",
"T. c #9A8E7B",
"R. c #96907E",
"E. c #9C917E",
"W. c #A2937C",
"Q. c #948F82",
"!. c #9C8F80",
"~. c #959182",
"^. c #9C9382",
"/. c #97978E",
"(. c #9A9788",
"). c #A29682",
"_. c #A49A86",
"`. c #A29C8F",
"'. c #A89C89",
"]. c #A5A193",
/* pixels */
"@ + y g k y z 8 % 8 T ] H s l 5 h s I H K n g.T.).6.a ! | | : 5 d / z.g.Y.T < J D.Y.k k } q.$.K L { 7 %.K , 6 z U 9 G z % s @ k ",
"@   y k 6 a z 8 : 8 %.>.B f 3 9 k k h z L ] ~ s.M.n.b =.i.i.a ; K 1.8.g.M.k r 0.C.U.k a K V.Z 1.b $., l F 0 % h G 9 j z % 7 7 , ",
"u @ 6 k a Z l l , z z H k 9 K ] k K :.#.[ 0.| m._.M.w d K =.0.O Z B.( b.c.6 v <.C.e.8 k } m.I z K T ; 8 W z : 8 I 0 z h % h h 6 ",
"G - 8 G n R z q 6 z q k | d 5 Z T ] <.q.} n *.u.m.S J x K m.5 4 S T 1./ | , v $.>.7 J L K 0.$.u ] L , k T +.G : T 0 G k # k B E ",
"k $ 8 3 k z > 3 k u k l 1.A 5 0.] $.<.5.*.J A q.).n { n ) M.; l K K.I.8.r.n 9 <., n s.c.{ [ $.a $.L 5 t G ,.z > h h I j 7 0 z O.",
"g $ ; 3 a ' t ; P P u B 1.] 8 f H G s.S.t.d n U.Y.c n =.=.B.5 5 z Z.I.7.L 8 k T 6 n 7.v.r.s.G 5 ] z t 9 P W h : k H k k 7 4 B H ",
"k , g ] K L y ; ] ] C h l ' d r / L r.s.~ ; 0.N.U.m 5 #.| 4.5 y a 1.P.V.6 g 3.] > k :.m.v.8.a u 0.0 9 z @.>.z : q G h z u 0 R T ",
"z y y ' H [ z 1 f l H #.A d r =.s.C.%.s.2.3 4.0.Y.Y.n K } Q #.1 n e.r.>.k J -.z 9 [ 1.d.m.8.7 l q.1.l 9 V s j & : H G M G 0 0 h ",
"k k C u n L n u s >.@.7.} ] u 5 #.z.| q.n.n *.*.m.1.K b ..g.u.n k #.B G $.' _ g a T m.v.K.[ , ' 8.e.h 7 E T D 0 : h F F j g g G ",
"; ; h l H Z Z ; s U +.] ] T 5 i ] e.$.s.M.| p *.Z.] 0.n l } { >.8.9 3 6.K.r.L { 8 z q.8.Z.K k $.8.z B 7 I @.I 7 q D j D 0 j ; 6 ",
"@ @ A , B B V , : T @.@.R 2.t r n | / c.D.| : #.M.w.c.Z t { b.Z.7., v 1.P.z.q.+.8 k 1.U.s.z k k L u j j F E G : j F 9 F q D 6 % ",
"  - Y ; 9 d v k # ( ] L G Z 3 i v X./ T =.l r i.P.c.w.s : 0.e.8.T r l @.,.e.m.u y z 1.0.C.l 8 ] ] V % D I L F $ j 0 k F z F q $ ",
"+ ; G 4 H V k u # 7 U a k 5 d ; l u.q.] c.G u e.b.$.=./ ; >.I.s.c.R ; #.v.).$.y *.h [ <.V.s l ] $.[ , l F W 9 9 z q 9 F 9 G 7 6 ",
"@ + l 9 u ] l ; , u 8 8 3 l ] 3 K 0.#.$.M.$.: k =.w.M.R ; #.W.F.r.*.> 1.e.S.l T k 8 $.w.V.` 4 L G 1.j : D E q 7 D h 0 h q F 6 8 ",
"3 @ a u 8 O.B % 9 H z V 7 y R 3 s 1.L } s.s.a U.D.w.c.0., s c.Y.s.8., K L ] a D K 5 D.r.r.k u l #.H 7 y G I 7 7 F F F q D F 6 6 ",
"X , n u k t A , 4 s I P 5 f C : *.0.K ( %.{ C Z.s.c.b.} *., H C.w.#.n 3.1.h k <.4.; Z s.r.h G L 8.I , 9 W F q D z F j 7 F j % $ ",
"  r Q b d u L A 5 5 Y O.s u : t 0.s.G $.n.b { Y.G 0.T.1.H ; n #./ L / D.C.y J s.<.; *.q.$.9 z H $.[ , 9 H B 9 z V E 0 0 F 8 , % ",
"@ Z A l t 9 Z ( 5 4 P R j a : S ,.q.T n d.r g.T.H 8.r.$.n 1 >.e.>.] T E.D.k l !.Z u v.m.2.n g 1.' l u 8 I n 7 M F E 0 9 K 9 q @ ",
"@ 5 k l t 9 d Z 5 5 L R Y t 3 d #.#.k f S 3 } c.u r.C.r.G % L m.v./ C.I.e.u k <.n J s.r.K.$.G K n 8.f 5 ,.h q z +.F s % 0 H h , ",
"O * 5 l 5 5 ] k s Y j ( T d ; b =.Z 9 c.#.4 n.T.L a s.<.z : k c.C.K T.m.s.l 6 Z 6 / e.8.V.n L u T %.l %.M s 8 s j j 4 @ M E F 6 ",
"= # 4 d s 8 P l t ] U f Z u : / w.z d >./ , | s.T Z r.r.s ; Z 7.8.} C.v.1.9 n <.Z s l b.I <.<.n l Z l #.V u z 9 +.q u % V R G k ",
"; : 4 d 9 , s a 5 T l.Y t u 1 ] 8.f G L.G 5 s 0.$.: l l Z ; K ,.Z.R 1.8.n t n X.2.5 ( Z.K | d.z $.G 9.b.H 9 N 4 U j 8 4 9 h D , ",
"* ; y l s 4 T ( A 8 %.C T s 4 9 P l Z a.C u ..T.%.6 1.:.F , T 1.s.M.w.2.n , ! a.1.G : B | <.s.K 8 T A.x.8 s : V 0 , 4 7 , J G > ",
"w : u m t s Z #.P 9 , 8 Z t & C #.z J H Z b 7.I.H l z.>.z , k [ q.M.' 1.u ; | d.I.+., u D.a.d.B 9 #.8.9.4 9 9 U F M : : ; H G , ",
"1 * Z k S t u l 9 q N u Z 9 u w.z.0.h d v ( } I.] u T.>.[ % k h O.r.:.D 9 k r.8.r.' 9 0 2.e.K.u u T %.R : 5 9 q F h h $ q F E % ",
"# ; G ! u 8 b S q d R t l 4 A H @.=.G u q.%.u I.O.0.M.1.1., 8 / s z I z 8 M +.:.[ T 8 a L 1.V.g t L $.q : s t M E j h : % 9 & 7 ",
"% , n v 8 Z f v f f f f R k j b T 2.#.4 T #.5 K.#.g.Z.r.:.: l s.K.7.7.g 4 T C.z.q.L y 6.{ T L k 8 L %.; 9 B 7 I I F z , % 4 7 % ",
"9 s Z l 9 d 4 s A t s u #.T t / t n n ] n t , z ~ ( y.G C 1 S 8.s.>.L J 5 H r.r.1.G k j._ k } J a s.#.% C N , f +.I F $ ; s 7 & ",
"8 4 l k , ; d j d 8 9 5 t A , u 1 { 1.r.<.7 t c.a.$.Y.z y u C D.K.r.| L 7 l m.q.q.Z 9 X.*.( m.n s l.+.% G n 9 G U Z q & : 0 & 4 ",
"9 # B B ; @ l W l 5 5 t W n s ; 5 l.1.6.$.3 k n.<.} #.t d n P O.r.w.1.z t l ] 1.G B , K T ' <.G L / k & k 9 9 F W Z 7 % # M 4 9 ",
"7 # B N : @ s O.B s , u ,.@.T : t / 0.8.G 5 G s.K.v.1.; v *.).w.C.1.=.J 5 Z q.C.: , 8 T l 1.8.n n Z n G l @.z z H l & 9 j % # X ",
"% 4 P G ; = t H H 5 j 9 N @./ f 1 b u.m.~ > G >.0.| 1.; r ) u.M.R.e.' a t / W.e.b & ; K ) s.[ n t B / +.H H s z R z & 4 j M % # ",
"8 , t 8 @ ; h N M 8 5 d s %.7.Z - J 6.V.| 8 b 4.K q.| X s g.=.m.e.[ ) J n H D.g.n X t C ] d.:.] 7 7 } } :.I , G G 9 % q h F 7 : ",
": f 9 j # 5 h z l 5 s Y l.T G t = { s.U.} 5 d g.3.n.z @ *.4.{ D.| [ S.! u l q.n.K ; a n R <.[ q.u 8 H +.E F : T H k % j j F 9 & ",
"s l s j # ; t n V l 3 Z l.8.} 8 3 u / 6.~ t b g.J ] / 3 / q.$.'.d.s.H.3.k n L 1.G i [ $.T | 8.[ l q k O.,.9 ; H E I % 6 j I 8 : ",
"3 t d t = O 6 g l u b G A ( J 3 b l t a X.7 G g.D a ( 4.u.( s 9.a.h.G.t.} n a 8.T n T , n K :.h d Z 8 G ,.6 7 u F j , 0 s B 6 $ ",
", 8 u d : 3 u C P h 0 z m #.u S 8 , Z ^ v ; J { f.*.k l 9 Z y ( C.Q.k.X.a J *.8.v S K a 4.[ 8.K 4 u ] E N 7 M z 9 : , s h I 9 - ",
"X , , h 5 5 l j 0 G 3 Z n K G d 8 r J t.D > g a.F.m.t r b B.*.t h.G.4.*.@ R =.c.{ r v / :.>.r.T & z R +.] 3 9 j 6 , 7 q F j $ $ ",
"  ; , k , d #.M H u u n k } 1.u 1 > ` <.~ @ m m._.D.r O d c.2.3 b  .o.a 3 G { q.) p c / 2.$.s.{ , G h +.G 8 z E 9 8 , u F k 7 $ ",
"> ; 5 y ; 5 O.P ,.Z i k z 4.G g @ y n 0.y.a 0.Y.J.c.Q A 3 s.1.n n g n 4.3.k n 4.u.=.r K 1.Z ' n 7 h : 9 O.G z R 9 7 0 9 G 9 9 ; ",
"2 @ > h , , 3 7 Y , z t l k Z ..2 ; n H.t.; 1.!.k.m.*.u b ] ' 0.k 6 ' D.C.u J a.1.S ; u Z h s ] j k , 9 I G 9 q h k g 0 H 0 9 6 ",
": X ; @ @ n G T 9 # f n L e Q N.> - *.H.u.r | s.s.a.Y.} 1./ ' 4.n k ] ).D.k z E.G , { m ~ G Z E I , h t E K D 9.U j h h [ k D y ",
"@   t y ; u Z G r , k Z J > b b i w t.p. .g 1.S.m.n k q.K.$.#.u./ n C.P.s.y k <.n J w.#.V.1.K L { c.h 7 9.j h ] E j j > q P q 0 ",
"$ $ t % @ l z L n k / K / @ t l > r J 3.j.g { a.4.m a c.2.%.~ n.4.k U.m.1.k 8 G 5 | s.q.K.z L s $.w.z >.F h 7 z E j 7 % F L u 8 ",
"+ , ; % s 8 l } a J J $.' = t t 1 k H T y.m y.G.6.; r 1.} R l t L b m.h.' 6 h w.$.<.$.] [ *.| L 8 n ' #.E 8 g G R , h j z 9 > & ",
"+ a G 1 @ ; 9 8 a k z 9 9 3 l b ; # , ~ n ..m.t.J.D n X.#.: 9 g.6.! N.a.z , ' 2.=.R C 9 } 1.] H % k ' ,.8.g , :.E % 7 D P g s @ ",
"< d l > o ; y g y L l j f l } Z r 3.<.m.g 4.h.y.f.6.*.c.T o k u.h.{ F.h.X.6 h $.] u M.w.7 6.X.T , t H >.+.J % 8 u % 8 l D z k 6 ",
"o y a > @ 7 a a , Z Z % 8 u B i ^ w.<.q.t *.| 3.X.p.d.~.H   =.^.h.g.S.a.a.n 6 G , l W.c.u k J Z , > u F ] G % B +.6 , M F j D > ",
"@ < v r @ , d 9 5 S b ; n { ' u v r.T e.u 0.=.o.^ S.q.Z.b   l U.(.S.p.m.] 8 D R , y C.8.G L G $.s % 8 $.>.z : z I , % 0 T j 7 ; ",
"o w K v w # ; , b n x r K $.} 5 , h.p.M.k 6.h.Q.y.n $.n i * a *.J./.f.h.H ; X.S., 7 >.>.2.' 9 | ' $ 5 ,.] T : I I y % 9 B y 8 i ",
"O ; / n v u = 5 | r 1 i / #.' r 6 | e.q.k } N.(.H.} r p w 5 t f.j.k.J.G._ > L s.: l >.6.6.' g L ] % 8 R [ H : H T 9 ; : h g z 9 ",
"@ 3 S } r u ; s y d r : Z K { t , Z { } L { -.`.g.S 1 d b = a u.k.B.S.~.3.6 K -.; s 8.e.r.| 9 K L , k T E +., z H g ; : j F n 8 ",
"= s %.S 9 t # 8 3 n n n | *.{ a a J ;.<.| x 3.N.g.! v S C v s.Q.' 3.k.u.k 1 ~ Y.-., j +.d.1., T T : j F E ] : B [ l , > t u q @ ",
"@ s z E d d ; ; 8 p J J | 1.~ , y ^  .3.X.v K y.{ B.n i.G i.=.*.9 5.h.S.9 ; w.^.y.n ; L I ] y K H , u l s T & f F n ; % 5 8 h @ ",
"; N B E A 8 t @ ; h i n v.1.E 3 e m ~ L ~ b k X.i.^.k *.S n.J @ d 3.].$.8 e e.^.n.1., 8 2.1.L P.u k ' T G , , H F G 5 % 7 9 9 X ",
"@ 8 k H t u l ; ; u K / 9.] l e > l a.6.5.{ t i.n._.6 a v 4.: 2 / a.s.{ ! , <.^.e.6.; 9 e.d.z 8.z k T E h h , V z I 8 1 ; B F & ",
"# 4 q H s s b 3 7 G <.3.1.{ v v 2 v *.4.$.Z r / K.m.3 w G g.: w Q g ' N./ > n F.m.G / %.I.m.$.h 8 I E I k 0 a 9 z E u 7 : R E ; ",
"# 9 s P , f 3 3 u t n *.$.*.b a > 8 ) } 3.J m ] c.u.w r ! n.1 r Z K.~.N.} e p G 3.J u z L.K.8.u 6 H L I s 8 N V F j j G : 9 : : ",
"4 5 M A f f u w 8 k } a u b n e ; 3 } 6.1.J ~ Y.D.v.b d =.Y u 1 u G c.D.} 6 J 4.~.y.g G $.C.c.l 8 G [ [ 9 6 8 F 9 M 0 h 3 ; $ ; ",
"# 4 l N = s A L v ] J ^ z g a y @ t $.1.q.X.^ { *.4.) w =.u.b = ^ y 0.!.h.8 n 6.m.H.! 3 w.2.c.K c h | F 9 ; h @.q D 7 9 # 3 3 @ ",
"4 4 f : 5 b Y f d Z %.{ L k y ; , s q.8.1.b r n.Q.S.M.n u.Q.*.  r y | q.Y.D k <.S.v.{ 8 T 1.2.| 9 k R z s % s P q 8 s l t X @ X ",
"= = 9 # 5 l ( w y ' q.1.z 9 g t , & 0.g.0.s d Q _.m.n.m g.h.i O b ..E.V.V.6.u J [ E.<.h e.r.9.T u k K K [ $ 4 9 0 k N j s ; @ u ",
"@ 5 Q 3 , s C , ; b L E z a { 3 % : Z X.S.t #.c.).Q.Z o.U./ S 3 d n.E.m.D.D.n 1 n.U.$.y e.d.C.[ G k [ { T % 7 P V 0 P 9 A @ + 2 ",
"* 3 L k k u l ; = t c.R q 9 L s 8 , P ' *.j M.M.T.L.J ) n.n f u v i.I.e.F.e., > C.d.L g ' 1.P.T G h z L F @ q F P 4 H C t ; O K "
};
