/* XPM */
static char *log_spruce_top[] = {
/* columns rows colors chars-per-pixel */
"64 64 256 2",
"   c #0B0C07",
".  c #14130E",
"X  c #1B130C",
"o  c #1C1512",
"O  c #1C1B13",
"+  c #171814",
"@  c #1A0B08",
"#  c #260D08",
"$  c #29140D",
"%  c #34140C",
"&  c #3B160A",
"*  c #221D14",
"=  c #2D1C14",
"-  c #271A16",
";  c #331C13",
":  c #391D15",
">  c #242116",
",  c #25231A",
"<  c #2B251A",
"1  c #2E2A1D",
"2  c #282318",
"3  c #352216",
"4  c #33241A",
"5  c #3C251B",
"6  c #332B1D",
"7  c #3B2C1D",
"8  c #3C2415",
"9  c #3C331F",
"0  c #2E2B21",
"q  c #252721",
"w  c #342D22",
"e  c #3A2D23",
"r  c #3B2823",
"t  c #353125",
"y  c #3C3324",
"u  c #3C352B",
"i  c #3B362C",
"p  c #3C3A31",
"a  c #481A0B",
"s  c #4C1C0E",
"d  c #56230E",
"f  c #43241A",
"g  c #482719",
"h  c #5A2914",
"j  c #562918",
"k  c #5A331D",
"l  c #4C230F",
"z  c #622D13",
"x  c #6E2E13",
"c  c #68341B",
"v  c #753A1A",
"b  c #472D24",
"n  c #433425",
"m  c #4B3326",
"M  c #42342B",
"N  c #433A2C",
"B  c #4C3C2C",
"V  c #4A3827",
"C  c #533C2C",
"Z  c #583826",
"A  c #433C32",
"S  c #4A3D31",
"D  c #533C32",
"F  c #522F23",
"G  c #673A24",
"H  c #723D24",
"J  c #7E431E",
"K  c #57422D",
"L  c #4C4234",
"P  c #484337",
"I  c #534433",
"U  c #5D4A36",
"Y  c #554A3B",
"T  c #5B4D3B",
"R  c #584736",
"E  c #5C513B",
"W  c #4D422C",
"Q  c #6C422C",
"!  c #654129",
"~  c #7A4223",
"^  c #7C4A2D",
"/  c #77452A",
"(  c #644B34",
")  c #6B4B34",
"_  c #614C3B",
"`  c #684837",
"'  c #744C32",
"]  c #7A4D33",
"[  c #724C37",
"{  c #64523D",
"}  c #6B533C",
"|  c #73533C",
" . c #7A563A",
".. c #574E42",
"X. c #5D5343",
"o. c #56554C",
"O. c #5C5C54",
"+. c #645443",
"@. c #6A5D4A",
"#. c #665946",
"$. c #745B43",
"%. c #7B5C44",
"&. c #745C47",
"*. c #624E42",
"=. c #6C624C",
"-. c #7B634B",
";. c #766248",
":. c #6B6454",
">. c #7C6A55",
",. c #766855",
"<. c #7E735A",
"1. c #973E23",
"2. c #83461E",
"3. c #90481E",
"4. c #854A26",
"5. c #9B492B",
"6. c #8A522A",
"7. c #95572C",
"8. c #8D5933",
"9. c #875737",
"0. c #935C33",
"q. c #9A5D33",
"w. c #9B5838",
"e. c #9C4E32",
"r. c #A24C2D",
"t. c #AA522F",
"y. c #A45434",
"u. c #AA5534",
"i. c #AC5936",
"p. c #A55B3B",
"a. c #AC5C3B",
"s. c #A75738",
"d. c #B15E3A",
"f. c #B15B37",
"g. c #A54F30",
"h. c #9C6235",
"j. c #93603B",
"k. c #9A643A",
"l. c #9B673C",
"z. c #AD613E",
"x. c #A46B3E",
"c. c #AB6B3B",
"v. c #A46736",
"b. c #B3623D",
"n. c #B8653E",
"m. c #AC713D",
"M. c #A7703B",
"N. c #B1743E",
"B. c #A1612B",
"V. c #835D44",
"C. c #AA5F41",
"Z. c #826144",
"A. c #8C6A4C",
"S. c #896447",
"D. c #9C6B43",
"F. c #976947",
"G. c #846C53",
"H. c #8B6B52",
"J. c #836752",
"K. c #916C52",
"L. c #877258",
"P. c #987454",
"I. c #9A724E",
"U. c #AD6443",
"Y. c #A46C42",
"T. c #AD6A45",
"R. c #AE6B4A",
"E. c #A76748",
"W. c #B36542",
"Q. c #B46945",
"!. c #BA6B45",
"~. c #B46D4A",
"^. c #BA6E49",
"/. c #B86641",
"(. c #AC7344",
"). c #A5714B",
"_. c #AC744B",
"`. c #AC7A4C",
"'. c #A77446",
"]. c #B37444",
"[. c #B37944",
"{. c #B5724D",
"}. c #BB724D",
"|. c #B47B4C",
" X c #B97D4C",
".X c #B97A47",
"XX c #AD7B53",
"oX c #A67956",
"OX c #B57352",
"+X c #BB7551",
"@X c #B47C53",
"#X c #BB7B54",
"$X c #BB7B59",
"%X c #B07D5A",
"&X c #897B62",
"*X c #9A7E63",
"=X c #A57E60",
"-X c #C0754D",
";X c #C27C55",
":X c #C17B56",
">X c #B5814D",
",X c #BA824D",
"<X c #BE8347",
"1X c #AC825C",
"2X c #B58255",
"3X c #BB8454",
"4X c #BC8956",
"5X c #B5845A",
"6X c #BB855B",
"7X c #B5885D",
"8X c #BD8A5C",
"9X c #BF905E",
"0X c #99866D",
"qX c #AA8868",
"wX c #BB8662",
"eX c #BD8C63",
"rX c #BD8E69",
"tX c #B18965",
"yX c #BF9265",
"uX c #BD916B",
"iX c #BA9371",
"pX c #C1864E",
"aX c #C18554",
"sX c #C28B55",
"dX c #C2845C",
"fX c #C28C5C",
"gX c #C4915E",
"hX c #CB935E",
"jX c #C38661",
"kX c #C38D63",
"lX c #C18D69",
"zX c #C88C62",
"xX c #C49264",
"cX c #C99365",
"vX c #C4946B",
"bX c #C9956B",
"nX c #C6996C",
"mX c #CA9A6D",
"MX c #C99A65",
"NX c #C49671",
"BX c #CA9771",
"VX c #C59A72",
"CX c #CB9C73",
"ZX c #C79E79",
"AX c #CB9E79",
"SX c #CCA175",
"DX c #CCA27B",
"FX c #CAA47B",
"GX c #D0A47C",
"HX c #D1A677",
"JX c #CDA16F",
"KX c #CEA581",
"LX c #CFA881",
"PX c #D2AA84",
"IX c #D2A884",
"UX c #D3B08F",
/* pixels */
"q , q :.E L G ' t W ^ 4.8.8.} C u . ,.F.$.Y -.R.T.-.,.<.@.A :.>.: # % @ X u - ..P.H.G.L.J.%.T e e U ,.G.<.;.#. .} A.W y 1 } } t ",
"< O , :.Y T / ' > B j / 9.V.U D 0   A %.D 0 D F.| *.I r f j k H c H h a & # # q *X-.&X*XJ.&.Y t S B Y G.<.A.P.A.=.Z.U 6 < K ( 1 ",
"y A 0 ,.+.{ / | w S K %.%.V.} D w o i S b b ` Q G / 6.w.q.D.h.Y._.(.2X(.h.~ h a $ # - y +.%.S w N N =.@.A.1X| I.#.A. .O 9 K k 6 ",
"6 X.Y t I L ' U O i T @.-.%.%.D r g j / 4.p.OX@X[.<X6X5X8X`.4X6X$XeXxXxXxX7XfXXXq.h & % # o $ - 1 X.&X>.L.2X$.F.{ 2 9 > K k V 1 ",
"I o.w . X.S { L p #.#...#.*._ [ 9.7.].6X4XvXCXbXNXbXvXmXCXnXZXMXxXMXxXxXnXbXnXnX4X`.v.2.z s & # # 3 u M G.(.-.8.{ 2 4 O 6 9 N t ",
"+.O.w . #.A T i ..=.@.#.S F 4.R.uXvX8XmXCXZXCXCXnXZXDXCXDXVXCXCXJXmXMXxXfXfXxXvXlXvXyX5X4Xc.9.x z l a & f Z 9.9.} 6 y i + y 4 V ",
"S O.i . :.A Y N p X.T D ] x.6XvXCXFXVXnXxXbXJXbXbXCXSXAXDXDXGXmXcXmXvXVXvXMXgXkXxXxXnXmXnXvX8X|._.Y.7.v z l 7 { y 6 W { 1 U $.L.",
"m u u . @.P M L A ..m / XXtXSXSXSXFXFXSXmXbXMXbXvXbXMXmXCXSXSXmXCXCXvXFXCXxX8XxXxXMXMX8XxXxXvXlX8XXX_.(.c.l.z & $ 1 W ;.1 W A.%.",
"m m M O i 0 r M r Z 4.(.fXeXVXFXGXmXbXCXJXmXmXcXcXcXbXcXmXbXbXCXAXCXZXCXCXbXAXCXmXbXcXbXcXmXJXfXrXeX7XXXR.).m.8.j ; R Z.w > A.9.",
"M n 4 + + t F D F 5.<XxXxXnXVXnXGXIXGXCXmXbXcXcXcXfXfXbXkXzXzXlXBXBXAXvXBXBXCXcXlXmXsXhXfXhXfXaX5X$XeXeX2X@Xx.F.9.d : -.N , P.S.",
"P = 4 t   Y : g 4.3XfXvXVXFXnXLXGXCXJXmXJXMXcXBXbXfXfXfXvXjXjXcX$XjXmXBXbXcXCXCXAXkXbXbXbXcXgXaX#XeXjX#XeXxXuX5X).9.c 8 2 w I.) ",
"p ; : M   Y l 3.MXmXgXSXSXCXCXDXBXGXBXhXCXCXbXhXCXcXkXkXzXbXNXCXNXwXKXAXAXBXCXcXAXbXCXmXbXcXdXhXMXxX6XeX8XvXeX5XeXD.V.g X u P.%.",
". 2 8 L . f 4.4XmXSXDXmXCXmXFXmXAXzXCXJXcXJXbXmXAXIXIXAXAXBXBXjXdXjX3XvXBXAXAXGXzXmXzXbXcXJXBXCXCXfXzX@XwX@XeX6X).oXF.c $ i <.L.",
"Z * 8 p 4 v k.xXJXDXmXHXbXCXCXBXcXGXzXbXcXbXIXIXKXKXAXbX:XOX~.p.Q.z.z.~.}.$XAXDXGXmXGXGXbXGXGXAXbXCXbXsX#X@X{.uXoX).oXS.j o i *X",
"M - 7 7 Z h.|.nXSXSXDXbXCXCXcXCXCXhXBXJXIXIXIXAXlX:X/.f.~.OX$XR.R.{.Q.Q.a.a.W.-XAXIXIXKXIXGXcXBXbXCXvXmXgX4X6XR.5XXX_.I.^ # O =.",
"u < M ; J >X9XSXSXGXbXCXSXcXbXCXmXbXGXGXPXcX}.f.W.U./.Q.Q.U.U.W.a.i.z.i.a.T.r.g.n.-XzXBXGXmXzXlXVXkXCXCXbXCX$X|.6X{._.1X9.f y #.",
"w u L j k.4XMXFXDXCXCXCXcXCXcXBXCXGXIXKX;Xd./.~.C.a.t./.}.~.OXR.W.b.~.Q.n.t.a.p.r.r.r.u.-XbXNXeXrXvXNXAXDXzXbX8X{.>X{.XXF.h N E ",
". u M v @XbXCXCXDXmXCXbXGXgXAXbXGXUXCX-X/.^.U.d./.-X/./.C.W./././.!./.d.a.b.u.g.r.r.5.r.a./.wXCXvXwXlXNXlXAXbXwX8XxX@X(.l.v = t ",
"- M D q.vXmXCXCXmXCXAXlXzXAXbXIXIXcXn.b.d.d.!.!.g.a.f./.-X^.W.R.~.~.~.Q.n.u.s.s.1.1.g.s.y.y.s.#XvX8X@X#XZXkXrXvXbXjXsX X@X6.5 y ",
"O M F Y.SXMXbXFXbXBXlXbXAXcXAXIXBXn./.f.b.!.U.y./.-X-Xa.u./././.d.d.a.s.R.!.i.r.5.u.u.y.p.w.U.v.+XAXfXsXkX5XNXNXeXwXbX4X4Xj.f N ",
"* M c >XFXSXmXSXbXCXCXbXBXAXIXBX^.C.Q.!.-Xd.f.^.^.C.C.-X-X-XC.C.U.Q.-X/.f.s.W.u.a.r.a.f.e.n.7.z.R.vXMXvX XlXrXvXvXeXNXvX,Xj.% W ",
"$ B v 4XSXSXmXSXbXcXcXAXcXBXBX$XC.+XQ.}.d.u.^.!.g.!.-Xf.t.f././.-Xd.U./.Q.d.s.U.U.!.g.W.b.y.U.a.Q.dXDXlXlX5XdXlXNXvXFXnXgX0.% t ",
"C : 6.gXmXJXDXJXbXbXvXvXAXAXBX}.W.Q.}./.i.~.^.y.-X/.u./.-X/.-X-X/.-X-Xt.b./.d.u.Q.~./.y./.s.Q.s.OXjXFXzXbX5X XjXiXBXSXiXnX8.& Y ",
"r : h.SXmXbXmXbXGXBXBXvXCXBX:XC.+X~.}.a.-XOXu.~.C./.-X^.-Xf.u.g.U.f.d.-Xb.b.!./.y.U.~.f.{.b.z.b.E.$XDXGXeX6X X6XrXeXSXZXCXx.: A ",
"M k T.SXmXmXmXcXcXCXBXcXAXAX:Xa.U.+XC.+X~.s.~.~.d.:X-XC.g.C.-X-X-X/.u.C.W.-Xd.U.!.g.}.n.~.Q.y.~.E.+XAXKXvXdXxX2X%XNXDXAXNXoXl e ",
"D k 2XZXmXcXmXbXzXCXcXBXKXBX!.~.U.~.C.+XC.+X~.d.-X+X/.d.-X-X/.-X!./.^.d.s./.^.d.~.Q.a.}.u.{.s.}.p.+XDXKXzXfXmXsXOXeXVXVXeXXXj = ",
"B c 7XCXbXxXmXcXcXbXzXAXKXlXi.:XQ.$XC.Q.W.+Xf.~.~.C.f.^.Q.s.u.C.t.i.Q.^./.s.+X}.Q.}.u.+Xn.p.^.z.p.+XAXBXcXcXxXfX8X@XOXlX5XXXg e ",
"U ~ 7XvXVXCXcXcXcXbXdXAXAX:XU.C.-XQ.W.C.:XU.-X~.OXC.}.Q.s.:X-X:X-X~.U.a.^.!.U.+X-Xz.^.u.^.i.}.~.a.^.AXBXcXCXbXfX#X|.XX5X@X1Xj e ",
"b / 8XVXvXCXbXbXdXcXlXAXBX~.~.C.~.C.-XC.-Xs.+X$Xy.+XOXs.+X+XU.U.~.R.+Xa.W.-XW.~.-Xd.+Xu.}.u.:XU.~.+XAXCXcXcXbXlX|. X].6X%XwXj w ",
"- H 5XNXvXCXCXMXzXcXzXNXNX~.OXU.-Xg.-Xu.+Xs.+XR./.+XU.~.+XC.C.R.OXOXOX~.a.OX-XC.^./.}.u.#Xd.}.W.{.U.AXAXkXCXAXBXkXfX[.2XXXtX] C ",
"M 4.wXNXvXnXCXxXfXcXjXCXKXQ.OXU.:Xu.:Xg.OXC.+XC.+X+XC.+X~.W.OXR.OXW.OXOXQ.OX+XW.#X-X~.a.OXd.+X~.OXs.lXAXzXAXAXvXlXxX{.[._.iXG f ",
"D 4.tXNXnXbXmXxXfXcXcXBXAXOX~.C.+Xu.+Xg.-X/.}.C.+X+XQ.+XU.OXR.OXOXOXQ.+XC.+X:Xs.OX+Xp.d.~.f.+X~.~.C.lXAXkXBXmXeXeXyX{.2X%X1XZ $ ",
"r v 2XvXmXnXvXjXfXzXvXmXCX^.~.T.:Xu.-Xt.-XC.-XU.}.}.U.+X~.R.U.~.~.U.U.:XC.OX+Xa.~.~.W.W.!.u.$XU.~.C.lXIXkXmXCXrXNXeX|.[._.6.& # ",
"r / >XyXvXnXzXmXdXlXzXAXvXQ.U.R.}.g.-Xg.-XC.-XOX~.:XR.}.OXC.~.W.i.s.+X^.W.OXW.E.+X~.~.U.~.i.:XU.+XC.zXKXjXbXZXrXvXeX#X|.Y.B.d % ",
"m 9.7X8XxXxXbXVXcXkXlXGXlXOXU.a.}.g.-XC.-XC.-X+XU.:X$XC.$X~.~.R.U.$X:Xu.~.}.s.OX-Xd.$XC.~.C.+X~.:XC.AXAXcXBXvXuXrX6XbXT.8X<Xx # ",
"4 / 7XfXkXkXmXxXAXxXcXDXlXOXp.a.W.R.C.+Xf.!.^.~.~.+XOXC.C./.}.:X:X+XC.U.~.i.U.OX^.W.}.W.+XC.~.C.C.:XKXIXkXVXwXmXrXfXxX3XvX8Xv # ",
"S c rXwXfXnXgXkXcXlXxXIXvXOXs.U.C.-Xd.+Xs.}.Q.+XOXR.+X~.~.U.t.y.C.s./.^.W.C.~.-Xf.}.Q.C.}.C.^.Q.s.:XNXBXbXAX6X$XvX@XaXfXlXeXQ 5 ",
"4 c 6X5XfXxXxXmXzXlXxXCXlXOXs.}.y./.d.^.}.C.}.W.$XU.+X+X~././.}.-X-X-X/.a.}.-Xd.~.W.C.+XW.~.OX+XQ.:XGXBXlXGX6X|.kXlX].fXvXNX/ 7 ",
"7 c 2XyXbXxXgXCXeXfXfXZXBXOXC.Q.s.U.U.C.}.~.~.~.~.$XOX~.!.-X-X-X-Xf.t.C.!.-X/.C.Q.s.OX^.s.+XQ.~.W.lXAXGXbXBX8X}.8XCX3XfXeXnXU 9 ",
"4 G >X9XgXmXfXSXvXfXdXGXvX+XR.w.U.y.W.a.Q.-XC.OXW.+X$X+X~.d.d.W.d.d.~.~.-Xf.C.-Xu.^.!.r.^.^.~.b.:XBXBXBXBXbXwX{.2XSXaXfX@X7XQ W ",
"= x '.4X9X9XMXSXFXbXnXCXDXjX~.w.a.e.p.~.a.Q.U.U.OXQ.}.^.-X/.!.!.!.-X/./.t.Q.^.f.W.-Xu.f.}./.~.z.zXKXGXcXmXdXfX8X XxXsX3X(.rX) V ",
"V c >X4X4XMXxXMX3XSXxXfXIXSXOXR.y.E.w.a.U.y.OX~.U.}.~.a.i.b.d.n./.d.t.d.^.!.C.C.-XC.f.-Xb./.i.;XIXCXmXkXxX#X3XxX3XfXsX|.w.eX .y ",
"n c (.7X4XgXgXsXmXxXxXmXbXFXBXQ.OXw.a.w.U.U.a.OX~.5.z.n.!.^.+XQ.W.}.+X-Xu.d.^./.g.f.-Xf.f.f.!.CXKXzXlX4XkXxX.XxXxX.X4X[.4.eX| i ",
"V k l.7XyX,X4X<XmXaXbXbXvXMXDXCX~.U.C.p.z.W.p.s.}.kX].U.a.d.f.d.i.f.a.W.^.-Xd.i./.-XC././.!.mXDXmXbX3XkX X8XfX#X3X}. Xc.).2XV 1 ",
"K Z 0.7XxXgX4X4XpXsXMXhXHXbXAXCXlXU.T.T.p.y.U.R.i.g./.Q./.~.~.{.~.+X}.^./.d.W./.d.d.!.W.W.bXmXGXxXfXfX|.xX.X8X4XN.,XN.N.8.'.3 * ",
"K g 4.7X7XmXgX4X4XMXaXJXMXJXCXMXZXlXW.T.XXU.s.Q.{.}.Q.g.a.b.!.n./.C.W.U.~.!.i.s.~.W.U.!.zXzXDXcXSXzX8XxXaXxX3XT.|.,XN.'.D.K 2 * ",
"k 9 c `.yXxXsXgX7X>XMX3XMXMXMXSXxXCX8Xd.w.r.+Xu.s.z./.n.n.b.~.Q./.}.OXOXW.d.~.C.d./.zXlXlXIXfXHXfXmXjXMX X6X Xc.m.c.>XM.k 4 1 2 ",
"k K a h.yXgX9XgX4X8X,XnX,XMXgXcX6XCXCXkXQ.g.r.OX{.E.z.u.i.b.b.a.U.C./.OX$XC.d.:XlXGXBXBXKXzXlXsXxX,XmX,XMX3XU.(.N.x.[.J g 1 > , ",
"W ) 8 v [.gXhXgXMX2XyX7XyX>XgX4XmXpXCXmXBXR.~.z.y.r.u.z.W.W.~.]._.{.U.a.~.dXAXZXCXxXVXDXsXmX8XxX3XmX XxX X X_.(.c.Y.0.c 4 > > 1 ",
"1 | K a 7.[.gXMXhXnX8XyXxX9X[.gX<XmXaXFXDXvXeX}.}.~.$X{.W.R.z.z.U.U.#XlXbXAXAXeXCXSX8XvXCX3XlX6XxX,XkX X X].3Xc.(.D.^ f w 6 * 0 ",
"A ) ( # z M.4XgXJXsX9X9X8XnXyXN.7X,XmX,XeXFXuXDXNXkXCXZXlXlXjX6XzXjXCXCXbXbXBXFXfXxXGX6X8XvXeXkX].8X.X4Xc. Xx.(.k.9.G Y W 1 * t ",
"A U U 3 & v N.[.9XJXhXxXnX7XgXyX|.2X>XyXxX4XuXeXvXbXmXCXNXBXBXmXlXvXCXCXDXmXsXfXvXsX|.mX2XvXxX6XvX5XOX[._.x.`.XX9.G f #.t , O t ",
"p X.{ O X a 2.N.<X4XJXhXMXvX>X9XyX2X6X|.|.eX2XeXxXsXgXxXeXmXDXDXGXSXxXgXvXVXSX8X3XfXxX5XVX5XxX%X5X[.XX%XXX).XXD.' b ( 1 1 1 O , ",
", L L > V $ a 2.M.>XgXpXgXxX8X8XgXyX7X,X8X7X2X5X_.MXxXnXyXnXbXkXvXnXmXxXwXvXyXSX4X@XtXeXeXbX7X5X{.wXXXI.qXF.F.] Z ( { 6 < t > + ",
"+ 1 6 1 } U ; a J k.[.sXpXsX9X4X8X2X2XvX2X@XgXyX5X8XxX8XvX8XfX6XvXvXSXiX5X[.7X@XuXeX@XfX7X@X5X_.7XiX1XP.K.I.] C 7 L.;.t 1 t > O ",
"1 W 6 , U } U # l 2.q.c.<XN.<X4X3X8X2X2X`.|.7X6XeX@X@X|.@X3XfX2X X3X@XrXNXBX2XeXlXxXlX8X5X).%X`.1XqXqX1XV.$.5 $ W 0X=.1 < 6 O > ",
"e ( 2 V I ( E U f d J q.N.N.N.>XN.,X3X|.2X2X`.|.eX2X4X6X7X7XuXnXvXeX8X6XgXfXvXyXxXuXiX7X@XXX).H.qXqXK.Z.K : > > L 0XX.1 1 6 W > ",
"w N B 9 N K X.=.F a d 6.6.7.B.v.v.[..X'.`.'.|.,X2XeXeXfXbX2X8XyXwXbXnXnX4XfX4X6X6X5X1X7X7X5XXXqXH.S.) 5 3 7 > O Y I.K 1 6 i } 6 ",
"t , n y 6 y i :.y b a d 4.2.7.h.v.v.m.'.'.(.M.x.c.|.8X3X8X7X3XeXeX2XgX3X2X@XeXuX7X2XoXoX=XqXoXS.H.C ; D I y 2 X i S.{ 2 i E } K ",
"* . = n N * t N R Y , 8 a k 3.6.8.7.h.l.k.h.k.`.v.|.6X3X4X#X6X4X3X8X4X2X|.Y._.5X6X%XtXtXP.qXS.Z ; 4 >.&XE n > . y A.} 6 9 ;.;.E ",
". . O N R 4 n y i E . { 4.h % d H 0.6.8.9.S.F.0.h.Y.7X|.7X#X|.2XXXOX_.|.`.oXoXoXoXV.8.S.| | 5 ; 6 < ,.<.X.N 2 . -.I.| 1 6 <.,.Y ",
"2 * . #.E 9 8 8 6 1 K } 9.%.V $ l h G H ^ 4.' 6.] 8.oXI.F.F.k.x.D.v.S.V.9. .] ] %.H F F ( [ -.o w < #.>.Y B y 0 L.A.X.1 W ;.,.6 ",
"t q   =.=.W g g 6 O ( G ~ ~ } W o < 5 $ f g ` [ Z F.%.' V.G z H ^ H H G [ ` V D #.+.%.H.H.J.@.* 2 7 X.J.+.< i B =.0XW 1 W ;.=., ",
"q ,   ..L 9 k k 6 1 Q 7.7.p.;.+.0 < J.F.A.W ( ! / ( +.+.` *.[ f b b - C : L   Y 0XJ.H.J.A.%.E e O B R G.>.N P } ,.1XL 1 p } ( 1 "
};
