/* XPM */
static char *log_jungle[] = {
/* columns rows colors chars-per-pixel */
"64 64 119 2",
"   c #050201",
".  c #0D0503",
"X  c #0F0806",
"o  c #100704",
"O  c #130906",
"+  c #190B07",
"@  c #160C09",
"#  c #1A0E0A",
"$  c #1D110D",
"%  c #1F1411",
"&  c #220F09",
"*  c #22130D",
"=  c #2A150E",
"-  c #2D180F",
";  c #32180F",
":  c #381B0F",
">  c #241611",
",  c #291711",
"<  c #261915",
"1  c #2B1B14",
"2  c #261B19",
"3  c #2D1E19",
"4  c #321D15",
"5  c #391E14",
"6  c #311F18",
"7  c #2E201C",
"8  c #352017",
"9  c #3A2116",
"0  c #34221C",
"q  c #3B251C",
"w  c #3D291F",
"e  c #352521",
"r  c #392721",
"t  c #362924",
"y  c #3C2A23",
"u  c #352A28",
"i  c #3D2E29",
"p  c #3F302C",
"a  c #41261B",
"s  c #42291E",
"d  c #432D24",
"f  c #492E23",
"g  c #412F29",
"h  c #453027",
"j  c #4A3126",
"k  c #44322B",
"l  c #4B352B",
"z  c #4D382E",
"x  c #513227",
"c  c #51362B",
"v  c #52392E",
"b  c #453531",
"n  c #4A3731",
"m  c #463834",
"M  c #4C3A33",
"N  c #42393A",
"B  c #4E3E39",
"V  c #533D34",
"C  c #593E33",
"Z  c #513F39",
"A  c #593F38",
"S  c #4F403B",
"D  c #564036",
"F  c #5A4135",
"G  c #54423B",
"H  c #5B453C",
"J  c #5E483E",
"K  c #614235",
"L  c #62463B",
"P  c #63493E",
"I  c #6A4D3F",
"U  c #564642",
"Y  c #5A4741",
"T  c #564943",
"R  c #5C4A44",
"E  c #524648",
"W  c #544849",
"Q  c #5D4D49",
"!  c #5E514E",
"~  c #5E5153",
"^  c #624D43",
"/  c #694E43",
"(  c #624E49",
")  c #655146",
"_  c #6C5246",
"`  c #64524B",
"'  c #6B554C",
"]  c #6E584E",
"[  c #705446",
"{  c #72574B",
"}  c #72594F",
"|  c #7A5C4E",
" . c #655451",
".. c #6A5651",
"X. c #655856",
"o. c #6D5A54",
"O. c #655658",
"+. c #685759",
"@. c #665A5B",
"#. c #6D5D5A",
"$. c #725C54",
"%. c #7A5E51",
"&. c #735E59",
"*. c #6F6058",
"=. c #796056",
"-. c #74625C",
";. c #79645C",
":. c #756462",
">. c #7A6662",
",. c #756C66",
"<. c #7A6A64",
"1. c #736768",
"2. c #7E6F69",
"3. c #716C73",
"4. c #7F7070",
"5. c #82695E",
"6. c #846D64",
"7. c #806D68",
"8. c #82716F",
/* pixels */
"V q   G D R D k * > d d 7 o * $ 1 0 0 S 7     > 9 c L c x q @ $ y 4 q d f a s x 3 h c : 1 8 7 b G h 7 - - , < 4 c v k 7 < y M l ",
"k y X y z M k 0 > q k y 3 X 7 D 2.>. .;.D e . o 4 s V F d > X 6 n 1 ; 4 a ; : a 8 8 8 & 8 8 y ` ! y t p t S k * 8 8 j 0 b R D M ",
"y 0 X y M V M y M q 4 * $ $ y H ;.) J ) U t X , d j C v y < @ y ' ` ^ b 8 = ; & 0 m % < * # 4 c y < b T G G 0 @ 8 7 ) 2.Y y i p ",
"1 3 @ k Z l V z w d y 3 $ < z R J z l J S 7 # > c / / F 0 < # q I -.Q U D q o d G R R B k # . + + y m k G b 0 $ y G o.) D D k 8 ",
"q d > 0 G l G $.k Y ! k > $ h D D d z ;.] n < + d _ ' d 4 # # 0 Z &...i y * < V R *.) H S O $ $ 7 D D 0 0 0 7 7 M z y D R M 7 < ",
"y 4 , @ y y G B Q X.*.p $ $ 8 0 q 0 D ' ^ l < # d L | K 0 $ > r l ' G M 1 $ k k Q R ) c h   0 0 i R ! J Q m > $ i z d G D M * 1 ",
"l i 0 % 1 4 (  .` U S 0 $ $ h h y 4 l V C h 3 3 4 s s a 0 < 7 d V M l y $ 0 Z D j H J k - . y y y G G Q ] S % 7 < h d j $ 3 q h ",
"y 0 0 < y l H D D k D 7 p > y w Z Z 5 q , 4 b R G # * 9 2 y u 1 j d a 1 @ 4 y d D z F M > O 7 t M G S G Q i 7 S 0 @ 4 4 d J D h ",
"k y 2 $ 7 j D j y 8 # < H G 7 1 y V $ < M Y ^ / ) < . . r $.Y k q 3 * . k M 6 f s f j y < # t y k G y k M Z 2 B S   # w P ;.%.F ",
"8 y 0 $ q y z 8 * . 2 H V Y Y m 6 + . M >.>.&.[ V 6 # X 0 L ^ G ^ n ,   r E k 4 ; 9 c y b 2 p 2 m R M M 0 , B n m . * q F ^ h a ",
"y 0 $ 0 D Q q 7 8 . k M #.' ` ) y # X l _ ( F j 4 > # # k F G d B b 0 X 1 U Z k 0 4 9 M k 0 $ * h k 4 * y d ) o.D . * q 9 h 9 y ",
"y # $ m H -.o.H e X y Y ) ` G M 0 > X k j V ( Y 0 * # > V _ G G 3.H > @ e k E M J ^ ( ' M y . * > * , w y B ` <.G X < 0 q 9 8 h ",
"3 * 7 U J H o.R 7 O 0 H M D M k k < X 6 q j ..` y > . > j ^ W Z J f > O r n l Y _ 6.5.5.D w o 0 8 0 j v d 1 g A 6 > y k T Q < 8 ",
"4 , k -.*.i d y 1 @ i D D J H 0 8 * o > 6 n d 0 1 6 . , f j j q 4 0 > # r ( k ) ` G F K D p . 7 w 0 s 9 & , 4 # @ < M D D J z 1 ",
"7 > # F ` ..R k 7 $ < h R V k k 0 1 o t #.M 0 e r 3 o < d d , 1 0 t 2 # 6 j g G S f 9 9 8 0 > 2 0 y 0 i r 6 d X # 6 8 v T D 0 b ",
"0 e @ y o.:.*.J i < $ 8 h j y 0 1 > @ y R &.{ ' A y r O 4 q l G G U b 2 # & 1 f j w 8 0 y < 1 e 0 z ) ] ^ B B X * 4 Z ^ ` M 8 h ",
"y t $ $ H M H M 7 > @ # . O * 8 * @ < G F v F F ^ M 0 @ # e ^ E Z A R n O @ l r 4 d 1 , = $ b M M R V J E ( W . , 0 j L U d q d ",
"Y M > $ h s q , 8 $ 2 H k 7 2 > 7 > * k V l j j / Y g # + 4 f r n n c 1 O r V ^ Q Y 6 @ $ i g Y k D ` Y l U n o < 0 f a 5 d A K ",
"D G 3 7 0 = * . 3 < k M Z J ) M 0 7 O q s w z H Y F g # % 6 n 9 r f h i @ 4 v L ' C r $ @ y M k q c C v d d V # 3 1 d d , c d x ",
"* < y ) ' G 4 #   ' H -.;.R M Z 0 2 @ 0 D ' ] H c ^ g # > y U g y d 4 e e 0 s a f 5 r 0 # 0 g m v s q d q , r 0 < o ; A 3 5 : , ",
"8 y V R G n t *   k H J P M z y 7 7 @ q z *.} J l ^ r # > M Y V G ,   , ^ L c a f c i u O 4 d Y m d V O.A y ^ ~ % @ = n u 3 O ; ",
"j v ^ Y H M y 1 . k P J ) P o.M 0 1 @ 1 h v F D c l d # < Z Z / ( 3 X , V V A A L ^ Z g O 1 1 n g 5 A L l i R Y r 3 6 C  .V > q ",
"k d d z l k 0 < o M ^ V V V j q i e # < q 9 s h l d d % , ( Y R R 0 X 6 f k A M h j B g @ 1 > r d , 5 9 * u n k e y r ^ H 4 # r ",
"D 0 d q 8 j y y $ p V l j q 4 0 7 t 7 7 # & - 8 6 f n < > A L h 6 > # 3 d l f l 5 6 r 2 > y M r + , , = # + 5 4 g l Z T Z # 1 n ",
"B p z z k k M 7 $ > z w j y = O t U H D 0 X X R J k k M y * , # # t n e # 4 4 d 4 # * < e 4 r i 0 q # o O X # 3 A L A U l O 1 d ",
"B R #.,.-.' m 1 @ $ z q y k , . m ;.#.Y 8 o X `  .J R #.Q > +   6 h ' R Z M g 4 1 O > g g V C Y V M l o   e k n V C l g 3 @ 6 U ",
"d G M y G b t 1 O 2 -.-.:.' 0 X 0 $.-.V e $ X d q M V D Z 0 > . 3 q R ( Y / ) V 3 . 2 q h v V ..P h q $   p M M d h ( c % o 6 h ",
"< 1 8 w l q 0 7 $ e ` -.' ) 0 O 0 ' A G M e o $ y G U H z d e . 1 d V c j ) 6.( 3 @ 0 e q M ( U w 1 7 2 o 0 1 e d A U H A d 3 > ",
"1 * > $ 0 7 y m % 2 D J F F q O 1 A z ' G 3 o o G ;.} R h h r X , q 9 z ^ ^ ^ A 1 # 0 e M ` D G y = + > 7 $ < e y j G Z Z V y 7 ",
"B t 8 o $ h R S % y D i i t h > * k d J ;.d + @ z { ) F h 0 1 X > l ) o.^ c ] V , > k B G J k h 4 @ X m k 7 u 2 q q l Z l 5 r y ",
"k m 0 $ 0 D *.D 7 J k 0 0 < t 7 < 8 k D H j $ < 3 s x s l < . o > j ^ $.' x / z 1 1 l Q A Y Y y > $ 0 V U M ! B $ d d j * < e g ",
"0 0 3 < q z ^ G M G G 7 t < y w n M 0 s 4 4 p Y M $ * 8 1 y 0 # > r c A F V C k < , G R ' ) ^ B 2 0 F R ~ H o.T 0 $ 4 4 r A n r ",
"B y 3 $ 1 h V n d 0 $ % H S 2 8 y A > > g H Y / ..> . O r ' R 3 3 4 a a d l d j < > a C / ..` S > 0 K G O.( ^ E N   & q G $.;.+.",
"k y 8 # 0 d G w , X % H D J S i 1 $ . M :.>.&.{ G 8 O . 8 I ^ l y # # , 9 9 d V 8 q 4 v F  .' V < 0 P j j H G n M   # q F ' L %.",
"3 r < 2 M G 6 * < . y M ` ` ' ` g # o n } o.P c 4 1 # # g V G k d n # . R &.M l V Y Y 8 8 0 1 1 @ , f a j G Z M k   * 6 9 d d s ",
"0 * # n G $.^ F 0 o h R `  .R Z 0 * o j v C A n 0 * # * V ' A M 1.Y > . Q :.Q H ( G J R B % . # # < q a r y Q @.B @ > 4 4 q 9 d ",
"= > 3 Z R ) :.R 0 O 0 J D G M k g 2 o 6 s c +.+.r > . > l ^ W V ^ h > o y k k Z H ' _ o.( e O 1 1 1 d c q 4 k T y $ 8 k Z S 3 ; ",
"r 3 k <.>.y k h 7 O p H D H H y 0 > O 1 4 V c y 4 6 . , f c V a 9 0 < @ y Q k G H S l c n r   2 0 4 q 5 = = 6 & @ < k M Z H k d ",
"d 3 % G ..' S y 7 $ < h R V k h 6 < o e X.i 3 6 6 3 O 1 g s , , 3 r < # 4 j y G Z d 5 q 4 e $ < 8 r 3 r 6 1 r O # 1 0 c S D 0 D ",
"M 7 @ j *.:.:.T y * $ q z j h 0 4 > @ r ^ &.{ ' V t 0 @ q a g Z G S k , # * 4 j j q 4 d y , < 3 0 M ) $.^ Z G . * 6 M ^ ` B 0 n ",
"n > O $ ^ G H M 7 % o @ . # * q < # < Z G A F P ^ M 0 # # 0 ^ W U D R M O O d 0 4 y < 8 1 # y b b Y F R `  .T . > 0 j L R q 0 V ",
"G < > @ j y s 3 8 $ 7 G d < $ # < > > n V f x x / J y # + 0 j y n n c 3 @ r Z P H H z @ $ i y T M H ] P Y 4.G X < q j s q q j l ",
"Y < @ < 4 = * o 3 @ y Z M J ` M e 3 @ 5 s h j V ^ F k # $ 3 g 9 q f l t + 0 C / ] P z * p M b l 0 F ;.] Y *.) $ 6 6 j P F J ` M ",
"Q < n Y ^ M , O . ' H o.o.) M G e < O r z F ` P v G k # > i A y y h s y 2 4 j j F s q < i M B y h R P ^ ` ) G 7 2 @ 4 C J ^ ( &.",
"#.e m 8.>.Y y *   z J R ^ n M f 8 3 @ 0 D ;.-.J c ..d # < b Q n V 1   3 H H j 5 a v k t $ M j 9 M J ' J h j D X.% O > y y d H R ",
"B 7 k Y ( M y < . k H J ( J ` n e 2 @ 4 j c P F c x r # < Z A / R 1 . , A L Y C P J B p o y 1 w z H M z < $ z G 7 - < 0 9 9 s p ",
"y 3 l M l l 0 , o k R A F F M y u e @ 3 0 a s j l d g $ >  .Q g ( e O 6 j n ^ A v j Z p O < q 4 w w w < u m > * $ * > 8 7 * h k ",
"@ i M w 0 k y 0 # h c f j q 4 8 t e 3 < * = ; 9 5 f n < > A n , 0 < # 6 d c f v a q h 3 $ 0 G d + & 7 z G *.b . $ X 2 < q $ 4 * ",
"e G k k q p y 7 < k h j j s - # e G Z V 6 o O H Z f g b r , < O + 3 i 2 * q s f q * > < y 4 x # + y k D ^ ;.M 2 X > T E n # @ < ",
"r U ~ -.*.R 7 q < 7 h s q 8 $ X m -.:.Y 6 O . ~ +.H R #.E > +   3 l $.( M k y q 9 # 2 n k k d e @ 8 w y R R M k 2 > U Q M 3 @ > ",
"q y M k H l p ;.-.b > 1 - $ # 8 K $.&.v e # . l d Z Z G Z 0 > . 4 r R ' / _ ' V 3 o 8 y g M ^ ' $ @ * q j k y 2 7 7 M M r i > > ",
"7 0 j y h 0 i ] ] H ) G b 8 * F / ..U A b 7 O & q n G G V e < O 4 0 V l Z $.$.G y # i k k V J H > > k M H B t 2 T *.Q G m b 2 + ",
"* 0 h 0 0 k M D J M ) ] ) 8 * v K A C ^ U 8 o X G ( ) Y k y 2 3 < 9 z j J P ) M e % 6 r e 3 d j > 1 M ` ' U < e Y ! ` ' O.M i O ",
"< $ > $ 7 J ` D M b D H v 7 * F v a d Y h * O $ V +.] J S M 7 * O , q f C D F Z Z 7 t e 7 $ h 9 = < M ) *.T % 7 Z D  ...' U 6 > ",
"S H 2 2 ] o.*.H D D k q 1 # $ s f d x g y 8 # # d x F ) Y o.y $ O , 9 J G j G ` k i y < % < e > # 7 z J ` D b 8 h Z H G R ..2 6 ",
"0 i 7 $ R *.) ! ! D Z f 1 $ $ j ( ' 7.$.k M 1 @ O a x c G V y > O , 0 J J z M U D r > > $ k E > $ 0 7 s V ` M 0 h j J k ` M > < ",
"H M 7 < Z J R +.G J _ U y , # ) ' G X.H V H 3 # . a 5 5 5 j t 3 @ 1 6 l C g A H g y < B 0 0 n 2 $ M R s s l 9 7 a c z H S $ 0 y ",
"B S S < > V D h k q q M k 3 > M ' R j L H V 8 #   = ; * < 6 y u 3 # 4 d q n Q H M i e +.B y M e < y P c ^ D 8 8 p 8 > $ O o 7 0 ",
"b G p 7 $ q = $ $ + k o.Y y % < H f a x 9 q = o + q v C ..<.M r t + # 5 l D R S B 0 * j M Z G Q R 1 9 a c D < q ,.<.D 0 $ o # 9 ",
"_ ^ D < B w $ $ X i 8.6.$.n # # 9 ; ; * & + $ q q d / } &. .o.k 6 # @ , M k z k k e # < e k n Q T k 4 = 4 8 < z ) ) ) ) 7 o h J ",
") v y 0 ` D i 3 O n &.6.[ g % > H x a * O . 0 } _ 4 j P [ $.C n 0 $ # 3 0 y 4 * , , y < O , 7 y S G h 7 * * 8 J L c D D 0 @ 0 P ",
"h q 0 0 M #.B i O > c H C g 2 2 / _ w $ O @ y ] ] d q c K F f j y $ * 8 4 ; ; q h Y H e @ $ 3 y Y M j z h 8 # a F C K h < < q d ",
"w 4 7 $ k U B m < # k c d 3 , 3 V V y $ $ - q v c a q a a 4 4 = * < 7 0 k ^ V j k M H 3 $ 3 7 8 M y M J J h 8 s F f j < @ # @ 4 ",
"    O Y n G M Q e @ i B e @ > * 4 3 * > o # * q s c a 5 ; q 2 o 3 - 8 q c K v V f h j 0 3 $ X 1 k k y q l 8 @ w I ] Z i $ g 2   "
};
