/* XPM */
static char *log_jungle_top[] = {
/* columns rows colors chars-per-pixel */
"64 64 242 2",
"   c #060202",
".  c #0B0504",
"X  c #0F0806",
"o  c #100604",
"O  c #130A06",
"+  c #190B07",
"@  c #150C09",
"#  c #1A0E0A",
"$  c #1C110D",
"%  c #1F1511",
"&  c #23130D",
"*  c #221612",
"=  c #291710",
"-  c #261915",
";  c #2C1B14",
":  c #271C1A",
">  c #2B1E19",
",  c #311D15",
"<  c #311F18",
"1  c #2D211B",
"2  c #3A2217",
"3  c #33221C",
"4  c #3A251D",
"5  c #352621",
"6  c #382721",
"7  c #362924",
"8  c #3C2A23",
"9  c #3D2E29",
"0  c #3E312C",
"q  c #3D3230",
"w  c #41261B",
"e  c #41291F",
"r  c #422D25",
"t  c #422F29",
"y  c #443026",
"u  c #4A3026",
"i  c #44322C",
"p  c #4A352C",
"a  c #4C382F",
"s  c #52362B",
"d  c #533B2E",
"f  c #5A382A",
"g  c #443632",
"h  c #4B3731",
"j  c #463934",
"k  c #4C3A33",
"l  c #4D3D39",
"z  c #533D34",
"x  c #5C3E31",
"c  c #523D39",
"v  c #4E413D",
"b  c #554036",
"n  c #5B4135",
"m  c #54423B",
"M  c #5A443C",
"N  c #5D4A3E",
"B  c #614235",
"V  c #61453B",
"C  c #6C473C",
"Z  c #654A3C",
"A  c #6A4A3C",
"S  c #734E3E",
"D  c #564742",
"F  c #5C4740",
"G  c #564A45",
"H  c #5D4A44",
"J  c #5C4D49",
"K  c #644C44",
"L  c #6B4E44",
"P  c #654F49",
"I  c #754F41",
"U  c #784F41",
"Y  c #655147",
"T  c #6C5245",
"R  c #63504B",
"E  c #6A534B",
"W  c #745243",
"Q  c #795443",
"!  c #7B5847",
"~  c #76564B",
"^  c #7C5748",
"/  c #73584E",
"(  c #7C5B4C",
")  c #6B5654",
"_  c #645A54",
"`  c #6D5B55",
"'  c #6C5F5B",
"]  c #735B53",
"[  c #7B5D52",
"{  c #755F58",
"}  c #7A5F58",
"|  c #7E6153",
" . c #75645C",
".. c #7C625B",
"X. c #7E6E68",
"o. c #965F3E",
"O. c #995C3E",
"+. c #A05F3E",
"@. c #97603F",
"#. c #98603F",
"$. c #A3623F",
"%. c #845C4A",
"&. c #835B54",
"*. c #83604E",
"=. c #8B624C",
"-. c #976345",
";. c #9A6444",
":. c #94644A",
">. c #9A674D",
",. c #95694E",
"<. c #9C6A4C",
"1. c #836353",
"2. c #8A6552",
"3. c #8A6956",
"4. c #856558",
"5. c #8A655A",
"6. c #83685E",
"7. c #8C6B5B",
"8. c #926651",
"9. c #946A54",
"0. c #9A6C52",
"q. c #926D5B",
"w. c #9B6F5A",
"e. c #9F7255",
"r. c #94715C",
"t. c #9C735B",
"y. c #9F795E",
"u. c #A26444",
"i. c #AD6641",
"p. c #A56748",
"a. c #A36C4C",
"s. c #AA6E4E",
"d. c #A7704F",
"f. c #AB714E",
"g. c #A36E52",
"h. c #AA6F51",
"j. c #A47254",
"k. c #AB7454",
"l. c #AD7856",
"z. c #A4755A",
"x. c #AA7659",
"c. c #A6795D",
"v. c #AC7A5C",
"b. c #B27654",
"n. c #B37955",
"m. c #B17758",
"M. c #B27C5C",
"N. c #B87E5C",
"B. c #8B6D62",
"V. c #8C7066",
"C. c #8F736B",
"Z. c #957463",
"A. c #9B7663",
"S. c #977866",
"D. c #9D7964",
"F. c #907568",
"G. c #95796A",
"H. c #9C7C6B",
"J. c #A47C63",
"K. c #AB7D62",
"L. c #A47E6A",
"P. c #A97E6B",
"I. c #B27E62",
"U. c #A27F70",
"Y. c #B4815E",
"T. c #BB815F",
"R. c #9F806E",
"E. c #9E8271",
"W. c #A78067",
"Q. c #AD8165",
"!. c #A6826B",
"~. c #AC836B",
"^. c #AF886E",
"/. c #B38265",
"(. c #BA8564",
"). c #B78867",
"_. c #BF8865",
"`. c #B3866B",
"'. c #B9866A",
"]. c #B4896D",
"[. c #BB8B6C",
"{. c #BC906E",
"}. c #A58472",
"|. c #AB8671",
" X c #A68974",
".X c #AD8A74",
"XX c #A6867A",
"oX c #A68B7B",
"OX c #AC8C7A",
"+X c #B18772",
"@X c #B48C73",
"#X c #BA8D72",
"$X c #B28E7A",
"%X c #BC8E79",
"&X c #AE917E",
"*X c #B69076",
"=X c #BC9175",
"-X c #B5927B",
";X c #BB947B",
":X c #BD987E",
">X c #C08966",
",X c #C18D6B",
"<X c #C3916F",
"1X c #C18F73",
"2X c #C29374",
"3X c #C49876",
"4X c #C2957A",
"5X c #C3997D",
"6X c #C99B7D",
"7X c #AB8D80",
"8X c #AE9282",
"9X c #B49482",
"0X c #BA9682",
"qX c #B69985",
"wX c #BC9A84",
"eX c #B3968A",
"rX c #BA9688",
"tX c #B5998A",
"yX c #BC9C8A",
"uX c #B79690",
"iX c #BFA18E",
"pX c #BEA292",
"aX c #C19581",
"sX c #C39C84",
"dX c #CA9D84",
"fX c #C29E8B",
"gX c #C89F8B",
"hX c #C7A287",
"jX c #CAA185",
"kX c #C4A18B",
"lX c #C9A38C",
"zX c #CDA88D",
"xX c #D0AC8E",
"cX c #C4A492",
"vX c #CAA591",
"bX c #C6A997",
"nX c #CBA994",
"mX c #CBAC9A",
"MX c #CFB19D",
"NX c #D2B19D",
"BX c #CEB1A2",
"VX c #D1B3A3",
/* pixels */
"z 4   m b K z i & * r y > O $ & - < : 0 -     % 4 M L V E &.X.} } E E K M r , 4 & < u , , , > i D 9 < = = ; - , f z y ; ; 8 k p ",
"i 8 X 8 k h i 3 * 8 i 8 > O ; g _ J l ) ] | B.G.E.oXeXuXuX+XU.XX7XXXOXXX XU.L.B.K a < + ; , 6 J G 8 7 9 5 l i $ < , i 8 h G c z ",
"8 3 X 8 k z k 9 a 4 , & $ @ 1 0 D P B.XX8XrXiXyXrXrXbXfXuX0X9X9XeXtXeXeXeXeX9X$X$XU.H.P 5 + & 9 6 - g D D l 5 @ < , Y X.M 9 9 t ",
"; , O i z p z p w r 3 * @ $ 3 m B. XfXfXkXlXnXhX;X;XaX4X1X1XaXgXgXgXvXgXgXfXfXcXbXfX0XrX}.B.5 + @ > q 9 l i 3 % 6 M ] J b v p , ",
"4 8 * 3 m p M ` 9 g j > $ 9 ..}.$XfXVXBXdX'.'.'.4XaXgXvXlXlXlXvXnXzXnXnXvXdX1X1X1XdXcXvXcXyXqX..8 9 0 3 3 3 1 1 a a 9 b G h 3 ; ",
"8 < = @ r 8 k i g j D t ] E.$XyXcXvX4X1X%XfXcXbXaX2X2X2X,X,X,X6X6X6X2X1X>X(.>X1XhXnXvXsXlXbXbXrXXX] j j v 0 % % 9 a 8 m b d $ ; ",
"p 9 3 * = ; l l g 9 P H.-XrXcXfX4X4XgXfXvXfX).(.[.4X5XaX4XsXsXlXlXgXdXsX4X4X1X#X[.>X6XnXmXnXhXpXeX-XV.c v 0 % 1 - 8 y p $ ; 8 r ",
"8 4 < - 3 4 9 5 0 ]  X9XpXbXsX4XkXlXnX5X[.'.aX5X:X2X2X,X_.,X1X<X<X,X,X1X_.[.;X4XsX5XhXsX4XkXbXkXhXrX-XU.K 1 : g 3 @ , ; r N x r ",
"y 6 : $ * 3 6 9 6.}.tXcXnXlXnXnXmXnX,X1XsX4X*X)./.[.2X;X4XdXdX6X6X2X4X4X[.[.(.(.>X2XlXsXhXfX5XkXhXdXkX-X-X[ - 0 q . # 4 N  ./ n ",
"3 7 1 @ * - h V.}.tXyXvXNXNXNXnX6X3X4XsX%X).%X=XsXsX4X4XsX=X2X4X(.,X#X;XwX5X;X,X{.2X2XsXlXsXaX4X6XzXsXsX0XOX..9 7 . & 4 b Z r w ",
"5 3 % % 5 c V.OXtXcXfXVXVXmXzX6XdXdX3X[.2XaXwX:X%X(./._.[.2X4X[.[.=X[.#X'.M.N.(.2XsX6X3X{.5XfX=X*X<XxX2X=XrX$X7.8   $ 3 2 8 4 8 ",
"5 + X 3 i C.OXtXcXgXmXNXmXjX6XlXvX2X2XsX;XfX=X/.).).=X4XaX5XsX;X4X;X;X;X@X(.(.T.T.>XdXsX2X<X{.4X=X=X[.wX;X*XqXOX| X $ ; 4 2 2 y ",
"- + % 7 ] }.yXcXfXvXlXnXdXdXvXzX2X=XsXhXbX)./.].@X].;XfX5X[.[.'.].].].=X=X=X2X1X,X2X>X3XsX2X[.>X4X5X=X).sX;X-X9XR.n - 7 l G ; , ",
"* + 1 ) XXOXpXaXsXcXvXdXdXvXnX4X2XfXsXaX/.#X@X%X0X;XY.n.N.(.'.].#X@X]./.M.k.b.>X6X2X2X<X<X5X=X).(.,X=X[.).kX*X-X XB.p 8 0 m a ; ",
"% @ % V.OXpXfX%XfXcXjXdXlXmX2XsXfXkX4X(.#X@X$X0XM.m.(.[.2X[.;X-X$XrXiXrX2X[.(.I.n.2XhX3X<X[.3X=X).(.2X).#X:XqX`.-X}.~ 4 i i 3 p ",
"* % h }.tXfX;XaXfXfXdXvXnX3X4XsXhX4X'.;X=X;X).v.I.).;X;XrX0X;X=X;X-X:XkXfX;X4X2X{.(.(.jX4X{.).2X[.).(.'.[.[.rX$X|. XH.b l 8 1 0 ",
"- % [ OXfX;XfXfXcX(.lXmX6X6XsXbX4X(.=X=XwXv././.].;XyX'.I.k.K.K.K.v.v.M.m.(.5XsX4X3X<XT.5X4X{.).=X)./.l.).).].-XW.&X X3.0 = 2 8 ",
"0 t H.9XyX%XyXfX;X#XvXzX1X4XkXsX[.=X4XwXn.(.).@X;X#XM.N.(.].;X@X-X;X#X@X=X).(.(.5X:X3X2XY.3X=X).(.*X/.Y.Y././.*X@X^. Xy.y 1 y n ",
"7 M P.rX0XrXyXcX(.sXmX2XsXsXkX[.[.=XyXn./.].@X%Xk.N.[.'.].%X`.+X@X;X;X:XaX5X4X).(.=XkX*X<XY.2X=X)./.;X).Y.Y.Y.Y.-XW. XR.~ 4 2 u ",
"@ K |.yX0XfXyX0X=XnX3X4X5XvX(.2X;XfXM./.].;XI.k./.;X-X#Xk.h.j.x.v.k.M.Y.[.fXfX5X2X[.{.wX{._.n.:X`.Y./.`.Q.Y.).Q.Q.^.W.E.3.4 & $ ",
"# 4.$XiX%XfXpX;XsXcX,X4XhX[._.[.fXM.(.@X$Xl.k.).@X5XM.k.x.I.K.I.I.'.1X=X[.[.=XhXfX=X_.{.:X).Y.Y.-X/.v.).~.W.Y.z.c..Xy.!.r.p . & ",
"< H.0XcXrXrXcX;XcX3X=XaXsX_.=X*X).n.].-XM.m.).@X%XM.I.v.m.h.s.h.h.n.(.[.=X4X[.=XiXhX=X/.;X*X).l.].].Y.x.~.Q.Y.Q.Q..XH.R.H.~ O ; ",
"5 +XrXfXrXyXfX5XcX[.;XhX).[.=X:Xn./.-X`.k.~.;X#X(.'.'.x.h.x.x.x./.(.#X'.[.#X:X;X[.kXiX=XY.yX].v.f.{.Q.x.Q.W.Q.Q.c.Q.R.D.H.( + - ",
"p 9XtXwXrXpX:XsXsX[.;X:X[.=XfX)./.*X;Xm./.].[.I.'.'.h.m.K.I./.].%X;XsXaX:X:X=X:X:X;XiX*X]./.:X~.l.Q.~.c.j.^.Q.c.c.W. Xt.R.3.3 3 ",
"c P.cX0XqXyX:XfX=X).yX[.[.=XiXY./.wXv.).#X`.n.#X'.M.v.K.+X).m.s.s.f.m.(.#XhXwX#X#X;X@XwX-XY.*X^.v.b.^.c.j.Q.c.c.W.z. Xy.R.7.8 1 ",
"L P.uXaXiXpX=XwX).[.hXT.[.:X).(.@X:XI.).0Xm.(.).I.~.`.+Xv.h.h.x.k.m.I.I.m.b.=XfX].].%X].:X^.v.*XQ.d.Q.c.y.j.J.e.W.y.!.y.R.r.b 9 ",
"~ XXrX0XtXiX=XiX(.#X=XT.=XkXn./.0X`.).@X#X/.'.v.I.+X`.x.h.x.k.x./.I././.M.m.f./.wX`.@X].*X*Xj.*X~.c.v.W.j.j.W.z.W.y.W.R.R.G.Z 1 ",
"&.$X0X9XtX:X*XiXY.;X).(.;XfXY.@XyXx.`.;XI.`.(.h.K.`.g.k.I.I.P.+X;XwX;X@X).M.l.s.m.@XI.].c..X^.Q..XQ.d.W.c.j.!.J.W.W.W.!.D.R.*.# ",
"&.$XrX$XeX;X*X*X`.kXY.).rX{.(.-X9Xv.+X-XI.#Xm.v.P.v.g.I.+X$X%X@XK.K.I.].;X`.v.k.j.M.^.Q.~.Q.!.v.-XQ.a.^.v.j.W.J.!.!.~.}.J.R.4.: ",
"B.+X$X$XeX$X;X-X/.qXn.).wXv./.-X].K.9X@X/.#Xg.J.@Xa.x.I.aX+XI.K.K.`./.v.x.].@XK.k.s.@X!.^.Q.!.j..XW.d.^.J.t.J.D.W.!.W. XD.R.7.i ",
"&.+X$X7X8X@X-X-X].iXl./.iXl.).qXI./.9X).I./.g.K.|.g.K.+X@Xx.K.P.+X#X@X@XK.h./.~.k.k.v.].~.W.^.c.~.!.j.Q.H.j.J.!.c.}.W. XD.H.7.a ",
"B.P.$X$X-X@X*X*X^.:Xl.].yXl.`.qXI./.0XI./.K.x.P.I.g.P.aXx.K.P.'.k.h.x.K.~.v.h.@Xv.j.s.~.Q.Q.~.z.~.~.c.c.!.c.c.!.c.!.J.oXD.H.Z.M ",
"&.|. X-X&X/.*X*X~.:Xk.`.yXM.Q.iXl.@X0Xx.K.K.x.+XK.m.`.+Xh./.@Xj.j.P.K.g.`.v.u.x.k.s.$.M.v.x.+XJ.K.L.x.x.!.c.J.!.c.W.v.&XR.}.G._ ",
"^ ~.OX@X8XQ.-X*X/.;Xl.].qXl.].rXN.'.;Xv./.`.K.|.I.k.+X`.a./.v.;.+XcX@Xx.K.x.O.+.n.[.2X>XT.d.K.j.v.~.x.k.~.v.K.!.c.^.W.&X!.oXH./ ",
"U P. X.X&X.X*X:XQ.*XI.].:Xn.'.0X/.].;X/.].].I.`.I.a.P.I.u.I./.I.].;XwXx.K.K.g.x.v.k.l.v.M./.#Xv.Y.`.v.v.^.K.Q.^.v.~.c.-XJ. XZ.B ",
"U P. X.X&X@X].9XK.@X`./.*X[./.0X#X/.$X/.].%XK./.I.u.g.x.u.I.v.p.k.$XQ.g.+Xv.x.+XK.k.k.@X].W.$Xk.@X/.v.n.v.k.v.OXQ.~.z..XJ.J.Z.V ",
"C L.OX~. X*X^.;XY./.`.].;X=X/.0XyXI.@X;XI.%Xv.k.`.+.p.].x.K.#X@Xk.v.I.x.I.h.u.]./.v.+X+X@X~..Xv.9X.XK.v.~.v.v.`.v.M.k.~.z.~.S.a ",
"L W.OX^. X.X/.;X).).'.`.:XrX).-XbX/.].wX/.v.I.n.`.m.s.I./.x.'.#X].`.`.~.K.h.I.s.v.M.;X+X*X+X.Xv.9XW.k.Q.~.v.Q.|.v.v.k.|.x. XS.z ",
"K L.oX+X.X*Xv.@X].(.2X/.*XiX/.#XkX;X).;X@Xk.K.m.`.$Xh.x.@XN.I./.x.P./.v.I.%X+Xm.i.=X@X*X@X-X].`.-XQ.k.^.v.k.~.K.v.+Xx.$XJ..XS.K ",
"d J.OX~.+XOXk.].=X'.zX/.].wX;X/.wXpXK./.].k.K.+XK.+X+Xh./.=X%X@X#X/.`.@X]././.m.].'.).@X].-X/.@X`.Q.s.@Xv.j.].K.I.+Xv.-XP.OXH.c ",
"5 q. X$XK.|.v.@XkX).'.=X].%XiX(.#XqX`.K.~.K.k.~.`.K.$X/.'./././.K.K.x.I.K.K.I.;X$X+X'.I.;X`./.:X/.k.v.~.v.k.^.K.Q.K.z..Xx.OXA.M ",
"7 5.OX$Xg.P.@X@X;X].].wX'.#XwX=Xk./.;Xj.~.`.K.K.|.`.v.^.;X$X].].)./.].#X;X;X$X+X].;X`.$X@Xv.9X@X).d.M.v.K.K.$Xv.^.Q.c.OXz. XZ.p ",
"7 P .XeXj.^.&X~.-X-X(.;X:X#X#X;Xs.v.+X+Xj.I..X~.K.~.`.`.~.`.$X+X/.P./.].@X).#X@X@X].@X-XY.^.-X].x.s.$Xz.s..XW.x.^.|.~.~.x.|.q.i ",
"9 9 U.9XW.OXOX^.@X;XQ.=XfX)./.`.`.j.W.9X`.g.P..X.Xv.Q.+X@X`.'.].]./.M.M.).@X]./.).@X$X/.Q.9X^.v.s.`.K.v.j.^.K.x.K.z.!.~.J.XX2.J ",
"j % F.OXJ.P.OXOX|.*X=X=X;X#Xx.K.@XQ.c.W.OX+Xj.K.^.$X@X/.K./.~./.I.'.`.[.*X[.@X=X$X].v.Q.9X~.Q.a.K.K.v.c.v..XJ.K.x.j.^.P.K.}.%.l ",
"> X N H.J.z. X&X`.=XrX#X=X#XI.~.|.$XK.j.K.OX-XK.z.Q.^.|.$X@X%X=X@X`.M.v.].].+X/.I.M.].-X~.K.d.Q.~.J.c.j.|.J.j.P.P.z.!.j..XL.L 5 ",
"@ X ; 5.!.J. XOX-X@X;X'.I.#X;X@X+X.XOX].j.v.W.8XqX.XQ.v./././.v.x.(.`.`.`.M././.-X9X+Xv.x.a.Q.Q.v.J.<..XL.z.K.J.z.W.!.z.OXw.x 5 ",
"  # # M S.!.L.OX9X@X0X#Xv.`.$XqX@X/.`.-X$XK.v.~.].-XwXwX;X;X=X;X;X]././.@X-X-X^./.K.v.k.d.Q.Q.v.J.<.K.J.J.h.J.v.a.W.L.v.}.8.< + ",
"# : # 3 3.oXP.oX&X0X/.Q.`.v.@X0X0X-X/.@X.X@X.X~.v./.`.[.@X].#X/.l.k.d.d.j.Y.l.l.v.f.d.l.Q.W.c.c.g.~.J.c.j.c.j.j.j.L.z.z.A.%.o # ",
"% 1 7 9 4.H.OX!.&X-Xv.x.~.+X~.+X9XqXrXQ.Q.^.^.*X:X*X[./.l.l.k.k.Y.).@X).Y.k.f.j.k.Q.^.Q.c.z.j.a.~.L.z.a.c.J.c.a.J.y.>.J.9.x . @ ",
"$ $ * # 8 G.oX!.~.|.+Xj.J.+X$XP.+XrXtXyX@XK.Q.].].@X-X:X:X=X=X).Q.Y.Q.Q.Q.).W././.Q.c.c.k.a.c.!.J.z.0.v.c.J.j.z.J.0.e.D.%.t @ @ ",
"# $ $ @ @ H H.8Xe.j.~.|.x.~.`.+X~./.$X;X-X-X-X]./.`./.).`./.Q.Q.c.Y.Y.l.l.j.Y.l.l.k.d.d.x.J.c.c.z.<.j.z.z.e.<.J.D.,.J.8.I > @ X ",
"@ & * @ X * [ D.J.-.P.|.|.z.P.P.].].K.K.~.^.$X*X$X@X].Q.Y.Y.l.Y.@X@X@X).l.d.l.j.k.k.Y.!.!.W.z.e.<.c.e.c.e.0.H.J.z.t.t.%.M < - . ",
"- # @ . @ : i ( q.w.g.L.~.~.h.x.W.^..X^.Q.~.~.^.^.].@X*X.X^.Q.^.Q.k.l.Q.~.W.~.^.W.W.c.c.z.j.a.e.c.z.j.<.<.D.D.D.>.A.8.S h 8 * $ ",
"l m % # a i y 8 U 3.0.>.J.}.OXJ.d.W.~.^.&X*X^.Q.K.K.K.K.v.x.v.l.l.Q.Q.k.l.Y.j.Y.k.c.c.d.j.j.y.e.e.0.<.>.y.A.0.,.H.q.Q p 9 c * > ",
"3 9 1 @ i l 8 1 8 S 2.A.:.z.~.OX&XQ.W.^.^.].].Q.^.Q.v.v.v.c.c.Q.Q.d.j.Q.Q.j.j.j.j.z.d.z.z.t.<.e.,.-.e.y.t.9.9.D.q.^ p > l i * ; ",
"M k 1 - p p 0 p ; 6 S &.J.g.z.}. XOX$XW.c.v.Q.c.Q.J.W.v.v.v.c.j.d.k.a.j.v.v.J.v.j.j.j.a.<.,.<.-.,.y.A.e.0.9.D.7.Q y 4 j a $ 1 8 ",
"l v v - * a y ; * # * x 2.H.|.J.!..X X$X.X~.W.d.a.a.a.<.<.;.<.a.k.W.J.d.a.<.a.<.<.<.:.<.@.@.<.y.t.t.9.,.9.Z.7.S h * & @ O O 3 3 ",
"a b i 1 $ 3 & + o . - i V 4.H.}..X!.!.^.^.!. X!.c.e.j.d.a.e.c.J.c.W.c.z.c.e.;.;.-.@.#.-.<.e.y.t.9.:.,.r.r.*.B 4 _  .m 3 % o $ 2 ",
"E J b - l 8 & $ o 3 ) K p 9 T 7.D.!.!.W.c.y.c.c.J.J.y.y.z.t.e.J.!.c.J.W.e.<.e.9.<.9.<.<.,.,.,.-.,.y.q.=.Q u $ 8 N T T K > O r H ",
"Y d 4 3 J b 0 ; O p ) / s * X 8 ( 3.r.r.D.R.D.e.t.t.t.e.t.y.D.A.q.=.8.t.D.y.,.:.-.-.:.:.,.,.9.r.q.2.Q f & + - N Z d x x 3 O 2 K ",
"u 4 3 3 l ' l 9 X & p x p ; @ @ u a p Z S ( 1.r.r.Z.A.S.Z.q.*.! x , s ! 2.3.9.q.r.r.r.3.3.2.=.%.! n w 3 4 , & w n d n u - * 2 r ",
"4 ; 1 $ i N l j - $ p p r - $ % 4 4 % . @ 1 8 n A W W ~ W x r & # # * 3 n U S W S ! ! S A Z M 9 r 3 i M N y ; w b u a * @ # @ < ",
"    O H a m h J 7 @ 9 c 5 @ % $ = * # X . . X & & 2 ; = & * $ . & & < 2 p z s d y y u 4 , $ . & 8 r 8 8 p 2 # r Z ] c 9 # t :   "
};
