/* XPM */
static char *log_big_oak[] = {
/* columns rows colors chars-per-pixel */
"64 64 72 1",
"  c #040301",
". c #0B0603",
"X c #0E0905",
"o c #0F0B08",
"O c #100702",
"+ c #140D05",
"@ c #190F06",
"# c #140E08",
"$ c #161007",
"% c #1B1106",
"& c #16110B",
"* c #1C150B",
"= c #1F180D",
"- c #1D1611",
"; c #1E1912",
": c #221507",
"> c #271A07",
", c #21160A",
"< c #231A0D",
"1 c #2A1D0D",
"2 c #321E0A",
"3 c #241D13",
"4 c #281F13",
"5 c #261F18",
"6 c #281F19",
"7 c #2F210F",
"8 c #33220D",
"9 c #272016",
"0 c #2A2215",
"q c #272119",
"w c #2C251B",
"e c #2F281D",
"r c #322415",
"t c #31271C",
"y c #322A1E",
"u c #382D1E",
"i c #36301E",
"p c #2D2721",
"a c #2F2921",
"s c #302720",
"d c #342C22",
"f c #392F23",
"g c #352E29",
"h c #382F28",
"j c #363124",
"k c #3A3225",
"l c #3C3926",
"z c #373029",
"x c #3C342A",
"c c #3E382B",
"v c #3E3730",
"b c #3F3830",
"n c #413526",
"m c #40362B",
"M c #42392D",
"N c #493D2E",
"B c #413730",
"V c #443B32",
"C c #493E33",
"Z c #463E38",
"A c #483E38",
"S c #44402E",
"D c #474036",
"F c #4C4135",
"G c #4C423A",
"H c #504436",
"J c #51463B",
"K c #54483C",
"L c #4F4741",
"P c #564B44",
"I c #594C44",
"U c #554B48",
/* pixels */
"%wecFMt03%9dxjdj3:<tt,0ftx;#,116k%VM6O3s5n6O<4nm34@*99=79iuNci<<",
"%wtcKMw0=*wxxekd<:<dt*<wyf.%<409m*Me*+6wsA*+34nm<1%<i$$<eituut*1",
"%0dcFkww%<wjyxy3::3psdw53;+*103-m3xs<%1,BA+%,wfn<7@9w*%*iiyniw=w",
"=5kMHlyw=%wadkl-:*<06f6d-<@,006#t6hw#,wwmZO@<sff9*%ei>9<ydrliy%9",
"dexcCuew**0hxkm<>:,eefmsd6*10tg+sBds#36yxB+%3tw69*%wi1<7duiMi3&3",
"wdfcwd00,*0fxxy5<1<0dVmd6d%6m5w@wAvw@4rthx+,3tdd0,@it3>0yfldy<$w",
"dkkkMmt63%wefNy6<216tMxs.w*wBX#,wfxp*0tdBd@,<tdf99$ye1=9dylk0<@9",
"cdxcmdw3<*pecfd31295fmxs.*<tD;#4wBVe,0wdJh@<4snf7=Xiy<<0kfmcy<<0",
"kdxckje0*%acxky3324wtff6@@3fAg*,rAJ536wMPx#35skye3$i>9<wtkil03%w",
"dyj=nje9%,axmkw33244tfBd,@3sBx#*3hU5*0tyId+33dmme0909%9eykyt0*%j",
"yywqCdy0*,dxmmw<32,,6hCf1:<wVh@3*3Bs*wdsPp*35fvVyye09=9yymty9=<0",
"jj-dFij0**axmxw6*%,6wtCs1,3tmB,3w<g530ddBe*55wdgieeq<>%euy9<<=;w",
"ed9jdtu9==afktd6,11wt6Bs7<3sAC64t,t53w6fdp+3wwabje001=*0de0j%&w=",
"eejxVmyw**ahmf06<rr4t6ms3,4wAh5<d*wx5-tfv#%50ggvee70<,<wucyk=<d0",
"3jdjMlye**dkmxdw323r6ss6*,3wLd+1t3rds+ddA5@*3hwgae0r9,<wyd0y$%lt",
"qlxjcmww<#dfmcdy342663shO@4mms+3t6rxs+<tmx#+5gazjire9<>efcd0%$de",
"9ljbzcww&%jdckdw978000xxO,tCAw+3rdtAd*46fvX%5gaaee=99%<eMMi9%%j9",
";ljzcDir**zjMmd09805esvd@*dABs+1rshBh@3rmv3*3a5dje*9<=<ynSr9%<de",
"ei;elGie=*3zMVd598r06ths@@6CB#@36esVd@<4tdBh.#5dk0>9<<<kFMk9<*jy",
"9eXaccyi&-3jFMe3w81=wfmA@@tBv%%44dhAg@3fffBp##6gyy%*$$wlNny0<*xd",
"je#zzxaj*=qcDDdq3><<3smA<+fPZ>,4rfxZd@3rffBs+*<ple*9:%emFk9y*9lj",
"xj*zjqee%$qcDlae*1<443df6+6dp,,4wwBAf*3dfgBd+355jy9*=*rMMk9e79lm",
"cy%wlDje=oweDVxq3r00w5tsdOsB6@<6fhBZd#3tddhh*#3peV==%%ikly=e3=lc",
"cq#5xGje%owdxMzq5216ws6eV.sZh%34thVVh@,whgBBq**0jj*<%9iily$jw&jx",
"ce$wcJde=$eddxd5w840dw*wA-xAB<#4tdAVB*<sfdAv5*<wkk*%%0tfw3+ye=wx",
"z0XjDKai3&ekdxq3e115s<XwBhLZh,*4tBxZd*<tfdVx-3wdul**%0rn=++wx<ql",
"l9=ejqdd0$aVdaw3**<563O6dwLZx-<4txxAs@3tdtZV-*3qed*%@trN1=+wz3aj",
"aaeo&qAj3&jVdwpp&%<w46+5wxZvh1,3tshBg%4txdLx#*addy*@*uyu9<*tw3cl",
"jji$Xabx*&cGdpad5>3mt4@*dxA<g3%60h5V5@0djfvd+3q0eu$%wyfy9*<ayyxw",
"awq9oagw-*xFddhd3>whd3%<shv-w3,46Vhhp*4yfdhq.%5eee@+yent=<,dd9qe",
"jwj9$jxe*qxxf5hd*<dt6,,@0-wdf6*6-Vjx0*4kdwxg+*5ey4+$uue31<7eedjj",
"ceq=*ecz-wxzpX5v6,sw3-,%&*wddg<55fbwe>0tdtxg*%0dy*+0uyww319dykde",
"Vj9q&awj-vxzqX&qp*wd63>,36stwgw#*sGhp*3fddxh*%5dy*+u0kye=*exdcck",
"Djq3*wxzaGzqw-op6w6sr<,36ttw6gd+*dgg3-6kkdxa*-5py%*kujuw=1wefacc",
"Jea3*qaedcxg;p;&-wBss<<4ww6w6mpO*6dd#0wkxx5d-33wf*ykyyyl0**ddjlc",
"Vedw3qdfcxjaozG-#xVp6,<46tsw6V3@,3dv+3uywwev*%-3x0xkweuk0=3yedkx",
"weee=-ajbxw5#5vv#gvp<,<6wss6dA#*4wdh+9wx--pv-*pqcfyryyy00*5edxjV",
"ejea3-zxZzwq%Xqv<hZaw1<6shstpg#*0whv*0dV&*5&3#damywyw9<9w,wwjyjD",
"ejaj%-dzGzaq-#o53hAhw4<6ehwsfp:<4dsv*5sZ-5z;-*kak&0y9e99t*edwfke",
"aaqj&9qaGdaw*+&;65hw0r>6sh<sm0>:r4df-<wg-5vp;*apy#dy<9i00130yCVw",
"9wee&3exGjaq%=3;5dxqpt,00q3dx<:<0rhx33mx5.pw-3s5eek990k7w<$3eMV;",
"daja=-azzpaw*=05pdbfq3<wa*wfx4:<4ddd34mh-#shw3wpwkce90t9e<<0eVe ",
"9waa=;aapzda**0aw5pq4<wud3*j01<<r6hf46dd-<hdz*wdwmuwwyy99<,9dj-.",
"wdaa=;jzzag903thwpg54rtse=&9<,,<wwfmw4dy3,ffx-0fwiukyjeew9:edj=z",
"9cje&9bDpap<w30xfpj536t6$990:9,<tshAt0dyp<hfx36d9iudyjyu<9,0xaec",
"xcM;$qjjdq-%3twxdew56tw*%0e779>1r6xJ*6xyhsddh55p3rjy0yukt7*wxfdc",
"VDk=$wzpe0*%6tsxwd*0eds*9w0771>1wddI3&fdxdhtA03pwwyy3uynyw=9d=ex",
"GMe==wjw&3*,9keed*#050*30yr7%<1w6ssVq#xdB6tdB*3wyy93<lykw0*0a;jV",
"KMe&99jq&3,<wjtydX+0dw@<yyw1>>7=<wdx*+ydx4kyh<qwr0i*<Cyky3%r=wkM",
"jl0$<jceow999eetx**0t5@5uy7714<w*dxB*X5dxdfdg*5ai0y$7Filtr<3*0lk",
"le<=jeMu9ee=&qiyc,1w04:0wwu1110u#kmv3;*dmkmfw*3dw99%yMtdyj%9%wjj",
"jeXeyySm99y=*jyyM,:6t<@0wyk9>0r0,tlkc-=wukxd630xi97:ySke3d<3$wyk",
"w<Xqlkmm0$990kddf<,4d:+5rwi<790y6*,tk**rtudy<40fe9<*uMl099<<+ekk",
"e9$wclxl9+&9djljw3*<0>@*y0r:11tr0*46d#,00ul0<4tdwk$<tSM1&u9<%ekl",
"09$qdjlx9%&9ddVVy4@331,3yrt<>19yk<0ui**0wtu<<4uduy$7yMuX$uy,+e05",
"j3%0cDMd3=%wwyVcft@3f>@0eey1<<wuk91tk3$9rce%34lfk9+1yi9O*ei=%uu4",
"w9&wjMM09**eydmMee+wn:%60mt>>34ff*3fM3%3fg-@5tuud0%1ik7X%dy78ku=",
"$;<lkMcy<=:wjdSee-@wt*,ttxf1>44fx,4dm*@4xv&@<lknl=<<ii=$;yy9rSkt",
"==ekcFdw9=<wdeMdd+@t0+6t6dm1,<0ch<6mv**3dx*%,0yFy3>7jy%%5yyrylk0",
"9e;yVFj0;%=eedcd3+,tw@6ttdM,,10rd36Cx3*4aV-%,3uMn3,9u99%9dttyFk$",
"XeeeDHf9***dyxxd5+*sp><eyxF%><0th,6d6-@<ehh%14uNn1,3y9*%0jtkkmkX",
"Xq9kDKk03%3edjjc3%<st1<dfkF%:1wtB<w5*t#@3xx+<1fNu1:6=9%:wyycuf<%",
"$0ecFMy0-*9djxdc3%<d0,1wfVF**434K>mw##330hw@<4nn4<%419<>0yukie=%",
"X9iMFne5<*0ddxdf<*<ed,3dxxw,,14wB,Jx&.305t6@<4kM01%<99<>9ykmky=%"
};
