/* XPM */
static char *log_birch[] = {
/* columns rows colors chars-per-pixel */
"64 64 256 2",
"   c #161C0F",
".  c #11150C",
"X  c #1A1D12",
"o  c #1C240F",
"O  c #1B2212",
"+  c #1B201B",
"@  c #242A1A",
"#  c #222619",
"$  c #2C331D",
"%  c #273215",
"&  c #32391D",
"*  c #2D3522",
"=  c #313624",
"-  c #393D2A",
";  c #363A2A",
":  c #373C32",
">  c #3F3D32",
",  c #282A22",
"<  c #3C442E",
"1  c #394421",
"2  c #3E4535",
"3  c #42452E",
"4  c #434E2D",
"5  c #504F2C",
"6  c #424635",
"7  c #474B33",
"8  c #40443A",
"9  c #4B4E3D",
"0  c #494D37",
"q  c #4C5336",
"w  c #4B543C",
"e  c #52533F",
"r  c #5C5A3F",
"t  c #595739",
"y  c #584335",
"u  c #414342",
"i  c #4C4E41",
"p  c #454840",
"a  c #544E43",
"s  c #4F5146",
"d  c #535544",
"f  c #525B43",
"g  c #595845",
"h  c #53544B",
"j  c #5C5349",
"k  c #55594B",
"l  c #5A5C4B",
"z  c #5C5447",
"x  c #4F5452",
"c  c #5B5C51",
"v  c #585C5C",
"b  c #545956",
"n  c #675F56",
"m  c #67584E",
"M  c #5E614A",
"N  c #5D6355",
"B  c #5F635C",
"V  c #62634D",
"C  c #606545",
"Z  c #61724C",
"A  c #646454",
"S  c #646A54",
"D  c #64645B",
"F  c #696559",
"G  c #666B5D",
"H  c #6B6D5C",
"J  c #696B55",
"K  c #7D6A5F",
"L  c #73725E",
"P  c #77775E",
"I  c #697059",
"U  c #636963",
"Y  c #6B6D62",
"T  c #6B6D6E",
"R  c #676869",
"E  c #746E64",
"W  c #7A6663",
"Q  c #6D7264",
"!  c #6E736A",
"~  c #6F796F",
"^  c #737465",
"/  c #73746B",
"(  c #7A766B",
")  c #76796B",
"_  c #7C7A6C",
"`  c #787A66",
"'  c #6A6F71",
"]  c #747674",
"[  c #767B73",
"{  c #7B7C73",
"}  c #7B7D7B",
"|  c #75787A",
" . c #6D7674",
".. c #827B6B",
"X. c #857F67",
"o. c #837D73",
"O. c #8A7D76",
"+. c #8C7F7D",
"@. c #7E8169",
"#. c #7D8174",
"$. c #7D837C",
"%. c #8A865F",
"&. c #82816C",
"*. c #828274",
"=. c #898373",
"-. c #8A8875",
";. c #84847B",
":. c #8A837B",
">. c #85897C",
",. c #8B8B7C",
"<. c #868974",
"1. c #94887D",
"2. c #8D927E",
"3. c #91907F",
"4. c #797D80",
"5. c #737A81",
"6. c #7C8383",
"7. c #7C8985",
"8. c #838582",
"9. c #8B8682",
"0. c #858B84",
"q. c #8B8C83",
"w. c #848B8A",
"e. c #8B8E8B",
"r. c #8A878C",
"t. c #938E83",
"y. c #9B8D84",
"u. c #938E8A",
"i. c #958A89",
"p. c #8E9184",
"a. c #8E918C",
"s. c #929285",
"d. c #9B9485",
"f. c #94948C",
"g. c #9B958B",
"h. c #97998F",
"j. c #9B998D",
"k. c #8E8F90",
"l. c #838A90",
"z. c #8D9392",
"x. c #8E949B",
"c. c #949693",
"v. c #9A9591",
"b. c #969994",
"n. c #9C9B94",
"m. c #96969A",
"M. c #959A9C",
"N. c #9C9D9A",
"B. c #AC8E82",
"V. c #A29889",
"C. c #A19493",
"Z. c #A29E93",
"A. c #A19E9A",
"S. c #A99D9B",
"D. c #A79A98",
"F. c #9EA19B",
"G. c #9EA191",
"H. c #A4A295",
"J. c #A9A395",
"K. c #A3A39C",
"L. c #AAA59D",
"P. c #A5A99C",
"I. c #ACAA9D",
"U. c #B2A49B",
"Y. c #B1AC9D",
"T. c #8F9BA1",
"R. c #999EA1",
"E. c #939DA3",
"W. c #A19FA0",
"Q. c #9EA3A2",
"!. c #9AA6A3",
"~. c #92A8BC",
"^. c #A4A5A3",
"/. c #AAA6A2",
"(. c #A6A9A4",
"). c #ABABA4",
"_. c #A4A6A9",
"`. c #A5AAAA",
"'. c #ACADAB",
"]. c #B1ACA4",
"[. c #B2ADAA",
"{. c #B5A9A2",
"}. c #AFB1A6",
"|. c #AEB1AC",
" X c #B4B1A5",
".X c #B3B3AD",
"XX c #BAB6AD",
"oX c #BCB9AE",
"OX c #ABAEB1",
"+X c #AEB2B2",
"@X c #B4B5B2",
"#X c #B9B5B1",
"$X c #B6B8B4",
"%X c #BBBAB5",
"&X c #B2B7B8",
"*X c #B5B9BB",
"=X c #BCBCBB",
"-X c #C1B4AA",
";X c #C1BDB5",
":X c #C1BFBA",
">X c #BEC0BD",
",X c #BEC0B4",
"<X c #C3C1B6",
"1X c #C3C2BC",
"2X c #C9C5BE",
"3X c #CDC9BE",
"4X c #CCC5B5",
"5X c #D3CDBF",
"6X c #B6BEC3",
"7X c #BBBEC2",
"8X c #A6BAC6",
"9X c #C1BFC2",
"0X c #BEC1C3",
"qX c #BEC4C9",
"wX c #C4C4C3",
"eX c #C9C7C3",
"rX c #C6C8C4",
"tX c #CBCAC5",
"yX c #C3C6CA",
"uX c #C6C9CC",
"iX c #CBCCCB",
"pX c #D1CDC6",
"aX c #D1CECA",
"sX c #CFD1CD",
"dX c #D4D1C6",
"fX c #D3D2CD",
"gX c #D9D5CE",
"hX c #DCD5CA",
"jX c #C5CCD2",
"kX c #CBCED2",
"lX c #CDD1D4",
"zX c #CDD3D9",
"xX c #D3D4D4",
"cX c #D9D6D2",
"vX c #D6D8D6",
"bX c #DBDAD5",
"nX c #D3D6DA",
"mX c #D6D9DB",
"MX c #DBDCDC",
"NX c #E1DEDA",
"BX c #E5DFD4",
"VX c #DEE0DE",
"CX c #E1E1DE",
"ZX c #EEE6DB",
"AX c #F5ECDF",
"SX c #CED9E2",
"DX c #D6DAE1",
"FX c #DCDEE1",
"GX c #D7D7E0",
"HX c #DEE1E3",
"JX c #DFE4E8",
"KX c #E2E3E4",
"LX c #E2E5E9",
"PX c #EAEAEB",
"IX c #E6E8E7",
"UX c #F2ECE2",
/* pixels */
"r.@X@X$XeXuXxXxXyXxXKXKX1X2X2XeXU.B.%.t <XCXMXxXbXMXCXNXMXMXfXbXNXKXPXNXnXMXKXbXbXkXyXuXiXxXlXiXiXxXxXbX#Xu.B.d.V.{ q.{ o./ #.M.",
"| _.$X'.wXwXfXkX9XaXiX[.%X3X3XpXBXAXUXBXNXMXMXxXMXxXMXMXNXmXxXMXNXKXKXcXwX=XuX@XFXfX1X=X>XkXiXiXuXvXnXMXiX9XjX9X:X#X.X@X^.F.M.m.",
"N.N.#XL.@XuXkXeX#X[.%X;X;X1XeXeXCXZXhXCXCXCXbXvX=X'.=XmXvXmXmXmXFXKXKXxXuXaXuXwX=X<X<Xn.K.n.;.L.@XK.%XHXtXnXyXm.=X[.v.n.F.c.T x ",
"v.t..XZ.@XMXmXuXnX:X9X1X2X%X-XpXcXMXcXcXNXbXrX X<XxXxXmXbXMXCXFXFXIXKXMXaXtXtXwXwXiXwX).;.).`.=X>X>X0XrX:XwXW.W.'.@X(.K.8.r h 8 ",
"n.p.%X@X1X3XaXxXxXfX%X=XtX3X;X2XfXmXcXcXtXU @ + : =XxXlXh.^.%XNXKXKXKXnXMXMXfXxXxX=X*XrXwXtX7XeXuXwXwXfXiX#X:X:X*X$X>XQ.Q h { ] ",
"`.$X6XuXxXxXxXeXiXiXxXwX2X XXXtXhXdXNXgXN.p 2 B } tXbXmXiXnXFXNXKXKXKXNXKXKXKXFXKXNXiXiXcXgXeX;XfXfXpXcXtX:XeX1X%X.X.X(.] w.w.$.",
"x.uXwX}.MXiXyXnXMXkXFXMXXX).oXdXpXpXdXgXpX).$XwXxXxXMXCXKXKXKXKXKXIXIXKXKXLXFXKXKXKX9XvXcXaXaX2XP. XoX).L.H.3.j.L @.d.n.p.$.k.6.",
"#.*X1XN r.1X;X/..X[.I.vXI.d.I.<X&.q 4 C s.fXtXfXxXsXvXvXCXKXMXMXKXIXKXPXPXKXMXyXkXvX%XxXcXcXNXNXgXgXfXcXeXeXv.o.f.;.a.a.>.[ $.} ",
"0.n.@Xx.,XtXP.tXaXcXiXqXh.K.%XJ % X o 1 g @XsXVXbXxXMXMXMXKXNXnXCXKXKXPXPXKXKXcXkXlX X%Xn.^.gXaXdXcXtXeXoX:XI.n.A *.Q #.#.Y a.T.",
"v.h._ OX0X@X+X).P.n.x.F. XP.<.* : D Y 6 P Y.gXvXvXxXMXMXKXMXMXnXbXeX_.' | '.xXxXm.uXxX0X.XwXvXfXaXaXaXwXeX1X).L.{ { S D 8.$.!.!.",
"a.;.p..X|.G.s.qXuX=X^.$XXX]./.k ; 0 ) s.q.2XgXgXxXsXnXcXmXMXbXbXmXMXxX8.v v v.OXuXmXnXxXiXiXmXMXxXiXwX>X.XXX].v.f.q.M N u.z.a.7.",
"b.M.N.P.(.XX&XHXiXnXFXiXXX).<X%XyXF./.b.@XCXVXVXMXxXmXbXvXaXiXxXmXmXlX$X6.| wX`.nXxXnXfXiXwXlXnXxXuXtXiX=X#XXXn.{ n.*.#.s.M. .$.",
"e.a.K.N.N.#X/.sXHXMXsXrX XI.#X3XpXaX).m.3.d.P.$XeXvXvXvX$XF.@X=XxXMXyX6XR.&XuXnXvXvXbXxXyXuXnXxXfXiXiXwX'.K.A.t.Y s.F U G e.w.$.",
"a.b.v.P./.XXXXXXn.|.|.|.G..XK.3XtXpX$XwXrXrXfXgXbXvXbXMXVXbXmXvXnXMXFXKXxXjXuXFXmXbXiXiXiXwXlXvXxXkXxXiX=X.X/.P.A.).'.+Xw.$.0.~ ",
"{ ;.f.A.K.A.K.).#.2.)..X#XXX@X,X3XdX3XdXsXbXbXbXbXbXVXMXVXVXbXMXmXMXKXKXMXkXnXFXnXMXfXiX1X=XnXmXxXlXnXxXwX$X].).@X$X.X=Xw.) #.[ ",
"8.z.f.u.u.h.P./.%XG..X.X].P. X@X3XbXhXVXvXgXVXVXVXVXxXsXVXVXMXMXMXNXKXKXFXiXiXMXMXHXyX:XwXiXvXlXcXkXxXvXbX9X$X'.=X7X=X=X!.(.m.v ",
"E.K.:.v.).N.N./.Z./.t.S.J.;X.X].d.V.j.,XfXpXsXbXxXMXCXKXCXCXMXMXMXKXFXOX^.=X$X.X9XeXP.].%X%XiXlXlXjXnXKXMX|.Z.L.].Z.(.K.b.0.0.7.",
"R.^.f.g.(.).A.h.eXwX=X1X).].aXpX2X<X3X0X>X=X,X>XsXMXCXIXCXCXVXVXMXMXMXbX7XOX*X=XiXfXeX=XwXeXvXbXuXfXxXcXrX).:X=X1X>X>X1X@X'.`.Q.",
"| 9.h.q.g.A.P.).=X$XyXwX%XXX1X@X|.%X>X*XwXqXuXnXsXnXVXKXbXVXCXvXMXKXKXHXKXKXnXxXfXMXcXaXiXuXmXmXxXiXwXeX@XwXiXeXtXwX.X@X@X_.7.R ",
"Q.M.`.iXeX2X:X:X XXX].g.d.n.%XwX%X(.*XwXzXzXmXHXHXHXHXmXuXsXVXVXMXMXFXNXKXKXkXxX7XxXMXxXiXlXMXmXfXvXxXxXtXwXtX1XtXiXwX1X'.8./ x ",
"b.F.$X1X=X=XaXiXvXxXuXlXMX1X|.(.$X$X=XjXnXnXMXHXHXHXKXmXVXVXlXVXCXMXMXKXKXLXKXKXnXFXFXbXeX$XnXnXfXlXuXxXxXaXiXaXtX%XwXwX=Xm.8.' ",
"0.[ z.0X7XkXLXIXHXmXFX=XF.|.|.+XwX+XqXlXmXmXMXMXFXHXHX=XW N Z @.aXKXbXHXKXKXMXmXIXFXFXfXiXwXwXnXiXkXiXfXMXMXKXGXsXxXiXwX=X'.c.e.",
"F.@.(.@X=X0XnXn.F.(.^.*XvXwX|.>X`.zXnXnXxXGXFXMXHXDXHXHXVXmX2X>XfXnXFXFXKXFXuXwX$XwX&XnX:X=X=XkXaX9XfXlXCXKXIXPXmXxXsXwX0X=X_.R.",
"N B _..XwX@X(.Q.lXnX=XP.P.@X>X$X'.kXnXnXbXmXFXFXHXDXzXHXqX8XjXnXmXbXbXKXKXFX=XuXiXwX@X[.;X%Xv.9.+.v.A.v.i.g.S.U.Y..X^.n.'.=X`.4.",
"b.>.#.a.wX%X[.mXLXnXnXHX@Xn.>X|.K.iXlXnXNXGXmXMXGXMXMXnXzXzXzXmXbXFXMXVXKXbXkXwXwX9X@X=X7XuXGXFXGXLXFXFXKXHXFXmXxXMXkXkXuX_.`.w.",
"z.) ` $.=XwX=XiXIXmXwX1X).i.d.O.i.1.O.+.yXmXmXMXGXKXFXKXHXHXJXJXxXMXMXVXFXnXkXsXkX=XwX@X'.9XkXGXzXFXSXlXnXnXnXbXkXnXlXiXwX*X!.M.",
"|.n.b.F.F.[.;XiXFXnXnXmXKXFXnX>X@X.X^.$XyXlXnXnXGX-X-X3XdXJXJXVXkXmXMXVXbXvXiXnXMXnXuXbXuXyXqXjXzXGXkX7XwXkXkXxXxXwX=XiXqX&XOXOX",
".X(.2.j.'.XX.X.X].K.].[.[.%X|.|.[.=XuXuXxXlXxX=XS.U.:XxXmXJXSXJXnXFXHXKXFXmXnXMXnXfXmXmXxXg.W.jXlXlXlX7X:X;XXXXX.X@X$X[.).P.M.w.",
">X+XI f !.vXsXvXxX:X[.U.S.O.{ N..XyXdXdXaXtXiXuXjXnXFXFXLXLXJXmXMXMXKXCXFXvXmXmXnXuXOX7X9XyXjXqXzXlXzXjXkXkX9XeXaXiX%X'.@X'.m.k.",
"+X$XP.^ b.n.lXnXFXFXxXmXs.n.).jXDXiXaX3X3X2XeXiXnXnXFXFXLXLXDX+XuXKXCXIXKXxXkXMXbXkXnXxX7X*XuXjXzXGXzXuXnXfX:X:XtX=X$XA..X@Xk.] ",
"^.^.(.@XXX>XrXlXFXnXnXuXN.z.qXDXzXkXiXpXpXwXxXxXnXnXFXFXHXLXzXzXMXNXKXKXMXnXiXbXaXOXwXuXiXwXyXzXjXDXGXlXjXxX=X).=X:X@XK.$X$X`.`.",
"*X.X%XrX>X%XtXfXiXtXiXlXnXuXnXzXzXwXkX_.fXfXiXkXxXDXFXFXFXDXJXjXKXKXKXKXKXbXvXvXcXuXuXvXiXeXjXjXjXnXGXjXkX=X=X1XwX=XW.N.|.N.N.M.",
"Q.Q._.*X_.[.wXtXeX1XwXlXjXDXDXzXzXkXkXjX7X9XkXkXg.Z./.zXlXkXzX~.0X^.F.P..X@XP.J.p./ W g.kX0XqXjXzXzXyXnXkXuXwXuXiX:X'.XX1X.X'.&X",
"'.@X=X>X.X1XiXwX@XwXxXuXnXDXDXlXzXjXyX9XyX[.J.S.#XwXuXlXzXzXnXzXzXwXrXlXnXlXnXvXrX0XqX$XQ.OXyXjXnX6Xa.m.yXkXxXmXuX=XXX'..XF.F.F.",
"8.m.=X%X).wXeXiXwXeXnXnXuXzXGXzXkXjXkX7XiXwXuXyXyXkXkXzXzXnXnXFXjXuX,XxXmXmXnXxXxXsXwX0X6X+XyXnXqXK.8.>.xXuXnXmXnXuXe.a.Y G.+X'.",
"b.Q.@X=X%XwXxXvXtXtXlXxXlXnXnXnXjXjXkX9XeX9XkXwXuXjXnXSXnXnXFXFXmXzXzXVXVXyXiXvXvXlXqXuX0X+XyX^.9.A F y.V.D.=XxXfXtXiXM.w S '.=X",
"z.^.(.'.[.=X%X[. X;X:X9X0XzXzXzXkXW.+.+.9.N.iX1XeX$XiXjXzXmXDXKXJXnXxXmXvXVXmXmXMXlXuXwXwX0X&Xn.m.n.(.D.v.9.9.g.n.g.K.K.0.<.F.'.",
"+X@X0XiXaXuXfXbXmXxXxXeX=XjXFXzXzXjXjX6XyXuXwX1XeXiXiXuXkXzXFXLXKXKXvXcXMXvXbXMXxXlXrXiXyXjXyX_.|.jXzXGXuXuXuXnXwX@XA.v.b.s.a.).",
"Q.`.7XuXnXMXMXmXFXnXcXnXzXzXDXzXGXzXkXjXkX7X|.Z.A.g.wXtXlX[.D.S.].#X:XmXvXbXcXvXxXrX>XrXqXqX=X1./ -.o.g._.^.7XFXwX.X=X@X) Y Q e.",
"m.+XOXxXnXGXKXMXFXLXFXJXFXFXLXFXFXGXGXzXkX9X=X.X.X%XeXuXlX7XyXuXxXmXHXxXnXfXxXxXsXsX>X0X0X*X*XA.^..Xq.(.lX7X6XnXkX^..X>Xq.) #.e.",
"w.&X0X.XK.'.#X].U./.C.+.n j m z a a c.Q.MXiXwX1XwXwXwXuXkXlXmXHXKXnXlXnXxXfXfXfXiX2XqXqX&X=X6X_.|.$X^.v.s.Q.6XyXc.N.`.:X).F.B k ",
"`.+XwXiXkXvXfX.X`.wXeXeXo.n e 6 X , O + u yXfXkXwXwXeXfXnXMXnX).nXcXFXMX2X2X2X2X1X>X>X,XyXuXyX_.+X(..XiX`.a.r.8.0.kX*X&X[._.Q M.",
"c.M.&XwXwX(.h.>.h.:.^ :.v.E e = > O ; 2 i i N.L.@XvXnXnXnXMXmXK.mXMXnXMXvXxXxXiXsXwX>X$X&XqXwX=X`.P.F.0.'.lXjXnXVXHXuX=X>Xw.~ 0.",
"} k.^.wX>XlXlX.XN.h.*.` P.c J = > @ : 9 l 9 d ;.3.e.fXMXKXlX=XnXcXmXFXnXxXxXxX<X.X,X XY.n.v.h.'.F.(.#XkX6X_.|.=X=X1X@X|.>X|.h.b.",
"R } f.=XwXlXHXnXn.u.q.N.,.N _ = X . * O ; f N #.s.H 9 $.rXfXVXHXxXMXMXmXmXvXiX@XI.%X].XXA.[.'..X>X.Xs.O.O.g.n.H. X.X%X=XwX^.c.M.",
" .e.+X>X>X>XtXrXc.*X@XK.7 _ V H V - + k q...8.#.H.7 * q #.VXVXJXKXmXMXxXlXlXiXrX%X=XyX:X@X'.(.'.|.,X.X.X0X6X'.XX/.n.g.9.$.p.$.] ",
"`.+X&X>XsXtXiXtX:XwX).g.C 9 _ *.{ _ ,.H g c ! j.XXj.s.}.$.CXfXiX>XlXvXmXvX@X/.F.;...Z.+.g.9.^.*X3XtX/.L.,X=X=X:X9.h.n.N.9.9.b.z.",
"x.c.f.P.}.@X.XoX].K.^./.-.L *.3 _ :.^ l 9 $ p.tX,Xj.<.<.p.vXsXsXsXvXmXxXvXtX,X%X'. X.X%X.X=X@X=XL.].XXZ.Z.:.D.u.A.e.s.N.u.{ c.z.",
"T M..X+XwXrXuXyX#XiXiXe.( D 8 _ Q _ 6 $.d.P.%XtXtXdXgXfXvXxXdXsXsXsXxXxXiXrXsXrXwX=X:X=X_.|.uXwX.X).K.L.P.'.h..XZ.f.:.;.+.9.0.| ",
"$.>.>.z.wX=XwX:X.X@XtX8.D R.} s.*.g A ( K.|.'.K.fXfXfXfXdXtXsXtXxXxXvX>X%XeX,X%X%X#X#X[.).K.`.[..X@X XXX'.P.&.Q Z.u.u.h.a.8.{ / ",
"#.a.0.b.=X=X%X'.[.[.K.) H e.c.b.f.g..X1XP.P./.s.<XeXbXbXdXsXtXpX,X2.@.< & M g t.#X X{.).)..X'.9X0XK. Xj.(.(.K.q.L.P.K.n.n.e.a.0.",
"7.z.b.Q / ) F._ n.Z.)./ ( ] D h -.u.>.j.}.s.(.P.%X%XgXbXVXvXvXvX0.I = , .   - S :.).iX=X'.@XK./.%X.XK.I.>XrXlXnX9Xv.(.u.f.v.;.$.",
"7.$.!.n.p.s.(.,.L.XX2X:XXXq.b.p.u.n.%X1X,X3 - l G.tXcXtXXXtX1X,Xw f s.h.A A A _ E 9 } wXuX7X%XuX(.XXH. XiXmXkX0XnX_.P.v.v.e.e.q.",
"w.z.m.n.I P F.F.K. XtXpXwXtXwX).*.K..XZ.H.H.,.q j.F.h.>.f q 4 < q .X>X@X( :.P..Xo.n `.=X9XOXN./ .XtXL.).).M.OX=X&X#.>.A.^.$.) 8.",
"!.`.0.a.! ` p.,. XXX2X2XeXpXaXiXeXkXXXP..XXX-X&.< # 1 % @ w 2.I.L.Z.<.H ) [.).@Xv...h c j F _ ..j.Z.v.K.a.6.#.s.h.Q.^.%XR.I 8.8.",
"!.x.Q >.q.#.p.Q P.[.1X#X;X2XgXpXaXfXP.b.XXP.;XJ.& 2 2 2 M <.<X2Xd.d 6 A eX9.( O.v.( U D n Y | ] $X1Xn.q.*X>X1X:X%Xs.%XOXl./.9.T ",
"6.0.$.q.h.K.b.H.q.D.eXeXxXaXaXcXBXcXdXcXxX.X X-.2.< H.XXH.<X;XK.s.G.n.sXiXy.o.o.E n > 8 c 8 ; h { H.1.G.iXi.v.n.h.}.XXo.h $X'.U ",
"w.z.0.g.P.H.3...H.g.L.J.K.{.Y.Z.1XtXpXxXcX$XJ.d.) Y. XJ.q.Z.L g l ,.Z.J.G..Xn.z _ _ g ) / i G b.b.L.G.).nXnXyXkXiX*X=XnXA.&XyX5.",
"7.e.e.$.'.>X:XwXeXtX1XtXaX2XtXpX X4XhXgXgXeXtX XoXfXtXV._ P F ;.P.cXbXcXtXL.t...=.=.n.qX+Xb.@X'.@X%XJ.%X$XiX=X=X$XwXwXuXqX+X`.m.",
"6.;.c { `.iX:XwXeXwX%XiXaX3X2XpXoX X<XgXgXcXxX XP.pX-.X.O.P J.;X2XtXpXbXcXXXL.t.H.K.`.z.`.'.0X0XtXiX:X1X.X).wXiXeX:XoXXX^.}.;.p.",
"h l V f.'.#XwX=X'._.eX:XpX:X2X;X<XL.XX<XgXgXMX).^ b j._ _ ..s.2X2X;X-X#X[.=X=X=X%X>X@X_.`.r.N.D./.XX].%X%X@X[.uX*XkXkX^.s./.*.9.",
"b | Q.'.).).%XeXW.uXnX:X%X:Xy.( ..K ..J. X3XtXk.fX).H.'.[.` F ;XNXCXIXcX1X@X%XvXwXwX*XqX=Xv.A.A.;X1X#X X X).K.K.*X9X7X^.g.).f.a.",
"Q.'.|.@X1XwXeXiXkXxXwXtX1X;XoXXX XhX4X5XZXgXtXwXbXCXCXMXbX.X:.:XgXMXNXMXcXiX*XvXiX0X$X*XuXyX0XwXiXfX;X].S.wX9X@X9X9X=X#X^.[.R.T ",
"_.>.*.p.h./.v.{.{.U.L.;X1XI.oX%X..y r 5 Y.cXiXtXxXmXMXbXMXbXtXaXMXNXKXMXxXMXMXnXiXwX`./.L ).qX=XwXeX%X.XKXFXuX9XiXyX=X%X'._.).4."
};
