/* XPM */
static char *log_acacia[] = {
/* columns rows colors chars-per-pixel */
"64 64 256 2",
"   c #1B0B07",
".  c #1F1008",
"X  c #260B07",
"o  c #360A06",
"O  c #25130A",
"+  c #2B150B",
"@  c #2D190D",
"#  c #2D1107",
"$  c #33140A",
"%  c #3A130B",
"&  c #341B0D",
"*  c #3B1D0D",
"=  c #351307",
"-  c #2C1C12",
";  c #281711",
":  c #341E11",
">  c #3A1D13",
",  c #311311",
"<  c #3B210E",
"1  c #35210F",
"2  c #362213",
"3  c #3C2313",
"4  c #3D2915",
"5  c #3D2A1B",
"6  c #37251A",
"7  c #2D231A",
"8  c #3C2E23",
"9  c #3F352C",
"0  c #420B06",
"q  c #4C0B06",
"w  c #560D08",
"e  c #44140A",
"r  c #4C150A",
"t  c #441C0C",
"y  c #4B1B0D",
"u  c #451306",
"i  c #53140A",
"p  c #5D1C0A",
"a  c #57170A",
"s  c #431D12",
"d  c #4A1C12",
"f  c #5B1D12",
"g  c #631C0B",
"h  c #671909",
"j  c #711B0D",
"k  c #43220E",
"l  c #4C220D",
"z  c #4C2A0E",
"x  c #5B220C",
"c  c #54250E",
"v  c #432513",
"b  c #4C2412",
"n  c #442A15",
"m  c #4B2A15",
"M  c #432C1A",
"N  c #4B2D1B",
"B  c #472519",
"V  c #5A2413",
"C  c #532B14",
"Z  c #5B2C13",
"A  c #532D1A",
"S  c #5B2D1A",
"D  c #532415",
"F  c #4E3116",
"G  c #46311C",
"H  c #4C331D",
"J  c #4E391E",
"K  c #523115",
"L  c #5C3215",
"P  c #53341C",
"I  c #5B341B",
"U  c #54391E",
"Y  c #5C3B1D",
"T  c #64230D",
"R  c #6B240C",
"E  c #672A0C",
"W  c #76290C",
"Q  c #6B320D",
"!  c #7A310D",
"~  c #632B13",
"^  c #6B2C13",
"/  c #672815",
"(  c #762C14",
")  c #643415",
"_  c #6D3314",
"`  c #62341B",
"'  c #6C341A",
"]  c #643B1D",
"[  c #6B3C1C",
"{  c #673B16",
"}  c #743414",
"|  c #7A3C15",
" . c #733C1A",
".. c #783918",
"X. c #4B2F20",
"o. c #4C3422",
"O. c #4D3923",
"+. c #473526",
"@. c #533522",
"#. c #5A3621",
"$. c #543B23",
"%. c #5B3D24",
"&. c #553C29",
"*. c #5B3E2A",
"=. c #563728",
"-. c #633D23",
";. c #6A3D24",
":. c #653A26",
">. c #733B22",
",. c #5E401F",
"<. c #6C421D",
"1. c #65411E",
"2. c #74431E",
"3. c #7C451C",
"4. c #7E4217",
"5. c #5D4225",
"6. c #5C432B",
"7. c #574127",
"8. c #5B4734",
"9. c #644224",
"0. c #6B4424",
"q. c #6D4826",
"w. c #63442B",
"e. c #6A452B",
"r. c #64492C",
"t. c #6C4B2C",
"y. c #734523",
"u. c #7B4522",
"i. c #744A25",
"p. c #7B4B25",
"a. c #72462A",
"s. c #744C2C",
"d. c #7A4D2B",
"f. c #78472D",
"g. c #75512D",
"h. c #7B532D",
"j. c #7A5027",
"k. c #654B32",
"l. c #6B4D33",
"z. c #6B4D3A",
"x. c #654633",
"c. c #744E31",
"v. c #784D34",
"b. c #6D5234",
"n. c #6C543A",
"m. c #67523C",
"M. c #745333",
"N. c #7B5433",
"B. c #7D5934",
"V. c #73543A",
"C. c #7B5639",
"Z. c #75593B",
"A. c #7B5C3C",
"S. c #765936",
"D. c #6E502F",
"F. c #7E613E",
"G. c #766038",
"H. c #7B5D42",
"J. c #755C46",
"K. c #655441",
"L. c #7D6244",
"P. c #796649",
"I. c #7E725D",
"U. c #863A14",
"Y. c #88340E",
"T. c #833D21",
"R. c #83431B",
"E. c #884718",
"W. c #954B19",
"Q. c #9D541C",
"!. c #844B23",
"~. c #854926",
"^. c #83542B",
"/. c #89552B",
"(. c #8B5A2E",
"). c #875529",
"_. c #945628",
"`. c #835633",
"'. c #845B34",
"]. c #8A5B34",
"[. c #835C3A",
"{. c #895B38",
"}. c #945D34",
"|. c #914628",
" X c #A35824",
".X c #8D6136",
"XX c #84623D",
"oX c #8C623B",
"OX c #886539",
"+X c #946234",
"@X c #93653B",
"#X c #93693D",
"$X c #9A6B3D",
"%X c #9A6437",
"&X c #926A36",
"*X c #A46936",
"=X c #B36C32",
"-X c #C17638",
";X c #825E43",
":X c #836443",
">X c #8B6543",
",X c #866A45",
"<X c #8C6A44",
"1X c #846B4B",
"2X c #8C6C4B",
"3X c #836648",
"4X c #916542",
"5X c #946C44",
"6X c #9A6D43",
"7X c #936C49",
"8X c #996F4A",
"9X c #8D724C",
"0X c #9C7245",
"qX c #94724C",
"wX c #9B744B",
"eX c #9D784C",
"rX c #967348",
"tX c #8B6E52",
"yX c #897456",
"uX c #947452",
"iX c #997552",
"pX c #9C7B53",
"aX c #977B58",
"sX c #A46E41",
"dX c #A37344",
"fX c #A2754A",
"gX c #A97B4C",
"hX c #A37C54",
"jX c #A97E51",
"kX c #A17D58",
"lX c #B37B47",
"zX c #9E815B",
"xX c #958056",
"cX c #AC804E",
"vX c #B5824E",
"bX c #AC8355",
"nX c #A4835C",
"mX c #AA855B",
"MX c #A9875A",
"NX c #B48554",
"BX c #B48A56",
"VX c #B38B5C",
"CX c #BB8C5A",
"ZX c #B68858",
"AX c #A98A63",
"SX c #B48D62",
"DX c #B69163",
"FX c #B89568",
"GX c #B99B72",
"HX c #AB926B",
"JX c #BFA57A",
"KX c #9D8062",
"LX c #C39C6D",
"PX c #C4A375",
"IX c #C7A169",
"UX c #D39C5D",
/* pixels */
"A.$.g.S.H #.6 - . wXC.%.s.v A T x _ # B C.'.$.n - q.<XoXs } } A oXoXu.h.4X].4.r d `.6Xx.I 9.B.G.AXxXqXB.JX:Xt.M.bXiXz.c.c.9.*.g.",
"l.w.s.M.M 6.5 ; - '.M.t.%.> > ' / p y % =.M.4 n @ A M.7Xw U.^ V t.oXy.^.+XOXZ i d f.c.n.m b.OXOXbXrXhXzXzXA.M.B..XF.&.e.l.6.5.P ",
"1 5.b.M.M #.H O m 5Xz.G o.M S ~.R x w r :.s.&.& - #.] wXw W R p e.wX(.oX$X(.' p 0 S w.V.@.7.aXBX5X:X0XDXwXt.M.[.I D.@.8.x.V.iX-.",
"n q.F.F.M P U O N M.Z.*.@.&./ T.W U.g r *.x.F.*.6 `.M.'.q Y.W l :.VX{./.2.!.| R w S #.A.V.5.G.1XF.t.7XXX0XA.'.;X< m.o.o.N ;.>X7X",
"O.F.A.b.& J r.: w.Z.2Xb.N X.s ..! E.j q m @.A.P i.4X`.{.q Y.R t P gXwX*X[ ^.W.W w f > l.t.7.G.S.OX<XiX6XhXH.'.[.U k.4 t.'.C.y o.",
"%.9Xt.l.P m t.2 l.L.:XJ.m 3 B ' } | h w A *.uXpXI d.B.oXf Y.R % e.0XN.%X2. .2.R q V v <XXX7.t.1XOXwX{.'.7Xd.B.kX9X7.G $.a.V.% 3 ",
"5.2Xb.U J N 5.5 e.3XA.H.$.n P X.` x h w L X.aXM.i.N.`.[.` U.R y ;.[.#.{ (.I ) W h q n V.9XA.Z.L.h.}.fX0.a.].nXkXnXH r.6.w.N.X : ",
"1.,Xn.G P P $.M %.:X3Xw.m n e.t t.| R.w v 4 V.c.e.{.fXN.S Y.R t @.oXB.-.<.%.3.E.! i & 5.r.g.n.yXh.].d.4X].e.x.<X<X6 g.$.V.` > - ",
"%.9Xb.7.C P G 2 N 3X<XX.N M w.r 9.^ E.w b M N.e.x.C.gXd.V E E e A >Xf.) y.0.[ ..( r 3 9.-.w.m.1X>XiXiXqXh.w.=.tXXX< M.V.5.~ *.+ ",
"5.<X&.r.Y r.*.7 *.H.3X+.H M w.r w.R !.g t & C.r.L v.;.{.' ^ x c %.4Xs.y.oXM.` ^ ! r $ N C.%.$.wXqXgXpXpXh.l.6.J.i.@ r.A.6.` %.O.",
"U XX6.r.q.r.e.O 1X:XH.o.3 5 6.B &.^  .T b v @.` [ ;X}.4X>.f x l P 4Xp.`.@Xl.#.} ^ i > n P A G <XAX$XhXhX.X#.z.*.g.H r.l.K.*.x.6 ",
"F <Xr.6.t.9.4 8.<Xl.J.N n M r.d $./  .T b n z.^.a.{.{.f.;.` Z y 9.5X^.OXfX0.B ..R r 3 N <Xt.b.S.DX{.] wXBXS r.J g.P 4 A #.M.l.+.",
"t.:XA.U b.H 3 6.A.l.A.&.o.$.6.% k.t  .T v * w.g.;.`.[ A a.x L % c.VX].>XhX9.N ^ } e * * XX-.b.,XFX0X].bX4XZ 6.m.h.l.r.N.C '.;X; ",
"G.XXb.$.r.$.H H M.S.m.V.3 H 6.% 6.y d._ v $ v h.C 9.}.S t.V ] $ c.jX0.#X@X,.A :.4.y < + l.P 9.L.0XNX$XgXA.~.:.wXP :Xx.:.o.'.v.+.",
"r.b.t.O.7.O.7.6.3X:Xk.;X1 N J > 6.a >._ m # < I i.;.[.:.A ]  .t e.lX0.4X$XY I ` _ l 2 $ N I 6.uXiX*XdXOX4XU.N MXK l.N.] ;X<Xd.7 ",
"s.S.b.H 6.H $.b.L.;Xr.A.< M :.X.*.D 4.~ N > *.e.s.-.4X:.% { 2.v N.jXs.].(.Y V ) _ C 3 #.P 0.k.yXmXZXgXNXVXU.S oXY u.@X^.oXwXoX7 ",
"F.G.b.7.9.G H S.L.L.n.>X4 N w.X.l.p } { 4 3 0.e.-.a.M.u.o ` ! N M.mXN.0X%XV.p ~ L I $ %.N q.8.9XzXwX6XwX$X} 9.A.s.0.^.6X2XV.V.8 ",
"1XA.r.H 7.H n :X3Xc.V.tXo.N P o.@.T _ C v * M.m 0.8X0.^.q 0.Q C [.oX].dX6Xb.p p E b & %.P %.O.OXwX^.$XNX0Xe o.w.q.N [ [.#.B J.+.",
"iX<X9.U r.O.O.2X3Xn.L.A.X.5.*.> o ! ( C m n 0.m ] A.b }.T y.Z v '.oX].NX`.:.h p Q v v P L C O.M.iXMXoXVX%Xc H J XXM.XX%.l.;.yX6 ",
"S.A.7.7.b.O.6.jX<XC.t.A.2 5.*.> o U.R I n & >Xt.] p.-.wX^ ` I n <XlX4X6X#.*.g W } n & *.B.*.N &.HXwXnX0X!.z J < o.b.b.e.;Xu.P.&.",
"b.t.5.U 9.J 7.'.t.m.9.M.o.t.6.s 0 U.R L > # c.-.h.p.-.wX^ [ C c jXCXfXoX~ x.h ! ^ < & M s.I 1.k.PXPXAX&X*Xm 7.J #.M q.$.K.>.m.8 ",
"n.G J G 5.6.7.N.M.l.M.x.n t.*.A o ( a b k O %.V.].!.;.;Xu.B z z gXCXfX4Xf *./ h e v $ M e.c.^.b.GXBXeX&X2.k S.6.k.*.Y x./ f.J.X.",
"6.7.G P 7.7.7.B.:X&.aX%.G r.V./ 0 ( g Z z # a.`.$X+XB 4X:.S t v wXgX(.@X' #.h W q K = < 6Xs.%Xt.VXnXrXcX!.& 1X,XA.C.P o.v 0.m.8.",
"8.5.n 6.r.U r.:XA.6.aXF N x.V./ h Y.R L l # p.d.`.@XX 8X9.C D v ZXXX^.6X' y.h U.u C $ k _.i.+X:XeXbX5XBXD O 8.uX5XoX*.k.v V.P.K.",
"n n U 5.r.F G Z.Z.6.tXk @.v z.d j U.Y.D c & -.N.'.oX% 3X1.Z e P bXN.].2._ ~.j Q.i C e 2 s.h.h.qXUXMX0XrX< O m.b.#X#Xc.tX} 4XI.8 ",
"F ,.6.b.r.o.G U V.n.J.& o.5 n.f w T.U.D C n #.jXNX) u k.I c t N gXgXfX`.u.>Xj W.T ) t @ c.CXi.'.DXrX$XeX< 2 2XoXlX@X] D p y.K.6 ",
"7.9.7.D.6.M Z.M.6.z.n.3 *.: J.f w ~.W.y m G e.ZXfXy.e v 9.c % k hXlX'.}.}.sXg _.R.>.s 5 h.CXp.^.BXXXeXMXn 5 6.<XDXfX;.e.;.x.yX+.",
"q.,.t.7.$.5 3XA.7.*.k.m o., H.f h p.W.A U 6 7X{.oXp.u B `.z e @ DX$X#X@X4XCXR /.} C 3 H >XoX;.].eXnXVX0X< G :X<XoXN.9..X-.B n.9 ",
"<.U 6.J U 4 :Xk.P &.J.P P O C.S h ..4.v o.2 h.0.p.`.r s '.I u + SX6X6X~.}.lX..| x M 2 @.`.[ 0.'.OXzXVXfXN 8.H.>X3X%.b.:.z.x.yX6 ",
"Q ,.b.1 J 4 2X6.F z.K.%.%.> J.B q } 4.n M - w.h.i.oX% e oXK t < FXCXwX_./.vXW.D 0 o.+ G $.(.t.0XeXzXPX#X6.+.z.S.2Xt.t.w.*.J.P.8 ",
"4.Y 5.4 7.4 2X%.4 k.+ $.c.v z.e.q ( | 1 @ + #.M.B.d.o 0 ].P % * LXgX6X3.(.NXQ.p o @ O N 3 @X9.q.:XwXeXZX* n.L.:XqXA.C.H.-.*.K.9 ",
"Q ,.J 4 O.J 1XU & O.@ n J.n =.S q U.} n @ O #.L e.i.0 q a.v @ m jXdX[.^.].fX X! e 6 O $ P i.3.s.B.:XBXlXs F.7XpX,X;XV.J.[.}.*.7 ",
"c P $.G 8.@.L.F 5 &.& $.3XH A l.0 !.Z 3 M : w.fXe.].o p 9.%.* P dXNXN.d.s.gX=X!.m n @ > >X`.E.B.eXqXLX(.B M.>XPXV.C.L.2Xl.{.P 6 ",
"1.F 5.J $.G H.o.3 m.& n 2X=.< :.e E.[ 1 M @ e.[ c.].0 p -.t.$ r.VXsX0.<.>XdX-XR.C & 2 M ;.L p.g.HX:XDXw.B :X>XpXA.uX1XAX:XwXl.X.",
"<.<.o.%.G 6.r.n M *.X v C., v @.f R.T 3 n O V.`.e.#Xe R I Y $ 9.SX4X:.g.@X@X XU.k 1 1 : oXA ] A DXl..XM.#.J.:XMXV.tXpXyXA.7XP &.",
"*X^.4 6.7.k.t.< 3 @.k v 2X2 3 #.V E._ m n O M.6Xs.^.i U.m 9.b M.SXsX% 0.6X+X_.E.a 4 @ * 5XC I A kX.X@X%.:.n.<XkXA.h.qX2X>X;X% : ",
").h.< 9.7.7.%.< m N %.v iXn % A V E.} > G 2 B.5Xv.^./ ! y Y e.*.pXgX# h.c.5X*XR.u v 2 G 4X0.0.h.wX[.ZX-.] w.S.b.GX7X2XaXtX>X= > ",
"t.9.< t.O.$.7.2 *.v I $ ;X=.s N A R.' * M & >X[.;.^.' ^ k a.<.k 7X^.c fXA.jX=X!.l 1 1 $.6XL f.].nXhXNX) * m.1XV.LXV.aXaXuX>.N > ",
"r.n F B.5 r.D.2 :.v m & :.x.d X.Z ~ 2.k @ n 6Xa.[ }.;.} z ;.^.A :.v.:.(.5X4XlXu.Z & + N.`.I p.h.wXPX.X/.d z.<XV.FXwXAXl.;Xp.t.2 ",
"g.K L <.4 k.r.2 #.N K H *.J.*.A r z k m 2 P 0X[ ) ].Z ~ ` 0.{.P L } a.NX4XhX6X:.* 2 2 {.].Z i.i.wXLX0Xd.d n.H.XXpX9XiXS.7X!.a.6.",
"S.,.{ Y 2 $.r.. N < Y $.6.z.z.% p z > M.M Y oXL <.<.i.l ;.fX@Xe.!...3.CXM.B. Xy v k.6 h.i.{ I 0.C.cXCX_.x H.6.iXbXA.4Xr.uXA.N.o.",
"G.5.q.U 2 7.H O F v %.F *.z.l.w Z I B 1XV.P ^.{ ^.0.A c I 0.sX^.@XZ /. XV.c. X#.l.H.@.{ p.2.a.P :X.XfX..C uXL.g.A.<X>X7.XX6X>X7.",
"A.k.q.Y & b.M   m H I 6 6.V.a.g ^ 9.* <XA.h.oX0.'.i.v m K <.) i.@X/ p.d.[.g.}.C @.:Xr.(.c.h.0.e.[.$XBXa n &.JXnXP.M.M.b.^.*X7X6 ",
"S.6.9.G 4 Z.2   6.F 9.o.+.K.` q ~ U & M.%.fX7X2.h.(.$ P [ d.i.I +X~ ].].#.d.|.y 3 t.s.wXN.(.i.s.XXcXBXx 3 J.KX:X,Xg.t.M.`.@X'.M ",
"r.H g.r.7.G.4 . b.P @.$., l.=.o ` P : #.U oXXX!.^.s.$ %.$Xy.].!.@Xt 6XfX9.{.T.d # w.-.>Xh.).0.5X<XVX.XE n 1X2X1XuXc.C.iXoX4XM.7 ",
"r.H H.7.5.XX4   *.*.*.%.# J.*.s x #.& & -.`.4X] y.-.n #.}./.p.!.8XD vXC.9.4X|.k O N ] {.c.2.-.GXeXBX$XL P P Z.2XV.V.e.:X<XiX:X- ",
"g.4 S.#.w.:X2 . J F =.=.> *.e.V l P : + 9.fXrX] C P * Y ^.L ` !.{.[ lXd.x.[.T.3 O m s.8XM.{ #.JXkXBX(.c %.XX>XiXC :Xe.oXXXl.A.X.",
"j.4 :XU D.S.6 . B r.$.+.> X.C./ A M 4 M :.{.t.I ] v $ i.^.y.R. .>.] }.~.7X0.T.& : A M.'.C 9.t.JXDXBX_.l M >XB.q.-.^.0.[.A.S yX+.",
"t.J Z.H g.Y &   M D.& 8.M X H.q ` 6.3 7X0.c.n A -.> X -.^.] _.u.V h.^.p.B.OX|.< r.d.t.Y 4 P 1XJXVXIXa.$ n q.XXF.h.1.) <.C.p.yXX.",
"b.H 5.P v k n . n t.* &.M # >.V y J b.kXe.A P P 1.* O ] 0.) !.` ) h.j.f.jX`.f.7.J.[.c.n *.H n.HXDXBX%.X G b.XXS.g.] +Xk V...1X8.",
"g.%.5.G n U U O M M.A N H o g i I : o.#X4X9.9.P Y $ + 0.].i.u.e p.].y.:.FX*.0.O [.`.oXI @.M 7.XXeX5X%.O D.:XeXN.t.<..X9.V.u.V.o.",
"D.P b.F U n 7.O 6.t.-.* M e g >.-.< M F.@.t.N.P Z < $ g.%Xj.u.o I ^.^.-.nXg.).; l.9.*.c.9.4 b.M.MXbX5.4 b.:XrXq.G.'.2.B.' s.L.7.",
"r.U 9.U H n 6.O v N.@XY I e p R.) U G e.m a.[.v * $ & `.^.p.+Xo I i.).I A.}.|.1 $.e.P i.t.@ 9XqXeXcXY 4 r.A.eXM.'.#X{ g.I 2.L.n.",
"K G 5.5.F U 7.O 4 5X`.-.9.t h >.Q K M ].[ h.oXF m $ < [.<./ +Xo p.j.p.0.C.[.-.+ l.!.%.^.t.$ ,XnXGXDXH +.D.A.5XF.&X0X^.#X:.M.1XP.",
"J F 1.D.q.I U X 4 3X{.c.g.l w V Q K 4 XXP ] ^.-.K # m 0.I Z >.e `.i.+Xy.'.`.P # A.q.b ^.-.F aX>XMXMX9.O.r.S.,Xt.OX$X#X9.* S.xXO.",
"U 9.,.q.L 1.5.. n 3X4XN.i.o a R ' Y P 9.1.I d.%.z @ C w.{.} Z o oX) 0.'.].:Xr.k V.9.C .X6.C ,XjXHXDX5.4 H B.9Xg.#XfX#Xb.X 9.L.o.",
"U r.r.] <.D.r.O 2 A.qX7X2.% R |.E t #.XXe.i.'.6.P O I h.(.^ D # t.` Y '.{.g.9.$ H.:Xg.oXt.@.>XhXDXFXS.4 r.G.9XiX<X#Xq.:X3 r.qX6.",
"5.b.D.#.q.q.r.@ 4 w.c.B.i.m R ..E l N oXM.j.oXo.v & 9.h._ x t N 9.[ ] #X.X`.w.o A.>Xs.#Xw.H kXfXJX7XS.2 t.1XwXA.eXwXq.B.9.k.Z.+.",
"9.5.q.> q.9.r.< 4 N.A.h.s.> x ( ( Z v iX'.'.S.+ @ 4 1.9.2.N % v A.{ <.p.h.d.t.o n.mXs.hXN @ VXkXFXOXS.7.k.:XzX7.2X5.Y g.3 G rX6 ",
"9.7.U + U D.8.5 2 C.h.g.N.% d ' ^ ) - B.5Xh.P & + 6.`.q.#X= C e [.1.s.q.d.d.d.* N mXA.#X@ v hX'.kX5XA.8.S.G.zX6.r.S.<Xr.3 < L.+.",
"5.U ,.2 P D.6.5 : A.'.C.%.+ i / ^ ) $ S.OX].t.+ : r.h.[.qXX = * 5Xg.g.h.y.i.i.l X.uXs.8X5 m fXA.qX<X@.r.eXnXiXk.s.9.pXr.  x F.H ",
"H Y 1.U $.%.J G - A.7Xp.$.v f f }  ., r..X_.M.< O U B.XX[.  % t [.g.'.y. .g.3.C > :X'.dXB I h.pXpXmXV.t.aXXXZ.A.A.B.eXY $.} S.U ",
"D.,.<.9.M =.5 - O S.7Xl.*.> s R R 2.X %.M.h.h.n @ A.2XXXN.* m z wXXX[.i.[ pX3.t > H.'.^.:.#.wXaXSXpX:XOX9X6.b.e.C.h.>XN a.y.Z.OX",
"S.5.I P 2 6.6 - @ <XC.e.;XA b } ~ >.X %.h.'.8.n - %.<X0XA ) Z A '.>X0.i.{.nX!.d s :XwXb.I 5.A.9XAXGX2X@X,Xb.S.V.gXiX-.V.M.#.F.zX"
};
