/* XPM */
static char *log_birch_top[] = {
/* columns rows colors chars-per-pixel */
"64 64 256 2",
"   c #322D1D",
".  c #34362A",
"X  c #393B35",
"o  c #262725",
"O  c #58332B",
"+  c #6A352B",
"@  c #743C2C",
"#  c #783B27",
"$  c #6B3830",
"%  c #6F3932",
"&  c #6E321E",
"*  c #3F4239",
"=  c #46463C",
"-  c #524A3B",
";  c #7C422B",
":  c #7F462A",
">  c #7B4533",
",  c #794835",
"<  c #654A3A",
"1  c #484A47",
"2  c #4D534B",
"3  c #4E5345",
"4  c #56554C",
"5  c #535654",
"6  c #555A53",
"7  c #5A5B54",
"8  c #5B5D5B",
"9  c #565958",
"0  c #4E5352",
"q  c #66544D",
"w  c #625D56",
"e  c #775A4C",
"r  c #5C615C",
"t  c #63635C",
"y  c #68665A",
"u  c #766859",
"i  c #7B6651",
"p  c #595D60",
"a  c #5C6464",
"s  c #636563",
"d  c #656965",
"f  c #6B6B64",
"g  c #6B6D6B",
"h  c #666866",
"j  c #746D64",
"k  c #6D7169",
"l  c #73736C",
"z  c #79766B",
"x  c #6C7172",
"c  c #7C7B74",
"v  c #7B7C7B",
"b  c #757776",
"n  c #6B6F70",
"m  c #823F29",
"M  c #83452C",
"N  c #894929",
"B  c #934E2C",
"V  c #9D5A2C",
"C  c #97542C",
"Z  c #874C33",
"A  c #8C5335",
"S  c #8A5438",
"D  c #925433",
"F  c #955934",
"G  c #9B5C34",
"H  c #9A5D3A",
"J  c #965939",
"K  c #924F33",
"L  c #A55C29",
"P  c #A25F35",
"I  c #9C623C",
"U  c #9C6037",
"Y  c #AC642C",
"T  c #B46B2C",
"R  c #B76B27",
"E  c #BC742D",
"W  c #BE7327",
"Q  c #A36334",
"!  c #AB6B35",
"~  c #A4653B",
"^  c #AC6C3B",
"/  c #A86737",
"(  c #B36D33",
")  c #AD713B",
"_  c #B4743C",
"`  c #BB7B3C",
"'  c #B97635",
"]  c #B4641D",
"[  c #C37A2D",
"{  c #C37C33",
"}  c #C27C38",
"|  c #8E5E48",
" . c #8A6348",
".. c #986846",
"X. c #886B57",
"o. c #8A735B",
"O. c #99785A",
"+. c #98704F",
"@. c #A56C41",
"#. c #AC7345",
"$. c #B27642",
"%. c #B57A43",
"&. c #BA7C42",
"*. c #BC7F49",
"=. c #A67C59",
"-. c #B36E41",
";. c #877669",
":. c #987C65",
">. c #837D75",
",. c #927F71",
"<. c #A17A60",
"1. c #C17E40",
"2. c #7D817D",
"3. c #BF813E",
"4. c #C5833C",
"5. c #C9863C",
"6. c #C88538",
"7. c #CF8F3E",
"8. c #BE8144",
"9. c #BB844A",
"0. c #AA825B",
"q. c #BD8A52",
"w. c #B8885A",
"e. c #BD925E",
"r. c #83827C",
"t. c #89847A",
"y. c #938376",
"u. c #A98664",
"i. c #B78C63",
"p. c #BE9463",
"a. c #BA9569",
"s. c #A58A75",
"d. c #B49373",
"f. c #BEA274",
"g. c #C48542",
"h. c #C98742",
"j. c #C58B44",
"k. c #CA8B44",
"l. c #C58B4B",
"z. c #CA8D4B",
"x. c #C38649",
"c. c #CC924C",
"v. c #CB9349",
"b. c #D2994A",
"n. c #C58F53",
"m. c #CB9454",
"M. c #CD9955",
"N. c #C3945C",
"B. c #CB965B",
"V. c #CC9B5C",
"C. c #C59356",
"Z. c #D19C53",
"A. c #D29D5B",
"S. c #D39954",
"D. c #D9A74D",
"F. c #CDA35E",
"G. c #D5A454",
"H. c #DBAD55",
"J. c #D3A25D",
"K. c #D4AA5C",
"L. c #D9AB56",
"P. c #DCB25B",
"I. c #C39663",
"U. c #C59A64",
"Y. c #CB9D63",
"T. c #C49C6C",
"R. c #C99D6A",
"E. c #C49E71",
"W. c #CCA365",
"Q. c #CCA36B",
"!. c #CBA66A",
"~. c #D3A464",
"^. c #D5AA63",
"/. c #D2A56B",
"(. c #D4AA6D",
"). c #D9AD68",
"_. c #DCB562",
"`. c #D9B36D",
"'. c #DCB869",
"]. c #C6A274",
"[. c #CBA573",
"{. c #CDAA75",
"}. c #C5A57A",
"|. c #CCAA7C",
" X c #C9A67A",
".X c #D3AC73",
"XX c #D2AD7C",
"oX c #D5AA72",
"OX c #CEB17D",
"+X c #D5B275",
"@X c #DAB374",
"#X c #DCBB73",
"$X c #D4B37B",
"%X c #DAB47A",
"&X c #DBBC7C",
"*X c #D5B97B",
"=X c #E0BD74",
"-X c #E0C079",
";X c #7A7D84",
":X c #7E8284",
">X c #848482",
",X c #8B8A83",
"<X c #8C8D8A",
"1X c #878786",
"2X c #918C85",
"3X c #959186",
"4X c #93928B",
"5X c #9A958B",
"6X c #8E8F92",
"7X c #939493",
"8X c #999691",
"9X c #9B9A94",
"0X c #9D9D9B",
"qX c #949799",
"wX c #8E9190",
"eX c #A29D97",
"rX c #A2988B",
"tX c #A4A19D",
"yX c #AAA398",
"uX c #B7A38D",
"iX c #9B9CA1",
"pX c #9EA0A1",
"aX c #A3A4A3",
"sX c #A9A9A8",
"dX c #ABADB1",
"fX c #B2B1AF",
"gX c #9BA09A",
"hX c #CDAD83",
"jX c #C7AD85",
"kX c #D0AF82",
"lX c #CEB185",
"zX c #CDB48C",
"xX c #CCB68D",
"cX c #D2B384",
"vX c #D5BA84",
"bX c #DBBD83",
"nX c #D2B58B",
"mX c #D4BB8C",
"MX c #DABD8B",
"NX c #D9B782",
"BX c #CDB693",
"VX c #CEB994",
"CX c #CFBB99",
"ZX c #CBB497",
"AX c #D1B691",
"SX c #D2BB93",
"DX c #D2BE9B",
"FX c #D5BC93",
"GX c #D9BF96",
"HX c #DDC18C",
"JX c #DCC188",
"KX c #D5C095",
"LX c #DCC192",
"PX c #D2C09B",
"IX c #E0C287",
"UX c #D2C1A1",
/* pixels */
"8 1X1X1X0XaXfXfXaXdXaXeX3X5X3X2.t.y z   y 5XaX0XaXsXfXdXsXsX5XrXyXyXfXeXrXeXyXeXsXeX7X0XiXdXdXaXaXsXsXsXb w q q 4 = 5 1 4 1 3 n ",
"0 v <X>XiXiXdXdXqXsX5Xt.t.yX8X4X4Xl 5Xj z >.;.,.s.s.d.d.d.I.R.[.XX[.E.R.R.I.I.*.=.:.;.>.1XpXiXpXaXdXsXdX6Xv 1X1X;X>.>.1Xc b x g ",
"g l ,Xz 1XsXsXiX>.c ,X<X3X8XsXsX7Xj o.O.0.w.q.Y..X*X%X%X%X%XbX&X%X%XNX%X%X@XoX%X).@XoXR.u.u 4 f 2.l <XsX4X<X;X8 >.z h g z h 1 X ",
"f t 1Xj 6XfXdX0XfX7X9X9X8Xt.t.y.<.*.N./.+X+X+X%XbXJXvXHXMXMXMXIXLXHXLXIXHXHXMXNX&X%X%X%X%X.X=.;.2.:X<XqX4X9Xg h ;X>X>.j 8 . o o ",
"j t wX,X4X5XyXfXfXdXr.,X3X:.u.0.[.+X%X*XmXJXHXHXLXLXLXLXLXLXLXLXLXLXHXIXHXIXLXHXLXIXHXIX&X%X%XoXa.t.t.tXgX<X8X8X<X,X7Xb = . 0 1 ",
"v <XqXpXaXgXaX0XtX0X8XX.0.Q..X%XvX&XMXKXHXKXHXKXLXMXLXIXLXIXIXIXIXIXIXIXIXLXLXLXLXHXHXLXIXbXbX&X#X+Xd.s.5X<XeX9X4X>X,Xb 1 9 p 0 ",
"x pXqX2.aX1XqXdXdX8XO.R.$XvXNXmXKXKXLXKXKXLXHXLXLXMXbXJXIXbXIXIXIXbX=XIXIX=XIXIXIXIXIXLXLXHXIXHXJX#X%X[.O.y 4 y = 3 y j y 5 a 5 ",
"5 wX4XX a r.<Xz y.0.XXNXvXvXHXLXMXKXLXMXHXMXbXvXIXHXIXIXIXIX&X-X=X=X=X=X=X=X=X=X-X&XIX&XIXIXHXIXJXJX*X#XoXu.7 = 7 4 s t 9 1 5 0 ",
"7 f >Xh v 3Xk y.i..X*X*XKXKXKXHXHXKXJXvXbXJXHXJX&X=X#X=X_._.P.P.H.L.L.L.H.H.H.P.H.P._.=X=X=X&XIXHXLXHXbX@X~.O.7 . - = 4 3 * 5 9 ",
"h d - x 2.f u a.+X$XmXHXKXKXHXmXKXvX&XJX&X#X'.P.P.H.L.K.K.^.A.~.~.~.~.).J.~.L.K.L.L.L.H.P.P.'.'.&XHXIXMXbX@X{.O.= = . X 7 2 9 a ",
"t 4 7 v k o.[.*XcX&XvXKXFXKXKXvXJX&X#X'.P.H.L.G.J.A.A.J./././.~.~.~./.oXoX)././.~.~.A.A.J.G.P.H.=X=XIXIXHXJX@X(.X.2 . X r a 9 p ",
"d h s f y ].lX*XmXKX&XmXMXJXvXJX&X'.H.G.K.F.M.V.~./././.~.~.J.A.~.~.).oXoX@X`.@X@X@X@XoX(.A.A.D.H.'.bXbXIXIXbX%X!.o.1 3 t n 2 0 ",
"r 7 s w 0.lXxX*XMXFXJX*X#X*X&X#X_.L.K.~.Q..X/.(.(.W.A.V.S.x.x.} m.S.M.A.A.Y.~.^.).oX%X%X@X~.~.J.H.D.P.-X&XIXIXbX@XY.- X X r a r ",
"8 r 7 u ].cXKXKXmXvXmX*X_.L.K.H.G.J.W.Q..X$X.X!.M.g.8.` 1.*.V.m.h.z.k.z.h.k.j.M.A.~.(.(.).G.~.J.A.D.D.P.=XIXIXMXNX).p.c r r a 2 ",
"1 1 4 u.lXVXKXPXKXMX*X&XP.b.b.F.U.V.{.$XXX/.m.&.} 5.z.Y.kXNXNXkX~.A.S.m.j.j.j.j.k.} h.b.^.^.J.S.A.J.D.D._.=XbXbXbX&X(.d.r 2 7 7 ",
"1 7 w [.mXKXKXPXFXMX*X_.D.Z.v.C.Q.|..X.XC.` T ` c.A..XNXNX%X%X%X~.~.~.~.~.~.W.W.V.g.' W [ 5.S.A.S.k.c.Z.D.'.&XbXbXbX&X~.z b x * ",
"h s O.|.VXKXKXSXKXvX&XK.F.W.R.A.B..X~.B.{ ( 1.c.~.NXnXNX%X%XoXoXXX%XoX/.A.S.b.c.c.c.c.4.' [ [ h.v.v.v.z.b.D._.-XJXJX&X+Xu.7 r d ",
"h h a.|.PXPXPXFXmXJX'.K.B.V.[.Y.m.J.c.[ [ 1.h.oXnXMXNX%XoXoXNXNXNX%X~.S.h.5.6.{ { 6.7.[ } { E [ [ 5.k.5.4.b.D.P.=X-XJX%X/.c ;X;X",
"1 q E.zXPXDXPXPXmXvX^.F.T.[./.oXA.h.} { h.1./.MXMX%X%X).%X@XNXoXA.h.} Y L L T T R R [ W [ [ } [ W [ 6.6.6.4.b.b.D._.&X&X@X;.5 1 ",
"h j T.BXDXPXKXFXvX*XK.W.Q.{.kX~.k.} } h.h.A.kXNX%XoXA.A.A.S.1.1.P P K m m # + M m N C L L E { { [ W [ [ 7.6.v.M.v.D.#XJX#X=.= X ",
"a o.}.PXPXFXDXMXvX`.K.U.XXkXoXS.1.} k.1.S.%XoX~.~.S.z.m.z.1.P | | + @ m K M + m K K D B K C Y [ 6.{ T E 7.5.6.F.c.D.#XJXvXR.5 1 ",
"2 0.zXPXDXPXFXmX*X^.W.].kXXXY.1.h.k.k.z.~.).S.c.c.1.z.*.-.~ @.> + + % m M m + & m N B F ~ / L ] [ 6.{ W E 7.4.j.Z.D.'.&X*X/.w 8 ",
"j a.xXPXDXPXFXvX).J.R. XhX/.z.1.h.7.1.~.@Xb.5.5.{ 1.&.-.P ~ M % $ $ $ + Z K Z J P ^ -.@.P ^ &.Y R [ 6.{ E 4.j.6.j.D.P.&X&X(.X.n ",
"e a.BXPXDXPXmX&X^.Y.E.kX|.B.h.z.k.} S.oXS.6.{ [ &.( -.J ~ Z % % + + % @ H &.-.#.$.%.%._ ^ $.&.g.T R R [ E E 7.6.4.b.P.&XvX+X:.1 ",
"o.E.CXCXPXxXJX*XK.F. XOX[.z.h.1.k.1.A.A.} { T } -.P C J | # @ + O + , J #.8.&.#.$.&.$.^ / $._ &.1.T ] R 6.' 7.b.5.b.H.&X&X*Xu.5 ",
"o.}.PXPXPXKXxX^.!.f.lXlXY.h.h.z.1.S.~.k.E [ [ -.P P P K M @ % O + % J #.&.g.` &.` %._ H / _ ` %._ ` L ] 6.h.6.Z.5.z.L.'.&X*Xp.p ",
":.|.UXUXPXKX*XK.F.].|.|.m.x.k.z.1.z.B.[ E T ( P J K K K @ @ % O % S I $.l.g.&./ &.8.8.U _ ) _ _ -._ ` { 7.c.5.Z.v.z.b.P.#XvXT.z ",
"u.zXUXCXPXKX*XF.U.[.|.{.z.h.z.} z./.z.{ E T / B N Z Z m @ $ + % , | @.#.~ $.P F / ' ^ / g.8.` Y _ _ { b.v.Z.k.b.c.5.5.D.'.&X).e ",
"d.zXUXDXPXFX*XK.N.[.kXQ.z.z.m.1.m./.z.1.{ ' _ P K H D # @ + $ % S ^ ) #.H B N V _ j.3.` ( } } ^ P *.1.G.A.~.k.b.Z.j.z.D._.&X`...",
"T.xXUXDXKXKX+X^.T.|.hXQ.z.l.z.h.S./.h.( Y / / _ *.&.! N m + % M F #.#./ G m M Y 4.' ` 3.' _ } &.L x.k.~.).B.k.b.Z.v.c.G.'.#X+X#.",
"E.zXUXUXKXSX+XF.T.{.|./.z.z.z.z.Y./.1.( L P K P _ Y P M # # M S I #.%.~ C # N L 4.E ` g.( %.' ' L 1.k.).@XJ.m.J.J.S.v.D.'.%X`.0.",
"f.BXUXDXPXmX+XW.I.[.{.[.n.z.m.z././.[ L L ~ P / _ / F # + % % S U U ! U M & m N ` 5.j.m.Q F ^ P B ( z.~.%X~.v.G.J.Z.v.H.'.#X(.=.",
"d.xXUXUXKXVX+XF.I.[.[.XXn.n.m.m./..X} Y L F B ! 8._ ) B : N Z ..I U F G # + # N V ` j.3.! F N : Z / 3.K.@X~.v.J.~.m.v.H.#X#X`.:.",
"a.zXPXPXPXKX+XW.I. X XoXB.n.S.B.XXcXm.' Y U G ` Y.F.m.! C B M Z U U A J K M # N N V Y Y V F J ; , A V c.~.Z.k.S.J.A.v.H.#X`./.X.",
"O.lXPXPXPXKX*X(.R.E. XkX/.B.B.B.XXnX~.l.' _ / 9.l.c.j.! F @ $ $ S H A J V N m # : V T ( ' C + : D B B ` b.M.z.b.~.S.b.H.#X*X/.;.",
"o.|.PXPXPXPXcX.X/.E. XkX XB.Y.R.kXAX!.l.' _ ! ^ C U N Z S ; % + @ H F K F G M B N V ) ` ' N B B N N C Y 5.v.k.J.^.m.b.P.#X+XT.1X",
"u |.PXUXUXDXFX+X[.R. XhXXX/././.nXAXY.1.' ! U ; O , > J A A : @ O , U F B F U F G L G C V 8.9.) Q / ^ ( ' 4.k.J.F.m.D.'.%X@X0.r.",
"t.{.PXUXUXDXDXmXoXE. XE.kXkXkXXXAXcX/.1.( Y _ A : S J I I I A ; ; + S I F B F U ^ ^ ^ ^ 9.n.l.j.z.Z.W.l.4.} v.~.V.c.G.@X*X+XO.2.",
"g f.PXUXUXDXjXnXXX[./. XXXkXnXcXnXnXkXY.l.` 8.) I K ..I ~ S I Z Z ; + N F U V / _ ' &.8.l.x.j.z.V.(./.M.M.F./.W.M.Z.L.#X*X!. .h ",
"j e.xXUXDXDXVXDXNXoXR.R.R.kXkXnXcXnXnXXX[.m.q.q./ A ..I A S A I M : Z # # U ) %.C.x.9.*.l.l.3.m.^..XY.V.M.(.+X.XF.M.P.%XvXI.u d ",
"r e.jXPXPXPXDXDXKX+X!.I.I.[.nXzXnXAXnXkXkXoXB.Y.$.S M S S A S U I Z ; ; D Q V _ q.` ) ' ` j.l.J.oX/.M.m.F..XXXoXA.Z.'.*XNXp.- X ",
"b y.!.PXUXCXSXDXKXmX!.W.N.].|.nXAXAXnXnXcXXX|./.C.G , , S F I S D I A : F U ) 9.8.! Q ` x.c.W.+X.XV.Y.M./.XX(.~.M.G.%XbX*Xu.3 v ",
"r y a.VXCXDXDXDXDXSXcXW.R.I.!.{.nXAXnXnXkXkXhXkX{.n.P Z S I J I F A S U C V ^ 9.9.' ! 8.n.~.XX.XM.V.B.~.XXXXY.Y.J.).bXvX(.X.2 g ",
"2 8 0.lXCXPXFXDXDXPXKX.XW.I.I.[.kXkXnXnXkXnXkXkXcXXXR.&.^ I ) I I ..U U / / ! ^ ) ! ! V./.Q.~.W.Y.x.Y.{.XXoXV.m.^.*XmXcX{.t.k 2.",
"1 2 o.a.CXPXCXDXDXDXSXmX!.W.N.I.E.hXkXnXnXnXhXkXkXnXcXcX/.n.n.%.#.8.x.9.) U _ 9.8.9.9.W.V.V.C.N.q.n.!.cXkXY.M.~.+XMXMXcXp.z 2.:X",
"1 r z 9.f.ZXCXDXDXDXDXSX$XW.R.N.I.R.hXhXkXhXhXkXlXkXnXnXnXlX|.U.N.p.N.C.n.q.U.U.!.[.M.C.V.U.N.9.C.W.|.NXQ.n.V.@XMXFXmXkXu.s r r ",
":X1X:X0.p.f.CXPXDXDXPXCXmXOX/.Q.I.I.R.R.hXhXnXhXhXkXnXnXAXnXlXhXOX!.U.N.N.N.N.C.U.U.e.C.C.C.R.Q.XXhXOXR.I.M.(.mXFXFXnXE.y f b x ",
"n g s u w.jXCXSXCXSXDXDXSXmXXX~.I.I.I.R.E. XhXhXnXlXkXnXnXnXnXlXlXOX[.W.N.N.N.q.p.q.q.C.[.[.|.cXlX|.I.N.B.^.vXFXFXAXkXu.y 4 x d ",
"1 x :Xb O.e.OXKXPXVXVXDXSXmXmXOX!.W.p.p.!.|.|.|.|.lXlXBXnXhXlXAXzXlXhXXXE.Y.I.N.I.N.[.XX|.|.hX[.[.U.C.n.W.vXFXFXAXAX Xi 5 w 8 5 ",
"2 r r a ;.0.].xXPXVXKXxXVXSXmXmX*XW.W.e.p.f.jXlX}.}.hXjXzXlXzXhXhXlXlXhXkX[.[.|. X XhXjXhXhX XU.U.w.n.!.$XmXmXSXAXlX:.t t 8 4 1 ",
"2 d r k 1Xo.e.{.xXKXVXxXzXVXCXSXmXlX!.e.e.a.].].}.[.].].hXzXzXzXlXnXjXhXhX|. XhXkXhXhX|. X].T.e.9.C.!.cXmXmXBXAXxXa.u t j t s 8 ",
"r a k = 1 *  .W.}.VXVXKXAXmXSXPXVXKX+XW.N.!.U.p.T.].T.E.}.jXlXzXnXzXhXnXhXhXhXjXhX|. X].T.e.q.e.V.OXmXmXAXAXAXAX}.e h 8 w f 5 5 ",
"r 6 b l r r k  .p.|.xXSXSXSXmXCXCXVXcX(.!.!.!.W.U.I.p.T.a.].}.lXjXhXzXhXhXlXlXjX}.E.p.I.p.N.N.!.lXmXmXAXAXVXAX Xs.s j s f s s 8 ",
"a a k k = = k y o.].*XxXCXVXCXSXmXVXKXxXvXlXlX{.!.!.I.e.e.p.a.].E.E.E.E.].T.E.T.I.p.p.T.T.!.$XmXBXmXxXVXVXVXhXO.g 3 7 l b 4 1 5 ",
"d a d r 3 - r 7 c :.a.!.OXBXCXCXVXVXmXSXCXVXmXmXcXOX!.!.W.e.p.p.I.I.I.I.e.e.I.e.e.U.R. XlXnXSXAXBXxXxXVXZX}.+.3 w d g ,Xg = 7 5 ",
"d n r r y 6 d = l c ;.0.}.OXOXVXVXCXVXVXCXSXVXCXSXmXzXvX$X{.{.W.I.Y.U.I.N.U.Q.W.{.|.nXVXDXZXBXZXBXBXBXjXi.+.;.v t.f >X;Xa c 8 1 ",
"g a r t l z k z r j 8Xy.+.i.].oXOXVXKXPXVXxXCXCXSXCXVXAXmXnXnXlXlXXXXX$XOXlXlXmXxXAXZXAXZXZXBXBXBXBXjXu.X.q w h l t.1Xw . <X>X* ",
"a n r j 2.z y 4 z u l j y  ...i.f.|.xXxXCXCXVXBXBXZXDXBXBXxXxXAXnXxXxXVXxXBXxXxXxXBXZXDXZXAXZXZXxX}.+.e 6XsXiXdXpX6X>X7Xl >XiXp ",
"r a s 7 >X9X8XgXtXsX9XtXyX2X;. .I i.!.OXxXVXVXBXAXBXSXDXSXBXAXAXAXAXSXAXAXVXBXAXZXBXZXZXBXZXZXjXs.;.u c 1X0X8X6X<X0X0XpXwXk v d ",
"r r * 2 >XtX0X0XtXtX4XsXsX5X3X3Xu i  .0.a.}.xXxXBXVXxXBXxXxXAXZXVXxXBXVXBXBXVXxXBXjXZXZXBXf.=.;.<X8X2X9Xr.c qXeX0X8X2X,Xc 2.r t ",
". X X f r.<X0XqX>.;XtX8XyX5X3X,Xt.k z e ,  .=.a.f.|.zXBXBXzXzXzXzXzXnXAXxXBXjXxXjXjXjXa.O.< 7 g z r.r.,X4X1X>.<X6XaXaXv y c 7 t ",
"* 0 2.r.r.r.5XeXv iXaX5X5XrXy = = * - y j ;.q O  .=.i.}.hXhXzXjXlXjXzXAXjXzXjXE.i.=. .;.b w h l 3X9Xt.t.>X>.g l 6XqX6Xc y r.f t ",
"b 2.>X<X0X0XtXsXsXdXaX9X4X5X2Xt.y.s.s.yXsXyX,X2.4Xy.;.e X.<.<.<.=.i.<.=.<.<.o. .o.z x v qXqX7X7XsXsX5Xr.b rXqX>X6XiX6X4Xv >Xl 1 ",
"2.r 6 y g >.j t.>.;.z t.3Xt.y.3X-   .   t.yX0X4XpXsXsXtX2Xu q q e e ;.;.,X0XaXiX7XwXb c = r.7XwX4XgXt.r.8XsXqX6XaXiX4X7X;Xv >X9 "
};
