/* XPM */
static char *log_oak_top[] = {
/* columns rows colors chars-per-pixel */
"64 64 255 2",
"   c #020304",
".  c #090707",
"X  c #0C0906",
"o  c #070809",
"O  c #0C0C0C",
"+  c #120D07",
"@  c #110F0C",
"#  c #0F100E",
"$  c #13110E",
"%  c #1A140C",
"&  c #0F0F10",
"*  c #100E12",
"=  c #141412",
"-  c #1A1613",
";  c #161814",
":  c #1C1A15",
">  c #1D1C19",
",  c #20160D",
"<  c #251A0E",
"1  c #221B15",
"2  c #291D12",
"3  c #221E1A",
"4  c #1F201D",
"5  c #2F2315",
"6  c #24211B",
"7  c #2A251D",
"8  c #2D291F",
"9  c #312315",
"0  c #31261B",
"q  c #32291E",
"w  c #3A2D1F",
"e  c #252521",
"r  c #2A2622",
"t  c #2D2A23",
"y  c #2E2E29",
"u  c #312720",
"i  c #332D24",
"p  c #3B2D23",
"a  c #322E28",
"s  c #353126",
"d  c #3B3225",
"f  c #34322A",
"g  c #3B362B",
"h  c #3D382D",
"j  c #3B3732",
"k  c #3D3A31",
"l  c #41311F",
"z  c #443323",
"x  c #473823",
"c  c #4C3A26",
"v  c #42362B",
"b  c #433B2D",
"n  c #4B3D2C",
"m  c #523D2A",
"M  c #433730",
"N  c #443D32",
"B  c #4B3D33",
"V  c #453D38",
"C  c #4D402E",
"Z  c #55412A",
"A  c #59432E",
"S  c #5B482E",
"D  c #454135",
"F  c #4B4234",
"G  c #4B453B",
"H  c #4E4A3D",
"J  c #524533",
"K  c #594632",
"L  c #544936",
"P  c #5C4A34",
"I  c #53463C",
"U  c #544B3B",
"Y  c #5C4D3B",
"T  c #5C503C",
"R  c #634A2E",
"E  c #634D32",
"W  c #694E30",
"Q  c #614F3D",
"!  c #655136",
"~  c #6B5436",
"^  c #63523C",
"/  c #6D543B",
"(  c #6E593D",
")  c #735837",
"_  c #71593B",
"`  c #7C623E",
"'  c #4D4941",
"]  c #554E41",
"[  c #565145",
"{  c #5B5344",
"}  c #5B5549",
"|  c #645343",
" . c #6C5542",
".. c #665943",
"X. c #6B5B45",
"o. c #61564C",
"O. c #625A4B",
"+. c #6C5F4A",
"@. c #715442",
"#. c #725C42",
"$. c #745D49",
"%. c #785C49",
"&. c #6A5E51",
"*. c #776146",
"=. c #7C6343",
"-. c #75624C",
";. c #7A654B",
":. c #7D684D",
">. c #726452",
",. c #7A6550",
"<. c #7E6D54",
"1. c #746E5D",
"2. c #7F7154",
"3. c #835928",
"4. c #855F3B",
"5. c #8C642C",
"6. c #976B2B",
"7. c #856235",
"8. c #8B6633",
"9. c #8D6A34",
"0. c #856339",
"q. c #8A663C",
"w. c #866A3F",
"e. c #8C6C3C",
"r. c #936D36",
"t. c #926E3C",
"y. c #8F713B",
"u. c #967037",
"i. c #987337",
"p. c #95723C",
"a. c #99753D",
"s. c #9B7A3F",
"d. c #A27B3D",
"f. c #836643",
"g. c #826947",
"h. c #8C6D43",
"j. c #846C4B",
"k. c #8C6D48",
"l. c #916F41",
"z. c #916F49",
"x. c #8D7144",
"c. c #86704C",
"v. c #8C724B",
"b. c #957443",
"n. c #9A7643",
"m. c #967945",
"M. c #9B7B44",
"N. c #94764A",
"B. c #997749",
"V. c #967A4B",
"C. c #9B7D4B",
"Z. c #816C51",
"A. c #8A6F50",
"S. c #877257",
"D. c #8B7354",
"F. c #8F7957",
"G. c #877258",
"H. c #8B7659",
"J. c #8E795A",
"K. c #907754",
"L. c #957B54",
"P. c #9A7E52",
"I. c #907559",
"U. c #937D5A",
"Y. c #9A7F58",
"T. c #A17D44",
"R. c #A17E4B",
"E. c #847760",
"W. c #8E7963",
"Q. c #937E62",
"!. c #9D814E",
"~. c #968056",
"^. c #9C8154",
"/. c #95815C",
"(. c #9D845B",
"). c #9D895E",
"_. c #A48245",
"`. c #AA8447",
"'. c #A3824D",
"]. c #A8854C",
"[. c #A6884F",
"{. c #AB8A4D",
"}. c #B18D4E",
"|. c #B1924E",
" X c #A38453",
".X c #AA8752",
"XX c #A58955",
"oX c #AB8C54",
"OX c #A2855A",
"+X c #A48A5C",
"@X c #AB8D5B",
"#X c #B18E52",
"$X c #B08D5E",
"%X c #AE9156",
"&X c #AD915C",
"*X c #B39356",
"=X c #B2935C",
"-X c #B5995E",
";X c #968263",
":X c #9C8562",
">X c #9D8964",
",X c #968469",
"<X c #99866B",
"1X c #9D8A6B",
"2X c #968D79",
"3X c #A18663",
"4X c #A48C63",
"5X c #AA8E62",
"6X c #A38D6A",
"7X c #A88F6E",
"8X c #B18E62",
"9X c #A69066",
"0X c #AC9264",
"qX c #A5916B",
"wX c #AB946C",
"eX c #AE996F",
"rX c #B29563",
"tX c #B49964",
"yX c #B99B63",
"uX c #B1966A",
"iX c #B49A6C",
"pX c #B99D6C",
"aX c #A28D73",
"sX c #A68C7A",
"dX c #A59374",
"fX c #AC9573",
"gX c #AE9974",
"hX c #A79278",
"jX c #AC967B",
"kX c #AE9A7C",
"lX c #B39775",
"zX c #B49B73",
"xX c #B99E73",
"cX c #B29C7B",
"vX c #B99D7A",
"bX c #BAA167",
"nX c #BBA26F",
"mX c #B7A175",
"MX c #BBA374",
"NX c #B5A17C",
"BX c #BAA47C",
"VX c #BEA97E",
"CX c #C2AD7E",
"ZX c #C6B27F",
"AX c #AF9F80",
"SX c #B19F81",
"DX c #B5A281",
"FX c #BAA683",
"GX c #BCA983",
"HX c #BDAC8B",
"JX c #C1AB83",
"KX c #C2AF8A",
"LX c #C4B08A",
"PX c #C0AE91",
"IX c #C4B193",
/* pixels */
"O o e f f 7 g 6 = 6 H [ G s g 4 f t u i J q 6 t g e - A m Q /  . .I I J d b a 3 N U g e D 8 N b 8 i s +.H : 6 g Y 6 F h $ s . g ",
"O   e y 4 y h 6 ; 6 +.+.b q > 7 g f p 8 7 i D T ..-.W.sXsXQ.W.Q.<X,X<XQ.U.H.;.Q d 7 y g 7 3 F d i y D f b 7 $ i F 7 g g # 6 : > ",
"t O 4 h y D h f ; f f g t t D C Y / ;.;X6X7XgXfXfXfXDXcXjX6X6XaXhXfXaXsXaXaX6X6X6XI.$.v g > g g b > 3 e ^ h ; 6 U 8 h g @ i s 4 ",
"D # e D k U h 7 o e f 4 y N c F -.;XzXNXBXBXGXnX5XrXtX0X8X@X8XxXzXxXvXxXxXzXvXSXDXcXfX7Xj.h a f b 7 e u D H g 7 D 6 b f @ s D T ",
"g & 4 4 y k ; 6 O 3 g y 8 q X.U.6XlXHXIXiX.X.X X5XuXxXvXBXMXvXVXFXFXVXJXVXlX$X$X=XuXBXFXFXSXaX| b t g L s 7 y k 7 4 F h 6 8 h T ",
"y O # e f f 8 D = e N d | J.3XjXvXBXrX@X8XlXcXFXuX=X=X=X#X#X*XyX-XyX=X*X}.`.}.=XnXKXDXxXBXFXFXfX;XY M b f t k g d 4 h f 4 < D F ",
"g ; # e y 4 y f & e b S.6XfXDXzXtXrXxXlXDXvX.X'.oX=XiXtXyXiXpXMXBXnXtXpXrXrX=X#XoX}.pXFXHXFXNXNXhX6X-.g g h T h q 4 h g 8 8 T H ",
"h e = 4 g y k f O e ;X7XcXGXzXuXzXmXVX-XoX.XwXtXuX$X=X*X.X#X=X*X*X}.}.$X.XoXrXrXiXtXnXpXtXBXFXBXNXzXqXX.4 t k ; 4 s 8 h D 8 8 d ",
"g f e e N k ] g f I.fXNXFXmXJXVXKXCX*X@XuXrX&XXXR.@X=X=XuXtXtXyXyX-XrXrX@XoX{.{.}.rXmXmXBXiXzXBXmXMXBXqX<.f ] e # J J C h s t D ",
"= ; t r > i k k ;XkXcXBXLXKXKXJXyXrXrXtX&XXX@X&XuXiXrXrXpX=XrXrX{.oX@X0XiXuX0X*X*X=X-XpXBXmXiXtXbXCXMXMXfXH.' e 4 D h U i i ; 4 ",
"o & M : t e ] ;XfXNXzXIXKXJXMXyXpXpX-XoX=XeXwXwX@X.X]..X@X=X-X@X@X@XoXXXXXT._.].*XpXtXtX-XtXzXtXrX*XJXtX0XcX>XD t 4 f h 6 6 4 # ",
"  & I ; s q 2.jXSXvXKXKXGXMXyXvXBX=X=XuX0XlX&X]. X X$XrXzXtXxXrXrXrX0X5XXX.X{.`.`.}.CXxX=X-X*XuXtXtX=XmXrX0XcX6XD t D f d 4 g # ",
"o = D > Q L.kXDXzXFXBXFXMXpXFXBX=X=XiXxXDXXX!.@X@XXX0XmXpX#X@XXXXXXX X@X&X0XrX$X*X=X}.yXbXrX*X*XiXnXrXoXzXiXeXdX/.h T h 8 4 s 4 ",
"O o v 7 I.6XcXuXzXBXBXpXpXVXJX-XrXiXzXuX[.XX+X@XwXrX]._.T.]. XXX+X+X XC.M.i.d.].tX-X-X*X*XbX=X%X{.*XrX=X&XNX0XwX>X>.k ; 4 f 8 8 ",
"> & y Y 4XSXlX5XlXvXMXxXBXJX=XtXzXmXtX{.%X@X0XlX'.T.].$XrX@XwX9X6XfXzXzX@XXX{.`.d.=XMXtX=X*XtX&XoX{.=X&X=XnXgX+XfX;XT t 4 D h 4 ",
"O ; j L.kXcX5XuXcXmXyXBXJX-XrXzXzXrX@XrX9X9XXXn.'.XXtX0XzXuX0X5X0X9XwXlXzX0XrX=XoX}.{.nXtX&XoXrX*X#X{.@X&X0XzXqX5X>XF.C 6 h h $ ",
"  6 ] 3XcXwXlXlXvX{.vXGXbX-XiXNXtX.XrX0XiXT.'.'.OXwXlXXX].n.C.C.C.C.M.R.M.].rXpX&X-X*X{.bXtX%X[.0X%XXX_.oX%X%XwX(.qX>X^ 7 N f # ",
"O V ,.qXlX8XkXcXrXoXBXVX=XrXlXMXoX&X0XiXM.[. X5XrX@X`.T..X X9X@X6X5X5X.X&X.X].{.tXrXrX*X_.rX=X%X{.&XXX{.%XoXXX0X5X9X>XD.6 F g 6 ",
"O 3 U.fXwXfXlXvX[.zXKX*XiXiXmXoX%X0XgXT.'. X+X5Xa.R.oXXX X5XOX(.+X9X0XuXuXiXrXoX[.=XmX&X%X_.*X0XoXXX0XoX[.|.%X{.wX(.>X/.b h f 6 ",
"o u (.kXwXgXkXiX&XFX-XrXiXBX{.&X0XiX_.C. X0X'.a. XrX5X@Xn.i.a.B.M.n.T.'.oXzXzXiXrXoX&XiX&XoX_.tXXX[.[.+X'.!.%X{.XX).~.>X*.g d 8 ",
"&  .4XcX5XkXSX0XzXNXoXrXzX%XoX%XzX_.'.+X5Xs.a. X5XrXR.a.T.B.R.R.]..X@X5XoXoX&XmXiXtXXX&XwX%X'.[.9X'._.XXXX^.[.!.!.>XL./.c.t g D ",
"- I.fXvXwXlXvXrXNX=X=XwXuXXX%X@XoXd. X9XM.M. X@X5XT.T.C.B.p.u.r.u.T.].oXrX0X@XoXzXzX&X[.rX0X[.s.XX@X!.M.+X!.!.XX!.9XU./.U.^ C b ",
"- 3XfXcXfXkXlXeXNX%X0XmXoXoX&XiXd.'.@X^.i.^.9X@X.X X.Xn.u.b.b.b.'.[..X.XoX@XtX0X@XzXzX0X'.zXXX!.a.&XC.C.!.^.!.^.!.XX/.L.U.( ! d ",
"u 6XjXwXgXkXwXiXiX.XrXiXoX&XiX[.'.+X5XM. X X.XR..XR.p.n.B.B.R. X@X8XuXuXuX0X0XrXuXrXgX9XXX'.0X XM.[.(.M.m.).!.!.~.!.>XK./.;.Z Z ",
"a Y.SX8XfXkX0XmX&XoXfX%XoX&XmX_.!.fXM.'.+X XT.@X Xn.B.C.Y. Xn.r.r.a.a.'.&XzXrX@X@X0X+XgX5XC.+X).!.s.+Xm.p.^.m.!.).m.>XK./.:.c 6 ",
"v Y.lX7XkXNX&XeXoXoXzX_.&X0XXX[.+X0X!.'.0Xn.`..XB.P.P.^.n.u.p.n.n.a.R.T.d.M.&XlXOXXX@X+XwX+XM.9X!.a.^.V.b.x.!.x.~.m.).L.~.S.c y ",
"m 3XjX7XfXkX0XmX].@X-X`.&XBXT.'.wX^.'. X XR..Xn.C.OXOXa.b.a.b.l.R.R.R.'.T.M.a.'.0X X+X+X@X4XB.4X^.m.M.^.m.m.~.m.^.^.(.~./.H.K 4 ",
"@.6XfX5XdX9X9XgX].9X[.].0XgX_.OXgXa.P.5XM. X'.t.N.R.t.b.B.C.P.OX5XfX0X3X XM.s.r.n.+XC. Xm.+X^.!.>XN.p.~.V.y.^.V.^.~.).>XL.;X_ : ",
"@.6XqX7XdX9X9X&X[.gX_.[.wX@X[.@X5Xm.P.6XM.XXn.N.P.B.r.B.Y.5X5X+X!.C.C. X9X^.B.a.p.M.^.C.^.^.^.m.9XP.r.+XV.b.~.U.~.(.).>X~.;X;.6 ",
"%.6X4X6XdX5X9X9X XwX_.[.wXM.].6X^.N.:X+XR.XXt.N.OXq.l.P.fXOXN.B.n.^.P.B.b. X+XB.b.p.+XU.~.C./.b.).^.p.+X~.x.N.V.^.).^.>XU.U.:.q ",
"%.OX:X6X1X@XqX0XXXgXd.'.cXs.XXdXM.C.6X!.C.'.e.N.P.t.z.OX Xb.N.R.OX X+XOXB.p.C.^.b.p.C.~.^.!.(.x.~.P.p.^.P.b.P.L.L.).(.>XF.U.Z.0 ",
"%.Q.3X4X6X@X+X9X(.0X!.XXgXs. XqXB.C.5XC.C.C.t.P.C.l.P.wXb.B.P.Y.b.p.b.C.C.B.t.OXm.p.u.^.P.C.^.B.^./.B.!./.N.V.U.V./.^.1XI.U.S.p ",
"@.Y./.4X1XXX+X+X X9XM.^.zXM. XgXp. X9Xp.C.N.N.P.N.n. XOXt.R.OXp.l.C.N.p. XB.5.b.a.r.5.M.b.b.OXN.P.P.B.M./.C.C./.N.(.!.dX~.;XJ.N ",
"/ (.:X>X1X^.9X&X'.0XM.XXwXM. XfXM. X0Xb.C. XB.OXC.p.OX Xq.'.b.8.(.kX+Xz.N.b.3.3.d.|.-X}.`.p.C.l.C.^.m.m.~.C.!.^.N.+X^.dX:X1XJ.b ",
"R Y.)./.1X).9X0XC.5X_.XX9XT. X5XC.'.0XC.!. XB.OXC.r.C.B.5.C.C.R. X6X0Xb.C.N.t.n.N.p.i.B.n.'.@XM.'. XT.M.OXC.^.+X!.+XC.fX(.>XH.p ",
"R U.>X).9X+XXXwXC.+X X!.@X@X X0XXX'.OX!. X0XB.R.R.3.r.b.8.R.B.9.b.5XC.t.OXB.l.OXN.b.a.:X(.C.3XB.5X XT.T.C.M.M.+X!.+Xm.4XL.L.A.z ",
"m L.,X^.>X+X^.wX!.'. X X9X0X.XwXfXM.+X6XC.@XB.t. X5.8..Xb.B.@X@Xb.B.C.n.B.t.5. XC.B.OXOX(.^.).M.qX(.C.C.^.C.C.OXR.'.a.OXM.(.J.d ",
"p P.6X(.).). X0X[. X.X X0XgX'.5XNX'. X0XC.C.R.n. Xn.r.B.C.n. XXX'. XR.P.C.p.T.u.M.M.5XOX5X+X(.C.dX Xn. X XC.P.+XR.[.M.5XC.4XF.z ",
"1 I.Q.OX).>Xb.@XXX.X-X X9XcX'.@XgX0X'.6X+Xa.C.M.R.3Xt.n.OXT.R.R.N.C.P.B.C.XXOXn.6.@X).4X+X4XOX X6X!.a.+XC.m.^.^.R.5XM.qXP.6XF.n ",
"- N.:XOX+X:Xb.XX&X{.MX'.XXwX0X'.5XcXM.C. Xp.C.OXB.(.OXl.'.&X5X.XOXR. XOX X'.R.B..X X X@X X4X'.&XXX Xp.5XM.a.+X!.R.5XC.fXOX6XH.v ",
"> z./.3X^.).m.+XzXoXXX&X X0XzX'.XXwX^.b.P.C.n.^.^.C.:X X[.R.R.P.C.B.b.C.P.C.R.5X).OX XR.0X X'.eX'.M.!.^.M.M.+X X X^.C.4XC.6XD.d ",
"- k.3XqXe.P.4X+X9XXX XuXXX@XeX0Xp.C.5Xe.P.OXC.V.(.^.b. X4X4XOX X'. X XXX0X5X3XOX X4X^.5X X!.wX6X Xi.'.C.C.!.3XC.0X^.C.6XN.6XD.f ",
"O f.:XdXb.).6X^.6X0X X&XuX%X@XwXp.N.(.OXl.P.(.P.L.P. X'.P.P.+XOXP.R. X'..X X+X+X+X X4X3X!.@XqX+Xn.a.4XB.p.+X(.M.+X+X+X+XC.3Xj.u ",
"O W U.1XL.>X>X^.5X0X'.0XzXoX'. XXXt.L.4X Xb.P.:X(.C.C.+XOX X.XOX XR.C.M. XXX X'. X5X+X X'.fXOXM.i.XXC.C.n.+X^.M.(.C.^.:XP.1X=.t ",
"o 3 <.>XV.L.>X>X(.5X&X0XuX@Xn. X5X!.x.^.(.OXb.N.(.:X5X!.N. XC. XR..XXX@X@XXX+X@X+XOXM.!.dXXXC.p.R.P.C.N.C.OXP. XC.M.3XP. X;X_ : ",
"o t J U.~.h.>XqXOX0XiX@X&X@XR.P.).3X!.e.V.>X6XV.b.P.(.(.5X@X5X@X+X^.M.M. XXXOX X'.C.XXqX^.C.p.!.(.C.N.b.:XP.M.(.^.C.).B.4XY.A O ",
"> t q *./.v./.>XqX+XuX.XR.@XqX5X+X(.+X+Xb.N.^.6XqX@X!.!.'. X'.C.M. X{.XX X'.'.'.9X0XOXC.C.u.^.^.V.b.9.:X(.N.P.!.C. X;XM.6Xk.v > ",
"O - u c S./.L.>XqX&XwX@XM.OX5XqX9XOX+XqX0XC.C.^.OX6XwXwX0X0X0X0XrXOX'.!.4X5X6X^. XC.C.n.a.!.^.C.V.p.^.^.C.B.P.C.t.(.(.C.:Xw.s ; ",
"1 > p 2 =.<XU.<X6XeX XC.OXC.4X7XfX0X X4X@X4X+X(.!.'.XX+X@X+X.X Xm.a.i.a.s.m.M.M.M.s.r.!.^.P.m.N.b.(.C.C.m.C.m.b.b.^.N.N.L.~ 3 = ",
"@ = r > $.H.1XP.qXwX'.m. XOXOX4XqXfXlX X+X4X3X9X9X&X@X].s.s.M.a.'.@X@XXX!.a.a.s.s.^.XX^.m.m.b.r.(.(.V.p.C.^.C.p.~.P.e.^.k.p 6 e ",
"O 6 H > q S.<X(.^.+X+Xb.C.3XOXP.3XlXcXSX9X X X@X@X5X&XeXwX0X&XXX'.C._.!.!.XXXX X XC.m.M.M.9.m.).V.m.b.V.V.^.m.C.~.b.x.L.) s M 6 ",
"& > D 6 i F D.aXx.x.^.OXN.OXOX4XOXOX4X5X0XqXwX&XXX XXX X X'.'.!.M._.!.s.M.M.m.s.M.M.a.a.N.^.~.C.V.p.m.V.V.b.p.L.V.e.L.f.v D h 6 ",
"& t B 1 f -  .D.V.4.Y.:XOXN.P.OX+X@XP.OX+X+X9X9X0X0X&XXX[._.T.'.+X%X5XXXM.s.s.M.s.M.!.+X).^.m.b.a.V.m.V.x.p.~.~.N.v.N.m t t 8 X ",
"& i > ; 7 $ q ( j.k.q.P.Y.OXl.B.(.+X4X+X+X+X+X+X@X5X0X0X9X+X+XXXXXM.M.^.XXXXXX+X^.^.C.C.m.m.p.p.V.m.m.p.y.L.D.L.e.L./ ; 3 6 s o ",
"= v ; 3 U > 8 9 R f.k.q.P./.4XP.b.C.).9X9XwX@X+X^.^. X'.'.!.!.'._. X XM.M.!.!.!.M.M.m.m.m.b.m.V.b.b.e.y.L.v.x.e.F.g.7 @ 6 7 8 . ",
"o 6 : 3 H y t 3 0 R =.N.0.N.(.6XqX^.!.+X@X9X0X+X+XXX!.!.!.M.M.XX'.a.M.XX!.M.s.M.M.M.b.M.V.m.x.y.e.9.x.L.v.x.x.F.c.J > : ; b n = ",
"= 1 u F y a 3 r 1 9 R %.N.b.N./.>X7XqX!.C.!.!.!.^.!.^.!.!.C.C.m.b._.u.M.C.^.C.C.m.p.B.b.y.e.y.9.y.V.L.v.x.e.F.=.b Y 8 4 % U T ; ",
"O r i J 1 s > > 2 + % c #.U.:XP.(.4X>XqX4X+X!.a.a.a.p.p.u.9.u.a.M.^.C.a.p.p.p.p.y.u.9.9.8.5.y.~.D.v.x.0.y.F.^ g C g s D = 8 % : ",
"> 7 v m g a a a t : 1 p A ;.J.>X(.(.).3X>X).:X).!.m.m.a.y.b.M.M.M.C.C.n.b.y.9.9.8.8.5.8.y.b.F.b.x.9.w.v.;.d 6 b 7 b t g - ; # $ ",
"@ - f M * p V G g { G Q Z u T j.F.:X).^.^.m.P.^.P.L.V.V.V.m.b.C.C.C.M.C.M.p.9.9.w.e.y.y.e.e.e.0.e.v.! 0 @ ; s X.t h 6 7 & > > & ",
"1 > d - 4 j ] p f k &.[ U P W n #.=.j.c.F./.L.V.v.V.b.v.V.b.m.m.p.p.M.M.M.b.x.e.e.0.0.w.w.e.x.x.g.5 > i s $ i L 8 6 t g r o O o ",
"* = e @ 3 v [ 3 e [ 1.>.d t g n z A c K ! ( =.j.c.F.D.F.D.x.v.m.V.p.p.N.b.y.0.0.w.c.v.g.:.=.` ! : i H G O.# 1 6 7 f b v i = O y ",
"o 6 U > > i N ; = j H Y h a [ 6 $ 1 n 7 5 2 q m 0.E ! ! ! W _ w.w.` ` ` ` g.=.` ) ~ ) E S c } F D g } [ U # 6 L C 8 F 6 B o o > ",
"& 4 ' y a t f = & r E.] q 7 H y 3 : G ] G t o.g e $ % 1 < 1 D 8 6 i g t o - % X + < @ % % { 2XU D y v H F X 8 Z J : F M t = . J "
};
