/* XPM */
static char *log_acacia_top[] = {
/* columns rows colors chars-per-pixel */
"64 64 256 2",
"   c #180A05",
".  c #1E130B",
"X  c #280A08",
"o  c #2A150B",
"O  c #27170C",
"+  c #36180D",
"@  c #2D1C12",
"#  c #251B13",
"$  c #331D12",
"%  c #320706",
"&  c #2C2215",
"*  c #352314",
"=  c #3C2414",
"-  c #3C2C1B",
";  c #392719",
":  c #37200E",
">  c #3C2F22",
",  c #45180B",
"<  c #4B1A12",
"1  c #442414",
"2  c #452A15",
"3  c #432B19",
"4  c #4B2D1B",
"5  c #4B2715",
"6  c #562C14",
"7  c #4C331C",
"8  c #493119",
"9  c #53351D",
"0  c #5B351C",
"q  c #5A3A1D",
"w  c #55391D",
"e  c #52250D",
"r  c #663A19",
"t  c #682B11",
"y  c #4D3522",
"u  c #4A3826",
"i  c #533522",
"p  c #543A23",
"a  c #5A3D24",
"s  c #553C29",
"d  c #4F2D22",
"f  c #623D24",
"g  c #673C25",
"h  c #7A421C",
"j  c #5D4125",
"k  c #5D432B",
"l  c #52402A",
"z  c #594633",
"x  c #644325",
"c  c #63452B",
"v  c #6B452B",
"b  c #654A2C",
"n  c #6B4B2C",
"m  c #6A4626",
"M  c #744D2D",
"N  c #764828",
"B  c #77522C",
"V  c #664C31",
"C  c #6A4C31",
"Z  c #654836",
"A  c #764A34",
"S  c #6C5334",
"D  c #6A543A",
"F  c #745434",
"G  c #7B5634",
"H  c #7C5B3B",
"J  c #785939",
"K  c #6A502F",
"L  c #7E633C",
"P  c #785A43",
"I  c #7B6748",
"U  c #835B3B",
"Y  c #845936",
"T  c #814F35",
"R  c #8B633D",
"E  c #84613B",
"W  c #95683D",
"Q  c #875E42",
"!  c #B45F46",
"~  c #A55941",
"^  c #856243",
"/  c #896642",
"(  c #8B6A47",
")  c #926B44",
"_  c #946A49",
"`  c #8B724A",
"'  c #96734A",
"]  c #987951",
"[  c #947253",
"{  c #BD664C",
"}  c #B56C4E",
"|  c #BB6D4C",
" . c #B76549",
".. c #BC724E",
"X. c #B56E53",
"o. c #BA6E52",
"O. c #AA7957",
"+. c #B57554",
"@. c #BC7453",
"#. c #B47956",
"$. c #BC7A56",
"%. c #BB7559",
"&. c #BD7B5A",
"*. c #B57B59",
"=. c #A6764D",
"-. c #B47E60",
";. c #C36B4C",
":. c #C1664B",
">. c #C3734E",
",. c #C9784E",
"<. c #C56D51",
"1. c #C37553",
"2. c #C97553",
"3. c #C47A55",
"4. c #CB7C54",
"5. c #C27658",
"6. c #C47C5A",
"7. c #CB7D5B",
"8. c #C97758",
"9. c #D17D55",
"0. c #D17E5A",
"q. c #D07654",
"w. c #C36F52",
"e. c #99825D",
"r. c #AA844D",
"t. c #BC924F",
"y. c #A88658",
"u. c #BD815D",
"i. c #B78859",
"p. c #BE9453",
"a. c #BB945B",
"s. c #BA9759",
"d. c #BA8E4E",
"f. c #AA8965",
"g. c #B98864",
"h. c #BD9564",
"j. c #B99668",
"k. c #B39874",
"l. c #BFA372",
"z. c #B9A066",
"x. c #9C876E",
"c. c #C1954E",
"v. c #CD8156",
"b. c #C4825D",
"n. c #CC825C",
"m. c #CD895D",
"M. c #D28256",
"N. c #D3845B",
"B. c #D9865D",
"V. c #D48A5D",
"C. c #DB8B5D",
"Z. c #D98956",
"A. c #C39C54",
"S. c #C29B5B",
"D. c #C49859",
"F. c #DD915E",
"G. c #E08E5D",
"H. c #E1915D",
"J. c #CBA45C",
"K. c #C8A35C",
"L. c #D0AB5D",
"P. c #C48361",
"I. c #CD8462",
"U. c #C48B62",
"Y. c #CC8A63",
"T. c #CC8D69",
"R. c #D38562",
"E. c #D48B63",
"W. c #DB8C63",
"Q. c #D48C68",
"!. c #DA8E69",
"~. c #D78763",
"^. c #CE9265",
"/. c #C39D64",
"(. c #C49C6A",
"). c #C79868",
"_. c #D59164",
"`. c #DC9364",
"'. c #DD9966",
"]. c #D4936A",
"[. c #DC946B",
"{. c #D59C6D",
"}. c #DD9B6A",
"|. c #C99D71",
" X c #DF9C71",
".X c #D89C73",
"XX c #E08F63",
"oX c #E29463",
"OX c #E19A66",
"+X c #E2956B",
"@X c #E39C6B",
"#X c #EA9C6F",
"$X c #E49D72",
"%X c #E89A71",
"&X c #C5A265",
"*X c #CBA362",
"=X c #CFA962",
"-X c #CBA46B",
";X c #C8A56B",
":X c #DDA26D",
">X c #D1AB6B",
",X c #D3AB66",
"<X c #D6B16B",
"1X c #D9B46C",
"2X c #DBB86C",
"3X c #CAA776",
"4X c #DCA574",
"5X c #D7AA76",
"6X c #DAB574",
"7X c #DBBA73",
"8X c #DBB47C",
"9X c #DBBA7C",
"0X c #D5B477",
"qX c #CCB27C",
"wX c #E3A16E",
"eX c #E0BE6C",
"rX c #E4A373",
"tX c #E3AA74",
"yX c #E4AC7A",
"uX c #E7A677",
"iX c #E2BD7C",
"pX c #E2B478",
"aX c #E4C274",
"sX c #E4C37B",
"dX c #EACB7D",
"fX c #E7C87B",
"gX c #EBC975",
"hX c #BAA683",
"jX c #CCB787",
"kX c #DEBC82",
"lX c #D8B784",
"zX c #CEB388",
"xX c #E4BC84",
"cX c #E3BE88",
"vX c #DCC283",
"bX c #DAC99E",
"nX c #E4C484",
"mX c #E6CB85",
"MX c #EACD84",
"NX c #E4C48A",
"BX c #E6CA8B",
"VX c #EACC8B",
"CX c #EAC589",
"ZX c #EDD384",
"AX c #EDD38C",
"SX c #E5D18D",
"DX c #F2D78B",
"FX c #E8CB94",
"GX c #ECD393",
"HX c #ECD49B",
"JX c #ECD896",
"KX c #F1DB94",
"LX c #F0D898",
"PX c #ECD8A3",
"IX c #F0DDA1",
"UX c #F0E09B",
/* pixels */
"V 3 m k = 3 & #   ) C i v < 1 6 e t 5 G J T s u l e.k.l.[ ] _ [ _ U B B ) Y h , < G ) c i 9 K m e.` E b j.S w x ' R s f f i 9 b ",
"a y q x * 7 $ . O M v a d g a A U O.T.k.(.zXjXHXJXHXSXvXfX0X&X-X>Xz.l.vXFXjXy.A d m v C 1 c F B W R W ` ` b j v B n u i k y 7 5 ",
"O 8 x k : 4 = . = U k A g.f.8XLXLXLXLXLXPXFXIXHXJXJXGXSXMXsXeXsX7X<XMXMXMXZX7Xj.j.( A V d p ` r.H C R r.R q x n 5 j 3 u y v / 9 ",
"* q K K * 2 8   1 c f j.BXaXaXAXLXCXLXHXHXHXIXHXHXFXHXJXHXFXBXVXBXmXAXGXGXSXMXZXdXSX3XE C 8 S I M a U M R v M C o k - = ; i G U ",
"3 C b j o - j O i c j.dXAXiXdXVXFXHXFXcXcXHXHXNXNXxXpXxXxXyX8X8XxXBXJXHXHXGXFXGXAXAXDXHXk.V S b H J / U _ M v M 2 l : l v v + 1 ",
"8 H j l 2 + j O c zXDXKXHXGXxXxXlX$XuXxXuX$XlX4XyXyXpXyXyXtXtX:XrXrX8XwX4XpXxXLXBXAXAXDXZXBXl.` B R N B U g v _ L - ; 3 r Z X @ ",
"8 J k 8 3 = 9 ; [ JXDXLXmXpX4X'.lX%XlX$X$X$XrXuXuX@XrX@XwX}.:X'.}.wXyXtXtXtXrX4XCXHXJXZXdXdXZXVXj.W W 9 g N ' ) ' * p 7 i v   o ",
"7 G k = 2 3 p D SXDXAXNX8X4XtX'.$X$X%X$X[.$XrXrXyXrXrXrXtX@XwX@X}.:X:XwX@X@X X4X5XBXJXJXAXKXDXZXZXFXf.) B 0 s H G $ c 3 c 5 o O ",
"7 H j 7 = i O.sXDXZXxXtXyXyX X[.+XrXwXuX%X+XrXrXwXrXwXwXrXrX@X'.4X:XwXwXwX@X].{.tXuX8XxXLXGXAXAXDXZXSXvX` p 4 P F o x V 7 < 7 . ",
"7 H 8 s 4 _ mXgXdX6XxX4XuX XuX$XXX@XrXwX@XOX+X@XwXwXwXuXwXwXOXwXwXwXtX'.@X'.'.'.}.4XuXwXpXCXSXGXKXAXKXZXHXf.u D x O p K u 6 4 - ",
"3 J y y v 3XZXgXpX:X@XuX%XlX$X%X@X@X+X@X@X@X#XwXwXrXwXwXwXwXwXwXwXtX'.:X@XOX'.'.wXwXwXwXtXwXxXKXKXJXUXKXAXAXjXk m 2 p k z d i @ ",
"2 E a a Q MXZXeX].uX}.uX%X$X$X$X+X+XwX#X#X@XoX@XOXwXwXH.wXwXOXwXOXwX:X'.@X@XOXwX@X@XrXwXwXwX@XyXHXPXHXKXAXAXGXzXF 2 : 1 4 v k > ",
"x J b f k.dXdX5X[.rX$XuX%X$X$X%XoX@X@XOX#XoXoXOXOXOXOXwXwXwX@XH.wXOX'.'.wXH.'.wX@X'.OXwXwXwXwXtX{.FXPXGXAXZXDXDXjXS s v 1 B D O ",
"S S a A GXZXgXV.@X+X$X$X+X%X%X$X+XoXoX`.H.oXoXoXoXoXOXoXOXoXH.C.F.F.F.:XwX:XwXOXOXwXOXOXOXwXuXwXyXyXcXGXVXVXDXZXKXjXc a 8 G N ; ",
"s c v y.KXDX6XV.wX@X%X%X%X%X$X$X@X[.m.`.F.C.oXG.G.G.H.OXOX+XC.`.F.F.H.F.F.^.:X}.@X@XwXOXOXOXwXrXrXyXyXcXFXGXDXAXZXDXqX0 J ^ g # ",
"x z k.HXKXMXpXW.wXwX%X+X!.%X$X+X@X'.V.`.W.C.H.XXC.C.oX+X$X+X'.`.F.Z.H.OXV.F.F.OX@XwXwXwXwX#XrXwXrXuXyX[.xXFXAXGXZXZXNXH E ' U # ",
"F b hXBXKXMX4X'.@X#X+XW.XX%XXX%XXX~.oXM.C.XXXXG.W.C.oXoXOX`.`.W.B.Z.Z.W.E.m.Z.G.OXOXwX@XwXOX@X@XrXrX}.{.{.8XHXAXGXVXmXk./ Z Z ; ",
"H D bXAXAXfX4XOX@X%X`.W.+X+X+XXXXXXXC.Z.C.oXC.XXB.Z.C.B.!.W.W.!.W.C.Z.Z.V.'.Z.C.H.XXrXwXOX'.@X}.$X X[. X{.{.xXGXFXDXMXPXP 1 P u ",
"/ / FXKXAXBX:XwX@X$X~.+X%X!.+X~.XXXX0.q.E._.XXC.C.B.C.W.B.`.'.E.V.C.9.M.M.V.F.oXC.C.`.OX'.@X'.}.+X}.].].}.:X[.BXSXAXAXAX-.g I & ",
"V f.BXAXdXsX'.wX%X[.!.%X+XXX!.!.0.XX0.XX`.m.N.B.B.B.C.Z.C.!.R.N.oXC.N.M.`.V.M.W.`.H.C.'.@X}.}.'.$X}.'.'.].:X:X5XGXCXMXdXjXN I u ",
"D g.dXMXsXtXOXwX+X~.XX+XXX~.~.XXW.B.B.W.W.E.n.m.N.Z.N.B.N.N.0.M.H.oXH.H.OX_.`.Y.E.'.C.C.OX@X+X@XwX@X}.].[.'.:X{.kXBXmXfXBXE z - ",
"Z O.AXMXFX4X#X#X+X!.+X!.~.~.~.W.W.!.~.B.V.B.V.b.N.9.4.C.W.0.0.N.B.W.XX`.@X'.`._.m._.oXH.H.}.}.rX@X'.`.!.'.].:X{.5XBXBXfX7X;XD > ",
"l i.AXVXNX'.oX$X$X+X+X+X~.W.B.B.B.E.W.B.B.E.N.m.N.E.M.M.9.8.7.7.v.W.7.5.E.oX'._.E.N.W.oX`.V.W.OXwX}.E.`.'.E.'.}.}.8XBXmXeXeXI u ",
"z ).MXHXlXOX$X$X!.+X$X`.~.~.B.W.N.B.W.B.W.V.B.7.B.7.N.W.B.4.m.E.W.B.M.B.8.n.`.N.n.E.`.'.oXM.C.OX@X'.`.`.'.`.V.[.:X{.vXmXfXfX` z ",
"s 5XJXPXlX$XuX%X!.[.[.!.R.W.W.R.~.~.R.E.W.N.n.N.0.1.C.B.8.7.n.n.B.7.4.2.1.M.W.B.V.n.E.B.C.Z.`.@X@X'.`.`.`.OX`.].].{.5XNXsXeXh.s ",
"P NXGXlX.XrX$X[.!.$X!.!.R.!.Q.0.R.R.I.B.N.N.N.0.4.N.Z.3.} o.5.1.2.4.2.| 8.q.9.`.V.E.W.V.C.B.C.+X@X`.W.'.E._._.Y.T.T.T.cXmXiX/.s ",
"x.mXAXlX4X%X%X[.+X[.[.!.R.!.~.Q.R.E.R.R.R.0.0.q.4.N.N.7.o.8.} ! ;.;.q.;.4.M.,.E.V.V.C.V.M.V.Z.'.@X`.W.F.'.Q._.T.m._.U.8XnXiX/.s ",
"f.CXAX5X5X$X+X[..X[.!.Q.I.!.!.R.Q.E.R.E.B.0.G.7.2.B.9.4.5.0.{ ~ :.:.:.2.2.9.M.N.V.F.F.Z.N.Z.C.OX`.C.`.F.].E.Y.b.Y.^.^.-XvXiX>Xu ",
"A CXAX8XuX.X$X X[.$X!.Q.~.Q.Q.R.E.Q.R.R.7.R.~.2.7.0.4.8.N.<.| ! ! !  .;.;.9.,.Z.N.C.M.v.V.Z.M.Z.W.F.@X`.`.E.Y.m.Y.T.].4XNXiX<X; ",
"s AXAX8X4X!.[.+X[.[.Q.!.!.~.Q.~.E.R.R.R.7.M.~.1.M.N.9.0.N.2.:.;.;.:.:.{ } 4.9.M.V.V.M.v.W.V.M.V.C.F.'.E.E._._.m.I.Y.].-XNX9X<Xl ",
"=.VXGXNX4XQ.!.[..X$X!.!.!.Q.~.Q.R.B.n.N.N.9.M.1.R.9.N.0.4.;.;.:.<.;.<.2...v.M.F.F.v.v.V.Z.V.M.V.N.`.F.].Q.].].Q.^.Y.^.{.nXiX=XG ",
"/ sXAXNX.X~.[.[.!.!.Q.!.!.Q.0.!.I.R.N.0.0.0.N.2.9.N.M.N.2.:.<.<.<.;.2.1.>.M.v.V.Z.v.v.C.C.v.Z.V.V.F._.'.E.].].Q.Q.U.^.-XkXsX=.T ",
"T MXVXCX.X`.!.[.0.zX0.+XQ.!.0.Q.7.R.0.R.0.0.M.M.4.N.9.4.2.{ ;.:.:.<.1.1.1.4.Z.Z.v.,.V.Z.V.m.Z.v.m.'.V.[.E._.T.Q.T.Y.{.3XxXiXK.v ",
"g iXMXNX{.].Q.Q.0.0.%X+X0.T.7.0.7.0.0.2.~.8.0.M.4.9.2.>.{ 2.4.2.;.2.8.3.3.4.v.V.v.3.V.v.v.M.M.v.v._._._.m.E.E.^.^.^.{.5XvXiX/.A ",
"N 2XdXNX|.].Q.Q.lX0.hX0.0.7.0.0.0.7.0.2.0.7.1.9.M.2.,.<.;.2.9.,.2.1.7.>.v.3.M.v.,.v.v.v.M.M.M.4.v._.V._.n.Y.m.T.^.].].lXkX7X/.g ",
"N 1XfXNX5XQ.].R.%X0.0.Q.0.Q.7.7.R.7.4.0.0.2.8.0.9.0.,.| ,.q.q.<.2.1.8.$.$.v.v.3.4.v.7.4.,.,.M.4.m.m.E.`.n.E.T.Q.^.{.U.lXiX7Xi.; ",
"N xXsXCXlX~.R.R.!.~.0.!.7.Q.0.7.0.7.8.0.5.4.7.4.0.4.2.;.q.4.1.2.$.3.3...n.7.>.7.v.M.,.,.,.Z.7.3.n.V.E.E.V._.].^.^.T.U.8X9X6Xi.@ ",
"g cXdXCXlXQ.~.Q.0.~.0.0.0.0.0.6.0.0.1.7.5.5.7.3.3.4.>.9.M.4.>.4...5.4.3.3.3.7.3.v.4.,.4.M.,.,.3.N.V.E.E.E.].E.Y.Y.U.U.8X7X<Xs.O ",
"I NXdXCXcX0.~.Q.I.I.~.0.0.Q.7.7.7.1.2.1.7.8.4.8.4.>.4.4.q.,.9.M...7.%.1.5.v.,.v.3.3.3.v.,.v.v.N.E.V._.E.E.Y.Y.b.U.b.g.8X<X1Xs.* ",
"P cXdXmXzXQ.Q.Q.8.Q.7.Q.!.T.7.0.5.5.<.} 7.7.1.1.8.1.7.2.8.,.4.3...4.@.3.3.4.4.n.7.3.,.v.,.4.v.V.V.V.n.m.Q.n.b.P.U.U.U.6X1X<X&Xs ",
"S zXfXvXBX_.E.T.7.0.7.7..X0.7.0.1.5.1.%.5.7.7.8.| 1.1.<.| >.4.+.| 4.@.| 4.3.7.4.5.3.v.,.4.,.m.v.V.m.v.I.m.b.b.b.m.U.U.0X1X1X3X- ",
"P f.fXaXvX).Q.n.Q.T.T.0.7.0.7.7.7.6.5.1.8.7.1.6.1.} 1.1. .1.>.} 3.n.1.6.3.3.n.8.3.3.,.,.,.4.v.V.m.n.n.n.n.6.b.b.b.U.U.>X<X2XqXl ",
"V x.fXfXiX).T.6.Q.7.7.Q.T.T.7.7.R.6.%.3.4.5.%.o.X.1.8.| | 2.<. .7.5.6.3.$.4.,.3.>.,.,.3.4.4.m.V.m.n.6.Y.6.6.$.b.u.U.g.5X<X2XjX& ",
"u e.eXfX8X-X_.6.7.Q.7.T.7.0.T.7.I.5.o.5.7.8.o.X.X.7.8.8.8.8.}  .3.1.6.4.4.v...3.v...,.v.4.7.n.m.n.6.I.n.5.b.6.u.u.#.h.>X<X2Xl.3 ",
"z =.eX7X6X>XP.T.I.R.I.6.I.n.I.m.n.5.7.%.6.1.@.X.$.....} 9.2.@.| 7.1.v.5.n...>.,.3...3.v.v.v.V.m.b.b.I.6.6.6.b.u.u.#.;X>X<X2Xy.# ",
"P _ 2X7X9X6XP.^.T.T.I.6.I.7.8.R.n.5.5.I.6.%.+.} 7.1.@.} >.%.o.@.5.5.@.b.3.........>.3.v.v.n.N.v.n.6.6.6.b.b.b.b.#.U.(.>X<XL.L O ",
"Z A 6X7X6X8X).T.T.T.I.6.7.7.I.7.n.5.6.6.3.1.X.&.1.1.} 1.@.} ..8.....3.,...,...3...,.,.v.v.n.b.b.b.n.6.6.$.u.u.$.u.;X-X<X=X' n - ",
"f Q 8XeX6XlXlXj.T.6.5.7.6.6.Q.I.I.I.I.5.5.%.+.%.%.@.@.3.3...} %.4.3.4...,.>.3.3.v.,.n.v.3.3.v.b.b.b.b.&.$.u.u.*.).;X>X,XL.=.Z 3 ",
"k A zX2X6X9XlXzXg.7.6.7.6.7.T.7.R.I.6.P.5.X.n.$.@.} @.,.,...@.} $.v.3...1.>.>.3.v.4.v.n.&.7.7.6.b.b.&.b.u.u.i.).-X,X=X=XL.N V * ",
"c A ( <X2X9XlXlXj.g.-.P.6.T.T.7.I.T.6.6.5.6.7.5.5.@.@.@.@...$.} 3.v...3.1.1.>.v.v.3.6.5.6.7.6.6.6.$.&.&.b.u.i.-X>X,XL.K.L 2 I u ",
"n i 9 y.<XvXlXkXlX3X|.U.T.Q.T.7.I.6.6.6.%.I.I.6.1.@.@.3.1.1...6.b.v...3.1.1.7.b.3.b.6.6.7.6.$.$.g.&.*.P.u.O.&X>X=XJ.J.r.. 1 b - ",
"m 2 y y ;X7XsX0X5XlXlX5X|.T.T.T.6.5.%.5.5.7.6.6.>.7.} 3.3.@.@.5.b...3.3.3.3.6.5.3.3.6.&.6.&.%.&.&.&.b.#.=.h.z.*X=XL.h.& * f F 8 ",
"b 8 w 3 k l.6X7X<X6XkXjXzX|.I.6.$.5.6.X.7.b.7.5.6.3.5.m.n.1.5.Y.m.b.3.b.3.4.@.1.&.6.%.1.b.3.@.#.%.P.+.O.g.h.&X=XL.K.m q 4 r F z ",
"8 8 w w 4 B j.0X0X7X>X0XcXlX).u.*.b.@.&.P.5.$.@.b.6.P.n.5.o.6.I.m.u.$.4.$.$.+.$.$.$.$.@.6.$.%.#.-.O.f.i.y.s.K.L.A.` m Y 0 m L S ",
"8 8 x x f w v Q zX>X7X2X9X0X3Xa.6.b.+.I.%.6.$.+.6.@.6.6.} } 6.n.6.@.$.$.%.@.5.6.@.o...%.6.+.%.*.+.j.h.a.s.s.A.p.y.w E 0 o x I - ",
"8 x 0 x e q k s # l.=X7X9X>X5X-X|.O.$.b.$.*.+.6.$.$.6.5.+.6.6.$.%.$.+.@.@...$.1.+.+.+.@.%.*.#.g.(.j./.a.S.S.p.r.0 F E b   q D ; ",
"7 k c q r b j - . u zX>X7X<X>X-X0XO.j.u.$.@.@.U.$.b.7.@.%.6.$.+.@.X.+.%.#.@.$.*.$.+.%.*.#.#.(.;X;XS.p.K.K.p.r.m x Y q G o j E u ",
"a n v i m x c o ; z Z 3Xh.J.=X=X-X3X5Xj.O.O.&.u.u.b.n.+.b.b.&.&.+.*.#.$.+.#.+.$.#.O.O.g.j.;X-X*X&XK.p.p.s.y.x p R E q m w l b - ",
"a j x + m r j * = F J G r.i.S.J.*X,X3X3X(.i.g.O.y.*.O.i.i.g.#.g.)././.(.|.).(.(.h.(.(.-X-X-X*XS.K.p.s.] m : ^ y L 7 8 j $ = L # ",
"j w 8 O 9 V k ; $ F M m b b M W D.A.J.*X/.-X3X(.-Xj.j.(.(.).j.).&X;X;X/.-X/.;X;X;X&X(.(.*X*XS.A.K.y.b $ 8 b ( u w v G p @ o S * ",
"w 7 j * 9 b k - @ J G G a X < 0 0 J a.a.D.=XA.&X/.D.a.a.S.S.a.D./.A.D.*X&X/.*XS.S.D.S.S.*XA.t.r.b = 2 p / ' ( p a 9 / w   , K * ",
"8 w x 8 7 a 7 - @ F / N i $ < < t r Q O.h./.a.A.c.p.t.p.t.s.d.c.A.D.D.&Xc.S.A.A.t.t.d.D.D.i.H 6 6 m k j ( K b n n m ) 4 2 t x = ",
"K w r x = y - # O B / v a + , t t r X 7 v H ] ' U H J L U E G y.' I ^ ( / ' ' G G F J J 9 4 x S ' ) F B L 7 a p m x F + q 0 k F ",
"B j 6 8 * s @ # O E F x U 4 < t 6 h X i M Y k = @ 7 c x < , + % % % @ + + 5 1 5 , 5 9 a 5 8 B I ] f.^ B J k c x W Q 9 c f 2 n ) "
};
