/* XPM */
static char *mushroom_red[] = {
/* columns rows colors chars-per-pixel */
"64 64 256 2",
"   c #E71F1E",
".  c #D0351C",
"X  c #DA2D19",
"o  c #E63F1D",
"O  c #DE1E31",
"+  c #E6162E",
"@  c #E41F2B",
"#  c #E31A31",
"$  c #D43225",
"%  c #DB2434",
"&  c #D82A37",
"*  c #DA313E",
"=  c #DB272C",
"-  c #E53629",
";  c #E62937",
":  c #E63330",
">  c #E63836",
",  c #E1343D",
"<  c #E7252C",
"1  c #986D3C",
"2  c #E7561F",
"3  c #E8631D",
"4  c #DA4A3A",
"5  c #C95B3E",
"6  c #D95738",
"7  c #E4492F",
"8  c #E6492A",
"9  c #E95C2C",
"0  c #E8542C",
"q  c #E34535",
"w  c #E74938",
"e  c #E35A3A",
"r  c #E95937",
"t  c #DB7037",
"y  c #E66429",
"u  c #E9742E",
"i  c #E86739",
"p  c #E37739",
"a  c #DA3F49",
"s  c #D63843",
"d  c #D33D57",
"f  c #E63845",
"g  c #837047",
"h  c #9E7D53",
"j  c #977849",
"k  c #AC7F4C",
"l  c #A87F57",
"z  c #837E65",
"x  c #927C61",
"c  c #DA414D",
"v  c #D44A4A",
"b  c #CC5C4A",
"n  c #DC5945",
"m  c #DC4C53",
"M  c #D54350",
"N  c #D75655",
"B  c #D85552",
"V  c #D3565A",
"C  c #D55B5D",
"Z  c #DD5F5E",
"A  c #CB4A49",
"S  c #E34A4F",
"D  c #EA4C4C",
"F  c #E44648",
"G  c #E35546",
"H  c #E85341",
"J  c #E55A44",
"K  c #EA5A47",
"L  c #E95B49",
"P  c #E5504A",
"I  c #E44A54",
"U  c #E84952",
"Y  c #E35554",
"T  c #E75857",
"R  c #DB624F",
"E  c #D56746",
"W  c #D47B4D",
"Q  c #D9625D",
"!  c #D86A5A",
"~  c #DB7A5A",
"^  c #D67857",
"/  c #CB6F4D",
"(  c #E7644D",
")  c #EA6949",
"_  c #E97A44",
"`  c #EA7848",
"'  c #E36555",
"]  c #EA6A54",
"[  c #E9685C",
"{  c #EB7054",
"}  c #EC795A",
"|  c #DB4C66",
" . c #D8586E",
".. c #E75961",
"X. c #DC6B63",
"o. c #D66968",
"O. c #CD7E68",
"+. c #D97562",
"@. c #DA756B",
"#. c #DD7B6C",
"$. c #D67C64",
"%. c #DE7D73",
"&. c #DB7B7B",
"*. c #E96164",
"=. c #EB6C63",
"-. c #E66866",
";. c #E37566",
":. c #E47A64",
">. c #EA7D62",
",. c #E3746F",
"<. c #EC756B",
"1. c #E5786A",
"2. c #EC7B6C",
"3. c #EC7664",
"4. c #EC7975",
"5. c #E9797C",
"6. c #E57777",
"7. c #D2863A",
"8. c #E98539",
"9. c #EA913B",
"0. c #9A804F",
"q. c #93825F",
"w. c #8B816B",
"e. c #96896C",
"r. c #9F926C",
"t. c #9E927A",
"y. c #988C75",
"u. c #A48D6C",
"i. c #A3916B",
"p. c #AA9666",
"a. c #B88B77",
"s. c #A3997C",
"d. c #B59477",
"f. c #B39166",
"g. c #BAA277",
"h. c #C58147",
"j. c #CB914F",
"k. c #DE9A4F",
"l. c #CF8159",
"z. c #D79555",
"x. c #DA9755",
"c. c #D58654",
"v. c #EB8645",
"b. c #EB844C",
"n. c #E78A40",
"m. c #E5984D",
"M. c #EB8254",
"N. c #ED835D",
"B. c #EB8D5A",
"V. c #EC9452",
"C. c #EC9B5C",
"Z. c #EC9857",
"A. c #E8A14D",
"S. c #ECA853",
"D. c #C3806B",
"F. c #D4836A",
"G. c #CC906B",
"H. c #CB8472",
"J. c #DD8372",
"K. c #D38C75",
"L. c #D98B78",
"P. c #D9957B",
"I. c #EB8E64",
"U. c #E4816C",
"Y. c #EA826B",
"T. c #EB8969",
"R. c #E98464",
"E. c #ED9464",
"W. c #ED936C",
"Q. c #E99764",
"!. c #E38773",
"~. c #E68C77",
"^. c #ED8C75",
"/. c #EC8B7A",
"(. c #EA8779",
"). c #EE9473",
"_. c #EC947B",
"`. c #ED9C7E",
"'. c #E79679",
"]. c #CFA770",
"[. c #EAA763",
"{. c #E4B36E",
"}. c #EDAB73",
"|. c #F0A67C",
" X c #EEB777",
".X c #EC6F81",
"XX c #EC7887",
"oX c #9A9686",
"OX c #AB9485",
"+X c #A39F8B",
"@X c #BB9685",
"#X c #B99A89",
"$X c #AEA48C",
"%X c #B4A88F",
"&X c #B1A684",
"*X c #BBA291",
"=X c #B4AD93",
"-X c #B9AF99",
";X c #BDB491",
":X c #C49782",
">X c #D39481",
",X c #DC9E82",
"<X c #EB8382",
"1X c #E68F8D",
"2X c #E88785",
"3X c #E79283",
"4X c #EE9C84",
"5X c #ED958A",
"6X c #E8998A",
"7X c #F09684",
"8X c #EF8A97",
"9X c #EB9696",
"0X c #CCAA8F",
"qX c #DDAC8C",
"wX c #D4A286",
"eX c #C9AE99",
"rX c #DAAD92",
"tX c #C2B89A",
"yX c #EEAD83",
"uX c #ECA18E",
"iX c #E7AE8D",
"pX c #E2A48A",
"aX c #F0A284",
"sX c #F1AA8A",
"dX c #ECB388",
"fX c #E3AC93",
"gX c #E6A594",
"hX c #F1AA97",
"jX c #E9B392",
"kX c #ED93A3",
"lX c #EF99A6",
"zX c #C9BFA2",
"xX c #ECAAA4",
"cX c #EBA1A5",
"vX c #EDB0A4",
"bX c #F3ABB2",
"nX c #EEC29D",
"mX c #CDC5A5",
"MX c #D6CBAE",
"NX c #D1C7A8",
"BX c #D7D0AF",
"VX c #D4CDB2",
"CX c #DBD4B7",
"ZX c #E3D7BB",
"AX c #E7DEC5",
"SX c #EEE4C9",
"DX c #E9E0C5",
"FX c #F3EDCD",
"GX c #EFEAD6",
"HX c #F6EFD9",
"JX c #F4EED2",
"KX c #F8F3D9",
"LX c #FAF6E2",
"PX c #FBF8E5",
"IX c #FCFAEC",
"UX c None",
/* pixels */
"UXUXUXUXUXUXUXUXUXUXUXUXUXUXUXUXUXUXUXUXUXUXUXUXUXUXUXUXUXUXUXUXUXUXUXUXUXUXUXUXUXUXUXUXUXUXUXUXUXUXUXUXUXUXUXUXUXUXUXUXUXUXUXUX",
"UXUXUXUXUXUXUXUXUXUXUXUXUXUXUXUXUXUXUXUXUXUXUXUXUXUXUXUXUXUXUXUXUXUXUXUXUXUXUXUXUXUXUXUXUXUXUXUXUXUXUXUXUXUXUXUXUXUXUXUXUXUXUXUX",
"UXUXUXUXUXUXUXUXUXUXUXUXUXUXUXUXUXUXUXUXUXUXUXUXUXUXUXUXUXUXUXUXUXUXUXUXUXUXUXUXUXUXUXUXUXUXUXUXUXUXUXUXUXUXUXUXUXUXUXUXUXUXUXUX",
"UXUXUXUXUXUXUXUXUXUXUXUXUXUXUXUXUXUXUXUXUXUXUXUXUXUXUXUXUXUXUXUXUXUXUXUXUXUXUXUXUXUXUXUXUXUXUXUXUXUXUXUXUXUXUXUXUXUXUXUXUXUXUXUX",
"UXUXUXUXUXUXUXUXUXUXUXUXUXUXUXUXUXUXUXUXUXUXUXUXUXUXUXUXUXUXUXUXUXUXUXUXUXUXUXUXUXUXUXUXUXUXUXUXUXUXUXUXUXUXUXUXUXUXUXUXUXUXUXUX",
"UXUXUXUXUXUXUXUXUXUXUXUXUXUXUXUXUXUXUXUXUXUXUXUXUXUXUXUXUXUXUXUXUXUXUXUXUXUXUXUXUXUXUXUXUXUXUXUXUXUXUXUXUXUXUXUXUXUXUXUXUXUXUXUX",
"UXUXUXUXUXUXUXUXUXUXUXUXUXUXUXUXUXUXUXUXUXUXUXUXUXUXUXUXUXUXUXUXUXUXUXUXUXUXUXUXUXUXUXUXUXUXUXUXUXUXUXUXUXUXUXUXUXUXUXUXUXUXUXUX",
"UXUXUXUXUXUXUXUXUXUXUXUXUXUXUXUXUXUXUXUXUXUXUXUXUXUXUXUXUXUXUXUXUXUXUXUXUXUXUXUXUXUXUXUXUXUXUXUXUXUXUXUXUXUXUXUXUXUXUXUXUXUXUXUX",
"UXUXUXUXUXUXUXUXUXUXUXUXUXUXUXUXUXUXUXUXUXUXUXUXUXUXUXUXUXUXUXUXUXUXUXUXUXUXUXUXUXUXUXUXUXUXUXUXUXUXUXUXUXUXUXUXUXUXUXUXUXUXUXUX",
"UXUXUXUXUXUXUXUXUXUXUXUXUXUXUXUXUXUXUXUXUXUXUXUXUXUXUXUXUXUXUXUXUXUXUXUXUXUXUXUXUXUXUXUXUXUXUXUXUXUXUXUXUXUXUXUXUXUXUXUXUXUXUXUX",
"UXUXUXUXUXUXUXUXUXUXUXUXUXUXUXUXUXUXUXUXUXUXUXUXUXUXUXUXUXUXUXUXUXUXUXUXUXUXUXUXUXUXUXUXUXUXUXUXUXUXUXUXUXUXUXUXUXUXUXUXUXUXUXUX",
"UXUXUXUXUXUXUXUXUXUXUXUXUXUXUXUXUXUXUXUXUXUXUXUXUXUXUXUXUXUXUXUXUXUXUXUXUXUXUXUXUXUXUXUXUXUXUXUXUXUXUXUXUXUXUXUXUXUXUXUXUXUXUXUX",
"UXUXUXUXUXUXUXUXUXUXUXUXUXUXUXUXUXUXUXUXUXUXUXUXUXUXUXUXUXUXUXUXUXUXUXUXUXUXUXUXUXUXUXUXUXUXUXUXUXUXUXUXUXUXUXUXUXUXUXUXUXUXUXUX",
"UXUXUXUXUXUXUXUXUXUXUXUXUXUXUXUXUXUXUXUXUXUXUXUXUXUXUXUXUXUXUXUXUXUXUXUXUXUXUXUXUXUXUXUXUXUXUXUXUXUXUXUXUXUXUXUXUXUXUXUXUXUXUXUX",
"UXUXUXUXUXUXUXUXUXUXUXUXUXUXUXUXUXUXUXUXUXUXUXUXUXUXUXUXUXUXUXUXUXUXUXUXUXUXUXUXUXUXUXUXUXUXUXUXUXUXUXUXUXUXUXUXUXUXUXUXUXUXUXUX",
"UXUXUXUXUXUXUXUXUXUXUXUXUXUXUXUXUXUXUXUXUXUXUXUXUXUXUXUXUXUXUXUXUXUXUXUXUXUXUXUXUXUXUXUXUXUXUXUXUXUXUXUXUXUXUXUXUXUXUXUXUXUXUXUX",
"UXUXUXUXUXUXUXUXUXUXUXUXUXUXUXUXUXUXUXUXUXUXUXUXUXUXUXUXUXUXUXUXUXUXUXUXUXUXUXUXUXUXUXUXUXUXUXUXUXUXUXUXUXUXUXUXUXUXUXUXUXUXUXUX",
"UXUXUXUXUXUXUXUXUXUXUXUXUXUXUXUXUXUXUXUXUXUXUXUXUXUXUXUXUXUXUXUXUXUXUXUXUXUXUXUXUXUXUXUXUXUXUXUXUXUXUXUXUXUXUXUXUXUXUXUXUXUXUXUX",
"UXUXUXUXUXUXUXUXUXUXUXUXUXUXUXUXUXUXUXUXUXUXUXUXUXUXUXUXUXUXUXUXUXUXUXUXUXUXUXUXUXUXUXUXUXUXUXUXUXUXUXUXUXUXUXUXUXUXUXUXUXUXUXUX",
"UXUXUXUXUXUXUXUXUXUXUXUXUXUXUXUXUXUXUXUXUXUXUXUXUXUXUXUXUXUXUXUXUXUXUXUXUXUXUXUXUXUXUXUXUXUXUXUXUXUXUXUXUXUXUXUXUXUXUXUXUXUXUXUX",
"UXUXUXUXUXUXUXUXUXUXUXUXUXUXUXUXUXUXUXUXUXUXUXUXUXUXUXUXUXUXUXUXUXUXUXUXUXUXUXUXUXUXUXUXUXUXUXUXUXUXUXUXUXUXUXUXUXUXUXUXUXUXUXUX",
"UXUXUXUXUXUXUXUXUXUXUXUXUXUXUXUXUXUXUXUXUXUXUXUXUXUXUXUXUXUXUXUXUXUXUXUXUXUXUXUXUXUXUXUXUXUXUXUXUXUXUXUXUXUXUXUXUXUXUXUXUXUXUXUX",
"UXUXUXUXUXUXUXUXUXUXUXUXUXUXUXUXUXUXUXUXUXUXUXUXUXUXUXUXUXUXUXUXUXUXUXUXUXUXUXUXUXUXUXUXUXUXUXUXUXUXUXUXUXUXUXUXUXUXUXUXUXUXUXUX",
"UXUXUXUXUXUXUXUXUXUXUXUXUXUXUXUXUXUXUXUXUXUXUXUXUXUXUXUXUXUXUXUXUXUXUXUXUXUXUXUXUXUXUXUXUXUXUXUXUXUXUXUXUXUXUXUXUXUXUXUXUXUXUXUX",
"UXUXUXUXUXUXUXUXUXUXUXUXUXUXUXUXUXUXUXUXUXUXUXUXUXUXUXUXUXUXUXUXUXUXUXUXUXUXUXUXUXUXUXUXUXUXUXUXUXUXUXUXUXUXUXUXUXUXUXUXUXUXUXUX",
"UXUXUXUXUXUXUXUXUXUXUXUXUXUXUXUXUXUXUXUXUXUXUXUXUXUXUXUXUXUXUXUXUXUXUXUXUXUXUXUXUXUXUXUXUXUXUXUXUXUXUXUXUXUXUXUXUXUXUXUXUXUXUXUX",
"UXUXUXUXUXUXUXUXUXUXUXUXUXUXUXUXUXUXUXUXUXUXUXUXUXUXUXUXUXUXUXUXUXUXUXUXUXUXUXUXUXUXUXUXUXUXUXUXUXUXUXUXUXUXUXUXUXUXUXUXUXUXUXUX",
"UXUXUXUXUXUXUXUXUXUXUXUXUXUXUXUXUXUXUXUXUXUXUXUXUXUXUXUXUXUXUXUXUXUXUXUXUXUXUXUXUXUXUXUXUXUXUXUXUXUXUXUXUXUXUXUXUXUXUXUXUXUXUXUX",
"UXUXUXUXUXUXUXUXUXUXUXUXUXUXUXUXUXUXUXUXUXUXUXUXUXUXUXUXUXUXUXUXUXUXUXUXUXUXUXUXUXUXUXUXUXUXUXUXUXUXUXUXUXUXUXUXUXUXUXUXUXUXUXUX",
"UXUXUXUXUXUXUXUXUXUXUXUXUXUXUXUXUXUXUXUXUXUXUXUXUXUXUXUXUXUXUXUXUXUXUXUXUXUXUXUXUXUXUXUXUXUXUXUXUXUXUXUXUXUXUXUXUXUXUXUXUXUXUXUX",
"UXUXUXUXUXUXUXUXUXUXUXUXUXUXUXUXUXUXUXUXUXUXUXUXUXUXUXUXUXUXUXUXUXUXUXUXUXUXUXUXUXUXUXUXUXUXUXUXUXUXUXUXUXUXUXUXUXUXUXUXUXUXUXUX",
"UXUXUXUXUXUXUXUXUXUXUXUXUXUXUXUXUXUXUXUXUXUXUXUXUXUXUXUXUXUXUXUXUXUXUXUXUXUXUXUXUXUXUXUXUXUXUXUXUXUXUXUXUXUXUXUXUXUXUXUXUXUXUXUX",
"UXUXUXUXUXUXUXUXUXUXUXUXUXUXUXUXUXUXUXUXUXUXUXUXUXUXUXUXUXUXUXUXUXUXUXUXUXUXUXUXUXUXUXUXUXUXUXUXUXUXUXUXUXUXUXUXUXUXUXUXUXUXUXUX",
"UXUXUXUXUXUXUXUXUXUXUXUXUXUXUXUXUXUXUXUXUXUXUXUXUXUXUXUXUXUXUXUXUXUXUXUXUXUXUXUXUXUXUXUXUXUXUXUXUXUXUXUXUXUXUXUXUXUXUXUXUXUXUXUX",
"UXUXUXUXUXUXUXUXUXUXUXUXUXUXUXUXUXUXUXUXUXUXUXUXUXUXUXUXUX:XK.D.K.a.a.UXUXUXUXUXUXUXUXUXUXUXUXUXUXUXUXUXUXUXUXUXUXUXUXUXUXUXUXUX",
"UXUXUXUXUXUXUXUXUXUXUXUXUXUXUXUXUXUXUXUXUXUXUXUXUXUX@XwX! !.' 2.' F.! jXF.UXUXUXUXUXUXUXUXUXUXUXUXUXUXUXUXUXUXUXUXUXUXUXUXUXUXUX",
"UXUXUXUXUXUXUXUXUXUXUXUXUXUXUXUXUXUXUXUXUXUXUXUXD.,Xo.fXV C V X.Q V X.C +.A iX0XUXUXUXUXUXUXUXUXUXUXUXUXUXUXUXUXUXUXUXUXUXUXUXUX",
"UXUXUXUXUXUXUXUXUXUXUXUXUXUXUXUXUXUXUXUXUXUX:XP.X.| 9Xd P.6.X.s #.N M -.c J.+.B H.rXUXUXUXUXUXUXUXUXUXUXUXUXUXUXUXUXUXUXUXUXUXUX",
"UXUXUXUXUXUXUXUXUXUXUXUXUXUXUXUXUXUXUXUXOXqXL.o.iX .&.| d o.Y J.T XX@.a N !.* ;.;.! wXUXUXUXUXUXUXUXUXUXUXUXUXUXUXUXUXUXUXUXUXUX",
"UXUXUXUXUXUXUXUXUXUXUXUXUXUXUXUXUXUXUX#X! M >XkX1X1XpX6.,.%.O @.a Q Z I ; N c Y * # = $.*XUXUXUXUXUXUXUXUXUXUXUXUXUXUXUXUXUXUXUX",
"UXUXUXUXUXUXUXUXUXUXUXUXUXUXUXUXUXUX*XR @.XX9X1X8X.X%.I XXs + % v [ *.f f % + + O >X, #.'.UXUXUXUXUXUXUXUXUXUXUXUXUXUXUXUXUXUXUX",
"UXUXUXUXUXUXUXUXUXUXUXUXUXUXUXUXUXUX$.*.2XkXvX1XhX5X(.I T m m f O c , + 3XU f ..I ; D Y : jXUXUXUXUXUXUXUXUXUXUXUXUXUXUXUXUXUXUX",
"UXUXUXUXUXUXUXUXUXUXUXUXUXUXUXUXUXP.Q 2X6XxXuX<X5.<X*.D ~.Q K.T < >X1.I <.; D D G   : : F R >XUXUXUXUXUXUXUXUXUXUXUXUXUXUXUXUXUX",
"UXUXUXUXUXUXUXUXUXUXUXUXUXUXUXUX@X'.6XlXcXJ.XX5X4.6.4X6X&.[ T =.] > : > =.w w _.] w n 1.L q R.*XUXUXUXUXUXUXUXUXUXUXUXUXUXUXUXUX",
"UXUXUXUXUXUXUXUXUXUXUXUXUXUXUXUXrX!.xXhXbX9X,.4.5X<.4.,.<.hX*./.=.=.T 3.K D 2.} w 4X8 ^.} N.} iXUXUXUXUXUXUXUXUXUXUXUXUXUXUXUXUX",
"UXUXUXUXUXUXUXUXUXUXUXUXUXUXUXOX} 3X3X9X@.[ =.~.<.[ 3.~.K L K Y.=._.7X^.7X{ { N.{ ^.`.) i i ` 9 UXUXUXUXUXUXUXUXUXUXUXUXUXUXUXUX",
"UXUXUXUXUXUXUXUXUXUXUXUXUXUXUX#X^ 6 R :.:.' ~.1.r w `.7 ] e '.dXy ^.Y.2.sX3.^.>.} T.`.).N.b.M._ eXUXUXUXUXUXUXUXUXUXUXUXUXUXUXUX",
"UXUXUXUXUXUXUXUXUXUXUXUXUXUXUXa.~ $.:.7 L J - ~.G w b w r } e ' 9 } /.7X^.^.aXaXsXI.I.I.v.B.B._ *XUXUXUXUXUXUXUXUXUXUXUXUXUXUXUX",
"UXUXUXUXUXUXUXUXUXUXUXUXUXUXUXUXl.b 6 ^ 4 $ { 4 J G ( ) 7 0 i I.9 ` _.nXaXaXsX).aX` F.v.v.b.C.rXUXUXUXUXUXUXUXUXUXUXUXUXUXUXUXUX",
"UXUXUXUXUXUXUXUXUXUXUXUXUXUXUXUXd.l./ E . 6 n X 6 ) J o R.0 T.yX3 I.).aXaXaXaXI.yX}.u 9.S.Z.dXOXUXUXUXUXUXUXUXUXUXUXUXUXUXUXUXUX",
"UXUXUXUXUXUXUXUXUXUXUXUXUXUXUXUXUXx l G.^ / E ^ 6 6 8 I.i 0 M.y E.b.Z.).|.E. XV.Z.V.Z.Z.}.].UXUXUXUXUXUXUXUXUXUXUXUXUXUXUXUXUXUX",
"UXUXUXUXUXUXUXUXUXUXUXUXUXUXUXUXUXUXUXt.h f.h.l.W t W Q.i B.p B.u y Q.8.[.9.8. XS.S.x.g.UXUXUXUXUXUXUXUXUXUXUXUXUXUXUXUXUXUXUXUX",
"UXUXUXUXUXUXUXUXUXUXUXUXUXUXUXUXUXUXUXUXUXUXUXu.j 1 0.z.z.z.m.x.k.m.7.S.S.{.].f.&XUXUXUXUXUXUXUXUXUXUXUXUXUXUXUXUXUXUXUXUXUXUXUX",
"UXUXUXUXUXUXUXUXUXUXUXUXUXUXUXUXUXUXUXUXUXUXUXUXUXUXg q.e.&X=Xs.e.s.-X%Xi.UXUXUXUXUXUXUXUXUXUXUXUXUXUXUXUXUXUXUXUXUXUXUXUXUXUXUX",
"UXUXUXUXUXUXUXUXUXUXUXUXUXUXUXUXUXUXUXUXUXUXUXUXUXUXUXUXz p.p.0.i.i.w.UXUXUXUXUXUXUXUXUXUXUXUXUXUXUXUXUXUXUXUXUXUXUXUXUXUXUXUXUX",
"UXUXUXUXUXUXUXUXUXUXUXUXUXUXUXUXUXUXUXUXUXUXUXUXUXUXUXUXoXs.&X;XmX;XUXUXUXUXUXUXUXUXUXUXUXUXUXUXUXUXUXUXUXUXUXUXUXUXUXUXUXUXUXUX",
"UXUXUXUXUXUXUXUXUXUXUXUXUXUXUXUXUXUXUXUXUXUXUXUXUXUXUXUXoX=XmXBXCXNXUXUXUXUXUXUXUXUXUXUXUXUXUXUXUXUXUXUXUXUXUXUXUXUXUXUXUXUXUXUX",
"UXUXUXUXUXUXUXUXUXUXUXUXUXUXUXUXUXUXUXUXUXUXUXUXUXUXUXUX$XtXMXDXSXCXUXUXUXUXUXUXUXUXUXUXUXUXUXUXUXUXUXUXUXUXUXUXUXUXUXUXUXUXUXUX",
"UXUXUXUXUXUXUXUXUXUXUXUXUXUXUXUXUXUXUXUXUXUXUXUXUXUXUXUX=XmXCXSXFXVXUXUXUXUXUXUXUXUXUXUXUXUXUXUXUXUXUXUXUXUXUXUXUXUXUXUXUXUXUXUX",
"UXUXUXUXUXUXUXUXUXUXUXUXUXUXUXUXUXUXUXUXUXUXUXUXUXUXUXUX$XmXDXJXFXCXUXUXUXUXUXUXUXUXUXUXUXUXUXUXUXUXUXUXUXUXUXUXUXUXUXUXUXUXUXUX",
"UXUXUXUXUXUXUXUXUXUXUXUXUXUXUXUXUXUXUXUXUXUXUXUXUXUXUXUXeXZXSXKXKXAXUXUXUXUXUXUXUXUXUXUXUXUXUXUXUXUXUXUXUXUXUXUXUXUXUXUXUXUXUXUX",
"UXUXUXUXUXUXUXUXUXUXUXUXUXUXUXUXUXUXUXUXUXUXUXUXUXUXUXUXMXAXHXKXPXGXUXUXUXUXUXUXUXUXUXUXUXUXUXUXUXUXUXUXUXUXUXUXUXUXUXUXUXUXUXUX",
"UXUXUXUXUXUXUXUXUXUXUXUXUXUXUXUXUXUXUXUXUXUXUXUXUXUXUXUXAXHXPXIXPXKXUXUXUXUXUXUXUXUXUXUXUXUXUXUXUXUXUXUXUXUXUXUXUXUXUXUXUXUXUXUX",
"UXUXUXUXUXUXUXUXUXUXUXUXUXUXUXUXUXUXUXUXUXUXUXUXUXUXUXoXAXAXSXLXPXLXUXUXUXUXUXUXUXUXUXUXUXUXUXUXUXUXUXUXUXUXUXUXUXUXUXUXUXUXUXUX"
};
