/* XPM */
static char *mushroom_brown[] = {
/* columns rows colors chars-per-pixel */
"64 64 247 2",
"   c #27221B",
".  c #2D251D",
"X  c #372B1F",
"o  c #54321A",
"O  c #6C3F1B",
"+  c #783F1B",
"@  c #403526",
"#  c #483826",
"$  c #443A2B",
"%  c #4A3E2D",
"&  c #583D23",
"*  c #75451C",
"=  c #53422E",
"-  c #5B412A",
";  c #5F513D",
":  c #664624",
">  c #694825",
",  c #6C4D29",
"<  c #7C5024",
"1  c #63553E",
"2  c #6B513B",
"3  c #725433",
"4  c #775D3E",
"5  c #7C623E",
"6  c #605040",
"7  c #735E49",
"8  c #615850",
"9  c #6D5D51",
"0  c #625C58",
"q  c #7A6545",
"w  c #71634F",
"e  c #7E6A4B",
"r  c #6A645B",
"t  c #726652",
"y  c #7B6F57",
"u  c #796E5A",
"i  c #7D725E",
"p  c #666260",
"a  c #786D64",
"s  c #7D7A74",
"d  c #81471C",
"f  c #814D1F",
"g  c #894A1D",
"h  c #93541E",
"j  c #9D5C1F",
"k  c #A25E1F",
"l  c #A5611E",
"z  c #AB661E",
"x  c #B36E1F",
"c  c #B96E1E",
"v  c #B6711E",
"b  c #BC741E",
"n  c #BF791E",
"m  c #845C2B",
"M  c #845E31",
"N  c #835F3D",
"B  c #976022",
"V  c #9B692F",
"C  c #856336",
"Z  c #8E6937",
"A  c #8D653E",
"S  c #9B6C32",
"D  c #936A38",
"F  c #9F753E",
"G  c #A66622",
"H  c #A86520",
"J  c #A56B25",
"K  c #AD6C24",
"L  c #A46E2B",
"P  c #B26E21",
"I  c #AF7025",
"U  c #A7722E",
"Y  c #AE702B",
"T  c #B57322",
"R  c #BB7621",
"E  c #B77925",
"W  c #BC7B23",
"Q  c #B3742C",
"!  c #B87528",
"~  c #B67B2A",
"^  c #A46E32",
"/  c #A06D39",
"(  c #A37436",
")  c #A3753B",
"_  c #AC793C",
"`  c #B27630",
"'  c #B47A37",
"]  c #BA7C31",
"[  c #B47F3E",
"{  c #B87F3A",
"}  c #C0761D",
"|  c #C37B1E",
" . c #C07720",
".. c #C27C21",
"X. c #876A4A",
"o. c #8C734E",
"O. c #9C7441",
"+. c #9C754A",
"@. c #826D53",
"#. c #8E7652",
"$. c #82735A",
"%. c #88735E",
"&. c #9C7E5A",
"*. c #A57742",
"=. c #A57C46",
"-. c #AB7A42",
";. c #A47E4D",
":. c #A97C4B",
">. c #827762",
",. c #867962",
"<. c #8C7E64",
"1. c #837B6B",
"2. c #8C7F68",
"3. c #987E64",
"4. c #BC812A",
"5. c #BC8234",
"6. c #B5813E",
"7. c #BB853F",
"8. c #BF8B3C",
"9. c #C48225",
"0. c #C4852A",
"q. c #C9842C",
"w. c #CC8B2D",
"e. c #C48333",
"r. c #C98631",
"t. c #C48B35",
"y. c #C98B31",
"u. c #C08638",
"i. c #C58C3C",
"p. c #CB8D3C",
"a. c #C39036",
"s. c #CD9134",
"d. c #C5913D",
"f. c #CE953E",
"g. c #D2973D",
"h. c #95805F",
"j. c #AA824A",
"k. c #B18345",
"l. c #BA8444",
"z. c #BC8946",
"x. c #B58548",
"c. c #B3894B",
"v. c #BC8A4A",
"b. c #A58353",
"n. c #AF8653",
"m. c #A1835C",
"M. c #B08752",
"N. c #B78C56",
"B. c #BE8E52",
"V. c #B58C59",
"C. c #BC915D",
"Z. c #8E8065",
"A. c #8D826E",
"S. c #9D8164",
"D. c #92836B",
"F. c #97896B",
"G. c #8B8374",
"H. c #938770",
"J. c #938A76",
"K. c #9C8E74",
"L. c #9B907B",
"P. c #A18461",
"I. c #A98D63",
"U. c #B79462",
"Y. c #BB9364",
"T. c #BF9866",
"R. c #BB9569",
"E. c #A59275",
"W. c #A3967D",
"Q. c #A5987F",
"!. c #AA9B7D",
"~. c #B19673",
"^. c #BC9B73",
"/. c #B4997C",
"(. c #BE9F78",
"). c #C18B41",
"_. c #CB8F42",
"`. c #CC9444",
"'. c #CC9449",
"]. c #CD9A4D",
"[. c #D39946",
"{. c #D1954E",
"}. c #D49B4D",
"|. c #C28F51",
" X c #C69753",
".X c #C99455",
"XX c #CE9952",
"oX c #C1945C",
"OX c #C49A5C",
"+X c #CD9C5A",
"@X c #D39C54",
"#X c #D99E53",
"$X c #D69F58",
"%X c #CEA05D",
"&X c #D5A056",
"*X c #D9A354",
"=X c #D4A15C",
"-X c #DDA55B",
";X c #C19961",
":X c #CA9B60",
">X c #C49B6A",
",X c #C89E6C",
"<X c #CEA264",
"1X c #CBA36C",
"2X c #D2A76F",
"3X c #C7A072",
"4X c #CBA475",
"5X c #CDA876",
"6X c #C7A37C",
"7X c #CDA97D",
"8X c #D2AA73",
"9X c #D9B076",
"0X c #8F8B82",
"qX c #918C81",
"wX c #9A9282",
"eX c #A89C85",
"rX c #B4A183",
"tX c #BAA584",
"yX c #ABA699",
"uX c #B8AC93",
"iX c #B8AE9A",
"pX c #BFB39D",
"aX c #CAA781",
"sX c #C2AB84",
"dX c #CEAE8B",
"fX c #C9B58F",
"gX c #C4B395",
"hX c #CAB794",
"jX c #C4B89C",
"kX c #D3BB9A",
"lX c #C4BAA3",
"zX c #CEC1A9",
"xX c #D0C0A1",
"cX c #D0C4AE",
"vX c #DBCCAE",
"bX c #D0C7B5",
"nX c #D5CAB3",
"mX c #D9CEB4",
"MX c #D8CDB8",
"NX c #DDD0B3",
"BX c #DED3BA",
"VX c #E0CEAD",
"CX c #E5D8BB",
"ZX c #E7DBC2",
"AX c #E7DFC9",
"SX c #F2EAD4",
"DX c None",
/* pixels */
"DXDXDXDXDXDXDXDXDXDXDXDXDXDXDXDXDXDXDXDXDXDXDXDXDXDXDXDXDXDXDXDXDXDXDXDXDXDXDXDXDXDXDXDXDXDXDXDXDXDXDXDXDXDXDXDXDXDXDXDXDXDXDXDX",
"DXDXDXDXDXDXDXDXDXDXDXDXDXDXDXDXDXDXDXDXDXDXDXDXDXDXDXDXDXDXDXDXDXDXDXDXDXDXDXDXDXDXDXDXDXDXDXDXDXDXDXDXDXDXDXDXDXDXDXDXDXDXDXDX",
"DXDXDXDXDXDXDXDXDXDXDXDXDXDXDXDXDXDXDXDXDXDXDXDXDXDXDXDXDXDXDXDXDXDXDXDXDXDXDXDXDXDXDXDXDXDXDXDXDXDXDXDXDXDXDXDXDXDXDXDXDXDXDXDX",
"DXDXDXDXDXDXDXDXDXDXDXDXDXDXDXDXDXDXDXDXDXDXDXDXDXDXDXDXDXDXDXDXDXDXDXDXDXDXDXDXDXDXDXDXDXDXDXDXDXDXDXDXDXDXDXDXDXDXDXDXDXDXDXDX",
"DXDXDXDXDXDXDXDXDXDXDXDXDXDXDXDXDXDXDXDXDXDXDXDXDXDXDXDXDXDXDXDXDXDXDXDXDXDXDXDXDXDXDXDXDXDXDXDXDXDXDXDXDXDXDXDXDXDXDXDXDXDXDXDX",
"DXDXDXDXDXDXDXDXDXDXDXDXDXDXDXDXDXDXDXDXDXDXDXDXDXDXDXDXDXDXDXDXDXDXDXDXDXDXDXDXDXDXDXDXDXDXDXDXDXDXDXDXDXDXDXDXDXDXDXDXDXDXDXDX",
"DXDXDXDXDXDXDXDXDXDXDXDXDXDXDXDXDXDXDXDXDXDXDXDXDXDXDXDXDXDXDXDXDXDXDXDXDXDXDXDXDXDXDXDXDXDXDXDXDXDXDXDXDXDXDXDXDXDXDXDXDXDXDXDX",
"DXDXDXDXDXDXDXDXDXDXDXDXDXDXDXDXDXDXDXDXDXDXDXDXDXDXDXDXDXDXDXDXDXDXDXDXDXDXDXDXDXDXDXDXDXDXDXDXDXDXDXDXDXDXDXDXDXDXDXDXDXDXDXDX",
"DXDXDXDXDXDXDXDXDXDXDXDXDXDXDXDXDXDXDXDXDXDXDXDXDXDXDXDXDXDXDXDXDXDXDXDXDXDXDXDXDXDXDXDXDXDXDXDXDXDXDXDXDXDXDXDXDXDXDXDXDXDXDXDX",
"DXDXDXDXDXDXDXDXDXDXDXDXDXDXDXDXDXDXDXDXDXDXDXDXDXDXDXDXDXDXDXDXDXDXDXDXDXDXDXDXDXDXDXDXDXDXDXDXDXDXDXDXDXDXDXDXDXDXDXDXDXDXDXDX",
"DXDXDXDXDXDXDXDXDXDXDXDXDXDXDXDXDXDXDXDXDXDXDXDXDXDXDXDXDXDXDXDXDXDXDXDXDXDXDXDXDXDXDXDXDXDXDXDXDXDXDXDXDXDXDXDXDXDXDXDXDXDXDXDX",
"DXDXDXDXDXDXDXDXDXDXDXDXDXDXDXDXDXDXDXDXDXDXDXDXDXDXDXDXDXDXDXDXDXDXDXDXDXDXDXDXDXDXDXDXDXDXDXDXDXDXDXDXDXDXDXDXDXDXDXDXDXDXDXDX",
"DXDXDXDXDXDXDXDXDXDXDXDXDXDXDXDXDXDXDXDXDXDXDXDXDXDXDXDXDXDXDXDXDXDXDXDXDXDXDXDXDXDXDXDXDXDXDXDXDXDXDXDXDXDXDXDXDXDXDXDXDXDXDXDX",
"DXDXDXDXDXDXDXDXDXDXDXDXDXDXDXDXDXDXDXDXDXDXDXDXDXDXDXDXDXDXDXDXDXDXDXDXDXDXDXDXDXDXDXDXDXDXDXDXDXDXDXDXDXDXDXDXDXDXDXDXDXDXDXDX",
"DXDXDXDXDXDXDXDXDXDXDXDXDXDXDXDXDXDXDXDXDXDXDXDXDXDXDXDXDXDXDXDXDXDXDXDXDXDXDXDXDXDXDXDXDXDXDXDXDXDXDXDXDXDXDXDXDXDXDXDXDXDXDXDX",
"DXDXDXDXDXDXDXDXDXDXDXDXDXDXDXDXDXDXDXDXDXDXDXDXDXDXDXDXDXDXDXDXDXDXDXDXDXDXDXDXDXDXDXDXDXDXDXDXDXDXDXDXDXDXDXDXDXDXDXDXDXDXDXDX",
"DXDXDXDXDXDXDXDXDXDXDXDXDXDXDXDXDXDXDXDXDXDXDXDXDXDXDXDXDXDXDXDXDXDXDXDXDXDXDXDXDXDXDXDXDXDXDXDXDXDXDXDXDXDXDXDXDXDXDXDXDXDXDXDX",
"DXDXDXDXDXDXDXDXDXDXDXDXDXDXDXDXDXDXDXDXDXDXDXDXDXDXDXDXDXDXDXDXDXDXDXDXDXDXDXDXDXDXDXDXDXDXDXDXDXDXDXDXDXDXDXDXDXDXDXDXDXDXDXDX",
"DXDXDXDXDXDXDXDXDXDXDXDXDXDXDXDXDXDXDXDXDXDXDXDXDXDXDXDXDXDXDXDXDXDXDXDXDXDXDXDXDXDXDXDXDXDXDXDXDXDXDXDXDXDXDXDXDXDXDXDXDXDXDXDX",
"DXDXDXDXDXDXDXDXDXDXDXDXDXDXDXDXDXDXDXDXDXDXDXDXDXDXDXDXDXDXDXDXDXDXDXDXDXDXDXDXDXDXDXDXDXDXDXDXDXDXDXDXDXDXDXDXDXDXDXDXDXDXDXDX",
"DXDXDXDXDXDXDXDXDXDXDXDXDXDXDXDXDXDXDXDXDXDXDXDXDXDXDXDXDXDXDXDXDXDXDXDXDXDXDXDXDXDXDXDXDXDXDXDXDXDXDXDXDXDXDXDXDXDXDXDXDXDXDXDX",
"DXDXDXDXDXDXDXDXDXDXDXDXDXDXDXDXDXDXDXDXDXDXDXDXDXDXDXDXDXDXDXDXDXDXDXDXDXDXDXDXDXDXDXDXDXDXDXDXDXDXDXDXDXDXDXDXDXDXDXDXDXDXDXDX",
"DXDXDXDXDXDXDXDXDXDXDXDXDXDXDXDXDXDXDXDXDXDXDXDXDXDXDXDXDXDXDXDXDXDXDXDXDXDXDXDXDXDXDXDXDXDXDXDXDXDXDXDXDXDXDXDXDXDXDXDXDXDXDXDX",
"DXDXDXDXDXDXDXDXDXDXDXDXDXDXDXDXDXDXDXDXDXDXDXDXDXDXDXDXDXDXDXDXDXDXDXDXDXDXDXDXDXDXDXDXDXDXDXDXDXDXDXDXDXDXDXDXDXDXDXDXDXDXDXDX",
"DXDXDXDXDXDXDXDXDXDXDXDXDXDXDXDXDXDXDXDXDXDXDXDXDXDXDXDXDXDXDXDXDXDXDXDXDXDXDXDXDXDXDXDXDXDXDXDXDXDXDXDXDXDXDXDXDXDXDXDXDXDXDXDX",
"DXDXDXDXDXDXDXDXDXDXDXDXDXDXDXDXDXDXDXDXDXDXDXDXDXDXDXDXDXDXDXDXDXDXDXDXDXDXDXDXDXDXDXDXDXDXDXDXDXDXDXDXDXDXDXDXDXDXDXDXDXDXDXDX",
"DXDXDXDXDXDXDXDXDXDXDXDXDXDXDXDXDXDXDXDXDXDXDXDXDXDXDXDXDXDXDXDXDXDXDXDXDXDXDXDXDXDXDXDXDXDXDXDXDXDXDXDXDXDXDXDXDXDXDXDXDXDXDXDX",
"DXDXDXDXDXDXDXDXDXDXDXDXDXDXDXDXDXDXDXDXDXDXDXDXDXDXDXDXDXDXDXDXDXDXDXDXDXDXDXDXDXDXDXDXDXDXDXDXDXDXDXDXDXDXDXDXDXDXDXDXDXDXDXDX",
"DXDXDXDXDXDXDXDXDXDXDXDXDXDXDXDXDXDXDXDXDXDXDXDXDXDXDXDXDXDXDXDXDXDXDXDXDXDXDXDXDXDXDXDXDXDXDXDXDXDXDXDXDXDXDXDXDXDXDXDXDXDXDXDX",
"DXDXDXDXDXDXDXDXDXDXDXDXDXDXDXDXDXDXDXDXDXDXDXDXDXDXDXDXDXDXDXDXDXDXDXDXDXDXDXDXDXDXDXDXDXDXDXDXDXDXDXDXDXDXDXDXDXDXDXDXDXDXDXDX",
"DXDXDXDXDXDXDXDXDXDXDXDXDXDXDXDXDXDXDXDXDXDXDXDXDXDXDXDXDXDXDXDXDXDXDXDXDXDXDXDXDXDXDXDXDXDXDXDXDXDXDXDXDXDXDXDXDXDXDXDXDXDXDXDX",
"DXDXDXDXDXDXDXDXDXDXDXDXDXDXDXDXDXDXDXDXDXDXDXDXDXDXDXDXDXDXDXDXDXDXDXDXDXDXDXDXDXDXDXDXDXDXDXDXDXDXDXDXDXDXDXDXDXDXDXDXDXDXDXDX",
"DXDXDXDXDXDXDXDXDXDXDXDXDXDXDXDXDXDXDXDXDXDXDXDXDXDXDXDXDXDXDXDXDXDXDXDXDXDXDXDXDXDXDXDXDXDXDXDXDXDXDXDXDXDXDXDXDXDXDXDXDXDXDXDX",
"DXDXDXDXDXDXDXDXDXDXDXDXDXDXDXDXDXDXDXDXDXDXDXDXDXDXDXDXDXDXDXDXDXDXDXDXDXDXDXDXDXDXDXDXDXDXDXDXDXDXDXDXDXDXDXDXDXDXDXDXDXDXDXDX",
"DXDXDXDXDXDXDXDXDXDXDXDXDXDXDXDXDXDXDXDXDXDXDXDXDXDXDXDXDXDXDXDXDXDXDXDXDXDXDXDXDXDXDXDXDXDXDXDXDXDXDXDXDXDXDXDXDXDXDXDXDXDXDXDX",
"DXDXDXDXDXDXDXDXDXDXDXDXDXDXDXDXDXDXDXDXDXDXDXDXDXDXDXF.h.m.h.j.k.c.j.I.DXDXDXDXDXDXDXDXDXDXDXDXDXDXDXDXDXDXDXDXDXDXDXDXDXDXDXDX",
"DXDXDXDXDXDXDXDXDXDXDXDXDXDXDXDXDXDXDXDXDXDXDXDXm._ K T v E 4.4.5.a.s.w.`.+XU.DXDXDXDXDXDXDXDXDXDXDXDXDXDXDXDXDXDXDXDXDXDXDXDXDX",
"DXDXDXDXDXDXDXDXDXDXDXDXDXDXDXDXDXDXDXDXDXDX+.T E b E E E E 4.8.8.a.a.w.g.*X[.*X;XDXDXDXDXDXDXDXDXDXDXDXDXDXDXDXDXDXDXDXDXDXDXDX",
"DXDXDXDXDXDXDXDXDXDXDXDXDXDXDXDXDXDXDXDXS.I T b b W v 0.4.9.4.t.d.].y.y.f.}.}.@XXX+XE.DXDXDXDXDXDXDXDXDXDXDXDXDXDXDXDXDXDXDXDXDX",
"DXDXDXDXDXDXDXDXDXDXDXDXDXDXDXDXDXDXDX:.b v b b W T W 9.n 9.4.t.8.`.`.`.`. XOX=X%X=X<X~.DXDXDXDXDXDXDXDXDXDXDXDXDXDXDXDXDXDXDXDX",
"DXDXDXDXDXDXDXDXDXDXDXDXDXDXDXDXDXDX-.P P P ....n v n n n ..~ W 0.a.t.5.7.v.oX+X%X<X:X<X(.DXDXDXDXDXDXDXDXDXDXDXDXDXDXDXDXDXDXDX",
"DXDXDXDXDXDXDXDXDXDXDXDXDXDXDXDXDX_ P R P 9.0...b b b b v v v T 4.a.5.Q { v.z. X:X<X<X<X1X(.DXDXDXDXDXDXDXDXDXDXDXDXDXDXDXDXDXDX",
"DXDXDXDXDXDXDXDXDXDXDXDXDXDXDXDX/ P R R c c | b ..| | b v x x W W ~ Q Y ' l.z.oX,X>X1X1X1X5XrXDXDXDXDXDXDXDXDXDXDXDXDXDXDXDXDXDX",
"DXDXDXDXDXDXDXDXDXDXDXDXDXDXDX^ J R R ..} } ..b ..R b b W T x K E P P K 6.v.C.C.dXkX7X5X1X8X1XDXDXDXDXDXDXDXDXDXDXDXDXDXDXDXDXDX",
"DXDXDXDXDXDXDXDXDXDXDXDXDXDX:.Y `  . ....... ...9.....P E J K K T z I 6.l.B.7.>XaXdX6X4X8X9X2X3XDXDXDXDXDXDXDXDXDXDXDXDXDXDXDXDX",
"DXDXDXDXDXDXDXDXDXDXDXDXDX&.Y ' .._...r.w...r.r.w.9...] b x x K z k l _ _ 6.c.V.R.^.R.Y.>X4X2X,X/.DXDXDXDXDXDXDXDXDXDXDXDXDXDXDX",
"DXDXDXDXDXDXDXDXDXDXDXDXDX) Y ..{.{.{.#X$X{.#X}.#X[.p.p.W T H k k k j U ( V j.c.M.n.V.V.N.C.R.>XY.DXDXDXDXDXDXDXDXDXDXDXDXDXDXDX",
"DXDXDXDXDXDXDXDXDXDXDXDXDX^ { ).XX+X$X-X$X#X#X-X$X{.'._.5.Q J J k h h J ( S ) j.:.*.O.F D F j.;.3.DXDXDXDXDXDXDXDXDXDXDXDXDXDXDX",
"DXDXDXDXDXDXDXDXDXDXDXDXDXC / ).l..X=X*X$X}.*X}.@X`.p.'.5.] J j g + d f < m Z M C , , > : & 7 a DXDXDXDXDXDXDXDXDXDXDXDXDXDXDXDX",
"DXDXDXDXDXDXDXDXDXDXDXDXDXDX9 2 A _ l.*.O.*.-.) _ k.z.).8.5.L B * o * * o - 6 8 0 p DXDXDXDXDXDXDXDXDXDXDXDXDXDXDXDXDXDXDXDXDXDX",
"DXDXDXDXDXDXDXDXDXDXDXDXDXDXDXDXDXDXDXDXDXDXDXDX%.@.X.4 3 3 4 = # X . DXDXDXDXDXDXDXDXDXDXDXDXDXDXDXDXDXDXDXDXDXDXDXDXDXDXDXDXDX",
"DXDXDXDXDXDXDXDXDXDXDXDXDXDXDXDXDXDXDXDXDXDXDXDXDXDXDXr e 5 e 1 $ @   DXDXDXDXDXDXDXDXDXDXDXDXDXDXDXDXDXDXDXDXDXDXDXDXDXDXDXDXDX",
"DXDXDXDXDXDXDXDXDXDXDXDXDXDXDXDXDXDXDXDXDXDXDXDXDXDXDXJ.#.#.X.q 1 $ . DXDXDXDXDXDXDXDXDXDXDXDXDXDXDXDXDXDXDXDXDXDXDXDXDXDXDXDXDX",
"DXDXDXDXDXDXDXDXDXDXDXDXDXDXDXDXDXDXDXDXDXDXDXDXDXDXDXpXsXhXI.h.e % $ s DXDXDXDXDXDXDXDXDXDXDXDXDXDXDXDXDXDXDXDXDXDXDXDXDXDXDXDX",
"DXDXDXDXDXDXDXDXDXDXDXDXDXDXDXDXDXDXDXDXDXDXDXDXDXDXDXgXvXfXCXE.<.= t 0XDXDXDXDXDXDXDXDXDXDXDXDXDXDXDXDXDXDXDXDXDXDXDXDXDXDXDXDX",
"DXDXDXDXDXDXDXDXDXDXDXDXDXDXDXDXDXDXDXDXDXDXDXDXDXDXDXmXhXvXSX>.1.6 H.qXDXDXDXDXDXDXDXDXDXDXDXDXDXDXDXDXDXDXDXDXDXDXDXDXDXDXDXDX",
"DXDXDXDXDXDXDXDXDXDXDXDXDXDXDXDXDXDXDXDXDXDXDXDXDXDXDXZXnXNXSXK.J.i $.1.DXDXDXDXDXDXDXDXDXDXDXDXDXDXDXDXDXDXDXDXDXDXDXDXDXDXDXDX",
"DXDXDXDXDXDXDXDXDXDXDXDXDXDXDXDXDXDXDXDXDXDXDXDXDXDXDXNXzXpXSX1.$.Z.y A.DXDXDXDXDXDXDXDXDXDXDXDXDXDXDXDXDXDXDXDXDXDXDXDXDXDXDXDX",
"DXDXDXDXDXDXDXDXDXDXDXDXDXDXDXDXDXDXDXDXDXDXDXDXDXDXDXtXnXuXrXt t !.$.G.DXDXDXDXDXDXDXDXDXDXDXDXDXDXDXDXDXDXDXDXDXDXDXDXDXDXDXDX",
"DXDXDXDXDXDXDXDXDXDXDXDXDXDXDXDXDXDXDXDXDXDXDXDXDXDXDXxXzXlXMXw %.Q.F.L.DXDXDXDXDXDXDXDXDXDXDXDXDXDXDXDXDXDXDXDXDXDXDXDXDXDXDXDX",
"DXDXDXDXDXDXDXDXDXDXDXDXDXDXDXDXDXDXDXDXDXDXDXDXDXDXDXxXMXuXAXZ.y A.L.A.DXDXDXDXDXDXDXDXDXDXDXDXDXDXDXDXDXDXDXDXDXDXDXDXDXDXDXDX",
"DXDXDXDXDXDXDXDXDXDXDXDXDXDXDXDXDXDXDXDXDXDXDXDXDXDXDXCXiXuXmXL.i ,.i i DXDXDXDXDXDXDXDXDXDXDXDXDXDXDXDXDXDXDXDXDXDXDXDXDXDXDXDX",
"DXDXDXDXDXDXDXDXDXDXDXDXDXDXDXDXDXDXDXDXDXDXDXDXDXDXDXgXbXjXNXeXA.L.i D.DXDXDXDXDXDXDXDXDXDXDXDXDXDXDXDXDXDXDXDXDXDXDXDXDXDXDXDX",
"DXDXDXDXDXDXDXDXDXDXDXDXDXDXDXDXDXDXDXDXDXDXDXDXDXDXyXK.iXuXmXeXZ.y ,.$.DXDXDXDXDXDXDXDXDXDXDXDXDXDXDXDXDXDXDXDXDXDXDXDXDXDXDXDX"
};
