/* XPM */
static char *planks_big_oak[] = {
/* columns rows colors chars-per-pixel */
"64 64 61 1",
"  c #060402",
". c #0C0604",
"X c #0E0806",
"o c #0F0A08",
"O c #110A07",
"+ c #140D09",
"@ c #190F0B",
"# c #17100C",
"$ c #1C120D",
"% c #1D1511",
"& c #22140F",
"* c #27180F",
"= c #241610",
"- c #281710",
"; c #261912",
": c #2C1C14",
"> c #2F1F18",
", c #311F16",
"< c #311F18",
"1 c #2F2016",
"2 c #2F2019",
"3 c #332117",
"4 c #382317",
"5 c #352319",
"6 c #3A261B",
"7 c #3D291D",
"8 c #3E2B21",
"9 c #3F3026",
"0 c #422B1E",
"q c #482E1E",
"w c #4B301F",
"e c #442E21",
"r c #492F21",
"t c #463124",
"y c #4B3324",
"u c #463328",
"i c #4C3629",
"p c #4E392B",
"a c #513726",
"s c #533826",
"d c #513729",
"f c #543A2B",
"g c #5A3E2D",
"h c #563F31",
"j c #5A3F30",
"k c #5D402F",
"l c #564031",
"z c #5C4434",
"x c #5E4837",
"c c #64432E",
"v c #614633",
"b c #634936",
"n c #634D3B",
"m c #694F3C",
"M c #6C513D",
"N c #70543F",
"B c #6C5341",
"V c #715641",
"C c #755B46",
"Z c #765C48",
"A c #795F49",
/* pixels */
"8:8piu8988uuuuhurrryrdyyedd0rkd<8dddrdddujvjhhj=zhhhjupuuuueihhd",
":;28688888tre88er<600006<006ddjrdddr886rreryu68$d68eyruueduihuu8",
";:e28eee88587e<84<-:<6<-6<666068rr7r6<6<6<<6686@u<6<868<65<>6885",
"58e85eee8=;$$<<<7<60qr<67<<<0086r767u666886e66&@rdureir>65-:86er",
";:>-:<::7575<e0<<044<7<<0q006<66-<86866<6e<rut<@u8eee7<-56<<6e86",
"58eerueyiryiyrr0edarrr66gcjrr0errr8yr6udrdure<t@jedr886>dduudri6",
"5eeueee807re<5<466r67re:rdr0reeur888ddddygcgrre+y8u8du8rddd8ru8<",
"+#=%;=$O+@@@+$@@@@@@@@&@-$$$$&@=&&@@$$$@$$&@%@@o&@&&---====@$&@@",
">2;;$++#-88<88i@<5uie5<7e6ee8eeteuueue<8e86<ddiue552552>:<2522>>",
";2;;&$#==-;>>;>#>:>==>:>>::<:<<><<<<<<<<86<<686<222>:>;;-<>=;;>%",
">>;;@$@@+=;->--O;=-@=:>:;<<<65586<88888<<68<<6<<8>2252<>;-:;22>>",
">:><=$#$+-:;<<-O&&:@$><<<<<<<<<<<<<<6<66<668eu8e8<52558686::>;>>",
":=;;%##+%<5<<<-+-+#%-<<<<<<8<4-5<8<8668<6<66<<<<8>:;:>52222:;;:>",
">5555;-$;>::5<-+-<$;<ee<6<ee5<>uurueeyd9r888688<<82:>228<>22>:;;",
">8uuu8>;5ee855:+:t<<rderye6ryu8djjdddvjjjdjjfddiuiue558iuu5822<8",
"%%=;;;%%#%%#%#+o+@+@@$@@$@$@##+$$$$@$$@@&$@$=&$+%%==%$$%%=%=%$$$",
"<8e0<7<<1*:**%$$@#@@==;$=$,:-:-;==:---,,6*1145;+86e<56341::33:33",
"<6eee0rr77::6:%%&$@$=:====-=--<<-=$$$&&-*$$*1%*#>;:=&5:333:&;1:5",
"<8errrra0w4:1:%;**$$@&@=+@@O&<-=:==&&*&,4;%:;%*+<>>;=137qy5133;:",
"<5ededrylly351**3;&*,&<<%-:@=<7<<7e::436ysq8u41o86<<3:6assy50t03",
"657qee0t0ww136::77;:0&:0:==%:57r4>00606;:0008s4#8uee8>:ttt03qt67",
"yqyyeetalyl74711<e;<6-:,:%==:407::74660,5y7awyw#ee8r7738gsfetsys",
"1*;*:;;::;11*;;%@&+O=O+@+OO+@@;=@@$$;$$$*:;*11*o:>;>:=&::3::&;::",
"llnxxlpxnx99l9t#ufp5;>eieiueiuu9eue8pxptupllllluppjzzzzznklxnnnz",
"7706536461;;33:o<2:=%<:==::$;:5:<<333,==*1w7467777w799syyyswsy46",
"1135:;1111;;%;;o::;=%:5>;:<>:<<<,<,<374,144773431*11*15463476541",
"74515314:151:;*O:;:;=::;=$=::<65::-=&&=-*41111144**1145333767569",
"w765784111***%*+::6::55;-=::::<8<344::3679777ww99w74778807667w9w",
";111::11:**;*;*#2:2>28;=:::::><:::27t0e6865118w897q16655555641;*",
"%;1%::;;**%%$#$o;;;:<::::;;:;=;;565533356556471341175111113133;*",
"1;11:51;;;%;$$*o%;:;:<<:5>:=;;=>6786513551115613177741151%155651",
"#+o%##%#%%%%%%%+%#o#%+++%%%%#+###+##$$+###o%#%#o##oo#+o+ooo#oo##",
"277vvzlzvgfgattt9w0wqlw7tiww51343556e033766896w%t88sl0611&;67<:6",
";6tade687e063:,414644w8746445517653337q6778ww84$84467y64:$=:::::",
";3eyq6:36766*-:437wwwwlwlqlwwww76776::555314613#8111yyy7:*;*-:52",
"3;-066<3556636,34747wwwww09wwwyye0q33353:114639#85qtayw3;;::*$5f",
",-;464335556463,6313w9wuww7w77wyllaassi741**147#850yyay63,:=#O,q",
"*=;3667,::13:3-:::465118ul88098l0iltii789ll7419#91607u7675::;,3;",
":=*&*333363345:1**3041559w88l9ww6680yw774777714#w718ay61::3:,:3:",
",:&@@;$=*;;=**$$#+#****%*%***%**:$%*$$$%%#%%*%#o%$#351%*&$&$&=$:",
"lzbeyhnzpu88988#9kkbkvbzMMbMlwllxbxzxMVVNANAAACxi7667lxxMBMnkxMn",
"=@@&5tt63::::::O3644667467q744554647wylslssq7744::340678ypi0tt81",
"3&X&;ey7:;*;;;&+113:3770qqq747wyslskssy77q7447747w77678tt0667e75",
"@$3637yt3;$;=%$O1;44340qq770q7w0qwwwyw8744w77ws80qqqw0wq0:;&+=$$",
"1tiytt0474*#@@#+**47q0qq0q0qtwqtqwww97778417w7wwwwlq08661;:=$&&;",
":1455:3:1:;$*&$O**1443447006q00q77774747741747q77q00083551:;;::;",
":;;&:*&&%&;1&*1O11*3444443364333476746177744qw744444675::;:::::&",
"#$$$;;;:*;&;&&$X$$&*11146333457356467676*1114744111:;;1=:$&=&*$#",
"+O#O+++O+OOOO...O+@O@@++@+O@@+++#$%==#+##$$##$$+#######+####@##@",
"*:3:&*$++@@#&&$;--@$@OOO$OO=:77=;15761*::3;:35:+1*;;;%*;;;3;;-;*",
"$&*1,*;*:*:,**3:&$@&@OO$%@@=77::t7&3%5;15573787$63;:34464:333::&",
",566763::343,,,*&&&&@O+<==$-36530615357077e0633+76616763:7676;::",
"4455664;3333,,,-:,:-@@@<::<:64:6t66qsy1:74tt576+51;3663*=,:66343",
"67777456643:,:3*:<-&@@&<--544,,7046661::6676366$86660876:6357073",
"766651555331346,$$+@@&<6ee6:===6t566767t87q7e86@y887wt7156557606",
"$=;;:**=,;&&**$Oooo+@@&=-;=@$@&:&%=;;;:;$===@==O**:*;*%$$;=;;;:*",
"ffffteee768e7e6O<<8688uuerdgd658tt:%;:85-7eydh58eiiihjzfggddpfdf",
"::<-----=:&:::,O>==&--&><:><>:<<:5,;536:-<<<45=-7e<:,344::,;;,::",
"<:<:---&$-:<:,:O;%$&&>=>>:>>>:>:215:<67<<7067e=@454<,:--:-:---,4",
"7<<<-:::-55<75<+-&&===--::->::::5555:3e770,,<4O+5<::::,,::353,:6",
"::-------,<<<:-O&&$&==&=-:----::-:::<<<3<<,$@$+$;@$=----:---;;;,",
"--:--$&&&,,:-=$X@&-&-&&&::<:-::-:-<5454706-@.O..X+@$,<<,:=--;-&-",
"-&$&-@&&----&-$.$-&-=-&=---<:<:<>-,-=::<:-@O.@.O--$---&$=-----*-",
"OOOO.....OOO....OOoooo.oo+++OO+O+O+@@=@@. ..O@X@@@@+@+@@$O+O++O@"
};
