/* XPM */
static char *planks_oak[] = {
/* columns rows colors chars-per-pixel */
"64 64 173 2",
"   c #22170D",
".  c #251B0F",
"X  c #2B1D0F",
"o  c #2E1E11",
"O  c #332516",
"+  c #3B2715",
"@  c #3C2A17",
"#  c #362718",
"$  c #392718",
"%  c #36291A",
"&  c #3B2C1B",
"*  c #3F301E",
"=  c #3F3222",
"-  c #412B17",
";  c #422D1A",
":  c #44321D",
">  c #4A331D",
",  c #4E381F",
"<  c #51381F",
"1  c #433522",
"2  c #493721",
"3  c #473825",
"4  c #4B3A24",
"5  c #453929",
"6  c #4B3D2A",
"7  c #533D23",
"8  c #583D23",
"9  c #4E412D",
"0  c #554125",
"q  c #5B4326",
"w  c #53432C",
"e  c #5C4629",
"r  c #57482F",
"t  c #5E492C",
"y  c #4E4331",
"u  c #534632",
"i  c #5D4730",
"p  c #564935",
"a  c #5A4932",
"s  c #564B38",
"d  c #5C4F3B",
"f  c #614526",
"g  c #644A26",
"h  c #61462A",
"j  c #634C2D",
"k  c #6A4D2D",
"l  c #66512E",
"z  c #6B512E",
"x  c #6F582F",
"c  c #73512F",
"v  c #654E31",
"b  c #6A4F31",
"n  c #655031",
"m  c #6C5433",
"M  c #6E5936",
"N  c #6F5738",
"B  c #6E5A3F",
"V  c #725534",
"C  c #785635",
"Z  c #745A35",
"A  c #7A5C36",
"S  c #735638",
"D  c #755B3A",
"F  c #7A5D3A",
"G  c #7D6137",
"H  c #76603B",
"J  c #7D623C",
"K  c #7F683F",
"L  c #705E42",
"P  c #785F42",
"I  c #776144",
"U  c #7D6441",
"Y  c #7B6748",
"T  c #7C6A4B",
"R  c #805F37",
"E  c #805F3A",
"W  c #826337",
"Q  c #82653C",
"!  c #88673F",
"~  c #84693E",
"^  c #8B6C3E",
"/  c #8E713E",
"(  c #90723D",
")  c #826641",
"_  c #886741",
"`  c #856B42",
"'  c #8A6D43",
"]  c #856C4A",
"[  c #8A6F49",
"{  c #906F40",
"}  c #877044",
"|  c #8C7245",
" . c #8D724A",
".. c #927445",
"X. c #957945",
"o. c #9A7C46",
"O. c #92754A",
"+. c #987748",
"@. c #957A4B",
"#. c #9A7D4C",
"$. c #867554",
"%. c #8D7652",
"&. c #8D7A59",
"*. c #927751",
"=. c #957B52",
"-. c #9A7E52",
";. c #947E59",
":. c #997F5A",
">. c #9D8047",
",. c #9D824D",
"<. c #968056",
"1. c #9D8253",
"2. c #9F8857",
"3. c #95815B",
"4. c #9C845A",
"5. c #9F8858",
"6. c #A28246",
"7. c #A1854D",
"8. c #A5894E",
"9. c #A98C4F",
"0. c #A28553",
"q. c #A48A54",
"w. c #A98C54",
"e. c #A18659",
"r. c #A48B5B",
"t. c #A98E5B",
"y. c #AC9155",
"u. c #A7915E",
"i. c #AC925B",
"p. c #B19555",
"a. c #B1955C",
"s. c #B3995D",
"d. c #978560",
"f. c #9B8662",
"g. c #9D8B63",
"h. c #A18660",
"j. c #A48B62",
"k. c #A98F61",
"l. c #A68F69",
"z. c #A79161",
"x. c #AD9362",
"c. c #AE9863",
"v. c #A5946C",
"b. c #AC956A",
"n. c #A7986E",
"m. c #B19662",
"M. c #B49B63",
"N. c #B89F64",
"B. c #B19769",
"V. c #B49B6B",
"C. c #B99E6A",
"Z. c #A69771",
"A. c #A89770",
"S. c #AA9A73",
"D. c #B39D72",
"F. c #B99F70",
"G. c #B7A065",
"H. c #BBA265",
"J. c #B6A06C",
"K. c #BBA36C",
"L. c #B7A374",
"P. c #BAA472",
"I. c #BEA975",
"U. c #B9A57A",
"Y. c #BDA97B",
"T. c #C1A66B",
"R. c #C7AF72",
"E. c #C2AD7B",
"W. c #BFAD83",
"Q. c #C2AF82",
"!. c #C3B283",
"~. c #C5B589",
"^. c #C8B88A",
/* pixels */
"4.I 4.v.v.l.%.d.;.f.v.l.b.A.D.l.x.0.t.m.a.N.m.m.:.C.C.-.e.I.C.[ -.C.B.B.:.C.B.B.k.U.T.F.D.D.F.i D.D.V.F.F.l.A.j.l.l.j.f.B.F.D.l.",
"I I *.=.-.4.4.4.=.4.k.x.t.1.0.r.t.+.#.-.w.-.-.-.+.-.t.-.C.T.C.m.m.F.m.m.-.-.+.m.t.r.k.m.k.*.e.e B.:.e.k.M.t.m.k.t.B.x.B.F.b.j.:.",
"F ] r. .=.z.t.t.t.1.-.-.e.0.O.0.-._ C _ +.+.{ _ +._ #.#.+.w.7.-.t.p.-.p.:._ -.{ -.O.+.-.#.0.-.8 k.[ -.O.#.-.-.@.-.O.[ [ -.e.1.*.",
"@.-.k.-. .t.t.q.#.I Q n m _ O.+.7.+.-.-.w.w.O.+.-.+.+.+.-.w.0.-.-.-.-.w.k.+.-.-.-.-.-.0.-.-.b 7 m.m.k.r.t.B.k.' =.O.P ) -.@.r.m.",
"P ' [ Q U O.) ' #.@.#.-.@.0.0.+.o.7.#.#.#.-.#.{ -.p.0.-.-.+.+.-.E { w.#.-.+.-.+.#.t.O.r.t.r.*.7 k.e.r.r.t.0.@.I O.@. .' -.t.r.@.",
" .4.t.r.t.x.i.i.m.m.m.M.a.r.t.q.0.N.m.p.w.r.+.-.T.R.T.m.t.0.r.m.t.t.w.m.m.-.m.m.c.M.r.m.t.*.t.8 P.t.B.a.0.e. . .V.V.x.m.B.t.m.*.",
"@.r.t.t.t.i.t.e.0.0.i.0.' #.#.+.+.-.t.-.-.w.0.{ m.m.t.:.m.t.t.k.m.-.:.:.m.F.C.m.x.K.R.K.t.t.r.2 B.0.k.r.m.B.0.t.C.M.B.r.x.m.e. .",
"3 w w w u w 2 & 1 3 6 4 & 4 4 4 3 4 2 > 7 2 6 1 q 8 8 6 7 6 2 8 6 8 4 ; 6 6 6 > 4 0 w 4 w 4 3 . 6 3 w w i u i w r r w 2 4 w 3 1 ",
") ] P D h 6 6 i D ] %.O.%.%.f.h.3 :.:.h.:.[ ] *.:.*.:.:.*.:.:.h.h.h.h.h.j.h.%.*.:.:.-.-.k.B.x.h.4.*.%.%.*.%.%. .U  .[ %.] ] I ] ",
"P ] P F S v h m S U F ` _ I ) ' 2 _ _ E E _ _ [ _ _ { _ [ { O.] *.O.*.+.' { +.*.-.0.+.{ -.e.-.O. .] ] ) U ) I J P O.[ F S U U H ",
"_ ' P U h i e e 7 N F J ^ F J F 2 S ) 8 S ] _ E _ [ O.[ *.-.*.+.-.*.-.e.t.:.e.+.{ -.-._ O.-.+.[ -.O.[ ' O.O. .] U U ' I  . .' ] ",
"] ) ] *.S v t v e U _ J ' ' ! ! 2 S ) 6 m _ +.O.{ +.' O.{ +.O. .] *._ O.*.{ -.*.=.-.-.:.r.t.e.r.=.O.*. .%.O.-.@.=.=.U U ) ) ' O.",
") D P I N v w 7 v  .@. .@. .' Q 2 e h v E +.*.{ [ [ O.-.' O.P #.O.-.[ -.-.-.-.+.+.O.#.#.O.+.{ =.-.' ) I Y  .=. .] O.%.U I U ) [ ",
"[ -.=.@.=.) D v J ] | [ #.' ) U 7 +.j S +.-.-.+.-.{ -.t.O.O.) k.m.e.k.e.t.m.C.t.t.-.0.-.=.0.-. .-.1. .' )  . .0.O. .] O.] ) U D ",
"] 1.t.m.t.1.' I O.t.t.-.=. . .J 2 k.] [ k.m.t.x.m.t.-.m.k.m.-.V.F.E.F.V.C.Q.P.U.T.V.F.U.C.F.V.b.t.b.z.r.=.=.1.B.t.x.=.=. . .@.=.",
"n u s s d s y y y y y y 9 6 1 1 $ 3 1 1 3 7 3 4 6 6 6 7 6 6 6 6 6 6 7 6 6 8 6 5 u 6 6 u s p 6 % s s s s u u u s a p y p p w u y ",
"@.,.8.w.#.7.+.@.| G J G D Z v j q h t v b F F b S m ' F F ) ! F D P F Q F F / ! @.Q | ` >. .K , =.@.q.+.X.@.| >.| ^ ~  ...^ / | ",
" .-.q.y.q.q.t.w.1.2.` ) @.J N M S j h k N ) D V V V ) D E E ' ' F D b n b V c Q Q m m J K H M ,  .U ) G M ,.K | ..| ` M K ` ~ X.",
"| @.i.i.i.i.i.s.i.c.,.U | Y M J F F j m h b b b 7 v t 7 m ' E F Q D F n n F m ( | G n J G D H 4  .} } Y H }  .2.y.s.O.} |  .K } ",
"| @.u.N.w.M.c.M.G.G.c.| O.} D G | Q m C _ V ..O.b F J t D +.#.O.[ #.q.` _ #.| +.i.N.q.r.i.@./ 2 4.@.| | | ~ ,.s.N.N.i.@.q.i.q.} ",
"@.,.,.y.w.q.q.x.u.s.a.| | @.K K ,.,.F Q 7.S _ 7.J V Q M ) +.,.i.#.` 0.9.+.q.#.Q ~ q.w.0.q.s.,.4 4.i.w.2.2.} ~ i.i.y.q.| y.y.>.,.",
"s.y.a.a.q.t.u.M.G.c.c.u.,.2.|  .O.w.J ' #.Q _ ] Q m S S Q +.w.0.! Q -.o.,.#.9.[ @.a.0.s.i.n.2.3 r.u.1.a.,.2.O.w.K.G.H.u.u.G.M.G.",
"x M l x M M M H M M H Y t M n l 7 g @ ; g : : 7 : & * : 4 4 n j q 3 e j n w e 0 n M b v M H l O M M M H H n t M H H M M t M M M ",
"g.v.Z.Z.n.g.3.n.n.v.3.T v.3.T B 3 v.v.Y L Y ;.f.3.g.4.;.f.g.f.&.&.4.=.%.g.Z.5.4.3.g.v.v.n.v.g.d.g.g.Z.n.S.n.n.n.S.n.v.n.S.S.Z.v.",
"2.q.q.,.>.>.<.>.,.,.K K .. .K x 2 | ' S N ' Q D N ` ` b F '  .' | +.X.X.X.| A G H | y.q.,.>.,.,.,.2.u.y.q.y.c.u.s.s.G.s.s.c.>.<.",
"| / } >.K H K K K K H K H H J H 7 ) H D N U #.' U U ..` ~ O. . .| | | | | >.+.| / >.>.,.,.} <.>.>.K K K K ~ <.>.,.X.>.,.7.>.>./ ",
",.>.<.K >.| K <.} / X.K G J W x 2 J  .S S ' [ F C m F ` Q ' #.@.^ W J A x Z G G ~ X./ / K / X.>.>.K K / / >.>.>...| ,.>.8.>.>.2.",
"u.2.,.,.2.q.>.| } K G K J Z G M 2 [ #.` ` @...U U D U ) ` ' ' 1.O.X.@.@.^ ~ | X.8.q.q.q.y.s.y.q.u.2.2.,.,.2.q.q.q.8.2.,.2.u.y.u.",
"K } >.>.H H / / / H x K G G J A 4 `  .`  .#.D S U ) [ ' ' '  .' ` ' | 1.u.q.u.,.2.,.<.U >.<.u.2.y.2.u.>.,.,.| ,.>.,.<.>.>.K K H ",
"x H K K / K G H G G l G l l l e 2 Q J ) O.| D ' ] U U ) F N F Q | #.@.@.X.| | >.,.| X.,.} <.>.>.>.K } ,.>.} K } K K / K >.} K H ",
"/ H K K T | } H K K x H l l x x & J Q J ' O.' ' O. .) U P P D ` =.0.5.-.@.}  .,.,. .} } <.>. . .>.<.,.,.>.Y } | T K <.>.>.,.>.T ",
"9 1 * 9 5 9 9 9 9 5 u 9 9 9 5 9 1 1 1 3 6 6 4 6 w a u 6 6 3 6 6 w 3 6 6 6 9 5 5 9 = 9 y 5 9 5 O = 9 1 5 9 , 9 9 * * % 1 1 4 9 3 ",
"] =.4.I.Y.U.L.P.I.L.J.K.m.e.r.i.r.t.w.a.w.H.a.2.i.c.t.w. .` } 2.@.| @.@.t.0.O.@.1.1.=.1.r.1.c.9 e.5.0.V.K.r.#. .) D F -.-.| ] @.",
"G #.t.s.V.q.@.1.-.t.q.#.@.` | +.| #.+.o.7.y.8.q.@.,.@.,.>.X.| ,.7.O.X.....7.q.,.1.q.r.i.i.q.1.7 1.@.@.,.q.a.7.O.J V Z ..~ ` ' ' ",
") ..w.a.9.8.`  .,.1.0.+.A ~ ! +...q.p.p.p.s.H.H.N.a.H.G.i.a.9.q.#.7.7.#.^ / O.#.#...| @.@.| ..7 0.` ` ..i.a.i.q.Q D J Z Q ~  .| ",
"| G ~ q.#.#.| @.#.#.#.>.X.+...( +.7.6.6.p.9.p.y.p.y.y.p.y.p.s.s.w.q.w.o.| | @.| } ` } @.,.@.t.4 e.@.i.y.M.M.a...Q G ! Q V k O.G.",
"| G Q @.7.o... .| @.#.o.+.o.X./ o.../ ..u.y.i.c.s.s.2.i.q.2.u.J.K.K.G.G.N.G.c.1.1.| K K } ,.2., 4.@.w.s.s.M.s.#.| | ~ Z e > ~ y.",
"Z G G ..#.>.,...| ` | | / ..W ^ ^ ~ @.,.,.^ } ,.x.J.2.2.u.u.2.G.z.J.n.z.M.c.2.r.u.c.c.u.,.} 2.9 e.| @.u.1.i.2.,.7...^ ~ Q ' | J ",
"Q G Z V G +.| +.| #...| X.o.^ / G G @.t.,.} X.,.2.z.2.q.G.z.u.c.2.,.2.w.c.u.1.2.,.<.2.2.2.O.>.* z.1.` 2.M.c.@.| Q | | | ' | | | ",
"H Z q q < l e l l z m l t l t e , : 0 t l t r t l t l l l l l l l 0 g l 0 0 0 e t 0 0 t t 0 9 O r 0 0 H H M n l t q t e t j h M ",
"D.J.U.e.z.L.U.U.n.5.3.3.4.3.3.%.3 J.J.K.J.L.P.J.Y.Y.I.Y.G.c.c.n.I.L.L.K.I.Y.Y.^.Y.^.Y.^.^.W.^.S.g.<. . .<.V.L.L.Y.!.Y.Y.L.L.W.U.",
"N t q k | i.i.@.| ` Y ~ Y ` Q m * ,.o.o.>.>.,.,.>.8.y.8.X.>./ >.,.,.,.,.i.c.K.H.I.H.s.s.q.,.,.>.~ / / o.y.,.2.u.c.M.M.r.u.i.5.` ",
"| k # k J u.m.1.~ J Z G W G D M : / ( / ( 7.8.8.p.y.y.9.,.2.s.s.G.K.G.K.G.G.y.2.y.9.q.>.>.>.,.>.7.a.8.7.,.,.2.a.i.q.@.,.1.t.1.O.",
"q j | o.| 2.c.i. .J z A G m x m : ~ o.>.>.>.9.y.y.>.8.9.8.9.y.9.y.y.p.G.s.y.y.9.X.>.p.8.8.s.s.y.9.y.p.y.y.8.a.y.q.[ G m e Z l n ",
"| u.M.i.u.i.s.s.7.@.J j q q g z : G >.7.9.8.9.9.8.y.9.y.a.p.y.i.y.s.s.s.u.>.<.7.9.>./ 9.y.8.s.p.p.s.s.a.y.2.O.<.` K K D l Z Z G ",
"~ | O.@.+.,.<.} ~ ~ A m H Z M l 4 x ^ o.>.>.>.>.9.9.8.>.y.8.8.y.9.8.,.>.,.,.>.,.,.>./ ,.>.8.p.>.8.y.y.y.8.q.>.| @.} K G H Q Q J ",
"Z z l m H A Z Z V g x A A Z | M : / G X.>.X.>.>.X.X.X.>.X.X.>.X.,.>.,.,.>.<.>.,.,.8./ ,.q.9.,.>.>.,.>. .>.1.@.K ` K Q [ K | ~ Z ",
"q q q q q e q q q < q g q 7 e g % x x H ^ / | X.X.X. .X. .>.,.| } <.>.<.,.,.<.>.K K | } ,.,.<.| K ~ ~ ~ K H ` D G n M V x V x h ",
"2 w 9 9 w a y 1 = = : 1 3 2 : 1 : 1 = & * = * & 3 # # 1 4 1 2 = 1 5 9 r r r 9 9 p u 9 6 a p r O y w r r a u r 4 u a a w 9 w 9 5 ",
"H J ..~ Z Z l 4 q e q t V m m W W Z j j j 4 : 2 m 7 4 m ~ 1.1.M J } | 2.@.~ H Y ) | J ` O.|  .2 Y H H K J m Z H J J [ D J J K Z ",
"k Z F ` ' J J A Q W ~ ^ A G / ~ Z g e z q 4 2 m n j l Z ,.,.' J u.q.D } M  .J Q @.@.2.| ,.2.,.0 @.X.G J ..X.#.o.@.' | X.+.) ~ Z ",
"' @.,.>.>.>.X.W ~ | o.+./ ( ( A A A z Z e < , ' D Z n G @.#.@.@.q.,.` @.O.@.q.q.q.,.y.q.@.@.@.4 1.,.+.X.+.q.,.| ` ,.>.0.@.G ^ ~ ",
"o.X.+.X.o.,.X.W ( X.X.....^ / ~ W ^ ^ A e 8 8 X.~ ` | ~ #.+.~ >.i.,.,.y.H.i.| K 1.@.y.i.@.1.,.> @. .J ..@.,.| G A ' ^ #.,.X.@.X.",
",.q.q.q.q.@.@.,.X.+.( / / ' ..Q ^ ..W V 8 h b O.Q F #.+.@.^ | 1.q...#.1.1.` | Q ,.#.7.1.| 1.1.0 5.@.@.#.q.r.q.,.' #.| @.,.w.,.X.",
"1.=.1.@.@.| @.#.,.@.| | ..X.#.~ k z q q j V O.#.q.q.#.[ Z A G @.t.@.@.1.e.,.0.t.q.e.u.q.e.q.1.4 i.t.q.q.u.x.1. .| ,.@.@.0.#.q.@.",
"t e j l j j t j n k e e e t 0 @ & + # ; ; 7 8 h j j e 7 4 7 0 l w q t t t t n t 4 t t q 0 q w # i t k w j t t 0 7 j t t n n n j ",
"C.m.B.m.r.-.*.-. .=.=.4.=.-.#. .1 *.-.*.:.:.h.j.e.j.B.V.B.*.=.4.t.r.) i U U =.O.) -.r.j.B.B.O.1.r.x.j.k.V.V.F.B.V.V.B.x.x.B.B.B.",
"' ! ' E E W E A A Q C Q ! ! _ E ; C C C E E F _ ' _ { #._ ' { [ ' O.{ C ..#.#.[ A +...+.+.,.Z A 1.0...! ..+.#.X.! ..^ W W { ! Q ",
"{ ! { ! F E E A k C ! _ Q _ ! Q 1 b b S S E E ) _ ] ] ' [ { ' _  .[ O.[ ' #.7.{ +.#.-.-.#.0.C h #.#.#.[ ` _ Q F Q Q Q R Q Q ^ +.",
"#.+.O.' E _ _ _ ! @.@.O.-.+.O._ > b S S C P P ) ) ) ) ) _ ) _ _  .*.O.O.' -.e.0.0.0.+.' ..O.4 q O.' ` ) ) ' ` _ ' ' [ [ [ { ' #.",
"_ ! E F C F ) F ) { { +.{ _ E C : S S S S C S P E ) P E E E P ) ) Q ) _ ' [ O.@.#.+.' b f k 7 h D v v V F _ Q Q Q Q Q E E Q F ' ",
"F F ! A C b V C F _ _ ! _ C b C 1 c C C C S S C _ _ _ _ P _ _ F Q F [ #.+.+.O.=.-.#.F 7 o - + + ; 7 8 b ! +...' _ C F R F F V A ",
"W C c C c j c c C C C R R c C k 1 C C C C E C C E E _ _ _ ' _ _ _ Q ! F R ! ! ^ Q C f > + f + 7 F F c C R A V b C A W W R R A ! ",
"> > ; ; - @ @ - - > > - - - + - O > > > > $ $ $ ; > 7 8 ; 7 7 2 8 7 7 h b b k 8 -   o @ > h ; 8 h h h 8 f 8 q 8 g 7 < < < < < < "
};
