/* XPM */
static char *planks_acacia[] = {
/* columns rows colors chars-per-pixel */
"64 64 235 2",
"   c #350E09",
".  c #3B170D",
"X  c #3C190E",
"o  c #42140B",
"O  c #451A0F",
"+  c #4A1B0F",
"@  c #541A0D",
"#  c #5A1D0E",
"$  c #441D13",
"%  c #4B1D11",
"&  c #551D11",
"*  c #5C1D10",
"=  c #472216",
"-  c #4B2316",
";  c #462419",
":  c #4D2619",
">  c #4D281C",
",  c #532314",
"<  c #5D2314",
"1  c #5D2C16",
"2  c #522719",
"3  c #532A1C",
"4  c #5B2C1B",
"5  c #5D311D",
"6  c #632314",
"7  c #692714",
"8  c #6B2B16",
"9  c #642618",
"0  c #632E1B",
"q  c #6B2D1B",
"w  c #722B17",
"e  c #722E1A",
"r  c #65321D",
"t  c #6B341D",
"y  c #6E381F",
"u  c #73341D",
"i  c #7A361D",
"p  c #74391E",
"a  c #79381F",
"s  c #4B2C21",
"d  c #542E22",
"f  c #5A2E21",
"g  c #563225",
"h  c #5B3224",
"j  c #5D3629",
"k  c #5E392B",
"l  c #602F20",
"z  c #643523",
"x  c #6B3522",
"c  c #663826",
"v  c #6C3A24",
"b  c #613628",
"n  c #643B2C",
"m  c #6D3D2B",
"M  c #743622",
"N  c #7B3621",
"B  c #733B24",
"V  c #7B3C24",
"C  c #733E2A",
"Z  c #793E29",
"A  c #653E31",
"S  c #693E31",
"D  c #774025",
"F  c #7D4126",
"G  c #74422B",
"H  c #7D432B",
"J  c #674336",
"K  c #6A4234",
"L  c #764531",
"P  c #7C4530",
"I  c #7C4F3C",
"U  c #81341F",
"Y  c #833D24",
"T  c #8C3C23",
"R  c #843F28",
"E  c #8C3F28",
"W  c #834226",
"Q  c #8B4126",
"!  c #874827",
"~  c #84452B",
"^  c #8C452B",
"/  c #85492C",
"(  c #8B4B2D",
")  c #944327",
"_  c #914A25",
"`  c #914629",
"'  c #934B2D",
"]  c #994E2E",
"[  c #8D502E",
"{  c #94512E",
"}  c #9B532E",
"|  c #844630",
" . c #884730",
".. c #854B31",
"X. c #8C4D32",
"o. c #854C39",
"O. c #8A4F39",
"+. c #924D32",
"@. c #994F32",
"#. c #865036",
"$. c #8D5233",
"%. c #8D533A",
"&. c #8F583B",
"*. c #935334",
"=. c #9B5434",
"-. c #945935",
";. c #9C5A35",
":. c #93553A",
">. c #9C5639",
",. c #955A3B",
"<. c #9C5C3B",
"1. c #A45A2F",
"2. c #A15534",
"3. c #A35C35",
"4. c #A95D34",
"5. c #A05739",
"6. c #A35D3B",
"7. c #AA5F3D",
"8. c #9E6037",
"9. c #97603C",
"0. c #9D613D",
"q. c #A66036",
"w. c #AB6336",
"e. c #A4623C",
"r. c #AB643C",
"t. c #A6683D",
"y. c #AD683E",
"u. c #B26636",
"i. c #B86635",
"p. c #BC6937",
"a. c #B1653C",
"s. c #B46A3C",
"d. c #BB6E3D",
"f. c #BE703F",
"g. c #C16F3D",
"h. c #8B5540",
"j. c #8D5A43",
"k. c #925740",
"l. c #965B43",
"z. c #9B5D41",
"x. c #A35E41",
"c. c #AA5F40",
"v. c #9D6143",
"b. c #95674D",
"n. c #9D644A",
"m. c #9D6A4F",
"M. c #986B51",
"N. c #A46343",
"B. c #AB6543",
"V. c #A66943",
"C. c #AC6A44",
"Z. c #A4654A",
"A. c #AB6749",
"S. c #A46A4D",
"D. c #AC6B4B",
"F. c #B26643",
"G. c #B36B44",
"H. c #BA6D43",
"J. c #B36D4B",
"K. c #BA6E4A",
"L. c #AE704B",
"P. c #B67145",
"I. c #BC7144",
"U. c #B5724C",
"Y. c #BC744C",
"T. c #BE784E",
"R. c #A46E52",
"E. c #AB6D52",
"W. c #B26F52",
"Q. c #A37257",
"!. c #AC7254",
"~. c #A7745A",
"^. c #AB7459",
"/. c #AE7C5E",
"(. c #B57353",
"). c #BD7552",
"_. c #B77957",
"`. c #BD7A55",
"'. c #B27659",
"]. c #B47B5D",
"[. c #BC7A59",
"{. c #B57C61",
"}. c #BA7E63",
"|. c #C26E43",
" X c #C37444",
".X c #C97544",
"XX c #CC7844",
"oX c #C2754B",
"OX c #C4794D",
"+X c #CB7B4C",
"@X c #D07C4B",
"#X c #C27652",
"$X c #C87753",
"%X c #C47B54",
"&X c #CA7D53",
"*X c #C47C5A",
"=X c #CA7E5B",
"-X c #D07F56",
";X c #B58263",
":X c #B88364",
">X c #BB8967",
",X c #BB8668",
"<X c #B7886A",
"1X c #BA8A69",
"2X c #C78055",
"3X c #CC8156",
"4X c #C6825D",
"5X c #CB825B",
"6X c #D28256",
"7X c #D3845B",
"8X c #DB865B",
"9X c #D4885D",
"0X c #C58462",
"qX c #CB8462",
"wX c #C58966",
"eX c #CE8B63",
"rX c #C48669",
"tX c #C98769",
"yX c #C38A6A",
"uX c #CC8C6A",
"iX c #D18462",
"pX c #D28A65",
"aX c #D88862",
"sX c #D48A6A",
"dX c #CE926F",
"fX c #D39066",
"gX c #D3926C",
"hX c #D8966D",
"jX c #C89372",
"kX c #D09571",
"lX c #D49974",
"zX c #D99B74",
"xX c #D59F7C",
"cX c #E18E64",
"vX c #DAA17B",
/* pixels */
"!.h.~.}.{.{.Z.~.R.^.}.{.}.}.tX{.$XK.oX$X$X$X$X$XW.$X=XW.(.sX=Xx.A.=X=X=XW.*X*X*X[.pXtXsX*XqXqXm tXqX}.tXtX}.}.'.{.}.{.~.}.tX}.}.",
"%.%.Z.Z.D.E.'.E.E.E.[.[.(.W.J.K.).c.F.H.|.K.K.B.x.K.#XE.iX=X=X$X$XsX=X#XW.W.x.).).).#X*X#XZ.K.v *XE.W.$X*X[.$X[.(.*X*X*XiX*X[.W.",
"%.l.).z.D.[.).).).E.J.D.J.K.N.K.F.>.| >.c.c.6.@.c.=.c.F.c.|.H.F.$X|.K.K.A.z.W.x.A.N.B.F.A.).B.x [.z.A.A.F.F.F.N.A.x.z.z.A.W.A.x.",
"Z.D.#XE.z.).#XI.B.+.+.P | >.x.B.F.c.F.H.K.#X6.F.H.c.c.7.H.K.K.F.K.K.A.K.#Xc.A.c.J.A.A.J.F.A.P 0 [.$X#X).).*X#X<.A.c.h.l.W.Z.).=X",
"O.<.<.:.:.N.:.<.F.C.F.A.B.U.K.7.F.H.a.a.c.K.F.5.F.|.K.J.F.7.B.B.+.2.K.B.K.A.F.x.A.).x.Y.#X).N.l [.W.(.K.#XJ.B.%.N.B.z.z.J.).K.B.",
"N.W.).(.).*X#X%X%X%X*X=X#XY.#XK.F.-X$X$X|.|.c.F.8XcXaX$X#XJ.).$X).#XK.&X$XA.*X=X$X=X).%X#XN.).z pX).qX#XW.W.Z.v.qX=X*X*X=X(.=XZ.",
"Z.(.#X#X#X).).U.K.J.#XI.<.y.C.r.B.F.#XF.J.K.K.>.$X=X).J.#X).#X#X&XJ.W.J.*X=X=X*X$XiXcX7X#X#X(.0 *XJ.#X).*X=XW.).=X=X=XW.*X*XJ.z.",
"z m C m L C c 3 z z c x 4 c z c c c z z x l C b H C m v m m h C S m c f S m m c m m m z C c c . S c C S L L L G L L L z c m c z ",
"k.l.O.O.C b l C o.l.N.x.S.n.^.'.2 A.W.(.A.x.k.x.E.Z.E.A.Z.S.E.'.W.'.'.(.(.'.x.Z.W.E.A.Z.`.*X[.'.E.n.n.m.Z.m.n.l.k.n.l.S.l.l.%.l.",
"O.l.:.o.| Z Z ~ ..*.X.>.:.:.>.( d @.>. .+.>.>.5.5.@.>.>.5.x.x.>.x.x.x.c.k.c.x.A.J.J.x.<.A.K.D.N.v.z.z.:.:.-.%.%.O.N.<.O.o.:.:.o.",
">.l.:.:.Z C M C x | *.*.2.X.X.*.2 | +.x o.>.z.+.:.x.c.x.A.A.A.Z.E.S.E.W.W.W.K.c.z.F.F.l.c.A.N.x.A.N.z.z.Z.N.Z.<.%.%.,.%.z.v.l.<.",
"z.,.z.x.X.Z C Z M *.>.X.3.;.=.+.d R >.x R k.c.c.5.c.>.c.6.c.x.x.z.x.z.x.A.x.Z.c.B.B.J.J.).).W.(.D.Z.Z.z.Z.Z.D.N.A.A.,.,.l.:.z.N.",
",.o.%.:...C B v G v.N.N.B.0.:.X.: >.M Z O.c.c.c.z.5.c.F.>.x.+.c.x.A.x.A.A.W.W.x.c.6.B.A.7.r.z.B.A.z.,.%.&.v.S.N.z.Z.n.:.%.%.,.l.",
"l.A.A.N.B.l.O.H %.v.z.z.A.z.,./ : c.Z o.c.F.F.x.A.6.F.#XZ.x.l.#X#X).#X'.W.$X=X).#XJ.J.F.B.K.J.x.A.J.v.,.k.v.v.J.N.z.v.v.l.,.%.$.",
"v.D.).&X`.J.z.%.N.).).D.V.N.,.~ 3 #X>.c.#X$X#X$X$X).K.).#X*XD.=XiXsX=X=X=XsXsXsXpX*XqXsX0XqXqX[.].*X`.(.S.S.J.*X).`.D.S.Z.z.N.D.",
"S S K K K J n k k n n n b j d > d g s d f b f h j h b h j k j k j n k j n S b d n k k A K A j ; K J K K n S S S K S n S S n n n ",
"r.F. XI.C.H.B.B.<.$.*.X.( ( F B u Z B Z | +.X.Z  .| >.*.+.:.>.....o.%.$.+.+.1.2.r.*.6.;.B.e.>.4 D.B.Y.r.t.r.<.y.;.5.-.q.e.;.3.q.",
"N.C.I.oXH.I.oXY.J.U.<.-.V.:.../  .V V V R >. .| R ^ :. .+.+.5.5.+.X.~ ~ Z ^ W *.+.~ ~ *.*.( ( 4 z.:.;.$.[ y.=.e.q.e.;...:.,.-.r.",
"0.A.OX%XOXOX#X&XOX2XL.,.<.-...%.X.+.V ~ V ~ R R x Z M x ~ 2.+. .=...X.P ~ X.H 2.7.{ ~ $.$.$.$.4 n.,.<.-.#.0.e.P.Y.2XB.0.0.e.-.0.",
"e.t.Y.3X).3X*X2X5X3X%Xe.V.<.X.$.6.+.~ ^ =.~ 7.c.R +.+.Z o.a.a.7.6.s.|.;.:.F.7.B.%X&XY.U.%XN.<.4 !.V.0.v.e.,.C.3X6X3X%Xt.Y.OXY.8.",
"y.t.P. XY.T.U.%XT.%XOXv.e.A.-.-.F.a.X.+.F.^ >.F.*.| *.~ >.r.F.oXB.5.K.|.y.H.a.*.;.H.|.K.P.+XC.r L.%XY.Y.U.0.,.OXOXOXY.e.T.oXs.J.",
"3XOX2XOXY.Y.#X2X3X2X4XY.V.L.e.v.B. X*.3.F.*.:.6.*.~ ....:.B.|.H.=.+.F.a.C.y.|.6.r.#XK.&XOX2XY.4 (.T.G.+XG.U.e.U.9X2X9XT.Y.3X&X6X",
"r p y y D c G G G G G H c v v r 3 t - - 8 % : 3 : % = = 3 2 v r 3 3 5 h G 4 5 5 v B c v G G G X G G v G G v 5 G G G D v 5 v v G ",
";X;X1X;X;X;XQ.;X1X;XM.b.;XQ.Q.M.3 ].].j.I j.R.^.R.^.!.S.^.^.~.m.S.!.E.v.!.:X!.S.Q.'.;X].:X;XQ.!././.;X:X<X:X,X;X>X:X;X>X>X>X<X;X",
"L.T.T.t.t.t.C.C.L.t.$.-.0.0.0.[ 3 6.<.....<.=.O./ :.<.~ X.6.v.<.0.q.r.r.w.q.[ [ { 8.T.I.y.t.L.L.L.P.T.T.T.T.2X2X&X2X3X2X3X2XV.L.",
"8.8.t.t.-.$.9.0.8.8.$.-.#.-.9.&.3 ,.%.#...,.B.>.%.:.6.>.,.x.N.v.<.e.<.3.q.F.r.8.;.y.y.I.P.t.y.y.0.-.9.-.-.;.y.y.s.t.t.s.d.t.t.q.",
"s.t.t.8.t.t.8.V.8.8.t.9.[ $.$.~ 3 $.<.....,.6.X...~ X.,.*.3.F.y.;.} { ( ! ! [ { ;.w.1.q.;.q.w.w.y.8.-.8.8.t.t.w.q.e.d.s.d.t.d.T.",
"2XT.L.t.P.U.y.t.-.9.[ -.[ [ [ [ > <.C.<.,.B.e.%.:...:.:.:.;.<.J.N.r.B.t.;.;.e.t.I.I.P.P.P.OXOXT.T.T.P.P.P.P.T.Y.Y.P.P.L.P.2XI.2X",
"-.8.t.t.-.{ 8.8.8.[ / -.[ { { -.3 ,.z.<.N.A.X...&.l.z.l.z.,.N.,.<.<.6.J.T.Y.Y.U.U.C.V.9.t.U.`.U.T.T.Y.t.C.y.y.C.C.t.C.V.t.8.-.$.",
"[ [ 8.-.;.-.$.$.[ [ F ( F F ~ ~ 2 *.+.:.6.6.O.,.<.%.:.:.*...X.*.<.B.r.C.r.0.<.C.C.e.C.C.y.C.V.e.e.8.t.C.C.0.-.0.-.;.t.V.t.t.$.$.",
"9.&.&.-.9.N.0.$.-.-.[ [ F ~ / / : *.*.+.<.N.<.<.Z.v.:.%.O.%.O.,.A.U.U.C.N.<.0.C.V.N.z.v.V.V.N.v.V.C.C.D.B.,.<.N.v.&.v.V.V.V.V.9.",
"3 3 > g s f h h g h j j 5 h g g : 3 3 d f h f f z n c h h 3 f h h 4 h h j h g h h f h j h z h $ d h 3 5 c f 3 3 3 3 ; 3 5 5 5 5 ",
"<.A.E.uXgXdXwXdXgXpXqXqX*X(.`.`.(.Y.I.oXoX7X$XK.).&XoXY.N.>.<.G.B.<.V.B.T.P.e.B.J.D.S.U.U.D.*Xz (.(.J.3X8X).B.N.,.o.X.J.A.z.z.N.",
"$.A.#X-X3XI.V.S.C.(.U.C.e.;.<.B.6.F.C.u.p. XH.I.y.G.C.C.y.t.8.s.G.r.r.q.7.G.Y.C.J.U.Y.%X*XU.C.0 D.C.V.G.U.%XG.e.*.~ / 8.>.-.<.<.",
":.3. X+X XF.<.N.G.U.K.w.' ;.} r.r.K..X+X+X@X7X7X6X+X7X3XoX+XT.f.s.d.J.y.;.;.r.C.C.t.;.V.r.6.e.r U.;.;.e.oX%X%XY.*.( *.( *.:.e.0.",
"e.{ ,.H.F.G.8.B.y.C.a.a.u.7.4.4.y.s.i.p..X.X+X.X+X.X.X+XoX+X3X3XT.H. Xr.3.e.r.e.8.,.8.C.C.r.Y.z (.B.).oX3X&X+Xq.{ ] :.=.^ Y e.7X",
"<.[ =.r.K.y.e.0.N.C.y.r.w.a.4.2.a.q.3.w.OXOX`.2X%X*XP.%XP.P.`.5XfX5X4X2X5X5X*XP.L.e.[ -.e.C.U.r L.B.U.&X&X&X%XC.q.;.-.^ a 1 =.Y.",
"( ' [ e.a.a.F.e.<.;.8.3.3.4.=.} ;.>.V.y.y.;.,.G.`.qXU.U.T.;XL.wX`.4XwX2X4X2XU.U.`.4X4X(.A.8.(.r '.<.V.T.P.*XU.G.U.e.8.=.=.;.e.*.",
"=.$.! ! { w.q.r.6.C.e.e.y.u.;.;.{ { V.(.C.8.C.V.L.2X(.(.4X4X2X2XL.L.U.U.2X2XL.(.V.!.!.U.U.N.V.3 [.L.<.U.5X2XV.0.-.0.9.6.8.;.6.<.",
"D / u q 0 V t V B F H B B B y y 1 , r B F v y y D y D D D y v D D r y D 5 r r y y r t y v r r O v r r / / ~ B V y t B y B B y ~ ",
"wXwXsX(._.wXdXuX:X'.S.Q.!.S.S.S.5 4X9X9X4XeXfX9XfXhXfXgX5X2X2X4XfXeXeXeXeXhXzXzXzXvXhXvXvXvXvXyX].D.v.e.C.2XuXuXkXlXgXkXwXuXlXjX",
"/ B t Y 6.`.`.A.0.,.9.-.9.,.-.;.3 s.u.u.t.s.d.t.s.f.T.f.w.t.t.w.s.s.L.P.OX3X9X5XpX3X3XOXP.G.C.e.;.;.3.a.OXC.U.).*X5X&XT.oX%X(.,.",
"6.V % Y :.).2XC.%.$...' -.$.( [ 3 1.w.1.w.d.d.f. X2XOXI.s.I.2X2X6X9X6X9X6X3X%XP.P.T.P.s.a.s.H.y.d.OXI.H.G.J.Y.`.OXY.C.C.U.Y.D.N.",
"u F 6.a.9.P.2X%Xe.-.! ( ( ! ~ ( 3 ;.w.u.t.d.I. X Xp.f.g.I.I.XXf.XXg.2X3X+XT.T.f.i.i.XXf. X+X+X Xg.g.XXg..Xf.OXOXY.,.( / B / W F ",
"6.T.2X%XT.*X+X+XP.r.-.V p p D F 2 [ p.d.g.f. X Xf.OX X X+XOXOXOXT.3X2X%XT.s.P.P.I.u.1.g..Xf.XXXX6X+X3XOX XU.e.V.,.-.-.[ H / ^ [ ",
";.<.N.V.V.C.A.v.;.{ ! ~ [ ! ! F 2 [ } u.u.u.u.d.H.I.f.d. XI.f. Xf.f.d.P.s.H.y.H.P.u.;.P.u.I.OXs.f. XOX XT.P.y.V.V.0.-.$.[ -.-.-.",
"/ ~ W / $.( [ / ~ F ! _ $./ [ _ 3 8.{ w.y.w.u.s.w.w.w.u.w.t.y.w.t.P.s.C.t.C.t.P.G.I.q.y.P.T.f.G.y.C.y.w.y.G.t.-.,.-.-.,.-.<.=./ ",
"u p t u a t p p u q u i u t y 8 - ! ! ( ;.q.q.t.y.t.q.7.t.y.G.0.e.y.V.r.U.A.G.r.-.;.<.8.F.H.t.6.-.;.-.} -.X.<.[ $.H / ( ~ ! ~ p ",
"3 h j g j k j s > : : > f d = 2 4 : > ; ; > = = d $ $ 3 3 > g : > g g j j j g j k k j g n n b $ j j j n b j j g j n k b h h h 3 ",
"$.*.q.;./ ^ F r B B M M ! ! ~ ] ' ( V D B t 4 0 ~ t q ~ ;.P.G...%.<.e.U.C.<.$.:.:.<.-.:.t.6.e.4 ,.$.[ =.*./ ( $.*.:.<.$.:.-.:.( ",
"F / X.;.<.{ { ( -.{ } 3.( { 3.} / V a ! B r 0 ~ P V F ..F.C.,.:.Y.Y.( 0./ 0.$.-.r.C.P.t.D.U.J.0 N.7.$.{ e.r.y.C.q.<.6.e.w.-.;./ ",
";.r.G.F.F.a.w.} ;.3.w.w.1.3.1._ _ ^ W ! a q 0 3.( ~ H *.r.F.r.t.Y.F.,.B.e.C.K.Y.J.G.oXU.r.B.y.0 D.G.r.t.r.K.G.q.;.G.F.H.y.{ ;.=.",
"s.r.t.w.w.s.w.' 3.w.w.w.3.;.3.;.} ;.2.( a t i 7.;.,.6.;.r.B.<.s.OXP.C.oX7XOX<.,.G.r.OX#XB.G.C.4 A.e.*.q.B.C.4.' ' ;.;.a.a.w.y.4.",
"H.J.U.Y.P.B.B.s.r.w.7.;.;.e.q.{ ;.3.' Q w a Y 7.{ $.F.w.y.;.3.F.U.q.C.F.J.;.;.-.s.C.P.G.N.G.C.r L.y.C.C.Y.Y.J.C.<.A.6.t.J.Y.G.r.",
"C.A.C.C.C.e.B.C.C.r.0.<.w.q.y.;.Y Y u M N / c.c.I.K.C.,.( ( X.A.U.V.C.C.(.C.J.Y.U.U.).Y.U.U.D.r `.).Y.U.`.`.U.e.0.C.V.B.J.C.U.B.",
"v v v D B v x v B B x x x B 4 % O % + , , 4 l x M B x 0 4 0 r B x x v v v B B v 4 v v z r c r $ v x B r v v v 0 0 v v x C C B B ",
"5X=X*X%XU.Z.N.A.N.N.N.J.N.B.B.x.f x.A.A.W.A.W.).W.(.=XqX*Xx.A.E.(.(.l.C %.l.A.x.:.A.(.).*X0XN.A.(.`._.`.qX4XwX4X4X5X*X*X`.*X*X2X",
"=.=.2.] ] ] ] ) ' +.^ =.=.2.=.' d E E  .+.+.+.>.5.>.5.c.>.>.c.5.>.B.5.( 3.B.a.2.` w.7.r.w.C.^ ' H.Y.e.=.3.r.F.r.*.7.=.*.} 3.=.} ",
"7.;.6.@.` ' ' ^ Y  .=.>.+.5.=.@.d R R h.E k.+.k.>.k.k.x.z.<.>.z.x.<.x.6.5.F.H.3.7.G.H.F.F.J.^ M B.F.C.5.>.>.+.( =.{ =.' { +.=.7.",
"B.7.7.>.+.>.>.>.@.c.c.x.F.c.c.5.d R R R o.o.O.+.>.:.+.:.l.>.>.k.z.A.x.N.<.A.W.W.J.J.N.>.6.B.q M N.z.<.:.:.,.<.>.<.>.5.6.6.6.>.F.",
"=.+.+.X.^ X.>.X.+.5.x.c.c.@.+.^ d R E o.E o.R h.%.:.O.+.+.+.%.>.:.:.:.:.<.<.N.N.B.N.>.R M U q N ^ Z H | X.>.*.*.:.*.*.+.+.*.+.=.",
"' ' @.' ^ R ~ ^ +.>.5.5.@.^ ^ @.3 E E E O.o.R E >.@.k.>.O.>.:. .+.*.<.B.B.7.7.B.H.B.+.q o * & % < q M R @.r.6.5.=.( X.^ +.X.^ ( ",
"] ^ T T T N R T E E T ) E T T ' 2 E E E E E E E @.E @.@.>.>.>.>.>.+.>.+.' =.@.2.=.Q i 9 * w @ 7 ' ' Y ^ ` ' ^ Y ^ ) ' ' ] ` ` =.",
"6 6 * 6 # & # * * 6 6 * # * @ @ 2 9 9 9 9 * & & 6 9 x e < 7 q 7 u q q M R Y Y u <   o & 6 N < q N M i u N w e u N 8 w 8 w w 7 7 "
};
