/* XPM */
static char *planks_birch[] = {
/* columns rows colors chars-per-pixel */
"64 64 176 2",
"   c #2A1E17",
".  c #34261D",
"X  c #36291F",
"o  c #38291E",
"O  c #3D2F23",
"+  c #3F3126",
"@  c #463325",
"#  c #483426",
"$  c #44352A",
"%  c #4A3628",
"&  c #47392C",
"*  c #4C3A2B",
"=  c #523D2E",
"-  c #4C3D30",
";  c #533F31",
":  c #56402F",
">  c #4E4133",
",  c #544334",
"<  c #5A4535",
"1  c #5A4937",
"2  c #544639",
"3  c #56493B",
"4  c #5D4C3C",
"5  c #614936",
"6  c #624D3B",
"7  c #694F3B",
"8  c #65523D",
"9  c #6A523D",
"0  c #554A40",
"q  c #5C4E42",
"w  c #5E5144",
"e  c #614F41",
"r  c #635444",
"t  c #6C5642",
"y  c #675946",
"u  c #6C5A45",
"i  c #645548",
"p  c #685749",
"a  c #66594B",
"s  c #6B5C4C",
"d  c #715741",
"f  c #725B45",
"g  c #785E46",
"h  c #745E4A",
"j  c #785E49",
"k  c #6B5E51",
"l  c #6F614E",
"z  c #75624B",
"x  c #7B644D",
"c  c #7B684D",
"v  c #6E6153",
"b  c #736453",
"n  c #7B6651",
"m  c #776955",
"M  c #7D6B53",
"N  c #736659",
"B  c #766A5D",
"V  c #7B6C59",
"C  c #786E62",
"Z  c #82664D",
"A  c #82684E",
"S  c #816750",
"D  c #846C53",
"F  c #896E54",
"G  c #836F58",
"H  c #8B6F59",
"J  c #906D52",
"K  c #837057",
"L  c #8C7256",
"P  c #85745B",
"I  c #8D745A",
"U  c #8F7A5F",
"Y  c #917357",
"T  c #93755B",
"R  c #99775B",
"E  c #947A5D",
"W  c #997C5E",
"Q  c #857361",
"!  c #8A7B62",
"~  c #957C62",
"^  c #997E62",
"/  c #937F69",
"(  c #97805F",
")  c #9B815F",
"_  c #968063",
"`  c #9C8265",
"'  c #95846E",
"]  c #9D8569",
"[  c #9E886A",
"{  c #958571",
"}  c #9E8670",
"|  c #9D8973",
" . c #9E8F7A",
".. c #A18565",
"X. c #A28966",
"o. c #A98D67",
"O. c #A18669",
"+. c #A48B6C",
"@. c #A98D6C",
"#. c #A6906E",
"$. c #AA926E",
"%. c #B0966E",
"&. c #B0986F",
"*. c #A58D71",
"=. c #A98E71",
"-. c #A79172",
";. c #AC9373",
":. c #AE9875",
">. c #A5937B",
",. c #AC957A",
"<. c #AF997B",
"1. c #B19675",
"2. c #B39B75",
"3. c #B89F75",
"4. c #B19779",
"5. c #B49C7B",
"6. c #B89F7B",
"7. c #B7A076",
"8. c #BAA075",
"9. c #B7A17C",
"0. c #BAA37D",
"q. c #BEA87E",
"w. c #C1AA7F",
"e. c #A79783",
"r. c #AD9780",
"t. c #AC9C84",
"y. c #B49E82",
"u. c #B99F81",
"i. c #ADA088",
"p. c #B6A183",
"a. c #BBA483",
"s. c #BEA984",
"d. c #B3A48C",
"f. c #BBA68A",
"g. c #BEAA8A",
"h. c #B3A790",
"j. c #B6AA93",
"k. c #BBAD94",
"l. c #B9AE98",
"z. c #BCB29B",
"x. c #BFB5A0",
"c. c #C0A784",
"v. c #C1AB85",
"b. c #C2AD8B",
"n. c #C6B186",
"m. c #C8B287",
"M. c #C5B18D",
"N. c #C9B58C",
"B. c #CCB88E",
"V. c #C1AD92",
"C. c #C6B392",
"Z. c #C9B593",
"A. c #CDBA95",
"S. c #C4B39A",
"D. c #C9B698",
"F. c #C7B89D",
"G. c #CDBB9B",
"H. c #D0BE97",
"J. c #D0BE9C",
"K. c #C7BAA1",
"L. c #CDBDA2",
"P. c #D0BFA1",
"I. c #D3C19C",
"U. c #CEC0A3",
"Y. c #CFC2A9",
"T. c #D3C3A3",
"R. c #D7C8A7",
"E. c #D9C8A5",
"W. c #D3C5AA",
"Q. c #D8C7AB",
"!. c #D7C9AD",
"~. c #DCCCAB",
"^. c #D6CAB2",
"/. c #D9CDB3",
"(. c #D9CFB8",
"). c #DCD1B9",
/* pixels */
"d./ d.S.S.S.>.d.y.k.F.F.F.F.W.S.D.b.b.Z.Z.J.G.D.c.D.P.b.V.Q.J.=.u.P.P.D.c.D.F.K.C.W.Q.Q.G.P.W.s P.P.P.P.P.S.L.V.S.S.V.k.K.P.L.S.",
"] / 5.y.p.f.V.d.y.f.C.D.V.f.s.b.M.4.a.c.m.c.c.u.4.c.V.u.P.T.T.A.C.Q.J.A.c.f.r.C.C.C.C.D.D.r.c.p L.y.V.D.J.C.F.C.V.P.D.K.P.G.S.y.",
"/ *.V.;.y.Z.b.C.V.f.a.y.s.b.,.c.6.O.Y O.1.6.=.^ 4.O.6.u.5.b.c.u.Z.V.c.b.u.=.u.=.u.;.5.a.5.c.u.r C.=.y.4.a.u.u.y.u.4.;.;.u.c.u.r.",
",.a.C.u.,.b.Z.b.6.^ ^ D G +.;.5.a.4.6.c.b.m.=.6.c.4.1.1.c.c.c.a.c.c.a.c.C.4.u.u.f.u.y.c.a.y.D 6 D.G.Z.V.b.D.Z.*.4.5.^ } y.u.V.G.",
"~ *.=.] ] ,.O.=.0.5.6.5.5.b.c.1.6.w.4.6.6.c.6.@.c.m.c.c.u.1.5.6.~ @.v.6.c.6.u.=.p.b.;.b.Z.b.5.6 C.b.b.b.C.c.5.~ 4.5.;.=.f.b.b.4.",
";.g.V.b.Z.D.b.Z.A.D.G.G.C.M.C.b.c.I.A.Z.b.b.4.u.E.~.Q.Z.Z.c.b.Z.V.N.b.D.C.c.D.P.A.G.V.H.b.,.V.r Q.V.P.Z.a.V.,.;.P.P.C.G.P.V.G.5.",
"y.b.Z.C.M.C.b.b.c.s.Z.b.+.5.6.4.4.u.V.a.c.c.f.=.A.D.C.f.C.C.C.C.G.c.s.f.D.P.J.D.A.R.~.I.D.N.V.< D.c.D.b.D.G.f.b.T.G.P.b.G.D.V.=.",
"r b b h m m y 2 r y u p 4 u u u u u r r t e s t x h h s s s 6 m k h p 4 b l s u p v z p b u i O l p b b V V V m m m b y u h y r ",
"/ O./ ~ h e e h P } >.;.,.e.d.^ 3 u.u.f.y.>./ r.u.r.y.u.t.y.y.f.g.k.V.V.V.V.>.y.f.u.y.y.C.D.D.V.f.r.,.r.r.,.,.*.[ ,.>.e.*.*./ *.",
"/ *./ ~ H n j G I ] ~ O.] ^ O.^ 2 O.+.~ ^ ^ @.=.=.^ *.=.=.=.4.*.4.4.4.4.=.=.4.4.a.c.4.=.u.b.a.;.;.=.>.O.[ ] ] / / ,.*.~ Q ^ / ~ ",
"*.+./ / x h f h r H ^ ` @.~ ^ I 2 H ~ u T ^ =.^ +.=.=.4.u.y.y.r.u.4.u.V.b.V.c.4.=.a.u.+.4.u.5.;.p.,.*.=.4.5.;.*.^ ` +.^ =.,.=.*.",
"=.O.=.4.I n h j f ^ O.~ @.+.] ^ ; H ^ t H *.r.4.=.4.=.1.1.4.4.;.*.,.=.,.y.=.u.y.5.5.a.f.b.C.f.V.y.5.5.>.r.,.a.y.y.y.[ [ O.O.=.4.",
"O.Q / ^ H b u t n ;.5.,.5.;.] ~ ; 4 f n ~ 6.4.4.=.=.4.u.+.;.^ 5.;.u.;.f.u.a.c.4.4.1.5.6.4.5.=.5.p.=.+.] [ >.y.;.=.r.;.] / / O.*.",
">.u.y.u.5.[ ~ n / ;.-.*.6.=.] ~ 2 4.n Q =.u.c.4.u.=.c.V.4.4.*.C.D.V.V.b.b.D.J.V.Z.f.f.a.y.c.a.,.p.a.;.[ O.,.;.c.5.=.;.,.*.*./ ~ ",
";.u.C.A.V.a.*.] 4.b.C.p.6.5.] ~ & C.O.;.C.G.b.Z.G.C.c.C.C.D.u.L.Q.Q.T.P.P./.Q.Q.W.G.T.!.P.P.P.G.V.F.S.b.4.y.s.J.C.S.y.y.4.,.y.u.",
"C N N B C C v k k v v k k a q q - i q e r p p p p p v p k k a k k k k s v N l e b s k v B B k - B C B B N N N B B B b N N v v v ",
"1.6.v.v.7.q.5.5.-.~ _ E E I S x d j j j H ~ ~ S I H +.^ ~ ] O.~ ~ ~ ~ / W ^ @.+.2.] -.+.7.:.[ 2 y.5.b.5.2.9.#.7.#.#.O.;.$.+.$.$.",
",.6.v.M.v.b.M.b.a.s.+.[ 5.] P P I x j S G O.T F H J ` E ^ ^ @.@.~ E S D Z F F ) ` F D _ ] Y E 2 =.` +.E I :.] $.$.#.X.P ` @.[ 2.",
"=.6.Z.Z.N.Z.Z.A.N.A.9.[ +.] K _ E W x F j S n D r x j e F O.^ E ~ T ~ D D ~ D @.$.~ D ~ E U ( 1 >.+.@.] E -.-.s.N.A.:.-.#.:.` #.",
"-.2.b.I.M.G.A.A.I.U.Z.:.:.-.E E -.^ F Y O.F 1.;.S ^ ~ h ~ 1.6.1.;.6.c.+.] 6.;.5.Z.H.n.s.Z.5.#.1 g.5.-.#.:.[ 9.A.I.I.B.:.s.N.s.#.",
"5.:.s.n.b.n.g.Z.N.I.N.-.-.9.[ ] 0.6.E ` a.I O.c.` I ^ I O.2.p.N.5.+.c.v.5.v.3._ +.c.b.v.q.I.:.4 a.Z.n.g.s.-.+.B.B.N.g.:.N.n.9.a.",
"I.M.B.B.n.g.C.I.I.I.U.s.5.s.-.;.1.N.~ @.0.^ O.=._ D I I ] 5.v.a.O.` 0.6.0.5.v.=.1.N.s.G.k.U.s.3 M.M.a.A.f.s.:.s.T.I.I.B.M.I.A.I.",
"c M c c M c V P V V P U z m c z 8 f * = f ; ; 4 2 * ; ; 4 1 n z 8 4 y u m 8 u t c M x z V ( m O V V M P P n s K P P M M z m m M ",
"j.l.z.z.z.h.i.z.z.l.>. .l.i.{ P 3 l.z.{ Q { t.d.t.d.d.t.d.h.d.e.,.d.t.>.d.l.d.i.i.h.l.z.z.j.h.h.j.j.z.z.z.z.z.l.z.z.k.z.z.x.z.l.",
"s.s.g.9.:.:.7.9.q.7._ [ ;.:._ L 2 ;.@.I H *.O.~ I +.+.D E =.;.*.-.2.2.2.2.$.E E [ #.s.s.7.7.s.q.s.q.B.N.g.M.A.A.A.I.I.I.I.I.:.9.",
"$.$.&.7.[ ( [ #.#.[ ( [ E _ _ ( 2 O.~ ! I O.6.+./ ` ;.+.+.;.,.;.#.;.#.#.#.0.2.$.o.7.7.s.q.:.7.7.-.[ [ [ [ #.2.7.9.&.&.q.7.:.:.#.",
"q.7.:.#.7.:.[ 2.X.o.&.[ ( ( ) L - _ =.T Q +.=.~ T F ~ +.` =.u.4.@...W E L L T ) o.&.o.&.X.o.&.7.7.[ ( $.$.&.7.:.$.&.q.0.q.q.q.s.",
"Z.s.9.9.s.s.9.:.#.[ ( [ ( L ( K , *.6.+.+.5.;.^ ^ ! ^ ] O.@.=.s.;.2.2.2.X.X.#.3.s.s.s.s.s.I.g.g.N.g.s.9.s.s.n.g.g.s.q.9.s.g.s.I.",
"_ #.7.:.[ ( $.#.X.( L ( ( ( E L , [ ;.*.;.u.~ I O.*.;.=.*.*.=.=.+.-.;.s.N.s.N.a.s.p.5.[ :.s.I.s.g.g.g.7.9.9.7.7.5.7.9.5.7.#._ ( ",
"( ( X.[ X.[ _ ( ( ( A U c c A A & ] ^ O.;.;.~ +.=./ / O./ I ~ ^ -.9.:.2.:.;.#.9.9.:.5.0.:.5.:.:.7.&.:.9.9.-.[ #.[ [ :.:.:.:.( ( ",
"[ ' [ [ [ 5.-._ _ [ U _ A L I K $ _ ] _ *.;.*.O.4.=.O.^ ~ ^ ~ *.6.f.g.a.<.-.;.9.9.:.>.:.5.9.:.>.5.9.9.s.9.[ #.:.#.' :.<.:.5.9.#.",
"3 3 3 3 3 3 w w w w w w 4 w w w > 3 3 q r i r p k v k i i 6 q i i r i w i w w i a 3 w w w l w + w y w 3 a r 4 4 4 1 > 8 w y w w ",
"*.y.d.R.!.^.Y.W.!.R.T.P.Z.b.V.C.V.b.b.N.M.I.A.s.N.A.k.n.2.[ #.0.5.-.2.6.b.c.2.5.a.a.y.a.g.s.D.r g.g.s.G.T.M.5.;.*.I E p.p.;.=.4.",
"~ 6.M.H.I.n.<.a.a.b.g.6.1.+.@.3.;.6.3.3.0.B.s.n.5.0.9.2.9.2.-.9.0.2.2.;.;.s.b.9.s.v.g.A.A.g.a.4 a.5.5.a.b.Z.q.:._ H Y -.X.O.+.*.",
"] #.b.A.v.a.@.;.p.s.c.6.E X...2.1.v.m.B.B.H.I.I.I.Z.I.I.B.N.q.q.7.q.a.5.o.o.:.5.9.:.#.:.5.#.:.8 g.+.+.;.N.Z.Z.s.` T ` E ] O.<.@.",
";.W +.c.7.0.-.5.6.5.7.6.2.2.$.%.3.8.8.8.m.n.B.n.B.m.N.B.B.Z.I.I.M.v.v.3.$.$.5.$.#.+.#.9.9.5.b.8 s.2.Z.M.I.A.A.:...~ ` X.L A ;.I.",
"#.E ..3.w.3.;.;.;.5.5.3.3.2.%.@.5.$.$.&.B.M.Z.A.A.A.s.Z.s.s.I.U.R.T.U.I.I.I.Z.a.p.:.( [ #.9.g.1 g.5.g.A.A.I.A.9.;.#.[ Y g , X.M.",
"E E W $.5.7.0.;.#.o.;.#.@.$.....o.[ 5.7.7.[ [ a.A.I.g.g.M.k.s.U.Z.U.I.Z.G.G.g.k.C.A.U.g.a.-.M.8 g.#.<.M.s.Z.s.0.v.$.$.X.` $.;.W ",
"` ( L L W 2.;.2.$.6.;.$.2.3.o.o.( ( 5.M.7.#.7.2.s.Z.g.g.I.F.Z.Z.s.p.s.g.A.B.s.s.5.g.g.s.s.<.9., S.s.+.g.I.A.9.-.] #.#.$.@.#.#.$.",
"I P d 9 8 c 9 x z M M x z z s s 1 , 8 u l l l l z l z c c z z z c 8 l z 8 8 8 u u 8 t u l 8 4 + u 8 8 P P m z c f d z u f z f K ",
"L.L.R.g.k.L.!.Y.S.g.i.i.a.i.p.,.r F.G.U.G.U.U.U.T.!.W.!.G.k.Z.F.U.U.U.U.R.!./././.(.!.).).(.(.F.k.t.-.-.9.G.W.T.!.^.!.^.L.Y.^.Y.",
"P f t Z -.Z.C.6.$.+.[ +.[ O._ I 2 8.7.7.3.9.q.2.0.q.n.s.7.&.&.&.q.9.9.q.k.B.I.T.R.I.I.N.s.q.9.:.o.o.#.7.M.0.s.k.A.G.A.M.M.Z.g.[ ",
";.x $ x ] M.G.a.` _ T W ` E L F 2 @.&.o.%.q.q.q.B.B.n.v.0.q.A.I.I.I.I.T.T.I.B.s.s.n.q.7.7.0.q.7.0.Z.s.q.0.s.g.Z.Z.s.9.0.a.M.a.<.",
"9 c -.3.#.a.A.Z.:.) F T E L K A * X.&.8.&.0.n.n.n.8.w.n.n.n.N.q.n.q.I.I.I.N.s.s.7.7.N.q.q.A.A.n.w.m.m.n.N.s.N.Z.g.#.E K f I D c ",
"#.M.G.A.C.Z.Z.B.v.3.( x f f c A > ) 8.w.n.q.n.n.q.N.n.n.B.B.N.Z.g.I.U.k.n.q.q.s.s.7.#.n.n.q.B.B.B.B.I.B.M.s.:.9.+.] ] E M L I E ",
"o.-.:.5.<.a.9.-.X.) L K E Y A c 2 Y X.&.7.3.7.8.w.v.w.0.n.v.q.n.q.q.q.q.7.q.9.q.q.&.X.s.7.q.B.7.w.N.n.n.n.s.7.:.:.o.[ _ E X.X.` ",
"L D A L E ( E L L c Y Y E L L D & o.( &.3.3.3.7.2.&.:.7.2.2.3.&.7.q.9.q.:.9.5.q.q.q.&.2.s.N.q.0.5.7.9.&.9.s.:.+.[ [ [ #.] @.X.T ",
"d u 9 u u 9 9 z 9 9 9 c 9 7 9 8 > F L I +.#.$.;.3.&.;.:.:.2.a.;.:.7.:.5.s.9.9.<.[ [ $.#.9.9.5.#.[ [ [ ] _ E [ I _ c L I D L A f ",
"4 a a a k k a 3 3 2 2 1 r 4 , 1 2 2 1 > > 1 , - 3 * & 3 w 2 4 2 2 w w a v s a a k v a w v v l $ a l a b b s s i l v k s i s s w ",
"~ _ $.+.L Y S 6 u f f f F F F _ W T z x z 6 , 4 F 8 6 D +.s.a.P _ -.<.s.<.[ E [ ] *.] [ :.;.-.1 [ I U _ E K I ~ _ _ @.U _ _ _ I ",
"x L E @.+.~ ) E ` ` ..+.T E o.X.Y z f F t 6 1 S F x x I 6.9.o.] M.g.U -.I -._ [ :.5.s.;.a.v.a.4 5.;._ ` 2.2.3.9.2.o.-.2.:.O.+.L ",
"@.5.7.9.0.3.2.( O.#.3.&.o.%.o.E T T D J f 6 1 +.I P S _ 2.9.<.;.n.9.+.6.;.9.v.s.s.s.N.s.5.5.2.4 a.0.2.:.5.c.0.;.o.p.0.a.3.W +.X.",
"7.2.2.2.3.9.2.W &.2.&.$.$.o.#.X.^ @.O.W d d Z r.X.] -.X.5.2.o.0.N.s.5.M.I.N.-.] 9.:.N.A.5.s.5.1 5.;._ ;.2.0.$.W E @.o.9.5.2.3.1.",
"a.c.s.s.v.5.5.0.2.3.$.$.$.$.$.` O.1.W J 7 d Z r._ W 5.2.5.@.#.s.s.:.9.a.a.+.+.] 0.9.s.a.;.a.a.8 s.5.5.9.n.b.s.9.O.9.-.<.a.v.0.2.",
"a.9.p.a.5.;.5.9.5.2.#.$.$.1.7.o.S S d d d J ^ u.n.b.0.@.I I _ 5.b.5.9.a.g.6.s.b.s.g.M.b.b.g.a.4 Z.M.g.g.C.Z.f.;.;.9.5.5.a.6.b.2.",
"z z S D M D x c P S x x z M y * % * * ; ; t Z Z D A z t 9 t f M z z n z x M G n y x x z t h z * n n D z n M c t u M n x K I P S ",
"P.J.J.Z.c.r.>.y.;.,.4.u.y.4.y.4.e r.r.u.f.y.D.D.f.f.D.P.G.r.y.f.g.V.] l ] ] y.;._ a.b.V.G.L.,.p.g.C.V.V.P.J.T.D.J.J.Z.Z.C.D.D.J.",
"o.^ o.^ ^ ^ R R W ..R ^ O.@.@.^ 2 R R H R ^ ^ ^ =.=.=.u.=.=.=.=.+.5.=.T =.6.5.=.R 1.;.4.5.6.L T a.b.1.O.@.5.6.1.X.$.@.^ O.@.....",
"1.^ 1.W R ^ R R Z E ^ +.^ =.^ @.0 S H H H ^ ^ ^ ^ =.=.=.=.=.=.=.-.=.1.=.=.6.c.@.1.6.u.c.0.v.H f 6.p.5.=.@.O.^ ^ ......^ ..^ o.1.",
"u.6.1.=.^ @.@.O.O.4.6.4.u.4.4.Y ; H H H T / / ^ =.^ ^ @.=.^ ^ =.;.y.1.5.=.y.b.c.V.c.1.O.=.4.6 g ,.@.+.O.O.+.@.+.=.O.=.=.;.=.@.u.",
"^ ^ ^ ^ T ^ ^ ^ ^ 1.1.4.4.O.R J ; H H H H T H H ^ ^ ^ ^ ^ ^ ^ +.O...] O.@.=.,.5.6.4.=.D d Z 5 j I Z x Y ^ O...^ ..O.^ W ^ ^ ^ @.",
"R R ^ ^ H S H ~ R ^ =.=.^ R J ^ < H R T / T H R ^ =.r.^ ^ O.^ ^ ^ ~ =.u.6.4.1.5.a.6.~ 7 O = # # , 6 t S O.5.=.@.O.Y ^ T R ^ F T ",
"R R R J J Z J J R R J R R J Z T * H H R R R J R ^ ^ ^ =.@.@.O.O.@.^ O.^ W O.X.@...J g < # d @ 6 E E F Y R R J S Y R W ^ W R R X.",
": : : < # # # = * ; < * # * # # . < < < < * = # = 5 7 d ; 5 e 5 d 6 5 g S Z Z t *   . * ; j ; 7 j g j t d t f t j 5 7 7 7 7 5 5 "
};
