/* XPM */
static char *planks_spruce[] = {
/* columns rows colors chars-per-pixel */
"64 64 115 2",
"   c #130C08",
".  c #190F0A",
"X  c #1B100B",
"o  c #24160F",
"O  c #26180F",
"+  c #251710",
"@  c #271911",
"#  c #2C1D14",
"$  c #311F15",
"%  c #2F2117",
"&  c #322217",
"*  c #342519",
"=  c #39261A",
"-  c #37291D",
";  c #3C2A1D",
":  c #372B20",
">  c #3D2D21",
",  c #3E3024",
"<  c #422D1E",
"1  c #44301E",
"2  c #422E20",
"3  c #482F21",
"4  c #443123",
"5  c #4B3524",
"6  c #4E3926",
"7  c #453629",
"8  c #4D3729",
"9  c #4E3A29",
"0  c #513626",
"q  c #533926",
"w  c #593D27",
"e  c #523728",
"r  c #543C2A",
"t  c #593E2B",
"y  c #543F30",
"u  c #57402C",
"i  c #5C422D",
"p  c #574130",
"a  c #5D4531",
"s  c #5E4833",
"d  c #61452E",
"f  c #64482E",
"g  c #614631",
"h  c #644A33",
"j  c #6A4D34",
"k  c #644C39",
"l  c #6A4F38",
"z  c #6D5136",
"x  c #67503B",
"c  c #6D523A",
"v  c #725436",
"b  c #795735",
"n  c #765937",
"m  c #72553A",
"M  c #78573A",
"N  c #75593C",
"B  c #7B5C3D",
"V  c #7E603E",
"C  c #675540",
"Z  c #6B5542",
"A  c #6E5943",
"S  c #715741",
"D  c #745B42",
"F  c #7A5D41",
"G  c #745F4A",
"H  c #785F49",
"J  c #756047",
"K  c #7D6143",
"L  c #77624A",
"P  c #7C634B",
"I  c #7E694F",
"U  c #7F6750",
"Y  c #7D6A51",
"T  c #815E3E",
"R  c #83623E",
"E  c #89673F",
"W  c #805F40",
"Q  c #826444",
"!  c #886645",
"~  c #866845",
"^  c #8A6A45",
"/  c #846649",
"(  c #886748",
")  c #85694B",
"_  c #8B6C4B",
"`  c #8D714D",
"'  c #92734D",
"]  c #826750",
"[  c #836C52",
"{  c #8A6E51",
"}  c #857156",
"|  c #8E7252",
" . c #877258",
".. c #8B7559",
"X. c #8D795D",
"o. c #937553",
"O. c #957955",
"+. c #997A54",
"@. c #917659",
"#. c #957C5B",
"$. c #987B5B",
"%. c #8D7A60",
"&. c #957D61",
"*. c #9B815E",
"=. c #A3835A",
"-. c #978267",
";. c #9B8363",
":. c #9C8668",
">. c #9E886B",
",. c #A08764",
"<. c #A18866",
"1. c #A38B6A",
"2. c #A48E71",
"3. c #A59071",
"4. c #A99272",
/* pixels */
"G p G [ ] ] Z G Z L [ U ] [ @.U W W W W { { ( ( W ] { W W $.o.l F o.| | W ] { { / $.&.&.{ @.@.2 &.@.{ @.@.] { P U ] H H [ @...[ ",
"t r c x Z D F S S D / ) K D D F W j F W W W W j l W W m o.o.o.W W o.| W S F S W / W W { W m F > { S F / { ) _ / H { ) { @._ W S ",
"r g P k c / Q Q Q S N m M F l B M g e t j v g d j d m l l W M S ( W F W m g S g m k l m S W m 2 W k m k m m m l M l h h S F H l ",
"l m / m k Q Q F c t t 4 5 g j j M l c T W W j m W j j j M T F m W W m F W v S m D m m B S m 2 $ ] { ( W F _ / h l l y a S l W _ ",
"r g g p i l t g m m m c l F B j v T v M v F v j T W W F c j m m e g W v W S M g m / h Q ( W l : / F W H ! B l e j c k h m W F m ",
"k D Q F / / Q / ( ( ( _ ( Q ! B M ' ( W W W j S +.+.+.( W F W ( ( W W ( W F { ( ( _ / ( / k F : $.W _ ( D D l k | | / ( { / _ l ",
"l K / / Q Q F F D B ! F g z c c j m W M M W W g ( ( W S W W ( / ( D S F ( { | W / +.=.o./ W W $ { M / H ( _ F / ' _ | F ( / F k ",
"; 2 2 > 4 2 > * = ; ; ; = ; ; ; 2 : 2 : 2 $ 2 $ 3 3 3 2 2 2 : 2 2 2 : = 2 2 2 2 ; 2 < ; 2 > > # > > 2 2 5 4 4 2 4 3 2 - > 2 ; - ",
"y k y r > * $ > r k x l Z Z D % Z D H W H k k Z S S S S Z S D H H W W P W H C S F S S l ( ] ( W G l x x Z l k k p l k l s s p k ",
"y g y e 5 2 > 5 8 y e g a t a * t t a e e g g g g t g g g j k g l k k Z a j g l S F j g m W S k k g k p y t y r r l a r e y y e ",
"a a y y > : - ; * 5 r t d e t * t t e = e t g t d g j j c c l l c l S F W H W l g M S g l S Z g m h g g l l j a y y g r h k a s ",
"g a g l e 2 > 2 ; t a r h g i * a e y : 3 g l j g l g j j l j k j k g k l j l l l l m F W W S W S l l k l l D c S l p a p p h l ",
"y e r y 5 > - * , h c l c h i * e 3 > 3 e j j j g g j T g l t m g m k D S S F j v j l v j j j l m g p y p k m h h k h p y y a a ",
"h S l c c a r 2 r h g s c g t * 8 j 2 e l S W Z S j S W l l t / ( W W W W ( | W W F F S l W S j m D j a p k h N l h h k g a y r ",
"h S ! ( / D h p k Q K m c c t * l S g l W _ W W ( ] W W ) ) m | @.&.@.{ o.&.@.$.$.{ @.&.@.@.{ ] P { / F x Z D { / / Z m k k l m ",
"7 > 7 7 7 7 , 4 , , 4 , , > - * = : = = 2 3 2 = 2 = 3 ; > 2 > 2 3 2 2 > 2 2 3 : 3 2 2 2 3 7 2 * 4 7 7 7 7 4 4 7 4 4 4 4 7 , 4 4 ",
"j m B V v M z c s u u 6 6 6 > ; ; ; ; < 5 t r 2 8 5 g t r y t r e r e t e w f d z u h i z s i % Z c B v f z h n f s i j h i f f ",
"l m V R B V Q Q n V f u z i 6 , 6 ; 1 1 5 i e 5 0 5 t e t t g g t r 4 4 < 0 5 t u 6 1 u u u u % k i i e u j u f z f i 9 u s i v ",
"g c ~ ^ Q ~ Q _ V V n u s i 6 u u u ; 1 < 5 2 5 * 2 ; * 3 g t e t 9 r 4 5 r 5 f j u , u u 6 u % k s g i u s h V R ` z f h j i f ",
"h z K ` Q ` ^ _ *.*.V C z s u u f i 1 q t 5 j j 2 r t > r j m j h m B d i m h m E ' V V ~ z s % J z k h h a v ^ ` ` ~ j V K V f ",
"v z N R V K B ~ V V ~ s h z s u m m e p M 5 a M t 5 t 5 a j m ( m g B T v B m t i V R B n V N - N ~ V K V s a ~ ~ V V j V R V n ",
"` ~ ~ ~ V K ~ ` *.` ` V n V f h j Q t h b t a h i 4 8 9 t v W M i t m v N z B h z ~ B _ V *.V % P K n ~ N V j V *.^ *.V I ' ^ ` ",
"1 > 4 6 6 9 6 9 u 7 u u , 7 1 , ; 1 $ # 4 $ * * * # % * - * 5 5 ; * < < 6 ; ; ; 6 6 5 4 7 u 7 @ 9 u 6 u 9 7 > 6 6 u u 6 ; , u 1 ",
"[ ..X.X...Y L ..X.} N C } I I - I [ } s 9 s D L G P L D P P L A S K G x P ..I J J ) } } *.} I I I I  . .X. .....*.} Y } *.-.-. .",
"V V V z z z n n n z u u z f u * i h g 6 7 g i r 5 i g 5 e h h a h j j j z h w 6 u f V V z z N c n V V V V V *.` I E ` ` ` ^ z n ",
"s f j z u 6 u s s s 6 u 6 u u * i a r 9 6 a m i t y h i a j j h g j h f f n z f i n v V n f n n s u C u u u f z n z z n n z z s ",
"n z z s C z s z f f z u w 6 w - s i g 9 5 a g r e 5 r g t h m j f i w 6 1 5 q u i z f s f f z z z u u s f z z z f s V n V n n V ",
"I V n z n V z f s f 6 u w 6 6 - i g c a i z l u t 8 t y i g h D h z z z f f f z n V V n V V V V V V n n n V V V V V n z V I V V ",
"u f z z u u i f f 6 1 u u u u - u a h a k m e 9 p a h g g a h a s g k B Q V Q m n n C s C V V N V V V z c n C z z z z z z s u 6 ",
"6 u s u f u u u u 6 1 6 1 1 1 % r u r i h h r a g p y p t 8 t t h z z z z h h z x z z n z n z z n x z z n f u f u s z z f z u u ",
"i u u u s z s u u u 6 u 1 1 6 % 9 r p u g h g a k h p r r y 9 a c N F c c h h m z z h s x z x s C n z n z u s z s u s x z z z s ",
"* % % : - % : : : : , , : : : - - * * - ; - - - > , 2 > : * * : ; * - : - - - - : * : : : : : @ % : % : : - % - % % % * % - - * ",
"h c F &.-.*.@.#.;.O.o.o._ K Q R K K V R R ` ^ V I ` K V z i h N c g z c Q B l z m m x V J m ^ - P J B ` ' Q c h a 9 q m m k g c ",
"t m Q _ ` K c N m K D v l d f j h m v v n R V V v v v n z z h n m z j j j N V m V V K ) ~ V m - N z z m K ^ N j u 5 6 h i i i s ",
"u k R ^ R b a h m B B v q i d v l n R ^ ^ ^ ' ' ` E *.E I R V V v n n v f f j z n f s j z g j - F f i l Q ~ ~ V u 0 t q u i z g ",
"h w i B m v g z v z v v j v f f z M b b E R ^ V E R R ^ E E E E Q B Q z h h z h h i s v c z K - F z Q Q ` _ ^ j t t u i 6 1 z ' ",
"f q u z M z j j l z z v v v f f v j f j K K ~ ` ^ ` V K V V I *.*.' ` ` ` ` _ N v j u u h v V * D z K ^ ^ ` ^ v h h i q < # i Q ",
"6 t w j v v m h d i h h f f d i d i z z n f f N ) | V V K K N } K ..` I ` ` V J I ) ` J v s J - J s z K N ~ N m n f f i t d f u ",
"u q 5 5 q v f z h v j f z v f i w u c Q v h z n V I J V ` ` V I V c V V ` K m J z V N V V x c % / N a V ` ` z h i k g h f f j f ",
"5 6 ; = = < ; 4 1 1 4 4 > 1 > : & % - 1 1 > ; ; ; > > > 1 1 , ; 1 * > 1 * = = ; > - : ; > * - X ; ; - 9 9 7 > 1 ; ; < ; ; ; ; 5 ",
"X.O.;.K / X.;.#.} J N N J A N - I O.' *.' *.O.*.*.:.*.*.O.) ` *.*.*.*.*.*.,.1.1.,.3.,.4.3.3.3.*.I N x j N  .*.*.:.<.;.:...-.:.-.",
"5 ; < 1 h Q Q c f i i s s u u * j v v v v n n j n V V V z z f z n n z z ~ ~ *.` *.` ` E V n v j a f f m K z N V _ ` ` K R ~ K i ",
"k 1 o 1 u P _ N u u 6 w u u 6 * f f j f f b b V E E E V n V R E ` *.` *.*.E K V V V V v v n n n n ~ n N V n V I Q V z m N K N j ",
"= 1 j z f N _ ~ z u 1 q u 1 1 % j i z v v n V V V b b V V V E V V V E E ` V V V v n E n V ^ ^ V V R E R R V ^ K V a t 5 ; 6 4 , ",
"f K ` _ P ^ ^ ^ b z w 1 ; ; ; & f z b b V b E R V E V V ~ E R ~ V E ~ ~ V N N N V v f V R V E ^ ^ E ` E V N x z a i i 6 1 6 6 q ",
"f s h j z m c h f w 6 1 6 6 6 % f f v b v z v n b V V b V V V V V V V N n n n n n j i V n b R n V R R V V V j z z s i u q i i u ",
"6 4 1 6 q 6 q 6 1 1 1 q 6 6 w & f f f f v v z v j j j v v j z z n n n n x N z N n V f n V V V n n v m z z V j u a u i a i g i 6 ",
"; ; = = ; = ; ; 1 & = 1 ; & & % f f f f f f f j v j j j j z n j f n x z V z n x u i f f v n z h u s i i u u f u u 1 6 6 5 6 1 ; ",
"& ; - ; ; ; ; * * * & * * ; * & = & * & % - * % * % % * - * = & & - - - ; - - - ; > - - ; > ; % : > - > - ; - - - ; ; ; - - ; - ",
"6 u f i 6 5 4 % ; ; = < 5 1 5 w w q ; 1 ; % # & 5 * % 5 a M m 6 u h k V c s r i i g u i z h h * s 6 u u w 5 6 r u u a r u u u 6 ",
"1 6 u f d w i 0 u u i d 0 w f i 0 < = 3 ; & # 4 5 ; 4 5 N m a i K V r h 6 k r i z z B l m J N * z j q u z z z v j f h z j i i 5 ",
"f z v v b v j i i f v j f f d w 0 0 5 0 ; % % f 6 7 4 t z v z j V m i z j z B V B B Q B z z z & N n v f z B N h a N v N z w f i ",
"z z l z z v z u f v v f f f f d t g d e = = = j i i h i v z d m Q N z Q O.~ f i m z Q ~ m m m % c j u h z m h w q f f v v z z j ",
"N B B V B z z m j z f f f f f u a h t 0 = = 3 j u t z j z h f N B j v N N i a i m c B n h B m ; J z c c K V B v g z k z N B M j ",
"m c m c z k v v v j h f j j v f 3 3 $ 2 < 0 j v B B N d q q w c Q z c N K c B K B B P K F D D * K R V F ~ ~ N k k v z c N c V z ",
"; ; < 1 1 ; ; ; 4 < ; ; ; < ; # $ $ $ $ $ $ = = < < ; ; * = * 4 ; ; ; ; ; > 4 ; - ; ; ; = ; ; # > > 1 ; ; > ; - ; ; ; ; 4 4 1 ; ",
"o.{ | { W S l W c c m D S m S $ k l S S S S ] ] W W { @.{ l S S P P a > y a m l t M F / { | l m H ( ] / @.o.$.{ ..o._ { ( { { | ",
"d d d w t w t e w t 0 i i d i = e e e e e e e d g g g l g g j g d j h e h v z h e j j j z m 0 0 M F j i g j m j i f d t t h i i ",
"g d j t e e e e 3 e i a t d i $ 8 3 8 3 e t y t a g g g g g g g h h j h g c M h j m M M m F 0 < m m m g d t t e i t t w t w d v ",
"m j j g t g d d t l z j m v l = 3 3 8 8 e e y t p y t g t a a g l j h l g m F M F F l g h l $ < l g g t i g d d f d h h j g d m ",
"d d t e 0 e d e t g d j j t e $ 3 3 e 8 3 e e e t e e t t t t y a t t i g g l l l j g 3 < 3 $ < 0 3 2 8 e i t t d t t e e t e j ",
"e e d e 0 1 0 0 e d d d t e e $ e 3 e e e e 3 e g g g g e i t e t e h m m j j c M v w $ . O + + @ $ * 3 d j j d d e e e w e 0 e ",
"w 0 3 0 3 3 0 3 w e 0 w e 0 3 $ e e e e e e e e t t t g a g d d g t i t e d d g d 0 < $ o = o $ q e 5 0 0 0 0 3 e e w w w w 0 i ",
"# # + $ + + + + + # $ + + + + $ + $ # $ $ + + + + $ $ = $ $ $ $ = $ $ < 3 3 1 = +     + # < O = < < ; = < < $ = < $ < $ $ $ $ $ "
};
