/* XPM */
static char *planks_jungle[] = {
/* columns rows colors chars-per-pixel */
"64 64 193 2",
"   c #26110E",
".  c #2F1611",
"X  c #2E1913",
"o  c #321712",
"O  c #3B1D15",
"+  c #361E19",
"@  c #3E1F19",
"#  c #3D221C",
"$  c #3D2821",
"%  c #411D16",
"&  c #411E18",
"*  c #45231B",
"=  c #4B251D",
"-  c #47291F",
";  c #4C291E",
":  c #52281F",
">  c #432720",
",  c #4A2620",
"<  c #452B23",
"1  c #4B2C23",
"2  c #502720",
"3  c #532C23",
"4  c #5A2E24",
"5  c #4E3027",
"6  c #4D322A",
"7  c #553126",
"8  c #5B3326",
"9  c #54352B",
"0  c #5C352A",
"q  c #54392F",
"w  c #5C3A2E",
"e  c #4F3730",
"r  c #4E3831",
"t  c #513730",
"y  c #553C33",
"u  c #5B3D33",
"i  c #603126",
"p  c #633629",
"a  c #643A2C",
"s  c #6A3B2D",
"d  c #713B2C",
"f  c #643E31",
"g  c #6B3E31",
"h  c #723F30",
"j  c #5C4136",
"k  c #574138",
"l  c #5D443A",
"z  c #6C412F",
"x  c #634234",
"c  c #6D4233",
"v  c #62453A",
"b  c #6C4639",
"n  c #63483D",
"m  c #6B493B",
"M  c #734434",
"N  c #7A4536",
"B  c #754937",
"V  c #7A4936",
"C  c #744739",
"Z  c #7B473A",
"A  c #754B3A",
"S  c #7C4B3B",
"D  c #7C513D",
"F  c #5E4941",
"G  c #634B41",
"H  c #7E4E40",
"J  c #755345",
"K  c #7D5341",
"L  c #824636",
"P  c #804837",
"I  c #884D37",
"U  c #824639",
"Y  c #834C3C",
"T  c #894D3D",
"R  c #84513E",
"E  c #8B533E",
"W  c #91533F",
"Q  c #824F41",
"!  c #8A4F41",
"~  c #855342",
"^  c #8B5543",
"/  c #835944",
"(  c #8C5945",
")  c #835648",
"_  c #855A4B",
"`  c #8D5B49",
"'  c #925643",
"]  c #935B45",
"[  c #995D45",
"{  c #935D49",
"}  c #995E4A",
"|  c #905F50",
" . c #956147",
".. c #9C6146",
"X. c #95624C",
"o. c #9B634C",
"O. c #9D694E",
"+. c #8D6252",
"@. c #946452",
"#. c #9B6551",
"$. c #966954",
"%. c #9E6953",
"&. c #946E5B",
"*. c #9C6C5A",
"=. c #9D745F",
"-. c #A26347",
";. c #A1664C",
":. c #A8674F",
">. c #A36A4D",
",. c #A96C4D",
"<. c #AE714F",
"1. c #B1704E",
"2. c #A26651",
"3. c #A46C53",
"4. c #AA6E53",
"5. c #A36F59",
"6. c #A96E58",
"7. c #A67155",
"8. c #AC7254",
"9. c #A5725C",
"0. c #AC745A",
"q. c #AE795C",
"w. c #B27555",
"e. c #B87753",
"r. c #B47956",
"t. c #BA7C57",
"y. c #B2765A",
"u. c #B37A5C",
"i. c #BA7D5C",
"p. c #957260",
"a. c #9D7562",
"s. c #9E7966",
"d. c #A47561",
"f. c #AA7661",
"g. c #A47B64",
"h. c #AD7B62",
"j. c #A57E6A",
"k. c #AD7D69",
"l. c #B47D62",
"z. c #B87E62",
"x. c #B27E69",
"c. c #B6805F",
"v. c #BB815E",
"b. c #A6826B",
"n. c #AB836C",
"m. c #AB886F",
"M. c #B68163",
"N. c #BB8364",
"B. c #BF8865",
"V. c #B4836A",
"C. c #BC856A",
"Z. c #B6896A",
"A. c #BD896C",
"S. c #A88770",
"D. c #AD8B73",
"F. c #B48772",
"G. c #B38B74",
"H. c #BD8C72",
"J. c #B18E78",
"K. c #BD8F78",
"L. c #BF9276",
"P. c #B3927B",
"I. c #BE957E",
"U. c #C2845E",
"Y. c #C18663",
"T. c #C28965",
"R. c #C18669",
"E. c #C28C6B",
"W. c #C88E6C",
"Q. c #C5916E",
"!. c #CA926D",
"~. c #C38E72",
"^. c #C49274",
"/. c #CA9473",
"(. c #CC9873",
"). c #C3947A",
"_. c #C9967A",
"`. c #C5997C",
"'. c #CB9A7C",
"]. c #D09772",
"[. c #D7A17C",
"{. c #B69781",
"}. c #C59B82",
"|. c #C99D82",
" X c #CCA285",
".X c #C5A08A",
"XX c #CCA58B",
"oX c #CDA88C",
"OX c #D1A084",
"+X c #D0AA8E",
"@X c #CEAB92",
"#X c #D1AF94",
"$X c #D4B096",
/* pixels */
"g.) g.H.F.F.&.j.d.n.G.F.H.K.}.V.R.z.l.R.z.W.R.R.f.R.~.f.x._./.} 6._.~.~.f.R.~.~.V._.|.|.~.)._.f }.).).).}.F.K.F.F.F.x.k.K.).}.F.",
"_ ) *.5.9.f.x.9.9.f.V.A.M.f.0.l.z.2.6.y.i.y.f.:.2.l.z.6.^././.R.z./.~.R.y.f.6.x.C.l.C.R.x.5.h.f R.f.l.x.E.C.C.z.x.~.V.H.'.H.x.d.",
") | l.#.5.C.z.V.M.0.9.7.y.u.%.y.6.' Z { :.:.} } :.' :.6.4.t.y.6.R.z.y.i.6.| 6.} 6.%.2.0.6.l.4.w C.#.6.2.6.6.0.2.6.#.#.#.6.h.f.#.",
"2.0.C.9.#.z.z.u.5.^ ^ C C { ;.2.w.2.4.y.y.i.2.:.y.2.2.2.y.y.y.0.f.y.6.y.x.2.6.6.f.6.6.y.6.6.M 7 V.R.C.x.z.R.C.X.3.3.) ` 9.5.z.R.",
") { } ( ) 2.( ..8.2.7.5.6.y.y.;.4.w.:.1.:.y.:.} 1.i.y.y.4.2.3.4.! [ y.3.l.:.6.} 4.N.#.l.N.z.%.0 C.l.l.x.z.y.5.~ 2.5.#.X.0.l.y.3.",
"#.l.z.l.C.A.M.C.E.C.E.E.C.z.N.u.y.W.R.N.t.z.2.w.].OX'.C.z.y.l.N.C.N.u.R.z.l.R.~.A.E.l.R.z.%.x.w '.l.~.C.0.l.$.#.^.~.C.C.~.C.E.5.",
"%.l.N.V.M.M.M.u.u.0.N.u.X.2.4.2.:.4.z.6.8.l.f.} R.R.z.0.C.l.N.N.R.0.0.y.H.~.~.R.C.(.'./.N.z.x.3 H.0.C.l.R.~.h.z.^.W.~.l.R.C.h.} ",
"9 c b x b b w < 7 w a w 1 w w a u u 0 9 w 4 u 4 M f x f f f 9 b x f u 6 f f f y a x c w x u u o f u v c m m m b m b b w u f u 9 ",
"| | ) ) g t 9 f J @.*.#.*.&.k.*.5 f.k.k.6.| | *.f.*.9.d.*.f.d.k.k.x.x.x.x.x.$.5.f.d.9.5.V.H.C.x.f.*.*.*.*.*.$.@._ $.@.*.@.+._ } ",
") | ^ Q H g g C S ^ Q { ` ^ ` Q 5 ' ' ! ! } { } } ! } } } #.} { 2.#.2.#.} } 2.6.0.y.2.} 6.y.6.#.#.| @.` ` ( ` ^ ) %.{ ~ H ^ ) ~ ",
"{ { ^ ) g f a f 0 C ^ ^ [ R ^ S 1 S Q f H ' } ^ ' } } 2.6.5.6.2.6.5.f.h.l.f.f.2.o.6.6.{ 5.6.3.#.6.2.{ } #.5.#.X.^ ^ { ) X.#.| } ",
"{ ` | %.Q g f g f ^ ' ^ } } ' ~ > Z ' 0 C { 2.2.} 2.} 2.2.2.#.#.| #.} #.6.} 6.6.3.6.6.f.z.z.f.l.9.*.5.| 5.#.9.5.5.5.` ` { ` #.$.",
"` H ) ) A g f 0 b #.3.#.2.o.{ A , 7 g b ! :.2.2.} } 2.6.{ 2.^ 3.2.6.#.6.6.y.f.2.2.2.3.6.2.2.} 2.6.} ` _ ` #.9.#.@.%.#._ ) _ ` { ",
"@.6.6.3.3.{ Q b ) X.@.X.7.o.^ ~ 2 2.g H } y.6.2.6.2.f.z.3.2.` C.C.l.z.l.x.C.~.z.z.y.y.0.4.y.0.%.0.0.#.{ ` %.X.0.3.X.#.#.{ ` ' ) ",
"#.0.l.R.C.0.o._ 2.l.z.0.5.3.` ~ > z.| } z.E.i.R.R.z.l.z.C.R.9.^._.|._.~.^.OX|.|._.~._.'.).^.^.H.x.H.C.h.5.*.f.E.z.C.9.5.%.#.%.9.",
"F y G G G F k k u k k k y t 5 5 6 t t 6 9 y t t y t u 9 y y y y u k u y u u f 6 l y y l G n y $ n G G G l l l n n n l G l u l k ",
";.8.r.r.7.w.2.5. .R ^ R R S c g p g g g Z Q ! M S A { ^ ) ^ ' Q H ~ ~ ^ T ^ [ [ 2.^ o.{ 4.o.] 1 5.5.r.2.>.,...7...{  .o... .....",
"#.4.u.i.r.u.i.i.q.q. .( 3.( S S S g g g C ] Q Z Z Z ' Y ! ^ } [ ~ Y M M M N N ^ ^ B M ^ ( D R 7 @.^  .R D O.( o.o.o.( D ^ X.] >.",
"o.7.N.B.v.B.C.E.N.A.7.( X.( A / ~ Q h N g M h C 0 g g 7 N ] ^ Y ^ S ~ C C R B [ ;.E B ~ R R D 7 $. .X.` K o.O.q.v.T.>.X.o.O.( X.",
"o.3.c.Q.c.E.A.E.(.Q.B.O.%.o.~ R o.^ N Y ] C -.2.M ! ^ g Q :.4.;.o.4.y.{ ] 4.o.5.C.W.u.u.N.7. .7 g.3.O.X.X. .7.T.Q.Q.B.%.c.v.u.X.",
">.7.r.v.i.c.u.Z.c.B.B.$.$.7.( ( 8.4.T ^ 8.Z { w.^ A ^ S ] 2.4.Y.4.} u.y.,.r.4.^ ] r.i.r.c.B.7.7 q.B.c.u.q.o. .N.N.v.c.O.c.c.<.8.",
"E.c.B.v.u.l.N.Q.Q.L.Q.c.>.q.O.O.2.i.^ X.w.! { } ^ B S S ] :.u.y.' ^ w.4.8.3.r...>.N.y.E.c.Q.c.1 M.M.q.B.0.q.O.q.(.Q.(.c.N.Q.A.Q.",
"V V M B D A A K D D K K z A c c 0 s * = d 1 , 0 1 * , , 7 7 B c w 7 a f B w x a B S C b D K A X A D A D D B z D D R D D x D D B ",
"m.P.P.J.J.S.g.P.P.J.=.&.S.b.&.$.< G.D.+.J _ s.j.g.n.b.a.j.b.j.p.=.g.g.$.n.D.b.9.s.m.D.G.P.D.S.b.S.S.P.P.P.P.P.J.P.P.m.P.P.P.P.J.",
"c.c.c.>.,.O.7.7.c.O./ / O.O.E B ; o. .S A o.( ~ A ] { C Y X.#.{ o.;.>.;.>.o.R R E  .v.r.7.O.c.7.c.c.v.v.c.c.A.B.A.Q.!.B.Q.B.O.8.",
" . .O.>./ D  . . . ./ E D / / D 1 ` ~ K S ` 4.{ ^ ( } { { %.%.#...o.X.....8.>... .7.,.r.q.O.8.8. ./  ./ /  .7.<.<.O.O.<.c.>.>.O.",
"7.O.O.O.O.O. .7. ...>. .E R E E ; ^ X.S S { X.T S C ^ { ^ o.7.2.} ' E R V V R E W >..... ...>...,./ D  ...,.>...O. .w.<.c.<.c.c.",
"B.c.c.O.c.c.7.>. . .D E R D E V 1 X.5.} { 2.O.) ( H ( ( ` } ..0.O.2.>.>. .( O.>.w.c.r.u.r.v.v.v.v.v.c.,.c.c.c.c.c.r.q.7.c.c.c.c.",
"/  .,.O./ E  . . .R V E E E E I 1 ] o.{ %.4.~ H ( | #.| } { o.} { X.o.q.v.u.N.7.q.8.%. .O.c.M.c.v.c.c.O.7.7.>.7.7.>.7.7.O. ./ / ",
"D R  .E  . .E R E R z D B z B B 1 ( ~ ` o.o.~ { | ( ^ ` ) H ~ ( o.5.>.4.>.o.X.7.7.O.7.7.O.7.O.O.O.O.O.7.7.o. . ./  ...O... ./ E ",
" ./ / /  .O. .D / R D R z M B M 3 ( ( ^ } #.o.{ #.#.` ) Q ) Q { 4.0.q.7.3.X.O.7.7.O.X.X.%.7.O.o.>.7.7.7.>.` X.O. .(  .7.>.O.,. .",
"5 5 5 k 6 6 k r k k j 9 q k 6 q < < 5 6 t 9 9 9 u f u y 9 6 9 9 q 9 q r y q 6 q q 5 q k q k e # r q 5 r j 9 6 5 1 5 $ 1 k 7 j 6 ",
"@.7.f.|. X|.`.|. X`.^._.A.l.V.C.$.z.i.v.i.!.A.r.N.T.M.i.>. . .8.2.o.2.7.i.r.2.2.0.9.9.q.l.0.T.w h.h.q.W./.M.4.#.` S R 7.0.#.X.%.",
"^ 5.N.T.!.u.*.9.7.M.u.4.O.] X.4.o.4.:.:.1.i.r.r.>.8.4.7.>.O.O.7.7.>.>.o.O.0.i.7.0.r.M.N.C.q.0.9 9.4.3.0.u.Y.8.>.^ S S o.] ] ` } ",
"^ o.u.T.i.w.X.#.0.w.r.:.Y [ W >.;.r.U.U.T.T.(.!.W.T.!.Q.N.v.v.c.8.w.0.,. .] >.7.7.>.X.O.>.X.>.7 u.{ ] O.B.C.C.r.^ T ^ Y ^ ' #.o.",
"-.E ] w.4.4...2.4.4.4.,.;.>.-...2.<.,.1.U.t.U.v.U.i.v.U.U.Y.B.B.v.r.v.>...o.3.o.X. . .7.7.4.u.w q.>.M.M.E.T.Y.>.^ E ( ( S M O./.",
"} R ( >.w.,.O.O.O.3.4.,.,.,.-.-.,.-...O.N.N.N.A.E.E.r.N.c.c.c.(.`.(.Q.Q.Q.A.A.q.8.O.R ( O.>.c.7 h.3.u.B.E.Q.Y.7.o. .( Y s ; ] v.",
"Y R E ;.,.,.7.O.X.] X...[ -.W W { ] 4.7.,. . .8.Z.^.q.u.c.Z.c.L.Z.^.L.Z.Q.Q.q.M.Z.Z.^.M.=.X.c.8 M.X.7.M.0.B.q.8.r.O...' ' } o.R ",
"' R N P E >.o.>.o.,.o.o.>.>. . .E E 3.M.7. .O.7.q.Z.M.M.Q.Z.Z.Z.8.q.q.c.A.B.q.q.%.c.q.r.q.O.7.1 Z.0. .q.Q.A.7.X.( X.X.o...X.o.o.",
" .S s p 8 M p B c V B M c c z 8 8 ; 7 z B x z z c z c b B z z m A 8 z B 8 0 w a z 0 w x z w 7 O f w 0 K K D z B s s x s s z z S ",
"I.I.|.h.V.). X}.L.n.=.9.g.9.9.*.5 L.Q.(.L.`.`.`.'. X'.[.L.Z.B.(.`.`.`.`.'.+X+X+X+X#XoX$X+X@X#XI.m.9.$.#.7.L.'.}..XoXXXXX).}.oX.X",
"A s a N o.N.Z.7.X. .` ` `  .( ^ 5 <.,.,.,.<.w.>.<.e.c.c.O.O.-.-.8.<.7.c.v.B.(.!.(.!.Q.v.c.w.7.O. .] ..,.c.0.q.u.A.Q.T.c.c.N.h. .",
"o.z @ z ^ Z.A.0.E / D R ^ R R M 5 ..-...-.<.w.w.v.v.v.e.<.c.v.v.!.(.Q.(.(.Q.c.<.c.v.c.,.,.<.w.<.w.U.w.w.8.r.c.Z.N.u.7.0.0.M.0.%.",
"a c o.:.X.8.T.N.O.E V I R B B M 7  .-.,.,.<.c.v.c.<.e.c.c.v.v.v.v.v.v.T.B.c.c.c.-.1.v.<.c.U.U.v.e.t.U.t.v.r.v.N.u.X.R B a S M c ",
" .c.Q.A.B.B.T.B.e.>.R z a a z z ; E ,.c.c.v.v.v.w.v.v.v.U.v.v.B.v.T.Z.B.c.8.8.c.v.,...e.v.e.v.T.T.U.Q.v.c.r.O.7. .( ` D B S S I ",
" .o.O.%.%.7.7.o.] W D V D D R I 7 V E <.,.-.1.-.e.r.r.<.c.t.w.t.c.c.<.c.<.<.8.<.<.-. .r.,.e.v.<.e.v.v.v.u.c.>.7.7.X.( E R (  .E ",
"A N c V R R R S B z V I I D E / ;  .I -.,.>.,.,.>.>.O.<.,.>.>.>.,.<.8.8.7.7.>.q.w.c...7.r.v.w.<.<.3.<.O.7.8.O.]  ./ (  .` ..( R ",
"a a p p a 8 a a p i i s p 8 a 8 O V V I  .....-.,.-.O.-.O.3.0.O. .,.7.>.c.>.7.7./  ... .7.7.7. .( ] ` ( ^ R X.D R M S S V V M a ",
"5 u u k l v k 5 < < 1 1 9 9 < 5 7 < 5 - - < < > 6 # # 5 9 5 6 < < q y j l j u y l l k q v v j 6 j j j v v l j q j v l j w j j 9 ",
"R E O.' S V M 7 a f a s V N N E E R z c c 7 , 3 B 0 7 B ] r.0.S / o.O.q.5. .D ` ( X.( ] O.o.O.5  .D R / R B Y R / ^  .~ ~ ^ ( S ",
"c V R  ...E W Y ( E ' [ I R ..W Y s a V w 7 3 C B g c S 7.7. .^ M.i.D X.S X.~ ] >.4.q.O.0.u.0.7 7.o.E E O.,.4.,.>.....O.O.] ] V ",
"} ,.8.4.8.,.>.E ] o.>.;...-...I U I M V s 3 3  .S N M ^ ,.7.2.;.i.7.] 4.O.7.u.u.r.0.v.q.3.>.,.8 0.0.,.O.2.r.8.o.{ 8.7.y.,.E { ] ",
",.>.>.;.:.<.>.E -.,.>.-...{ ..] W } [ I s 8 p 2.] ` ..` 4.>.{ 8.M.0.4.v.!.B...( 7.>.M.C.3.0.3.; 3.o.~ o.,.7.;.T Y ..} 7.,.>.>.;.",
"0.y.u.u.r.4.,.7.;.>...{  ...O.E ] -.E N 4 s M 2.E ^ 4.>.,.{ ..0.r.;.4.0.0.{  .( 0.<.w.0.o.0.q.8 q.7.4.7.z.u.0.4.{ 7.o.#.0.r.0.>.",
"8.7.7.4.3.o.5.4.4.>.X...;.;.,. .N h p p s U 2.2.i.u.8.{ Y S E 7.i.3.4.0.u.5.0.z.q.u.c.c.u.l.0.7 N.M.r.l.Z.N.0.O.o.7.3.7.0.7.r.2.",
"V b A V A B M M S V M M c B a * * * * 1 2 p h h B N M p 0 a s A c z M b m B S B a M M c a c c - B b S c B M B a a B M M S S R V ",
"~.~.~.R.h.6.5.f.%.*.5.f.5.5.6.#.# } d.2.f.6.k.x.f.x.~.).H.2.5.f.n.x.` f ` ` 5.#.^ 9.l.C.H.L.%.9.l.H.V.V.).^.^.H.^.^.C.A.A.H.H.~.",
"[ ' [ ! ! W ! U T W U ' ' ' ' ] , Q ! Q ! ! ! } } } } 6.} } } } { ;.} Q o.4.4.} U ;.;.2.>.4.S Y 8.y.O.' o.2.4.:.' o.[ ^ ' } ' W ",
"} } -.! T T ! U N U ' { ' ' ' ' , h Z H H ! ) ^ } ' } | } } } } o.} 2.} } 4.y...2.w.y.6.4.y.Z s 5.4.5.o.{ ' ^ T ' ' ' T T ' [ :.",
"6.2.2.[ ! } ' ' ^ 2.4.2.6.6.2.;., Z Z U Q Q ! ^ | ! ! ' ` | ` | %.3.#.2.} 6.h.y.y.y.o.{ o.:.4 a 2.{ } ^ ` } } { ..{ } o.o.} { 4.",
"' ' ^ ! ! ! ' ! ! } } :.2.' ! ! , Z Z Z Z Q Z Q ! ! ! ! ! ^ ) ^ ( ' ' ] { } #.3.4.2.{ N d d 4 s Y M c S ! ' ' ^ ' ^ ' T ^ ^ T } ",
"T T ' Y U h U Q ! } } [ ' U U T , Z U Q ! Z Z Q { } } | ! | ' ! ^ ) } 4.4.2.2.3.8.6.! i o & & & , 7 p h ' 2.o.[ ] Y Q U T Q Z Y ",
"W I h U U d U d U T L T T T L h , U U ! ! U U U ! ' ' ' ' } ' { { ! { ! T ' ' } ' U d 2 & p O 4 T Y N U I T L h U T T W W L I ' ",
"2 : & : % % % = % 2 4 % % % % % & 2 2 2 2 & & & , 2 4 i , 4 4 4 p 4 3 s M N h p &   . & 2 g = i g s s p s i p p s 4 4 4 i i 4 4 "
};
