/* XPM */
static char *red_sand[] = {
/* columns rows colors chars-per-pixel */
"64 64 107 2",
"   c #732F0E",
".  c #7E3513",
"X  c #843613",
"o  c #8B3714",
"O  c #843B17",
"+  c #8C3B16",
"@  c #843E1B",
"#  c #8B3D1A",
"$  c #933C15",
"%  c #9D3E16",
"&  c #933E19",
"*  c #9B3F19",
"=  c #86401F",
"-  c #8E411C",
";  c #944117",
":  c #9C4216",
">  c #94431C",
",  c #9C451C",
"<  c #95491E",
"1  c #9D491E",
"2  c #A2410E",
"3  c #A24316",
"4  c #AA4516",
"5  c #A84816",
"6  c #A2461B",
"7  c #AB461A",
"8  c #A44A1E",
"9  c #AB4C1D",
"0  c #B34716",
"q  c #B24913",
"w  c #B14E1C",
"e  c #A7501E",
"r  c #AD511E",
"t  c #B3521E",
"y  c #BA541E",
"u  c #BD581F",
"i  c #8E4521",
"p  c #934622",
"a  c #9B4620",
"s  c #954922",
"d  c #9D4B22",
"f  c #9B4F29",
"g  c #9D5024",
"h  c #9E532B",
"j  c #A14722",
"k  c #A44D22",
"l  c #AA4E21",
"z  c #B24F21",
"x  c #A55124",
"c  c #AC5323",
"v  c #AD5826",
"b  c #A55329",
"n  c #AB5629",
"m  c #A75929",
"M  c #AD5A2B",
"N  c #B35523",
"B  c #B95623",
"V  c #B45926",
"C  c #BB5B25",
"Z  c #B25629",
"A  c #B8572B",
"S  c #B45C2A",
"D  c #BA5D2A",
"F  c #AE5E32",
"G  c #B45D30",
"H  c #BE6126",
"J  c #B6612D",
"K  c #BC622C",
"L  c #BF6A2B",
"P  c #B56333",
"I  c #BC6431",
"U  c #B76935",
"Y  c #BC6934",
"T  c #B36438",
"R  c #B96B3A",
"E  c #C15219",
"W  c #C15D25",
"Q  c #C15E29",
"!  c #C36126",
"~  c #CA6326",
"^  c #C3642B",
"/  c #C9662A",
"(  c #C4692E",
")  c #C96A2D",
"_  c #D06A2C",
"`  c #CC702F",
"'  c #C26631",
"]  c #C86431",
"[  c #C46C32",
"{  c #CA6E33",
"}  c #C16E39",
"|  c #C57136",
" . c #CC7234",
".. c #CC7639",
"X. c #C6783E",
"o. c #D27433",
"O. c #D17837",
"+. c #D87836",
"@. c #D27C3B",
"#. c #BD7A49",
"$. c #C17441",
"%. c #C67A41",
"&. c #D0813E",
"*. c #CD8447",
"=. c #D38141",
"-. c #D78942",
";. c #E59146",
/* pixels */
": n V D 1 t 3 6 k [ ! ! c : s c ..9 1 y l 6 k > M - Z k j B 5 7 V ) V K 8 [ w ( I , c 1 : t t Y > k c V 8 ~ l 6 & k P t l 8 Q o.",
"N l z B P I y d l D ; w C c c s K c K t w N K c j x v r d , ; n V 9 V  .n . B k N 1 h D V / w v c n v D D 9 S ^ c j > k l N > D ",
"$ 9 l D D N D r V v V / B C d c [ 8 l , V ^ c D c V 8 x X.8 b y N ~ V v S B S l P s + v r n u 9 D * C / 5 K - 9 x 9 v j 8 N Z 9 ",
"t S S Z B N 9 c N H n C _ N n n l N V C m D ^ C B N c w B l 9 C 7 V c k m n K l 5 > V C V d 1 8 C S l 9 c ) N 8 c > > v , S V D ",
"1 ; c a c m S j D V Z x ] Q V S K p D n b ^ ! > M , x x ^ B B 9 C $  .S a d D & l Z B K r < ! B c C j B B v c V 8 + j | N > l w ",
"v ) B D Q , g I 1 ^ v N  ./ Z l K l l N N k v N N B S Z c r B [ 9 v r d S b c Z k k o K j 9 r r K K C ! B C ! c ^ V e D 9 N c / ",
"N e t c 6 v = l ~ r 7 y z k N V C K K ! D Z B N ! Z D N c S Z l 5 n x s b l N v v p c D N t _ 9 C  .k J N N K C x c 1 Y o.H v u ",
"{ y < V D S c 8 y v B c 7 a , Z S / v ! S Z W v a N l v V V n c k & 8 j > ^ C K S l , 9 N c 9 ) H e V N B ^ ^ V u r k 8 J V ^ B ",
"Z ! k c D ( B  .J , D V B v C l v D k [ S S N a c D l z V k x 6 b c N x 1 k 8 K S K l V r J B t V B V K N 9 A k t c x e k < B , ",
"Y C > k 8 D e W w V D w k x C V V l ' B ' N t t D d l j l D @ K d v v h J Z ) V A n $.n v V r | S 9 V Z 7 l n 8 S b B ! o < 8 t ",
"l K v k g ! 9 k t W y 9 ( Z N D Q K Z l l S 8 , x 9 o Z s k 6 l l v x d m S B K N S N I N 9 B K V N p 8 z * 6 I D r J e ; , , , ",
"8 I K 8 b r V ' W W D ^ K S K Z D ~ 9 A c ..Y z D S b k b a B 6 S ! l h M o V 8 x m s K D x V C c W n t 6 w z k r r v ! N c Y v ",
"l t ! ! * 8 M =.! ! c n c G V c N 9 , , 1 l 7 B K B t ~ l Q l S Z c x N b v M I ' F l D { B ( ) 6 c 9 6 2 9 K , ; n , e 8 ! c 8 ",
", j ! 7 3 [ K K S J w V N n C l W N 3 Y , a l D , v ! 7 N c k V n l J C ^ x | R G b & D D V v J o 9 8 , c v v > m - M V > x Y d ",
". > K D Q G l l U D E J D l N V V > , M m c k Z N 8  .4 %.V B w w 3 k K J c M M x d I S s m s C N k 9 ^ J w 9 k v C c ) ) k D e ",
"d n k N K ' ' Q k ^ V N V z c J k m j I k o z Q 3 D $ W C X.N V K 7 c d 8 Y m n  .x p > M D 1 C I < *.` y c D S l z B ) [ 6 { 8 ",
"N l k D S Z k T B c r V &.; ;.J v V w 9 9 l , 3 k [ N B D V B H 8 4 V [ ) S x d g K F J P d 9 S v v N V l l v D V N 9 ! 9 & k 9 ",
"V Z 8 , ^ 9 l d ! B N 1 V ! ) | 6 9 u r K , , z z l k k o./ D ) N 8 o u I C v 1 } L . v K > X.c P I z l l D D p l , t t k D V 8 ",
"S c 8 , t 9 D > 8 Q L Z , B  .8 V w H C ! c D S z z D Z V D N D c 9 3 D r V V N v / v ^ C d R n c l N w c k z V D B ! B j k , N ",
"$ k 8 9 5 , J j C ^ C Z V 5 v 1 N B D 9 9 Z B k 0 B V n b 6 p B W c o.N H V V C n ; . v V N v 1 N 9 D ^ K D B N 8 c B J 8 U , s ",
"! , Z ^ K 9 , , 8 8 l S p > > q 3 C z k n l l / W D c C S c , ; ' D C l 8 8 ! ..1 1 t K D c V Y ..! K ! V v Q N B ^ W N k x N N ",
"x 9 x l v d V 9 > @ l D N K k C c 6 C a 8 l S M c x N l T k S c l k Q Q N S N k > < v v S c 9 e V ! y D x H ; 8 ^ 9 V N x S N 7 ",
"> l M k ^ 8 J ! 9 9 l x V v ^ ^ c B l D ^ D D l N c x x c S ' c Q j N D k c r n x B r 8 > v ` e ` C y D = x J 9 N c > l k c B $ ",
"V b N B c c C W ^ ) & V d V W B w : D > D n ! +.t n V j N N Z Z S R S D x v 8 ; > V B N V v v ! ^ y e H > x v 9 d d < ) k B D n ",
"N > k c 9 9 N W C d ; S C l v B w 9  .V V D D Z ^ k > N Z B c l j S / V y v V H > Z t B C t 1 ` t [ , z v N N B V D x 6 6 B k > ",
"D l V x N V y 9 U > N D Z N N G ` W N c I N D S d b { ; V 7 o , n v ] E ) c c x v < V N N H H ) L K N c k Q , ^ a * 8 , w V k K ",
"8 v c N D ! B N Z [ 6 Z e ^ v  .C ' l [ K > 8 B C j v / l l ; 9 1 > ] Z v J 1 . 1 x 8 x J Z ( C 5 x 9 , l K ^ N v c D w B : J j ",
"l x P / t V V B [ k l l , w c S N V ^ k D B B 6 8 j c > V D d C s D V v 8 8 , x e H , 1 d K V K c 8 V N S 1 l S l c 8 } : V v 9 ",
"  N 5 N #.k k D b k k v c j d D D N 8 l v V Z l 5 [ C ; D c , l > N v V 9 x 9 v r V < r S S v W y N ~ y N C N K 9 l c V B V ! J ",
"v 8 l v D S d r C [ 8 D H 8 D V N s c 7 z 9 c ^ 9 B 8 l # S N , l n j d N d [ r 8 N r C 9 D C 9 S 8 r c v ..9 V B ; N C D ! v m ",
"N c 8 k v x N + c K 8 S D C C C D I n S D 6 D k D { C l ' l N B N ( k 8 N V c v 9 V V ! B D [ ! ~ x V c @ n 6 v S 6 9 ^ B S : # ",
"x k l D W x c n Z c d M N u 9 D D d N D c 9 k Z N Q V X , t D S l K v t r , 6 $ ^ e c ! V 1 =.x C K x H v j S x n 8 v Z j m ( B ",
"r N x c C K y v S v F M B C x g 9 S B ! c & 1 l N N 6 6 B C J 8 O l 7 u B N v ; C c > c v J S ' c C c N 8 6 > k 6 l C N N [ C B ",
"D H 9 D j ^ 8 n c x K J c l D J B z C l Z N c C , H 5 c V ! e , l j 7 B 8 L 8 8 V y V K v D c 1 C c , l 9 d c 6 D B v D ^ v N 6 ",
"x 8 x > , 8 , 9 0 n B ^ w c N c D 8 c k f v D n N t m e 1 v V N b v U & ^ [ 8 n c K S n K v V C W k C h r B n d [ C v N l [ C 9 ",
"3 t N n e > D ^ V V S V n N C C 9 c S ^ b v v ^ C 9 8 : 9 V C 8 , j D C n v N V n k N n n c @ D B l d > k v > D D c z S v b D / ",
"V K C o , , v s V > x n x x d e x i K N c N N w K B 5 x j 8 N r l l V 8 8 r B c c x V l > v d c v b V B d > > V C C N 9 D D 8 l ",
"x M r B W r V 8 l 9 7 9 p 8 + v K k K c d N n c D N r k k , n [ D l N C Y B B J S l 9 N 5 8 d 8 , 9 e y J x K , n V c D D j 8 S ",
"d M d D K D c D x k B , m r e 6 & l 8 l N C V N ^ V 6 Z V c d I , 9 N b N k v c K 1 V 9 B c S w 7 5 S K V K t 9 k { B 9 D , c S ",
"J V B 8 S S N l N B v p 9 C n D k c v , v c > C B 9 D d 8 k N k S 6 D D 9 1 v J ; r k 9 n c D R J 6 ) Z - = [ V 6 C C } N V V j ",
"L d Z n / N v v l V , l / 9 6 z c c ; l G C D 8 7 C ) V k 8 < S S j V D K D c l k V J 8 Z S k Z N ! , v 8 c Z V N D c S B K Z S ",
"v D V N n ^ , k C y C B t C ) , V V v 8 Z V V 8 w C N v e c + 8 ^ V c c E B 5 N 1 d I 1 ! 6 B N B c B 7 } C k ; 8 k B c 9 C v g ",
"l V C x v V j 6 J c , C p B ^ c 9 6 9 9 3 K [ C K B K k N ) 8 D ) 9 9 N C ! y S 6 Z , V N N l N 6 k K < < 9 H C K V b 9 9 D S l ",
"Z k N D C v c V [ Y N t C l 9 x W B C B D V J K ^ c , D N , x ; | o.V D N 8 d B ! 9 c ; D B V K t J Z K N 3 K D c v %.V N - c D ",
"/ d & B c l , 8 N N c V B S S d 8 l B N 8 v t B 5 c N C c 7 k 4 2 v N 5 ' N C V w ! D c 9 l S k v v v r : 9 : B N c 9 d ' w l V ",
"S v d ; 8 k j k V v C 9 9 k k b N K 6 c d n 8 j ^ D l C J 9 v S t e B 1 N N V V v x 6 / l ^ S Z k N B V 9 8 v N k K W c n c z Z ",
"T z A , k F d n N C t c N V b c D N l W 8 l 8 N B : l k K k ^ D N H 9 8 D D D { N ( c N 9 N l l k V N 8 v K % N 6 w N k b c Z b ",
"8 N 7 v M k V t k N c x Z  .C N V J V 9 K v x V V > x N x S N ~ 6 9 N v v l ^ { Q ^ D C c w l b D N b c M t c n N c c j S p V { ",
"o.w 8 l , Z 6 N k n S @ N C i v V 7 k V Z D , V l 8 W N 8 ; D N B 7 K v D c ^ D K J 8 B 9 | ( Z N V V c V 9 B l l a , l 7 8 B Q ",
"^ ^ l 7 & 3 & l 9 9 x c k c n N %.w K j > c 6 w V K y C B 8 c K ^ ^ / B I Z D K < 1 c D 8 ! N d j J d - 6 c ^ V l v x ^ t V V ] ",
"% l c l l , c 9 u ! e 8 1 K ! c V c j b c C V S 9 B D 9 k C t [ 8 c C c , ^ J 6 B C Z k , S v , k d b c B 9 J r l 8 S 9 S V C N ",
"^ C S Q 6 v c w V B , $ k d K D ! P D b ^ D c c V [ 5 J l / 6 l D l N 9 , S K k b 9 N N p k v Z c l x V / N ^ V c 8 K 9 + W 9 9 ",
", N > 8 8 V c Q l k M 7 w D / M ..S V V N Z N V v D D D S N Z w c C B 9 B Q B c v * > k Z c > l @.C ^ ! ( B C 9 V B M B V B k K ",
"b c S S S V n N b , a 6 K ' D 6 V K b v , 8 Q z 9 c S S N C 7 0 N % ..9 v v v D 9 9 l N { b N x C N ! C V N 7 D ! r v [ D > - M ",
"N Z V K e N N ! c B j c l V l I V D V V C S j 8 y 5 n l c V 9 } % D W : V 8 > n n ~ 8 ( D l c 9 s N y 9 C 5 B C v k > [ N N S ^ ",
"k C V l k c D B C k D B C k d V 9 N N ! 8 c V N D C 8 & c l 6 j 9 > V ( 1 ` e O 9 5 x 8 c 9 k N 8 D D ^ | V S B N K k S r ^ c 5 ",
"c [ N C 8 n D W 9 N ^ Z / 9 S m k M c v N > C D B k K c 6 j a t v l z D l -.[ R ! ) 9 N C N D 8 V V ..6 J S D l > , M l n 9 n Z ",
", 8 c V V 6 V B S v V Z ! c F x e V v c B D l k b , N c a k & 8 B k l l D V B C r t o., c ^ C N K C K S 8 N V D V l l ! V n 8 N ",
"r N D 9 v x K ^ 9 9 c Z d N g v n B l V K N r / N Z n 9 n S * k D N K V , r S D , ^ K [ S V ; v v 8 V , c ^ w 6 w 6 9 5 L 8 x 8 ",
" .5 v N K r D K 8 ! 9 l m 1 x c v ^ 9 v ) S D l l B k k x Z p V S D 9 c y J B t 9 H ..8 , V > > v C t C t B W ^ 8 ! c , 1 8 , t ",
"n 8 S ) K D k N c I < L [ k v , , l 5 H V c ^ k , c V 7 k l j c 4 9 7 S x a x V v N V c B , / > 6 S v ; C & B C v H ) 3 C J 5 V ",
"9 ^ t k v v M K N v D o.O.x N K W v D [ W 6 k 6 c N z V v c %.^ c 6 N k N : D V C | k S t c 8 N V [ Y V N K c l k 8 S H 1 v 9 C ",
"c D 7 N D x V D d V B c J 9 8 V 8 n N n v Q s v 8 S D k > , y c D ] V , N ; N N x K k N c 8 9 6 < D w D l B v j 8 N B B j ^ K k ",
"N N $ g n 5 , c V < N / U 1 a n 5 Y l c V k p V K I k R x v  .K B K V , V r j ^ Z N & x > x $ , k + B  .D 5 o > c D v 5 V t , 6 "
};
