/* XPM */
static char *reeds[] = {
/* columns rows colors chars-per-pixel */
"64 64 256 2",
"   c #18280E",
".  c #1B2D12",
"X  c #1D2816",
"o  c #1E3212",
"O  c #1F3E12",
"+  c #242919",
"@  c #223314",
"#  c #233C15",
"$  c #283D17",
"%  c #243519",
"&  c #2B361C",
"*  c #263C1A",
"=  c #2A3D1B",
"-  c #34371E",
";  c #2C3B22",
":  c #253221",
">  c #383E29",
",  c #393D32",
"<  c #463C27",
"1  c #254216",
"2  c #294316",
"3  c #2A4917",
"4  c #274319",
"5  c #2A441B",
"6  c #2D4B1C",
"7  c #31451D",
"8  c #324C1E",
"9  c #2E531B",
"0  c #2F5C1C",
"q  c #33541D",
"w  c #345A1E",
"e  c #395B1E",
"r  c #3C571F",
"t  c #3C631E",
"y  c #2D4523",
"u  c #2F4A21",
"i  c #2F4029",
"p  c #324525",
"a  c #334C25",
"s  c #394C24",
"d  c #354B2C",
"f  c #394E2E",
"g  c #374329",
"h  c #355423",
"j  c #3A5423",
"k  c #355B22",
"l  c #3B5C23",
"z  c #36522B",
"x  c #3B542D",
"c  c #375B2A",
"v  c #3B5D2B",
"b  c #354431",
"n  c #3A4D31",
"m  c #3C4236",
"M  c #3C5133",
"N  c #3C5C30",
"B  c #3C6323",
"V  c #3E6923",
"C  c #3D622B",
"Z  c #3F6B29",
"A  c #376122",
"S  c #3E6132",
"D  c #424926",
"F  c #425D2B",
"G  c #47512D",
"H  c #575A2E",
"J  c #454A37",
"K  c #564C37",
"L  c #435535",
"P  c #435B34",
"I  c #4A5E35",
"U  c #44553B",
"Y  c #445C38",
"T  c #495C3B",
"R  c #4A5434",
"E  c #525A3A",
"W  c #585B37",
"Q  c #675F3D",
"!  c #426425",
"~  c #436A25",
"^  c #496D26",
"/  c #42642A",
"(  c #446B2A",
")  c #496C2C",
"_  c #4A632E",
"`  c #46732B",
"'  c #4B742D",
"]  c #4D7A2C",
"[  c #497327",
"{  c #51752C",
"}  c #537C2D",
"|  c #446632",
" . c #456B33",
".. c #4B6C33",
"X. c #4C633A",
"o. c #4C6D3B",
"O. c #476737",
"+. c #53623E",
"@. c #536D3E",
"#. c #596536",
"$. c #4C7331",
"%. c #4E7A32",
"&. c #4E743A",
"*. c #467130",
"=. c #517432",
"-. c #537B33",
";. c #597D34",
":. c #54733C",
">. c #557C3B",
",. c #5A7D3B",
"<. c #59743B",
"1. c #506127",
"2. c #64673C",
"3. c #67793E",
"4. c #4F544B",
"5. c #55584C",
"6. c #4E4E45",
"7. c #675C44",
"8. c #735641",
"9. c #4B6946",
"0. c #516445",
"q. c #55664B",
"w. c #5B6B4C",
"e. c #566A44",
"r. c #5A7542",
"t. c #547C42",
"y. c #5B7C43",
"u. c #597647",
"i. c #5B6951",
"p. c #5C7A56",
"a. c #4D7044",
"s. c #686845",
"d. c #607C41",
"f. c #667749",
"g. c #75734D",
"h. c #686A58",
"j. c #756E54",
"k. c #687B58",
"l. c #787657",
"z. c #7A6649",
"x. c #687B62",
"c. c #727A6A",
"v. c #797765",
"b. c #706F62",
"n. c #807E56",
"m. c #55802E",
"M. c #5D872F",
"N. c #558133",
"B. c #5B8434",
"V. c #5E8832",
"C. c #56813B",
"Z. c #5C843C",
"A. c #5D8A3C",
"S. c #5B903C",
"D. c #4F8033",
"F. c #618A34",
"G. c #62853D",
"H. c #648B3D",
"J. c #688B3E",
"K. c #68913B",
"L. c #5D8442",
"P. c #5F8942",
"I. c #5E834A",
"U. c #5E8355",
"Y. c #638543",
"T. c #638B43",
"R. c #698D43",
"E. c #63834B",
"W. c #6A844D",
"Q. c #628B4B",
"!. c #6C8B4A",
"~. c #75874B",
"^. c #649343",
"/. c #6B9345",
"(. c #669249",
"). c #6B934C",
"_. c #6D9A4B",
"`. c #729644",
"'. c #71954C",
"]. c #759B4D",
"[. c #779B4B",
"{. c #6B8454",
"}. c #658B52",
"|. c #6B8D55",
" X c #65895D",
".X c #6A8E5C",
"XX c #658458",
"oX c #728B54",
"OX c #72835C",
"+X c #788759",
"@X c #6C9454",
"#X c #6E935C",
"$X c #739B52",
"%X c #71945C",
"&X c #759A5D",
"*X c #779755",
"=X c #7DA256",
"-X c #7EA35B",
";X c #77A457",
":X c #6B8C6A",
">X c #698967",
",X c #6F9361",
"<X c #6D916A",
"1X c #7C9E64",
"2X c #759668",
"3X c #7B9976",
"4X c #6F8A71",
"5X c #7BA164",
"6X c #7DA468",
"7X c #7FA47A",
"8X c #828B5A",
"9X c #848555",
"0X c #829357",
"qX c #91895F",
"wX c #82A55C",
"eX c #82AC5E",
"rX c #878767",
"tX c #93896C",
"yX c #859A66",
"uX c #99986D",
"iX c #918D76",
"pX c #A59A79",
"aX c #84AB64",
"sX c #8BAC64",
"dX c #8BAB6B",
"fX c #89A762",
"gX c #90AE6C",
"hX c #8AB366",
"jX c #8CB569",
"kX c #93B16E",
"lX c #8AA97C",
"zX c #89A973",
"xX c #92AC7C",
"cX c #91A279",
"vX c #93B272",
"bX c #98B678",
"nX c #A9A27D",
"mX c #799781",
"MX c #8CA986",
"NX c #94AF88",
"BX c #99B58A",
"VX c #8AAA91",
"CX c #9CB592",
"ZX c #90B093",
"AX c #92AB9E",
"SX c #A2BD88",
"DX c #B7B28C",
"FX c #ACBB94",
"GX c #A2A486",
"HX c #A6C286",
"JX c #B3CC95",
"KX c #B5CD9E",
"LX c #C6DAAF",
"PX c #C3D8B3",
"IX c #CDE0BC",
"UX c None",
/* pixels */
"UXUX/.bX).F UXUXUXUXk >.0  .UXUXUXUXZ.].,.F UXUXUXUX1.d.uX+.UXUXUXUXO ~ wX=.UXUXUXM l @Xt.0.UXUXUXc.' aXhXB.UXUXUXUX8 {.,Xk UXUX",
"UXUX].JX'./ UXUXUXUXB C.h | UXUXUXUXH.gXJ.@.UXUXUXUXD W +Xj.UXUXUXUX# ^ yX{ UXUXUXn t &X>.0.UXUXUXc.) vXHXV.UXUXUXUX6 |.1Xl UXUX",
"UXUX[.LX'.F UXUXUXUX/ %.q | UXUXUXUX8XcXf.E UXUXUXUX8 6 u d UXUXUXUX8 { zX-.UXUXUXM t (.Z.w.UXUXUXc.~ SXJX} UXUXUXUX3 |.1XC UXUX",
"UXUX].IX].F UXUXUXUXZ ' w | UXUXUXUX_ ,XL.a UXUXUXUXs.v 5 a UXUXUXUX9 } SXT.UXUXUXM t T.-.i.UXUXUXUX^ SXKXB.UXUXUXUX6 }.#Xl UXUX",
"UXUX*XPX@XF UXUXUXUXA %.k | UXUXUXUX&.lXoXE UXUXUXUX..v 6 a UXUXUXUXq !.SXoXUXUXUXM t Z.=.i.UXUXUXc.~ BXKXm.UXUXUXUX3 }.&Xj UXUX",
"UXUX~.8X8Xl.UXUXUXUXk ] t | UXUXUXUXC.vX{ X.UXUXUXUXk B 6 d UXUXUXUX- 0.h.R UXUXUXM e ] ~ q.UXUXUXiXg.yX9X~.UXUXUXUX8 %X6Xh UXUX",
"UXUX#.yXX.  UXUXUXUXA ` ~ | UXUXUXUXL.dXA.O.UXUXUXUXB ~ 6 z UXUXUXUX  # z u UXUXUXM q ~ k q.UXUXUX4.. +X+XH UXUXUXUX6 1X&Xh UXUX",
"UXUXw L.! . UXUXUXUXk ' Z  .UXUXUXUXZ.dXB.o.UXUXUXUXB ' 9 d UXUXUXUX. 5 O.c UXUXUXL I >Xs.j.UXUXUX4.* &.$.3 UXUXUXUX8 lX&X6 UXUX",
"UXUXZ (.$.# UXUXUXUXA ] B  .UXUXUXUXT.=XA.o.UXUXUXUXB ] h z UXUXUXUX. 5 a.v UXUXUXn b AXx.b UXUXUX4.6 L.L.w UXUXUX5.h MXzX6 UXUX",
"UXUX*.@X-.2 UXUXUXUXw *.V S UXUXUXUXH.aX^.@.UXUXUXUXB } k x UXUXUXUXo 6 p.| UXUXUXd i 4Xx.b UXUXUX5.e Q.P.~ UXUXUXv.I yXzX4 UXUX",
"UXUX%.$XN.8 UXUXUXUXw ' V | UXUXUXUXH.wXH.:.UXUXUXUX! } B z UXUXUXUX2 j XXo.UXUXUXd y >Xp.m UXUXUXq.B R.(.` UXUXUX+ G nXDXpXUXUX",
"UXUX-.$XB.q UXUXUXUXw ` V | UXUXUXUXG.=X/.:.UXUXUXUX! Z.~ x UXUXUXUX3 C :X,.UXUXUXn y :Xp.n UXUXUXi.~ (.(.` UXUXUX& * x s.pXUXUX",
"UXUXN.$XZ.e UXUXUXUXw ] V S UXUXUXUX'.sX/.r.UXUXUXUX) } =.x UXUXUXUX9 ^ 2X,.UXUXUXn y <XU.M UXUXUXi.' ).^.' UXUXUX; 6 h 3 . UXUX",
"UXUXD.$XH.e UXUXUXUXw V V C UXUXUXUX'.vX].r.UXUXUXUX! m.[ x UXUXUXUXq { zX;.UXUXUXn 4 <X>XU UXUXUXh.B.].^.' UXUXUX& 9 | h * UXUX",
"UXUX] ;XR.B UXUXUXUX9 V V C UXUXUXUX`.sX/.r.UXUXUXUX! F.[ x UXUXUXUXr { dX=.UXUX/.J.a >XU.9.UXUXUXOXM._.^.$.UXUXUX; k t.C p UXUX",
"UXUXN._.`.^ UXUXUXUX0 I.( Z UXUXUXUX;.sX/.r.UXUXUXUXF B.} x UXUXUXUXw } vX=.UXUXUXR.B.V.C.r.UXUXUX/.V.R.R.,.UXUXUXp k #X .f UXUX",
"UXUXdX*X=X{ UXUXUXUXk }.~ C UXUXUXUX`.sX`.y.UXUXUXUX! F.} L UXUXUXUXe ;.kX;.UXUXUXM 0 A.H.} F.Y.UXT.M.!...B.3.!.UXa C ,X%.M UXUX",
"UXUXH.sX[.^ UXUXUXUXl C.V v UXUXUXUXF.vX'.d.UXUXUXUX! F.;.F UXUXUXUXe F.dX;.UXUXUXM c >XI.9.f.-.,.$.H.Z.{ -.r.A.H.s / |.t.M UXUX",
"UXUX{ kX].{ UXUXUXUXw ] ( c UXUXUXUXH.bX[.r.UXUXUXUXF H.B.N UXUXUXUXl F.dX;.UXUXUXM C <XI.q.UXUXOX=.{ wX-Xu.UXUXUXL C @X}.P UXUX",
"UXUXR.=X*X{ UXUXUXUXq $.Z k UXUXUXUXH.bX=Xr.UXUXUXUX! J.F.P UXUXUXUXt H.vX;.UXUXUXM C 2XL.q.d.m.%X{.=.wX[.{.UXUXUXI w &X}.Y UXUX",
"UXUXB.=XwX{ UXUXUXUX9 ` Z 6 UXUXUXUXJ.SXwXd.UXUXUXUX^ R.H.N UXUXUXUX! J.NX-.UXUXUXM B 6X:.) B.F.~.w.!.G.K.W.UXUXUXY / &X}.N UXUX",
"UXUX;.wXwX} UXUXUXUX9 *.Z 6 UXUXUXUXJ.JXkX,.UXUXUXUX^ [./.P UXUXUXUX~.xXFXrXUXUXUXM B MXy.`.K.oXW.<.~.vX/.f.UXUXUXL ) &XI.Y UXUX",
"UXUX;.-XsX{ UXUXUXUXh &. .1 UXUXUXUX!.LXvX=.UXUXUXUX1.wXR.F UXUXUXUXl.+XoXE UXUXUXn B MXfX/.oXUXUXW.G.gXR.k.UXUXUXU / P.>.Y UXUX",
"UXUX-.wXsX{ UXUXUXUX2.3Xu.1 UXUXUXUXg.9X~.3.UXUXUXUX<.9Xn.+XUXUXUXUX1 k V u UXUXUXM B BX[.OXUXUXUXw.=.*X^.k.UXUXUXT Z @X-.Y UXUX",
"UXUX..BXdX' UXUXUXUXs.l.rXj.UXUXUXUX$ $ a % UXUXUXUX> y # d UXUXUXUX3 t ~ k UXUXUXx C lX/ UXUXUXUXe.H.f.1XOXUXUXUXT C T.] P UXUX",
"UXUX_ FXbX[ UXUXUXUX. 4 O o UXUXUXUX5 O.N O UXUXUXUX% 4 4 z UXUXUXUX3 V ~ w UXUXUX0.h lXq f UXUXUX@.Z.oXo.k.UXUXUXT Z T.-.Y UXUX",
"UXUX2.rX+XH UXUXUXUXo c 3 1 UXUXUXUXy O.N 5 UXUXUXUX@ 5 6 z UXUXUXUX3 ! ] C UXUXUXI ...X2 y UXUXUX+.2.+XG v.UXUXUXT / P.` O.UXUX",
"UXUX@ &.#.D UXUXUXUX# c h 3 UXUXUXUXu a.N 5 UXUXUXUX. u 9 x UXUXUXUX3 ~ } / UXUXUX5.n.h.4 y UXUXUX& H o.c g UXUXUXU ~ Z.=.Y UXUX",
"UXUXO t.y.I UXUXUXUX* C k 2 UXUXUXUXh a.S * UXUXUXUX. q 9 x UXUXUXUX2 ~ -.( UXUXUXs.pXtX7.y UXUXUX4 3.L.C d UXUXUXU ~ @X' Y UXUX",
"UXUX1 L.T._ UXUXUXUX4 N c 5 UXUXUXUXk a.v 6 UXUXUXUX@ q q x UXUXUXUX3 ^ A.$.UXUXUXK x.c.X a UXUXUXs d.Q.| M UXUXUXM ~ 5XL.Y UXUX",
"UXUX6 C.G.! UXUXUXUX4 c c 5 UXUXUXUX/  .N 6 UXUXUXUX@ k w x UXUXUXUX6 ' T.' UXUXUX@ >X3X+ y UXUXUXx =.Z.) M UXUXUXx ) 5XC.q.UXUX",
"UXUX6 Z.P.l UXUXUXUX4 v C 5 UXUXUXUX~ t.o.k UXUXUXUX4 C t x UXUXUXUX3 [ R.=.UXUXUX* :XmXo y UXUXUXU =.Y.%.U UXUXUXx ( 5XL.q.UXUX",
"UXUXh T.!.! UXUXUXUX5 S v 6 UXUXUXUX( L.&.l UXUXUXUX2 ! B x UXUXUXUX3 [ ).-.UXUXUX3 2XMX% y UXUXUXU -.).-.M UXUXUXP V 1X>.q.UXUX",
"UXUXC ^.(.F UXUXUXUX5 S N 6 UXUXUXUX_ Y.$.C UXUXUXUX3 ! B x UXUXUXUXa [ ).-.UXUXUX8 <XMX* y UXUXUXM =.).Z.P UXUXUXL B %X&.e.UXUX",
"UXUX~ @XT.k UXUXUXUX5  .| 6 UXUXUXUX^ ).Z.l UXUXUXUX3 ~ t x UXUXUXUXs ~ (.{ UXUXUXs ,XMXy p UXUXUXx ..@XP.| UXUXUXU w @X>.a.UXUX",
"UXUX) (.T.j UXUXUXUX5 | S u UXoXUXUX) &X).~ UXUXUXUX3 ^ t x UXUXUXUXx ~ '.} UXUXUXs ,XMX5 y UXUXUXf ( ).L.o.UXUXUXU k %XI.X.UXUX",
"UXUX( (.B.j UXUXUXUX5 | C a UXB.!.UX~ *X'.` UXUXW.Y.j } ~ x UXUXUXUXM t 1X-.UXUXUXj #XNXh y UXUXUXM ( R.L...UXUXUXU h ,XE.N UXUX",
"UXUX` ).G.k UXUXUXUXy | v j G.F.T.UX) $XR.B.G.B.Y.k.r ;.[ x UXUXUXUXM _ xX,.UXUXUXx .XZXx y UXUXUXM ! (.T...UXUXUXj.g.GXpXj.UXUX",
"UXUX) (.;.j UXUXUX=.Z.;.,.-.G.B.G.UX^ } m.} Y.UXUXUXj ;.] M UXUXUXUXJ e.s.d.UXUXUXF .XBXv p UXUXUXM ! H.P...UXUXUX, o s.6 # UXUX",
"UXUX$.).Z.j UX>.,.-.$.( ` { o.G.) Z.' R.*X} E.UXUXUXF N.[ N UXUXUXUXX   y B UXUXUXP |.CXF y UXUXUXM / /.T...UXUXUXJ 1 1 h 6 UXUX",
"UXUX] ).Z.j UXUXUXUXu C k y UXG.) e.) dXfX=.UXUXUXUXF ;.[ F UXUXUXUX< o h Z UXUXUXX.E.CX/ i UXUXUXn ! ).R...UXUXUXn 1 9 A 9 UXUX",
"UXUX-.@XZ.h UXUXUXUX6 | k a UXr.OX1X;.*XbX$.UXUXUXUXt B.} x UXUXUXUX5.. C ( UXUXUXX.E.CX/ y UXUXUXL ! (.Q.$.UXUXUXn 6 k ( 9 UXUX",
"UXUX-._.Z.j UXUXUXUX5 | C a G.!.W.s.N.M.J.uXUXUXUXUXr ;.*Xk UXUXUXUXh.. ` ) UXUXUXX.y.BX| a UXUXUXM ! Q.^.) UXUXUXn 4 h Z q UXUX",
"UXUX-.&X,.8 UXUXUXUX9 ..C v T.'.UX/ ! K.`.qXv.UXUXUXpXDXpXtXUXUXUXUX5.5 $.[ UXUXUX+.>.BX..a UXUXUXM ! ).@X) UXUXUXf 4 q V 9 UXUX",
"UXUX=.|.-.s UXUXUXUX6 | C a UX!.Y.X.o { `.0XUXUXUXUXz.W 1 a UXUXUXUX6.2 %.( UXUXUXf =.xX( a UXUXUXU j L.oX/ UXUXUXn 4 k Z 0 UXUX",
"UXUXg.2.7.W UXUXUXUXh O.C 6 c.<.UXUX1 B 3.fXUXUXUXUX2.q q a UXUXUXUX> 8 $.` UXUXUXM [ NX_ d UXUXUXv.Q #.2.s.UXUXUXn 4 k Z k UXUX",
"UXUX1 6 < K UXUXUXUXx u.| * 0.W.UXUX3 B t _ cXUXUXUXG e t h UXUXUXUXb q %.) UXUXUXf ! lX( n UXUXUXb 8.y 6 1 UXUXUXn $ w ` w UXUX",
"UXUX0 l s - UXUXUXUXuX2Xo.a f.UXUXUX8 B B e x.UXUXUX$ t Z c UXUXUXUXm | Z.( UXUXUXM B yX..M UXUXUXn < h 0 0 UXUXUXf * w Z w UXUX",
"UXUXB Z j % UXUXUXUX& tXuXD E.UXUXUXq B V e UXUXUXUX2 V V j UXUXUXUXn q >.( UXUXUXM q |._ b.UXUXUXn p k V A UXUXUXz 4 w Z w UXUX",
"UXUXV ( v % UXUXUXUX# 4 * + UXUXUXUXq ! B w UXUXUXUX2 V B h UXUXUXUXJ ..-.[ UXUXUXn 3 o.! b.UXUXUXa p k Z V UXUXUXd * w B q UXUX",
"UXUX` D.C % UXUXUXUX4 9 6 % UXUXUXUXe ~ ~ q UXUXUXUX2 B V j UXUXUXUXU h -.) UXUXUXn > s.R b.UXUXUXp 7 | D.V UXUXUXa * k B w UXUX",
"UXUX` (._ ; UXUXUXUX8 q 6 y UXUXUXUXh ~ ~ q UXUXUXUX$ t B j UXUXUXUXT q %.) UXUXUXh.J q.Y m UXUXUXa s $.^.V UXUXUXy * q B w UXUX",
"UXUXD.S.$.* UXUXUXUX5 C 9 y UXUXUXUXr ( ( q UXUXUXUX$ t V I UXUXUXUX4.w %.~ UXUXUX< : mXU.a UXUXUXM 8 C.S.~ UXUXUXy * 9 A 0 UXUX",
"UXUX] S.] y UXUXUXUX9 B k a UXUXUXUXq [ ~ k UXUXUXUX$ e V I UXUXUXUXU w $.~ UXUXUXd : mX Xd UXUXUXM 8 A.S.~ UXUXUXy * q B t UXUX",
"UXUXN.^.$.5 UXUXUXUXh Z w d UXUXUXUXe ( ( k UXUXUXUX5 t V I UXUXUXUXn w -./ UXUXUXb ; VX#Xd UXUXUXn h A.^.*.UXUXUXy * h B w UXUX",
"UXUXS.;X-.7 UXUXUXUXC Z k n UXUXUXUXe [ ) F UXUXUXUX7 l V I UXUXUXUXK Q f.#.UXUXUXb b VX.Xf UXUXUXM k T._.N.UXUXUXy 5 9 B w UXUX",
"UXUXP.;X] 7 UXUXUXUXC Z c v UXUXUXUX! -.` v UXUXUXUX8 l ! I UXUXUXUX; 2 a G UXUXUXn p ZX#Xd UXUXUXn q ^.;XC.UXUXUXy p q k w UXUX",
"UXUX(.hX-.5 UXUXUXUXk  .C C UXUXUXUX! -.' j UXUXUXUXs ! ~ X.UXUXUXUXM C I.u.UXUXUXn y ZX#Xx UXUXUXM e _.-XZ.UXUXUXy * q A w UXUX",
"UXUX).hXB.7 UXUXUXUXh *.C C UXUXUXUX! Z.=.F UXUXUXUXs B [ I UXUXUXUX0.~ }..XUXUXUXn 2 ZX}.M UXUXUXn e _.aXQ.UXUXUXy * 6 A 9 UXUX",
"UXUX_.hXB.8 UXUXUXUXh ( v C UXUXUXUXF L.>.F UXUXUXUXa ! ~ P UXUXUXUXq.( .X{.UXUXUXn 2 7X}.x UXUXUXn t _.hXH.UXUXUXy % 6 9.h UXUX",
"UXUX_.hXZ.s UXUXUXUXq S l C UXUXUXUX! L.L.F UXUXUXUXs / ^ P UXUXUXUXi.) oXf.UXUXUXn h 3XQ.f UXUXUXn B ].eX^.UXUXUXy @ 5 0.k.UXUX",
"UXUX/.hXH.F UXUXUXUXq ( C v UXUXUXUX| y.>.F UXUXUXUXs / ~ L UXUXUXUXk.~ |.y.UXUXUXn h ,XI.f UXUXUXM ( =XeXS.UXUXUXy l.tXrXR UXUX",
"UXUX^.jX/.F UXUXUXUXh  .w | UXUXUXUX) Z.:.F UXUXUXUXp ! ( x UXUXUXUXw.~ %X>.UXUXUXn k .X}.f UXUXUXL ' eXeXB.UXUXUXy < W e.8 UXUX",
"UXUXK.jX).O.UXUXUXUXk $.q | UXUXUXUX=.!.-.F UXUXUXUXs =.>.G UXUXUXUXT ~ 1X-.UXUXUXn l 2XI.a UXUXUXn =.wXeX-.UXUXUXy = E.#Xh UXUX"
};
