/* XPM */
static char *sand[] = {
/* columns rows colors chars-per-pixel */
"64 64 27 1",
"  c #BCA26D",
". c #C4AC76",
"X c #C8AF75",
"o c #C5AE7B",
"O c #C9AF7B",
"+ c #CBB177",
"@ c #C7B07D",
"# c #CAB37E",
"$ c #CFB87E",
"% c #D0B77F",
"& c #C7B180",
"* c #CCB582",
"= c #CFB984",
"- c #CEB788",
"; c #CFB988",
": c #D0B783",
"> c #D1BB85",
", c #D8BE87",
"< c #D3BD8A",
"1 c #D9BF8A",
"2 c #D6BF90",
"3 c #D8C187",
"4 c #D6C18C",
"5 c #D9C38D",
"6 c #D6C191",
"7 c #DAC491",
"8 c #DFC896",
/* pixels */
"<*:#4>4<>:1=<**#o***;=#*<=O>444<*;>#>=oo*#*@=*<*=<475>@1>#=>;<;*",
".==:<1,12<<>;*=****#***<=#:4==3=<>:*=>*@oo@*##==<<=54>,:#=<==*<>",
"=*:*#>>>57<<>:=:#***#@=**=>=>4=44>4>;=<*=#@***>O=;<<545>1<*@**<.",
"#>**:#<<,54714:>=>:=*==**.**4>>=><144<1=>#=@;*=*==*><>55>1=*<***",
"#*##*:;<>>4444>>>>$=***#oo=**#=*141<<445<=<=><<=>*=><*<5444<=###",
"=;*<<><<<*<45811>4<=<>=*=**@o*=#==><=*3*><4>>;4=#==>>>1>>===:#:>",
"=&<==;==:<:==14<145#:>:>=**#$**##=:$#$*>*=*<4>5;>===<>=144<4<<::",
"<=-7==;*:*==*=315>454:>:=o=******o>:>>**=*@*=*@33;><*<44341><><<",
";<<<-=>*#<#**#>4>>44734:<*:#*=><>:4<>>=#*=#*&@===;<*<4<45774177;",
"=><>*-<=*=;*>>>%>>4>45>41:>>:::=><<>=<==@@#=$**&==##=<>1433445==",
"*125<<<:=<>:;>>:31>>>,154<5>><=*><=<=1=:=*@;*=;;*=*X*<*<3=4458>>",
"1<<1<=;<<=<*#=1%>>>4,5:458251><<41*<#<*=>;*=*=@>===#:=o-*>>%5887",
"<4444=4<>;<*=>@1=>>34<:1<4<84>5<<;=4><=>=*@o@$&&=#=<-*=*<*:>1457",
"<43><446>=4<#=*>+:@%=<<>><*<,471><>7<>=1>=#=#@*#@o@*O*===O=;;<15",
">4735<15>>:##$@:#>:*#=>4%>O=>3#>1>4554$>*===*=;=.O*@***-&&=*>:>>",
";4676<1>,>==*:=:****#@=:>>*>$$>>>74:554>1==4=-=*&-*@#*&*o*#*::>>",
"<=34754>>51=:#>>=>:>#:#@*:#$#%$#>5553733334>44;==&*****oo-=&*===",
"#@:#>555741<>#>:=>=*#::****@=*>:=<=<44575>>3=4;=-**o==*oo**;-&&-",
"==*=>:5457>4:##===>##@**#=>%@*@==<><<47577774=*4<<=&=##=o-o *O#&",
"*==**$:433>:3>>5>>>*#<=.@**@$@###=:#=$>>445545;3>1=>=<#=#*-*o==#",
"@@###===334>5=4>o$:>>*=##:<=##$=:<$#>##*=$=$=$74544>>*#=**=*****",
"@o#=@@@=#3445=4><$=1>#<**%>#$@#%=#*#=@$##=$*=#44>=>>4===#***-o&o",
"*#@#@$##=<35555>=>>>=>*=%$%###$#*=#:$@$=#>X&#==51>717>44<:*o====",
"===@@=##$>=375343<#>=>#*%$$=$$$>#$+==$$=$#=#=====>>>3144,<<==>*o",
"@>**=$#=@#.333754>:#>3$>>#==#>=>=$##*$4===#$*=3=>>*>=>;112>5<<*=",
">##=====$##==37343>>$==$=>>:>>>>>#>#=#*>=*###=$*=>##=>#>#>>55><:",
"3>>$**3$**$$=355533>>>%1>4>>==@*%>>1*>=;<<*$$#=*>>=*#=##*O:>>444",
":#>4=$*@=3=3$=43374>=>>:3>8347>4>>:1<<;1$==$$*$=*>==*=##:===%=>>",
":>*>3*===344*3==3354>4<>3>3457775>><><-<=4>>==##>#****>***=*#:==",
"*=*====3#*= =33@*3533:1,1*=43<554><<57<*$3>>=<>*=*=*X*#X;#*=:$>=",
"=#$==>==#3*3=43=>=>555,><=4<@;3=5<757<<:4@==>>>><=*-**#*:*=;*@==",
".#$=#=3$$@#*&=;*>$$>355<*====<*=<>5781<<4>=<6<===*=**:*#:<<;=<*=",
";-=4=>=**=@@=3<<::<<==2<<;4===*=*>>14:44=4-44& 4=4 4*=44==@@==;=",
"*****=$*$*=.=>4<41;<<-2;6*;=*==*#=><>>54644-6*#4&#=&##& ==-4=764",
"#<;=1>#<>==;==;<<72<6;2;*==$4**=>===**4364666&*=&;#*;-=;=***;46;",
"667<<;;>334<=@&=>16<<<<=4=*=*=$&==<**==16667646  **3&;3@--==;476",
"4677144443=;*#****>446<<4=3==@@@&*;**=;;*44844*446--&*-**$@==;=3",
"**;4<6754=;4<;&===#=#;<2;==4=*#&*&*.**===*= 4-4444-**--=-*=4=;<@",
"**=*==47464;<<=**==;-*;6;46;<*#@*&@**&o*#** &&3344;4=;4=*@ ;*;*=",
".=o&@*===444<1:>*;==*==-;64464;;*****&-o@&4=3*-4=444=3;=*@-****@",
"&@**o--**==><<72<<====-=#<7445;;;<=*=*-*;&*=&@- @==446=6=*@=@*o-",
"***.&o*o*==*<<7747;<=<<*==*=444<=<<*==*o-**o@-&-***=4==;4;=&=**o",
"*&=*&&*#-<=*:*;<<474;<;<*==;&=#>47;4*<**;**&*@*@@@*@&==47==;;**&",
" -<&-#***-<-;<2=<<<4<=<=<><*=4==>4444#<#;=**X#=&**@@==$364-;<;@*",
"#-*-***--&*.*-*-<<;=4<=:<<=>;;--;*=>45><=*&*&*&&=*@@***=3=>=4==;",
"<<*&&*&oo*--*-;;<*=<><=141<=*===>@#=>44><===;-;*&==&@*&&*$>47<4:",
"<-==-*--**oo*&**=*o*=#**<4<=:==O##@*==$=<4;<=**&- o=$*&**&@>>47>",
"#7<<;-=O&=*o***=*o>>****=;1<<-=<@#=##@&==<4;=4=3-*=-=*&@*@@=X<<4",
"1:4<==;;=*-&*-&=&*::<=**>#=><<>;&===4 ; &&-3&444;=*&&=& 4-&=**=6",
"#:>4<<><<*=;=*=&***<:*>:>===>><=&4 & &@; 4 #*4=;4=<;*&*=&&=  4&=",
"$#*<4457>>o*-<=**-;****>;<-*;<=*&& *;;;;6*-**&=45==4*3-4*&=*@=@*",
"#*=*=<=45*o;*****=:-<*=>1>61<<<o 4=4@& =4 4 #**3*@=44=-=4&;**@@#",
"=>@*#>==<<>-=**o#=O=*>=#===#<<<>6&4#6* *&&- =*#**=&=3====<==#===",
"*==*=*.==<1:=*=&*O*o==*-#***@41464*3 4;* 4&4*==**#@&*34444<4;&;;",
"=><<>*=#<<=-<<O*:*&******#*.#*=#4 444 444  4*#***@@=*=#3<4>41>=<",
"6<=>>4=;;>=1=1:*>**=-**@#*-o*.*#4444*44 &46  * @*@@&@@ *==*44<4=",
"<=*;<4>><<<#<6>14*=;2=**&=*&@@&& 44$4443-**$@* 4###@#*&-==#==#>>",
"<:*<<>>==<156<1>=4<*>;==***@@&**&4$&&$344;3-=***#****@@=*#*&=*<:",
"<=**>#:==##<3><>4>>=;><==#===@;;*==#4 $*443==*@=#*#**@=*o*o***#=",
"<<;;*>###>**$>>>554=<64<&*===@4 ;=&444$*==45633===*&@$*#*&;=***:",
"<;>*;<##==>#=#:>#4><4656<<*=4&434&*3 #4&*=$=4=4====$==#=*===>=**",
"==::=4>=**#@==*####>444>44<=#4**&4 &44&&==3===4=>4===#=#&##*#*=*",
"#=*#44%>*=##=>###=**>><;677<663# 4&& ;# #$$@*=$34=4$==$<@**=@##.",
":::>114><#=$*=**oo*=<>o<4=154444&&@ 4 4$@&*$==@*X3==>@:;=*@*#**>"
};
