/* XPM */
static char *sky__[] = {
/* columns rows colors chars-per-pixel */
"64 64 121 2",
"   c #1796C3",
".  c #1A96C5",
"X  c #1C99C7",
"o  c #1D9CCA",
"O  c #209BC7",
"+  c #249ECC",
"@  c #299ECC",
"#  c #2A9ED1",
"$  c #26A1CE",
"%  c #2BA2CE",
"&  c #33A4CF",
"*  c #3AA7CE",
"=  c #25A1D0",
"-  c #2CA2D1",
";  c #33A6D2",
":  c #3AA7D4",
">  c #35A9D4",
",  c #3CAAD5",
"<  c #37ADD8",
"1  c #3DACD9",
"2  c #40AECF",
"3  c #44ACD5",
"4  c #4BADD6",
"5  c #44ADD9",
"6  c #4CAED9",
"7  c #51A7D6",
"8  c #52ADD6",
"9  c #5CAFD7",
"0  c #52AED9",
"q  c #58AFDB",
"w  c #45B1D5",
"e  c #4BB1D5",
"r  c #45B1DA",
"t  c #4CB1DA",
"y  c #54B3D6",
"u  c #5BB2D6",
"i  c #54B3DB",
"p  c #5BB5DC",
"a  c #55B9DC",
"s  c #5DB9DD",
"d  c #63B2D5",
"f  c #6BB6D6",
"g  c #63B5DB",
"h  c #6AB6DC",
"j  c #64B9DE",
"k  c #6CBADD",
"l  c #73B7DC",
"z  c #73BCDE",
"x  c #7BBDDE",
"c  c #5FAFE0",
"v  c #4BB0E1",
"b  c #55B5E0",
"n  c #5CB6E1",
"m  c #56B8E2",
"M  c #5CBAE1",
"N  c #62B6E1",
"B  c #69B7E1",
"V  c #64BBE2",
"C  c #6CBCE1",
"Z  c #64B6E8",
"A  c #74BDE2",
"S  c #7BBEE1",
"D  c #71C0DE",
"F  c #7CC2DE",
"G  c #6BC1E1",
"H  c #75C1E2",
"J  c #7CC2E3",
"K  c #7CC3E9",
"L  c #81BEDE",
"P  c #82BFE1",
"I  c #83C1DF",
"U  c #8AC1DF",
"Y  c #97C7DE",
"T  c #A2CBDF",
"R  c #83C3E4",
"E  c #8CC5E3",
"W  c #87C8E6",
"Q  c #8DC9E6",
"!  c #84C5E8",
"~  c #8BC5EA",
"^  c #85C9E9",
"/  c #8CCAE8",
"(  c #93C6E4",
")  c #99C7E3",
"_  c #95C9E5",
"`  c #9CCAE5",
"'  c #95CBE9",
"]  c #9CCDE9",
"[  c #9FD1EA",
"{  c #A3CDE5",
"}  c #A9CEE6",
"|  c #A3CFE9",
" . c #AACEE9",
".. c #A5D1E6",
"X. c #ACD2E6",
"o. c #A5D1EA",
"O. c #ACD2E9",
"+. c #B2D4E6",
"@. c #B9D6E7",
"#. c #BDD9E7",
"$. c #B4D5EA",
"%. c #BAD6EB",
"&. c #B5D8EC",
"*. c #BCD9EC",
"=. c #AFD4F1",
"-. c #ACD9F0",
";. c #B7D7F0",
":. c #BDDAF0",
">. c #C0D6ED",
",. c #C3DCEC",
"<. c #C9DEEC",
"1. c #C2DDF0",
"2. c #C5E1ED",
"3. c #CCE1EE",
"4. c #D2E4EE",
"5. c #D9E6EF",
"6. c #CEE3F0",
"7. c #D3E5F1",
"8. c #D9E6F1",
"9. c #D7E8F1",
"0. c #DAE8F3",
/* pixels */
"` ) T ) _ I P ( ) ) } }  .+.} +.$.%.%.*.>.,.*.@.&.&.&.&.@.*.:.1.*.,.,.,.*.*.&.@...} } { { { { } ) Y ( ( ( E ( ) ( ) ) { } } { { ",
"] { { { ( P E ) Y { { }  .X.+.@.@.%.*.,.,.,.*.@.@.&.@.O.O.+.*.*.;.*.*.%.&.$.@.+.O.{ { ` ` ] { { ) ( Y E U U L ( Q ( ` { { { { { ",
"{ } } { ) ( ( ) Y { } } } X.} @.$.@.*.,.,.,.*.#.&.&.O.O.O.O.X.+.O.&.&.O.X...O.O...` ) _ ] ] _ _ Y ( E U I I U U ( ( _ ) `  .{ { ",
"} } } } { ` ` { { X.} } } } X.@.@.#.>.>.,.*.#.@.@.@.O.O.O.O.O.-.O.O.O.O.{ ` ` { ..] _ E E E E ( ( E E R I I I U E E E _ ` { { { ",
"{ } } T T { { { } O.} } { ..X.+.%.*.*.>.>.*.%.@.+.O.O.o.o.o.O.-.-.&.-.O.] _ _ ' _ _ W I R R R R E L P P x x F x P P E ( ( ` { { ",
"` { { { { } } { { O.} { { { { X.$.@.*.%.@.&.O.O.o.o...` _ _ _ ] ..O.o.o._ / ^ / E E R W ! R R J P P x S x z l l x x P P P ) P { ",
"( ) ) {  . . .} } } } { { ` { } O.O.O.X.O.o.| ] ' _ Q W W R I I Q Q E E ! ! ! R R R ! ! R R S P S S l z h h h h h z h A S E ) ) ",
"~ ( Y ` }  .{ T T } { { { { { } O.o. ...` ] _ E ! R J J K J J J J J S R J J R J J x R S S x S S z l g g g g d p g d d h z P ) P ",
") ( ( ( ( ] _ _ ` ` ` ) ) { ` ..{ | | { ) ( E R J J H H J H H J K J R P R ! R J R P S S A k A z V p u y y 8 8 q i y 8 p h J E ` ",
"] ( ( E I I I I U U E ` ] ` _ ` ] | | ` ] ' ! J J H x H H F J x ! ! R R E R R F J S S k k k h j p u i 0 0 8 3 4 0 6 4 q h J E _ ",
"( Q ' Q E x x F R x x R R E E E R E ( E _ Q R F J S S z S J R ! W R E E E E I I J x k k j j N j g q 0 q 6 6 3 4 6 6 0 9 h x R E ",
"P P ~ ~ P x x H J A k k k h A J R ! E R ! R R J J H H S H H J K ! ! W E W W W I J x k k k B V B N p y 0 6 i 0 4 0 y p h h k z x ",
"g j h B g g h B g j g p g g j A S R ! R R R x x x S S C A C A H S J J R J R ! J H J S k k B j i s y 6 4 6 i p q u d B A A A g g ",
"y t t 4 4 6 i s 9 u p s s g j V h S J J x x x J A A C C V j g j k A S H S F H z l z A A k h j d 0 6 4 3 0 i g g g k x R R A h p ",
"i t w 5 r 3 6 0 y p s s y u p s j j C C C H H G j j j V n V V V k C z x z x k k h k x x z h g p i q 8 6 6 y p g j z F R R J B h ",
"j q 3 3 5 4 0 s y y y u y p p p i s s p s g g j p s s s s j V B A A H D H D z k g z H H k h p s g i i 0 i y u p g h l L I R J z ",
"h p y e 4 8 6 t i i i y 0 b 6 3 6 5 3 6 6 t t i 6 t t t i a M V x S A z A C g s p j g j g p y y p j p d k f u a y j B z z x H h ",
"h h j q 6 i b b 6 6 6 6 8 6 3 5 1 1 1 1 1 1 1 1 5 5 r t 6 0 y n s V g s M s y a i s p g g p j j d B A S J l k k p 9 k x l z k g ",
"u h h N i t 0 7 0 6 3 3 3 5 5 1 , , < < , > > > , , 1 5 r t b m m p p s s s s p s s s u p p s p g g C S F x z d 9 u l x z h j p ",
"k k g y 4 4 4 0 n 0 3 : 1 5 5 : : , , 1 , > : , , , 1 5 5 t b m Z C k D J J A A B h h s p p s s s i j g f l k d 8 u p h g u u p ",
"x k u y p j V G g s 6 3 , , , ; > : : 1 1 1 1 1 1 1 5 5 3 3 6 a V G ! _ ' _ J F z C j j j g B g m i n d d h B 9 q y 0 4 8 u d z ",
"! H j g k S S f h g a 6 3 3 > : > > : , 1 1 5 , 1 5 5 6 0 u N G z ! _ ..O.o._ W R S z k A B j p b y u i g V n 0 c c 6 3 4 u l S ",
"h h d 9 g H K R k k V i 8 3 2 * ; > 5 5 3 3 3 3 3 6 i b V C H K W ' | =.;.o.[ ] ' W ! ! ! J k s p y i a p s i 4 n b 6 4 6 u g A ",
"y s V V p s l S S S B g p 0 4 , 3 5 6 i n b i s b b a M C H J J R / / / Q Q E Q R F F R ~ Q J S h C C V B p 4 6 4 4 4 3 t y e e ",
"6 b i t 4 8 g k F J S l k j i 3 : 0 N B k D D S z k k C G H S S R ! J J R F C j p V C S J J J F K ! J k p i 6 5 6 5 1 : 4 t 6 6 ",
"5 i e 3 3 i s C x J ! ^ J u 4 3 6 i V V V h H S H C j g u h A H K H J K ! J C j j V g p g C A A F R ! J B Z n i 6 3 3 5 5 5 5 3 ",
"6 b a 6 6 m g g k D J ! J d 4 5 n N j i j V j j s s s g p g B C s j k S J H C g n V a 4 e y V V h k D D k s i i y 6 3 5 1 : 1 : ",
"6 i i i b i y 8 h k H J K C m b j g i u i m i 0 6 i i i i p V V s j k k j j V j V M i t 3 t b b s j H K k u 4 i 6 6 3 , > ; ; : ",
", 3 , , , , 3 r p j h k k u 0 i g g V M m s i b t t t i 6 y s n V Z V s i a V H M s q i 0 6 3 5 q C K A g g i 0 1 > ; ; ; ; , 5 ",
"1 > ; ; > < r b m M p p s s y t M g M G V p b t 3 6 i b i m s 0 q m a t w y V C M i 8 0 b 4 , 5 3 i s y i i 6 3 ; - - - - > 1 r ",
": , , , < , 3 i a b t 6 i M m i m b s h A C p i 6 t i i i n s s 6 t t 4 i i p j b 0 5 6 5 1 : , < > > 3 < > ; ; - = = - - ; , 1 ",
"- - ; - ; ; , 3 0 4 3 3 r t i m 6 i p j A A C M b b b s N V V y 5 r 5 a Z C C V b 6 5 1 > > > 3 , 1 , ; - - $ $ + + + o + - - ; ",
"+ - % % > > : 5 3 ; : 1 < < 5 4 v t s k J K H G a p p V B g s v t r 3 i Z C V N b 3 1 < > - - > > ; ; = - = = + o o + + + + + + ",
"= ; > 1 5 t t t t 5 1 , 3 3 6 6 s g k F W ! A k V i s M s a t r w 3 1 6 a y i t t 5 , > > ; - ; ; - - $ + + + + o o o + + + @ + ",
"; 5 i y u g s y t 6 3 6 y n m M h H ! W W W K J A j a m s a i a i r 5 r r r r r 5 , ; > > ; % % % % - % + @ + + + o + + - - - - ",
"3 i k J R ! ! z N n a V S H j M C H R R R R R ! H A C G G C A S V i v r 5 3 r 5 , , , , 1 > ; % - % - - - - # @ + + + # ; : : : ",
"j k ! ] | o.] E S H H R ' ~ J G V H J K H H J W R R K ! ! K J H a e 5 1 : : 3 3 : , , 1 , > ; - - - % & - % # @ + + # > 3 t y p ",
"A S E ` O.O.O.| _ ' ' ' [ _ R H G V C H H z H K K J J ! W J j y w 3 < > , > , : 5 , , > , ; ; - % % $ $ % % @ @ = @ ; : 6 y k C ",
"h z x U ` o.O.O.o.o.o.o.` U R S C C C C B z H H K J J J K H V i e t 6 t t w 5 5 6 5 , ; ; ; - - $ $ O $ % $ % # % @ @ : 3 i j h ",
"B H J J W _ ` { .. .=.| E R R S x S G G H S B j h G J D J H C Z p N Z i s 0 6 6 6 5 3 > : > ; @ $ o o $ $ @ % > ; ; : : 3 i s p ",
"( E E E ( ( ` ) { ] ' Q ( P P E R ! R J J J z A D D J H J H H k B C C j p p i 3 5 3 > & ; < ; ; = o o X . + ; @ @ : , 3 3 d S ! ",
"( ] ] [ ` ( _ { _ _ ( E E ( ( E ~ R R R J J J S H F J K S J K J H C k j j s i 6 , , , ; ; > - - =     X + - - @ @ & , 6 p A R Q ",
"( ( ] ` ] ] ` ` ` ` Y ( ( ( ( ( ( ( E E E ! J R J K J J R R R E H x G k V s i 3 , * > ; & % @ # + + + - # # # ; > , 5 s C J Q ' ",
"( E E ( ` ` o.{ o.{ ` ` ] ( ] ( ( _ ' _ _ / E R R R R J R R R E ^ J D H C g i t , > ; ; ; # ; : 3 6 t v 1 ; & , : , 4 p h x P E ",
"^ W I Y Y ..X.-.$.O.{ ` ` ` ] ] [ ] ] ` ' ' Q E ! R I W W W W / ~ W ! J H C V t 1 , 1 : > , : r m M s a i r , 3 3 4 8 p g k z J ",
"K R _ ] { T X.X.X.O. ...{ ` ` ......[ [ [ [ ] ] ' ' ] ] ' ' _ _ Q _ Q E R K C s 6 3 3 , 5 1 3 5 y V g p t 6 4 6 i i y p V C S S ",
"R Q ' [ ..{ { X.O.O.O.O...{ O...o.o.o.....o.O.O.O.&.&.O.o...` ] _ _ _ ' E R S B i 6 3 3 5 5 3 3 0 p g p 6 4 4 q i i p p j D J S ",
"U W _ ] ` ` | o.` ..{ { O.X.X.+.X.+.&.&.&.&.&.;.%.,.<.*.@.$.o.o.] ] ` ] ' E S S C s 0 3 3 6 4 4 a n B g i v 6 6 0 i M k k J ! ! ",
"Q E E R I _ ] o...o.....O.X.@.&.*.*.*.#.&.&.*.&.$.&.1.*.%.@.$.$.o.O.o...` ] Y _ W f a t b u p a y i y i i s y u p N j C J J R E ",
"E Q E E W U _ ..o.o.o...O.X.&.@.*.:.:.*.&.*.*.;.+.@.*.#.@.@.@.&.,.,.,.*.*.&.;.;.o.R k p j h k k B p Z n i u n V g V B k S x I R ",
"E E ( E Q _ ` O.X.X.O.o.O.O.O.$.@.;.;.;.&.&.&.&.%.*.*.*.>.>.,.,.<.<.*.*.%.@.@.&.O._ S x A S J H C g V s i 4 t t j k z x S F R W ",
"W E ' _ _ ] O.&.@.-.X.X.O.&.&.O.X.O.&.+.$.$.@.@.,.2.*.2.*.,.,.,.,.,.2.#.X.....o.O.` ! J S S x k C s s y e w 3 3 g g k H R ! F R ",
"R E ( ] ` o.O.;.*.&.$.X.&.-.&.$. .O.O.O.O.@.@.@.2.2.,.,.,.,.,.,.,.<.2.,.$.O.O.O.O.` E R x x z k g p j j u n 0 0 s g B C H H S S ",
"I E ( ] o.O.&.*.*.*.@.$.O.@.$.O.;.$.+.$.@.%.*.,.*.,.2.2.2.2.2.3.<.,.,.*.*.&.O.X.O.{ ( E R R J A d p g s i i i i i i s g g h h k ",
"! E ] ` o.O.@.*.:.1.*.$.-.&.$.@.$.$.&.@.&.*.#.,.,.,.,.,.,.2.<.<.3.2.,.,.:.:.&.O.+. .| ] ( E S l g g j s y i 4 4 6 0 y y s h z S ",
"E E ( ) { O.&.&.*.*.@.+.+.&.&.@.&.&.%.*.%.*.,.<.3.4.4.3.3.3.3.4.3.3.3.2.,.,.%.%.O.{ ` ' E E R S C B h g p j s 4 0 i y a j h H ! ",
"R I x I ' | O.$.*.&.&.&.@.@.&.*.>.*.*.>.>.,.,.3.4.7.4.4.4.5.5.8.5.4.4.<.,.,.#.*.$. .` _ E E E E J x l k h V p u i i d B A S L I ",
"E E E E _ { } +.&.@.+.-.$.@.%.*.>.%.*.*.,.,.,.3.3.3.4.7.5.9.8.8.5.4.3.<.,.>.*.@.@.O.{ ] _ ' ' E E R I z A h N u p h B z S R E E ",
"' ( ( E _ ` } +.+.+.+.+.$.@.*.*.>.*.*.>.#.,.,.<.7.4.7.7.4.9.5.5.4.4.<.,.,.>.*.@.$.X. .{ ` _ _ _ _ _ E I S k h g f z R S R _ ] _ ",
") ) ( ) ` { } +.+.+.+.+.@.%.@.*.*.*.*.>.*.,.,.<.6.3.3.3.7.7.4.4.3.<.,.,.,.*.%.@.@.+.+. .` ) _ _ _ _ _ U R J x x L E E ( ( ] { ) ",
"` ` ) ) ` | { } X.X.X.@.&.@.&.%.%.%.%.%.%.,.,.,.3.<.<.3.3.4.4.4.<.<.#.>.*.*.*.%.@.+.X. .} ) { P ( ) _ ( ( P ( E ( ( ` ` ) { { { ",
"] ) ) ` { { { { } X.X.+.O.+.+.+.%.%.*.*.*.*.<.<.2.,.<.,.<.3.3.3.3.<.<.,.,.:.*.$.&.X.+. .} { { ) ( ( ) ( ] ( ( ) ( ( ` ) { { ) ) ",
") ) ) ) ` ) ` ` { } } X.X.X.+.+.%.%.:.*.*.,.3.3.2.2.,.,.,.,.,.,.3.<.,.,.,.>.*.+.+. .} } { { { { ) ( ` ( ] ( ( ` ( ( Y ` ) { ) { ",
") ` ) ) ) ) ( `  .{ } } X.X.+.&.%.%.*.*.@.,.,.2.,.,.,.#.#.,.,.2.3.2.,.,.,.>.*.+.+.} { { { { { { ) ) ) ] ( ( ( ( ( ` Y ] { ` { ) "
};
