/* XPM */
static char *snow[] = {
/* columns rows colors chars-per-pixel */
"64 64 24 1",
"  c #B1B9C3",
". c #B7BEC8",
"X c #BEC5CD",
"o c #BFC7D0",
"O c #C1C7CF",
"+ c #C1C8CF",
"@ c #C2C7D0",
"# c #C5CBD2",
"$ c #C9CED5",
"% c #CCD1D7",
"& c #CED2D9",
"* c #D2D6DB",
"= c #D6D9DE",
"- c #D8DBDF",
"; c #D7DBE0",
": c #DBDDE2",
"> c #DEE0E4",
", c #E1E2E6",
"< c #E5E6E9",
"1 c #E7E8EB",
"2 c #EAEAED",
"3 c #EEEEF0",
"4 c #EFF0F2",
"5 c #F1F1F2",
/* pixels */
"X=&%,,:,-:-<22<--*%-3*%*>:>,>%@%*><2222*$$-,,-**2,**--*,>-,,232&",
"#%$=::>,=:-1<2>:**-<,:-,:-,:-%@-->22,2>%%%-,,--,2,,-*-**:%,,232#",
"+O%==<><=,,<11:%%-::,<,,:-*%*%-->,222<>%:--,,,-,<-:-*>*&--->22,$",
"%$*%=,>-=,21<----*,:<:<<*-,-$*:22,<2<>>*,--,,-:2-*%,<<>-:,,>2<:*",
"-+$&:--,<:2<,--,:-,<-*:,%*,##*:2<,,<2:--,,,---*-:*,2<2,,-<>*-,--",
"$O%*=>,<2<2<-:,-::<:%*-****%*--<<,2<,-%-,,,-,>--:,<2,2,,-$*%*<,-",
"O$*=%:2<2<<-=-,:,<2%*---**%*-:,,>,2,>,**-,,-2**-,<<,<2,,% #*>3,#",
"*#&*-><<22<*%=--:3--*:::-*-*-,22<<>,2,-*-,-%,*-::<<,<2,,@#*>,,,#",
"+&*>;,<<22-$#%==-<,>--:>-*-*-2222<**<,>-:***--,<22,,<<*-%%*>,%**",
"---,,,<,2<=%*%=-:22<:---$$%%->22>,*#-,<,*-::>:,<,,,>,>**$%---%*%",
"*-,-,<<-1,=====-,22,,--*@->-,222<,-*,<3<:*-*,:,,,2,:,>%*%****::*",
"=>2-,2<=<:*-=*-,22<,,>:*-<<,2,>22,:>,,3,---:,:,<,,,:,-*--%%*--,-",
",><-;>>,<>&=-,-<22>2,-:--2222*-:,,<,,,3<,:-::::,2<:-:-**%$*$*>:*",
"<,,>-><<<*&=-,>=2,-22-*,:<,>2*--,,2,,,<<<:---,,<,,****-*%%#%***:",
"-,>-><>>;&*=====<,-2,--,:,:><<<:,,,<,:,<---:,:,<,,:-*::--&%*%%--",
"-,,,<>,=>*-*=-->:--2,,:2:---<2<--*,2,>:,&&<2<::2,,,*:->*&******-",
",>1<<<,==%=*;::=->:<=-12:**-<<<2:-><<,->,:22,:-,,2,*:,--*%**-,--",
"=*<<1<-=#**;===><,<,$-22-$%*,222,*-,3,-:,,,2,,,,,2,:-<*&-&%--<,2",
"&=<<<,,*O*>=*;;,2>:*$-2<-$*,,22<**-,,*%,,,,,,2,,<,,>-,-%--%**,2:",
",<,-<<>%O$=:*>;:::=$==<,-*:<<<2<:&**:*-,,,2,,22,,<-&$*,-2-*-,-,*",
",,,><<%+#*:>::::-==**#:,>>><:<,2>&:*->:2<,22<,2,--*@$,<:,-*-,,,-",
"==,=>&++$*-<>>:=>-*=&&-<2<:,-,,<>**:->,22222,,,,-**X*>:>2-**,::-",
"&%-&&&$#=-<<->$&-:-*--:<2<-<,<22,,***>,,:,,2,2>,,-$@-:,-,----**%",
"+$**&-*=->><--=->::--=:22<-2<,><:***-,,-:222,,,-,$@X->-$*,-*----",
"&&=%%%;-=>>>=-::>,>--:-<2,,><->::-&-,:,:<322,-:,>#.X$---:::*->&*",
"%+%*==:>&-:-:-:,>>>-:-*222,--*:>:---:,:,,23,**::**@@*-2:-***::*@",
"#%==&-,:**,:,,,>==--:-*<2>:->->,:,--::,,,22-**>---*##-2<-**:,,:&",
"**&$$:,=%**,<<=:-===->::,,::,,>:*-:-:<,2,-,*:%:->--&&,<<,$%-,--*",
"&=**&;>$$$*>,<>--=%%&=>-2,-:-,>*-:,,<,22:*-,--:>>,-**::<:--:*-**",
">-*>%=;=*=-<,>,:*-*&=:,:,::->,---:32<,23*$:,-:,,,,%-:*-,->:*-:-$",
">*&;-:,,,:,2:*>,===%-<::>---*-->-:22>-,,%%-:-,::,,****--:,<*-:-:",
"=&*<<,<2<,,2-*>,=&**,1,:***-->,,>,<2>*:,,*:,,,**->-**-*:<<<*&:>-",
"***<2222<1<<:::;&*$&<<;;&&::,><,,2,2,&-<---1<:@$*,<>*$-,<<<:&&$@",
"***>32<<<<,,:::*#&&&><;#@*>;;,>><2>:>---::-<,--&:,<,--,,:<,,-&$;",
"*;=:,32:,,:<,:*$;&&;:2<&&*<=*;>12,---,-*-,-<>-&*,<2<,-:,->:-:$#;",
">:==*,<:>::,2:@;:;&;<42&&*,;;;,,2:*:-----,>>*&&*>222,*:::**->$*,",
"3,&;==:><,><<:#:>&::<42;@$;;*;,1<,****-,-$******-<2,**-*;>;&;*:2",
"31*;:::;,2<1<,&<:*:>*>2&@@$;>>>12,*%*---,$&*--*$&<<:@-&*:<%%*;:3",
"31;,>,=;,<22<:;<,&:,*:4;#&*:11>,,:,*-,--&-&*->--**-*-***1<&&;;<3",
"21,<:=$;1:12:;;:<;:<:;2:*;::14<>--,:--**-,-:>:-**%%%-*--2<**>>,2",
"3>,,:;&<2;,4,;*:2:::::<:;;;<<3,;::<---*-:<-<-*-*&$X$:->,<<;&;:;>",
",;:1<:,<<::2:;$;2<:;;:<:;;><<1>;:,2*$:>-,<:,-&*-&#$*->>-:>;&&;&:",
";::11<,1<,::<;&;,<,&;2::;;;<<,,>->,%$<3,,<**,-*:*&&*>,--;>:%#&&&",
";:,,<<11:<::<:$;:,;*;<2:;;;<>;;;-,-**<22<<$$>-:>-*=---;-*=>;;*;=",
";,<=1<23<;:<,;:;*&;;;:2:;;;;:,<<->-*,,<22,@#--<-*-*-*&;;:,<,:&&;",
"<2&:1133<;;,:;;:;;&;;;2,*;>><<1<>-<---<,,-&$-,--*&*>;&:><<,,,;>>",
"2;--<343<:,:;&&;>:;;;;<:;;1;;:31,->,>--<>-------:==,:;>><::<2<:2",
",>>;<<5322>:;$&:<2:$;<<,*;<;;,<3<---,-*--->>**$$,==-,::>,<2<2>;<",
">,==,<5522,;&*=><<<>;<:;;;:;;;<<<::,,-$*:,-=%*##*=*:<-:,<<2,==>>",
",>;;,<252>;*&*;1131>;,>*;::<<<<<:::,,-$*=-=-*-*$@$-<2-:22,1:*>:>",
",,:==<222>;*;*:<24<;;;>;;><<>:<>:*:,:-#=---=-=*;-,,:<-:2,,,->>>>",
"<2<=*<<<2<>=;;;>33>&>**,>>><;;;*;;,1::***--:&--<--=%>=,2,,-<<>>>",
"<,<-&,,=,1>:;;;:31;*;&*<>;,<;;;*;*:2,:-*$,,-$->,<=$*,><2;:,21>,,",
"--:-,,-:>3,=:,>;:<>;;&;,;>>;<;>;*$>2,,;*%<,=*->>>-&*,,>>::112,<:",
"=-,,::,;<3>&<>->;*:<;;;;;;>;,<>;**,2<<;$*1<:;-,,>-*->,>-;<2<<11>",
",,:,--,>1<,>1,:;::<<,>;;;,,<&;>*&;<,<1,*;:,,---<,>:>,>==>><,,<1,",
"22-,,><><:1><,,:,,12,:;*<>>>*>:***<,,22*&&,:>;;;---,-=*=:;:<22<3",
"22>2<<<<1:::,,::,<11,,;;<<>::,*-*:,>>,1-$@:,,>;$#**,:**-:;>,<222",
"2>,22<2<,:&:<>>:,1<<,:**<,::-::**1,:::>:@&:2::*@@**,-;*=::::>2<,",
"-=:,,22;:;&:<:>>,,,<,;*;:>>,:-,::21:-*<*$;=<,:*$@**;:-$;;&*<:<>>",
"-=>:,>;*:<;:>:>>>,:<<>=:==<2<,>:,<,,*-:$$*&21*#*$$;$->=*-**1:<:>",
">-*><>*=:<><>:<<,>>,>::=>:<2<:--::-1,>>@$@;,,*******<,;---*-:><:",
"--=-:,*<>>>>>>1<:=::<>>><>22<&*=&:,2<<>*@$;,:;&;>-*-<:-,>-*->,,;",
"%-==,:;<;;>1<<1:==$,3:=:,:<<<&$$*-,2<21;#*:<,:*>2,*><;$2,:;,,,2="
};
