/* XPM */
static char *stone_andesite[] = {
/* columns rows colors chars-per-pixel */
"64 64 173 2",
"   c #2E2823",
".  c #2C2B2B",
"X  c #343235",
"o  c #3C3A35",
"O  c #3A363A",
"+  c #3D3B3C",
"@  c #413E3B",
"#  c #45423E",
"$  c #4B473E",
"%  c #3E3A42",
"&  c #423F42",
"*  c #3F4142",
"=  c #454344",
"-  c #494646",
";  c #4D4A45",
":  c #464549",
">  c #494649",
",  c #4C4A4C",
"<  c #514E4D",
"1  c #4F504E",
"2  c #53514E",
"3  c #5B514B",
"4  c #4E4D51",
"5  c #514E52",
"6  c #4F5051",
"7  c #545254",
"8  c #595554",
"9  c #5B5A56",
"0  c #565559",
"q  c #59575A",
"w  c #57585B",
"e  c #5C5B5D",
"r  c #615E5D",
"t  c #5F605E",
"y  c #62625C",
"u  c #68665F",
"i  c #5E5D61",
"p  c #605F62",
"a  c #5F6062",
"s  c #636265",
"d  c #696665",
"f  c #666866",
"g  c #6C6A66",
"h  c #66656A",
"j  c #68676B",
"k  c #65696B",
"l  c #6B6A6D",
"z  c #716E6D",
"x  c #6F706C",
"c  c #737067",
"v  c #72726D",
"b  c #78726D",
"n  c #6D6D72",
"m  c #716F73",
"M  c #706F78",
"N  c #6E7074",
"B  c #737275",
"V  c #797674",
"C  c #767876",
"Z  c #7B7A75",
"A  c #75757A",
"S  c #78777B",
"D  c #77787B",
"F  c #7B7A7C",
"G  c #847A75",
"H  c #817E7D",
"J  c #7E807D",
"K  c #83827D",
"L  c #777A80",
"P  c #7D7D82",
"I  c #807E83",
"U  c #7F8183",
"Y  c #7F8389",
"T  c #838384",
"R  c #888684",
"E  c #878885",
"W  c #8B8B85",
"Q  c #84858A",
"!  c #888689",
"~  c #86898B",
"^  c #8B8B8C",
"/  c #928D86",
"(  c #918E8C",
")  c #8E908C",
"_  c #959386",
"`  c #93938D",
"'  c #99958E",
"]  c #848590",
"[  c #868890",
"{  c #8C8D92",
"}  c #908E91",
"|  c #8E9194",
" . c #8F929A",
".. c #939493",
"X. c #999594",
"o. c #969895",
"O. c #9A9A95",
"+. c #949599",
"@. c #99979A",
"#. c #96999A",
"$. c #9B9C9B",
"%. c #A09E97",
"&. c #A19E9A",
"*. c #9EA19D",
"=. c #A2A29D",
"-. c #A9A99C",
";. c #9B9CA2",
":. c #9EA1A3",
">. c #9DA0A8",
",. c #A4A5A3",
"<. c #A9A5A4",
"1. c #A7A9A5",
"2. c #AAAAA5",
"3. c #A3A5AB",
"4. c #A9A6AA",
"5. c #A6AAAA",
"6. c #ABACAA",
"7. c #B0ABA6",
"8. c #B1AEAC",
"9. c #ADB1AD",
"0. c #B2B2A5",
"q. c #B3B3AC",
"w. c #B5B9AE",
"e. c #BABAAF",
"r. c #A5A7B1",
"t. c #ACADB2",
"y. c #B0AFB1",
"u. c #AEB1B2",
"i. c #B3B5B3",
"p. c #B9B5B3",
"a. c #B5B9B4",
"s. c #BABBB5",
"d. c #B6B7B9",
"f. c #B9B7BB",
"g. c #B6B9BA",
"h. c #BBBDBB",
"j. c #C2BBB5",
"k. c #C0BEBA",
"l. c #BEC1BB",
"z. c #C2C3BD",
"x. c #C8C8BE",
"c. c #BABDC2",
"v. c #C1BFC0",
"b. c #BFC0C3",
"n. c #C3C4C2",
"m. c #C8C5C5",
"M. c #C5C9C3",
"N. c #CBCBC5",
"B. c #C7C7C9",
"V. c #C4CAC8",
"C. c #CCCCCA",
"Z. c #D0CFCF",
"A. c #CED1CE",
"S. c #D1D1C2",
"D. c #D3D2CD",
"F. c #CACEDB",
"G. c #D0CFD0",
"H. c #CFD3D3",
"J. c #CFD8D5",
"K. c #D3D4D2",
"L. c #D8D3D3",
"P. c #D1D8D5",
"I. c #D7D6DA",
"U. c #D4DDDE",
"Y. c #DADCDC",
"T. c #DCE1DF",
"R. c #E2E1DF",
"E. c #E6EBDF",
"W. c #DADAE1",
"Q. c #DFE3E1",
"!. c #E0E0E1",
"~. c #E7E8E7",
"^. c #ECECEC",
/* pixels */
"h j l A ; ..l h g v a 7 > n n S 7 & 4 h 4 7 a e e i A Y 7 P A P @.B B i < q ..^ Q e > , ^ a.=.j g c #   ; j s F E A { j k.i.m G ",
"A V l ( J y f w i.a.n q e S h Q p 4 i h r.j i e 4 0 l ~ q i m F A P l s p w q p $.) j 0 h ,.` s 7 y = & i h e n n m p O r h ~ I ",
"j m m r 2.O.x 9 B ..` l i p h q n h 0 4 5...~ T F = f g.n.Z P j 0 w T n g 2 5 q { l ) 0 ^ P A F j e r V l j P +.+.j r b p.H F A ",
"P r r p K d K Z = $./ 1.j P l n C.W.;.p A { a. .` - 0 T 5.z.^ o.A ) 5.a.5.5.X.K B A J s +.#.z.s.) 7 7 V R j S K.K.A B ( / j p M ",
"T p s I p B ;.F 5 b X.I j n h M t.3.B.>.P ..T Q D 0 5 s l U ^ J C =.W ,.f.c.m.5.9 S S j j ,.6.<.l 5 e ( B l B F f.p 5 h j e = 8 ",
"<.p s , 8 T ^ n A s ( S h m n j p w h j n P B n N s s l 5.$.j = g X.A T m T ..T e e T a 7 ! &.S A 9 p T 0 4 h ^ s 7 A m z j S ,.",
"s l 7 = e $.l l T 2.p e j m n j n i A S B $.B m P [ A F 6.E s e o j U e = 7 i j ` ..m.n i 0 I Q A j 7 i ^ [ A ;.e A { T F P I / ",
"S s F q.i 7 s B E $.n P n F M M B h B D ^ X.s s s h Q I i l h ^ y 7 J T D > , - A H A.I A p ,.@.S 0 5 4 3.;.0 n 0 P Q I V l n P ",
"P D ) #.n S S I n F j M P A @.$.B F M n ~ 6.5.j w 6 n ~ T =.2.e e v Z ^ g d E d S s ` ~ S P H A s R W 0 B <.:.A p p > F W ^ N B ",
"Y B U C i.:.B h A p i I P r.5.;.^ i.S l  .A i i A > 7 A :.h.6.$.=.O.Z V K o.l.A P l s %.T n f E s F F % F ( A.I m s @ 7 j V l F ",
"s h l B j F ! S i n p i n A $.$.<.j.} e e 4 = 4 M l l M T n i.o.V 2.2.e.T d w.F > 5 y Z o.d i N A ..P A B p ^ P w > , < -.w.| C ",
"e A l P n A I I 0 L p 5 j 5 0 A q.8.( P i e s i 0 i ~ m P l j S q.1.E ' F H v K d p Z ` 8...7 N 8 A j h T S i 0 4 5 j e e t l e ",
"F l F B j p 7 p j l q 7 i i p p V X.F n h s j , h F f 7 F ~ a S ..$.2.s.' K K 0.v 0 ; ; v d ; l C.i.D A F A n n n n h q s A ` K ",
"' h A ^ N.R , H b R , , 5 4 & i m A ! F p p w 7 w z B h N s i ) 9.P B | ,.E 1.o.y , 9 V W = F #.C.b.Q M M n h j j L 0 e g l F W ",
"j h @.1.^.^ H X.&.6.p , @ 9 > P m m h j p z 7 9 W ) W l F N Z 5.W T l e e g R 9 i e K <.Z 7 9 s *.H.1.A P Q Q P n n l s l R d h ",
"A n { U 6.j V m g q.B p z < 8 j 0 p 8 < q w + ` w.$.h k C s s f ^ C w h = C B > n l K -.q.B l i U F g.u.^ A Q h n l B p s k l l ",
"h h A M q i n i H X.R A ..m.y.( -.7.7 < 8 5 p r F ) ' W B J x = 7 D 7 = + 7 ~ t , p ^ ! m z ^ A h k i 4 [ j n e r S 9 F ,.R 8 , ",
"P { h i n n A ~ T l Q T ..P M T s.R z B z j z j d _ *.v Z E T J s a 6 + = x a.^ j A 5 % h p A X.s = n n j ~ L +.6 F T F a.i.i.S ",
"l ; , , 0 0 M j A j 4 ..P ~ { [ X.! ! @.Z.V s p N l J K 1...1.T Z x K f 7 f _ *.Q p p h h A j W W s n ~ { #.S s j C.S.i.T ^ @.o.",
"e < , i & m m } q p h s Q #.~ I I +.( ..=.e.z T o.C k h ` 1.W ) Z w t x x C J _ +.! j j p e A E F 4 0 P Q D h w B e.0.^ s g i q ",
"t.p > p P ;.! 8.v j m n L T A ~ L I P E 2./ } P ^ K > y p P B ^ j 7 v t g f ; t V S P F R W o.{ F e 7 A { B T ^ | 1.o.h 7 = t.F.",
"P i 4 7 p I &.X.^ { h j i 4 P { ~ A m P m V m z 7 7 s r y n 0 z n C *.) x *.o.U f ..D ' x.N.q.f.B B e s B N *.z.l.Q D ..a.Q { +.",
"M ;.F 0 @ V T X.Z Z A e j 4 j ~ { I F $.8.@.V F A 8 r K <.W q q f Y l.b.b.l.^ [ A B D ^ s.s.o.P N l h s ) ` 7 e r r j 1.1.{ A j ",
"! R.^.v.p & r ( 3 @ g j 0 i 7 N m { ;.L.s.{ p < 2.K.z.y @ = - r Z ) l.:.l k h q j B S P { ^ k A A l 7 <.A.5.l 4 + o c $.$.S n M ",
"S 3./ f.@.p ( f.p.&.7 p n i 4 : i i S f.5.A { s K K =.r = A ` u 1 v x *.o.B Z 0 V -.$.^ i.S D ~ A P A B ^ ..$.B l 7 - d ^ N e e ",
"p h n z z I G v.v.A n j n l i S m n n P Q j A l b R A Z l ..h.2.W J | *.9.t a a Z o.$.6.u.T U { Q n P n A 0.2.l A g B ~ ..d.{ i ",
"m I ^ I F A n 8.d.m I  .j S = 4 i M F M B n ^ z.K l ( D.n.:.@.:.z.E C 9 j 9 a l 5.k.i.b.p.<...J L +.~ P F =.^ B S P P S P ..n.S ",
"t.P L P A n m p I ~ i p i n j j F j p i z l A ) F F ! z.K.@.I Z C U x 6 k U ..1.6.a.v 9 8 e 2 , n P P S U Q U A i.u.S n n D a 1.",
"..I { ~ I P l e e n [ F l j 9 S Q p a X - h s D I A A d.l.E F T i B N N J U f ` #.` 5.B e 5 n i 7 *.2...S h j l m P { A P A B A ",
"n P m n P Q j m j n I ;.l.H A X...8.F > p m n D P F P S { ~ P Q ,.D.2.a D ^ Q W 5.^ =.,...s q A s B J N s j l F n P ! E 0 E U h ",
"n M M n A q m S n M A A 5.o.T B Q S S d F { a B F { ! I P Q [ @.Z ( J 9 l T J x A h T P ~ { S P D A F ) B j A l j p r S A T n n ",
"j L M n j j p j p h h h A P S h n ~ ;.^ 0.B B c z g Z W n n m A z v u.) x ..w.| n A m A A I E n ^ A N ^ o.V m A ..F 5 m l { j i ",
"7 s s.#.r p I F Q h i i j &.P I Q U | ..^ D l l l.C t T B e s l Q F f.i.Q E M.#.D S +.~ U n P Q t.*.n n n i A { K.E B $.8.H.S l ",
"m B H 6.7 # X.T Q A A I I l I P P P N e w k J > A ..1.;.l.k A D I ..T m i a *.#. .~ P  .P P A n n n n U L A N D C.D P P F D.S n ",
"F ! T e e , 7 z F p 0 m 5.P S P P A F ..0 Y 9.h U Y ~ { ^ ~ j s n j F F j j $.T.r. .P Q P F P s l A h n B P W l n l N P n T { T ",
"M F ..F j s - d p 5 > w ^ F m n P A F Q s J A 5 w B D P B l s V A p j h j k U 9. .L k Y Q Q n 5 d F ^ A h P { > 7 h 9 n s l e.~ ",
"w j m ^ ~ P i l S X.r r p P s p l P @.{ 6.+.I B U *.h { P Q ,.$.0.P A h N E C , w A M r.$.F s 7 9 ..q.C., p P j ^ V l 5 0 j 2.T ",
"j m S 4.,.~ I T %.p.8.X.v / q.r % #.{ I I o.q.^ B D B s y i #.i.{ P A A u.l.k 0 h * w A P T 9.T < T d V j b 5.9.5.P P h m s f F ",
"Q T { T f.1.T $.$.F &.s.^ q.j.8.< j Q L i 2 Z #.J 7 C ) N e U T { ..E *.V.E C 1.Y k + d T ^ M.C Z R Z l s ^ x.5.:.V A Q Q A l j ",
"n A G.I [ ;...P Q ,.X.p.m.@.3.!.I h [ h P ; g J j B Z s B B P S P , 9 y 9 T 4.o.U w 6 6 s 4 ~ T F l 5 P S l x u.A N 4 L L Q Q Q ",
"I @.i.n S P P I { ;.Q Q ;.I.j T I n } ^ I m +.r.c.} ,.g A A p j B T | N i @.Q l A i h i 4 : * J l h U u.b.>.a k ~ H.] L L S I L ",
"B d.i.$.h n A A L L Q { Q A h n i m p Z I [ { P y.R #.j w P @.V d A T j n e l a 7 F h s e x 1 t 7 k D ..$. .Q n P { I ] I L M M ",
"{ A E =.,.P n P Y L Y P Q { M p 5 , q K Q I P S 4.2.^ S A f.I.k.F f ~ ) P S S F o.t s t *.l.) 7 h B j k N 9.s.N M L [ r. .+.I  .",
"A S 2.8.:.t.Q Y Y M P { P P m Z W X.X.s.5.@.p.f.p.@.^ C.m.r.c.d.D.#.~ U B S n j o.9.v s j o...D j s U D D 1.+.N L P M L I ;.Y.{ ",
"3.I ..{ h T Y M U | B Y s j 7 W S.S.2.X.5.d.d.Z.} P +.L.!.t.{ ~ $.~ l n P n j C C v R K - ` ' l.N F U B P Q S n ;.;.P m j L A { ",
"h.[ #.{ U Y N q 5.U.>.w s s 7 g s.S.q.a.z S W m.! { I Z.K.{ ~ @.h n P 0 N D F T l B $.` y g =.' x g o.) T n N l I ;.Q j I P j @.",
"n Y P P T { A P e U *.) *.W l o.O.-.C g 7 a 1 { { I P P ;.Q P S ..C.X.B u.| Q x 0 T ` A F g W E x *.) | l j n M p M P S 5 P [ j ",
"n L A A S p n h X Z O.E.9.C v x T l g t , ^ 7 S I  .I A B ~ T ,.W 2.o.7 U 9...B 7 =.B l T l.K s ) 1.J K d l A n h q p L n L n j ",
"j L M m S j e l + w 7 *.U E J f s h x t C 5.C J v x W E s l F C u g t x T P.l.S i 7 h P T =.J C l J 9 5.=.Q S j s e : e s H h i ",
"i j y.;.A V S j j , + = 0 ' D ^ ^ D U A O.P.l.=.w.u o 2 7 t 9 d c J 1 y ` a.a.S n M { { A W _ R g g J x T o.T ^ { h ; X.,.g.h i ",
"j m C.~.e r m.g l a k s y y C 6.u.T ~ A U 9.1.B Q E J D 2 C ` 9 g ' w 1 o.E W =.L I { P l d ` N.Z K =.) H g ;.T S s V T b.,.A A ",
"h A F @.g j W B N D h - ~ f u K U l.b.{ B C N D s a C t l W o.| K l.*.i l.u.9.#.I L A P d g p 0.F v u ' ^ e n E o.7 e d T h e i ",
"9 V m ~ F m <.( h T J s N 9.E F 6.R.O.m U S l N B.1.V ) 2.D 5.l.^ i.J T U n P ..j.=.n p S T N e d W O.Z O q h B ..7 = s e d > - ",
"/ ..` ..} { A n l l F u.C D S P F ..I Q ;.>.~ ~ X.q.g v J 9 m T |  .U D N A n F k.y.S @.X.^ s - 9 7 B W S n B n T S S s s ' x s ",
"w M <.^ @.I y.&.9.D s ..P n i h ~ [ M A S ;.$.D ' a.^ n e 2 s P D #.T S F h.o.{ ~ { $.m 2.,.F 8 < g ^ K m h ..a.Q S 9.h l a.9.^ ",
"0 8 ..S I >.f.v.q.S s #.*.*.Q A {  .k i 0 U N n S h.T.N.f.> - 9 4 X 7 n j h.P j % # ' 7 ; l } F ^ n.&.( S A ..9.s , d B R F l w ",
"q w 1.a.s T 6.<.F A z =.$.v S n m M P ;.u.~ n 5 7 B F ..n.A A U = . 9 f n B w 7 y d h C t c B l #.) $.n h n j e h -.=.s h A n w ",
"w e ` 5.P m ^ @.^ T z m S F C P j l T u.5.B j q 0 E <.f F +.P P w i C k N h y e ; < a h e 7 e ^ $.2.j 0.5.p S m ^ m.m.l 8 s j p ",
"F T 8 = j P P g.X.F s s J u.O.~ 1.5.P +.Q e s : A ,.u.*.} S P A [ u.N a s F S 9 j e l A w j *.F z.h.o.2.z.P A F z.n.D.T m j i p ",
"2.=.h i 8 = V ) ^ T &.A y ..~ n n.c.P Q 7 9 n a l U d.C.i.E ~  .u.J.U k 2 6.i., @ ..S g e V ' 2.z V F S A A I ..q.0.7.O.Q S n ,.",
"h.T z / Q a > C ` *.B.F T $.2.y.f.;.7 e O % 0 n h P n ;.m.0.h 4 s a.Q k v 2 v 9 o 9 s l l F &.V ^ C.y.P A m A N.i.} ..G H W d.T.",
"R &.8.5.k 7 > f D d 6.F E F T d.c B > 0 , i a { j e k n O.N.W i a k W B B ^ s - = O 8 7 g B p g 8.8.p.I.v.I m &.F H ^ <.u c v c ",
"( &.H H B i s w > 7 4 ) S j n S h p : w n a D N h A j n :.Q j j 0 l q.V i s h s n , 5 f A ^ =.K S ( H &.8...j h I I U @.a.i.Z h ",
"8 g s e 5 l s i 7 # - v 7 n A B L q : : w h S h h A  .n l U S l U B <.s , 0 B A P = = h T N.2.g z 8 8 3 G ! l n j Q P T Q.K.I V "
};
