/* XPM */
static char *stone_diorite[] = {
/* columns rows colors chars-per-pixel */
"64 64 256 2",
"   c #0B0E16",
".  c #0D111C",
"X  c #10161E",
"o  c #121523",
"O  c #141825",
"+  c #161C2B",
"@  c #181E2A",
"#  c #141927",
"$  c #181E31",
"%  c #121D32",
"&  c #0A1023",
"*  c #201E28",
"=  c #1B222E",
"-  c #1B2333",
";  c #1E2933",
":  c #1C253A",
">  c #1E293C",
",  c #142133",
"<  c #212634",
"1  c #232A36",
"2  c #242C3B",
"3  c #2A2E3C",
"4  c #292936",
"5  c #2C333C",
"6  c #283138",
"7  c #2E3237",
"8  c #1E2A41",
"9  c #222D42",
"0  c #292F41",
"q  c #262F4B",
"w  c #253143",
"e  c #2B3444",
"r  c #2D3A46",
"t  c #263248",
"y  c #2B344A",
"u  c #2D3A4B",
"i  c #323A45",
"p  c #333C4C",
"a  c #393E4C",
"s  c #323746",
"d  c #2E3B52",
"f  c #333E52",
"g  c #393F51",
"h  c #353F58",
"j  c #35424C",
"k  c #3B434C",
"l  c #3E4A4E",
"z  c #374245",
"x  c #354354",
"c  c #3A4454",
"v  c #3D4A55",
"b  c #354359",
"n  c #3A455A",
"m  c #3D4A5C",
"M  c #3E505B",
"N  c #3E4D62",
"B  c #3F5064",
"V  c #41454C",
"C  c #464A4F",
"Z  c #404654",
"A  c #434B54",
"S  c #484C56",
"D  c #434C5C",
"F  c #494E5B",
"G  c #45515D",
"H  c #4A535C",
"J  c #495459",
"K  c #54595E",
"L  c #505659",
"P  c #5A615E",
"I  c #424E61",
"U  c #444E6A",
"Y  c #445263",
"T  c #4B5464",
"R  c #4D5A64",
"E  c #46546A",
"W  c #4A566A",
"Q  c #4D5B6B",
"!  c #475966",
"~  c #535C65",
"^  c #525C6B",
"/  c #595F6C",
"(  c #535764",
")  c #4D5C72",
"_  c #535D73",
"`  c #585F76",
"'  c #556165",
"]  c #596365",
"[  c #54626C",
"{  c #5A636D",
"}  c #5B696C",
"|  c #5D6966",
" . c #556373",
".. c #5B6573",
"X. c #5C6A75",
"o. c #556579",
"O. c #5B657A",
"+. c #5D6B7A",
"@. c #576975",
"#. c #5E717C",
"$. c #5E7077",
"%. c #4F6372",
"&. c #626C6E",
"*. c #66706F",
"=. c #616673",
"-. c #626B74",
";. c #636D7C",
":. c #686D79",
">. c #637176",
",. c #6B7375",
"<. c #64727C",
"1. c #6A747C",
"2. c #6C7A7D",
"3. c #68797A",
"4. c #727B7E",
"5. c #70767C",
"6. c #74807F",
"7. c #5D6D82",
"8. c #5F7182",
"9. c #636E82",
"0. c #636E88",
"q. c #647384",
"w. c #6A7583",
"e. c #677984",
"r. c #6C7A85",
"t. c #65758A",
"y. c #6A768B",
"u. c #6D7B8B",
"i. c #67788A",
"p. c #727785",
"a. c #737C85",
"s. c #727D8B",
"d. c #797D89",
"f. c #6D7E92",
"g. c #697691",
"h. c #737E92",
"j. c #6E838D",
"k. c #6F8087",
"l. c #748283",
"z. c #7A8184",
"x. c #74828C",
"c. c #7B848C",
"v. c #7C898D",
"b. c #7A888A",
"n. c #758493",
"m. c #7A8593",
"M. c #768994",
"N. c #7C8A95",
"B. c #75839A",
"V. c #7B869A",
"C. c #77899A",
"Z. c #7D8C9B",
"A. c #7E919C",
"S. c #7D9095",
"D. c #7E8DA3",
"F. c #7E91A3",
"G. c #838C8D",
"H. c #818587",
"J. c #85918C",
"K. c #828C94",
"L. c #828D9B",
"P. c #848A98",
"I. c #849196",
"U. c #8A9395",
"Y. c #84929C",
"T. c #8A949C",
"R. c #8C9A9C",
"E. c #929C9D",
"W. c #909099",
"Q. c #99A39D",
"!. c #838EA2",
"~. c #8494A2",
"^. c #8995A3",
"/. c #8798A4",
"(. c #8C9AA4",
"). c #8B97A9",
"_. c #8D9BAA",
"`. c #8496AA",
"'. c #939CA4",
"]. c #939DAA",
"[. c #969DAA",
"{. c #8D9BB4",
"}. c #949DB2",
"|. c #8FA1AB",
" X c #8EA3A3",
".X c #94A1A4",
"XX c #9BA3A5",
"oX c #94A2AB",
"OX c #9AA4AC",
"+X c #9CAAAC",
"@X c #9AA9A9",
"#X c #8FA1B0",
"$X c #95A4B2",
"%X c #9AA5B3",
"&X c #96A8B3",
"*X c #9CABB4",
"=X c #9AA6BA",
"-X c #9DADBA",
";X c #95A4B9",
":X c #9FB1BC",
">X c #9DB0B4",
",X c #A4ABA6",
"<X c #A1AAAD",
"1X c #A4ABAC",
"2X c #A2ACB3",
"3X c #A2ADBB",
"4X c #A9AFB8",
"5X c #A4B1B6",
"6X c #AAB2B4",
"7X c #A4B2BB",
"8X c #AAB4BC",
"9X c #ACB9BD",
"0X c #AAB8B7",
"qX c #B3BDBC",
"wX c #B4BABA",
"eX c #A9B2AA",
"rX c #B9C3BC",
"tX c #9EADC2",
"yX c #A3ADC2",
"uX c #A5B4C1",
"iX c #AAB5C3",
"pX c #A6B8C4",
"aX c #ACBAC4",
"sX c #ADBBC9",
"dX c #ABB3C9",
"fX c #B2BCC3",
"gX c #B2BDCA",
"hX c #B7BCC5",
"jX c #B1BED2",
"kX c #AFB9D6",
"lX c #AFC1C8",
"zX c #B5C2C4",
"xX c #BAC3C4",
"cX c #B4C2CB",
"vX c #BAC5CC",
"bX c #BCC9CD",
"nX c #B6C8CF",
"mX c #B5C4D1",
"MX c #B9C5D2",
"NX c #BDCCD3",
"BX c #BECEDA",
"VX c #BBC7D7",
"CX c #BFD0D7",
"ZX c #C2CACC",
"AX c #C2CCD3",
"SX c #C1CEDA",
"DX c #C5D2D5",
"FX c #C9D3D6",
"GX c #C4D2DB",
"HX c #CAD5DE",
"JX c #CCD9DC",
"KX c #C9D0C7",
"LX c #C3CEE2",
"PX c #CBD7E3",
"IX c #D2DBE4",
"UX c #D6E2E6",
/* pixels */
"b.3XU.K 4 n / p.I / 4XdXhXhX5Xw.] 5XzXn.j.G u _ F a.0 D O.n.p u.W U.d.E.FXE.E.a.= T.{ <.;.s. .y $ x.sXN.=XV...S X T.9XuXv l.6.3.",
"e.pX~.T 3 n / P.b z.9Xc.U.hXOXx.0XbXT.u.w.> N - 1.a s I S r.D ;.y.<XH.6XP.~ I.K 5 -.^ v a.m.m.d b W }.V.yX9.n.u -.oX*X_.G (.3.| ",
"v w.-X9.^ m  .T d.vXXXm e 5X5XP.~.V.I - . >.7.; f 3 f D D ^.W.;.y >.,.hX[.G.0X].[ x.N.x.3Xp. .e 9.9.W =.~.q.o., ../.^.x.k.&Xx.R ",
"c 4X;.)./ a.Y.R U.fX%XW m  .%Xh.;XQ x , b <.j.p 0 o a ( I.}.T.a { R.oX].a.,XeXzXR.].A.e.aX0.x.^ L.}.^ Z x.). . .+.i.1 m Z.o.Y  .",
"Z.Y.).^.( U.^.b.hX2Xw.y Q i.s...w.^ ) c N./.H 6 =.4 3 / Y.[.hXS -.R.6X=.K eXqXZXa.N.~ R B.[.m.~ iX}.;.%XN.iXnXY.^ N.f < ~ z 8.$.",
"r.3X=XL.n.Z...G 7X-.c ` _.L.S 5 e.2.>.m Z.N.w.d.P.D ).^.-.T.iXT...G.U.C 5 J.1X=.e v ..p P. .a.-.^ !.4XMXbX*XOX5XW w._ u 6 -.N.^ ",
"$X*XuXu.fXaXfXwXAXAX-.8XcXyXs.;.~ ^.V.i V.oX+XXXd./ !.L.T ].^ ;.D S d.a V *.[.8XZ ' 1.[ p.( 1.' ..;.B.T.xXgX3XbX_ +.> n $.G S.Z.",
"!.5XoX+X2XP.w.gXaXp.m.gX3Xx.8X$X^ v { 1.x.sXvX+XwX..^ p.'.<Xd.w.# e Z / L S '.iXm.E.p.[.D s 5 J w.=.V.4X7XT ~ oX].L.c +.p <.e.Z.",
"V.K.<.N.E 2 ( $X5XI +.$X^.).%X].[ Q ! G ..m.XXK.2.p.i P 2XZXR.H V 1 A ~ 1.T !.0.Y.AX'.w.1.&.k   ( F 9.7X+.9.p.x.n.B.uXy._ tXt.x ",
"oXT.N.x.h e ^.$Xx.u  .e 2 N I u Y H x r.; @ :.2X[.b.] { V./.v.2.S ~ ,.{ P.D s.B.L.P.:.e 3 z.:.. @ 5 T Y.^ Z.&XQ n.gX$X/._.n.j.y ",
"(.5X$Xf./...Y.OX].p w W S.b c $ - D X.+X{   s 1.XXz.G.z.G l J k 1 D =.T.].h.T y.h.^ ).H ,.[.@XJ * a V / q.9.L.W N.n.m i.7XY.w.x.",
"$XgX-XY.+...T ;.n.f L./.u.;.E - +.s <.hXK.[ e -.J -.] R i R k / S 5 J '.T.T P._ ( -.s.p.[.wXb.C L =.3 D u - # [ sX).+.F.+.).;Xq.",
"vX9X*X7X%X-.h.D p / T ^ [.N.T @ R < ^.hXoXL 6 o a -.[.p.5 &.~ a m ~ k a...J L ^ 4XN.{ p.T..X4.d.W.*Xs./ G > ; _.sX|.F.Y.e.iXuXsX",
"I.N..XI.sXgX`.) h.9.0 / X.l | 1.c L *X5X3X] L 5 =.{ p.c.U.0X;.g r a F { >.S S T.fXm.r.+X3XG.5.H.4XwX.XD X.1 Y $Xu.$.M.(.} ;._.Y.",
"~ X.Y.r.Z.uX^ O.3XL.*.,.~ ] ' @XU.XX+X/.OXa.H.a ] 7 V ] 2Xv.r.c 3 X.[ c a 4 3 V =.-.J I..XG R U.G.[.S i ( 5 >.-X! @.[ ..Z p l -.",
"R =.} ....^.h L.*X[.Q.'.3 4.,.XX6X&.1.3.N.-.[.Z 4 S 7 U.xX5XP...Y z.' ' = $ + V / D 1.X.( ! e 5 =.fXL 5 -.4.4.U.N.s 1 ;.v x  .R ",
"- 2 ..T e T ..x.m.( 2XK.&.wX8XAXrX'.2.>.R $.N.O.c K H.[.6X+Xr.x.w.K.F =.a.3 o 4.vXoXoX2 x.P.g ( a.U.-.6 =.m.vXN.;X^.O.s.I ) d > ",
"x E  .I D N.h.T.w.E OXh.W.,.+.K.+XG.z.2.+XC.Q +.s / 8XW.].Z.D :.;.}.[.'.ZX6Xs (.qX8Xf r +.c.=.9.P.W.H.T.m.3XIX).F.q.oXV.E 9.d 9 ",
"<.@._ P.%X+X$X}.t.n h.<.,.( ;.u.U.E.L I.bX*XN.k f T hX+XY.s.c w.w.h.h.D =.H.D d.3Xm.: x I T m.V 5 K [.fXhXT.2XoX%X3Xx.a.I.Y.r.v ",
"q.[ #.2XcX*XuXQ ) ^ -X+.+.s.f.I  .].|.5XI..X/.].[.E.vX.X).^.D oXY }.D d ( }...3Xn.W Y !  .q.1.< 7 k ' z.{ T s.s./ 2 3 a.[.OXk.e.",
"OXv.V./.*XM.x.).B 7X|.Q ).MX$Xb $XpX|.Y. .(.7XcX5Xs.e.O.7.7.p ).t.7.b f.E ;.V.^.O.E y.Z.Y ^ { 2 6 i } v.H 2 A ~ T a A G.v.U.r.(.",
"0XDXcXS. Xu.+.`.m [ j y &X7.lX! ).pXi.u.(.5Xr.8X.X .u N t Y y...b n U ;XV.[.K.p._ D e.D.1 R = e X.~ I.N.>X@.<.2.k G I.'.a.5XM./.",
"C.cX:X X&X#.x B n Y x x &XVXsXm Z.Z.@.3.@.c 1.fXbXq.h ) f I ..Q g.E {.gXaX$XL.2 p w Q m k v.R ~ ,.+.$Xe.<.b._.X.V <.[ 5Xm M.u.M.",
"M.F.v.>X:X-Xo.Q Y +.%.Y sXBXpXe./.e.[ H y ^ @.*X7XY m D D fXL.W }.[.-XAXI.~.;X> w x :.= ..R j <.w._.cX).a.N.[ } G.w.G M.j Q m 8.",
"M.8.! x.R.>X+.%.C.~.B.~.C.u./.n.o.M.Y x e./.Y m G Y $X1.C.CXlXK.fXPXPXK. .3 %._ u k.I.G $.} i -.q.|.-XnX<Xm.w.R.'.a ,.Q.R Y ! i.",
"F.i.@.B  .&XmXn.lX#Xo.d N ) <.u.).k./.I.&XC.L.;.w.+.sXm n.*X-XuXP.iXdXoX0 9 @.N 8 R.R.u.q.oXN...+.$.C.sX>Xs.U.hXU.1.6XE.c.! (.o.",
"cXF.;X;X:XM.:X&XnX9X:Xt 8 o.b F.cXlXbXaXnXsXgXcX~.X.q.r m {.A.`.uX&XZ.x.c +.B.~.R x.S.Q m Y i. .b x o.8.e.zXxX).h.c.H.R...x.NX-X",
"-XF.%.tXpX XR.>X0XlXlXN.N F.n..X5XbXDXnXcX).gX X3X[ Y.;.c w.aXpXCX^.~...T./.j.<.! j.&X) #...q.R m B C.%.<.S.s.s.d.X.z.^.*XsXIX_.",
"<.S.$.~.k.S.R.@X>XnXaX@XF.g.q.N.N.} bXnXn.^ oX<.X.< p >.|.>XCXGX0X/.>X9X9X+XP k G  XpX&X/.oXj.v ~.%.8.e.N G A.-Xw.i.oXW >XBXFX*X",
"G |.j.Y S.k.S.S.j.7X9XFX#X) m s Y +XfXBXu.R $.q.s.L.x Z.*XY.bXcXA.Z.>X@XR..X| } S.pX:X@.Q S.>.N.PX#.>XY [ v.r q.Q 9.pX[ oXA.x.C.",
"Y.u.Q <.Y.S.I.$.Z.uXaXnXGX).p p W ).~.&X8Xp e.zXaXgXq...Q @.lX:X^ N.,.,Xb..Xv 3.M.%.F.i.#.>. XT. X XxX3.2.(.O ; e Z.aX[ @.=XlXoX",
"mX@.8.F./.%.M.pXmXZ.q.Y.BXnX-.s B.C.d u F.tXY.DX(.NX~.n. .M.*XuXpXU.bXwXeX@XN.e.u.b ! ! o.A.OXv.<.3. Xa.a.l.J ! , ).3Xe.Q j.M.SX",
"C.n Y ;.%X$X~.dXMXI.T ].BXiX~.q.0.r ) 7.f.o.n.2XcX^.(.~.n u @.|.p.5XzXzX,.R.Q.H  .# p m ).:XvXE.G.oX.Xw.{ <.v W f %X;. .Z.N.N.MX",
"A.N b Z.F.~.!.m.cX7X@.e.oX>X:Xu.b m N u x K.oXgXJXV.>X_.n Y m.T.k.R.Q.zXXXxXC Z e 2 D ~.7.uX%X*X*XR.*XM.].Z.^ D q.n.f.N G oXGXpX",
"C.o.Q A.>.e.9.M.*XnXo.x .X$XB.f.W y 5XM ...Xx.gXAXN.N.).W /.E.OX>...G 9XzXXXO ; ! ..%X=X~.sXsXLXHXmXjXw.n.#.& o.b B Q y Y &XmXcX",
"|.x u.!.m m W 9.+X5X8.w H iXQ .X|.&Xq.>.n.fX-XvXNX(.( &XT.2.a.G.2. .R NXvXqXX.r 6.G.NXW |.-XSXIX-Xe.+XV.|.Q u i.~.B.Y Z G ' *XcX",
"n.! {.#X^.@.9 h T Y o.b <.pXcXcXNXZ._.q.E Q Y r.K.<.3X'.0X+XT.qXqXiXn.$XXXN.h.N <.;.*X'.&XZ.F.jXQ -./.x.7Xh.n._.iXB.q 1 ; E Q A.",
"D./.jX/.u.m c n I ..v o.n.M.uX#X~.b y e.o.x t T oXm [ OXzXOX5XNXJXvXD Y Z.sXP.h b.'.2X6X..j.i.n.y M.Z.$.+XnX&X5XpX~.D r.~  .) {.",
"}.%X).` B.c n W s.f.n.q.+.^.>X-Xn.t m  Xr.E % 9 N B.x <.+X..).oXXXoXr.W q.^.Z.^.9X!.DX^._.|.).! j @.Y.I.@XI.DX&XpXh.Y.3X[ Y %.!.",
"yXB.h.9.n.7.f ^ X.^ sX;._ `.:XA.B.x [ k.j > w x G i.2.N.s.t ~ s.4.U.<.).D n ..~.! 9 <.x.A.).Z.+.l 2 [ -X).P.p.y W Q w.).%X;XkXdX",
"LXD.n O.V.oXW Y.w w n._.dXmXpXR.F.d c _ c p Z.W D } OX/.e $ 1 1.I.K I.*X;.D B.Y.$.; { oX3X}._.^ i R ..;Xq.Z x R Q ^ <.9.-Xu.}.LX",
"tX{.E y.cX^.m.j t  .i.N.oX_.*X7Xs., p T X.;.q.[ 2.m.m.a.: t 3 w.'.G oX$X-X^.oXM.q. .Y.r.).!.N + p L.*XpXyX..H L.n.~./.^.m Z.~.C.",
"I g.q O.SXY.OXK.N $Xy.:Xi.-XsX*XM.<.i } { b.! 5 X.Y T s.Q ( ~.+XN.r.7X7X9X&XaXU.S.s.Z.].) ) W $ m &X9XlXuX'.%Xh.Q OXG @.D fX/.N ",
"h.t.U : B.yX3Xm j.n.m oX_ =X-XOXZ...c.R.1.R.m j / F .. .h d [ ].E.T./.<.Y.2.R.@X+X^.~.$X`.) y.0 f +X(._.$XfXL./.5 r.j 6 D +.i.m ",
"t.9.0.T s.~.P.&X).W G oXiX.X2.m.r.} <.U.J.Q.,X6.K.[.dXf D 9 -.Y.E.W q.i.s.- T.3X2Xy G n.i.! g 4 c ) T !.>X>Xw.Z.-.x 9 ( g N Y 8.",
"h ` w.C.].].x.mX3XF ).].0X).k [ T.vXX.wX0XU.8XE.2XcX2Xn ( p.jX+X/.( ^ j...3 _.MX(.R 5 p ..a....._ _ h.=X5XOX<.Z.+.T ..u.Q O.D.8.",
"T f yX-Xh.Z.x.).{ c (.j.<.(.G.E.ZX(.xXE.+XS.I.^.>.T.c.n.n.R.^.5X+Xk.o.@.x.> N.3X9XR.,.v x.K.!.a.n B.( m.x..Xs.+XT.N. .+.~.tXn.;X",
"q.D _.).;.*X(.m.{ Z r.x.H s J.rXqXOXv.I.G J v m q.#.u.X.Q p r.zXNXx.e p ^ m.!.q.(.c.Z T +.'.V.q. .D.f.h.[.3XK.zXzXfXN.jXZ.=X+.uX",
"u.<.-.{ ].].L.B.S / D [ j @ I.eX4XS e ~ ^ u +.^ L.C...m r M.b L.T.Y W ;.G zX*XS %X).m.} u.wXy.y.L.) h w.&Xx.v.5X[.0XS.q.E N./.$X",
"I.'.;.-.jX;XjX3X=.5./ H ;.w 1 1.oXs.t  ...3 !.Z.;.i.m D ~ L.T E W +.%XP.q.BXcX%XvX3Xw.].L.m.T L._.y.m q.j + A A R.v.1.w._.x.Y.&X",
"k N.%XM.m.C.L.~.'.OX[.%XP.Z - ;...h.p T O.9.7. .0Xe.[ NXk T Q ( T.$XyX).P.$X~.cXN.u.q.u.Q G u.F q.^.+.I.b.X.7 ] l.'.K.K.-X<.*Xj.",
"%.^ +. .).h I p m.( s.].Y.- s s.Z.y.w.u.e _.` 7.n.eXR.bX-.4.AXoX[.n 7X3X!.o.q.3X~.N.P.p.;.X.T s 1.e.aXR.'.<XS -.+XZ V ( Z.7.Y G ",
"j.N +.i.~._ 2 Y u.m j.N...Y [ n.T Y ].u.t d w.9.7.[ cXzX8XE.(.wXE.y.%X4XL.[.d.O.s.Q { T s.9X[.s.%Xs._.x.3.{ T ( T D { 2.w.y.b W ",
"v u.oXS.^.=.<.^ X.>.r m Q #.M x.w 3 ..D w.Y.m.y.r.w.Y.9Xc.-.'.hXP.~.3Xy.h.T 9.9.<.H 3XL.x.3X_.OXFX^.uX1.{ j ^ Z ~ q.} e.Z.OX;.1 ",
"u.m.JXKXFX).bXC.7X{ r.<.e.u.m q.Y a L l.Z.2X&Xd.].T.N.P.5XOX5Xv.W oXjX%Xp.o p ^ gXK.d.aX/.oXs.H x.a.].-.e.$ B._ x.T.R.~.X.<.c.Z.",
"pX.XIX,XU.s.Z.n T i :.(.x.5XI @ ; v m.~.oX7X7X,.z.+XOXhXqXFXAX*X/ a.hX5.# Z u Z ^.[.:.=.m u.x.n 1 | z.U.} ( ` I (.mXcXgXZ.Q ..:X",
" XlXUXv.q.y.W Y l r.x.v i.oXY.6 1 $.*XgX%XmXR.G.e xXZXhXKXxXL.[.%XOX'.L < S 2 Z '.:.< ~ +.e.!.e z E.,X6X-.!.w.K.N.yXpXIXSX+X7XaX",
"j._.PX`.7.t.D 2 ^ oXn @.oX^.aXk N.*X-X+.r R.8XwX6XAX[.H.S 1.w.7X_ K.0XW.4 D ~ :.T.( # { +X2XN.e L ,X6XP.f E f T ^ iXhX+XMX].7XoX",
"q.^ -Xx._ 8 +.b s +.Y i.yXcXMXQ h.h.O.u / fXfXiXd.XXd.^ e ;.Y.h.m *X2Xc.:.D w.'.XXc.k *.0XZX-.c ( K OXjX0.% & s T h.].<XiXx.j.~ ",
"n.Q ^ m.B.) hXOXY x 7.o.q.mXSX%Xh.o.m X [ /.).r ( Z '.( 1.P.w.y y.p.U.v.OX( D dX[.T [ *XvX(.E > OX4X4XsX!.O.; 1.8XO.4X8X_.uX&X .",
"-X^ 0 Y.3X$X4XMXI h.@.) m 2XMXT. .n p f 2  .Z.L.5 c.[.R p.c._ a @.D U.rXvX[.^.cX[.e w.s.u...;.) P.3X[.=.2.e.w.5X_.cX6X&XN.x.%XN.",
"^ { p c d ` GXSX=XZ.@.c c ).^.s ! j G _.> Y +.$X<.[ <XT.a Z / T ).[ c.1.AXp.9XR.h.p u.w.e D O.T ).2XsXL.l. X).).$X*XoXp i = x.P.",
"k ( ( 1.Z n VXhX2XXX..F s.<Xp.@ M b.l.k.J r  .^ 9.g z.P.w.Y. .m.].m.z.E.AXU.d.b.+XN.p.D Z / P.D ( 8X2X^.DXNXZ.N.~.n.M.j . ; l ' ",
"z &.a.L ^ y.3XG.s ..h.m.P.<XE.a ] eXxXr.I.R K.U./ b.[ { ;.s...q.^ } >.c.AX+XV P w.2XL.Q O...y.$ 4 }.dX].3X&XW ( ..1.*XN.; z ' | "
};
