/* XPM */
static char *stone_granite[] = {
/* columns rows colors chars-per-pixel */
"64 64 256 2",
"   c #2B1E27",
".  c #36292F",
"X  c #2A2733",
"o  c #362E36",
"O  c #3B343C",
"+  c #373239",
"@  c #2A242B",
"#  c #28191C",
"$  c #42353B",
"%  c #49393B",
"&  c #583A38",
"*  c #50312D",
"=  c #68352C",
"-  c #773628",
";  c #653C36",
":  c #7A3E34",
">  c #59413E",
",  c #6B433C",
"<  c #65433D",
"1  c #73453C",
"2  c #7A473B",
"3  c #3D3A44",
"4  c #3A3B46",
"5  c #273243",
"6  c #433C44",
"7  c #4B3D42",
"8  c #423F48",
"9  c #573F41",
"0  c #3A4654",
"q  c #4C4245",
"w  c #44424B",
"e  c #4B444B",
"r  c #4C484F",
"t  c #44454A",
"y  c #544344",
"u  c #5C4444",
"i  c #52464B",
"p  c #534A4D",
"a  c #5B4C4C",
"s  c #5D4748",
"d  c #4C4A54",
"f  c #464956",
"g  c #534D53",
"h  c #594E52",
"j  c #4D515E",
"k  c #545156",
"l  c #5C5255",
"z  c #55535B",
"x  c #5C555A",
"c  c #5D595C",
"v  c #57595E",
"b  c #634542",
"n  c #6B4A44",
"m  c #644C4B",
"M  c #6C4D4A",
"N  c #664745",
"B  c #734B44",
"V  c #7C4C42",
"C  c #754B45",
"Z  c #6C524D",
"A  c #66514E",
"S  c #74534C",
"D  c #7C544C",
"F  c #7B5348",
"G  c #634F51",
"H  c #645454",
"J  c #6B5553",
"K  c #6C5A55",
"L  c #635659",
"P  c #635A5C",
"I  c #6B5C5B",
"U  c #665856",
"Y  c #735652",
"T  c #745A55",
"R  c #7C5B54",
"E  c #745E5B",
"W  c #7A5E59",
"Q  c #7B5650",
"!  c #6C605D",
"~  c #67605F",
"^  c #74625D",
"/  c #7C635D",
"(  c #7D6359",
")  c #535662",
"_  c #565964",
"`  c #5D5C63",
"'  c #5A5D6A",
"]  c #49576A",
"[  c #635E63",
"{  c #6A5F62",
"}  c #5F6471",
"|  c #57636D",
" . c #656165",
".. c #6C6364",
"X. c #64646B",
"o. c #6B6669",
"O. c #6D6A6C",
"+. c #6A696A",
"@. c #736463",
"#. c #7B6562",
"$. c #7B6965",
"%. c #746B6C",
"&. c #7C6C6A",
"*. c #736768",
"=. c #7B716E",
"-. c #666A73",
";. c #6B6C73",
":. c #656874",
">. c #736E73",
",. c #7A6E70",
"<. c #6D727A",
"1. c #747274",
"2. c #7C7373",
"3. c #74747B",
"4. c #7C757A",
"5. c #7C7A7C",
"6. c #7A7978",
"7. c #883A2C",
"8. c #844A3C",
"9. c #8B4B3C",
"0. c #884536",
"q. c #924D3D",
"w. c #984B3A",
"e. c #8F523F",
"r. c #844E42",
"t. c #8B4E41",
"y. c #924F40",
"u. c #845245",
"i. c #8B5345",
"p. c #84554A",
"a. c #8C564B",
"s. c #84594D",
"d. c #8C5A4C",
"f. c #935444",
"g. c #935B4D",
"h. c #9B5C4C",
"j. c #985646",
"k. c #835C53",
"l. c #8B5E53",
"z. c #855F58",
"x. c #935E51",
"c. c #995E50",
"v. c #A15A47",
"b. c #99614E",
"n. c #856156",
"m. c #8C6155",
"M. c #84635B",
"N. c #8B655B",
"B. c #8B695E",
"V. c #85695E",
"C. c #946254",
"Z. c #9B6454",
"A. c #93665A",
"S. c #9A6658",
"D. c #946A5D",
"F. c #9B6A5D",
"G. c #9B6A56",
"H. c #A16453",
"J. c #A36B5C",
"K. c #A76A58",
"L. c #A5715D",
"P. c #A8644E",
"I. c #826661",
"U. c #846B64",
"Y. c #8C6C63",
"T. c #846E6A",
"R. c #8A6E69",
"E. c #8C6660",
"W. c #946C62",
"Q. c #9A6D62",
"!. c #926760",
"~. c #8D7065",
"^. c #84716B",
"/. c #8B726B",
"(. c #897468",
"). c #947165",
"_. c #9C7364",
"`. c #93746B",
"'. c #9C756A",
"]. c #94796D",
"[. c #9B7A6D",
"{. c #837473",
"}. c #8B7672",
"|. c #857876",
" X c #8C7A74",
".X c #847B7B",
"XX c #8B7C7A",
"oX c #837678",
"OX c #947A73",
"+X c #9B7C73",
"@X c #937D79",
"#X c #967874",
"$X c #846F71",
"%X c #A26E61",
"&X c #A37363",
"*X c #A3756A",
"=X c #A27A6D",
"-X c #AA7A6A",
";X c #B47C68",
":X c #A37E73",
">X c #AB7F71",
",X c #8C817E",
"<X c #93827C",
"1X c #9C837A",
"2X c #9C8175",
"3X c #A38275",
"4X c #A4847C",
"5X c #AA8678",
"6X c #B48777",
"7X c #6A7684",
"8X c #747A83",
"9X c #7C7D83",
"0X c #757E8A",
"qX c #837E82",
"wX c #887D85",
"eX c #957F81",
"rX c #7C828C",
"tX c #7A8289",
"yX c #7A8998",
"uX c #848285",
"iX c #8C8383",
"pX c #84858B",
"aX c #8D8A8C",
"sX c #89878B",
"dX c #938583",
"fX c #9B8581",
"gX c #948B8C",
"hX c #9B8D8B",
"jX c #998A85",
"kX c #9C918D",
"lX c #8A8D93",
"zX c #848B95",
"xX c #928E91",
"cX c #8C939A",
"vX c #959293",
"bX c #9A9393",
"nX c #969A9E",
"mX c #9C9A9C",
"MX c #969699",
"NX c #A48B84",
"BX c #A4928C",
"VX c #AC928A",
"CX c #A79996",
"ZX c #B5968E",
"AX c #B3A39C",
"SX c #ACA19A",
"DX c #969DA4",
"FX c #8D98A4",
"GX c #99A4AE",
"HX c #A4A5A8",
"JX c #AEAFB3",
"KX c #A19FA1",
"LX c #C3B1AF",
"PX c #CDA799",
"IX c #BBC3C9",
"UX c #C5C3C3",
/* pixels */
"#.X 0 s.D.N.G.g.hX].AXmX-.$ D.NX` c bXS.F.`.+XH.2 o m.d.'.b.2 / 6 @ n.K K J.}.xXwXn.N.`.s.qXr d p ~ z e e z T.jX' >.1X/.).z.A.=X",
", * J j.H.=X<XZ.B a ..DXsX/.G.s.^./ :XC.i.9.l.y O i f.C.s.[.T.2 + # 2 s.A D.N R k I.E.x.d.vX%.K L <.gX*.$ T.=XA.g X c ~.M.F 8.x.",
"u * b.b.D.&XD.f.Z.B.H.V..X}./ V.S 4.r./ F R D.H 4 w ;.$.J aX* S U * 2 e.z.s.D.n.D.:X!.x.B `.<Xg d w pXd.i.f M.n R Z D.Y.< ; > C ",
"|.S [.(.M.D.b.< j.`.Z.d.{.|.K mX+.4 H pXu -X&Xa.g 5.Y.d > 1.}.m > < ).b.k.@.oX^ N.Q.l.k.s.D.AXc 4 4 z 1XT.N.N e l g Z.t.* . p +X",
"%.`.E.^.U.D.Z.+XR 3.XXe.F a + 6.I P XXFX` H.J.i.W.F.C.a.Y 1.<X4.$XM %Xc.E :XU.x U.d.a.r.l.m.NXI d v $.`.CXjXl FX[ 8 7 z.!  .6.+.",
";.kX$.+X;XL.u.U.U tXCXM.L ` O.dX`.W.cXDX` mXfXN.j.c.y.r.T OXZ ZX=X;Xj.g.E LX*X8X@.S p.r.i.F [.o.3 O.T.p IXcX_ 4XN q . U ~.+.bXuX",
"X.P 7 u g.x.S R T 6.5.! ( ^ uXNX).XXf X L ).`.Z 0.c.M R.B.).5X;Xc.P.c.J.XXCX!.E.9XU p.W.h.y.K.C.a ^ 6.Y rX' ` Q.x.h.^ I p +.jXB.",
"VXvX&X3XOXU B.n.A.u.m.n.D }.N <X<X2.o.k ^.g.J.4.E.E 4 [ M.^.#.Z.H.g.=X[ &.;.#.x.[.I iX}.%Xh.Q.f.; D p.N.%.<.-.4.p.H.J.n.m G.U.V.",
"s.JXVXtX .V.2X%.h F.0.D [ 2.U =XkX].8.KX1Xd.*X Xw 4 f z >.KXY [.&Xq.S + % a.iXk.*.p.#Xs.W.M c.9.% R 1 C z.R.W f & d.J.k.B.f.D s ",
",X+.=.vXN.hX$.hX .&.E.}.2.,.[.C.(.V.u.pXvXBXD.XXX :.X.;.{.&.,.T.A.0.p.t.0.i.g  .g k.OXxX^ m y.9.n g . % H l.L lXE.g e > n.e.S 1.",
"(.~ ! B.j.L.=.^ A.`.M.A s lXuXk.p q +. .tX5.}.V.r.n.zX5.`.^  .E @.B 8.i.x.A.&.&.t.M.X. .8Xn r.C.& g +Xk.!.C.Y :.HXe r +.3 9XO ^ ",
"v.T a ^ s.L.p Z i.n.; ; u.dX2X( O k ( G.q (.[.n.f.h.U.w l I [ q.@XoX@Xa xXu 6 : h.*Xl.I.u 2 U wXd 2.w.Y '.bX@X0X9Xk q U _ iX{.'.",
"e.^ ~ 2.vX5X&.'.J OX7.2 2.,X^ ^ &.$.T.D.).).=X).A.2X+.+ X Q w m Q ` >.A #.A.m #.c.q.'.S 9 a.9 _ 7 oXV a M.3.[ j 1.i r ! bX/ [.0.",
"n._.[.vX~ 3.^ [.CX{.n 6.5.bXm.^ * D R 8.n.C.D.[.Q '.%._ + _ 3 4 B Y S.V A.x.& T l.j.J o s c.*X.X/ 9.l.w +.t } rXd ;.l |.HXq x.D.",
"m.b.&Xl a D m.3X5Xb.,X,X`.1X_.y % V l.< W.G.+XB.d.I @ m n +.4.h { s F g.a.T.o > F.K.T V l.g.`.7 + B 1 d 2.U X A s.8.: Y [ O N.l.",
"Z d.~.d B P.D.3XQ.-XG.$.~.*X^ ( &.D.m.t 6 I =.( _.y u 2 a.h.0.E.k.T $ b C 4.P X.>.l.p.r.qXeXE.6 H 1 < 9 zXq . F h.f.8.C T.M.F.k.",
"~.~.a _ {.d._.hX|..X$.#.%.5X-XW qX;...l 1.c ^.V._.qXe q.h.g.= N.Q.B 7 f ; I.X.z ,.k.t.8.A.a.m.E [ V 7 i 9X; M +XA.C.0.D _.:X6XZX",
"6.~.^ 8 ^ ].AX3Xm.g.T.I {.E A.p.E cX2.[.[.Y._.i E HX`.a.j.h.*X6X;X#X`.:.8 G d.eX'.p.g.0.a.j.a.I.X 9 B $ k u b D.1XBXBXY.>XP.3XvX",
"S C.C.R 1X~.vXs.C.a.S.x.g.g.h.M.U jX,.B.].W.H.&.9X$.,.R y.t.*X;X+X,.p g J k.g.#X%XW.0.0.l.C.E.:X..l.c.z.> , z.OX`.1.r U #Xl. .1.",
"m.*XR Y.(.&X~.l g dXD.g.f.9.c.T.R *XQ.`.a m.G.<XtXd J M.o.Y 6X+X@XA.NXx J m !.*X=XY.T f.k.7 l.#XXXI.Z.Y |.i 5.2.T.f n.m 3.3.>.3.",
"Y.).B.aX].F.g./ 1.f OXoX$Xm k.l [ U.#X5.1 g.G.a l f U '.4.X.{.4X,.N._.&.$XN 3 [ X.i p r.!.M x.!.W { Z H x y I =X1XvXE.dXc M.F.M.",
"C / dXhX.X[.f.C...;.` j @.U qXL E I.nXY.d.j.b.V.e S C.n.l 3 <XjX+.m W.+.8Xo B %.6 : r.N %XW.z.,.XXd U { s k.*.*X~.oX+ i 6 B.i.p.",
"2 a.dX].Y.$.K D.T R l &.OX^ }.y.A.hXk., 9.S.h.g.m.l.H.m.J W sXHXW.L H :.cX7 n s 4 E.p.T G [ dX:.e K E T 6 l X.4X].2.U A.s i.V._.",
"_.S @.$.D.<X*.i.C.=X_.B.>.M.9.9.p.}.#.O < M ( d.).q.S.C.V m.[ {.+X_.>.j L j.!.W p !.Q r.E.$XzX[ ..`.].m.g X.k 2.y lX^ p A a.G.3X",
"^.t 8 x E.aX` z.C.>X*XXXO.C.0.C.l.R.D.fX4.9XK &XR % $ ^.1.5.j ,X#X/ ].4.E 3XOXN.E wXi s VX$.:.dX`.B.+XXXg x dX) 9X/.R y p h.H.Q.",
"VXT.` X.H q ! M.|.`.=XOXM.U K % R [.( &.9Xs.I d.n.a z d 3.F qXXX^.Y R.aXd.g.{.V.H 4.J 9X3.4.KXhX2X~.BX8X1 B e f >.n.l.a @.l.I.:X",
"<X2.-.t k U S.7.XX! ~._._.M H 2.` k.  aX[ ..a B C.u.L 6 z ,XpXMX4.l e <. .O ;.hX[ 5 w 9Xh Y wXeXCX3XdXU 8.p.6 d P b J |.o. .&./.",
"'.nXz o X.& Q f.V.k ^ B.OX(.1 /.` $ + L Z.L t G f.a.@.% + | vXAX6Xn.( 1.5.r ;.B.z.4 w L Z E.$XVX|. .hX#.d.B 9 1 u m l.N.'.2.W.A.",
"NX#.W.K x c  .q.D iX..3X~.^ z.pX;.r T.Y m.P z $.h.j.N . & (.).S.C.= u.1.dX3.k B.x.N.W.a.p.Y.x R.<Xz OXY.M.; & - D D v.[.&XA.d./ ",
"Z C.I.B.z ;.f %X7.Z e / p n t. X3.$.~.F N.@Xw Q Z._.0 4 d C.C.L.b.D._.,.Q.H + E E CXCX{ |.{.&.g.*.HXBXz.A.k.= 2 eXN.J.:XU.3 Z #.",
"w.B.T.~.yXrXi z.0.1 @.P g.R {.7X{ a.!.V.d.p.qXN.'.~.e z I.l.>XL.L.ZX=X&.5.2X].l 4X>XCXS y e Y.;XK.@X,.T.B.2X8._.oX%.].NX<XH '.'.",
"C.D.M.XXyX0 v &.2 g.i./.*X*.{ dXE p &.R.d.h I N.[.z.j 0 L U.W.A.l.kXfXT ^.3X{. .+.kXVXc.C.H J :X:X#XrX XNX^ k.gXuXw !.W.^.CX3XPX",
"+ U.R.4XtX^.G k t.w.< T...1.iX'.W pX3.N.aXE k.Y.#X@X,.S u ^ E I S ~ O.zXoX+X+XU.E.5XxX X' @X%Xh I.z.] } ) k d.OXGXyXE.l.!.gXsXMX",
"T T bXVXnX2.S X.>. XN u p ;.lXjXdXtX! `.3.iX,.&.z.l.V a.k.b f.iXU.6.] yXFXO z.c.F.bX4.uXGXE.@X`.S &.| 7X..#.&.rXlX0 X . %.rXMXSX",
"<XaX;.VX%.x |.5.cXZXd.$ ;.^ zX1XD.4.9XL k.*.' @.N.a.p.~.u p F m l Y f [ oXG a.H.A.7 G c.W.S F.M.B.%.| 7X-.z _ 7XuXM 7 $ ~ ' 0 U.",
"y bXDX,XU d./ nXHXzXM.@.gXD.^ J.`.4.W.Y.Y.V 4 FXDXh z % D V > & % m XXBX'.{ ; / F . u.z.a !.Y.j +.-.-.} #X}.;.w R.i.(.$. XM Q M ",
"f.s.XXY.ZXG._.iXIXSX;.X ~.a.H N.g.).(.dX#X&.{ GX<.3 4 [ `.V.a @ $Xl.s.T.&.:.L wXH lX[.l.R.^ k.T.sXv ! d 1.HX .& R i.E.wXW.l.3XG.",
"p.9.R R X.F.S. .w +Xc 4 @.g.Y.Q.9.Q.2.P T.o.z 0X4 9 h XX^.^.+.+ $.2 a...I.z.^ W Y.NX9XR.r.8.u.A d.~ ( < c .XU d.i.8.h.Y.OXm.>XG.",
"e.S.=Xm.w O W.CXNXC.o.x @.).D.D.8./ E W.g 7 J _ ) 3.8XsX$.<X$ $.|.'.:XI l h { ` g.Z.T E.F V R E.2 < T n r X.S C.S.s.& t.-X'.m.8.",
"d.#XCX^ I F.C.{.OXD.8 e $..X2XY.`.b.'.].8 E.c.x.dX4._ *.Y.U.d 9 '.OXA.E.p 4 4 m - 0.u.D.^ u L ~.K <X^ ).I.X.k.*XF.XX` C J.*XQ.Q.",
"C.,.mX6 p i Z.R.$.XX<.-.;.uX XOX_.Y.R.[.e #.'.+XW.%Xu % m / 1.$.BX-Xa.fX~ q ` - - - 1 D XXoXN.s.{ O.#.S.p b u.!.#X{ e k.p.h.Q.&X",
"e 7XJ #.q b g.D 8 1.}.BX_.5.#.`.<Xq.*Xm._.m.f .XaXx.J ,.|.~.3XiXJX^ c.:X/ 8.A x 2 & T $.x ..s./ nXoXQ U.Y a.z.}.fXI.S.%XE Z.F.N.",
"T XXD z.`.9.F.S F >XC.D.^.:.z h Q g.S.r $.D.tXx `.S.R J C.D.CXHXW.a.t.'.&.G I.rXX *.R.I P q N.n.&.@.#.z.Q D !.T.x.A.W.Z.7 T +X~.",
"U @.|.&XM.2 a.I #.P.L.).).aXnXm f.x.5X(.d [ g v ! I r ( m.|.MX Xl.N t.`.C.R &.0XQ F T.l + M x.A.Y.N.6 x.,.wX'.:XZX*XC.f.1 a [ U ",
"U ! -.O.M.( 0.Q _.%X>XJ.1XDX9Xm.j.F.h.~.8  .X.cXp K K E.F.S.,.{ @.j 4.e p.r.V ,.d.d.%.<.,.i.d.s.].U.W m.N.wXjXBXUX!.8.9.s.Q { H ",
",X|.{.;.@X..^  .W Y.*Xm./ cXf M a.R (.l X  XtX` a s.R s.A.E.E.#.#.g g o.%.l.: N d BXKX*.i.a.C.S uXbX|.j }.2.JX&XJXA.q.a.s.r.a I ",
"2.|.+.8XzXw.8.s.P T /.H s ` g N.DXL =.T ! CXrX/  X<.P ^ XXOXA.p.z.N.Q $.& #XV C T.*.BXN n. XU ^ 2 !.Y.Y.A.}.nXCX+XW.c.p.C N 6 ..",
"#.%.HXHX<.%Xe.7.S r.G.vXOXe { bX4X_.M.d.U vXX.$ 1.^.Q.I j $ P L .XeXz.&.; #.E.{ A.1XZXC.W.! l U.g.x.I.Q.:X1XP IX5XJ.h.9.c.x 9X/.",
"%.d CXNX}.@Xj.9.B a l...BX[.'.HXC.d.}.#Xz 9Xc $.O.`.).$.j K ;.;.] pXs.d.I g I J !.hXJX,.m.I.O.R.f.T.3 6 dX#.4XMXR.Z.f.h.h.#.T.I ",
"[ j BX@XD.p. X~.XXg R E 5XD.R l.p.A. X) fXVX,.XXA.^.).P h m.n.sXX.bX&...z g t P R.R JXP U.|.4.` $.lX3 h &.s s.E.% I.f.>XY n.a f ",
"K 0XVXwXZ f.Z *.[ { %.*.N.W *.6XE `.9XL :X4X1X2.~.X._.$.N.i.k.z.^ l.k.pX9X` ' e @X+XDXv E.#.iX;._ JXxX{.I.2 Y ].i.$.#X7 r / 7 dX",
"/ %.:...l T * ^ 7.s.W.W i q +XR.o.&X8X3.'.D.).e @.$.6X2XW.t.h.t.H.9.S.}.k pXqXM.B ,.HXgXI n.P MX*.gXdX<X|.m @.iXE rXnXu [.%.q b ",
"Z./.o g A.H  .6.< A '.R L I BX#.DXuXzX} _.Z.:X`.].JX( K C.u.V 9.*Xt.#XW./.m 6 M a.mXlX>.C.0.& @.A.J.S.G.N._.N.O.4.gXO.H J.+XE.t.",
"k.h *.t.!.R O...U }.*XVX$.I dX^ 7X9XzX[ S.h.=X`.[.SX2X*.F D.C z.#XgX$Xx.=XE.h R x.hX_ i f.0.1 a I fXf.z.L 4XA.$.&.-XZXz M.g._.Q.",
"w + 7 u.R E.}.1.I [.Q.}.p.hX .cX<.c 2.P n.&XE.G.L.C.u. .,.F - { ) FXcXU.%XA.r.N $XSX' XXk.0.& p  XNXx.d.I e S F.~.Y.=XgX..~.S 2.",
"sXkXnX1.n.0.a.NX%.Y.T.N.x.'.OX} ) ;.mXjXR.|.;.4.<X, f.{.O.s * E } { hX`.z.T.r.J j E.{ cXsXm <X .iXhX7 R 6 7 t.#XaX+...BXHX+.4 k ",
"5.$.zX5.C.w.2 r U [.T.^ R _.m.}.X.m S H./.k DX3 X.h G @.G N 9 Y {.NXNXI.Z { uX..U x.G wXCX7 j -.8X` d r @ v l.}.6.. i iX;.0 p +.",
"` ~ ^ s.j.j.x 2.C.L.^ K I /.'.a.W W.S.J.b./ *.:.$.2.  a N C M C N.[.]..XB.<XbXV.W Z./ }.'.,.X j <.w 6.R ^. XY.].dXR #.x O U =.DX",
"0 @ > n.b.^ H Z b.6XJ.D s.U.^ U f XX[.VXN.#XCXCX .;.h D R C I p.a.@.U.E.M.^.U.P >.A.n.`.4X{.M g.hXvX}._.T.n.T <XM.f.T.^ C.n.@ @ ",
"> H & <X*Xh...+.b f.H.p.y ^ ~ G M ).|.d v T.I ,.l 2.[.A.E & U C a.Y l.l.n.T j.m.A A.g.5XJX#.g.h._.<XuX}.4XvXm.}.m.m.U.D.C., 1 y ",
"P cXB.D...d.$.,XQ.L.b.J ^ m 2.M.x.A.^.W r.B 7 `  .^.T.M.D.N.! 9.v.i.s 4 ' ^.h.H.3X(.l.~.IXmXm.).D.P &.I r ,X~.2XX.jX5X=XD.s %X).",
"SXHX=.jX,Xs./ 6.^.G.R y 2 R k ].d.1XT R 2X% N  .;.I ( ~.T.m.m %.&XG.T e c m.g.b.~.2.2.X.=.p y V.~.F.C.p.Z M.` 1XpX^.[.=X/.R _.*X",
"^ ! ,X! $.& d.k.g.~.&.G.u.%.l #.CX,.2.%.lX>.*.R d.^ `.W.D.^.U.GXmXE.N.Y.l 5XK.Z.m cX3.uXm.Z z ].+X7 a.8.2 b.I ).2.4.1XVX2.R n.'.",
"+.! A A 2.C.C.V.Q._.U D #.6.,X,XtX^ <XW.hXaXKXb.V.t B.M F.[.@.j DX4 z.N.g.-XF.{._ dX..aX2.x r :.oXz 7 2 u.s @.dX;.@XZXHXXX_.~.~."
};
