/* XPM */
static char *stonebrick_cracked_p[] = {
/* columns rows colors chars-per-pixel */
"64 64 74 1",
"  c #131313",
". c #191917",
"X c #1C1C1B",
"o c #211F1F",
"O c #20201F",
"+ c #242423",
"@ c #282626",
"# c #292927",
"$ c #2D2C2B",
"% c #312E2D",
"& c #31312F",
"* c #353432",
"= c #393635",
"- c #3A3937",
"; c #3D3C3B",
": c #413F3D",
"> c #42413E",
", c #423F40",
"< c #454442",
"1 c #494644",
"2 c #4A4946",
"3 c #4D4C4A",
"4 c #514F4C",
"5 c #53514E",
"6 c #4F4D50",
"7 c #514F50",
"8 c #555452",
"9 c #595654",
"0 c #5B5956",
"q c #595758",
"w c #5D5C5A",
"e c #615E5C",
"r c #63615E",
"t c #68685F",
"y c #5F5D60",
"u c #615F60",
"i c #656462",
"p c #696664",
"a c #6B6966",
"s c #696768",
"d c #6D6C6A",
"f c #706E6C",
"g c #73716E",
"h c #736F71",
"j c #757472",
"k c #787774",
"l c #777873",
"z c #7A7975",
"x c #777578",
"c c #7D7C7A",
"v c #807F7C",
"b c #7F807B",
"n c #82817E",
"m c #858482",
"M c #888784",
"N c #878883",
"B c #8A8A86",
"V c #898788",
"C c #8D8D8A",
"Z c #908F8C",
"A c #8F908B",
"S c #92918D",
"D c #959592",
"F c #989794",
"G c #979893",
"H c #9A9A95",
"J c #9D9D99",
"K c #A09F9D",
"L c #9FA09B",
"P c #A1A29D",
"I c #A5A5A1",
"U c #A8A7A4",
"Y c #AAAAA6",
"T c #ADAEAA",
/* pixels */
"<3wweiwwpippparr>>00tzltnvO%tbgdltpwe0ewwy8swyisudxvhiiuqwwuuw77",
"unxVFSCmHSDZCHCStaASSPPSGn0&tAGBDSnnnNckBSxmdxcxVZVZMVVmxvcxxhu2",
"qmzSHSSHLSNSBCCCtrnnAHHnHAtO5bGnnSSznZmBCmnVcxmhcCxDCFZhnxZxhxhu",
"7gjkBHCCDANCBccmn>llnBCnSAn5#5nLBnvzcCcCfzkDMmVxuchDHIBMVmDkvhuu",
"8wltdcncSCcnngdlgg5nnnvgnnnnO$rSAlznfkrnBccadmvmsspkDKBjZCFkuspe",
"qdjzjzzcBSPzzrt0r0t>nntrnngl5.-ttrzgnvckDvciixVVsfkcMBDDzfuhsshs",
"qiVdnSndBHHDBzlrt05>nvnlnntag$>>-*-annefBVccsiymkeeedfgddvCvvfvk",
"8qccaCAaBHKPJmlcnt0&tlnnngtgt>>gdz->dSkeCcimcjddfj9eCVFBzmCvpmC8",
"<5mbgBbsgNDHSAnfnn>&O3f0ttev>tvvpa4:%9VgzHriia8;<62wlJDJCCmjqdk2",
"28mjslBzcfSHHCCdjg>34>:>%+#:>vvntn084@1ssiBwu6*@+;<*,CNbdclcqcv<",
"-2agjimlncSFndDg55:3ntfnv44:evnZvNk9q8#:;8q:3<*y3fmbd7plckaixhc,",
"+$528aldcvnBlaBaOO*nSngvvtvvevZFZkBziMf:X+802qxkufN0lgdwccdan8s1",
"X*-:&pbgbNABnrr0%>fZFvv00tnFttnHBvnZgapzqX*8dAaBmsbcrimg8inmmcf<",
"$&5i3#$$<alNa0>5oetnPvnt>9nHe9vvFnffgeud83+qCCcdfCgxugbbxwljxBx<",
"30rrla3>O-<r5$1>ovevHvvff:tFt4tvZkdfvijiiq$qmCCjjgmdalmbaqccvmb3",
">8arlggl83tig8ap.tv0vvvvtvvnvettZAvfnjdibk05bbBCbbAzgmAAlexCvcB6",
">regblblgtvgg9tlO>cVcgwd9vvFvvnncnmSCBdjjkpkmcjiilNNNdjjfwqmVml<",
">a8bGNbnvngggeedt%tSggdrevtvvtnvNBBBICc7ed0kdmVihsggNDVbdhwcgNb*",
">rriSGSzvnvggtetk<iBatcdevvFnvvetCBgIDm3<88dckDccNlmLPKDcgdxflh;",
";58wSLLAtnntvg9ta45CktBattvnnFvvdnScFJVs9qu8hcDMANdNIADGxdAgbVgy",
"555rLGGLSSDdavZepe#vklSgvtvnvvvvggg9BZDjdxgdswduufwbAAVnJVblVmbh",
"202tcBAHHnLngvZvf9o7egnvvnnvva945evsdcZZccddxijsws8qjVnCVmVbAmDx",
"><4tgrnACSFne:2ew:+--edvtvnSv9ppetcckxVcjVxahdcmNblqqldcmCDCmSCx",
"3>3tCtlgvnnar>:%$o:4etazvFJvvvvpsekjmcVcjplVchhmAVbs68lbSdhhnSV6",
"39>0nvffttt458e4#+1==:4hkSSvvdvvvsekufDmmsmxVmvcVJCcwe1ey8x0mZm<",
"0e:3kCnnvdgvaeee$$9353,:amBnvdrp4ehphfdSVmmchxcscmNc9kffhdfsVSm,",
">r5>anktvKBvvfee<%wq4et9evvgvp5e8:5fvuvMZvVhmvchxnnm50sugshidFV<",
"5a2:4kdeeaKFSvhe41ijuavfvvvvfpeee22evdae3,hshkcmdljCckcDSxcnxFVq",
">a03rte4e0fKKDSaw<4qd939envBafi999,da4pfiq27dcdmgwwyhhvPDjcjhFVq",
"1r0:dtkfrtpaKZZva31pwde4jeefhhde9e,:e7sVhhe4usndddqauesmjmDVxZm<",
">fgfaktefevavvvvjd895deatpgvevvepfddq95vxjs8,,6yii8uuq2768xm8xx;",
"&295:392:::::9e242-->:<2:244:52:,,75,=::772,,&@$$*=;;,*;&$$$$=66",
"CBBncmcknggcccccgidegdjtzmmnCVmi9vrvvkvejlxghjvkxcxduidsgcmjdcmS",
"FnSCnmznBBCmCBDZggb8zdAaZSDDUIBx:avvvdVemlAljmBbVDDcxdVggCCBxcSH",
"HjdgbmnBCSnDFZJVa0jrzaBlBcNHJLVd:eMMvhB2gbNxlbljCHVVmhnclAcnVdVJ",
"nBlmmBmHmBmmCDJmbwdqe5drSScGDITd,9uMgmv=rmmbjambVmVmscbCcBBBmcVS",
"jnCSDHJCBBZFMCCclzlnCl5zaSgCSHPj;wppfvv%6bbdiVABggBg9nmBVccnjCjV",
"cBjHCCHmCCMCmmSCNsnmcn2ldbbnSbHi>0wreiB2<iadlcCmkdmq0cSADDmlcBnC",
"lgaHDcDBBBgMVDvmdsBmzcr3gbCnBJLw;2djd0pp&65i9wlbzdd-cVDDCGNjlBcj",
"nggHCCZDkckcvFmczdmBgcg<0pABDLHq-50jgp0*-;2sxq0pai2sbAADBgDmznma",
"djBmnCDCkxjSVmBmndBBcnl28lmmAAmi-85dir5+rannzn83OXrmBCBBCjmCJGca",
"ncnCCBVBnkpxSCBcCdmlBmk1<dlNNAmd>52<etd0rqgzBBld6 gmVcBnCaHnLCld",
"mmSBDmVnkladcDDvdxVjSmni3ilmlgni<0>acldr03qjVbCcd+;lcsnbBaBmSBnB",
"UDDADCCCmcnammICmdjnSCBc88dNzgm030rgnSgrt8gcmmBced*<gshbnncVnznD",
"JIHVVDmHxgxjVcVmkgddncCBl03AnmAi35dBbnca58jVzzmkaCd*-adASnkNNgAK",
"DSDVmDJDBajjmcbcVVfrgBmDme<VBmmd5tdNnvlp0lkblnmZgbA7,1qVADalNanD",
"CDDnmBJJVajcGmkVcBmifcZNmw;uVcmd35aBngl5sgnjVCCHmdxik8+fMvv0vnvB",
"BDSJCDDIDaaicVmDcCcpjgMmc<322;,9383rzzrfglglBCBDCCipnC84ngnzvSBk",
"CFICNbHScxdddzzAvvanvvvn9-<vl8u319v1v04v4vvvHnHvbnwpcvfa;jjNmBNC",
"DJDDmCSmbs6dbdyCvvanvvd:2%0SCcme>5v995vv11vvnHHvdddlgldg-0albmCH",
"JDmJci,;8-#wxmzAgfvvef5%=3aBDbmi:5vvv01vv1vvnYPvcZlrcmncgO8lBmJH",
"hjxSbcs3j8q&wisltegvna4:gggvCAms=tvv1v4v9vvvnnUPmCziaBlCCi&6kVDD",
"kVCBnmCkwddw>+O;::>:=#=:gjbbmGCi15vvtvvv0v5vvvHnSFSclSCnHzg2bjDG",
"UUHcmVVCbxfxdrs6:>055v%#rjACDDDi:4vv9vnvv41:19vnSVVDcCZCHgzlcGAI",
"UHCVCJBDVNbmxbbl9ttevv1.immCVmbr>290159vvvvv901tSDbAzjdBLggGzSAS",
"HmZScSzmbAzcclNlvtv9vet#3CSDCmDs9tvvv495vvvvetvvCCmBmgergatdzCAA",
"vvnvnvvtxBBnAbgpvvetv4v=1nnnnvnv4vtvvv5vvnnvettvv0vvtfd9brt3rnnl",
"vvvvnvttzCAdpjcs5v9vt15:onnvvvvv:ttvv41:vvHvv59vvvevttttcindtrnz",
"v0vvvteva5li5pzj0vvnvvv1%:nnvvve4ttev5595tvvv55tevt0fv0tngnnttnn",
"t:e95tt5855rr80gvvtt0v154.vnvvvv50t0vve941vvt95vtt40fvvgadlngttg",
"0909etvvgt54>*>rv99tvtv54o9vtnve155t0v59e99vv09e9999ntgtttggda50",
"954etvnnnngr05&>11ttvvvv%:14vvv91t9vv99v9149v09t45995gnv000nat5>",
"51>:>te5gvnttr4>:11519t:=911vv99:4t9555909:4155tee945>0t0959gt00",
":#:=%#%o#:>>:>>:%%%%=%=:11::195:%%%%%%#%=:=#@#+:%%:%&&%:%>:%-->-"
};
