/* XPM */
static char *stonebrick[] = {
/* columns rows colors chars-per-pixel */
"64 64 69 1",
"  c #272421",
". c #282626",
"X c #2A2927",
"o c #2E2C2B",
"O c #312E2D",
"+ c #32312F",
"@ c #353331",
"# c #393635",
"$ c #3B3937",
"% c #3D3B3A",
"& c #413E3C",
"* c #43413F",
"= c #454342",
"- c #484644",
"; c #4B4946",
": c #4E4C4A",
"> c #514E4C",
", c #54514E",
"< c #4F4D50",
"1 c #514F50",
"2 c #555351",
"3 c #595653",
"4 c #5B5A56",
"5 c #595758",
"6 c #5D5C5A",
"7 c #615E5C",
"8 c #63615E",
"9 c #68685F",
"0 c #5F5D60",
"q c #615F60",
"w c #666462",
"e c #696664",
"r c #6B6966",
"t c #696768",
"y c #6E6C6A",
"u c #716E6C",
"i c #73716E",
"p c #726F70",
"a c #757472",
"s c #787774",
"d c #777874",
"f c #7A7976",
"g c #777578",
"h c #7D7C7A",
"j c #807F7C",
"k c #7F807B",
"l c #82817E",
"z c #807E80",
"x c #858482",
"c c #888784",
"v c #878883",
"b c #8A8986",
"n c #898788",
"m c #8D8D8A",
"M c #908F8C",
"N c #8F908B",
"B c #92918D",
"V c #959592",
"C c #989794",
"Z c #979893",
"A c #9A9995",
"S c #9D9D99",
"D c #A09F9D",
"F c #9EA19A",
"G c #A1A19D",
"H c #A5A5A2",
"J c #A7A8A3",
"K c #A9AAA4",
"L c #AEAEAA",
/* pixels */
"=:667876ewteer88993j9jl9llljfliil9994494j3>j>3<55jjzjj4j>3,3e<-<",
"qzfcCBmxABVMmAmBlFlllFLlllllBZAlFllljljjzzjjjjjjzzzzzjjjjjjjjj0-",
"5xfVSBBZSBvBbmBmlllllLFFFZlllFFllZBflAjljjjjjjjjjzzzzHzjjjzjqjj0",
"2uaabZNNVNvmbhlvlllllllllFlLllAFBljflllljjjjjjjjjjjHDLzzjjCjjj50",
"<qd8yhlfBmhlliyfjjlllllllllZllZFljjjjj9jzjjjjjjj7j7jzDzjDzDzjj00",
"5yahdffhbBGff896999llljlllilllllljljjjjjSjjjjjjj77jjzzAHjzzz0jjj",
"6qvylBlybZAVmfh993,lllllFFjjllllZjjjlj9jjzjj34-jj>7jzDHzjjzzjjjj",
"25hhrmNrbZGGSlfjlj9jllllll9lllillBlAlBj4jjjjjjjjjj77DzDzjjzj7jz&",
"*,llillrsvZABBvill99jjlljj9jlllljj,jjjjjjKj7jjj3sxt7jDBDVzj7>jj&",
";4layfbjhumDAmMijjjlj,ll,,;jGlGG9B94jjjljjjjjj3j4mlyyMljjjjj3jj&",
"$;yia9lfvjBZviAfjjlJljjlj9j9llKllBj44jjjjjCjjj,j3pvljlljjjjjjjj&",
"**flyufuhllBjimh9llKlljljjjljllKAjBjjjjjjjjBjjjjtab7sajyjjjjz7j&",
";&4bfslflbBBlablllllllj,4jll4jllBjjlj9jj,,4jCljjxyxheelj7yjjjjj-",
"::9ijfibfBAGlllbllllLllj,,lGj4jlABjjj94j;jjjCAjjamss7yjlj3jjjzj>",
";89rblfhylAGm9bZlljlLljjj4jlj;jlZjj9jjj9j>4jjAljdixuyjzje3jjzzj>",
"*2iwlhlb9rblMylZllljlljjjlllj79jABjjjjj3jjjjjjClkxVhjbCzj7jBzjz>",
"*w8dvkvlljljj8iBMZBBlj7r4jjlllGllbmBVmagahmfvkaethccvpddu65zbzk=",
"*r2kZNlblZjlj99jABlSjjj99jjlllllmBmBHmx2rxffpxneayaibVbzyi6hdxk@",
"*88wZAZkllljlj9jSGBBjujr4jjlllljyBBiJAn:=6yahfVjkvdvFGDZkaygpdu%",
"%128BFFNill9ll9jlZBAjilrjjllFlllibVjSGMy6ag2ahCcVcivHNVZdtNikciq",
",,,8FZZABZZiiMDjjjlMjjljjjjljjjjisa7mVCffhhay6y8wy6zNNnxSbzdcxha",
"-6;9kbNGSlGBjbDMlj7r7jljjjjjjj7,69lyahBMhhayatgt6y35anzmnxckNxVg",
"**,9i8lBBZDlr*3ei7u7,jjjjjMCj7ee7rhjhgxxaxatuyjxnff35dyfxbVbxBmg",
":*;9N9dijllir,;&&773999jjCAjjjjjiwffxznhaegxhugxNnky<3dkBppazBn<",
":4*4ljiyrr9,77ue7,3&&&3jjVBjjjjjjuwsrpVzztxgnxzgbSbk67-7q2a6xmx=",
"46&;abblfisla7uuy97,3>&&8jmjjj37>wpwuuuVmzxhaghyhcck2siuatpwxVn&",
"*8,*rlf9lCmbjjparee7378,7jjjj7372&2ujqjzMzxgzjhuaxzx26yqatawpCn=",
",y;*>fy49rDVDbjrjuujeyjjjjjjje777:>7jyu7;&aysshzydabhagBNgfxgVn5",
"*r6:898,77uDKDDjer77y3;33jjjeje472:uy2quw2;1yhyxy5qqptjHVgzayCn0",
"=84&y9dy79erDVCjj77y7u7,j77jjer737&#71engp6<qtzypy6tt6txavVngBz=",
"=yiirae8y7iyjaMmjj773iwu7rjj3jj7errr752ggat2==1qtw28t2-2:2gz2gg%",
"O;3:*:3;-&&;;777>>&;&&&,>*;>&>;&-->:-$&-<<:*=+ooo@$%%=@%Ooooo#<:",
"bvbxfvhsjsahlhxvfualfajlvvvlmmxe2grajsfjsfhauaxafzgywwprahxuyjxV",
"CvMMjvflbbbvBmSVsjllliZZVBCCHHmg&ujsjanmchMhsxnxnSCxggcaimmmahBA",
"CsrujvlbbBzVSMHBi8jllaZBCjbDSGvp&7cnlaMMlcvjjlhfVDBnmnvhhVjxnynS",
"lbsvcclAvvxxMVGnl9asbblBDAlACJLu-5qcsmbnhmMchibvnmBmmcvNhnvvxhnB",
"sjMBVASbmnMCxMMhhhhvZBbbaAjBBAGa%8rrulMfnVvhimABhhVxpbnBcjhlamax",
"jvaZmmSvbMbbvxMMbebmbBbBfmlbZlAr*4888rBMmnflCSCmzhVcivAVSSxfhcvm",
"sirCMhBmbvumnCxxirmmlbbjlmAmMDD7&:ifi7ubxhgCCSBbxfnaxVSABAcafvha",
"liuSMmMCshajhCxfsivmllllssABCGD7%37ffueuvhhCSSmbxjxmmSCVmaVvfxly",
"yscvjMMmafaVxxvxlyvmcmcfulMmBCb8%63fblf4ffbmlFvmgfMDSAMMBgvMSCjr",
"lhjMMnxmjfefVnnzmyxfMmltyjlVbBvu*2,dhflyy9hlZZmbj4SDVcMvVySxGMsr",
"vvMvVxcxaftphCVhusxfCBmfjjjbjilr=94llhdte38lVnVna2vBmamxnubcBblv",
"HVVMCmMmxhkyxxHmjpfxVBBvallMlil8:yedbBdry6kbNmBxtcjxmssxvvlvvfjC",
"SHAmxVxCaaadxxmxfauyvlVVcucCzbMw:5ibllku46kNxxbkiCmcvzfCAbfbvuMD",
"VVmmvVDCnyaaxfxhxciwambSbasMBccu28yvvlfyqhhvkcnCavCjVhhCBAyfvyjC",
"mVVzzmSSxydhSnfnzmceijVmbjjMBccu:,yNvif5rfxfmVMDvajnmhljCll7jljm",
"mMBSMVADCaytxnnChVjthsmmMjbDVjjj,3:8fk9uifakmVmCBBhfmAmVSlbjlBbs",
"mCDMnlSClfpaakhVjjjljjlAMljlCjjr*79>u8,j4jjjlAGlxBhylMjVMcjvvnbM",
"CDCCxmVVnawaxaeNljjljBlMBllHDlbe;9j9999j;,9jlASjhxsxjbfjMMifjvMA",
"SVxSmVVmxkhaxnxVj9jAjjjAljjMDlme*4ju9r>jj,jjAGHjmVhybBMlCfufmnAA",
"ausVvmCSchbbcncvjjjjDCjlMljlCCcy&9jj>j,j3jjjllGAmBxyaZbVAbuMsnCV",
"snMmxmSCbhzxNcbN8jjjlAGlllMlBDM9*7ij7jjj498jjjSSVSVvjACMGljjBfCA",
"JJCjcMmSmnhnchVN8jjjlSlljlSAAACe*,ji3jllj>>&-3jlVnMClVVVGalMGABJ",
"KAMnBDVSBMnNxmnxjj9jlBlllBBBMble;797;,4jjjj934,4BVlCjjuMGifANZBC",
"SxBVxVjnnCxxxhmxjjjjjjjlSDDSVlAr5iaij,47jjjj77jjmnvnbs79si9amBBB",
"jjllllijhBBbZlfijjjjj4jjlBABDjDj:rrjji79jllj4j4ju3jjrii4l9r,rlNj",
"rjjjllirlVVirdly4j4jj,9,9MBjrjzu;yryj43;jjSj7;;jlj9j9999j9liy9lj",
"j9jlli9iy2he2rhf4jjljjj4rrAAjjj83787j933,9jjj,,j9j94ui49lill99ll",
"9*77*r982,39846ajjj94j9997jDjMCr3797i773,39jj3,j9i>3jjji9uflir9i",
"9,444ij9ur3,*#%9j34,jjj4jj4jjVj7>,,79998734jj447,3,4lri999iiur,4",
"3,>79jllNli833+&*;9jjjjj8jjyllj3&97ji97j4&>49449,,3,3rlj444lr9,*",
"3**&*r7,9il998>-&;*,,4jj98*>jj33&,93,&>4,,&,,4,9843,,*4943,39944",
"& &&oXo O&**&$-$O &OO&&>>>&&;3>&X&o &&Xo&&&o X o& &&++@$+**O$&*$"
};
