/* XPM */
static char *stonebrick_mossy[] = {
/* columns rows colors chars-per-pixel */
"64 64 246 2",
"   c #231E12",
".  c #262214",
"X  c #2C2614",
"o  c #2D2915",
"O  c #25231E",
"+  c #2B271C",
"@  c #2E2A1A",
"#  c #312613",
"$  c #322C16",
"%  c #332D1A",
"&  c #3A2F1B",
"*  c #373116",
"=  c #383416",
"-  c #36311B",
";  c #3B341D",
":  c #3D391C",
">  c #262522",
",  c #292723",
"<  c #2D2A23",
"1  c #322E23",
"2  c #392F20",
"3  c #353223",
"4  c #3B3522",
"5  c #3D3A24",
"6  c #353228",
"7  c #3B3629",
"8  c #3E3A2B",
"9  c #41361F",
"0  c #433C1D",
"q  c #493D1E",
"w  c #413621",
"e  c #433C23",
"r  c #4A3E24",
"t  c #423C2B",
"y  c #4A3D2A",
"u  c #523E26",
"i  c #443F31",
"p  c #4C3F30",
"a  c #3D411E",
"s  c #44401D",
"d  c #4A431D",
"f  c #4F4D1E",
"g  c #50471E",
"h  c #524C1D",
"j  c #55501F",
"k  c #5A551F",
"l  c #5C5C1D",
"z  c #454223",
"x  c #4B4324",
"c  c #474C26",
"v  c #4D4925",
"b  c #45412B",
"n  c #4C442B",
"m  c #46482A",
"M  c #4D492B",
"N  c #524424",
"B  c #534C25",
"V  c #5A4C26",
"C  c #52462B",
"Z  c #59472A",
"A  c #534C2B",
"S  c #5A4D2C",
"D  c #565225",
"F  c #5A5425",
"G  c #5D5A25",
"H  c #55522B",
"J  c #5B542C",
"K  c #5D5B2C",
"L  c #464430",
"P  c #4C4532",
"I  c #4E4A32",
"U  c #474338",
"Y  c #4F4C38",
"T  c #524533",
"R  c #544C33",
"E  c #5A4E33",
"W  c #544739",
"Q  c #554A39",
"!  c #5A4C39",
"~  c #4E5234",
"^  c #565232",
"/  c #5C5434",
"(  c #5E5A33",
")  c #57513B",
"_  c #5C533B",
"`  c #565A3A",
"'  c #5D593A",
"]  c #604C25",
"[  c #604F2F",
"{  c #605626",
"}  c #615C25",
"|  c #62552C",
" . c #635C2C",
".. c #695D2D",
"X. c #625533",
"o. c #695632",
"O. c #645B33",
"+. c #6A5D34",
"@. c #62553B",
"#. c #6A5439",
"$. c #645B3C",
"%. c #6A5D3B",
"&. c #715C3C",
"*. c #5F6129",
"=. c #58613B",
"-. c #636123",
";. c #6B6326",
":. c #646923",
">. c #65622D",
",. c #6B642D",
"<. c #67682E",
"1. c #6C6A2C",
"2. c #71662F",
"3. c #716B2C",
"4. c #7A6F2E",
"5. c #757127",
"6. c #75722D",
"7. c #7A732D",
"8. c #7F7C2E",
"9. c #656233",
"0. c #6B6333",
"q. c #676832",
"w. c #6D6B34",
"e. c #65623C",
"r. c #6B633C",
"t. c #6E693C",
"y. c #716534",
"u. c #736C34",
"i. c #796E35",
"p. c #73643B",
"a. c #78653B",
"s. c #746C3B",
"d. c #7A6C3C",
"f. c #747234",
"g. c #7A7434",
"h. c #777935",
"j. c #7C7A35",
"k. c #75733A",
"l. c #7B733C",
"z. c #7C7A3B",
"x. c #5D5541",
"c. c #635643",
"v. c #685640",
"b. c #655B42",
"n. c #6A5E43",
"m. c #6C5E4A",
"M. c #715F46",
"N. c #5E6741",
"B. c #656242",
"V. c #6C6344",
"C. c #676844",
"Z. c #6D6942",
"A. c #6D644A",
"S. c #646F49",
"D. c #6E6B4A",
"F. c #716444",
"G. c #7B6541",
"H. c #746A44",
"J. c #7B6D42",
"K. c #72654A",
"L. c #746B4B",
"P. c #7A6D4C",
"I. c #777343",
"U. c #7C7243",
"Y. c #7E7A43",
"T. c #777249",
"R. c #7C734B",
"E. c #7F7B4B",
"W. c #6F6250",
"Q. c #726650",
"!. c #796651",
"~. c #756B51",
"^. c #7B6D52",
"/. c #7D7253",
"(. c #7E7259",
"). c #80792F",
"_. c #816E3D",
"`. c #807535",
"'. c #837B35",
"]. c #82753C",
"[. c #837C3B",
"{. c #887D3D",
"}. c #826E44",
"|. c #826F4B",
" X c #837343",
".X c #897644",
"XX c #847A43",
"oX c #8A7B45",
"OX c #82744C",
"+X c #857B4C",
"@X c #8B7C4A",
"#X c #927C46",
"$X c #927D4D",
"%X c #846E54",
"&X c #827455",
"*X c #897653",
"=X c #837A54",
"-X c #8C7E55",
";X c #817459",
":X c #857A5A",
">X c #8A7B5A",
",X c #927E51",
"<X c #847C63",
"1X c #8B7D63",
"2X c #7F803C",
"3X c #7C845C",
"4X c #88872E",
"5X c #848135",
"6X c #8A8536",
"7X c #8B8A35",
"8X c #84823C",
"9X c #89843D",
"0X c #8D8B3E",
"qX c #92853F",
"wX c #918C3B",
"eX c #96943C",
"rX c #99903E",
"tX c #858243",
"yX c #8C8343",
"uX c #8D8B42",
"iX c #8C834A",
"pX c #8D8B4B",
"aX c #918443",
"sX c #928B43",
"dX c #92834B",
"fX c #9B864D",
"gX c #948B4B",
"hX c #8F9145",
"jX c #959345",
"kX c #999344",
"lX c #8C8355",
"zX c #87815D",
"xX c #8E815C",
"cX c #988551",
"vX c #908A51",
"bX c #95855F",
"nX c #98885A",
"mX c #9F9F52",
"MX c #A08D4C",
"NX c #A1984F",
"BX c #A09353",
"VX c #868066",
"CX c #8E8464",
"ZX c #908266",
"AX c #958C68",
"SX c #978F77",
/* pixels */
"3 D M ( > 4 K x r.$.Y m 3 1 7 K +.r.5 % t 1 < t s.Z.P T y % 3 8 L 7 P iXF 6 b 6 8 t m 0.6.O.i < , 7 x ^ M m $.^ 3 1 < O L b 5 O ",
"8 M H J e v X./ +.k.l.K 5 . . X w | : 4 % x M B r.e.A $.O.W t ; B M 0.r.( M L b 5 8 T  .,.5 3 w b z J e.H | H 5 3 y 5 ; e % b + ",
"b H / J s.O.J p.+.s.k.+.e & X # e N ].p.O.y.u.J S %.e 0.y.%.C e O./ r.O.v O.Q Y _ b O.| v v e v b x.b.e.%.S N ; X w 0 x : e z b ",
"t r.s./ yXs.,.X.nXs. X0._ R P e w J & | i.l.[.A O.].l.+.J p.p.u.J ( +.H O.s.e.VXr.r.oX..A O.V  .v R C t.+Xi.y.r ; ; r x / ( A 3 ",
"y X.O.F.w.r.9.J i.yX+Xt.r.b.$.+.$.: @.p.y.0.a.z.qXrX`.9 &.U.dX .K v +.^ O.r.J.SXR.%.oXfX%.0.9 x E X./ U.k.{.].S 9 * $ * r p.%.R ",
"t / C A / | F 9Xi...j.g.O.:X1XT.A._ b.OXl.s.R.S D 2.d N o. X XdX1.x ^ t x $./.>XAX+X,XOXG.|.%.| J H @.Y.t.t.P.@.Z J / B & 0 ; 7 ",
"t e ; ! H.l...9XI.-.'.aXNX&X/ S n.V.F.U.+X XO.0.K k N u | @X$X.X'.z./ B A +.zXxX-X XJ.a.p.R.l.H.lXe.E.XXg.9.P.p.OXs.e.f.0.A 5 8 ",
"7 n C p.@Xg.i.3.>.0.u.F.H.bXK.P.&XR.OXF.H.E.Y.l.[.6.o.u y.#X}.p.l.0.X.x 0 0.r.P.r.a.[ #.#.].U.d.I.O.U.].d.v OXd..Xl.+.q J E n 7 ",
"b C +.,X[.h i.2.g v S V.^.:X&XP.>XZXP.%.~.L.9.O. .sXcX%.X.u X.S +.O.$.^ & N J / %.i.'.].J &.d.0.e +.OXd.G d J.U._.yXs.J.u.N A 4 ",
"1 A p.p.g g.2X,.F x ) @.:X<X;X^./././.L.L.V.0.1.`.].a.E n X.&.&.+.T.O./ _ O.E @.H.i.4. .J ..+.0./ g.pXs.} g.O.B F ;.k.G H w R 3 ",
"% X..XA ..;.6.h.,.O.^ B.A.m.n.-X:XP.H.$.V.%.j.2.'.V g.n.}.%.i.u.U.T.R.OXr.0.K | B y.u.B 0 q / 0.s.s.} D G D J X.C { S F V.o.T 2 ",
"& &.$X].[.'.g.-.C 9.O.b.V.b.J.0./.(.! @.%.0.dX0...,.1.G.p.X.x | e l.+Xs.9.| z v C O.N B S [ +.J / b.A : e ' &X-XO.K x ..P.;Xy - ",
"t p.fXV -.3.,.0 S d.XXJ v H.V.%.^.m.b.@.P..X.XZXm $.9Xr N e | ,.S O.+.y.n J ( / >.} 0 * J V V N 5 n Z A.B.0.H.0.+.0.+.| |.^.W , ",
"%  .[.} q } q Z ,.0 g.j o.%.K.A.H.Z.n.L.J.U.0.d.z.[.C / & w 9 }  .| O.$.p.a.J U.F X.e : 9 0.X.r B : 5 & % x O.@Xd.l.] R ^.v.m.8 ",
"1 J 5.3.| u S %. .F 1.'.gXiXR.K.P.;XF.T.E.+X9X{.'.B / H x Z X.N u.g.l.l..X&.7.].u.A A C +.a.Z v v z X . * $ B F j.,.G r.:XP.c.7 ",
"e p.eX>.V 9 y.0.J ..7X4X4.i.OXp.p.F.H.^.%.n.V.O.X.) V.Z.B &.r V u.i.F F aX9X3.4.J C R x = J.#.x x a a : : 0 F 0 l h B 0.l.G.#.y ",
"r O.wX..x x p.u.$.0.3.7.`.]./ H. X) ~.A.K.V.V.M / $.C.m / %.a.X.V i.@X`.'.4.g.B O.X.$.J S F v / S z s v F M J v s F i.y.i.F E 4 ",
": J l.B 0 = y.O.K J l.h N d.$.$.s.S L.V.L.P.L.n.D.L.S $.V.%.X.y.+.i.g...2.V i.,.p.J A / A $ V ].9.w.D v v : M - : ,...9Xi.,.E % ",
"4 X.A 2.B S X.r +...].}.X...V.b.XX=XL.(.$.%.A.$.^.r.Z.$.O.0.d.{.rXl  .+..XJ `. .+.J e e e z A +.u.>.q.Q n P e M y A ..l.d N Z 4 ",
"M y.V ..J X.}.N | 3.a..X Xa./.U.+.A.L.b.V.A.K.K.b.B.$.r./ 2.].qX7.9X .&..XX.0.1.J.| x r x ^ 0.d B F K K.@.L.@.| 9 J : ,.z #.& 1 ",
"u.,.J } x B }. Xi.} y. XoXa.X.K.$.P.&XA.V.c._ E b.$.L.L.P. Xd ,.2.q | d.i.}.;.,.p.N y.: v v X.X.: >.| / / E / +.q  .0 d.$ S % A ",
"F aX9X>.( r.aXJ.+.O.j.i.].#X@X+Xn.$.L.P.e.$.b.@._ O.v H.~.r # 0 q 9 u d. Xp.XXoXC A v K 3.u.0.o.+.K ; ! T / l.J J 0.0.3. .Z 2 J ",
"G '.6X1.| %.].p.X.`.'._...fXMXr.XXXXJ r P _ / $.e.A.Z.O.K.X.N | | : [ +.u.A N }.3.i.V A D s.0 ,.[ | N r _ X.n S F.O.l.A F o.A { ",
"3.7Xj./ O.d.F  .a.{.i.y.| | F '.z.B R R V.$./ b.K.s.k.J V.F.X.0.{.V ; +.rX| V +.e ].`.A v 0 x B V N E e t.x - J %X%.N p...'.u.{.",
";.6X,.r.9X6X} { 2.2.3.3.,.,.d x n O./ ' V.V.$.R $.Y.s.H O.e.x +.| J e p.i.}.V x A p.[.x A n 0 z 0.B 0.E / e.J D %X@.C }...{.gX].",
"y.;.{ i.,.l l F i.g } g.j ,.{ r H.L.$./.:XR.R.D.e.s.Z.U...+.J F i.v e O.p.i.e } x +.g.+.H F K F J r x M B H.E x !.p.0.a.q G } j.",
"$ ;.6X0.F 3.f J ].d d { 2.h F A +.e.J gXiXL.:XlXpXj.pX[.,.p.y.p.A % % 0 ,.d 9 : - N ..w C F 0 F q x r A H. .| ,.%XC q  XB T % X ",
"$ h 7.B s.9X; ..`.'.y.J i.F i.+.O.u.XXs.r.F.XXE.V.r.d.0.x X..X+.r - = | ..0.9 $ & J r ; : x ; C A A ..u.z.w.U.`.%.#.%.z.N n % 4 ",
"+ h 8. .p.dXd 3.j.g.w...aX].y.+. X.XO.%.d. X#.#.V.r.0.X.r J X.V 0 5 - | | U.% = 4 A e e w 0 r : | >.6Xd i. .A 3.u.*X9 : 9 0 = % ",
": -.k +.,.u.d 3.3.7.} h yX{ .X].}.p.J p.].o.Z E S S +.X.r N n y : @ b 0.3.0 . % & w 2 4 - 4 e : F D } K g.B O.3.3.F.x 0 * q r @ ",
"o 3.d ;.i.d.G ;.G g.B 3.J 0 x XXX._. X| +.J & & 5 : y.o % : X 2   % 7 | N A @ $ w - % % % - r A : D : D | % J x ;.N v.X * x x % ",
"x h % 0 O.O.,.d B  .X 3.V 0 C 0.C x V 0.o. XZ . . 9 |.x % ; % % % . r ..& % % - t : o % % % M v 0 0 : J * % E e N r c.x $ 5 r @ ",
"e x x 0 B 9 {.B D 2.$ j.J = $ 0 e 0 x : p.i.X.o . e  .D M / R : 3 n O.i.s F z 0 5 a x K B ; / x 5 : s x ; - x : >.0 !.z ; x n & ",
"e b J.q.J r a.B >.;.x -.= $ - J i.J V A |  .J C o.s g  .H m m @ a / i.D >.q.w.q.K z ( >.k.$.` e.M ; - z H J ( H N X.r w r 4 C % ",
"n 4 d.5XG x | B ;.B - K q B H f.2X:.+.r.O.N O.N B h.B : x r - 3 m 9.k.K f.j.f.f.0Xq.9.+.l.0.O.M n 3 x q.w.k.v n &.+.U.A y y y T ",
"+.5 g.1.>.B u.D 7.i.( H v F z.t.9...y. ./ J +.F.$.g.K / / R % + b V f.j.0X2X2Xf.g.f.s.s.%.E V.I z @ e.tXf.h.<.5 oXq.s.x 5 S n 2 ",
"A H 9.( H J i.9Xf.J J s.0X6.'.0XS H >.^ E L.P. X X-XB l.[.A t + 5 v f.*.<.f.f.q.l 8Xk.s.m H T.( d *.0.w.z.K 1.K uXh.9.K % R R b ",
"W K ^ v J  .} ..s.jX9.w D ;.3.G F : H M $.) U.P.0.].l.k.M V.E 7 5 J q.H D v D k.5.'.0Xq.b K K / ( *.H I z K s.tXz.f.^ M S R R T ",
"z r.^ K n 0.O.( T.q.0.e H d 9.M n / H m H.E.OXiX9X].z.A / I.A r b H  .s 9.K q.9.-.3.D Q L.) r ; b R ~.CX$./ t 5 A f.c H $.5 t e ",
"M M B t.9.4 b c =.m m M M z A ( R A A r.V.L.%.n.V.+.E @.A.O.e.b 5 b v 0.( *.t.^ B F ^ C./.^.K.(.V.R./.b._ Z.' S ) K z M t.0.y n ",
"s.b z s.>./ J s a 5 t 5 ' ` ^ ^ X.t.r.' ~.K.K.F.b.B ' $.e.' B.L v B / 0.t.9.F ^ H b C./ v ) F.F.!.c.c.Q.m.:XH.S / +.A ^ V.S _ z ",
"J z 0 x 5 b D M z ~ n R B.V.^ $.b.$.0.R /.n.K.R.L.$.~.V./ e.m b m K +.x ( O.' /.e.' V.Z.R R V.b.A.M.K.m.%X/.' R S e./ / / ^ r E ",
"I.V H x e = +.O.e B.B.T.^ T.b.t.V.b.tX&X^./.$.$.A.b.(.Z.r.V.^ 3 8 R K w.| ^ _ ' $.^ / $.! @.b.;X(.m.^.!.;XK.n.n./ $.$.%.e.O./ z.",
"s.l.r.J / J #.V.@.M F s.^ T.<XzXL.U.e.K.K.n.n.L.F.K.b.' V.=XQ + 3 r ,.D / H R $.Z.B Q / _ L.!.>X(.M.m.M.n.$.$.F.F.$.$.$.R J r.s.",
"s.].XXp.J y ! c._ m >.f.gX+XP.+.%.%.%.&X/.D.b.@.E R b.$.(.~.R 1 4 m r / V ' n #.O.H J A _ n.P.b.K.m.@.W _ $.n.M.n.@.$.R / $.$.B.",
"H.u.p.N ! b.m.K.b.W.L.s.e.+X:XP.F.!.V.$./.H.e.b.b.@.$.J / T.m.Y n n n C C r : R m e t R @.$.c.m.m.c.b.T ! %.n.H.V._ $.+.' $.#.%.",
"~._ %.! /.V.b.x.c.A.A.$.V.K.&X/ $.r.s.XXC e R _ / $.$.L.t.S _ 8 t w y C A S R R P t n c._ K.#.m.c.! X.X.! @.$.@.V._ R n H A.x./.",
"W.R P /.V.$.b.b.Q.Q.L.R.L.H./.V./ i.K D R E A.' ' b.V.H.k.^ / 7 7 n t y C ! t P x.c._ V.! ! ! ! E x S [ +.J @._ / $.Z.v A T.x.B.",
"x.A.M V.t.Z.V.K.^.A.(.:XF.L.#.O.tX[.( / ' ' Z.A._ R n.tX( 9./ 7 7 P T E ! ! ! R @.n.L.$.%.$.%.! @./ / @.E $.u.O.S n z % d C.A._ ",
"( A.b.M M $.V.V./._ Q.A.T.I.+.XX8Xk.iXe.V./.=XR./.H.r.w.Z.z.R 3 w m C A ! P #.R b.F.V.=.A A x T ! / Z T X.S S ..J / 0.m / ' b.x.",
"Z.c.b.) b P b R A.A A.E. Xz.f.J q.0Xk./ J gXlX/.:X=XE.z.pXK H 7 t W n A }.O.Q R.|.E e M v R R N n.p.r ) 9./ N 0 A ( ( 9.C.e.Y b.",
"` ' ) P _ ( I R V.J Z.H.@XyXgXh.f.A +.z.6X0.( V.( w.t.w.w.h.( 7 8 ! R a.%.| A. Xr.B.3 I K 5 - g I.N.v +.B B F H n / O.^ ( M ` ^ ",
"V.' I ~ L.$.' z F K 0.t.O.D j.h.0.z.uXj.O.q.0.t.w.s.Y.j.z.q.R i t M A I m J p.a.` S.b m s.e E X.+X3Xw.t.J F v e b./ 5 n M ( $.L.",
"D.Z.( M M H._ _ H (  .z.u.,.6.jXz.>.J 1.0X8Xh.[.w.f.8X7X0.J c.R 4 n z 5 m K +.A z ~ : J .XZ V +.B.3Xk.u.J e e R _ / n ^ R n ' B.",
"/.V.9.V./ e.^ A =.t.A w.z.>.u.z.9.v f.M D *.q.H H f.>.f.B.@.I 7 5 M H z . : |  .e o e B +.&.n.M a H q.r.x R n _ S A R n _ x.R lX",
"l.[.hXmXh.XXK m O.O.H.w.<.K >.kX>.8Xf.M *.w.*.f.z.j.| H.V.x.8 t 8 ` ( H ; : v M D % z A | u.M B F 9.t.e.b.w.C @.R R R / V.Z.s.gX",
"5XeXk 5Xj.yX0.^ A I.z.9Xh.h.c k.w.>.B  .z.>.F [.2X>.H.A.! x.p t 8 m R M M B 9.M K K H e v w $  .+.O.O.I.9.x C E ! $.E R ^ z k.uX",
"h.2X2X1.>.z.9.v H r.s.j.H n : R w.A R r.k.u.XX%.K _ b._ b.x.W t 1 t $.O._ t.^ J v M q.z e r b z 0. .9.9.S ] K X.X.@.$.r.vXtX6.7X",
"k :.u.uX8Xg.z.e.D ( B <.K F K z m z ( k.3XXXI.mXs.U.U.0.E T W P 3 m 0.u.s.Z.M R F w.0.x H x x k.u.z.z. .+.q d / } $.X.z.f.:.-.G ",
"h.8X2Xw.j.k.K H *.k.9.8Xh.uXK v / M ' f.G G 8XuXXXq.+.W W p c.t 5 L O.0.sXi.t.^ K w.f.9.O.0.U.9.D x 8Xi.0.r v S 0.n U.k.F >.z.z.",
"h.h.f.0.w.[.z.H w.tXh.h.q.g.2X8Xs.I b w. .tX1.w.z.O.H R y W ! 7 3 R J ..kX[.e.@.>.e v b S f.8Xz.v 0 s F  .x A H z e U.r H B q.f.",
"h.k.h.w.k.K K F f.K >.w.K K h.m H z k.r.z.0.H.s.<./ F.L T P W 6 3 Y m H ,. .K 0.0.K M ) U.8.h.K = 0 ; H f.H B m e A M - J 5 c <.",
"h.*.f.K K F 0.u.H >.f.K D H 2Xw.M e.s.i b t b I ( r.p.8 p W P 6 1 8 U ^ ,.v J A ^ v t L 9Xj.>.- 1 6 a K w.K / ) 8 < O % n H J w.",
"@ v 9.<.o D H M ( q.' b 1 < I q.8 e.m , m O O 1 Y ) 7 < P i , < 6 1 < k.>.C D 1 m M 5 v 7Xi.b , > , L *.^ 8 ^ L O O > > m M c 5 "
};
