/* XPM */
static char *stone[] = {
/* columns rows colors chars-per-pixel */
"64 64 65 1",
"  c #262626",
". c #2D2C2C",
"X c #302E2A",
"o c #31312F",
"O c #2F2F30",
"+ c #353534",
"@ c #3A3937",
"# c #353638",
"$ c #383738",
"% c #3D3C3B",
"& c #403F3E",
"* c #41413E",
"= c #454443",
"- c #484744",
"; c #4A4946",
": c #4D4C4B",
"> c #504F4C",
", c #53524E",
"< c #4F5051",
"1 c #555452",
"2 c #585754",
"3 c #575855",
"4 c #5A5A56",
"5 c #5D5D5A",
"6 c #605E57",
"7 c #605F5B",
"8 c #5F605D",
"9 c #636157",
"0 c #63625D",
"q c #68665E",
"w c #6B685F",
"e c #656562",
"r c #686762",
"t c #676864",
"y c #6B6A65",
"u c #6E6D69",
"i c #706E66",
"p c #706F6A",
"a c #767367",
"s c #73726D",
"d c #79766E",
"f c #7A786F",
"g c #767571",
"h c #787771",
"j c #7B7A74",
"k c #7D7D79",
"l c #817E75",
"z c #807F79",
"x c #7F807D",
"c c #838177",
"v c #84827B",
"b c #89867D",
"n c #8B897F",
"m c #868581",
"M c #888782",
"N c #8B8A83",
"B c #8F8E89",
"V c #918F85",
"C c #908E88",
"Z c #939286",
"A c #94938A",
"S c #99968B",
"D c #9C998C",
"F c #9C9B92",
"G c #A09F96",
/* pixels */
"vdldpb;&r7004rrye80%=;8y1xn0ys4@qdq0ulpuegg=y5ettuj<176zGsjxxe8x",
"jvlszrd>hy7=5ugyss32@:#1g0s*pi,>0h:pyNxMxxvuvu41gxkeq1vpyzkM8spt",
"iry7gzVjg7ry-05yyufy0+ou28jy%*uuq4,@sp0xuvsicsspkkeuprr,gkpggysp",
"SMpprlzrpgplr0z7;41wx*:sq3ax;44sj94@.<15s85ishu4ese5g72tyt=05rkp",
"pjmyherpyepjpyg%98:,1u0180:9w,449l2>==ey0b3>5ysd<500eystp27rkksk",
"447r46>74ryy0=+792;*1r;;pdy89ya9aqfd2pe5sqpr57yuu8pm2geyhly7:eyr",
"zd>4j67qvrezp6qlyiwyvcd98prsrqau7ul0X5yuq;;udp0s852gl0yyphhdeuNN",
"Dlr20ypq17$2yppi0fxs9qsusppupqrjhee6p635004u5y-ukp75zljr,imp78ez",
"bzj7<7y5e5qggyevas80dj440bpu92>5r,6>:5rd4;465r*%>4kMp0pzdpgmxsgx",
"qe>46471yzrhe:iyjuu0y0d0qhzZhu,2>=2q54r521::e51+rgMN07yup78uyug8",
"y-r77y=7jv2:2==45sdr1,du7dugssjdq>6zq17jsis38uu4>e<hss>:pjsuueet",
";qhghpgyhMpqdivlvvsr4:er5yku0q150juiy75e114es8dgyypgyyr1=120u35-",
"y4pr27g2%>sddblyiubji,404o:e5,>h::gzy5yrrrqrmA852gMeepge:ey538se",
"1;i14% %1yzcyr6:81uhc;9,2Zrsr42=ys8hzygmhiugMgu%5853e7Bgy07skgtp",
"zdvd61yNbzlnAjsz0,5v06,jh0u4dyda615ghhxggvrypu85ugs2kyphh5yy<gsm",
"glprrkSAbjjMvyzZy40usbf22,4spjgy02-=shgMsr51<3s8<epyuu8kpskp25yr",
":rxyszhprgzp7q5uzr9qp5jjppg6r7uiad0e,14-10r0,;08027zyjjmkjyge15:",
"7:332pmBzjy5petehbfr4yyiu0yp-=:2rcae,:%qiyyr81,q3<5g8thg3gjzp5*q",
"pe03y6rivvzp5ytuazjragpyue55yq1y4ejgryhjxcgif2@>=>5epmgytgkeyjhs",
"eysypr167gyshpssjyyzudp0gg28ep7ey050vd3sjspZf9xdlj1egyy13u11heyq",
"Czytpy7zgetj0tgks5edNp0135ugjjh65u5yuyuu04sjijxjMMy;-<4:<:75=1g5",
"greji21,t3<ps*3gyysrhu41=;15,plj8euh080;8,>8b0ygpdp2<5ye24ghusuh",
"khps<7zpju<5sgge5:*@*o1ueejdivMe3t5;4ajr0ert0u80yryykve307u88e8e",
"r7541r>%;2puue8us0udq0%.2ysygjjy8,10s80fup0>02;8yge1ypssgyee5-3g",
"yrygehnds:yygj8tuSndzFvl;&je55850rp3esr5pvussq815py2ty81*+20;00s",
"yghpr4hr3;38te1trye0eq6hl4=ye7:sdsud0try408see4= =ruj;:44a2>4des",
"ey2ps1pkMs<ye8tusuu0rre55=;>uzkzue5g8351248ys4rqq;>3==5rsyui:3pu",
"5y3yslhuuh5e551yu52rgy421yu550e8,0s4y0edqus044,yiytjxvjuhl64>;55",
"-;=+5e,:jtke:30eu,yz,2rqsysseuhgljubjsq4kgj8;142pZ3sgjxkkaw8d442",
"4,fp381o%<;,e114upslu9pirhzae8eybdljusy588k%ws9ry0ey0=;5r0abu0,4",
";@4u;:-*#8egeejjjjvgssjjjsjjyu511srsu4yupu,wa0j;;,8:;4ps8ei0ad89",
"ee=qy1=5=<=:uu01es8u1e5uj,0g04010y,10brekd2n9fyq19% ;e053,:syp98",
"yidrpSSqgyu5ep53,:15y5yrs15:8y1uuyuyhuup4yjygyq665aduuptr5,1stu;",
"hjdirhdhypkyeezz01,s1=ueud,qjgb01t;3<er3>>7zzjiylNSNktgpsriiee-,",
"pssjq2pvyjhmjky:;:4@<uuvyehstu,4==>81=r0s5e3gevduhNjjj8ggZNjgbf0",
"4sghhcy>5y5gumg7d5urr05;0erxjsM8058e00uvhttupkhddjjvmkugjjvvuvzr",
"67rppillyjyuuyyvhx0yteyjgjsyge38qskurjueye53720eyddee5sMjgyyue4r",
"lr6hzmvMegjghekzjyy85ee52ujs#58e55sjdjdsppmjypphvb4upjj8hg5yy,1y",
"sjdpMzgCMsttyjyysryyNeeyztsh0%5te53:yy5hz2mkgvygtr88gpkj13sg752r",
"yye7ujyrgkusuee5rxiygtgyue3jpe315y35555345<1yye;0udspNuut85561yu",
"yyejggyheejtuuy74yy3=8tu-1e5eedregusuBu:u8t04r44:=<gmpgstseykpzy",
"3<edy3yeg5gvuyyy834ey4%ueej8bjNgy30eee5je<u4<4-2:k08xm88jzNjpp<3",
"0h1eyNz5yu+1eu5g1>;>3=::04;gpuuygsv0<<t3;2<:;422028k5zt7t7+$sm05",
"ghhsejks35uee=+O%#=;;3*=ss10er1651-=tteutg,:1hg0gt<:&2uggugp550t",
"5ptegugNkgvv8448urssvvdyeup5:-55415y<30y0s5ystm08p1&8gjuhmzt32us",
"rptj1:gNAjjkaxZfdsghsdhw7ds8kzuepssa5y81<e10spzhgresee8ss2tkueuu",
"5gjygpeueee40mccph4uvNbsvvhu5hhuumpiee5hp12:uygkg06ummsyhr*<u0:e",
"p0<2e28<-sys31yxdyp5upvs0eeg5;56eujh0465yrrest<1uee2pp7&<<ge50pj",
"rpy55u=17m7:2==47ghpyyhrqe-=1440<;>uzy<<57zl7uzvzmlm07524s61ekye",
":==vhsgp-Oyqhpvcbzppkhla5rq5sypy7el7rg721llku57lkse51esz70hppge1",
"5&&>27p-:qqshvlappzmgslMehsye5aj152ypyu27>eez7u774r4:5kMvge,<5ep",
"e7e%4& %5ghzy52s71ry0jg7ues5q5uh7:>25uu52:reerrr0p7<ey2eijms<ey0",
"eepy5,yNNnhNZvdra72epepr4ueeejzfbw77<7eu7>::e27up7pr1qp5zmzre5ep",
"e7zpyjSCbjjNMvhvly7777epuyjejukdpzwl22ess7r:>-=,>17prpee75:17zpe",
"r555yzhpepgpgkzdsmhlzpppypjsyp1hrzulgu727e5r72227shsp7ty12tzj2es",
"jpyjpgMzspeup%,r7epn7&phjs21;:,$<r217rr5lzlk7lle>4>&;22e0etszjjy",
"pyykzgzzljxm>-0sylyswhaeqap5lpr:$.>>&16uMMzrz77ke52slxe5yq21uMmm",
"27etp0ymy75p:5t1ey6y167hNzz75e5,602&;>u0uurlru7r<1umkxzzjzkteMgp",
"p3pmg057steeht5166,1irryrlpu=24esul>&=.-<<lrzr>$<l$O:2z5pyypggmk",
"<2222t1<55e<r0gspi1zVdlh207zlleusprlqw2&$$$&l:r=O%7e52-5tutgg5<2",
"u<;;07e%O&,050t0uuChzGpp0phhwd0447rppzp<<<<<2hlr7eururmlugu5<585",
"e7pzpr0gs0,0t5;5h7gppgpzp4,1wl,,7pqqhlggkg55r<:eelkze2<0gu2588u5",
"drGzgsuhk700>z11dseyuzCFA7r:-=2wlals7plue7&2e2<7z75r5<e<#8e58gt8",
"nllyr4g5<3Mzypl:26,eteeMlCl0>-i2zw220zxx5<:$r7euu7<50u11uet<xMux"
};
