/* XPM */
static char *tallgrass_[] = {
/* columns rows colors chars-per-pixel */
"64 64 72 1",
"  c #3A4B39",
". c #404B3B",
"X c #4A513D",
"o c #4C5443",
"O c #4D5945",
"+ c #4E5A48",
"@ c #525544",
"# c #535B46",
"$ c #585E47",
"% c #525548",
"& c #555C4A",
"* c #5A5E4D",
"= c #555F50",
"- c #5A5D51",
"; c #56614D",
": c #5B634E",
"> c #5D694F",
", c #576451",
"< c #5C6452",
"1 c #5D6953",
"2 c #5D6559",
"3 c #5E6A59",
"4 c #62654E",
"5 c #626655",
"6 c #636B55",
"7 c #686D56",
"8 c #636659",
"9 c #646C5B",
"0 c #696D5D",
"q c #657156",
"w c #697157",
"e c #66725B",
"r c #6A725D",
"t c #6B785E",
"y c #666C60",
"u c #6A6E62",
"i c #677160",
"p c #6D7463",
"a c #6D7A63",
"s c #6E756A",
"d c #6F7A68",
"f c #717565",
"g c #727A65",
"h c #72766A",
"j c #747B6B",
"k c #797D6D",
"l c #757C73",
"z c #797E72",
"x c #787F78",
"c c #728167",
"v c #76816B",
"b c #7A836E",
"n c #7D8C6F",
"m c #778175",
"M c #7C8373",
"N c #7E8974",
"B c #7D847A",
"V c #7D8A7C",
"C c #808676",
"Z c #828B76",
"A c #81877A",
"S c #848B7B",
"D c #859177",
"F c #85917B",
"G c #89917E",
"H c #858B82",
"J c #898C83",
"K c #8B9383",
"L c #8E9986",
"P c #939C8A",
"I c #97A290",
"U c None",
/* pixels */
"UUUUUUUUUUUUUUUUUUUUUUUUUUUUUUUUUUUUUUUUUUUUUUUUUUUUUUUUUUUUUUUU",
"UUUUUUUUUUUUUUUUUUUUUUUUUUUUUUUUUUUUUUUUUUUUUUUUUUUUUUUUUUUUUUUU",
"UUUUUUUUUUUUUUUUUUUUUUUUUUUUUUUUUUUUUUUUUUUUUUUUUUUUUUUUUUUUUUUU",
"UUUUUUUUUUUUUUUhUUUUUhfUUUUUUUUUUUUUUUUUUUUUUUUUMUUUlxUUUUUUUUUU",
"UUUUfUUUUUUUUUUUUUUUU0UUUUUUUUUUUUUUUUUUUUUUUUVxsmxlUUUUUUUUUUUU",
"UUUU<UUUUUUUUUUUUUUUU,UUUUUUUUUUUUUUUUUUUUUUUHxuulUUUUUUUUUUUUUU",
"UUUz5UUUUUUUUUU8hUUUU-jUUUUUUUUUUUUUUUUUUUUUHlhhsUUUUUUUUUUUUUUU",
"UUUUkUUUUUUfUUU5fUUUj9UUUUUUUUUUUUUUUUMUUUUxssxkUUUUUUUUUUUUUUUU",
"UUUU9UUUUUUpUUU0<UUU90UUUUUUjUUUUUUUUUUUUBUssxjzUUUUUUUUUUUUUUUU",
"UUUUfkUUpUhuUUUf7UUU9UUUUUUUUUUUUAUUUMUUUlUsUUhhUUxVUxVVUUUUUUUU",
"UUUUUpUU0U5UUUU05UUUppUUUUUUUUUzKUUUUzUUUhsUUU0BUUVlBslVVBxUUUUU",
"UUUUUkUkhH5uUUUu59UUpUUUUUU7UMUMLMUUgMCZjjsUUUhMUyslVlmslBVllxsU",
"UhUUUukSMUf9UUUM98UUpUUUUUU9fbkNSUUUjbjjpplUUzaUUlVUUMxslllhslUU",
"UpUUUuUuSSMUUUUf50hUfUUUUU89UhbkUUUpgUUUb9UUUhdyUUBUmf2UlUhxxlBM",
"huUUUUhkMkfUUUUh9gMSZUUUUU90UbbMUp0rpkkU0uUUUjuUUpUUhplUUULUUlSU",
"gpUUUUU9MU<UUUU5gjZSZlUUUUf8UbgUUgfgMCCU05UUUU0UU0UU2UUUSPUUUUBU",
"h9UUUUf0rShfUUU7pjjZZUUUUzf*5hzUg9hr0jKU-59UUUUUfUUUfUkMSPKUUkSU",
"U0uUUUjfMUUzUUUggfkvUUUUU0U9&aUUrfrgpMBU5j0UU,hzuUUUppkkMSUUkMUU",
"UuuUUUCkCUUUUM59rggkUUUkLpU0&UUU90pgpUUU99uCMrM50UUp0UMMbUUUhUUU",
"UUhUUUhfMUUUkp0zMggUUUUGSpMe<UUfrg5%UUUU9rkSbGU5UUUf0UggMUUpjUUU",
"UpUuUUUfMUUUprfhbhzUUUUNbbK8pUUb9gbkUUUU5fkvNSz9pUUk9UMgUUpgUUUU",
"UUuuUUjgUUUUr9zjaaUUUULMhMMp9hbf09j60UUU0fgkjZSpUUUp05gUUUp5UUUU",
"UUUjUUfkUUUUjrpUaUUUUUyMaUUr5MbMpa0UkUU597ggkUppUUpUh5fUUUU9UUUU",
"UUUUUMhUgUhM059UpUUUUUUphUU99UUh0p8UUUj5jvgpjU<UpPuUfpUUUUhfUUUU",
"UUUUUAh9CUjppUUUpUUUUUpjh5569gf09jUUUfr9pMkpUUsfbKjSppUUUUUpUUUU",
"UUUUUbf5AU6jUUUUUUUUUUpufUMe90pU6hUUUut0gcppUUpjkjMZfMhUGAUUUUUU",
"UUUUUj5kU,9eUUUUUUUUUUhpU9Mp00UppUUUUr89kejUUUaZSkZBf0jSkzUUUUUU",
"UUUUUhukhU<pUUUUUUUUpfU5U8h<,pUUqpUUUpr2UeUUUUf2jjUUurMSUUhUUUUU",
"UUUUuj9fUUyUUUUUUUUU089Uh698UUUU6hUMggprUp3UUhU5aMU8rpUjUhpUUUUU",
"UUUU9zfUU%UUUUUUyUU05g,Ukju73UUU1pU09ppUUdUUUUUrvfuUbbMpUUUUUUUU",
"UUUU0hjUUUpUUUUUUUU<pg<896pUUUUs6U26pUpUUp9UsUUfrpUMa9:UUUUUUUUU",
"UUUUU,vMUUUUUSUuUUU:*pjU9fUUUUUpr6U&iUsUUp,UajuapUghU9sUUUUUUUUU",
"UUUUUOzkUUUUUUUpUUU66pUUppU9UUUeepU<jUpUUq3UU0ha<58p<5shUyUUUUUU",
"UUUUU;pFUU9UUUV89Up9pjUUc7jsUUU9q<U6pUiUU1UdU9-9UUhppUUUUpUUUUUU",
"UUUUU1USUU9UUUpp2U3puUkC9Ch9UUUU799;UUeUv9UiU2p&9jhe73yUUpUUUUUU",
"UUUUU9pbsU9UUUUrfU8pUbprgMreUUsq66Ue9UNUj9UU:9tpu97UUUUUUpUUUUUU",
"UUUUUp2Mh<2UUpUegU8eUbrjjg71UU2e7pUmsmgUq3Ui2,8MU0tUUUUUUUUUUUUU",
"UUUUUj;Me2#UU5UrruUej6b4vpw;UU;>f<Ur9V6FqpU3r6eUUS79UUUUUUUUUUUU",
"UUUUUh9Mp:2UU5ierypab6r7ruweU96>g<Uc2ejc3e=pprrZUvrgUUUUUUUUUUUU",
"UUUUUs2Mj:8UUUr:cyiagg795UqeUyh*rpsp,ipNra,1ipUvMhgpUUUUUUUUUUUU",
"UUUUUp-8p32UUU0:NU9arj*6UperpUU9fgr6-esn6by61eZgvdMwpUUUUpUUUUUU",
"UUUsUU<aip&U-Ur1rU9qtt*q0p9e,aU6bb65933krc,ee1avrgjw<UUyhUuuUUUU",
"UUUjUU6j36#5UU0r9<:1r1#7vMtei9;:gZrrU<r2gt23c,gD$t*91U9Ur8pUUUUU",
"UUUUUU7pqp:2UUU69p56e%34gpr7es0%ggjqU6r61c*1ae7w&60reU9UpjfUUUUU",
"UUUUhUhr:r<U5uU6<961c*1tf5tr<U9&fDt6u<et>v+6cevw6&u7qU3U9hUUUUUU",
"UUUUUUkr>p&88U9:857:rOrr7*vqeUg7bMg6U:gged;3eec*qfsfe8uUfjUUUUUU",
"UUUUUUha6p*%UU9<r9;:q2a9O5aa1UrgZrgr7>p6ae&<qeeO>pMeeUhUrkAUUUhU",
"UUUUUpUa8<#*UU56r59:eae&o66ee0<Nggtw#12;q;36qe>Oqjhr68084fAuBsUU",
"UUUu8fUaho*o0U866&p6:c>o26c1e6svZ69q1&3 q;e6erO67v:a1eup<pUSUUUU",
"UUUU578pg**U8u5267r;rc>&:ac12eMp*rre1oiOq3:>6a;8t7:ga,Up*xUUhxUU",
"UUUUu58ep2:Uu9*<:6;:9re6;b7e3<p74r7>#;jO6tX::vOre44gtqUc5UUUUUUU",
"UuUUU:5eeO<@85@e1>@:aq1o;bqeN&95<6$>;3p+17;;;g;qo 4ac8hpMU8UJUUU",
"UU0UU0401<2-5555#6::qq+&eg<aFO6*78$q>rcO1r$o$e3t&Orrc1h8JzUCUUUU",
"UUU0u*5r6<<,*-55*6<:11O;N#XaN&*<2ro:dabr>e;;<1c<@39va6pvzhfUUUUU",
"-U80u848,:*-*%5<&3<q>>X,q::er::57j:naMq636q1#qc><*art;ehf5kBzUUU",
"UUU--0%5&38&5556<<11e;oa$<5:6<99up>r16p&q61X1qqq<<Mracpr*5khUUUU",
"UUUU5&<2:16%p0&9:5e:a>*i@5533ripM*1teccga:6+;r11o9N:tMr:55fuUUUU",
"UUUf5@&:<;,@%9r6@8a<a>ee$0$e6emkp611t6%66$q#>1q#:ar:aM<:@uu8UhJU",
"UUUMh*%*<+;#5:*56rj:q>n&759c6MuSNbq<g:<1e;2:>;1#2v4<ab*&700<pNPU",
"UUUzj7,*1&;#55565:g<1;Z68*pNeMhv6itqr&:;r*1e1q>#6r66rg<*%-<pgvUU",
"0UUUf8086,<,05760079qeg-&pp69d&<111;1%&6e6961t:&N*766e6p2*9aa9NU",
"UUUUUU85:,<e5955980<;1p7fZv9a3,a,q>q&*::6#69;e16K*65r60e8p9p66hg",
"UUkUUp85661efs989*,11a,*eFv6cvc3;1Oto:;rq&1a,eqaj50*aaehpjbZrZg<",
"UUUjIfy<6=8*-jf<%*5,1q<8rvFevtaa1q;qo<O%::rv:1<Z,f*7NeprZNbfpbp,"
};
