/* XPM */
static char *tallgrass[] = {
/* columns rows colors chars-per-pixel */
"64 64 85 1",
"  c #161616",
". c #242321",
"X c #2A2B27",
"o c #2F352D",
"O c #31322C",
"+ c #35382F",
"@ c #353430",
"# c #363C32",
"$ c #393B33",
"% c #3C4236",
"& c #3E4539",
"* c #3F483B",
"= c #42453B",
"- c #444B3D",
"; c #484C3E",
": c #464D40",
"> c #494E42",
", c #4D4F49",
"< c #475141",
"1 c #4C5344",
"2 c #4E5947",
"3 c #4E5548",
"4 c #4F5949",
"5 c #505646",
"6 c #515847",
"7 c #51564A",
"8 c #59574E",
"9 c #545C4B",
"0 c #595F4E",
"q c #575750",
"w c #565D51",
"e c #595E52",
"r c #5C5F5A",
"t c #56614D",
"y c #59624E",
"u c #576150",
"i c #5C6353",
"p c #5E6954",
"a c #5E6459",
"s c #5E6859",
"d c #606655",
"f c #626B56",
"g c #61665B",
"h c #646B5B",
"j c #686E5D",
"k c #67715B",
"l c #6A735D",
"z c #6E795E",
"x c #636760",
"c c #666C61",
"v c #696E63",
"b c #677060",
"n c #6C7364",
"m c #6E7863",
"M c #6E7369",
"N c #6F786A",
"B c #717666",
"V c #717A65",
"C c #71766B",
"Z c #747B6B",
"A c #787E6C",
"S c #737771",
"D c #767B71",
"F c #797E73",
"G c #768066",
"H c #77806C",
"J c #79826D",
"K c #7B8273",
"L c #7E8874",
"P c #7E8379",
"I c #818677",
"U c #818A74",
"Y c #81867B",
"T c #838A7C",
"R c #888F7F",
"E c #86907E",
"W c #89907E",
"Q c #868C81",
"! c #898E84",
"~ c #8C9183",
"^ c #8F9886",
"/ c #8C9388",
"( c #939F82",
") c #959A8F",
"_ c None",
/* pixels */
"________________________________________________________________",
"________________________________________________________________",
"________________________________________________________________",
"________________________________________________________________",
"________________________________________________________________",
"__________________________________g_____________________________",
"________________________________________________________________",
"_________________C_______________i______________________________",
"_________________b_______________i______________________________",
"_________________jC__________F___c__________!_________g_________",
"______C__________bj__________F__h___________~________0_____D____",
"_____________n____uZ_________F__p__________T___P____2_____HD____",
"_____________n____uk_________C__c__________!_C_F___0c_____ZM____",
"_Q____________M___ai________KM_Z_!_____Z__Y__VL___pe___P_Hm_____",
"_P_____D______h___ntb_______KM_N_!____j_M_~_VJD__v2M___C_mh_____",
"_P_____Z______f____ph_______HM_HP____cM_bZ~_lC___7gS__j_Lmp_____",
"__v____C______f____fuM______ZFPDQ____i__lJ__ls__h9C__cC_Jkp_____",
"__c____b______k____Buh______ZHKPQ___c___kT_Vm0__7h___j_Tmhh_____",
"__n___nj___D__k_____sp______LKDT____p___j__k_9_haM__b__Lni______",
"__va__vh___D__k_____hukT____KDNK___PbQ__N_ZM_7ch___ZF_Lmkp______",
"__ci__vhx___M_f_____nybW___QHacma__k_T__Z_V__29__Dcn__Jmby______",
"__vg__hhx___Zvib_____umT___QN_49a__p_____ZV__2h_Fwh___n_pj______",
"___hc_vh_e__Fssj_____hNZ___KjK<4i_DbQ__M_lC__6nZh:M__Kl_p_______",
"___ga_Bg_3_SDhhj______Hs__DmsP<4i_M_E__ahh___4hww2___VmCp_______",
"___ji_Cg_agMNvss______H2M/3bbm1ui_y_T_3h4l___9a91h__Km_hf_______",
"___Cg_Bh__>giSa9______Z-99MlKiusaFtT_uihjC__jthd:___Az_fM_______",
"___DgxCfc_eiaKi6______m-<eMjL0n4umh!_<huj___ufau0__PVV_p________",
"____adDdg__0nHc00_____M<-hhkLuN4ushPh<a9a9_hyle<___Km_kk________",
"____ciAeh__ujChh2_____ju&67mMpM1ppV_7<b-313Myk92___Az_p_________",
"____MeCdh_MuthkH7h____hc-<hh:bm<pyH_9<h-a*2nyf9s__KlZAf______w__",
"_____aMlf_cwuhnKuy____ha;-tp9bi:pkKh<>p-a:jjfp6___ml_zn_____0___",
"_____gcVj_g9_pJAb7___pfa--9l9F1:tGKu52y2iwhlk9t__sfz_l_____hu___",
"___M_viZj_e9_uJJ_7__gphs1<uf2P--2Wkp<1u99jihf2f__ipJVz_____9____",
"___c_SrZn_07__lL_th_0mfhg<096L4*G(tp6197hf9ay4h__yl_lV___Ct_____",
"___v__gnn_ww__0K_k9_1plpi1596Mw&LGtp7:2yhfyyftp__tG_l____ii_____",
"____v_ccV_7a__9JPh7wc1f107<2thi3Lyftu3y7yt9;ftt__tHVV___yt______",
"____e_CcAF7a__gjmit1M5p120<2fismV:mhn:p:i-76ij0__t_zk__uyc______",
"____a__hZF7g__Zpmuy5h0w<7t:5M0hUp5kJc<f:62-y9Cu_k2zkp_w9y_______",
"_____c_cnY7_C__uJyyygi9<uh:wHuZG-fnM93p9<y%f9jhlp2kp_c09________",
"_____e_vMTq_C__yJyyigu97th7eLpVf=knu1999-6%p9_Jyppp;_2ip________",
"_____a_SnIe____hlh9y0ty72a7ijpl9-EVi-i<5:1&yt_Vypp2w1lu_________",
"______x_CPe__M_Zfl6i799<7*<hw9nw;f(y*s2::w-t9yk0pk<agkb_________",
"______e_ZTe__N_P0V9i192-4h<nuulw6khP379-p3-9t;ftpz<0Ad_a________",
"______c_DTg____Aimtyy6&-9i-Chhi99ninFu7-ig-t6;fytp1_kC__________",
"_______x_Ya___cJnny9j<&520-ckn969zk&HH52c7-y;=fppf2zk_i_________",
"_______a_Tg___uJJV09n<:d<3-izd6t2jb&w/hyMc-i;;fyyf2l__e_________",
"________gPn___ncJA-1C5>C711hZdytwdA-uhctuC>fypiykktH_h__________",
"________qFZ___MuHl6-lgenu-6MMhy6apt<<2MZp_1i_yytlpf_u0__________",
"________qDIM___iLi0;hced0o1Zbsi91hi9t<HVb_50_9y9H2Giwj__________",
"________:MQM___jP907ajch3#<Ksh9t2hsct;MZb09y_tt6HtZ4vD__________",
"________3c!v___An09f4jVd93;Lhs469s:au1tZ9-09_91tnbs_v___________",
"________ra!v___Ahd7AyZh03i6AZpi7tk*0i90J<-9i_y77fmh_n__C________",
"_________7Yc___LCj5ldjdTqD<nVus70h<7i00J<;tgay09yi_cc__Z________",
"_________,Dv___CgnaiBdBVTP7jj0079p20t9ylg;6g7y2i9__bj_c_________",
"_________qSC___Z0F0dUjn$Lw-uh0372h4199hfi5558f9y9_jc__c_________",
"_________qCZ___nr)9vUIj$iju6h0171f11<yMjcd999ft5__jk_g__________",
"_________rqv__pdFWIIIRB;enV9h0579d7BZAZ0586dyfy;_8jncM__________",
"__________qvxq0KYRj,hWj01ZVf5557iWId;ij0e0yidjy559dCg___________",
"__________,xehMTSFgv>Ihj5g=0=2lFgid5-yC688d5fj8;:clhC___________",
"__________g99nCnrgMv@CBvii,inni;1055-yA258j;fj6dnCZc____________",
"__________>1vn=,88ivgeIjgb9Z8;6;5d;,-dJ088d;ddd5hBc_____________",
"_________>;rvgxCMgri;7FjqK775=;;;8$;>eUv;=8=dhd6FBC_____________",
"________1;evqjg8MM>8e8vC3d=%5=665$=O@;UgX.8$,j5eIv_v____________",
"_______>::Ydve::6M>did8v==e;dV658@XXO$R:  @X$8$B!,x_____________"
};
