/* XPM */
static char *vine[] = {
/* columns rows colors chars-per-pixel */
"64 64 83 1",
"  c #343D2C",
". c #35432D",
"X c #39462C",
"o c #3A4A2E",
"O c #374131",
"+ c #3A4633",
"@ c #3D4B34",
"# c #3F4B38",
"$ c #3F5035",
"% c #424D2E",
"& c #414E35",
"* c #424D3B",
"= c #435136",
"- c #485233",
"; c #45523B",
": c #4A553D",
"> c #4C593E",
", c #464F41",
"< c #475241",
"1 c #4B5544",
"2 c #4E5A44",
"3 c #4E5648",
"4 c #4E5949",
"5 c #505546",
"6 c #525B45",
"7 c #515749",
"8 c #535C4C",
"9 c #595E4C",
"0 c #5C5755",
"q c #565E51",
"w c #5B5D53",
"e c #605E55",
"r c #635E5C",
"t c #536046",
"y c #55614B",
"u c #5A634D",
"i c #5C694D",
"p c #566152",
"a c #5C6353",
"s c #5F6954",
"d c #5E6559",
"f c #5F695B",
"g c #616555",
"h c #626955",
"j c #62655B",
"k c #646A5C",
"l c #696D5D",
"z c #6B715E",
"x c #666561",
"c c #696563",
"v c #666B62",
"b c #6B6D64",
"n c #6D6D68",
"m c #706F6A",
"M c #6C7264",
"N c #6E7369",
"B c #717565",
"V c #727964",
"C c #72746C",
"Z c #75796C",
"A c #797C6D",
"S c #757770",
"D c #767A71",
"F c #7A7D73",
"G c #7D7F79",
"H c #7D826E",
"J c #7D8174",
"K c #7E8279",
"L c #818476",
"P c #83857C",
"I c #86897D",
"U c #898C7E",
"Y c #848681",
"T c #878A81",
"R c #8A8D82",
"E c #8D9183",
"W c #929486",
"Q c #93968A",
"! c #979A8B",
"~ c #979992",
"^ c #9B9E92",
"/ c #9EA198",
"( c None",
/* pixels */
"((((((((((((((((((((((r((((((Zau@&jCFwjn(((((k(((KZ(((((((((((((",
"(((((((((((((((((((c((e(((((L8@oX+9(((((((((((x(MaK(((((((((((((",
"((((((((((8wk(((((((((mJHHP(Ig4=@;Ca(((((((((JTJy*<JF(((((((((((",
"((((((((((88p((((9l((m(AuuhF(PA==;9j(((((((((Jk8hha;z(((((((((((",
"((((((((((88p(((9->M(VVk42:((((6:8j(j(LL(((((P*;86o@F(((((((((((",
"(((((((((((j((((u-hMeg622:9(((((lF(((PhyM(((Dk11M5:@M(((((((((((",
"((((((((((((c((((n((wu>::&u(((((((((CLs9l(((j1kqM9ab((((((((((((",
"((((((((((((((((((((gBy9:*6(((((((a(Ct2>2(((D#38WC((((((((((((((",
"(((((((((r((((((((U!M((S&Xh(((((((%lju6:&C(((3*<JF(C>(((((((((((",
"(((((((((FJNK(((KZbJPM(((aC(((((((uGRFDjg(((((kk9ugMM(((((((((((",
"((((((((UDkZEI((EJNfJJfD(((((((((Gn81A((LHI((c((u>a(((((((((((((",
"(((((((ZpadlU(((IEJa243HP((((((((k131P(AAauZ(3((B:n(((((((((((((",
"(((((((L844*8((((F*481:VgMLlaMP(((v*<aBghy6Dj88(((jPHz((((((((((",
"((((((zuk#;3<D(((a;3;+9k@:@@&6I((((x8vZ86t:F13qn(((Phi((((((((((",
"((Gs>i62Mdq*8C(((833*2bl=@;;aZ(((((((((ku>>F(av(wgCgttC(((((((((",
"((Lut>>:a((Nxc(((j3*N(kd6=$;M((((((KP((((66((((c9uKVl6b(((((((((",
"(((Pl;2iC((((((((ajC((jCk6*@k((((J!JbZ(((((((((((ZMJ((((((((((((",
"((((l;2;B(((((((((((((cmu*:&l((FJKvN31BCND((((((k82T((((((((((((",
"(((((ask(c((((((((((((j(ngbkZ(ZZ8y8q289&*l(((((((a<f((((((((((((",
"((((((((((FHHJ((((((((c(((P9@<@h;<4jn(h**m(w(E((((S(((((((((((((",
"((((((((((Phsz((((((LPv((((F:+&wMa3a((v8u((wWNNE((U(((((((((((((",
"((((((bu(Zkstz((((AzhL(n((gC&&5k((cf(C(((((CUfJU(ENN((((((((((((",
"((((((9:Mjy62t((((M6ylAB(j-9u85j((((hZmN(((ZlaaS(D38hkV(((((((((",
"(((((((BRUlh->((((F>686geB8-((((((((28jju(J324*&DCdCs:J(((((((((",
"(((((Yvq4vS(((((((F:6:2g((((rn((FJJ(:u((((Zho@11j(((lp((((((((((",
"(((((b81#DT(((((((C:;uhLMZ((l:jmV8u(n((((H&ag2117((Z((((((((((((",
"((((((b*<w((((((((F6=b(v<kI(kjbg42g((((4:$@:w(GSC(hzC9((((((((((",
"(((((((kqj(((((((WNCA(dqp88((((Du:u((((::=o9k(((((8u((((((((((((",
"(((((((((((((((((RPkUEka**q(((D(((g((((Fs$=;M(((((((((((((((((((",
"((((((KPM((((((((C3q48(((N((FlkK((((((((C@:;vc((PF(((((x((((((((",
"((((((RMJK((((((c4211MP(((WZF43kpJ(((x(((BgG((vLuy(((p4p((((((((",
"((((((M88C((((((C81*8a2P(Yvvyb6>8Pb<ajc(((((((bB6:F(f8yd((((((((",
"((((((832kskN(8ykcM(k8;;;AE3*a:;=B(pa8(c(((vC(l9:=u((q64((((((((",
"((((((jbZh;tZv8p8(((as>>4kF,1C864C(ppn((x((Z:jg:==6c0(x(((((((((",
"(((((((((l2u(8y8q((cn8t:Vv1qwakn(((a(((((vYJZ((MM96(((((((((((((",
"((((((((b(MF(cSMJY(j(ha6(D18,TI((((I/((DNf84bW((((((((bVL(((((((",
"((((((zVM(((((((hzL(((DY((b@1MZASTKdvYKq1y82II(b((((((b:6h((((((",
"((((((tyMk9((((KphA((((((((j8ltysPE81qvGp3y48((<8a(((((::C((((((",
"((((((-9B(b((((ktyubl6(((~((((64C(K1@<pNK8@42((682(((((aqFHVZ(((",
"(((((((((((((((u:hzPZ-((K^~(((Mp(N*4d833J(jbx((<28(((((((Fh6u(((",
"((((((((((((((((((FjND(EaqffGS((:83<<18wx(((((((x((((((((Bu2>(((",
"((((((((((((((((((U11aWFq<,38qNv<27**1NG((ERx(((((((((:gcu:>>z((",
"(((((((((((((((((891<k!Ek1O#,434AxCjb((((HZKPP(c((((((%lBBuuoa((",
"(((((((((((((((((;;qw(P!D+##1<,3fC((((((TWKMfkv(((((((CGKF((((((",
"((((((((((((((((x8(((((C114q1*1ajMR((((((F2a8fzJZkA((Yvp1CE(((((",
"(((((((((((((((((((AJ((jO3#***qCJJZv(((((a43:N>>t2Z((Cfp8M((((((",
"((((((((((((((((((MMZR(2*8*@+qM3yfvAF((((b8j(kut>N((((F3,q((((((",
"(((((((((((((((Jlhk<1D(171* 5;a<83KET((((CD((jk4>M((((((bc((((((",
"(((((((((((((((Ky-dN8C((xklqOal+;*aG(((aaqa(((nbk(((((((((((((((",
"((((((((((((((((u:g(((((j2&;9wL9118nP(n8<<(((n(((((((((ZJF((((((",
"((((((((((((((((GF((((((wk5@kaDd,4q*3d(7;dJzJC((N(((((PUkfN(((((",
"(((((((((((((((((C(Vz(((5U!ZCjZ<qqq,a(j(j(Nuhz(u>((((((k:;stu8P(",
"(((((((((((((((((9h8y(((MKDMDJQZ+0,#n(((((Bt>uj(l((((((a2kao@z((",
"(((((((((((((((((((h>(PWRNsMJEIZ#  #((((0(B=sJd((((((((xC(j:@N((",
"(((((((((((((((((((((J3qkkkPIEIl,# n(((((cFZbZF(((((((((((xkk(((",
"(((((((((((((((P(((PAL8q484LTMtk,qc(((((((mIludl((((((((KF((((((",
"(((((((((((((Lka>lH2ts6;44@*M2:b(c(((((((((q@<*BD(((((((9hbC9(((",
"(((((((((((((T6:$$@@Xlg+;>4*a=:((((WG((((((<*+88&h6M((((>>uCh(((",
"((((((((((((((Hk=>oo=jl6#2315Xa(((MJkPR((((88Sx:o@:h((((:k((((((",
"(((((((((((((((L2o$+;8g(D<+2j6((((FlMUP(((((~F(g&@hY((((((((((((",
"(((((((((((((((B@@=;l(w((Ndqw((((Ml81kF((((N1wW8;&yC((((((((((((",
"(((((((((((((((CoX=ogvw((((nC((((d2<<@a(((d<@1F(adx(((((((((((((",
"((((((((((((((((h5:&wed(((((((((Zz*O#*3((G4<#*2(ak((((((((((((((",
"((((((((((((((((CeSme(w((((((((P@:l11#8c(((c+Oq((((((((((((((((("
};
