/* XPM */
static char *waterlily[] = {
/* columns rows colors chars-per-pixel */
"64 64 120 2",
"   c #161512",
".  c #1E1E16",
"X  c #1F1F1B",
"o  c #201C1A",
"O  c #24231B",
"+  c #2A261E",
"@  c #27281C",
"#  c #2A2A1E",
"$  c #272720",
"%  c #282723",
"&  c #2E2D22",
"*  c #2F2E2D",
"=  c #312C24",
"-  c #2F3023",
";  c #343325",
":  c #383727",
">  c #383827",
",  c #34322B",
"<  c #3A362B",
"1  c #3C3C2B",
"2  c #373731",
"3  c #3D3935",
"4  c #41372E",
"5  c #403D2D",
"6  c #423D32",
"7  c #483F34",
"8  c #3F402E",
"9  c #42422E",
"0  c #454431",
"q  c #494634",
"w  c #474832",
"e  c #4C4B36",
"r  c #45423B",
"t  c #4A473A",
"y  c #4E4C38",
"u  c #504E37",
"i  c #50473A",
"p  c #514E39",
"a  c #4F5037",
"s  c #505037",
"d  c #54533B",
"f  c #59563E",
"g  c #5A583F",
"h  c #4D4942",
"j  c #534D46",
"k  c #555242",
"l  c #5A5641",
"z  c #5D5A42",
"x  c #5A5349",
"c  c #5E5B49",
"v  c #5E5A51",
"b  c #615E45",
"n  c #635D49",
"m  c #636146",
"M  c #666349",
"N  c #6A664B",
"B  c #6D6A4D",
"V  c #706C4F",
"C  c #6C6652",
"Z  c #6E6A51",
"A  c #6D6D58",
"S  c #726D52",
"D  c #786F55",
"F  c #756E59",
"G  c #757254",
"H  c #797456",
"J  c #7B7856",
"K  c #767259",
"L  c #7B755A",
"P  c #7E795A",
"I  c #736E62",
"U  c #777565",
"Y  c #7A7361",
"T  c #7F7A63",
"R  c #7C766A",
"E  c #827C5D",
"W  c #837D61",
"Q  c #897E65",
"!  c #827C69",
"~  c #867F74",
"^  c #85815E",
"/  c #868163",
"(  c #8A8464",
")  c #8D8966",
"_  c #8B8569",
"`  c #8E8A6A",
"'  c #908967",
"]  c #908769",
"[  c #928C6B",
"{  c #94916D",
"}  c #99926F",
"|  c #878272",
" . c #8E8270",
".. c #89837A",
"X. c #948E73",
"o. c #979271",
"O. c #9A9573",
"+. c #9F9A76",
"@. c #9A937E",
"#. c #9F9978",
"$. c #A29D7A",
"%. c #A3A07F",
"&. c #969187",
"*. c #9A9584",
"=. c #9F9984",
"-. c #9C968E",
";. c #A29A82",
":. c #A49C89",
">. c #A59F97",
",. c #A6A184",
"<. c #A8A481",
"1. c #ACA988",
"2. c #AEA99F",
"3. c #B4AE9F",
"4. c #A9A7A1",
"5. c #BEBBB3",
"6. c #C0BDB6",
"7. c #C0BEBA",
"8. c #DCD9D1",
"9. c None",
/* pixels */
"9.9.9.9.9.9.9.9.9.9.9.9.9.9.9.9.9.9.9.9.9.9.9.9.9.9.9.9.9.9.9.9.9.9.9.* 9.9.9.9.9.9.9.9.9.9.9.9.9.9.9.9.9.9.9.9.9.9.9.9.9.9.9.9.",
"9.9.9.9.9.9.9.9.9.9.9.9.9.9.9.9.9.9.9.9.9.9.9.9.9.9.9.9.= : 9.9.9.9.9.  = 9.9.9.9.9.9.9.9.9.9.9.9.9.9.9.9.9.9.9.9.9.9.9.9.9.9.9.",
"9.9.9.9.9.9.9.9.9.9.9.9.9.9.9.9.9.9.9.9.9.9.9.9.9.7 5 6 e t 9.9.9.9.9., 7 q 6 h 9.9.9.9.9.9.9.9.9.9.9.9.9.9.9.9.9.9.9.9.9.9.9.9.",
"9.9.9.9.9.9.9.9.9.9.9.9.9.9.9.9.9.9.9.9.9.t l b A D p f d x 9.9.9.9.9.q f k k p n n f 7 j 9.9.9.9.9.9.9.9.9.9.9.9.9.9.9.9.9.9.9.",
"9.9.9.9.9.9.9.9.9.9.9.9.9.9.9.9.9.9.6 q d n l b b T 6 b p b 9.9.9.9.9.q C L D n C E n n d q 4 7 9.9.9.9.9.9.9.9.9.9.9.9.9.9.9.9.",
"9.9.9.9.9.9.9.9.9.9.9.9.9.9.9.9.9.i i f n b V z n p d f i b 9.9.9.9.9.i D ( ] b C E N E n b b i q 9.9.9.9.9.9.9.9.9.9.9.9.9.9.9.",
"9.9.9.9.9.9.9.9.9.9.9.9.9.9.9.h f i b n C E b l b k f n n b 9.9.9.9.9.g b Q ] 7 E E W E C D E b d ; 9.9.9.9.9.9.9.9.9.9.9.9.9.9.",
"9.9.9.9.9.9.9.9.9.9.9.9.9.9.9.< j b l n b E i f n N f b F b x 9.9.9.9.k N i q D Q E E D n S V D D i = 9.9.9.9.9.9.9.9.9.9.9.9.9.",
"9.9.9.9.9.9.9.9.9.9.9.9.9.3 : p l n n V l l b f b N f g k z l 9.9.9.t M C S D Q ( W Q D D B V n b u i < 6 9.9.9.9.9.9.9.9.9.9.9.",
"9.9.9.9.9.9.9.9.9.9.9.9.9.= 0 d n b N b b l f b f f f b b l l 9.9.9.y N N D W Q Q ( D E D S C n n b b l 7 , 9.9.9.9.9.9.9.9.9.9.",
"9.9.9.9.9.9.9.9.9.9.9.9.+ t p N D E b M b l g l b b b b b f b 9.9.9.n B Z W ] ( _ W C D S n N E V n n b x 5 = 9.9.9.9.9.9.9.9.9.",
"9.9.9.9.9.9.9.9.9.9.9.# 5 i n n N $.e M n E n b l b n b W B z 9.9.9.N M L T W ( ] ( E L L b n L V n n u n t + 9.9.9.9.9.9.9.9.9.",
"9.9.9.9.9.9.9.9.9.9.o f q b b b f 5 z b n b u z b N b z G E B v 9.j H C D L ( } ' ] _ D Z V N N n b b p q = o = 9.9.9.9.9.9.9.9.",
"9.9.9.9.9.9.9.9.9.# = 5 f b f b l l M M b g n n b B M b N N i C 9.t W K ( ) Q X.o.] S D Z S N D V b z b d u < 4 9.9.9.9.9.9.9.9.",
"9.9.9.9.9.9.9.9.9.# t d b b f f n b B N V b B B V N M V S z S C 9.k G ( O.} ' L ' L L S S S D B V n f d p p q 7 4 9.9.9.9.9.9.9.",
"9.9.9.9.9.9.9.9.o : x V b p f n g M M b b b B D H S V V B L D S 9.m H H ( ( ) S [ W L S D S Z B b b d d d p i i f 9.9.9.9.9.9.9.",
"9.9.9.9.9.9.9.% ; 0 u z b 5 z l M M M B S M V E E V V S L E L W 9.Z V V E L ( M E L ( W P L B N b b g f f d u n D q 9.9.9.9.9.9.",
"9.9.9.9.9.9.9.# 5 e u < # b E b M M B V B D G E E G V V D E L W 9.V N H E E E b / ,.O.W G M b M b M b b b f b b n i 9.9.9.9.9.9.",
"9.9.9.9.9.9.O t u d f d u f S t m b E V V S L L E P B B E E H _ 6 B V M b B z M [ $.( L V H N B H E D m b b d f b b 7 9.9.9.9.9.",
"9.9.9.9.9.9.O l b d d e u g b M b M B b S H ( [ ' ' D H E ' V E 7 n V M E H P E $.[ O.b b b z ) ' ^ V m g f l W D l u 9.9.9.9.9.",
"9.9.9.9.9.X # - 1 g g u w g m B V V G E ' O.$.[ P P L S H / B W i n M M E E P #.O.E b l z N G ) ' E M m H g f L E b n j 9.9.9.9.",
"9.9.9.9.9.. # 1 a d z f g g m m M M V E [ ;.<.( ( E E H S H M D i d f S P G ( ) ' V z S G L ^ { Q B m M f f u M D E i b 9.9.9.9.",
"9.9.9.9.9.# : 1 e s d s a g m g f y b ^ +.[ $.[ ^ E D D H V B S 0 S M B L H [ ' ( M L E / G J K V G B M m g f d D M u b 9.9.9.9.",
"9.9.9.9.@ 8 U M N B N z a g m a 9 1 d ) O.$.$.Q E E E S B B b n 6 e 0 M S E / H T K ( H G Z b M b H H V b g z g 5 = l n 9.9.9.9.",
"9.9.9.9.: w l p f b m m N a N z s s J { [ ` ^ ^ P P / G N N l f < 5 y b G E H ( ` ^ J c z G O.l B N M G b f f d s d d b l 9.9.9.",
"9.9.9.2 > u f d d u s f m 8 B V m z J O.` P ^ P _ P G B b z p 0 + < y b S H ( ` / S N N N N z z M m M M g s s e q d d g i 9.9.9.",
"9.9.9.@ > s f u u u d d g 8 z B V J ) J m V J J H H S G S t 0 & o ; y N G ) / G J P G K B B b N m N M d d u d d f u w b i 9.9.9.",
"9.9.9.O 1 e b f y u d s a 8 m m M B V N V P ^ G H H S N n > e = < 1 d D P E E [ ( L P Z Z N V m m N m b g f b ) E N q V f 9.9.9.",
"9.9.9.@ 9 e s g d s g d g > N V J ^ J G B B N m l l z M d y z q n B E N E ^ E ^ G L Z m [ [ g m m g b f b f d D V V < b i 9.9.9.",
"9.9.9.- p y w d d s g m M e ^ } $.) G J J ) J B d G z s p 0 9 ; f S W c o.[ ' ( ^ #.b N E O.e m H P M g M B g b m N & d i 9.9.9.",
"9.9.9.> 0 a y 9 u f g M 8 B J ^ ^ ^ J J P ^ B g w c 3 d x w 9 : N B E l [ O.' ( / Z G B N 8 d z M ' M m G $.E f u ; 7 f N 9.9.9.",
"9.9.2 9 y f s s 9 > ; ; d J G J J M b N z d g z z d e f p 9 0 1 S ( S M ` { [ ( _ E N m Z m M V z y e B V S V M z z d b H 9.9.9.",
"9.9.8 w d m z g g g g B J V B B m m J J N M V M N m y 8 t s z 1 p k z E ( ^ ) ^ ( o.J m N N K m m z m B m M c M A b g m @.9.9.9.",
"9.9.9.8 a d g g g g m B B B B B J ) G m m g g G c z g t 1 l l 1 N L ^ ^ E / V S M a a B K S P z z A M z M d M z g M m N U 9.9.9.",
"9.9.9.8 d m g a a a a m G J J ^ ^ B N m a 9 w a z B B d s z w q G ^ ^ H / H Z B N m c m N M z Z K N M z N z l a z d f B T 9.9.9.",
"9.9.9.8 g g d a a a g J J G J V V m g a d w e N N N L z ^ b y 0 E [ ' / G J G B T y B P l z M M g / m B N z m m g f d b n 9.9.9.",
"9.9.9.8 g g g a a g m m J m m z g a g m m d 8 a f d z ( P q > C ` ( ` W _ G B B B G m y N M z d z e z l d l z z z d d Z I 9.9.9.",
"9.9.9.> a g g g a g g g m m d a m B G G J V 9 9 d N / J g 1 > Q L L G P ` / B N Z M N m Z c N M l a z z z d c a l m i N 9.9.9.9.",
"9.9.9.h a M g z g g m g m g z m J ^ z g M N z d f m B z w 5 d g X.L E G G G G d B K M / N N Z l M N z z l M m l z z l S 9.9.9.9.",
"9.9.9.9.8 m g m g a m g g g B J ^ V m g z N m B B m m a e M b M [ ' E P b l f b K M S z B A z b m ` M d z z z K d f l Q 9.9.9.9.",
"9.9.9.9.a d f d a a a a l B ) ) J V B g g z B V m b d e G G u b ) ( L H S G P H B Z _ L B C N b l m ; l z z z b z B L Y 9.9.9.9.",
"9.9.9.9.8 e d f d a a l A G N z B m z m M V B B b f s B E B B O.) ( ( V D H H Z S N E E p B b b z l Z l z s l b b V H 9.9.9.9.9.",
"9.9.9.9.8 l d a g a g N B z a a z a g m ^ G V m g d V ) E V z ^ [ B G M S S S S Z D z l y H d m z c z z z b z b D N L 9.9.9.9.9.",
"9.9.9.9.$ d a m a a a m g g g a a g m J ^ V m a d M G P V f s G ' b E V D L S ] S Z B Z N z z c z b l M M S z z p L E 9.9.9.9.9.",
"9.9.9.9.* e w a a a k d g z g a w g B ) O.J B g f B B M f > e L } k H E V N V _ y M Z G Z m G m b b N g z n b b N X.~ 9.9.9.9.9.",
"9.9.9.9.9.8 a d g d a a g g g a g J J ) G B m z 9 z M N 0 w S o.( k G V N B L Z D H m N m W d z m c m g z b M N N *.9.9.9.9.9.9.",
"9.9.9.9.9., w a g a w a a g a m G B B G B m B B > p b e M E d z q L V V V N D D Z ( p z n d y b d z l f f N l d W &.9.9.9.9.9.9.",
"9.9.9.9.9.9.1 w a w w a g g g m B g m B B J J J ; f l V H b e M E E D V N N } n M y W M N l l s z l z d d l p N 2.9.9.9.9.9.9.9.",
"9.9.9.9.9.9.1 1 p t d d d Z a T d 8 8 m J { J 8 8 g m B B g s M G G N M Z N M z N M b w z d d d z c d f g d i *.9.9.9.9.9.9.9.9.",
"9.9.9.9.9.9.9.: 9 a p a d z z m g a 8 8 8 8 > a g V M M g 9 > b G N m m N m c H d l l f ( z d g d _ N N k f _ >.9.9.9.9.9.9.9.9.",
"9.9.9.9.9.9.9., w c f d d a b B B g g g g g g g m B N d 9 8 s V H z e f m N z l d l f b z q d d d V z l b N 3.9.9.9.9.9.9.9.9.9.",
"9.9.9.9.9.9.9.9.1 q d b g z N m z g m z a g G m N b g w e e s J G z e t z m N N P l l c G k l Z e M z z n 3.9.9.9.9.9.9.9.9.9.9.",
"9.9.9.9.9.9.9.9.9.8 a d b m B g g m G m g d m m m a w y d e 9 m N g d d K z m N S m w z p d y d y M b N C >.9.9.9.9.9.9.9.9.9.9.",
"9.9.9.9.9.9.9.9.9.8 a d z B m m N m g a z m M m d a e d s w 8 a a s f f O.l z g l m ; k d Z S d g g V S -.9.9.9.9.9.9.9.9.9.9.9.",
"9.9.9.9.9.9.9.9.9.9.8 z G g g z m m b g b z g s a a a s e > 8 g d y u d y r d t > O > a y f z 6 g n | 7.9.9.9.9.9.9.9.9.9.9.9.9.",
"9.9.9.9.9.9.9.9.9.9.9.8 m a m B g z d a M z a s a d a a e e e m d y e u ^ d s p 8 c y a y Z l M g X.8.9.9.9.9.9.9.9.9.9.9.9.9.9.",
"9.9.9.9.9.9.9.9.9.9.9.9.t b f d d f s k y y y d a a 8 w 8 w a m s e e s e d m y e d 0 u d e l N [ 6.9.9.9.9.9.9.9.9.9.9.9.9.9.9.",
"9.9.9.9.9.9.9.9.9.9.9.9.9.3 w d W p m z d s g a w w w w 8 8 a d e a a a d a p s q p u u i f N ;.5.9.9.9.9.9.9.9.9.9.9.9.9.9.9.9.",
"9.9.9.9.9.9.9.9.9.9.9.9.9.9.0 y M 1 s Z d d a e a w w 8 8 A / M d 9 a g e y d y 9 5 e t p b 6.4.9.9.9.9.9.9.9.9.9.9.9.9.9.9.9.9.",
"9.9.9.9.9.9.9.9.9.9.9.9.9.9.9.r p g l d m z l a w a w 8 8 g M d s > s s e d p d p > ; 9 b ~ 9.9.9.9.9.9.9.9.9.9.9.9.9.9.9.9.9.9.",
"9.9.9.9.9.9.9.9.9.9.9.9.9.9.9.9.9.y M b z H M q a a 8 8 > f b a e ; s p d f a f z U ! :...9.9.9.9.9.9.9.9.9.9.9.9.9.9.9.9.9.9.9.",
"9.9.9.9.9.9.9.9.9.9.9.9.9.9.9.9.9.9.9.t d l d f g a 8 9 0 a g a 1 s l d l B ` ( ,.;.R 9.9.9.9.9.9.9.9.9.9.9.9.9.9.9.9.9.9.9.9.9.",
"9.9.9.9.9.9.9.9.9.9.9.9.9.9.9.9.9.9.9.9.9.h d g m g g m N K t q L 1.$.$.X.X._ U 9.9.9.9.9.9.9.9.9.9.9.9.9.9.9.9.9.9.9.9.9.9.9.9.",
"9.9.9.9.9.9.9.9.9.9.9.9.9.9.9.9.9.9.9.9.9.9.9.9.5 9 w 9 9.9.9.9.9.M C x x 9.9.9.9.9.9.9.9.9.9.9.9.9.9.9.9.9.9.9.9.9.9.9.9.9.9.9."
};
