/* XPM */
static char *wool_colored_orange_[] = {
/* columns rows colors chars-per-pixel */
"64 64 69 1",
"  c #CE4E0A",
". c #CF510D",
"X c #D3550C",
"o c #D65A0D",
"O c #D95D0E",
"+ c #D75B10",
"@ c #D95E11",
"# c #DB620F",
"$ c #DD6411",
"% c #DF6913",
"& c #DE6618",
"* c #DE6A19",
"= c #E06712",
"- c #E26C14",
"; c #E26E19",
": c #E57216",
"> c #E87417",
", c #E6741A",
"< c #E9761A",
"1 c #E7781D",
"2 c #EA7B1D",
"3 c #E06F21",
"4 c #E47521",
"5 c #E67A23",
"6 c #EA7D22",
"7 c #E67F2B",
"8 c #E87E29",
"9 c #ED811F",
"0 c #E78027",
"q c #ED8324",
"w c #EE8827",
"e c #E7812B",
"r c #ED852A",
"t c #EE8A2C",
"y c #F18625",
"u c #F18926",
"i c #F08729",
"p c #F18B2B",
"a c #F4912E",
"s c #ED8C32",
"d c #F28E31",
"f c #EF9133",
"g c #EF933A",
"h c #F39334",
"j c #F59936",
"k c #F39539",
"l c #F59B3C",
"z c #F89E3D",
"x c #F4A13E",
"c c #F59D42",
"v c #F89E43",
"b c #F6A244",
"n c #F8A145",
"m c #F5AA46",
"M c #F8A946",
"N c #F6A54A",
"B c #F8A54A",
"V c #F6AA4D",
"C c #F8AA4E",
"Z c #F7B04C",
"A c #F6A952",
"S c #F8AC53",
"D c #F7B156",
"F c #F8B255",
"G c #F6B05A",
"H c #F9B45A",
"J c #F7B85C",
"K c #F8B863",
"L c #F9C371",
/* pixels */
"#1p5p2<jS<$O::2%:,qgh1w<:Nh#pl6-hcl2>::-=kAvd2ydh>=v-<iav6O<y6<=",
"<92:26<2kq5,-,,w,>:,0>:2uqqq-=ql,3k62yuB=26==2<66ip;6dydBp-6i=i6",
"hpy<5p:-d-,$#=qq>22,:%:2tftwt,rA5-hp><ih-6>=88<866=di6kkh<y&=2yz",
"hw<-=2q+1pg;ah:->2h2,:qh2q>:krktsi6yiph2=8v>;<8d>66iuauAn2<=1aBB",
"hjBqq=$,=pq22p:O-qpaq,:w%,9>-th2d628Svvi>>d2=dvv8pv<2;6klk<-ybCB",
"ypkyi+ Xpq6-#O$$,:p6:q:$t129h&yy>v8688c6<6<6v4>B68vd<===<<pq2h5,",
"-<168=<iq<6-=,,qt%##:q2>pu,,w516><86@>vvh66hk8id7<i6y2=<<;<<qr<-",
"==2=@<<<6pc9>hy12,%qfq291%%q6%;pid<2<di82>>6h888>ky>-8>@<p1i;-+O",
"-$--<:-<2=%-yyyyjp,yp9>pw9::fq1%@46d2==di6h6>8d>aa>==dhp;846ziOO",
"=-;rzy=;iw-Ow2pd,hyjzh<121:#>%1b<2=@>yp6yihv-+vdKv==<2dl;=g66i>-",
"66<6-=qqt%=2:-$+-2qyqq<%%11-#21:=>>662=<<pph2-idid<2kd=X68=;X@a6",
"<<<2<2pnN--:;6-;==2-21pqupf<%qx#==i8y>><6dC62c<-<=d=6h>=6p8k=2hk",
">;;$2yd43kyy6id6$=Oo1:$h1g:p9999>26hiih62=-d<6>=8>><d66>8vv@>>>+",
"hi-==-q;j<2ykpp<-$=q$,5qX#9wff9w22vdv66zi<66<vl=<<>2z6>26cX>lkdp",
"84$-huhl6hd6Bv2<2--=6,:>w#22fj,%-8kdhCvh>y2>6ad-<pikivuui=88p6v2",
"X$<-5hvv<-=4=-;:qq>:2,j,6tw-1;,:dBidz666v8=662ip6pz6=<ip66vii<4=",
"a6<-66l6>$oX-<%lp$<yhVay9:09%09#=y2++6y:vv828X-6ad622<l<=-,$@Okp",
"a2<,266yppq,;X6q,hy-kAz29999xfw:5==+<:2k84p@>++d6266p<yyqX.#;#zv",
">>=hjpvBc:tf5$,p,jr<qgbbww%999:14<=<i6yhis4><i+-O==ivhii<:,=12wq",
"p2y>jpii%%1mphjupqnpt$X$a9:%.:904rClqpv6>8vpp=8==2+i6i6k2y<d6h-:",
"p:y62nCp95lt9wqtaq%%t61Nxxf00009=4hp@<t4=rccp<6<-;>;k-=ysrauu2>9",
"--uz<lKj,1ff1:f9-12<jkq-%0ww99%#-$338=c==i8;pp@-8<;=6dkzA-6->y$;",
"yp<5$o$=m3:9t,alj%-:2wbq9w9wx%9#l8-;vsy6t66,,v1+3kv<>ikHt1$O--%-",
"uy11$1,8mf1-a1w9;jp9:2Vwoo9w9%00<;@X+i6-88--l16g>=8===<6y1%tdCja",
"aa>2mlw21fjjp99h9:1%w99a:;0:999m,67@;$66ess41=*g0l;;;sx9>%2quaay",
"ujj6pwjat,9ajVpuw2:,w9awafw:%##x<,<k;@=6cjAq-Xspgbl:exw9t>:5ku>9",
"Fpuy#%$9929xHj91wajpZf9ffw9-0999y34Bt@ 6sqw%#1d,#%;1#;a99zq# %2b",
"h2yy1%%:w;9bbmwwaja,*#-wJx9909f#;4lir;5-#.91rN0,*0f11%-%%qw9-=22",
"Oqathjm1w:#wx40Zq%-#*o%Zmwwwwf99sqi<gAq$o%2wpp:%-91w99#-%-99>>%%",
"5-q:<ww:-tw0#.9ml--1%:w:wfaff99%%dr1S626%$-bu1-2f9#:,a9w9%%91%,:",
"<#%:9,:1wj9%;01w9,f1#aww99wwfxa9e6--;,$=%:;.##wf9w#%:9p:a9:-:2x2",
"#:>:$9f#*w::19w-%9fw0w9wxx9:xw9f5hhu,,Xpfj9$#29gt5#-p9::wx99:1<9",
">w:91jwwfjf9fw9::wjjaZw9-##:9j<2hp:2=8t<;Fp6:h<--:=a19jp-=-4qq-#",
"#992uw9::pxwj99--99pqhw#%11-129wl,i5-<d2ydrv,dl2:pq>><p62O*-#-:%",
"O2w2a9t:2xxawaw<:q9wqxhq%#f-9pat6-dywwqh>-<kdxhzjj22ynvuw=p1:>t-",
"%-9w2:9t91:11wtqw9-=#,1q:X,9xx8tvdi-,lh666vdyp6ypuaphxpa22pu9###",
"jp:#w%1f<#-:twq192#%15%%1$11$2%q,<-<2HC6=2kh6<=-:hnj2662ijpp>2=9",
"9hah0#;t#%0fhph>%1$121wa:f1X5$#8d6<<pj66>66-,i,h<-hl26<2pdulwhj9",
"u:-1ff;,qtt%:s5$o-::a2<fq2w1hzw%dvp6,k2d8h,6$-2<l8O1j<==-<jpBahp",
">:#%$9j2w2:2%0:f*wwq-2%1lja%21wwily<2hy<<,i<-<2-tht1j6:2pq11h-=-",
"=:wyjfwB,5,1$:jvwq1:%:2-%-:p1Njall26>>ii>6pvh2<d4$ddq;=ylB$%,q<#",
"<ujB,cq,w%o#5%2rj%,:a2:9bt:u2jqp86an838>=<dkzu<2<@eysqlCtnv22xV2",
"Mxyn22qq,2j81p2hfo0jq>:9jqwJx-::=6h<6<i6->;@zky>-<,5;qhpl4d-w>rp",
"habpt:qhdhvq60=,12%qwaaw2y6$t-#=6pk2>>=d8i<>66ua<6<=<-<qdd;@=hh>",
"hhja9qp21upl2:j0wq::pl:#>uy:<wlc<,6h6icddlihd6u6-pi2:qpd:$$%#qwv",
"kp1%%hk906pjhaq:gjww2q,---::=<-gsN=<-4kzi<>662pi<<u6:%,6s-q4@uhp",
"2:<p29whwq,hBljc5lHhqa226y-tpy,rsc>6683>=-8p->6ip69<q$=;;t6-:,1,",
">ptthhqjt%::>9fk:a9%2qahjp1<h6h6;66h2<66=ih2pvvd2hy6,trp5p1hvw->",
"hh9hu>uhh-<yyph2O0h1zmwB12:$pw62p6iki=>d6iAp6d<6:d6<,6Xq56rph2ah",
"9w2phptqp2yvvhlt-#w>wpa<kj$,a1r:Bivvz2k6pcdh2>d6ykp=$=+<=-,5O$61",
"6qpapqp>:<jl:,fw29>219w29$8%:125jkad26d>=>iai6d6pi=$211r-<62r-ey",
"-wt-:p-#-6<<p9hNq29a9#$,q:wh,<hj6yh2ii<>ikhia6d=5ri<<2j66ps6tX$$",
"w4,22w1<,,rprwbaq9a6qqpg;;2>-tqc<upiGB>466hadd86==$ppdd-i2cyO:%,",
"2--,q-drr,r--rttwwr,ta11;;1wjq-,p<ip6a6-6v<dKkhi<#-ip6<hyyp,2->,",
"2<q,,;;-tq-6w:$#%91a2%q10;;qqrr>B-ip2<ai>6826-O<yh<-rdhqyqp:-6yp",
"6-=$$r<rhzjk6wq22xkhhf:o$29ju282p2pa66vidk8G>4>>-25;42pyy61qpjq,",
"=<:-<<u<11-pq1p6,>,:tph9<h22h6=-pvBa<2hi8--v8<pk2dydpypyy6;y5--+",
"2:-ivly26p>y2-,##:%pwhw2qjC:=;<iy>6y2>6dd>i48<hGppp2=--2d-2;=--6",
"=<ydli9<q<<y:#=,2up22:2tp:;26p-8di66ad2>8lp=;>4ip6yy=-<;;<;,662-",
"6h<hi<69y21=O$:qu2pr2%>2,5-26,;@6<=2aikp<666s><426p>6<-e;-=$2<;=",
">--6pDr<2hpi2-q2,-,%j,>2=vB-<6p--;8666vhr>i4<iaz222>vyphnlcd22,,",
"2->><d1225kxa2:paq,:q%%#$6:ph66i=;6d2>>dc4-6<-662xpavi:-5riv<-id",
"k8:2>>2p:>qu,up2y,:$#%:%>9%,ka&46=+-<46=itdd4=66y62>;rl,<dky66<d",
"oO2-9:yp:-:2%,a,##-w02:O$ah:Gv-+v8>62=i=;v-dCc-zhoo>O:vzl<@--i<="
};
