/* XPM */
static char *wool_colored_magenta[] = {
/* columns rows colors chars-per-pixel */
"64 64 83 1",
"  c #851D86",
". c #8A1E8A",
"X c #8B228C",
"o c #8F2692",
"O c #932593",
"+ c #942996",
"@ c #982995",
"# c #962B99",
"$ c #9A2D9C",
"% c #9B319E",
"& c #9F2FA0",
"* c #9E33A1",
"= c #A12FA2",
"- c #A235A5",
"; c #A339A6",
": c #A637A9",
"> c #A937A9",
", c #A63BAA",
"< c #AA3DAD",
"1 c #AB3FB0",
"2 c #A543A7",
"3 c #A741AB",
"4 c #AA41AE",
"5 c #AD44B2",
"6 c #AE49B4",
"7 c #B146B5",
"8 c #B14AB6",
"9 c #B347BA",
"0 c #B44CBA",
"q c #B84EBC",
"w c #B353B6",
"e c #B459B6",
"r c #B652BC",
"t c #B953BE",
"y c #B659BC",
"u c #B95ABE",
"i c #BB62BF",
"p c #BB55C1",
"a c #BD5BC3",
"s c #BE5DC8",
"d c #BE62C4",
"f c #BF69C3",
"g c #BF62C9",
"h c #C05DC6",
"j c #C15EC9",
"k c #C162C6",
"l c #C169C6",
"z c #C363CA",
"x c #C867CE",
"c c #C56ACD",
"v c #C86DCE",
"b c #C473C7",
"n c #C672CC",
"m c #C973CF",
"M c #CA79CE",
"N c #C767D0",
"B c #C867D1",
"V c #C76BD0",
"C c #C96DD1",
"Z c #C772D0",
"A c #CB73D3",
"S c #CE7AD5",
"D c #CD77D9",
"F c #CF7BD9",
"G c #D177D7",
"H c #D07DD6",
"J c #D17DDA",
"K c #CE82D4",
"L c #D182D6",
"P c #D289D6",
"I c #D383DB",
"U c #D58ADC",
"Y c #D98FDF",
"T c #D692D9",
"R c #D893DD",
"E c #DC99DF",
"W c #D584E0",
"Q c #D88DE0",
"! c #DB93E2",
"~ c #DD9BE3",
"^ c #DFA2E5",
"/ c #E0A4E4",
"( c #E8B5EC",
/* pixels */
"$0zrz09AR7;%44r;55pVZ9s71UZ%zAp1BFGq757<=MEGvqhxv>-H;9zvJu$9ap0-",
"8pq5tp00Var5<70a8656a550sapr1,pA64AtqpjI=qp>>q1hahk7wkscYj>ph:at",
"Vxs5rz5<c,5%-:pp90r84*6pgVzgz6aUw,vx79zv>p5>ut7e0q=lkpAAC8h,,rhJ",
"As0,-tp$0zn4xC7<50V765pZrp85ZaZdgztsjzC0>hG5<7tv4hpzkck!J07-7cQI",
"CAWpp,*5<gpq8z5$1pgVp65a-8p5<dZrkh9h!GGh>1xq-xGHhzJq0<tvAA55hK!I",
"pzAss+XXapr<%$-*55Np5a5-g8rrV*ap<Gh7hpAt7pqtH00Ut8Hzq-=>99Natcr5",
"<8qpp,9za8t<,56sg-%%5pr5gg06gw0p50hq=7HHvhqxvhjke0zphq-85557pa9,",
"-:0-#959rcDp7va9r53pVp0p0*<pp:4gjx9q7xkhq91hvuuu7mh5>u5&5z0h4<$$",
"<-:<q7<70>,,pashAz8hkt6zsp55Vp7<=7tkq-=xjhvq7kz5CC7>>kvz5p8tGs$$",
"::5pGp-5aa4#jtxc5chGJC60085*646L78==1pxphjCG>@Hv(G=-80vG<;vrpz7,",
"pp0p<-usz::85>$@<qpjat8;-86<*804>5qppt>00xzAq<kcpz7qGx-Orr-<X$vt",
"07706qzLP5<5<q<7,,9<r8zagNn6<pS*>>ahh9>0txQqpm8<0>j<uv7-txuv-0CA",
"1<<-rac62nhpqhcp*-$$w4;v6Z5gaa0r>thvjjCt0>>l0p7>t777xhq9jJM-777#",
"vk<--,p5A8thAvz7<:-p;4rro*paVVaaqtMxGptGh9pp8HG>974tmp<qpAO4GCvc",
"u0-<AsVFaCcpWJ078<>-r458a-r0VS5;>hvxvULA1h8<tvk>8zkCaIjhj>takaGt",
"O&0;0CID9,-8;<5<ps85t8A5thk46466lYjxGattHa>p0qjzhcGu>7hhhuAhh70-",
"cp8<uqGt7*#O<9,Ag;0pcYvhg5tt,rr*;at$@uu7SSh0hO<pjhp9t7G8><5-%$mz",
"vq850u0uzzp94Ora8ch<mQFt0r8aPng6q;=$79tvk4k=,@@zh0phz7auaOX$<%JL",
"<7-mAhPUK5fc6*6z8Dh0abLJla5r0p4087>5hthmla878kO>&=-hGChz757,80aa",
"zqh5Gvjh,:6UlvSjkrIzk;O*vr5,o96r8kUGukHp5uHjk<a>=0Ouuhtmta8ltv<7",
"z7atqIYzwrSzrgazxy,,krrPSKVrwaa5-8vk$7z8-aAHz7q01575m1-adavkk07t",
"<>hL8M/A5rzn66ly46r6AAu<,pzay66:;-62w3m<-ha7jx=>h71>uzMHT,r48s*4",
"hz7t-@-,U64af5lDn4,58kPa4bpzK,64Au,3Gkhtltu<5P0@4mH01kA~kr-#,,;<",
"za80*t4rKn62n6aa4Zxp7wUa%o6gs4g67<=O@k0<tu><A0tc5-u-->8ta0;kcYAC",
"vx7rIKar6vAngppZy58<gpaf6306p8pR5pe*>%qtagf6r-;MpS244fAp5-rpgZNs",
"hSvrcgAvl6aZSQggz846spggfZs66**K056m4=>wFAYa,olgbLS5iFgaz64rAg9p",
"~cza%**rprrF^ApwzVCc~faZAg04y4a6a48Ug%.pgps,*0l8**46#4cprLp% *0I",
"vtkpw,,6a4rPKUgdbAV53**g^K6pf3Z*30Azu6w;*XpwaPu53pbr0*4-:pdp4,00",
"$uczmAUwd4*sS6e!r*4#3#*!Tfddffypkuk5lUa-+*8agg142p6d9y*4*5ar66,-",
"0,a78ku44dge*XaUS566*3g3fZZZM4p4<kk9~uqt,:6Lg01rVa*36cpgg,*w8,65",
"8--4r64rdZp,3ergy6Z4*fgfrrgfMKZput<<47*;443X#*gg0g**5pc9cp,460Dp",
"*354;al%2d446pg**pndpgpgPSw4Kf6Zwcvk55OkgAy**ppAgw*<c055aSap488p",
"4a5t8mggfZfpfap44gAAf~sp3**3yS6rAk4t;rk85~gr5n0,1<,x0pAz1**waa3*",
"-rarkda<8cPdAay<3raVpZg**66,8rpgS5k8,9crggdF8lDr5za75pgpp#;:*,5*",
"$tktctc50LLVgZg63ppgsSCp3*f6pgcgt5Naaaav516DcFZJAA00pILsp:gr55g4",
";>tar<plp046raladp*,*66s4+4pSPygGza58AArp0JNpcppxzzcCLgcp0ggp-$-",
"Sh4*a<6g6*45ggp6p8*,8p,,6*p6*8,p55<7t/Yp-8CVp8,*5CIApprqgAzg59<p",
"pAcvy*4d*,rgVfZ6*p,608af6g6oy*&rxh70zCp07tp<7d5v8,cFqr9qzczFaZFr",
"j5>rcc68pdf,6gr*+351V80cppg8VKa<xHzt6DqzpC4s*<t9Ar$8Z0--,9CzUNVz",
"85%:-rZra05r*p4Z3sgp<y,6AZV3rrasjDa99Cp0q<z8>9q<knz0Ap1pcu08Z<,<",
"-5agAcaU5w86*4AKsp8516p*;,5c9PZcFFrt75zj7tjWAa7z0%zcp4<pAU*,6p8*",
"7xAU7Kp8a,+*w,raM*64gp1pPg5ktAazyrCLp5u<<7CCAj908%usgaDQzISrpFQr",
"UFsI0raa5pAr0grVZ+pZp65pAag^L<5<-pv0t9z011--ZAh7,050<aNzD6c<p6ag",
"AxKzz<umVnKppp*86p*sgVBs0kr%g<*-uzv07<-vtz91ppzx7q0,7<6pxl<&,CZ8",
"mCAAraz0razDr5Arda45gS5*7sa58hSF510vhaACzGhAx0xt5zsq6pgV4**:*psL",
"Az8*4VSrrpzSAca6nAga0a51<;55<8,ccL>5>1GHk9<at0js97sp5:8pg4p6#sVc",
"r<9zqrjVpa9ZIDZK6F~Apv00ps4gzp4zxM9pat4<-<ah<7hjjpp5p*:<6gp:1606",
"6zgznvaAg:155ubA4vr<racZAz89Crva<ppAq7uq>hvrkJAC0vht6gagrgrVFs,6",
"vZpCj9aZN<9aazAr$uA9FUhU0r4-zar0fukAh<7xjkYzrN5p4ct66pos0tgzcpzN",
"psqzZjssztsLInAz,*a5kcc7AA*6c0g4UzHGGtcqjAcv01x0aAz;-*@6,-66$-rr",
"ppzxgag859AA58cdrp708rgrr*r350twGAvxqpv7-5sxzpxpzs--088d,0tra5aa",
",as<5c,-:p87ztvPprpca#-8a5gv78vAqhvqkp71jCCzxpv-qas89tAtphdtdX**",
"ar0p9p6557azudHvsazraucb44r7<zaA0hzh!W19splCCzht---zzcz4spDp#4,6",
"64*8p3Vaa7u4<dgzpzg8zc96428aAp<7z7jzqvh<pG8z/vvh7-<azr7AasN5p,75",
"r5p864,<lu,ta5-*-r6x0,a0t44pasa7U;hz98va7ut0h>$8jc84svAppas5,pss",
"p<:*:a8gmJDmuaa8qKAACb<#*0pAjqrwzqjvhpLhkAaE1t475q0<50ahppppBAp7",
"-05<70a08q<vp9gr5855zzCt6vrpAt-<zIIx0qCju<>Lu9zcqvpBzszaaa4p0,5#",
"q<<sJSp9pj8pq<8%*1,gdnatpAQ5>35ah4uhq1pzv4h8t7C~zzz0-><0z505-<<0",
":0pcGs00t70a5%,8rzgpr50zc5<9rk4axzttxCq7svx*-88kztps-775,845ps0>",
"qC0Nsqpps0q-$*5tg0ss0,5r884rr6;%q9-0CjGj8tptl508qpx7t8<u5;,-971:",
"95<0N~s9rczgr5p06:6:S55r;FU<0rg;5>h0qjGmk7k07aCStqt7LjjCIAFg0055",
"q<555N0p0rAFx01xCp71p,:*-r4zAr0g=<qvq11vA8<00>qatGzxJh7,wgzI55gB",
"va5095pz55px6gc9s64*#<5:5p,8Dx;8t-@190q>jkcC8*ptsa055aD55nCsp07N",
"@$0,p5pz5158,5c6**4ppp5#:vV4!L5@Lq1p0>j-<I<zQS<AC++5$5ILA9&,,N0*"
};
