/* XPM */
static char *wool_colored_white_p[] = {
/* columns rows colors chars-per-pixel */
"64 64 43 1",
"  c #9B979B",
". c #A0999E",
"X c #A39EA2",
"o c #A3A0A3",
"O c #A9A0A6",
"+ c #A7A5A9",
"@ c #ACA5AB",
"# c #ADA9AE",
"$ c #B0ABAF",
"% c #AEADB0",
"& c #B2AEB3",
"* c #B4B2B6",
"= c #B9B2B7",
"- c #B7B5B9",
"; c #BAB6BB",
": c #B7B8BA",
"> c #BBB9BE",
", c #BEBCC1",
"< c #C1BEC3",
"1 c #BFC0C4",
"2 c #C3C2C6",
"3 c #C6C5C9",
"4 c #C9C6CC",
"5 c #C7C8CB",
"6 c #CAC9CE",
"7 c #CDCCD2",
"8 c #D0CED4",
"9 c #CFD0D4",
"0 c #D2D1D6",
"q c #D5D4DA",
"w c #D8D7DC",
"e c #D7D8DC",
"r c #DAD9DE",
"t c #DDDCE2",
"y c #E0DFE5",
"u c #DFE0E4",
"i c #E2E1E6",
"p c #E5E4EA",
"a c #E8E7EC",
"s c #E7E8EC",
"d c #E9E9ED",
"f c #EDEDF1",
"g c #F5F4F6",
/* pixels */
"-7t6t86tf6,,,<0,340ri6e72pt*ttq3tpy86<7<=yaay8wyy<=a<8yya8=<t88=",
"6q738077tq7<,36t66269657tqq83,0t<<y00wyd=8w<=84w8wy<<wwyaw<qw<ww",
"ttt66t6<t,<,,,0t60063>50wttet4qp7<tt<4qy<84<8844<8=ww8ayyqw<<8wp",
"yq7,,8q&6tt<ty3,66u6550u0053tqtqwt8qyty6<wy4<48y<w8ywywfa<<<<yaa",
"yidqq,,<,tq96t,,2qri945w,3052et7ww<wfypw4<y8=waatya8<<wwyp4<tpfa",
"0tttt@.Xq894,#,,45y64q2:w590t-t0<atwq0y04888a8<aw<ay8<=<48yw8t8<",
"<6876,6tq79,,<,9e>*$4997te73e470<<w<<<yayw8yywww<4tww8<4<<<48w8<",
",,7,&6677tpq7tq686<que807,,00,<tya88<tww88<wy8w88yw<<8<=7y8w<<&=",
"<,<,87<77,,,8qqwpr6wr85rrq53u052<<ty8=<ywwy84ww<yp7<<wyt<q78pw=&",
"<<<qpw,<qq,,qqtt3rraay57773:525a<<<=<qwwwwyy<$yyfy=;78wp<,w7qw<<",
"wq78,,8wt,,9<<,@<80rw87,>65<=682<<<wq8<q<yyy8<wyqw78yy=@87<<O&yq",
"8<78<8tdp,,4<8<<,<7384r0ruu52qu:<<www8<<wya88a4<8<t<8y7=8t7w=8yy",
"<<<,8wt<,ywqqwtq=>=$63=u2u3req80<wqywwyq8<<w4w<<8<88tq87way=<7<&",
"yw<,,,8<p<8wpty<2<>0:368O=0euu0q88ywyw8aw<8w<ya<<8<8tq<qqyO<ayyt",
"w<,<ptypqyy8fd8<72<>8356q>87ui5><wyyyaay<w8<wyw<8wtyqpwww<8qwwp8",
"@,<,<ypp7,,<,<7<0e6505i58er25255wawyyw88aw<w88wwqtyw<7wwqqyqw47=",
"yw8<w8y85;$@26,pe,7qrfyqr688>66:<88=$8t<yy080@<ww8w8q<a<<<<,,$tw",
"y88<88<qrrq4<@6e4tw<ydi0696edur68<==<60tw<w=<@@ww88wy<wqw&.,,&pa",
"<<<ppwffp5er4=5r6iw7qraaeq598026<<<<t8wyw8<88w@<===wpyww<<8<<8wq",
"w8w<yyww,,5druper8dre>+=u95,O669<tap0taw<0awr<0;=8@8wy<yww<ywp<<",
"i<w88dfw96ar9eeer8,2e77puuu970e5<6yw=8w<<0yyw7888<8<y<;wq8ttt8<w",
"<<wa<afy56rr55e72576iiq<,9ue955,<=<<<<y<<ww<wt=<w<<<8yypp,8<<y,<",
"ty<q,&,,s52905epu2257ea05reru25,y8<<p0www8w<4a8@<ya8<wyfw8,#,<<<",
"tq7<,w<<uu5,u7ee2ur057aq*+2re2e5<<=O$08<88<<y77r<<8;<<<ww6,wwdii",
"yt<8put95tuue00u9562e9ee2,55e59d88<=<=880w028,;y0p,220t0<,0ttytq",
"wpi0ttutt5eupduee626e0ueuue65>:u8<<y<<<8iidq2O0qept50uttt817tq7q",
"fttq*::7997pfpe9ruuufueuur9292e5w<8ar=.8q0e1:6e6*:,2*1t08pq& ,7p",
"i0w05,15e17ppseeruu5:%1efu79e2u:<<pw8<<<:o960a0527t77>1,,8t7,,97",
"&8tttts9e2:ep36d0:2%1%1ssue9ee99w8w4raw=#>7ett21107q99:111q9411,",
"8,t65tq12qe5*X9sp555:2e2euuuu295<ww8f8801>2pe927te,15t0tt,197,64",
"6,,47119eu9,199e75i5:uee79eeuuu988<<<4=<,22X%:et9r*:30t5t91119p9",
",,<,,qt:1e3359e1:0u09e9eii92se5u6tyr64Owti7:-70ut3-1t755tue06770",
"2q200teeete0u9011euutfqq1,*19p67yw38>8w4<ft0,i7,,,,i7qyt,,,1qq,,",
"=0r0eww25tseue9119qt9ue,,551790qi4w6<6y8wyqp6tp97tq660wq1,,,,,,,",
"*0r0t0e59psutut51q9tqpu9,*u10ett8<y0qw8y,,<ptpypiy97qpprq,t9,,e,",
">2qe62qee51699t0tq11,16q1+19ps7tatw34iy8q8dtqt0qttttypwt97qwq,,,",
"pr3*q,5t5:26t00797,,571,7,71,1,q6<<40fd0,7ytq7,,,isp0078eytw17,q",
"qytr7:2q:>7ettt5161177qt1u1%7,*7yw67ty08<8w,<w<y7,tp7078tetptpp0",
"w628et350ee>1q7,%155u77t09t7tuq,yyy85y8twt<w,<q<i7,7p7,,,7yespyt",
"65:>,0i0e657,91t,9tq17,7uut197qtyy067y078<t7<7q<tt9<i8,qtq77y,,,",
">5qwirqd5675,,ust973157,,,1t7pttyp80<<yy<qtapq<w,,wtq,,wys,,,97,",
"6ypd5i06q,%-5,79t,65t040pt4t0u0t88yyw<w<<7yypw87,,0qq0psespq0ss6",
"dpqd89rq50t97t7tt%7uq46ttqqdp15,=0y8w8w7<<,,yyt<,067,wttp,t,q,wr",
"yyper20tttp0901557,0tttq7t9,t,,,0wt8<<,y0y<<qwtt600,8,40rw,,,ii6",
"tyit0qe07ttu72t7t015tu4,6t016ttt<48yq8ayypwyy<t8,tq8,qtt,,,,,7qp",
"ie7;2yi088ttitt5tttt594,,,16,71tyy<<<<yyy<<q00tw07w06,70w,w,,9tt",
"028t70wu007tdptp1pft0t79qt,ttt3tty6qwq<<<<qw<<twwqq3e,,,,r9,,676",
"5teeut0it,5270tt3t9,7tttyt73t7t0<qwy8<w8<wy8tapy7tw0,wwr7t7psr,1",
"ti0ut5ttt<4t0tt7%7i7pstp791,t0778wwyw<4twwdw8y4q3t84,7+q78qwy7qt",
"qe7tttqqtqtppttt,,06ttt7ty,3t7t1fwayp8ywwpwy8<t40yw,,,%4,,43,,07",
"0etttqt6<6tp37t0006947007,6,3777yptt8wy<<<wywqwqtw,,777q,787017q",
",qe,,t,,,t66t8ts000t0,,1q,ty67tt8wt8wq8<wyywy8t<7qq378y8qq8qq ,,",
"07507q45638t80pte0t7w9ty,,76,tty8ttwfa<4w8wyyww8,,,twtw3t7yq,3,3",
"72,60,tqq30330ttqqq7et713,3tyq,4w<ww8yw<wp4wftyw3,,qw84yqtt37,33",
"76035<,<t0,002:-,97t7,199,,qqq94p<wt84yq4888w<=8qt43qtyqqqw3,0tw",
"82,,,07ttppt0t879iyyyt,,,6tyt777w8wyqqpwwyqa<8<<377,37wwqq7qyyw3",
",87,67t767<t07t7716,ttiq4t8qy8,<wady88yw8,<pq7wt8tqyywtwqq,q7,3&",
"8<<qpi978t7q833*,,,tqtw0wyd4<<<qw<8w8<qtt<w48<ydwwt7,,,8t373,,37",
",8qtpq0907705*,5qwwq9,qrt<<88w<8yy8qty8<qtw,,77wt8qq,<7<,6,38q7,",
"qy7yq800q87,&-4qw9wt9,67<7<8q<<&q<<4ytpy48q8w<748qt4q7,8,,,,743,",
"<<<wtft70ttt03t6,,7,s<68<ad<78q<<<w88wpyq4w7<wyp8784pwtppypw7743",
"q<7<3t6765tpt7,tpe6,w,,,,7<tyq8q=<8p7<<ty7<88,8qqptypw<,6wwy43wt",
"t7<9348t44qt4tt70,,,,,,,<q,7pt<<8=@<8<8<wwty4,q8w874,qp44yt8q74t",
"%,7,t60t6,46,5t5,,,097,,,yp,fa<&a8<w8<w<<a,wat,py&#4,<ppp6,11w7,"
};
