/* XPM */
static char *wool_colored_lime_pn[] = {
/* columns rows colors chars-per-pixel */
"64 64 43 1",
"  c #27901F",
". c #2B9423",
"X c #2D9C25",
"o c #2F9D28",
"O c #2EA127",
"+ c #2FA428",
"@ c #2FA929",
"# c #31A62A",
"$ c #33AC2D",
"% c #35B12F",
"& c #36AE30",
"* c #39AD33",
"= c #36B331",
"- c #39B634",
"; c #3BBA36",
": c #3CB738",
"> c #3DBD39",
", c #41BE3D",
"< c #3FC13B",
"1 c #41C23E",
"2 c #42BF40",
"3 c #44C542",
"4 c #49C645",
"5 c #46C945",
"6 c #48CA46",
"7 c #49C749",
"8 c #47CC48",
"9 c #4ACD4A",
"0 c #50CF4E",
"q c #49D046",
"w c #4DD14D",
"e c #51D24E",
"r c #4ED251",
"t c #53D553",
"y c #5ED655",
"u c #56D856",
"i c #59D955",
"p c #57D758",
"a c #59D758",
"s c #57D95A",
"d c #5BDB5A",
"f c #61DD5D",
"g c #6AE467",
/* pixels */
"#>3>5;;8s;$#=->$--<88;<<%tq@59>-8rr>---=#0f01111q,O0$-55e1+;1<;$",
";<>-<2;>71>:=-;1;;-;<--;<3<<=&19:*6>>11t#,1$$,,1111=,115i1=<3$3>",
"881;>5--5$:#$%<1;;>;=$-<38537-1s:&65-;46%,,%,,%,,,$461998;1$%>1w",
"81;$@><+;56=58-=-;8;;-<8>>;;818335>3359;*,6=*,,1=111181it;-%;8tt",
"8qr11&@-=3<>;5=+=<38<;-1$;>-%19>41;3p9t3=-6-#4ee11e>;&,799;=<eut",
"<3933+OO31>=$O$$-=8<;1%$3:<<9@1<$02;,20,-,,,e,-y,,e1,$$%:;51<8>-",
"=>>>,=:1>>>=%=-13$$@=<<-33;;3:>>-;,,#-0061169111,,1,1,$-:=:=>3:%",
"$&>@+:;:>5r>;81;>-%18<;1;$%<<==357,:;733,-=,61,,=61,%,*#:3:3-=O+",
"=$=&>-%-;&$=111195;15<;13<=-8<;%#=,4,@#6119,,,1,66;$%101=<:,r1#X",
"$&=1w1$:31=+1,66=61ww6;;<;-@==;t-,#+%,611190%o04ge$$-,60=&7>>5:=",
"1,-1=$,13$$;=&++=><11<-%@;;=$;;=%-,,11$>-51q,%1411-101%X>,$&XO6,",
"--->->3wt==-=,&=%%;%>;51<88;=<w$$%111>$;18y1,6,=;&1%1e-$>5,7#>89",
"--&$><8:*611,161#$++;%$8;6-3<1;<*,16116>;$$6-1=%,--,61,-1t0#---o",
"91=$$=<:9;>1961--$$1$:>>O@<188<1,,04e11w1-,1-e0=--=,9,=;,0#=w986",
",,$&636w196,tw,->%%$>--;1$>;8q;%$1968i09-1,=161=;11q3t135$,111w,",
" +,%>6rr;$$;$=--11--<:9;>35=;-==1i16e1,>e1$1,-1616e1$-511,914-,#",
"11-%1;11;$OX-;$w1$;16u811;11-><$$1,+ ,1-00,,1X=1611->-w;$-;$$+66",
"11,,,1,133<-&X>1;81%6pe>;<-1i51-,=#+-,16,,1#*Xo11;116-111O +&+we",
",-$1q1eiw:36;#-5;93>19tw51%<;<%>--$-11164,,=,1X*##$19911;%--->11",
"111-qq11$$:t58w15>t31$X$5<-%@-;<,1ie11e,=,t11=,##,o115,611;115--",
"5-<11ei7<;w3<<<15<%%5,>eqe9<<<1-#,61+-4;*1001,,,==--0-$133811<-<",
"%%1w-ed9->88>;q<%;;-991=%131<-;%&#:*,&6&$1,,44+&,,-#1100y$1=-1$%",
"1q:>$X$$t;-<3;5wq=%->1e1-5<1w%;%02$,e3,,1,,&=t,o*9e,-5qd3>$+$%%%",
"5<;;$1-,wq;%5;5<=951->i1@+;51=1;;=##o1,=,,%=9-,6=$,#$$;11;#56uq8",
"55;<tw1<-8qq5<<q<--%<<<5-=;-<<;i=,,#*#,,233:>$&919==;8w<-$<<3q8<",
"1w5<8<qq3;<8ws111>%;<<q55q<;=%@w:-:4=#*>t9s,%o719we=1q1<5;-;q1><",
"d55<@@@<<<<wdq<<18q8sq<qq5<=<;<-3=,t1%.>3>3%$;7;#$=:@=5<>w<$ $>r",
"q<11;%%;<%<rwu<38q8-%@=<sw;<<=q@*:931>,$@X<>1t,-=,8>;$=$$<1<=%<;",
"+151qqt<1-$3w:<s<%=@%@=ui5<111<<4,1-6a1#O%;135===;>1<<@=%%<<;==@",
";%<;;5<=-1<>@@<tq--;@%<-15qqq<<-$45>d,>1%$=w1;=;81%=;5<<<%%<;%;;",
";$$-<;-<<q<%=>><<;q-@8<3<<1<qwq<,>%==-$$%==X+$18;3+$;<1<<<===<9<",
"$%-%$<1$-1;-;>3%@<8<<3<5tq<;e1<q;883;-X159>$@><95>@%<<<<<q<<=;;<",
"=<;<<8135q5<8<<==3qq5s<<=@+=<9;>95=>$,1;-s3>-9;%=-%8;<q5%@&;<<=@",
"@<<<<5<%;5r3q<<%=<15<83%%>=%;><19-3>$>6>183r;5w>=31--<3<<@&%@&;$",
"@<<<q<3-<qw5351;=<<1<r81%@5-<555>=7,<116-=:95w8rqq;;<tw31%5>=:3=",
"%%<<<%<5<>%<<<513<%%$;-<-O;<qw>8r51-;w9>>>r813<183558r35<><3>$@@",
"q5%$1=:5;$%=31<;<;@%=<=%-@>-$;=>;-&;<fu>$;69>;$$=9r9><>>3951-;=<",
"<858<@-1@$<5858:%<@;>;15-8-O<++>71-;881>:><&:3-6;=89>>;>353r1qw<",
"1-%>55--<15%=3>&@=;=8>;8<<3-8w<%7e5>:9>5,6=1$%>;9>+>w>$$=>83r883",
";-@$%<8<1:->&>-8%<5<%<$:988=<>311w1;;6,;>=5;%;>%383>9>=<8>>>q=$=",
"%-33q61t:>:>@=8r<<>==->%%%-5<rq8wq>1--53=<3tq<;5:@882==19t@=->;$",
"<1qt;r<;1@O@:=><8%;=8>%<t3-1<q<3,<8r,:,==:8893;>:@2<219t5rr>>rt>",
"ew1t>>11;<9>>3>58O<8<--<w<1fw%-%#,6->;3>==$$991-%:->-2859=7=<;15",
"q8w35%1858r<><=->>%<3883;3<@5%$%146>-=$6>3:=<138;>;%:=:<87=+=88;",
"88w8<13>>15r<=9>31=;38=@-11=;1e9--,61,9989568;5>=51>-<58:+@&@>3r",
"w5-$%89<<<3988<;8q11<<;;=%-;=;%770&-=-903;$1>>51>=1<=&=<5=1-+385",
",%>1><18<1;8rw8r>8s8<5<;<1=38<=546,,,,*=$=33&:135<<;<&&&=3>&=>>;",
";151881q3===;<89-8<%<<5885;;8>6<=1,6,-1,%36>5r96>8<<-315>3>8r<%=",
"q8<q1>198=;<358<O<8;wt1i<<-$3<>>1,191=-551a5>8:,=8>:=>+<>>157<75",
"11<3q33<5<39r893%@1;151-q8$-8>3-i5ew9,6>1948>=5>283=$#$:&$:>+@>>",
">155315;=>89-;8<<<-;;<1<>$>%-;>>9964,17:$-185>6,83$$>>>3=;>>2-11",
"=11%=5&@%<:;5<qt<<151@%-1-18;;89116,11;=59818>6$:11;;>8><33>3.+$",
"3>;>;<:-=:15<1w81<8<1<38-=>;%819;151pu=;1,88941>@$@5385=3>r3@-&-",
":=$;<=531:,==315111;38;>=%;39>%:5;14,6,=>w;4f071>@=15>;9115->&--",
">:<-;==&5<%>1=$$$>;5>$<>>=&><31-u$35>;61-,,;,=#>18;=178>113==<33",
">=$$$3;38ww6,31;>ew988%@$>193>,>5;36,1e157,f=,==;>>&->31<<><88<-",
"#;-=-;1;;>%51;1<;;;=53q<;8><9<$&3tu8;,61,=&t,,57>8<8513<11=<>==o",
",==1ww1;,5-1<%-$@-$338<<19t-%$:31=,1;=,87=1;,=6d353>+==>5->-@=-:",
"$><8w1>>>-<1=+%-<13<<-<35-=;>5=,53,>66,-166#$;,,5><<&;;=&-==<2>&",
",8>81<<<1>>$+$-13;31;%=;;-=>>=$$,;$;64q1:,,,4==,><5;>;=2-&&$>-=&",
"-%-<5d1;<853<%<<-=-&q=-<$wt=>>3$=&,,>1992;3;-189>;<-r158rr98->--",
"<%-%-8><;>qw5>-18<;=<%%@$>=58<>3#=,9;--60;*>;%<1<w58r3==:33r--38",
"91-;-->5-;<3;15;1;-$@=-%;<%;98&:,#o-;;,$3356;#>111;--19:=882<;-8",
"O+;%1-13==-;%;8;$#=<<>%+%58%sr=#0,=,;$5#=t&7p0-98OO-+;rrq:@%=5-$"
};
