/* XPM */
static char *wool_colored_yellow_[] = {
/* columns rows colors chars-per-pixel */
"64 64 100 2",
"   c #8E8C05",
".  c #938D06",
"X  c #938D0B",
"o  c #949206",
"O  c #9B9407",
"+  c #959309",
"@  c #9A950A",
"#  c #9D9B0A",
"$  c #9F9A11",
"%  c #A19E0C",
"&  c #A29E12",
"*  c #A5A30D",
"=  c #A9A50E",
"-  c #A9A90F",
";  c #A6A412",
":  c #A9A612",
">  c #A7A913",
",  c #ACAB14",
"<  c #A7A31A",
"1  c #AAA61B",
"2  c #ADAC1B",
"3  c #B1AE16",
"4  c #B1AE1A",
"5  c #AFB017",
"6  c #AFB01A",
"7  c #B1B117",
"8  c #B4B31C",
"9  c #B8B61E",
"0  c #B7B81E",
"q  c #B9B91E",
"w  c #ABA625",
"e  c #AEAC22",
"r  c #AFAB2D",
"t  c #B2AE22",
"y  c #B1AE29",
"u  c #B5B423",
"i  c #B9B623",
"p  c #B7B823",
"a  c #BBBA24",
"s  c #B6B42A",
"d  c #B9B62B",
"f  c #BDBC2B",
"g  c #B6B531",
"h  c #B9B733",
"j  c #BDBC32",
"k  c #BAB63D",
"l  c #BEBC3B",
"z  c #C0BE27",
"x  c #C0BE2C",
"c  c #C1BF34",
"v  c #C1BE3B",
"b  c #BFC02B",
"n  c #BFC032",
"m  c #C2C12D",
"M  c #C3C334",
"N  c #C8C637",
"B  c #C7C837",
"V  c #C8C835",
"C  c #C5C43B",
"Z  c #C8C73C",
"A  c #C7C93B",
"S  c #C9C93D",
"D  c #C1BF40",
"F  c #C6C542",
"G  c #C8C743",
"H  c #C7C843",
"J  c #CACA44",
"K  c #C5C449",
"L  c #C9C74A",
"P  c #CDCC4B",
"I  c #CDD146",
"U  c #CFD14D",
"Y  c #D1D14E",
"T  c #CECD52",
"R  c #CDCD59",
"E  c #D0CE54",
"W  c #D1CF5A",
"Q  c #CFD051",
"!  c #CFD059",
"~  c #D1D254",
"^  c #D3D35B",
"/  c #D1CF63",
"(  c #D5D563",
")  c #D8D665",
"_  c #D7D864",
"`  c #D8D967",
"'  c #D7D56A",
"]  c #D8D76B",
"[  c #D9D96C",
"{  c #DBDB73",
"}  c #DDDD7A",
"|  c #E0DF7E",
" . c #DFE176",
".. c #DFE07E",
"X. c #E1E17E",
"o. c #E1DF84",
"O. c #DFE080",
"+. c #E2E284",
"@. c #E4E38B",
"#. c #ECEBA4",
/* pixels */
"* i S j J a q E | i > * 4 7 f - 8 8 n T Q p B 0 7 [ R * G ^ n 7 P ( ^ z 8 9 9 3 = E | / E 9 N E E 3 = ) 3 9 v Y ) x % z c c z = ",
"i m f 8 z M a a T M j u 7 u a M a 0 7 d n 8 8 f A M M f 8 , M R s y W m z m Z [ = z x 3 1 z 4 N x N Z r c Z v Y } Z 3 x v 4 v z ",
"P P C 0 j G 8 4 L , s & * , b C 0 a f a 8 > 9 b Z T G A H u C } h 1 T S 8 i G E 3 c t 3 k v t d d z = L L x W E Y 9 v 4 3 z v ) ",
"Y B i 2 : a M % f G T 4 P ~ 8 , 8 a U u u 8 n P f n 8 9 R n R F F G x N Z G T z 3 N ) t 4 z c E t v N Z v Y c o.) z 9 = z Y [ [ ",
"U ~ { v c , ; 8 , H j f i G 8 * 6 M S P b u 8 C > u b 7 8 F Q a D D z D o.( ) D 9 9 G i 1 L ) ) v G ] z z 1 x W / E 8 8 c ] | | ",
"M G ^ A C # X X Z m j 8 * % : : 8 8 P f u M 7 - F d f b T < B M z D D z c v ) x 9 x z x ) z 9 { x c ) G z 3 = = z z J v z D x 9 ",
", d f f l 3 i Z M i f 4 , 8 u M C > ; % 8 M a 0 S S p p C h f b z z v x % z ) ) E c z E P v v L k z N x c z = z 4 4 z 4 c D z = ",
", , a : % i 9 i f P ( m 0 T M a f 0 2 M P M a M i , , n f , e L D D z z 9 P G v z 9 9 x E c c v t E c 9 1 v t = 9 L x v 4 4 % % ",
"3 : 3 3 z 9 3 9 i 3 , 4 M M M N ^ J q V S m u A S M 7 8 P n u 5 : r v D x 1 = E v c Y x t v L 3 J E 9 3 3 D Y J 4 v x x / v = % ",
": 3 u v ( m > u C M 4 # C f J T t L M ^ _ T i f p a 7 * 9 5 d ' z z = = 4 c D c N N E ) 3 $ ) E #.^ = = 9 z P ^ 4 w R v x D 9 3 ",
"x x i c 4 : c C Z , , f 4 3 & % 4 x m C m x q > - p a 2 * p a u = 9 z x x z = z z Z J E z 4 D E c J z z ^ P = O x v = y . % P c ",
"z i i i u z Z ) { 7 , 7 4 x 4 8 , , a 4 z a G M A J P p , M ~ - = 3 c v c z 3 z z Y | z z E z 3 z 3 v 3 x E 9 = x G v D 1 z P E ",
"4 4 1 : a M P g w T C c x N E x * : % # d 8 > P u R 6 H M m a b 9 z c E N Z E z z = = Y 9 x 9 3 c 9 9 z J v z 9 v ] / : 9 z 4 & ",
"E F 3 : > , M u ^ i z N W J G 9 4 , , x 1 s h f O ; m B U P M M x x W P ) c z ) v z c v z ) ^ 3 9 4 4 z Y c 9 z x / O 4 W E E D ",
"v d : 3 U S Q ^ M T P z { ' f 9 a 7 , - a 8 9 8 C * f i U ! u 2 3 v E Y Y { ) E 9 c z 3 z D P 3 z v v E G [ N N J 1 c v N v ) x ",
"% & i 3 d T [ ( i , : d 1 4 8 4 M M 0 8 m u ~ u M Z S 7 0 t 8 u D | v Y ) c z z / v 3 x x z v G x P ^ x 3 9 N V m v ) v G t x = ",
"J c i 3 m z W c p 1 # O 7 d 1 ^ S > a m T { Y N A 8 c m 2 d a ; , c z % % v x 8 ^ ) v z v O 3 v J D c z z 9 ^ i 3 3 u ; ; # W S ",
"I z i 8 a v f M A A M 8 e O j B u P C 3 E } ^ f a a i M [ Y A u x 4 & % i 9 x E G t D & 4 O % D v z x N S i M M M O . % e * ( ) ",
"3 8 : E ~ N ' { ( 8 F T d ; u S i ^ G a M Q ` ^ G B 7 b f b 7 p d d 3 8 v x z E D D z 9 z v O 1 = = = v ^ E N Z q 9 u , i z M C ",
"G z N 8 ~ I Z C > , s [ H J ^ B S j [ A F - O > I b 7 > + 0 d l d v | ^ c Z ) c 9 D ] v J 3 v 1 = x % v c G z W x M u J x P 7 8 ",
"S 9 m x z ` | G b g ^ H b M M A J n , , H f f ] ! ( U b n n n 8 & x Y G % 4 L d 3 v ^ ) G z x z 4 z z 4 E 4 = v C K J S C a 0 m ",
"4 3 S ( a W @.E 0 d P P s u P b e p a 0 ^ Q B , 6 b J M b u p > , & y r v t W 3 1 v v 9 Z J % 4 v z 4 = c D W ^ { e f 7 i M * t ",
"B S 8 c : # : 1 [ s 6 n n p J ^ U 6 6 9 i B ( M 6 P b S ^ 6 u 2 E v 2 w ) D v x D x x 3 9 ' f @ w W ] z 9 Z E o.F f : # 1 4 , 4 ",
"S M a d : f 8 j ( Q 0 6 I p M B 6 ! J m 8 f { M * + u S B 6 H 0 z 4 & @ % D z 9 v v 4 8 ^ a j T 4 & v = : 1 z x M f > S P { ~ I ",
"J I 9 z ` ^ A f p P Q U A b b Q n 0 p 5 B b n A 0 e p 8 b 0 b  .4 c v & 1 % x c C K K s f , w R n ^ e u u K ~ m 8 > b M A U J M ",
"A ^ T f P A Q I H p B I ^  .A A A i 2 0 n b J A P Q A 0 5 > > ( x 8 t J 9 % w x ( ~ } M , + K Z R ( ! 6 v ^ A B S 0 6 d ! V i m ",
"+.J S M & > > b f b d _ O.^ b b A U Y J O.U n Q Q H b 5 b u n u v t x | v & . c K j C 5 * i L p * ; e u # u J b f ( m ;   - f ` ",
"U z Z M a > > 8 M 6 f _ _ [ A n P U P 0 > ; 5 n O.( 0 b H 6 Q > 2 h W D D y x : ; o b d C { j u 6 j T f p ; 5 > , n B b 2 , b a ",
"% c J S ! U [ b A 6 * A ( g j  .f > 6 % e # 6  .[ S n n A I b b F c C u L | c = # > p C G J 7 5 , b p C a n > 5 , 5 M b 8 6 5 , ",
"f , M 9 i A n 5 6 A A h ;   n  .^ 7 6 p > 6 n 0 A I I U U 6 b 0 1 L F a o.c z z , , 7 _ A a 7 a U C * 6 0 J m A V , - p a 5 u 5 ",
"0 > > 7 b 8 6 b A Q b , 6 b p n b p U u > I A n b b B H Q ^ I b v x 3 7 t u & 3 2 6 2 o # > C H b A * > 7 m J 0 A b 5 5 7 b ^ b ",
"* 6 9 7 - M J * 6 C u 6 0 b H , > b I n b n n A _ U b 6 ^ A 0 Q d P Y C 8 t O Z J ~ f ; ; f b ! S g * 5 J a 9 0 B ^ V b 7 q 0 b ",
"8 M 9 m a Q B A J ! P b I n n 6 6 B ^ Q J  .m b 6 > # 6 b ^ 0 p ^ Z 8 f : j G i 8 O.S b 7 R a , 7 8 , J f b ^ S 7 * 2 d b m 5 ; ",
"* b m a B B M 5 0 J _ M ~ b b 5 6 b n J n Q S , > s p 5 0 b b A ^ u G h 3 i P f Z L n ] u P ^ b 8 S M q 8 b A b f % 2 , > 1 9 - ",
"% f B b J b A 8 p _ ( I A I B p 5 n a A M ^ Q n , ; I 6 b A J P f 8 L c M M M T 8 6 u ^ J _ Q ^ ~ ~ z i m ` ( S C > G f 9 8 Z 5 ",
"- 5 b A f 7 M A M p 8 p a C S M A b 5 , > p p n 7 + s n ~ _ j H _ L Z 8 i ^ R f n d ] P C H b M J S J J T _ Z J n f C A f * * * ",
"^ A 7 ; C 2 u J 0 - 5 7 F M n p b p > , p j , , p , f u ; p 6 n 9 t 4 i m @.{ M = u ^ T x i : < q E { ~ f m f b Z ~ S A 9 p 7 m ",
"m Y J P j - e F * , j H P P U 0 5 p , 0 f p C J u J p + f < % j L N 9 a G Y c f i x x 2 i C i P 9 2 P ^ a m i z S P S ( M Q ^ b ",
"M q 7 f G P u u n C H 2 u F f > # 6 7 7 U a i P n f H p Q ^ M , P ( J x s ~ a P c E 8 M = 2 f q ^ j % f ~ f , - 4 i T F { J P S ",
"0 8 * , , f Q f Z p u f > n 6 Q 2 C A M 6 f , p ^ Q P , f f C A C ( M 0 i T M i f 7 G a 3 i z 3 F P F d ~ f 7 f J M f d Y 6 , 7 ",
"- 8 C C ~ P M [ 8 j p p > e ! ^ M n f 7 5 u f , , 6 8 J i [ ~ J ^ ( f m 9 9 F G 8 c G { ~ m q J f & L P c 4 , M ^ { : , 8 f a > ",
"a S ^ [ 0 ( M a C , # * s 2 j C ! 2 p 7 J f 7 b [ C 6 A b ^ M G v f P ) v 9 c 4 3 9 Y T ^ C 9 f u * v C F C ^ } F ] ( f f ` { f ",
"{ ^ M [ a f B M 8 b ~ n p H f P P # j U V 0 0 m ^ M M @.^ 7 7 7 < c P a c 9 G i 4 4 1 = W ~ N q , i u f 4 C P J ^ g L 6 C 8 C S ",
"~ J ` J J 7 c P P P ( n n n 5 7 s f 5 b B J P C a B b & G 5 > > c G P z 8 4 : E c J i 8 f C Z P i f a , i 2 i M L L 6 ; > U ~ i ",
"T U ~ P x m J f a C H ^ b 7 ! j C M 7 8 S ^ 8 * i B M u q A W ' u 4 x P v v ^ W J W Z W P z S z 9 S Z f 7 c P P u ; > , * j C _ ",
"~ J i - , T ^ m j j J ^ ~ J M u U ! S C a n d 7 7 > 7 p 3 i , T P ] 3 t 3 8 W ^ G i 4 c c i G C i 0 B x 9 , 8 j F 2 M u * C P J ",
"f 7 i J f f B P M C 0 ! [ ^ U ( g ^ @.U M U i a b V 2 Z G M 7 F P E z c v v 4 4 3 4 v Z 3 9 C Z Z M m u j > , 4 u K j 2 u u f i ",
"0 J S G Q P m ~ G , 7 5 0 M P ^ 6 P b , a M J U ~ J i d Q f T M 3 c x E z t v x : N T z G ) W P f P M f u F Z H d F f T ( M , 0 ",
"P Q f ~ B q B ! P 3 0 M B S ~ f # C T i ^ [ B { a f 8 * J M f a J x v ^ v 4 z G Z Z | G x P 8 c 4 P j u s c + M f c F F P b J P ",
"b C b G ~ S F M G z C ( ` T ^ H , * M 0 A I J 0 ! ! * d J d F 8 { Z ) ^ ^ x L x Z ^ J E x 4 P x C R H 1 ; ; # i > : u d ; ; f f ",
"f M G J A M F 0 7 f Q ^ 7 f P M f m 0 a i b C f f * j 2 u a a f ^ ~ P P z c P 9 : 8 c P Z x G c J C > : a a d C 3 a x d F 6 n C ",
", C Z 5 9 G 2 , , m d u J f U [ m b m J m * - p C 9 A P u a P ~ c x P x Z v i 4 G W E Z P x E : f C Z i q f ~ c x Z K c C X ; 1 ",
"Z h i z a M u 8 7 s v J v C ( P C m P j C n J P e 6 f 8 7 J c ( z c G v o.| 3 d c c L P E L Z x = = * J G P P 4 A f ^ C # 8 , p ",
"a 6 > u C 2 P C C 8 C 7 3 C F Z M A Z 8 H J p d 8 2 u B R C 4 8 J z Z J x Y x 3 c ( x L o.T E v 8 = 4 F J f u E M C P 8 f , u u ",
"f 8 C q u 4 e 2 G M , m C 8 , * - f a J f > M a j 6 2 M M C F q | 4 v S z 9 Y v 8 c x i c 4 % i S T i 7 Z P ~ x M B G 9 , j C S ",
"f 4 > : : C i Z T ( ^ Q j S M i a ( ^ Q U P 5 # > d M ~ M z h f v z Z Y N c ^ G Z W v o.4 c t u 8 f a 2 s d M B m f a m Y ^ M 8 ",
": a 8 4 i a M a a f 3 J M a C f i 0 u 8 G G J m a P x f E x : 4 Z [ | Z z x E c D 3 3 ' v i G T f T M P J C Z M B c t M f 3 t $ ",
"a 3 4 Z ` ^ M a j Z q m x 4 u * * 7 , A C U V m m ~ { 8 3 4 u Z x 8 c c z 3 x P Y 4 N d v u E o.Z J G a : , 4 f P 7 f 4 ; 3 3 d ",
"3 a c P ( C z a m 8 f M 8 * , i f C J f f 7 b A J 8 4 i h Z 3 v P v c x Y E z 9 v W J & & i d Z J z x B : 9 q 4 e a 4 u x C f , ",
"x P a P Z a f m M f f - % * u M S a Z C a , 8 f d d 4 f x 9 2 & x z 3 x P Z ^ D i c c x L 9 z i z x P i z q 4 v 4 1 , : i i 4 , ",
"9 7 7 f J +.C a b P H A f 7 m a u , 8 , ^ 8 8 f > ( { 7 x x v 3 4 1 D z z v ^ E D i Z i 8 F P ^ z a x q ' C Z T ` ^ ^ G a f 8 8 ",
"z 7 8 8 8 L f f a d ^ _ J f 7 J P M p 8 b 2 5 - = f 7 G Y c x D 1 t x E z 4 4 E W i 4 x f , b M x ( Z P ( Z 9 3 d C J ' 8 8 G E ",
"T C 8 d q 9 z S 8 u M J u C J a B 0 e , * , 7 , 0 m 2 p E D 1 x c & O 9 z z x 3 G G L T s & z x M C a 9 u C ^ q 8 E R C c a i L ",
"# % f , M 9 M G 8 7 7 0 , 0 P d * * 6 n n f 7 % - J U 6 o.] 4 O ] v 4 x 9 3 v = 4 [ 3 P | ^ 4 ^ R # O 9 % 8 ` _ ~ i = , 3 J i : "
};
