/* XPM */
static char *wool_colored_brown_p[] = {
/* columns rows colors chars-per-pixel */
"64 64 46 1",
"  c #3E1601",
". c #411701",
"X c #451A03",
"o c #4A1E05",
"O c #4B1F08",
"+ c #4D2107",
"@ c #4E2109",
"# c #53250C",
"$ c #56280F",
"% c #58290F",
"& c #542710",
"* c #562911",
"= c #5A2D14",
"- c #572E18",
"; c #5C2F18",
": c #5D3017",
"> c #5E3119",
", c #62341D",
"< c #65391F",
"1 c #633720",
"2 c #663A23",
"3 c #693D26",
"4 c #6A3E29",
"5 c #6A4027",
"6 c #6D422C",
"7 c #70462E",
"8 c #6F4531",
"9 c #714631",
"0 c #734A34",
"q c #784E37",
"w c #764D39",
"e c #784F3A",
"r c #785037",
"t c #775039",
"y c #7A523C",
"u c #7F5A3F",
"i c #7D5542",
"p c #7F5843",
"a c #815A46",
"s c #845D49",
"d c #86604D",
"f c #89634E",
"g c #8A6551",
"h c #8E6955",
"j c #916E59",
"k c #9C7A67",
/* pixels */
"o=2:3=%9s=@o##=@#%,60*<$#p0o30>@8w0;##%@O9se4%149#Ow#%34e1o%,,%O",
"*,=$;,%=9,>&#*=1=*#=1$#=<,,:#@10--9;=,1aO=,#%;&;111;;2,4i1#;1&1;",
"641*>3##4@=Oo#>,%*;*#+$:29223*1d;#63%;44#;&#1,=1;;O441994%1%#;1w",
"6<*#O=,o=30&46##%=6*$$16>>*#8<9223;,234=@1w%%%;4%111141si%%@%4ii",
"69i11@O*#2,;*3#o#,26,*%<+*:##20=44=2sww3##4;@4ee12e;;#;9w4%#1esi",
">39<1XX.1,>#Oo@O#*4>$,#@3::;8#,>&42=,2w;%;%;e;=i;,w3%@O@;;11;4;=",
"#=;>,@=1,*;###=,2@oo#,%*22**1>:>&=1;o&iw8,,481141;1;,;O%%&%%;1=#",
"@@=@o**=;4w,#6,=>#&,3<=,=@#>>@&324==&431;%&,41,1%81%#1%O%4;1%#oo",
"####=%#**#@#,,,,03*,2,%22>#$6>$#O=14;++41,9;%14%44%@#494&1,,w1OX",
"OO&1w>O*1<#o<=37*3,0q6==%$$+##:u&=OX%,4;,19q#oe4kwo#%=49#&41;2&#",
">;%;#@,11#@*#@Oo#;,1,:%O+==#+:=###%;;;@%%229;%3414%=94OX;1O&XO41",
"=====%2ya###&;#&@#*#==3<<56$#>0++#11,%#%;4s;;9%%%#1#;9%O;214#;44",
"&#&O;,4;-01,;14,++oX:$@6-9$2>>::#;;9119;;+@4%;%@;%%%41;%1iwO&;%O",
"43#+O#,*9%=1943%#++>@->>X+>>66><;;a49,;q2%11%e9@%%%;9;%%;w.&9444",
"1;O#424w>94;iw;%=#@+:&$*<+:=67$$@1449ae9%,%#;42#;2162i1,1&,111w;",
"Xo=@>4ie%OO=&&%#,,$$>*7*>22##-$$4a14q,;;e1#;,;14,40;@%11;,w12;;O",
"4>%#>=0,$@XX$*$01@%,6p52<$>>$::@O,=oX1;*ew1=2.@1211%;%q%@%%OOX91",
"4==%*1>,22>*&X>>-62@9sq;===>u5<%;#OX&%;82-2o&XX31;;,2%,,1X.o&Oee",
"#%+77<yat$56-+$2*02=>0yq5<$::>$-;;#*2;;033=&&2.#Oo@1w612%%%#=;11",
"3=,%7411#+-i560<2>i13+.+5-#@X$->=3s9,3w,&1i23#1&o;o1,2;9;,%4;4#%",
"2%,::es3>>05><>52<#+3:=prt5>><,$O=63X&4=O20e3=;=%%%&8#@1344,,;%;",
"##1e=qh9$:56:$6:$$:$00,@@<5>:$$+O#--1&0##1,=13o@1%%O,39ws#;#%,+%",
"<2%;OX##u:$>5#506$##$<y,$5:<r$-$01#&w41;4;,#$y-o;9e;#29g2=@o##@#",
"2,=;O;*>t7$$5$<>#75>$:a<+X$5>$5-*&oXX4=#,,##w=:9#O1O@@;;1=#34s44",
"43%:yt<==696<::6>$=@<><2$*-$:$:u&,1O&o=;146>-@&9>q*$=40:%@;,144,",
",07:5<853*<57d<52=$*>>5<57<$$++r=&=8*o&;y0p1@X620wq$20<<1%#;0,%,",
"s4<,+@@=:::th7:=<565p7>575-#:$<:1&-p2O 15>1@o=5-X@$*o*4=;q>+.+>e",
"7:1,=##$<$:ytp<<766$&+@2fu%:5$5+&;033->O+.>:2p,*$<7;=+%+@,1>##;%",
"o,3277u*<$@50><d>+#+$+#uu<<<55::4,1*6s,OX@=132$@+=:2=,+#+#,=&%#o",
":#,%%<<$#2<>+ >u0$$%+#<$55577#:$#44*d,=;++$t2=#=5<+$%3:<<+#==#%#",
"%++#=%$=<7:@$>->>%7%+522=:<<7r5:1>##**@@#$# o+15:1o@%:<%<:##%=0=",
"o#%#+<3+#2$#$:5@+:5<:<>2r7:$r<$7;661**X230>@O::03>o@3=%%<q,:#=%:",
"$,$:*7<<575:5>>$$<795u<>$++$>q*:02*;@>3-*d2;%4=##%@4;>03#o#=;>@@",
"+=,=<<<+$5y<0,:$#=<5>7<@+-*@$=>10*2:@=4;242e;49=#1,#%:<:;o%@@#%+",
"o:,:5=2$:r06<5<*$>><<07>+@5$:255>#6,,,,6&#*i4w4w04:%,yq2<+4;%%2@",
"++:<>$>3<*$*:<2<<>+++-->#X*<9y>4w41#*07>;=i413>132434y23:;<<;+o+",
"02#+2&*5$+#$31>=>:++*>#+$+:-+=@>==#%>ha,@=44>%#&%4a4;,;;2041#=%;",
",536>+$3++>2536*@:+$:*>6=5=X>@o>3>&=36,;=>,#=2&4%%40=;%;341w140;",
",%#:56**<26@-5:@X$$#6::5>:2$6q,#4e3;=w=3,4&>+#=%q1o=9;@+#=43a442",
"%#O@@:6:<**:@>#8$<<>#:+-075#>>,11w>*=4,==#4%#%=#343=9;#;3>=>4#+%",
"O#<196<y&>-=+*0w>2$$#$:@+#*3*a75ww=>&*43#,2a4,%4=O66,*@,0aO#*,*O",
"%39a*e,=1@X+:@>10+=#5:$:i3#2;9<32;4e1*>##&4403=>-o112,0s3ew;=ea;",
"ue,y=;,,*>0>:2:57X>7,$$:0>,hq##+#,4=>*3;##&O041&#**=#142q=4#1#<<",
"73e32#<656y>:1@&-:#><35<=<>+2#++>39=&&O0,4&&;,14*;=@*#-134*O#67%",
"7777,,2=:130:#0><,#$20$+*<,**<wy%*;4220444144>3;#21;$>56*+@+o,,w",
"93%+@60:>>3065,*60<2=,-##@#*#%#64a@=#%003;#1,;41=*,,*@*>3$,-o263",
";#=2=;<6,<$8i06y>0g7,6%=>,#22,#349=1>,&###23#&143>:*>@@&&3>#**>$",
"#3<377,73@$#*>60*5:+=,5663==6>6,#>>4;=,;O14;3w44;4<:&313>2=8w,#$",
"77=9<%<94##,137;o<7*qu2a*:#+3,;=4;441&%412d4>4&1%4,=;,.1;,226>44",
":<=3711,3><ey793@O,#233%09O;3;2$a,aq4>4;1w44;&4;,91&OOo*O@*=O@>=",
">,342<3%#=79#=6<=,%=%;<=;+,#*;=;4q44,,4&#&142;4,41@O==;2#*,;1*11",
"#12+#3#OO:;%3;6y,%,3,oO*<#<6**69,>4;41=#34424>4@=,2=*=9;>26>1.@@",
"1;===,=*#-1313w6<,3><<37*$=%#3,w=,3,fa#=1144442>O+O3343#2=w1o##$",
"=#O=,#41<$1$#22<,<2%13*;$@-19,#*3=33>4>#>w;4j042%O#13>=9,<3*>@**",
";%1%=**#3,@>,$@++:=3;#,=>&#>,13*a#11;=42*1>;>#O-17*#167>,<2##>12",
">#@@O1*17q08,2,*=y0666#o@:>0,;,=3=34>>e2341g#;&;#;;*==1,,;=,49,$",
"+%%#%=,===#3,*<,%%*%337=>4=>4;O#1aa1%;424##i>=34>4,43,11,,#,;##O",
";@#3e0>=,2%,=#*oo%@117<=,4s&&#&2;#,1=#;44&1=>*4g233=O##;4#;*O##=",
"@=>4w1>=;#=,$o@=;14>=#;<3%&%,3#1421;44;%192O&==13;>,@%%&**&*,1;#",
">4;41=::,;;@o+$>1=,1=##;==#;;&#O;%@;4443=>,;4&===>4%;%#1#&@O**#O",
"%##;4f1*;622=#,*%@=@9%%>#ea#;;4##&4;;1w94&1;%13w;%>%i,17i903==%%",
"=#%%*4;;=>0e3=#34>=#>#+++=%141;4O&;4;%=40=#;=@>,;q14w2##;13i%#34",
"4,#;*%;2#%,2*25=<%%@o@@@%>#%44O;;&X%%=;#2344;O=>,1;%*2w%*492,==4",
"oo=@,#,3###%#%3;oo#,,;%o+44#de&Xa;%;%@1+#a%4sw#q9X.%o#ee9*oO#3=O"
};
