/* XPM */
static char *wool_colored_pink_pn[] = {
/* columns rows colors chars-per-pixel */
"64 64 97 2",
"   c #9A323C",
".  c #9F3440",
"X  c #9E3A44",
"o  c #A03642",
"O  c #A13A45",
"+  c #A43D4A",
"@  c #A93F4D",
"#  c #A5404D",
"$  c #A9414E",
"%  c #A44550",
"&  c #AB4552",
"*  c #AC4A56",
"=  c #AE4C59",
"-  c #B04957",
";  c #B14D5B",
":  c #AE525D",
">  c #B2515E",
",  c #B34F60",
"<  c #B45563",
"1  c #B85565",
"2  c #B55966",
"3  c #B85967",
"4  c #B65C69",
"5  c #BA5D6B",
"6  c #BD5F70",
"7  c #BA616E",
"8  c #B76371",
"9  c #BD6473",
"0  c #BE6976",
"q  c #BF6779",
"w  c #BF6B79",
"e  c #BE707D",
"r  c #C06576",
"t  c #C06977",
"y  c #C16779",
"u  c #C26C7C",
"i  c #C3717E",
"p  c #C46E81",
"a  c #C86F83",
"s  c #C57383",
"d  c #C87586",
"f  c #C67985",
"g  c #C87987",
"h  c #C67689",
"j  c #C97789",
"k  c #C67A89",
"l  c #CA7C8C",
"z  c #CC7E91",
"x  c #D07F93",
"c  c #CB818E",
"v  c #CD8394",
"b  c #CE8995",
"n  c #CF8699",
"m  c #CF8A99",
"M  c #D08496",
"N  c #D08897",
"B  c #D1869A",
"V  c #D18B9C",
"C  c #D2919D",
"Z  c #D186A0",
"A  c #D38EA1",
"S  c #D593A4",
"D  c #D699A6",
"F  c #D898A7",
"G  c #D695AA",
"H  c #D896AB",
"J  c #D79AAB",
"K  c #D99BAD",
"L  c #DA9DB2",
"P  c #D9A1AE",
"I  c #DBA9AF",
"U  c #DCA3B4",
"Y  c #DDA9B6",
"T  c #DDA5BA",
"R  c #DFAABB",
"E  c #DFB1BB",
"W  c #E0ACBD",
"Q  c #E1B1BE",
"!  c #E2B8BF",
"~  c #DFABC0",
"^  c #E1ADC1",
"/  c #E2B3C4",
"(  c #E4B9C6",
")  c #E4B5CA",
"_  c #E6BBCB",
"`  c #E8BECF",
"'  c #E7BCD1",
"]  c #E9BED1",
"[  c #E5C1C4",
"{  c #E7C1CD",
"}  c #EAC3CE",
"|  c #E9C8CF",
" . c #E9C4D2",
".. c #ECCAD5",
"X. c #EBC6DA",
"o. c #EDCDD9",
"O. c #F3DCE5",
/* pixels */
"> l G l H l j U  .j 4 > w t z 5 u i v U U h S d 0 ( U : G ~ n w L ~ ^ z p u d y ; W ] W U x S U U r < / 5 g K U ) V - j A n j 1 ",
"d m z p n B l l L V c p w i l V d s u s b s i c G V m v u 6 Z U s q U n z V H ) 1 x M 6 5 x p B V V G u g S A K ` S 9 M A 6 A B ",
"U L A h l H p q K 5 s > < 7 n A s l v h w 4 i c S L H S J s A _ l 6 L L u d A W r x a 6 z x p l l l < K S B R W L d V 9 5 v S / ",
"Y A h 9 4 z B = l K P w K T u 0 s l U h s s m U v b s s U m I C S D v A S H U d 6 A ^ u r d M L p V V G S L S X.( l p 5 d U ` ] ",
"U T ' n n 6 2 p 9 G n z l J p = w B H U v s u S 4 s v e w A T l S A j G X.W ^ S y a L d 1 L / W V H ) z l 9 v L T ~ s u V Q  .` ",
"m J ~ S A & X + S n v t < = 4 2 i e L v s V w 2 S h v v U 4 S m r ^ Z j B Z W x a B x z W j d ) v d / K l 5 1 5 h j H A n J h s ",
"q h z z z 9 h S m d v t 9 u p Z G 4 : = s v c s G G h s S k l v u j x x , a ^ ^ U B B U L V S H l h S B V x 1 j p u s s n A f 9 ",
"5 6 z 4 : h a j z L ^ n d U V l l d 0 V U A l m l 4 8 n v 6 q G H L x j j H H A l a a V L V B M s U A s r M r < s H l V w q = ; ",
"r 5 9 r M u 0 s l 9 5 r V A A S ^ J d V K v d S S V u u U v s w , a B H x 1 1 L A B L x u A F a K W d 6 6 V W K q n h v ^ A ; - ",
"5 5 p Z ^ V 5 u S m t * A v L K u J A / / U f l l g i < i w s / a j 1 - a B H V S H W W r & W H O.W 1 1 j l S W q 5 L z n K h 6 ",
"B M l z t 5 b A A 7 7 g u 5 ; - q z n S V v g 4 5 f s 0 > g l u 6 a j Z B B 5 l j L H T x r S L M H a x W L 1 @ z z 5 9 O = L v ",
"j d s l s l G ^ / u w w y x r u 6 6 l t v g K m S K P f 9 C R < 1 6 V A A j 6 j M L ] x x W a r j 5 S r M W d 1 z L v L 5 z L R ",
"u t 9 1 z m L h 9 K A V z S L M < 3 ; * l u 2 U i U w G V m l b y M B W A S T x z 1 5 H j N u 6 x d a d K V z j A ) T 2 u d p = ",
"L S 9 5 4 9 m u R d v S W K G d t 5 5 n 4 e k v # 2 B A T U V V x M W H W B M W A d M V d Q W 6 d s u x U M u c B T + y ^ T L K ",
"n d 1 0 U G U ^ m T L v ' ) l s f t 7 5 v u i d V < c l U R s 9 6 A U L U ` ^ W u A j y M K H 6 l S S W A ) S S H 5 v V S A ^ M ",
"@ < l 6 l T ) / h 9 1 h 5 0 u t V A d i v s Y s M S S w i w s e F _ S L ^ B M M ^ V 6 B l z F F V F W M 6 s S G V Z R A A d l 1 ",
"U V d y N c W M s 4 & @ t h 9 R S 5 l V J  .U A S s b N 7 c l 2 5 B M ; & v V s W W V l A @ 6 B H V V j v d W d 5 y s 2 < * U K ",
"U l g y g M l M J J B a w # z m s L A 9 U  .Q c c c s N / Y D s z 9 < & p d M U A r S , r @ & H A z B A G s B V V $ o = 9 > / / ",
"9 s 3 W W S ( ` ^ e C P d 2 p J d ~ S z M P / ( D V i c l v w f l s 5 s S M V L S B d a j S @ 6 ; 1 1 V ^ Y F S d i s 7 l l V V ",
"K l S u W P F A 7 7 f ( J P E S D v _ S S 5 + < U l i 7 # f f v d V _ W V G / B u B / S G y B 6 1 z @ V m H l U b V s K v U u i ",
"K s V v c ( ` S c c ^ K v S C D J b 7 7 S c l / R E U v c N V i < j U G ; s D j 5 V U W G d z j u y d t W y 3 V m A P G S l d b ",
"t 9 S / d W o.Y i k K J f i D c 0 f c s R T V 0 7 b J V b i f 7 5 4 w 0 l 0 L 9 5 A V s S L , r A j u 5 v H Y T ( 8 v w d V < 0 ",
"C K s l < & 4 6 ! f 0 b C e D ^ U w w i l S ! N e P V F E 0 f 7 U n 9 9 ^ A V B S z B t p / l & r ~ ) j u G T ..S v 2 * 9 9 5 t ",
"K V l l < v s l E I i 8 P c S m 0 Y K b i c ( C : # i D C 0 D f h 9 , & & A z r n v 5 t R l z L u 1 v 4 4 5 f b C k 7 S J ] W Y ",
"P K s l ( E S c f J R Y G b v U b i f 9 S b b D e 8 f i C i c [ p n h 2 9 ; j n V G m s v 4 7 I m E 0 0 i C R V s 4 v V J U L A ",
"F W U M P S R P D s C I E | J D S k w f V m K J P U D f t 8 7 I h p p U u < 6 z R R  .V 9 + C C J / Y i b R D S S f i l Y S f V ",
"..K K V : 2 2 c v v l / o.R b c D U U K ..P C I U D k t c e C e Z q s _ S : . n S v S 9 < f D d : 2 8 s * 0 P c c / V :   2 l ) ",
"U M S N f 7 8 i C 0 v / / _ D D P Y U s 8 : 8 C ..E f b C 0 Y 7 0 h R S b e k 5 < X v h m ( v s 0 b P c k 2 0 7 7 m C b w 7 v l ",
"- b U S Y Y [ c C e > D E f c [ c 2 e * 0 * 8 [ [ P C C C P c b C M S u D ) m 4 & 7 h S J J w w 7 c k C g b < t 7 t b c i i 9 7 ",
"v 7 C i f D C 0 0 C C c : X b _ E e e i 7 0 C e D I I I I 0 b e 9 S S h  .n z v 7 4 i E S l w l P G 4 0 f K N S C 7 7 k k 9 s 0 ",
"s 3 3 e c i t c C E c 7 w c c C c k Y e : P C C c c S C I E I c v v w 0 w s 4 5 8 e w X = 2 S J c D : 4 i N K d P c w 0 i c E b ",
"> w i t 3 C P : 0 C e e f c D 8 4 c I C c D b D E E c e E D f Y l U U S s p # S D R z 2 < c v U L f : 9 K l i d C / C b 0 l d b ",
"i V i N c U C D D Y C b P b b e w S R R D | C v 0 7 = 0 b E f c R S u v 5 l S d e  .G b u U l 9 t u 7 L l n R J w < 4 h m V 0 < ",
"> c C c S C C 0 i J [ C E C c 0 w c m P m T S 2 4 e f 0 f c b S ~ p S l 5 l L v A H m / d J ~ v u S N s s v S n v * 8 7 4 7 i 4 ",
"- c S b K c J i c Q / U C P S f 0 b b S C / T b 8 : J 0 m D K D v q L B m S m P w w h ~ J / T / W W c l V ( / G m 5 L v u i C w ",
"7 r N S c t m D C k w h v m J b D v 8 5 2 s k m i # e m R ( z L ) J A u d ~ U v n l ) L S G b m F K K K U / S K n l A S v < > < ",
"W C y < S 9 s J i 2 0 i D S b f v c 2 8 s c q 7 i 4 c s 2 k 8 m p p 6 d v o.` v 1 d T L n d 4 4 u T _ R v n v z G T H S s g t B ",
"V W K K k < 0 m > 7 c D J J U s 8 k 7 s l k m P i P e # v < = c H A d l J T n z s x n 9 s A i K s 0 L W v v j z J J J / S Y W v ",
"S s t z J U e s b S D 7 e G l 2 * w w w L l l P m v D d U E V 9 L / K v p R v L V T u V 1 q v d T v * l T l 9 5 0 d T G _ L U H ",
"g u > 7 5 v U v S k i l 4 m w P 9 V J m 0 c 9 s T Y P 9 v k S S H ^ B h h T m j l t G j 9 h l w S K S l T v q v K n l h U 0 5 w ",
"5 u V S T K V ( s l k s 2 w R ^ C m l w w s l 0 4 w i K l ( U P ^ ~ z B u p G G u n H ' W n a G h < H L n w 9 V T ` 2 4 s v h 4 ",
"g K W _ s Q b l m 4 % < k 8 l m Y 4 s w L v w z ( S u S v R V J v v T / B p n t q s T L W S j l s : n V A m ~ ' D ) / z v / { l ",
"` / V _ c l C V s b T v k G z L L * c U A s s b R m S o.Q w t 9 < V L l n j A z w q 5 1 T W A d 9 l s l w A L L ~ e L 0 m u A G ",
"Y K ( G K t b U P P ^ b b m 8 s s v 0 n S K U S h S b : G 9 4 5 B S K l p q 5 T z L a u n V H L s v l 6 d 9 s v J J q < 9 T T d ",
"U U T U v V S l l A G / v w T c V N 0 s S / t < d S V w d S R ~ u u l U B B ^ L L ~ S T L l K v u H Z v u n L L p : 4 9 < b A / ",
"W K g < w U W b v n J ~ T P C s U R S A l b s u w 7 i s 0 h q K K W 6 y r i ^ W S s q V z l H A j h S n s 5 s n D 9 n s = S P J ",
"v 9 l K l b S U m n d T _ / R E f ^ o.Y V K l l n A q S H Z u S G U j B B M y r 6 y n S q s A G G B B s n 5 6 q e A v 8 w s v s ",
"s K S S U U v W D 9 w w d v J R w P c 0 l C P U R J h h U v U m r V B W x u B x 6 S L z G / ^ L l U V v e A A G l K l U ) m 9 s ",
"P T v T D f S ~ L 9 s V C S T v * b T f / ( S _ l v t < D m v l V B V ^ C r d K S A } G n L p B u L v d s m + Z z v A S U n G L ",
"M S v J T S S V J M S / _ U R G 7 < V f S K K s Y Y 2 s L l S w } H / ^ W x K x S ^ K T l y H z B T D 4 < 2 = s 7 4 s s < 4 b z ",
"n A H L J V S s u l T ~ u f P C b M i l f b C v c 2 l 0 u l l c W W U L x V L a 5 a V L H n L Z L A 5 2 l h h V 9 h v z m w n m ",
"9 V A 9 u J 7 4 5 B h d J v U ( N c V K m > 2 d m u S U d l U T B V U l V B d u A T T S L n L 5 l A S h j v R n V S C n S X < 4 ",
"m l h z l m d s s s M K b N / U S v L v A b J P i w z d w G B R j A H S X._ y s Z n K L T S S z 4 4 2 H G L J q G z ~ m = u 9 s ",
"h q 5 s V 0 U Z V i m t t V S S A S S s S K d d w 9 d A T n 0 s S j G S x U B y V ^ l S o.K L S p 1 q A D v s T m S L p v 8 s u ",
"v p n s s w 9 r S M 9 v C i 7 > 4 c k K v 5 b l b q w n m A V s _ 5 S H l l U A p M z l n 6 ; j G J h r Z J R n A S G u 9 n G G ",
"v 0 7 4 5 B h A U / W U b S m k c / Y U U P 0 & 2 s m ~ S v l l G l S W B V / V S W B } p z u s p z z 9 s l S A B v z n L ~ Z p ",
"5 j p q s l Z l l l 0 K V h S v s s s u D D Y v h K v v T v 2 q K ) ' L l x W V V 9 9 / B j G K z U V L L A G V A M t V z 9 y = ",
"l t t A ) ~ m l V S d V z t s < < u 7 S S P S M V U ] s 7 w s m V y B V j u B H K y V d v p U o.S K H l < 9 r z L u z t 2 r y h ",
"6 j B L ^ A v z v d l V p : 5 d l G G b z u c F P i 0 h c S w A L H M M L L x a Z U L < 5 d h S L z B A 5 p d t 9 h w u n Z z 6 ",
"x U z U A l n v V z z 4 = < s n G l S A l 7 i c f s q z n e 4 : M j 5 l T H W H d v B z S i j d z B L s M d r v w 9 5 4 l a p 6 ",
"j u t z K ..A l v U S S v t Z c s 7 u 7 R i i v 5 / { w l v C 8 y 9 A j x A W W A s A l s A U ^ M l v a ) S G T _ R ~ G h z p p ",
"z t s u d H z z l l T ) J l t K T m d w V 9 7 < 2 l t G T n l A 1 r x T j a y H T j r z j 6 M B M / G L / S u 9 s C D ) s u G L ",
"U B t l d s n H u s m K s S U h S d w 4 : 9 u 7 s m 9 d ~ J 5 a z 5 & y j j x 6 S S L U s < M v V B l s p m R s s U T Z n z s L ",
"& = l 6 Z p V H u q i f 8 s K d < ; w m v v w = 3 U U w X.) p - ) l y B x 5 S 1 r / 9 K ] T r ^ Y & & i * u ) ( ~ s , 6 q H h 2 "
};
