/* XPM */
static char *wool_colored_gray_pn[] = {
/* columns rows colors chars-per-pixel */
"64 64 32 1",
"  c #2D2D2E",
". c #2F2E30",
"X c #312F31",
"o c #343435",
"O c #373638",
"+ c #38373A",
"@ c #373838",
"# c #3B3A3D",
"$ c #3E3E41",
"% c #403F43",
"& c #3F4042",
"* c #424245",
"= c #464549",
"- c #48474C",
"; c #47484B",
": c #49494E",
"> c #4D4C52",
", c #504F55",
"< c #514F58",
"1 c #4F5053",
"2 c #515156",
"3 c #54545A",
"4 c #58575D",
"5 c #57585B",
"6 c #5A595E",
"7 c #575660",
"8 c #595760",
"9 c #5C5C62",
"0 c #605F65",
"q c #626165",
"w c #666569",
"e c #6F6D71",
/* pixels */
"o%:*>$$<9&Oo##&O$$*11$=%#62o>,*#,33*##$#+,w4,%%4,%#4#%->3=X*=%%+",
"$=&$*=$&>-*$#$&-$$$$=##%:==*#@-2%#,**--4+%%#+%%%%%%%%-->9-#%:+==",
">>=$&>$$>+$ooO*-$$*$#@#*:,::;$=q*+,:#%:,#%%+%%%%%%#,>-<,,$=++%-4",
">-$++$&X$>>$>>$#$$,%$$=,%=##,=,--:*--:,%%%,%%%%,%,%%%>-04$$+%>44",
"><7==+o$#;=&$:$X#*:>*$$=@$*##:,%<-%<04<:%#>%+>33%,4%%+%,,,$#-594",
"=:<--X..===#ooOO$#,*$=#@:%**,@-=+<-%*-<*%-%*4%%9%%3,%+++%%:=%>%%",
"#$**=#$-=&*#O$$=-+oo#*%%::%$;***%%%%X%432%%,>%:>>%%%%%#%##$$=-%#",
"OO&+X$$$&><=$>=$%$#*1-**%@#**@#:-:%%%>::%%%%,-%-%,>%%%%+%,%-##Xo",
"$O+$%$+$$#O#===-2:%-:*%--*##1=%@o%%<%++,-%<%%->#>,$++:,>#%%=3-XX",
"o+$=3*+$-=#o;*>>#,=25,%%%%%@#@%5%%+X$=:%--<4#X3>e3++%%><##,%%>%#",
"%%$=$O=-;++&##oX#%*-**%+@%%@@%*#+%%%%=+%$::<%$->=-$%<>oX%=+# X<%",
"%%$$$$:38####*##+#%#*%:=-:1%@=2@++-:-%#%%>0%%,%#%+-#*,%+%,%<+%,,",
"$$$o$->$#,-*%->*o@XX*#@1%1#:****+%%<:-,%%#+>$=##%$$$,=%%-4<+#%#X",
">:$oO#=$2%*-<,-%#++=+#**Xo==11==%%<><-%4:%==$3,#%$$%,=#%=< #3,,,",
"-$o+>->3*,>*83*$%#@@%##%=@*%11$@$%<>,942#=$#*>:#%::,-3--:+==:=<%",
".o$+%>43$#O%+#$#==#%*%1%=-:+$$##>0:><=%%4-+=%%::=><*+%=:-%<=:%%+",
">=$+**3*$@XX#%#2:@%=,6>-:$**#*&@+-*XX=-#43=%:X+=>:=%*%2%+#$ooo,:",
">%$$*=**::=##X*=$1:+,92*&*&*q1-&%++X#%%,-$-o#XX:=%==-%==-  o#o24",
"$$+<,-485#:1%o#:$2:%=2651*&*&*#*%$#$:*=,:-%$%=X+X+o-3>-:$#$+%*-=",
"-$=$,>::@@&6:12:-*4-:+ o1*@@ #**%:62-:3-$-4::#=#+%X==:*,==$:*:#$",
">#==*39:**2:*;=::=##-**6551**;;#+%::+$:%+-24:%%%###%,#o-:-,;;%$*",
"#+;3$3w2$&:1&&:*##$%22=#@=;**@&@++$$%#,+o-=$::o#-%%+%:34q+*#%=@#",
"=:$*OXO#6&@=;$121###%:5=@1=:5@&@4%+#3:==:=%#$5* %,3%%-20-*@ ++@#",
":=$*o*$*51&@1&;=#2:=#%6=@X@:=&:&$#oXX:*#=%+$3%*,#+%+++%%=%@-,9,>",
">:**65=*$121:**1*$$#;*=:#@&&*&*q#=%+#o%%=::%*++2=2##$:2=$@*-;>:-",
";2>*:;2::$;:29:::%#$=*::11;&@@@5%#%,#o%%529-@ ,:252$;2:=;$#*2-**",
"0::=o@@&***3q1*&=>1:q1;:1:&#*&*&-$%4-+ %:*-@@%:#X@##X$>**5*o @*5",
",*;=*@@$;@*556:;1>1$@o@=q5&*;&1@#%3--%%+o **-6=$#=1&$@#@@*;=++%%",
"o=::226&:$@;3$*q*@#X$X@qq;*;:1**:=-%>9-o #$-;>##@*&;%*@#@#=*##@@",
"*+;$$;;#@;:*o =62##&@#;#;1111@&&#::%q%%=@@#5;%#%1=@#$>*;;@@**@%$",
"$+o#&$#&;2*@#**;*&1$o1;:&*::151*==#@#%@+### oo;>*=o@#*:$>*@##*2*",
"o###@;:o@:$#$*;@@*:;&;*;51&&5:@1%:>-%# -:2*@o**2:*o@>*#%;2=*#%**",
"$=$*$2;:>2:*>*=##:21:0;*#oo#*3&&2:$%+%:%$9:*$>&###+>$=<;#oO$==#o",
"o*=*;;;@#:6;1;*+#&;:=1;Oo&$#&&=;2$:%+%,%=:;4$><&#:=$$=;==X##OO#O",
"X*;*:*:$*531;1;$@;*;=31*@o:#*;>:=#>=--=,$$$<:3>41<&&-33--#>&##;#",
"@@*;=#;:=$#&&;:=:*#Oo$&;@o$;15*;4:=#%<,%*$7>-:&;>;>:>3;>&&=-=OoO",
"2;#@;+*:#@##:;*&&*O#&*OO&o&$O&#=%#+%*w9*+$<>*%+O$>7>*-**:>;-#&#*",
"=2:>*o#;o@=:>>>&@&O$*&;:$1&.*OX=>=%%:,=*$%*$$-$>$#>3**$*:>>3;13*",
"-$@*:1$$=;:@#;*OX###>&&>=*;$>3-O>3:=$,%>=>$-O#*$>*o&<*+O#$>>7>>;",
"$#@@@*1*;&$*O-#1#=;;#*@$21>#*&;;-<*$%,=%$$:$+$%#>>;$>*#*>*$&1#O#",
"+#--2:;6$&&&@#13;*$##$&#O##>$61>33**#$:-#=-4<*$>$o><&$$=34OO$*&O",
"%:26#5=$=OXo&#*=1O&#>&#*5:$;*1=:**,3-#-##$>><-$*$X==-=<7>33%*38*",
"63=6**-=$*1*&:*>1o*1=$$=,==w3###o=>%=%-%#++O<<:$$$$$$=>:3$>#-$;:",
",:4;:#;:>>5=*=O$&*O=;:>=*;*o:#OO=:,*##+,*>%#%-:>$$$O$$$=>-+o#>>$",
",>2,==:*&-:<=#2=;;##:3#o$-=$$-33#%%,--<,><=<>%:%$:=$$$><$oO+o=-3",
"2:%o+>2==*:3>:=#,2;;&=$##O#$#$+>>4+###<3:%$-%%:=$$:=$O$$=$&$X->:",
"*+%:**;:==#25325*2q1=:&**-#::=#>:,%===##++::#$=->$=$&$O$$-*##$*$",
"#>-;22=2>+###=>2#:*#*=>1>>&%>*>=#==,%$=%+->%:4<>$<-$$-=>$:&>4=#$",
"1>*1-$-<>O$==:<&o=,$36:6**#o:=**:=-<:+%>--9:%>$-$>&$$=.=$=-:<&>>",
"==&>>-:=>&=37>2:@o=#:::$22+$:*;#6:3,,%>%:<><%$>%=<=$OOX$++$$oo=$",
"*=>>==:$$&<3$&1;*=$*$*;**@*#$***,3,>*=>$+$*>:%>%>=OO$$$-$$=$&$==",
"#=-O$>+OO&&$:*15**=:;o@$;#;:#%>2==,%:-$%-,<:>=>+$=-$$=<$$-:=- X$",
"=$$*&=$$#%;:=:3>;=:*==>1##*##:-3%---08#%%->>,>=%$oo:->>$-$<-o$o$",
"$$O$-#>=-$;+#;::-;;$;>$$##&=2=##-%->%,=#=<%>w,>-$o$&>$$<-->$$$$$",
"*$*$$###:=+=;#Ooo**:*O=&=##===:#9+--%%,-%%%%*#o%=<$$-<>%==>$$&=-",
"*#++O=$-,33>=;=$*33>>2#Xo*=2=***:*:>=*3->,-w$%$$$$$$$$--=&$&><&$",
"+$$$$$=%**#:-*-*$$$#;>>**>**,*O#:44:%=,--++6*%->$<=<>=-=:=$$$o$.",
"$++-33=%*-#=*#$oO$O-;>-*=,9#++$-=#==%#%:>$-$*$<q->-$oO$$>$$$$$$$",
"+$=>3-***#*=#o+$*->&*#*::##%*>#=::==:,=$-<>O+%%-:$$-O$$$$$$$$$$$",
"=>$>-$**=**+oO#=;&-;*O$*&*#%*$+o=$o%>:<:%***>$%$&=<$&$$&$ooo$$$$",
"$+$$>9-%*>::*#**$O$O2#$*O38#%%:###-%%-<,-$-%$->3=$=$3==>7<<>$$$$",
"%$$$$:%*%*23:*#:>=$#=#Ooo*#:,%*-+#%<%%#,<$#$$+*-&7->7:$$$&>7$$-:",
"<=+$$$*-#$=:&:>*;$#OoO#O$=+$<>+%%+X#%%%+->><$o$*--$$$&<$$<:$$$$>",
"..$$-%*-$##&+#:$oo#==*#o@>>#03%o4%#=%+:+#7+>93$<>..$.$77<$$$$$$$"
};
