/* XPM */
static char *wool_colored_green_p[] = {
/* columns rows colors chars-per-pixel */
"64 64 20 1",
"  c #143604",
". c #123D02",
"X c #134401",
"o c #144C01",
"O c #155301",
"+ c #185704",
"@ c #165B01",
"# c #185D02",
"$ c #176201",
"% c #196402",
"& c #176901",
"* c #1A6B02",
"= c #1C7303",
"- c #1E7A04",
"; c #1F7908",
": c #207C06",
"> c #237C0A",
", c #228206",
"< c #238409",
"1 c #2A910F",
/* pixels */
".O$O$Oo&:OXooo+Xoo@&&O$oX;&X$&+o&==Ooooo.*<:%o#&*o.:Xo%&=# O@@oX",
"o@Oo@@OO&@+OXoO@Oooo@OoO$$@@oX@*Oo&++@$;.++Xo+o#@@#o@$@%-%X@#X+@",
"&&@O@@oX%XoXXX@@oO@oXXo@$&$$%O@;+X*%oO$&X@oo++O+O@.%%@**%o@XXO@*",
"&@OoX@@.O%%o%&oXoO&oOX@&O@oo&$&@$$+##%&OX+=oOo+%o@@%#&%,=@oXo&--",
"%*-@@oXoo#@@O%oXX@$&@oo@Xo@Xo$&O%#o%:=*%oo%OX%:=@#=@OX+%*&oo@=--",
"@&&##Xoo@@OXooXooo&@o@XX$@@O&o@@X=#o##*@o+++:OX:+O=%+X.XOO%@@%OO",
"Xo@@@XO#@O@oXoo@$XXXo@@o$$Oo$@o+oO++.o>**+@%%##%Oo%@@+.OOoOo@#oX",
"XXoX.ooO@%*@o&@OOOo@&$O@OXX@@Xo&%%++o%%#Ooo@*@+Oo*#oX@XXo%O+oX..",
"XXXXOooooXXX@@@$=$o$$@O$$+oX&@Oo.o+%O.X%%@%+O#%o%&oXX#*%o@O+=#. ",
"XXo@=@Xo$@o.$@&%o$$&=&ooOOoXOXo=oO.Xo@%##%**o.:%1=X O+%*oo%++%OX",
"@+O@OX@#@XXoXXX o@@$@$oXXOOX.O+oXo++@@XOO%%*+o#*@%O@*%X ++.o..%@",
"OooOOO%=:oooo@ooXXOX@o$$@&&OX@&XXX##%oXo@%:@@*oXOX%X@*OX+%@*X@&*",
"oXXXO@%@@%@@@#%@XXX OOX$O&X&$#+@X++*#%&@OXX%O@oX+ooO%#+o@=*o@oOX",
"%%XXXX@O*o@#*%%OXXX@X+@+XX@@&&@@+@:%*@@=#o@#o:*Xooo+&@oO+:Xo*%*%",
"%oXX&%%=@*%@-=OoOoXXOoOo@X+O&&OXX#*%&:=*o#OX@%%XO%%&#-%#%o%@%#=+",
" .+o@*==OXoOXooo@&oX@O&o@&$XOOoo%:#%=#@+=#X+oO%%@**@XO@#@@*##OO.",
"%+oo@@*@Oo..ooo*%XO@%;&$$O@@oOOXX@@XX##o*;++#XX#%@@O+O*OXXOoXX&$",
"%+OOOO@@$$+oo.O#O%$X&,=OOOo@;&$ooX. oO@*%o$.XX.$#O@#%o##@  Xo.==",
"XoX**$=:=o$%oXO$o=$O+*;&@@oOO@XO+oXO%@@*%+ooO$ XX.X@=&#%OooXo@@@",
"%@#o*%#@XXO;%**$$+;@%X.X&Ooo.OO++%-=@@=+o+=#%o+..O.#+%O*@@O&@&oo",
"&o@@@=:%++&%@$@$$@oX#OO;&;&O@@@oXO&%.O%OX#*>%oOOo.oo*o.#%@%$@OoO",
"XX@=O*<*o+&&Oo&@oOOo&=+oo+$+@oOXXooO+o&oo#+X#$.o#Oo.+%*=>o@oO@Xo",
"@%o@X.oo;oX@$o$&&oooO$-+o&@&=XXo*+X+=#@@%++oo;+Xo*:Oo%*:$@XXoOoo",
"&@OO.@oO;&OX&O$$o&$@OO;@..o$$X&OOX.oX%+X@+oo*O+#oX@XXX@@@@X$%-*&",
"&&o@-=@OO&&&&@@&OoOX$@@$Xo+o@o@;o+#oo.++#%%++Xo*O@OOo@&@oXO$&&&@",
"@*&O&@&&%o%&&,$$&OoO@@&$&&$OoXX=Ooo#o.X+=&;#X.%@$=*o$=$$$ooO*@O@",
",%%@XXoO@O+=<&@O$&&&,&$&&&OXOO@o%XO*#o @$@$XXO@O.XOO.o$@@-OX.o@=",
"&@#@+XXo$oO;=-$$%&&ooXX@<=OO$X&Xo+*%@o@XX.@O@;@oo#&OoXoXXO$OXoOO",
"X@&$**-O$o.$=@$;+Xo.o.o;;&@@&$@@@+#o%>@..oo$$$XXX@O#@@XXXo@OoooX",
"@X@oO$@oo@@@oo@;=oOOXo@o$&&&&o@oX%%O,#@@X.o=$@o+%$XXo$@@@XXOOXoo",
"o.XoOooO$&+oo@O@OO&oX$$$O@$&&**@+@oooOXXooo Xo$%O$XXo@&o$@XoOO*O",
"XoooX@&Xo@ooo@$oX@&$O$@$=*+X=%O&O%&@ooX#&&@Xoo+&&OXX$@oo@=@@oOO@",
"o@o@O&$$$$&@&@@oO$=&&-@@oXXo@=o@%%o@XO@Oo,%@o%OXooo&O@*&X.o@O@o.",
".O@O$$@Xo$-$&@OooO@$+&$XXOOXOOO@*o#Ooo%@@%#=O%*Oo$@oo@$@@.OXXXoX",
".O$@&O&oO==$$&$Oo@O$@=&+oo$o@$$%@o%@@#@%Xoo=%=&=*&@o@==$@X$@oo@o",
"XX+$Oo+%@OoOO$$@$OXXXOO@X.o@*-@%=%%oO=%@@@=%@%@@%$$&&=%%@O@$O...",
"=@oX%XO%OXXo%$+o@OXXOOXXoXOoX@o@ooXo@<:@.O**@OooO&-*@@@O%*$#oOoO",
"@&$&+.o#.XO$%%&OXoXoOo@&o&O.@o.@%#oO@&@@o@@Xo#o&OX%=@Oo@%%$=$&=O",
"$ooO&&oO@@&oo$OXXXXo&OO&@O$O&=@X&:%+O*O%@%o@ oOo*@ o&OX.o@&%-&&&",
"OXXoXO&O$OoOX@o&X@$@oOXO=&$XO@@%%*@oO&@oOo%oXO@X%&%O&@o@%@OO&XXo",
".o$$&%#-o@OOXo==$@OoooOoXoO&o-&&=*@@oo%%o@%=*@o%Oo%%@oX@&=XXo@o.",
"O$&-O=@O@X XOXO@&Xoo$OoO=$o$@*@$@@%=@o+XXo&&*%OOo.@@#@=-%-=O@=-@",
"-=$-O@@@o@*OO$O&&XO&$oo@*@$<*XooX@%O+O#OoooX&*$oXOoOo@%%=@%o@o@$",
"&$=$$o+&&%-@O@Xoo@X@@&$$O$OX&XXX@%%OooX*+%oo@@&%o+@XoXo@%%o.X**o",
"&&&&@@$@o@&=Oo=O@@XO$&oXo$@OO%==oo+*@+=*%*%&%+%@o%@Oo+%&OXXX.@@=",
"*$@.X%*O@@$*&&@o&=$$O@OooXooXOX%%>Xooo*=%oX#@O$@Oo@@oXO@%X@o.$&&",
"+oO$O+#&@@o&-=&-O=<&@&OO@@o@%@o%%*o#@+ooXo@#Xo@%%@@o@XXoo%@XoO@o",
"o&%%*&@*&XooOO%&O&OXO$&&*$OO&@&+X++*Oo++X#*O#==%O&#Oo##%O%O&=@Xo",
"%*@&$O@*&Xo@$&&@.@*O==@-OOoX@@@O%@%*#Xo%%#:%+*o@o%@oX@.@@@@#%@&%",
"@@@$*@$@$@%==**@oo$O$&&O**Xo&O@o:#==*@*@@=%*OX%+@&%ooX.oX.OoXo@@",
"@@$&%@%OoO&*oO&#O@oOOO$O@XOooOO+**%%@@%oXo@%#@%@%#XX@oO#XO@@@oO@",
"X@#Xo%XXX@Oo%@&-@O@%OXXo@o$&OO&*@@*O#@oo%*&%%+%XO#%oo+&@@@%@$X X",
"@@o@O@oooO%%@#=%$@%@@#&%ooOOo&@=O#%#,-XO@@%%*%#+X.X%$%%X@@=@.OXo",
"OXXO@X&#@o@XX#$%@@%o%%oOoXO$&Ooo#@#%+&@o@=O%<%*#o.X@%@O&@$$o@Xoo",
"@o@ooooX%@X@@oXXX+O&OX@O+ooO@$#o=o@%Oo*@o+OO@o.O$%oo#%*@@@@ooO$O",
"OXX.X@O@*==&@$@@O==*&&oXXOO=$O+O%@$&++:%%*#>o+ooo@@XoO%@@@O@&*@O",
"XOooOOOOOOo%@o%@oooo$$&OO%@@*@XX%==%@@&##XX=+o%%O&@&%@@@@@X@OXO.",
"OXX$**@O@#o@@XO XoX$%&$O@&-oXoO##o+@oo+%%o%++o*,%#%OXXo@&oOoXooO",
"XoO&=$OO@oO@o.XOO$&OOoO&%oXO+%o#%%@@%&@o@*%.oOO#%@@@XoooXOoo+@OX",
"@&O&@OO@@OOXXXo@$O$@OXoOOOX@@oX.@OXO*#*%o+@@#ooOo@&o@Oo#ooXXOooX",
"ooX@&:@O@&$@OoOOoXoX&ooOX*-o@O@Xoo#O@#=*%o%Oo@&=@O@o=$$&-*=$oOoo",
"oXooo&@OOO*-&OX&&@oo@oX..@X%&@O@Xo+*ooO%*oX@@oO@@*$$=$oXo@$=oo%%",
"%@ooooO$oo@$o$&O$oooXXoXo@XO*%Xo+X.XOO+X$%%&O.OO@@@oo@=oo&%@@Oo%",
"  OX$oO$oXoOXo&o..XO@Oo .&&o,=O.:@o@O.%.X>X%:%o=* .o o==*o.XX%o."
};
