/* XPM */
static char *wool_colored_silver_[] = {
/* columns rows colors chars-per-pixel */
"64 64 76 1",
"  c #5D5A5D",
". c #605C5F",
"X c #5E5D60",
"o c #625E62",
"O c #666266",
"+ c #686266",
"@ c #666568",
"# c #6B656B",
"$ c #6C6A6E",
"% c #6E6C71",
"& c #726E73",
"* c #6F7172",
"= c #747276",
"- c #767479",
"; c #79767C",
": c #77787B",
"> c #7B797E",
", c #7E7C82",
"< c #817E84",
"1 c #837F88",
"2 c #7F8084",
"3 c #828186",
"4 c #85848A",
"5 c #89868D",
"6 c #87888D",
"7 c #89898E",
"8 c #8A8790",
"9 c #8D8B93",
"0 c #8F8F98",
"q c #918E96",
"w c #918F98",
"e c #8F9095",
"r c #8F9299",
"t c #919097",
"y c #94939B",
"u c #98969E",
"i c #96999D",
"p c #99999F",
"a c #9796A0",
"s c #9997A1",
"d c #9798A3",
"f c #9C9BA4",
"g c #9E9EA9",
"h c #A09DA6",
"j c #A19FA9",
"k c #9EA0A6",
"l c #9FA0A9",
"z c #A1A1A7",
"x c #A3A3AC",
"c c #A9A6AF",
"v c #A6A9AE",
"b c #A9A8AF",
"n c #A6A6B1",
"m c #A9A7B2",
"M c #A7A8B1",
"N c #ABABB4",
"B c #AEADB9",
"V c #B0AFB7",
"C c #B1AEB9",
"Z c #AEB0B5",
"A c #AFB0B9",
"S c #B1B3B7",
"D c #B3B2BC",
"F c #B8B7BE",
"G c #B7B9BE",
"H c #B9B8BE",
"J c #B6B5C1",
"K c #B8B7C2",
"L c #B7B8C1",
"P c #BBBAC4",
"I c #BFBDC9",
"U c #C0BFC6",
"Y c #C1BFCA",
"T c #C0C0C7",
"R c #C2C2CA",
"E c #CECCD3",
/* pixels */
"&9g9jq8mU5:=<3w:44yvm8d83GM&gNu,nBCq445<;cUCc1hcc1;C<8jcCu&8sw8;",
"7y06yy99xuq4<49p8636r64efsyr4:uc8,myqshF;1u<;u1huuh11hscHh<wh;sy",
"cxd89j4,x>5&-:ua79r83:4rfxlff7sH9,jx18hj<u111h111q;hhwVcj8s<>whC",
"ms9,-wa%9jx<xm4,69x863yMyy64mdvsggwshjmq<hH111hc1swhhjhUU81;8cKK",
"MmKua,>4,fy98j4%<ygny64s;6t6,dM9hhqjYNCh11c1;cCVhcHq11ucNN44sVPK",
"alBdd+oodur1=%--63m06i2-d90rm>gy<mh1ysNw1s1uVq1Hu1Chq;;<89jfyx94",
",890w,8ds8t1:14af;%%3ue5gg64s99y11sw&1CCcsuccushq1cuhq;11145uu7,",
">,0;&8889cBu7ms9r7,sxdey9:,ay:1gjcww1jhhq11scwuu1Vh1;u<&5j9s<<%&",
"<;<<q5<59,,<ysfhCj5fht6lfs34my53&1sjw;&chsc11hh1cN1;;hmj1yqwCs&#",
";,1yCy>4fy<$fwxx1jfCDM89964=4<5S1w;&1ujsshCC<#ccEC;;9qjN<,jwuj5<",
"yy9q<>qsg:,91>&#<wyfuy6::862*893<11hsu<w1mcmw1hcuh1qNj-+qw;<.&jy",
"85595qgDD3,31q<4,,9<t8zpdcx6,dN-;;uhh1<1smY1uc11q;h<uV8=wjyj;qmN",
"1<<&9ax8,cfyqhjy=:&#93=c6c3fiy9e<uuchhmww;;hqu1;q858jhq8hKm;181&",
"ch<;-,a4N8qhVjh7<:;y:49t@=ydMMad1wchmuuCh1wu1VV;185qju1qwNo1Cmcj",
"u8-<ngnCumjyKDq493>:t355p-t9MN6,1hcccUCm1h1<uch<9hhcsFhhh;wuhhCy",
"+=8>9nJB9:;8><4<ys54y8b5yff34346cHscCs1sCh<uq8hhuhNu<1shusmus8q=",
"cu7<yqNy7>#o19,Bf:9yxPcdf7ty>t9=;uq&#yu5NNuqh+;uhuu8t7V7><4-=$cz",
"cq949yqyzzu41+9a5xs<cPSte98pDck7q<&#55qch1h&<+#hhqyhh5yuu+.&,&DD",
"<4;cVpDHZ4dx5-4l7Ng9yxDDzp4t9y2891>5hyuchu158h+<-=&sNchh544>9qss",
"hqs5Nxhh,>6DzxBfjyJgf:+=M94:@76tqsHVyhCu1wChh<u;&wouygqcyf7htx34",
"z5stqFKht9Alysikxy>,ftqSZVct9ii4;5ch&5h8;sNch8q81181c1-psamgf97t",
"<,fD7VRm49zx64ze27e6BMu,>ilit65>;;<<q<c>;su8hc&<sq1;qccVD,r,7s-3",
"fx5q-#;>S62yi6kAv3,47fDi2zyzZ26>cu><Cssyhqu<4Cq#1VC81hVUht;%,,><",
"zu9q&q4qZv6,v6sd,vzi59Hi*@4zi3z51<&##sq<qu;<Nqqx1;w;;;5ys9:fzPmm",
"cz5qSZf96xZvktrMy66,kyyk3,64i6tH1sq&,&qwpfp5q>>cyA>34pNi6-eslNcs",
"fBmtxkNvk6dvZPllf936irlkvMk62::Zq15j1&<qNBPp>+fszSN4yZzdk739Md8i",
"Rxzp*::7rt9DRZy9kMcxTldvvl92e2i6s15Fh&.udys,=9h7==26$3xteDi* =9J",
"ctfy9>>6i2tSAGkklMc4,*>dRZ7tk2M:<9Nhy19==Oy9uDt62yx99=2::ydy2,e9",
"%txfMNG9k3=kZ6eGy=2*2$2LGkiikkrrpyf4hDu=$:9sgl22>e9iet=3,3it422:",
"t>s67ki33die= yGZ226:2i2kvvvv2i2<hf9Uuqy::3Ad029vf=26zifi>>69,62",
"8:-3e439iNe,2eedr6N2*xffeekkvZveyq,,15=;,3,X%-flel*:4yx6zy2269Zy",
"=243:pk*2f336rk,:evirkrkSve2Zk6vqxch44+hzNt;=tymz8*,zt45dZdr2e8r",
"4i4ievffzviivyr32kNBkTiy2:*2yZ7ebh<q>qf74Ifr3m9,<3,x9rBl2=,6yd,=",
"=tptkds,6xDdNie229ixiMf:-76>6eydV4pq,9jqdnaA8lNw3gy44ygyr$,:::4:",
"%qftztz47SAvdvk62refdZNr:=l3ikxkt<myssuc2,8NlDmDBNt9aDAgd:xr34f3",
">,ydt3ikp929eilikr,:=68i3@4yBSrxCjg<7Bmqr9JxdzydxzzxMDsxy9sft-&=",
"Vf3=d27z5=34gdy6re=,6r,:5:96=9,y41<6yRKy-5mny7>-4mKBtywtfMlf682a",
"ucxx9=,p=:tfzxM6,9,299dx4z6@r=%9js58zmy95wu,5s4c6,xBqw8wxxgDfmBt",
"f5,qzc47ykk:3f0=$222x99xy9g6MZd,nCzu4Bwxun4s-,q8m0%9m9,><9mlJmmg",
"93=::tMtd749-a2x,dld2e,7Nmm,e9sfjCa88na9q<g8,8q<fcd9Bt,txt88m,:2",
":3sfNzsG4966-2BZda83269,:24c8GMxCB9u44jh1yjKma5j9&jxy3,aNK;,4r8-",
"7xAD6By9d:$*8,eyM:82xr3wGd3ftNdzwwmDy1u<<1mmNg896%uudymIfJAt0DP9",
"KVsLe9si6yNt9l0xx$rms86uByfRA33,;yx9u8hq11,=mBg8,8591dngB4j,y4dk",
"McDfl3ycxxAtra,46r,yfzmd9gt%f,-:whx911-mwj81wagn8t9,7<8tzx1&,mm7",
"MnNctyle9fzBe2Ntsy26fA4=7fi38dBB419cuuNmjBhmx9jw3gdw1yzn4%=,=ysS",
"Mg6-<mBttyxBmcd4vZds9y633,3638,zxC,1<1NNg5<sw9jd89du4;8yg,a6%fxx",
"t38z9tdMdy8MLDMZ8ARMyc99yd3dla3fjc9uuw11;<uf<4fgguy5u>,<4dy,36r6",
"6xgzMcyBg:4,6yxN3xe29sxMmz98mtmy<yscq1uq,fjqjCCx8nft4dsg9j8mDa,6",
"cmymf9sBx,6dslMe$iM7DGdK9t4=gyt9uyhCh<8hgfKjwn1u1mq54a+a0wagmyln",
"tdtlmgfdxtfAJcBf>=p7sxx7Nb=6x9f4HhCCNqcyfVxm81jqyNg:--$6>>66%;t0",
"ydxlgsf639NB38xsty597yitt=t,499tVCmjquc1;4sxjyjsjd>-999u,8yea2ya",
",sd,3z,-:y88ztvGttixy==7s4sc89cMyyjqsu81hmmhnyc;9dg58tNwussydX=;",
"a9809y7647uhypDcfyxtdykx43t73gyBqsjhYF15awjnNhhq>--jgxj<jwBa%3,6",
"9<;8a,xau4y33yffsfd7fz963>8fmy<4h8hhqxu<uC8hYjjh4-<dgq6msdg4y,83",
"06y66,,1hy,ts4:-:t8ze,y9t23yssu5J>sjq8ms1wqqu<&8gx8<szNussg4,wfg",
"y,>;;a8fcDAcyfy89DNMvx2$-9ymfy9ejqhnuuChhcuU1q171qq<5qgsyu9anNd4",
">84,59d989<cy8fy7444zfMy8xwyNw-<hJKnqqmsu,<Cu8hj9msnxshssy1u9,<%",
"q<<gJCy8yf7s936=-3:fsmftiMP6><4ss<ys85ujj1p8y1mYjjg9-><qm39<:<<8",
";8ujBdwwy79s6%:89glrt4efx4,8qh<sjjwwjcy1ucj;;58hjtus>451,834waw,",
"un9xg9wadt9:%=4yg8gde>4e77<0t4;&y8>qmjCj8yywh495wux5w8<y<,>-98,,",
"81<9xUd9tcgdw3a94,4,A24r:DK39ws><<sqwhNmp5f84fmBt9u4DgfNJBBg9w44",
"q<445g9w99mJx93zma62y,,==93lnuqs&1qcq11jm5<q9,tswDgnCg3>7dfD41fn",
"my3956ul48dz6fx8g43:*,3>6y>7Cj;qw;+<q8y;jgjm5&ttus844uB45cnaa08j",
"#$9,d5yg3,46,6x8=&<yyr3$:xm3UD1#Cq1uq;h;1C<jKV<Bm#@6$4DDB7&,,j8-"
};
