/* XPM */
static char *wool_colored_light_b[] = {
/* columns rows colors chars-per-pixel */
"64 64 65 1",
"  c #5657CD",
". c #5B5ACF",
"X c #5C5CD1",
"o c #615FD4",
"O c #6463D5",
"+ c #6967D7",
"@ c #666AD7",
"# c #696AD7",
"$ c #6867D8",
"% c #6768D8",
"& c #6C6CDA",
"* c #716EDC",
"= c #6E71DB",
"- c #7374DE",
"; c #7875DF",
": c #7679DF",
"> c #797ADF",
", c #7676E0",
"< c #7977E1",
"1 c #7679E0",
"2 c #7B7CE2",
"3 c #817EE4",
"4 c #7E81E3",
"5 c #8384E5",
"6 c #8887E7",
"7 c #8689E7",
"8 c #8A8BE7",
"9 c #8686E8",
"0 c #8886E8",
"q c #8789E8",
"w c #8B8DEA",
"e c #908EEC",
"r c #8E91EB",
"t c #9394ED",
"y c #9897EF",
"u c #9699EE",
"i c #9A9BEE",
"p c #9597F0",
"a c #9699F0",
"s c #9B9DF1",
"d c #A09FEF",
"f c #A09FF1",
"g c #9DA1EF",
"h c #9EA1F2",
"j c #A2A3EF",
"k c #A2A4F3",
"l c #A9A6F3",
"z c #A6A9F4",
"x c #AAACF5",
"c c #A6AAF8",
"v c #ABADF8",
"b c #B0AFF3",
"n c #AEB1F6",
"m c #AFB1F9",
"M c #B2B4F6",
"N c #B5B9F5",
"B c #B8BBF6",
"V c #B2B4F9",
"C c #B9B7F9",
"Z c #B6B9F9",
"A c #BBBDF9",
"S c #C0BCF6",
"D c #BEC2FA",
"F c #C2C4FA",
"G c #D1D1FB",
/* pixels */
"&qaqsq9kA5:&24q:44rzhqu44Vh=akr2sxlq3332*fAlf0tsg<*v-5skvw$9rw9&",
"5rq4we99hr8424qr4944r44qarr82,rk52keqtyb*0e,;03ettu39utiNy2qp,uw",
"hst5qa22a;5#&1rr4q894-48ahaaa5rN0-ks35uf<e3<0e3w9w*iyekzs9r,<wuc",
"kt9,=we$0aj2hh424qh444thww44hthuuywepyf9,yl333ei4twuuspAb04,5sVV",
"hkmwr,*41prq9a4&4rphw44t:4w44thqye3pCzvt33d0-ybxtuvw9>wfkk52tMZV",
"rakppO.Xtrw2&%,=44hq4r4:a4r8h=ur2ly0eefe3e30x63V65ci6-*-99atwa95",
"25qqw,9pr9w2124rp-=@4rq4aa44p9qq20e0&3bvfewffetyw6yeew*52253wt5-",
",,9,$555wscw9heqq42rht9rq:48w12ays003yyy033eftwt5jt3;e3*5s0t22$&",
"<-<<q3>5q,-2wetpca4par7i4444c444&3ey0;*spef03ty3fk5<;yka2w5wlp$+",
",,3evt-2ur2%uwss2hpcch474444444N30*&2waepykl<+ldGc**50il<,dwws5<",
"ww6q>-rtu-,93;&+1wrtrr7:44444444*30ewe*69ssfw<yfey3qzs*+0w*<X$fw",
"955556uxM22220;31144w7prgcc444N4;;eyt9<6wsCwwk5<6-u2ef3*wsef-0sz",
"3;;*9ts9;jtewtsw@=@@444c44444g44<wekuyfw0,-s5e2<w535st65tbz*233$",
"fy2--1r2z9qulii9441w4444444gggg40wlyzewvp5wt3vl;353wkw36eko2lkfs",
"e9-2kuhxrkfwmvq544444444a44ggz44<tfsfVxk2t0<wsi<9iuktbptp-qtutcw",
"o&9-9hvc9-*5-222r444u4n444g44444sVysctwwve,e66yieilw,5upeelet56*",
"it9>w6lr44X@444hu:9rhZhug4444444;ww&+wt5llt6to;tite985z5-25&&#lu",
"h6627e6rgg444@qr4gp1hZxq444gNnz4q;*O35qjt3y&;OOyt9wtu5tetO.#2&xx",
">5-kzunMc44g4=4a4haqrgnxgg44444465-5ywwjye536to;&**tcluu545-96tt",
"aqt3ksut444Nagcagwmau-O-z44444445tMleuxt3rvyy<e;*6otwu6kwt5iwk22",
"s5twwvCi44Dg4g4gir::u77Mzngr4g44-9fu#5y9-tjby3063333l2-tuthuu77w",
"2-ux9zFj44gg44z4:777lzr>44g4r444-*3>8;j;-te5yd*;e33*wijlN-q25r-:",
"ts58=O--N444g4gzz2>47unr4g4gN444je->xytwyww>3x6O3kv62uzDuq=@::-2",
"sr97*w48Nz44n4uu4gir47Nt@44g44g45;*OOy6>ew;>x58j2*w---7wtq:uiZlh",
"hs57nzu44gnzu44gr47:gu4g4444r44N3e8*-*66rat57--jrz444ucu5-wtghgr",
"uzkqgrzgg4ugzDzgt74444cgggg4444z523j5#;6nhBt:oitgzz4rcuau548ht4r",
"Dsit@444r44nDzu4ghggDu4gcg444444t33Vu#.wart4=9i5==44@4g4rxr@ =wm",
"hwuw4=44u4rnzNguhgh4444uDD44g4c425lye56-=X84tMr44rg84=4=-rtr41wq",
"$rguhzD4u44rz4uDr=4@4@4DNg4ggg4uiet4iMe-@=4uug44484g4r4444u8444=",
"8:t44uu44ug44.4Dz44444444ggcz4u4;yu9At68:=4nu444ur444g4g4=444444",
"7--4r444rg4444r484z4@guu44gczNc4w82>25=::44X@=ug7g@@4wg4g4444qcw",
"#244-tg=4r4444g4-rgu4g4gDN44n44c7ght54ougzq==qrgg4@4gr44unur4w4w",
"4r4r4zuuggg4gr444ghcaDrr44@4rn4qlu2w-8u54Apq4h9122,hqrzh1==4tr1=",
"=ru4grr44aDucur444rgrha=@4444wrtz4u6;9sqpstn7szw4pr448tww@1:::4-",
"@qgrg4g44DDguga4444uuchr4@g4ruguw2seruth424cicznzkqqrnnpr1aw44u4",
":44ur4rur4444rgug44=444r4X4rcnqgcay25zh8wqvsriqrausshvuhrqtpw=@=",
"hg4=u44u4=44urr44u444r444444=74r35<5wFVw-5hhw5--4hmkwrwqukaa4q2r",
"rhhg4=4u=44uggh44444r4rg4g4Xw=@7se39akeq5ww23u4g52hxqq9wahacphz8",
"p4:4ug44rag44uq=@444g44gu4g4hct1sbsw5zqseh2r*2q9zq$9z91=25hpmhha",
"44=14rc4u444:w4h44a44q44cgg4qqttpcw59kwq02a51902phu7kw2qir99h1:4",
"14tuhhrN4q44:4cn4g4444r4:24a7nhgcc6e43aa2wsvkw5s7&saw2<tzV=:4qq=",
"qazm4nrqr:@=444rg444a444nu4u8zrgwwkve3e224sfzp9q5&eturzVuvxwwnZ7",
"mvrVqqrr4rhr4aqgg=4ca44akrtFv241-wi9w9pq22,*kzu519592thaz5i2r4ua",
"zanaa4rhghmrrr44444augha7ur=u2=-wyj622-hwa92weps5q9,5<5rsa2&1hh5",
"kkkhrraq4ugc44zqrr44ac4=5tr45uxc236fetkfscpks0aw2ptq2wss4&-,=rtn",
"za5=2hzrrwahcgu4gcuu4r442,44>9>isb;3;2zzp3<tq9pp99uw5-5wa1w5$aha",
"727a7rthrr4hmcgc4nDhrg44rt2taw2iil6eew22,<tu25tparw5r,-25uw124q7",
"4stikhrzu4444rgc4gr44uhckaq5kwhw<eefq5e0,ps0yxzs6stw2utu9uqhvt14",
"hgrhu5uzs15rtihq@rh7xnun7w4=arwqyepky<3supVpwf3w2sw55wOtqwttsris",
"rtwahutrswpcmhzi:=r7uhh4zk=5squ4Byvllwfwplsf92swtku-&-O5--55&-rq",
"weahptu42qhc45gtqr475quw8&7>2q86kzfs0ef3-3psywawat--q99t19wwr2rr",
"2ru14s1,,wq5arhnrrrhr==5t4uh57hlewfqtt32pfkphwf*qtt59qkwruuwu.=-",
"rq9q9r5425tiruxgurgqrrsg4>q92awc0pptAm25ewsfkytw,=-ausa2pwzp$414",
"92,9r2hrt4e22tuurtu4ii574>5ukw24a5yy6ke2wc9iFdfp5=<tuw5krps2w:54",
"q4r44222iw:wt4-=-r7gq:r7822wttt5N-ta66st3ew6e<$6ps92tgzwtta41wpp",
"w21=-r5tjvzkwur57zzkhh2@-5rktq6waqpfeexuifeS26352qq239tteq0whkr4",
";92259tq962sr5uw4444aihr9hwwkq*2yVms0qktt;;bw5aiwftsatptpw3wq<2$",
"922yczw9ru5t725#=42puhuqrkZ4-25te2wt03eyi3u5w3fSpaaq*,20s2q2-229",
",9wsctwqw5qr4&19wtawq47ii425wi2tsywwffw3eka*-55uawwt,2522922wr9<",
"0s0ftqwwrwq-#=4wpwptq24q952qw4-&e3,0ssfs3wtwy365qes5w92w2---942,",
"922qsAt9whauw2rq4141z44q-xM2qwu-2<t00tcfy3t62uszw0w5btykmzza9q45",
"q2549pqq77zcsq2shr44w12=-72ukwqu*20f033fk5<00<wtwvascu3,9tim52ps",
"kr2955wa44ra4uh9t44-@44:4r15zs-50;o3030,tuss5*wwtw952uz54hktr05s",
"O%q,r3ta224729a4==1rrq2%:hh4Av2$v02e0,p*2M2iCl2ckOO3$2vxz5&,2p9*"
};
