/* XPM */
static char *wool_colored_blue_pn[] = {
/* columns rows colors chars-per-pixel */
"64 64 69 1",
"  c #22218F",
". c #2A288E",
"X c #252394",
"o c #282697",
"O c #2D2A93",
"+ c #26259C",
"@ c #28269E",
"# c #2A299E",
"$ c #30309A",
"% c #2726A1",
"& c #2827A3",
"* c #2728A2",
"= c #2A2BA5",
"- c #2D2DAB",
"; c #302FA7",
": c #312FAE",
"> c #2F30A4",
", c #2E31AD",
"< c #3334A6",
"1 c #383BA5",
"2 c #3234AD",
"3 c #3539AD",
"4 c #393CAD",
"5 c #2F32B1",
"6 c #3235B2",
"7 c #353AB4",
"8 c #393EB5",
"9 c #363DB8",
"0 c #393EB9",
"q c #3E42AE",
"w c #3C42B6",
"e c #3740B9",
"r c #3C44BA",
"t c #3E49BD",
"y c #4145B5",
"u c #454AB5",
"i c #494EB6",
"p c #4146BA",
"a c #434BBD",
"s c #494EBB",
"d c #4F52B7",
"f c #4651BE",
"g c #4B53BE",
"h c #4F59BF",
"j c #5156BD",
"k c #535ABE",
"l c #5B62BE",
"z c #3F47C0",
"x c #434DC0",
"c c #4651C1",
"v c #4B55C1",
"b c #4E59C2",
"n c #5157C0",
"m c #525CC2",
"M c #595FC2",
"N c #5661C4",
"B c #5B64C4",
"V c #5E69C4",
"C c #6065C3",
"Z c #636CC5",
"A c #6670C6",
"S c #6B73C6",
"D c #6F78C7",
"F c #6E79C8",
"G c #7276C7",
"H c #717AC7",
"J c #7077C8",
"K c #737CC8",
"L c #848AC9",
/* pixels */
"=0cwv07mJ7-=670-67rhm9ze6Zm=xmp6bBB07675:nGCn0znn::C-9vbCp&7zp7-",
"9re6rp90nay7279a976wu66rfatt7-pM84Mr0xcZ:0p::07pxxc3wvavAx6rx:sp",
"mvx7wv66v27=-,rt99r95,6efhftg7aSy2nc60vn:p7:is4yw0:dgpmMm7a25rxV",
"ma92-rp=0vk3vm6679h996ahrt77kakfigrxcvn0:xC9:0pn6xpcxnxGZ07-0bZZ",
"mmAap2-66gre9f6=5rcvr77a-7t62fmejx0pGMCs66n0:nCCscC09:pjMm76aVSZ",
"tcmaa@.Xarp6==--76br9p2-gwreh<at:Mx8xpMp6p0pCw7ZpqCv0:=:99cargw7",
"50err27xa8r6-27pg-*=6re9fa77fwer:psp&7CCMxznjpcvy0cpxp:97777ps86",
"--0,=770rvBz7maew73abaet9,,tr>4vvn000nxx07:xnapp7Mx62p6;7s0s26*=",
":;2:r7678626rxxxBg7xxr7fte57bre5&8pn0::vxxnp8sd6bm7::snc6swpMx=&",
"::7aBr-7ap2*arvj7vaBBm9eee7=7,ql80:&60vpxxnM6&CnLM-:00nM2<jppx7:",
"rp0r6-yaa2-96:=*6rrxxp9-,ew5*eee::7pzz:99vvn06snpv70Mn-&py:3o&np",
"08708efVA6666p27,-96eegatghe5tl,::ssx9:9zvSpzM8:9:x:zm7;0vuj-rnm",
"723-0agw1kappanr--=*e6>bwl6tttet:zpnxvnz0::j9p7:p777var9sCl;687#",
"ng:--6a6N9rxMvc96--r>4uwo-ttbbtt0zMnMzxMx7px7BM:7770mp60pMo6Bmmv",
"a8-6mxbBabvrZC0786,-r669a-tefke<:xnnnZCn6a0:rnv:0ccnaZxxc:yaxaBr",
"+-82ebVN9,:8<376tt77reN7wff6e<eenCxnCxppCs:pw0cvxvMz,7xxzpBas7y=",
"ja76rrMpe>*o6e3Na>0rMSbacetqqee$-p0=*px7MCa0a+:xcsp7e9B9-67==*Bv",
"b086eawpftte3+rt9ba6mSBreeetlhtep<;*770Mv4s=2@&dx0xxc8ppp@X*2=BB",
"57-MNxZZNehkq>7c7mfetmZBcfeeetee8827spxnss880so:=-&xBmag977,8rap",
"v0x7mbcs,,qAcvNcfuZxg-+=be5,oeeqqsZBaxBp:sCcv:s::0@ppxrkra9grb67",
"v7tprZAgeqNttttbft,,fyeZllbtette:9hg=7d0:skCv008:476M6-adfbxae9r",
"56aB8BKmeqhhqehe2qr9Nka2>tbtt3e*:<41y2M::ap7cn-:s07;pcMBZ2r69t-3",
"av7p-@>2Ae>efehVN226efVaebtcl3eqMp:3Cdpxdpp:6Cp#4MC76amHge,*36>6",
"ct8e=r7ylheqhett6Nvr7eAa* ect3fe72=O&s0:py26B0yk::u:-:epae>fgAmb",
"vv7rABtrehkNcteht79,tttceqeeteeA7pu;:=8wffdqe2<ktB37qhNt7-rtcbvz",
"cNmrbtNbgetbNFccfq67tehchhee3,,l867M3=:yllAa2XdglNl5tVzzg72eNzet",
"Fvca*>>ereeVKVtecbbbAbthlteqt1tes3wAa$Xpftt5-8d7*=3q*qherBt* ,rV",
"bratw,,et3tVlAtdbbb7q*etFleec1b>38Msi4y:>XtwaZp73thee*5-,tat5,ee",
"=pvfNmAqhe>tVqtHt=,+q+qlFbtffhttsas7jZa-+,etcc35,eefer=6,7te77,-",
"r,t7efte<ttq>XtlN7eq,,tefbNhNqt32gs8Jper,=5Vte5ebt-3ebtft,<ew,e5",
"9-,7ee3etlt,eeeteeke*htcetcfNlNeir2677;,,e6X*<fftz*,7rgefr377eNe",
"=266,tg*qte,eetq,thttttclleelfebwnba73+fgBe,=trNcq=,ge7etBte5eet",
"3a9teNfcfkhthtt6qtNNvFtt7=#6tB9emg6r-ya87Hfr6k9556,b9zNc5-<wtt5>",
"-rtefft,ehVtltr,5etvtbf>,qe,eetfN7sy20neagaV8gNr6ca76rxtr%22->7-",
"*rfrcrv7elVbtNfe7rectVbr=*h3rfhgr6vataam669mgBbBNmr9tBVxa,ce57f5",
",,efr6tfte3wetfatr,-=eet6*qtNVrcBgs79NmrrwVvavtavfvvmZxvreafr-&-",
"Nc5=f37ge=37gft7te=,ew>,e-wq>e>t7828rKAp-7mnr72-7bZmtrrrfmca79,t",
"tbvbr=2i>,rfhgb95e,7wetbefe+r>&tvp90gbpr70r69i6m92bBee9rchcBxbNt",
"t96rgh37tfg<7gr>+675heehtrtehBa,vCvr7mevpM6z-600Nu&8Ne--39mgZvbx",
"96&,,rbefe7e>t5m3tct5e,elhh,rrtfxMp08ma0r6v7:706ggg8mr6rbreem6-5",
",5tfNhaV6wew=4NBtae667e,>69c9ZmvBN8p77sc6pvCmz7bw=gjp6,tNZ-,9we-",
"ecNA6Vtet,+=e,waN>76vr6rZg6frNacarmBp7a6:7nnNx9e7=aagpBSgZBeeVSw",
"AVtZrrat6tNwefrvb*tht97tNpfKB665:pb0p0x0666-mMx7:8702abgNqh,p7ac",
"bvVfg5ukhkVtwa>7qe,tavbaeat*f,>,psM076-myv76rpxn7r0-768agg2-,bm7",
"mbmbttgreagBe6lrat,7fB6-7xt67xBB36wnpsMmvmxnn0v06xxr6avv7=-,=paV",
"Ng9-,vNturfNNht7mBfaepq6657769,jjZ:6:6MMc96sp0cx07xp6,9eg2t7=fhg",
"e69cerabtt9bVVmVqNKmtbeetr2gcr6ajM0xpp2::6ax67xxvpz7t>,27du,27r9",
"7vfgmhtNf,6,9tkN6vr6etbbmv8ebrmp:pxnp8aw-xjwsCMb8var6gagwfemVt,7",
"bmtbx9aNv57xagme&am9BAfVer6-garesxvMs60vxcSc0n6p6va74p+pwuiabtvv",
"rtecmxatvrxBVbNg2=p9thh9lb-qgeg6AvBMM0npxMnn06n0amg<--=7--7w=>rr",
"tavvcag76emB2wkart7eeefer,r370erMmnv0xn7:7xncxvpcx--0eri,9reu2pa",
",af56g2--ze7vtbZretbt=,7f6ah77mMzxnwcp76aMmxvpn:eaa87rmraxdtao->",
"pr9e8p8768avuiBbttvwaagk32r72vpB7xvaGZ60ppvnMvxw---avvv6arBa&557",
"e2-9a2vaa7u65accaca9fg9w6<eamp67v7cs0bx:rB8jKnna7-6agp8maxg6t,96",
"e7a78336gr2ra7>--w9ve2pet22taai7A2sc00ns6pp8p:=8aj76pgmrzac7,rzf",
"w2,--p9amBNktaa9rlNkbk6*=etNaryev0cnpxVssMsG6y7770r34ractt9tbNt7",
"-97270xrew5vp8xr9776ggbr0nrrmt-6vCCv0pnxs::Cp0vn0nxbvavpat3p0-6=",
"066cBBr9as7xe67=-6-famxrrmA7,27ix6px07pvk6swy7nGvcc9-:68g6r3-668",
":7pvBar9r70t7&:8eacte6exb637yc2pvcppvnz6ann-<88svrxp-7773827pa8:",
"pn0vxrrrrrr-*-7rceaxe67w8w2re72=p7:8ncMc0prpj6080pv7r72a63--076:",
"7660bGz9rkfxe6rr9,7>B66r-BZ6erg266s0zxMnd7xw7abBr0r7CxxmZMMv7r66",
"06777v9r9wNBve6cbr76t,,--r6vmreg;6wM068nM7:00:rprBcvBs728avZ76cb",
"Ma6077px67tv7cb9x76>*56,9t,9mv;8y:&:00w:sgvv8=rpap077aB77mmpp09n",
"%*0:z7pc7569:7v8-=6tte,&,vb2JC6&Cy:p0:x:6Z:nSB6mM%&7&7CVN7=:5c9-"
};
