/* XPM */
static char *wool_colored_black_p[] = {
/* columns rows colors chars-per-pixel */
"64 64 48 1",
"  c #070707",
". c #080808",
"X c #090909",
"o c #0A0A0A",
"O c #0B0B0B",
"+ c #0C0C0C",
"@ c #0D0D0D",
"# c #0E0E0E",
"$ c #0F0F0F",
"% c #101010",
"& c #111111",
"* c #121212",
"= c #131313",
"- c #141414",
"; c #151515",
": c #161616",
"> c #171717",
", c #181818",
"< c #191919",
"1 c #1A1A1A",
"2 c #1B1B1B",
"3 c #1C1C1C",
"4 c #1D1D1D",
"5 c #1E1E1E",
"6 c #1F1F1F",
"7 c #202020",
"8 c #212121",
"9 c #222222",
"0 c #232323",
"q c #242424",
"w c #252525",
"e c #262626",
"r c #272727",
"t c #282828",
"y c #292929",
"u c #2A2A2A",
"i c #2B2B2B",
"p c #2C2C2C",
"a c #2D2D2D",
"s c #2E2E2E",
"d c #2F2F2F",
"f c #303030",
"g c #313131",
"h c #323232",
"j c #333333",
"k c #353535",
"l c #363636",
"z c #393939",
/* pixels */
"o&<;2%#7f%Oo@$&+##;86$:#+i8o29-+4w0%#@#+o0hw5%;56#+eO#13w;X$;;$+",
"%=&#=;%&6:;$@%&>*$@=,$@&,,:=@+>0*=8=&;<iO&-+#=#=::<&;<;3i<+=1@,=",
"43>$;<@+4@*OoO=;#$*&@O$&<7,,1%<g:@71#&35@;$+<,*>;=O44-784%>$+=>0",
"6>%@O*;o*1q#35#+#%6&#$,4=;$#7>8121=;<16*+<w$$&;2%:-,>3>fr&$O&2yy",
"56y>>++#+1;*&1#o@;<4-%$,+%=##17*6<%,gww3@#4&+6re,<r&*#-897#@:eay",
"-<7>>XX.1;;#Oo+O$#4*%;#O2==&7$:-@02*;,w-$-%;t=%a-:w2%+O+&&1:*5;%",
"@=*=:@&,>%-#+$*>1+OO#-&%<<%&,>*-#&,-o%te8-=66><33&<-;*O&$#&$;<%+",
"++&Oo$#&=3w-$7;&=$#:4>%;%O+;-+&213*&#321&$#-5>-<%8;#$<$O$2*,%@oo",
"@O++&#@#%++#-;:>q1$:<-%<,-@$5;$@o*>2=+O4>-7-$25#<6#@O372#<==q>oX",
"++*,w-O%<:#o<*38%4:qe6%*%#@O#+-t%&Oo#;5=:,8w@Ot5zrOO$&7w@%8;=,$@",
"==&;#+>:<++&@++X$==>--$OO&*@o*&&+#$==*+$$117=@36>3$&94OX-<O#.o5:",
"%&%&&%<ys#+@$;#%++&@&*2,>26%+;wO++>,:%@$*3d=&9&#*+<+-7$O=218+&47",
"$##O=;5-=0>:=>6=OOoo*#+6=9$<--$&@*;7,,6=%++4$-$+:#$&3:=#>yw#$%$o",
"63+OO+:%8%*>941$@O+-@*:-XO-:64::==e50:*q<&>,%tq+$##=8-@%-w.#9762",
"<=O@4,59>74*ie=#&@+O&$#%>O&&68%#+>645pr7#:$+*42+&1162u,:<@:>>>q=",
".O*@-5t0%+O-$$%#;;$#;&7%;,<@$&$%5a:3q>*=91+--*<2-5q*+%>>-:e>1%-o",
"3-$@=*9:%@oX#&#9<O$=703>,$:-@%*O+;&oX:;#8q>*<X+:23:$&$q%+@%+Oo0<",
"3&&&&>&:<<;$%X-:&4>+;85&&&%-,,,$=@+X%$*71*1O#oX3:*-:1&::>X.O$owe",
"+#+34>wuw#36-+&<%8<&&>0w4>@**=@&==#$<-=932*$%<X@oOO1w7,<$#&+&*::",
"2%:#72,,@+-u2<9><:t,2O.+3;@+X%=>=2p9:,w-@,e,1+<$O*X<:,=9=:%2-5@#",
"<#--=ra3=;02->:11>@+>-*i0y4-::-#+&41o#3=O>6e1%=&@%$&8@O>223>>&$*",
"#+,e&wk8$=36=&5-$&*$57;@#:1;;%$+O#*=:%9@#,:$,2O#<*#O;1q0d$-@$:O%",
">1%-Oo&-i=@;1$,45$@@&>r:#6=<e@$%0>@%w4:=3:;@$t=o-8e%#<8h1*+o#@@@",
"1-&=o=$>r8$#2*2-@82-$*s>oX%<;#4%%#oXX3=+::##0*-8$+,+++*;:*+<5p74",
"32$-ye,**683:&*5;$%+:;;<$%&#-$-d$;:@+o--,25;*+$9;q&%&59;#+*-,52;",
">95=3>721%:37e<,,&#$-*2>48>$@+Or*#&6$o$;y8a;@.81qwq#20,><$@=9:$=",
"h1<:O@@**==wf7-$:453h3;352*@;%:&,%-u<+ ;4;,+o&3&o+&&o&2&*e-O O=e",
"5*<:=+@$:#=t0r<<<54$#O+,q6%;2#6+&-923&:+O.==<p>$#,7=%O@O+:>-#+&%",
"X,3<86y&<#O<w=;e;O#X%o#ue1;1<7-=5:<%6s:OX@%:<1@@@&*<%:O#O@:*$$+O",
"=+:#$,,$#1,:O :t9@$&@$>#13367@=$#42&g;&*+O#e>&@&3:O#$2=>:++*&+%@",
"$OO@&$#&,6=++@*:-&7$O3<<%&<,885=<=@@%%+O##$.o+,2%>oO#=1$<*+@#&q&",
"o#$#+:2o$<%@@%<++*3>=>=,t9-&w<$6=44>%%X<28=OO=*91,o@2&$$,0:=@%$*",
"%>$-$8>>396=3;;#%,883f;*#Oo%-0$*81#=+:1&$y1*#8%+@#+3&=91+o#==-++",
"o*;%>,;+$2t:8;=@@&;1-6<O+*%+$&=>9%1-+*5=,77y&60=@1,#$*>*-X%@O@#O",
"o=>*1*1#%ew4:3:$@;*,:07-+O2$=,23-@4>;>:7#@&w4r8e08=$-ur,1+1*#%1@",
"++*:;#-1;&#**:<><-@OO&&:@X*:8e;1w4>#%87---y4>2=,2<237t<3-*,,*OoO",
"9<@O<$&2$O@@2:;%=&o+&;@+%+;&O*@;%&#&=hi:O=89-$###6u9*;-&<7<,#%@=",
"=526;O$2o@:1435$+&+$=%,3&2%X;@o;3;$%15;=$==@&1$6$#5w%=$*<5<q>60&",
":#@*35%%:,4@&3=+X#@@6=%5:*,&5q>+4e1-*9*3:6#;o#&&q>o*8&+O#&51u35,",
"$@o++*6*>&%*O>@7$><:#;+*w73@==>>>0;#%4:%&@3*+$%+261=9=@*3-&-7@O@",
"O#>>86:u$;%*+%8w:,&@@&*@+#$2$i72q0*-#%21#;1i8-#3*@55:$+;9y++%-%O",
"%19u$e-&>+Xo=@-,9+&@3=@*y<#>=9:1<-5r>%:@@#66q,$=%o,>2>0i3tw*&ep=",
"uq;y&;:;$-8;*<=46X:6:$#-9->lw@@+@:3%-%<&@@#Oqq>$@%%*#>429=4#:$>,",
"72e<1@>5240;->+#**+->23>&>;O1@O+:29%@#+6:2%$*><4$=&+$@&>33$o+56%",
"6575=-1&&><0*@8;<-@$<0#O$>:$$>ww%$=5:<9720,85=3=#<,*#:24&O++o:>e",
"92%O+5q=>;1073;$79<,&;&@#+#$@$+65w+&@%77<$#>:&1>%%:-@+$;2$:&o>52",
"*@&1&-,5:>#8yw6t:0j6;4$%=;@<<-@240$-;>%@+@2<+#><1-*%;++#$2;@$*=#",
"#1,286-02+#+%;50$4=@*;3652%*5;6:+--6**:*O>7*2r05=5>-%2,2-1*6w:@@",
"55=7>#:04+#:>27=X,6$qi,u&*#o1:=%5=18,#$4,<f2=5#>$5,&=-.>*:<<4=23",
"=:&17<1;1->eu702+O;$,22#07O*2=<#i<w09&6*<q46*#6-,92%+OX%++%=O+-&",
"=:22<:3$@*70#*6,*-#$$*<&=O:$%&&=7843*-4$O$:4<-2;3>OO&==1+&=*<$<>",
"@,1+#3#OO--$2=6i;%*3-oO%,#>4%%48;-5=1>&#<86<3-7O=><&#*9--<6;,.O+",
",-&*&:*$@*13,4e4:-3->>38&$*$@1:e&>1>fu@*>,4463>-OOO3254#,&w,o@+$",
"&#O*>#4<,$<@@12,:><$,3%=$#%>8:@$1=<1-5;@-q=3f67<$O@<4:*9>>2$=+$%",
"&#,$*$%#4-+->#@OO-&2*+>*:$$-;,2$p#,<$$4,#:=;1#X*,6%@,68-:>1@@->,",
"-#+O+>%<9rq8:<>$&e0666@XO==7:=>=2*,4;;e117:f#-%&*=*%==>>==&-38;$",
"O$##%&:%*=@3:&>-$$&$124*&5==7-O@<ty2&=6>1@#q:%19-6:53,<:>;$;*+%O",
"*@@<eq;%;<$-=@&oo@+,<7>&-7p#+#%1-$::%@=26@>*;&7l132%O+$*3$=$O@@*",
"O%-4q,=%=$%-#o+&=,1*&@*,3@#$:<@>2<;=35&#,81+$&*12=->O@$$%&#$-:*+",
"=5%4,$**-*-+oO$-,&,,&+#-*-#*=%@+=%+=4,8<&;-*5#&&&=4$=$#1$#+O&$#+",
"$@@=3j:%*5<>&@-%$+%@9$#=+wy#&*2@#$<*->983$,*$<40=%-#y>,6t802$*$$",
"%@%$%3&&&-9e2&@24;&#-@+OO-#<4==1+#=7*$%40%@**+*:*w<3w,#@-,1r##<3",
"7>#=$#*,@$-<%<3&>$$+o@@O#=@%83+=;@X$%&=+1244-O==>,%@&<0%$57,:%%4",
"Xo*+;@-1$@#%+$2=Oo@:;=#XO34@fr#oy:#-&O<O@i+5sw@08XX$o#wq7%o+@1$O"
};
