/* XPM */
static char *wool_colored_red[] = {
/* columns rows colors chars-per-pixel */
"64 64 83 1",
"  c #670605",
". c #6B0606",
"X c #6D0806",
"o c #6C0908",
"O c #720706",
"+ c #780706",
"@ c #750807",
"# c #7B0907",
"$ c #750A08",
"% c #7D0A08",
"& c #820A07",
"* c #840C09",
"= c #8C0E0A",
"- c #920F0B",
"; c #980F0B",
": c #85100D",
"> c #8D100D",
", c #94110D",
"< c #9B120E",
"1 c #861210",
"2 c #8D1411",
"3 c #8F1915",
"4 c #941411",
"5 c #9C1511",
"6 c #951915",
"7 c #9C1915",
"8 c #901A18",
"9 c #9C1D1A",
"0 c #A1140F",
"q c #A31612",
"w c #A91713",
"e c #A41915",
"r c #AB1A15",
"t c #A41D19",
"y c #AC1D1A",
"u c #B11B17",
"i c #B21E1A",
"p c #B91F1B",
"a c #9D211D",
"s c #A5211C",
"d c #AC211D",
"f c #B3221E",
"g c #B9221E",
"h c #A42421",
"j c #AC2521",
"k c #A72824",
"l c #AD2A25",
"z c #AD2C29",
"x c #B42522",
"c c #BA2522",
"v c #B42925",
"b c #BB2A25",
"n c #B52C29",
"m c #BC2D29",
"M c #AE302B",
"N c #BB3127",
"B c #B6302B",
"V c #BD312C",
"C c #BC3A2E",
"Z c #BC3531",
"A c #C12925",
"S c #C22E2B",
"D c #C3322D",
"F c #C8342F",
"G c #C43531",
"H c #C93633",
"J c #C53A35",
"K c #CA3A36",
"L c #C53D39",
"P c #CB3C3A",
"I c #C6423B",
"U c #CD423D",
"Y c #D0423E",
"T c #D1483E",
"R c #CE4441",
"E c #D24542",
"W c #D14B45",
"Q c #D64D49",
"! c #D84E4A",
"~ c #D75249",
"^ c #DA534E",
"/ c #DD5650",
"( c #E96361",
/* pixels */
"%<f9x<<m!4=%-4q*,,emm<r<,UC&fDe-bJG0;;;-*m!Gc0wcm-*L=;fcHt%;rw;*",
"<w0,qe00myt4-40y5<,7s<;0udyq-=ym68Vw0wuU*0q==0-qyyf49xrcRf=qf>yq",
"bcr<tf;-v=4%&=qr<<q5,=,qfBfrx4jRt=ni;5xn>e;=ht5hq9*nzwmmc<y>>qiS",
"cy<=*0e%5fZ,cc;-<<N5<,dv0e<,myVfxfqwifb5=yH->4tc4ywiyci!P5-=;gYY",
"cAPyy=*;=feq5i4#-wfge;;d=,q,,dm7ny;i!LGj--c5*mGHyiHq5>wZGS;-rLQR",
"riSyy@o.dee-&#*&,,g0<r-:jeq0b1rw>Sj5ryGq-w;tH5;R9aHx;=&=;5pu5m9,",
"=55qt=5yr5e-=46rf:%#;e0<if55d95q-;je%;HGmyqcnyjxh5iwwq*5445,td<=",
"==q*%<;<qxHq;br00,,rgd<e<==ew=4ffc5q;xjjq;-ecjwh-mw;>y-%;f5y,-%%",
"-*==w;=4<-*-wrwuDf<ruq,ffr,-Nt<-*4txq**ciwcq;jn-gc;==xmx-j5qHt%%",
"==4dGw*4dr-%yqfm,vrDHb55<<,:;>7I40*%-wnqwumG=$Hn(H**;5nS=1mtqi;=",
"qq5q=*trd==5-=%+,0qrre<==<5=&554=-;wwq=0;fiSq-jcyj;qSx*$qh*2o%ny",
"<;;5;wxPR->--t>,==<-05fddfN<=rD**=yiy;=;wcEqqS4>;=f=wc;=qihm*5cS",
",->&5rc72Zrrermq&*##5,=v<C,frr<0-qtmyice5*=x;y4=t5;5xy9;yPZ1-5-%",
"cz-*==t,D5qwScx;-:=e:6aq@%qdNgdrqqGnSwqGf4yt4HS=;;;5mw;;yGo-SSmx",
"d7*=cucGrmxwYH5;5;=*0,<<d*05gD4>=ymccRPA-r5-qcf=5dfcjPiwy=tyuyH0",
"O&<=7AHH;=*71>4-er<;q<N<edf-,6<<nRucLyqqHj=w9qifwmSq=4uuwtGyj55&",
"fw<-q5St;*@O-<=Dd=<wBTcid<sq>e0&=q0%+tu-ZGyqjO>tfjy;0;G;=-4*&+Zu",
"p55,0teyffe;>Oqd5vf=VED000<wINd<5>&%4<5mx6j%-OOxr0wrf4rttO.%2&HH",
"=;=mArPRJ,lN7:4f<Af0yVKHvu,00q-7771;ftwmxh6;<iO=%&*jGmuf<;4=55ry",
"x0r-bguy==7IfgDddeKrd*O*g0,>@<7s4zRDyiGy;hPif=y>&5OywiqZwu4ceb-;",
"p;wqwHExqaDfedrffs=-xe5UDINq9dr,*5cx&;v5=jZLx;q5---4S-*yjjgyy<<q",
">=uF4G^V<5gN74Ne-55<SVw>=sure4<==18892Z>1yt,if%=j5;*tfZGR>q-<r*-",
"rp4t&$==I<>rl<gDg4-,5uHs4NruI>,>Gt=2Gzwtvtr-;K5$8SP5-im!fq*@>>=-",
"iw57&e,tIC<3N0dw,Nfe<<Td%$4ir,N65-&O%v5-tt1-G57m-*t*==5ty5=fnEbg",
"pc4eIFu05NNNfw0Ns<5-urrf4>04e<7T-th*=&5wyxl6e*:ZeF3,4MDr;*weucgw",
"rScqgdNgf<ugATfud5=<rqfdNNu5,==I5-8c-%29INWr=OBjCIC4lDurf5,7Dr<w",
"/fir%::7q00K~At0fgNf~NwNNfq,s<d<y49Rf%.tved-*5v5#:34#3v0eGw% *qK",
"cedr7==<d,qIITufNbg<>&=d~I<sl,N:85Zxk49=&X07dUt4-sN05*,*=rdr,>q<",
"#tcfVbT5f4*dFasTs*,%4%>TTNulgCeevtd,nRt*$=<dff--=0qd0t*,=,se,<>=",
"q>r<<id,,dds%XtTD;,<:>d,fNNNC,r<1vx5!t0q==,Id5,egd:,<vrur==77=,-",
"5**,q<45dNq=4s5rs5N<*Nff00ilNCNqhq--4,*==,,X#*df0d%=,wu<iq,,<qGq",
"%4,,>yv*2f4<<qf>*eNdtuqdTC06If0N5bcu44OifCe*%qqDfa&=v0;;rIrq,0<e",
"4r,r0DdufCNwNrs,,fDDg~rq,*%,dJ<0Dx,5=tx54!i0;m0---=x5eGp-&:5ry=*",
"*0r0udr-<fIdDdq-,0rfrNd=*77><0wdS,j9>5c5ynjP4nS;;fy-;0rqt#2>*=-=",
"#quqv0f,5IIfrgr5>tqdrFAs=*v4qdgvt-cyuytm->5SxHcHSc50wPHyj=pq;4j-",
"=>qra,sfr5,00dfduq>=*45r,$6rAUsfHxy-;Sbtw9PfufqufffpcPjce5yrw*%*",
"Dr,&d>5f<*,,fds7e0*><s==4*q4*5>q44=5e^Er*5Smw;1*;mPA0tw0fmiu;,-w",
"wNfNs&3l*=sfvfg5>5=;7<df4N6@e:#agw;5fcw5;ee>4j4A;-cG0q;qiviGybDw",
"r<-5fN4<rdN:4vq:$,,,gq5gd0f<mJr>cHfw6D5ctc4w*-q4H9%5A<=*-,cxUfvi",
"<,&==0Nqd547=s,B>due=s><DNf=qqdriSr;5cy0q-c5-;0-jmx7S0-0cr5eb-==",
"*;fdNNsU,t<7*>mJdd5;-<7=>>,g<UNgGH0w-4xx-tiYcq;c5%nmt-=rDP*=4e5*",
"<uAK<Jr<y>$*7>tdC=<-fq-eUd,uqArfh9cLy4y->;ccGi594&tyjyGEvKJqqKW7",
"TFrU5tdw<eVeqf7gN$eNw<<eDyy/J---1tc;t;yq-->*mSu;,44q-ygfS8v-y;yu",
"NgIff-dvfNJyte>,4q=rdfgd5re*v>::yxm<--=mtf;4qwic<q0=<=5tvc>*=bA;",
"mcSbqrf00dfD0-Csdr-<fD-*,rr,,iJJ--5myjGmcSymcqie-py5;tcc4&*=&tyP",
"Dv<*-gGesefSbgw4NDdd0d<-,=,<,,=nnP=4=-SGx;-yt5ir0;uw;*4qx>y7%ymf",
"0,<f0esgrs<bKKgIaD/Nev<qww-jfw,xzm;wwh-===yy>-iidwq,e==>4je=,4q,",
"<fdfNgdDf:;-<rND>gq>ergNcx55brmy-qwSq4yq=um5xHSc7cuq4xdfei7bKy,,",
"Nb0Au<ySc=;rycbq#sN<FUdU00,*ftq<zwjSi>4xyiEx5c4y4ct48uOy5txicqcc",
"er0fbuiyierKKmmv=*y<dgf<DC*7cqj,RiHSGqcwiGnc5-n5tSf2**%4==45%*e0",
"qrcfyyc;;qbS,5nyqw<<<qdqq*t>,q<qSSccqwc;*4rciwfrfu**q57j=5w5j,hy",
"=yf=,c=**w7<xrbUs0qce*:5d,rc,<bVqwcqjt44iScicrc=5ui<;qcwqyztyo%=",
"y75qqe44,5jftlGgrevesdvV6,0<,fyJ5ufi!Y-5rhxcmxy9***ffcc-i0Hy%-=;",
"44*7y-cyd,s==jxiydd<uf<7>><dDe><j5if9cw-wS5n!mci;*=ixt4nyrf4q=44",
"q;s;442-ve-wr,**=q<fq>s7s,>eydl,P2yi55xj4w95e-%5in5-ycmqwuf-=tup",
"e-=**y5yBFDVsdd<0JDmmN,#*7qAw0tqf;igerHixSy!-9-5-q0245uuq50wpSr-",
"*5;-,5r05q-gr5yr,54;xfc05mqqmw*=fPPfqecij>=Pt;fmwcwgfyiuuy-y5=-%",
"q=-yHDy<ei<wq=4%*;=idmyqwmE4==4jw4wu;-wfn4y5t4m!yxx<&=,5x-04*-=7",
"*0wcHyq<w4<r,%=45uxq5-eyx;4;tf2ygitqccq;ymp*14qyp5wr=-;425--wy5=",
"qc5byqqwwqe*%*;wuqyd0=;e49-0q4=%q;=7ciSi;9yqn;55qqc;q;-h-2=*5;-=",
"<--qg^y<0bfiw,w<4=<*S;4q=HR-qqj=->j55yHmj5y9;dgGq0q;HyycPSSx5q44",
"q-4-,bq059GHf<,fce<;q>=&*e-icq9x*-qm54-nZ5=q5=5r0HigHf;27fzL;-fg",
"my;7,,wi,,ri,dc<y<-=&>;=;e=4Sc14t*$404q=fjnc9&5rdy<;4yH,-mmjt04c",
"@#5=w;wi,-,<=,c7*%-tyq4+=gc;!P-%R9-w;=y*-P=nEG-GDO$;+-HHA;*=-c;*"
};
