/* XPM */
static char *wool_colored_cyan_pn[] = {
/* columns rows colors chars-per-pixel */
"64 64 83 1",
"  c #1E4B6F",
". c #1D4D75",
"X c #1E5172",
"o c #1D547D",
"O c #1E5A7E",
"+ c #234D6E",
"@ c #204E73",
"# c #205072",
"$ c #23597B",
"% c #1D5681",
"& c #1E5C84",
"* c #1E5D8A",
"= c #215D84",
"- c #215E89",
"; c #1F6186",
": c #1F628B",
"> c #1F6590",
", c #216286",
"< c #286287",
"1 c #21658B",
"2 c #2A668D",
"3 c #226A8E",
"4 c #296A8D",
"5 c #24708F",
"6 c #226691",
"7 c #246C93",
"8 c #2A6E94",
"9 c #256E99",
"0 c #2D6F98",
"q c #306E93",
"w c #267295",
"e c #297296",
"r c #277996",
"t c #2D7997",
"y c #26739A",
"u c #2A759A",
"i c #27799B",
"p c #2C7A9D",
"a c #317395",
"s c #387297",
"d c #307897",
"f c #32769B",
"g c #327B9E",
"h c #3A7D9E",
"j c #2B76A1",
"k c #2D7CA1",
"l c #327DA2",
"z c #397EA2",
"x c #2E809E",
"c c #32819E",
"v c #38809D",
"b c #2F81A3",
"n c #3383A4",
"m c #3A84A5",
"M c #378AA6",
"N c #3B89A6",
"B c #3584A9",
"V c #3A86A9",
"C c #3688A9",
"Z c #3C8AAB",
"A c #3F90AD",
"S c #4285A5",
"D c #418AA6",
"F c #4286AA",
"G c #428CAC",
"H c #498DAD",
"J c #4491AD",
"K c #4A92AE",
"L c #5192AE",
"P c #5399AE",
"I c #438EB1",
"U c #498EB1",
"Y c #4591B0",
"T c #4C94B1",
"R c #4F98B2",
"E c #5295B3",
"W c #5B95B6",
"Q c #5499B4",
"! c #5A9CB6",
"~ c #5E9DB8",
"^ c #609EB7",
"/ c #629DB8",
"( c #6EA3BC",
/* pixels */
"*iBunyeGQe3&73i3wwpNZrbr7RZ&BZp7CHIj77y>*FWIVjlZZ91I1wnVIk&ykjy:",
"epiwkkyiVlfw7wycewwegewubcpp73kG88FkjkBT-jj6:j7kkkn8fnnVRn6kl6nk",
"NClyumw6V6e=:3kbyupyw:wpnNCnnegWe6VB9jlV6j96fj0ffu-mmpZGVil16inY",
"Zny61ik&eBS7nZw6wuNyw7cNppwwZlDnzBullzVu6jI969fV7kknnVnQYu91iZTT",
"ZZTll1177npiuBw&3knCpwwn1wiw7nZyzk9lQIIz69V9-VUIlBYii7jFZA77lKER",
"pBZBk%@@llp7,&1:wwZiwk5:muppV<kl9IljkjFj9kjjUu9EuaYB9616uyBnjNu7",
"7yipp1ellwp737wkn,,&wxpwnnrwnfyk9jjj*9UIFjjVVllzsjzklj-997eejle7",
":6i1-yyyiCGkwZnype3kZbuke13xp37nzk9j9Bzli99jVlpleVl96j8-9Byl86=*",
"6166j96yu616knkBInynnjennxwwZpw7*9jzj**CljVj9lz7VZy66zVB7lekIk*%",
"667lIk17ll6&niCV8VnGYZerrww:w7eK9j*-9kmjlBVI6%UV(I*:9uVG8-FfkBe6",
"kjij71fnn31e86-%6ikbbgy1:ye3,ee7*9jjkk>yjBBVj6lVlB9iIB>%uj16.&Zf",
"yeeywumKL77w7j663>ywurCcnCZe3cJ:>>llky6yjVEjjI0696B6kV9*uBsF1jZZ",
"776-ilNe2FnkunVi;1&&u51NeD7nxxuu6jjVnBZkj:6Cyk9>ue9uVljylUF-799$",
"Vz71:6k7GuilGVBe7:1j<8dpo,knZNxnjjIVGljYlyflwHI>e99iVk9ykG@7IVVV",
"le17ZBCJkZVpTIuyuw61i7wel1uyZAw36lVVVEUZ7lu6iZV6izlZlTBlB1jlBlUj",
"%-e6iZYYe3101787pnw7lyZefnn7w8wemElBIljuIl6juulzkVIk>yllklGllee:",
"Vke7kuGfe1%%6e3Gn1ykSQVnnyfp4pu,1li-%kl7UFljl%6lBlk9iiG967w1==SB",
"Viy7ylilnCl97opbeVl6ZQYiuyybKZneu1-&8eiVl8l*6%%zkjjlnellgo.=11UY",
"6y1FZnTEH7zNe18neZnipDTHNgwpypwr0019BukGzzu99z%6-*>lGZbnww77yull",
"Vil9ZVBl33eRmVGnnlTBm1o1Zrw1$wef0lEGlBHk9jUlz6j>*u%lkBuGknenpZ77",
"nwnikTENpdGnpcnnCf33nuuLJHNpfcp7<yZn*wme1zFUzjj96696G6:lhmZnnurp",
"76nKyH~Z7tCNtemr3rpwGGl33gCxpwe1:<82s6F61ll9lz*>lj91pCHGE1i7wn,7",
"nCef1%11Pe3cvwMJZe3wwnKg5NxnK5e2Gf62Izkkmfu79U9$2IUy7nG!ny1O3617",
"Ckyu*pwfKDw4Nrbx3DCxwuPnOOwnxwMe97*@$lu6kf67IuuN9-f113epcu3nNQZZ",
"CVyuTJnrtNZAnpxApee7nxxM54rwxwtP7ls-1*ejllzqu1<SgJ44evGbe1pxMZCb",
"nZZpCnACmexNAQnbnr3wxxCxNNne531Ki68Vw-6uHGQl6oSnSJGwhJnxnwwuNbyk",
"!CCl$13uipuK~AgrnAZC!MxNDMr7c5crl60En$@kzpn31ume,14eO5CpxKx; 1uT",
"Zpnkt33wc5pKKKMnNNZw1;3n!Krpc5NO80Gnh8a11XptgLfw3gNur:w;1xbp33ii",
"&fCnDZPrM5,nJadQp;5,4O5QPcxvcDxrzllyvLg1$1ucCn733xrcug;w:wcuww51",
"u3nwwMcw7vndOXpPJ55r35c5MNNND5x51mly!lii33wJnuwrNb13wZxnn31rr3e5",
"r115rw5rnAp35tpxxrN5,MccrpcMAJAxgj677e11353oO1nCun,,wpCwnx35ruJp",
";7w51nNO4cw5rpM3;xNxxcxnPNx5KcrNfVZne7$nnJt1,upNCd;5niwwxJnp5rrp",
"8nwxrNnnNDvxNxxwwnAANQxx5,O8xJwiGn7k1fne7!npwNi6771ZipZM>:1exx31",
";ixinnc7wNKnAcr33rxMxZn11tr5rppnG8ze6yVinNgKeNIiwnpwwpMku;2311w1",
"&inpCpn7uKKNxMxr5ppnxJZp3,c5xxMNp6ClpnlZw3wJnYZYIZiipTJnc3Miwen3",
"17pnd7cnbe7rucCccx5>:wrb7O8cAKfnJVn7yHZppuYCnnpbCnCVZKnZpubnu:;:",
"In71n4eNe15wncgexr;3wp5:w1re,r3k9969p^Ek1eZZje1<7ZTAjppilZCnww7x",
"kZNNu;4l;1pnNNZw>r>ruicNeNeop,=fVk9unZkiyjj6ylyNe6CHiiyiCNBYnZAp",
"nw6iNNeycnv3evp1O5wwZuyNxpneZJb7VIBpeGiVlV7k:7pyGf&eIy>:6eZnRCNb",
"y7:13uZineet1g3N3xnp3u3eGZN3utbnlIkyeVkyi6Be3yi6nVNyZkwpVkyuZ3>w",
":wnbZNgRwpee17ZKcgewwwu733eCwKNMYJik77mn7pBTAkyNu=NVk76kHY:3wpu1",
"yCAReHfyc1O;t3pgG3e7MywuKneniJcnfpZKl7l67yBCZByye=lllgJTNYKuiTQp",
"RJkRupnpwpGptniZN=pZbwwpJpn!K7w3-lByjyny6761ZGny6i7u7lZBG8N7pwbn",
"ZCKnM7gZNmKppg3weu3pnCMnwng=n311fnVjy71VpB97jkbByji3y6efmm6:3ZZw",
"GZZZpbnuunnJu7Dpcx5wnJ7:wbxwynGH79uVllIZCIlZViCj7Bly7fCVe=:31gbK",
"Jne13ZJpgpCJANneNGnnyceww>ww6e3NVH6869ZGn97ljiBkyybkw3ykn3ke&nNC",
"i7ynipnNbpwZTJZKeJ~ZpNyikb7nMkwlzFjkjf6766ll7ylBnkkyp1378zg77eie",
"wnlMZZpGn3wwwpmG7Np7ulZNZNyeZiZf6ljVj8lj:BVizUIByBlpelnnyByZKk7w",
"ZAiZnybAC>wbbnZp&fZiJRnRypw,ncpyzkzZz6yVllEniV9kwZfe8p$kiflnZknZ",
"pbiCZnnbnpnJTNJn31lwnCZwDZ1eCunwTBUIIiVinIVZi7VilZn<,1&e31ee=1pi",
"ikCCnlnwwuZA7eNnpxwywpnup,f3wuypIAVBjkV9>7lVBkBjBb>:uyul6ypih7gn",
"7gn67V31>puwNpGKgppNp,1elwnZeyZZkkVull99lZZnZjZ:ubnwypZkknmfb@;1",
"luyiilew7egNfhJZbpNpnfnS83pw7nkHulBzWT7uklVBVzlj:>:CnZn7BiGl&w>w",
"u71el7Zfn8l76nnnnnnwnNyt83unGl6el9lBuVl6kYuz/FVBw:6lmpeZlbCwp3ww",
"pwgye777np6pnw3,1peNu3gpg37pkkl7T1BBi9Vlejjuj6*ynVe6lVGjknC76pbB",
"p7111fynGUJNfngeuHGZZN3=;ybZljfpBjlZllYlmFjW9u68wii88ilnkiykZZkw",
">yw6eibuey7Vpynpywe7nNZiyZipZp13BTTBjjVlz16UjuBNiZlCBlBlnk8ku67-",
"i66nUGkipCykp7e,:73nlNnplZQw17whk7kl99jBV7lej9ZWznCy:67uC7i7-66e",
">ujZIljikyyl7,3winNii7pnN74yfB7lBBulBVj9lFV1-eemBjjb1we76e89pky6",
"jVyVniikkiu1&17kBilnu3wpue7piw11jy1uBBZB9ujkS8u9jjCyjy7g8111iyw>",
"y77uC!kypNnni7kiw3w3Awwp<JR7ppn198lujlIGz9lu7nCHkijwYnnZTGJmei97",
"i7wwwnyjuuGYZy7CZke7p33::p7nMpyz-6uVu97NFy6ii6kliYBCJn86ennKy7BB",
"Zl7yywjBwwbnenZybyw1;35:wx3yAV1eu-%6u9j1lNBV0*ipblyw7lHweVZlfyyV",
"&=y7bwkn77ww1eCe,,3kppw;:MZ7!Y7-U09ju>B*6T6VEG6JZ%%w*7YYGy:>7By:"
};
