/* XPM */
static char *wool_colored_purple_[] = {
/* columns rows colors chars-per-pixel */
"64 64 77 1",
"  c #56087C",
". c #5C0C7C",
"X c #5C0982",
"o c #5F0B89",
"O c #610B85",
"+ c #630C8C",
"@ c #680F8F",
"# c #6A128E",
"$ c #660D91",
"% c #6A0E95",
"& c #6D0F99",
"* c #6B1196",
"= c #6E119A",
"- c #711497",
"; c #72139D",
": c #75199C",
"> c #791D9E",
", c #7515A2",
"< c #7916A5",
"1 c #7719A2",
"2 c #7A1AA5",
"3 c #7B17A8",
"4 c #7D1AAA",
"5 c #7E23A5",
"6 c #7E20A8",
"7 c #801FA7",
"8 c #821DAD",
"9 c #851EB1",
"0 c #891EB2",
"q c #8422AD",
"w c #8824AF",
"e c #862BAC",
"r c #892AAE",
"t c #8621B1",
"y c #8B24B4",
"u c #8D29B5",
"i c #8E26B8",
"p c #8F29B8",
"a c #9026B7",
"s c #902BB7",
"d c #9127B9",
"f c #932BBB",
"g c #982EBE",
"h c #8D31B4",
"j c #9233B6",
"k c #9531BC",
"l c #9933BE",
"z c #9539B9",
"x c #9A3ABE",
"c c #9B40BD",
"v c #992FC0",
"b c #9732C0",
"n c #9C34C1",
"m c #9E3AC2",
"M c #A136C4",
"N c #A23CC5",
"B c #A63EC9",
"V c #A83EC9",
"C c #9F41C2",
"Z c #A442C6",
"A c #A649C6",
"S c #A849C6",
"D c #A642C8",
"F c #AA44CA",
"G c #A748C9",
"H c #AC4BCB",
"J c #B04DCE",
"K c #AE52CC",
"L c #AE58CC",
"P c #B154CE",
"I c #B45BCF",
"U c #B44FD1",
"Y c #B454D1",
"T c #B65AD1",
"R c #B95ED3",
"E c #BA63D4",
"W c #C471DA",
/* pixels */
"%9ftv84bY8;*229;34ymn9v4<Gm&fmy<bBV84<8,&MYVg8agM<-N;8glVy%80y8;",
"8y93yy99nyt2<49p8424u23tvtut<,imq1Mt0adF&00<:080yaf7qfigJf,id,at",
"bvi4tf4<l,4*&<ti49t9<,4tfbvpg4pKq:lg38fl,07;w07rw9=lkaMNg8a;,0fN",
"mp9,;90$8gx2vn4,49b933ubtt43bpxpsftadgl0,aM777wg2iyfsgdYD84;8vHJ",
"nmHiy,;41py99f3%<ipby32p,4y43pmtka8dJNVs<<g8-gVVyfV98,0lMn42iGJF",
"0vndi+.Xpyt3%$;=43b94i<;k4ttb;ii<Ma8ayNw8000Z87HtqVg9;=;89fd0lw4",
"<499t,8dp4t3,24if;*$3y94vb44k6tt<8a0%7VVMa0lladgr8f0a0;84244ya8,",
";,9,%848ybBy4bi8941pbp9t4,,tt;1bfg888gss878yluyr7na7:u1&4fqp21$%",
",;,;93<89,,1iiadNf8df06vvy22by4<%70f0&&gdag07sg3gg8,;slg3y8yNa%$",
";,7yVi;2dy,$atgl2ldBVn4t492=4,qZ78-%3dgaddMN;@ZlWV&=80lM2-lwyf8;",
"0080,;upd,;83,*+,90dit8=;4q,=q92&80000;08ggn0<agyg80Ml&+wr=>.%ly",
"888888dAH213<0,7,,9<98gppvb4,iZ=;,aaa8;80gJ00M778;d,yM8=0gwl;0lM",
"7<:-til8>xay0alt*;%$q2;b4m2fii9970anafnw0=;k8y<;y388gyw8aFm-377@",
"gf,;;,y2M80dMlf8<,;t;6wt+*ypmbyi80NgMa0Va8ya8DV;8848My30ymO2Mngg",
"a7=<ndbZyMgyFV048<,;9244p;99bm4,,anglHZM7a8,0gs;8ffnsFdas;wadaV0",
"O&0;9vFN8,=8::23yd44t4N4tpf<2644fHagVa0wVy;iq0fgikV0;8ddyaNas87&",
"ga8,i0Mt4:$o<8;Nd;8ilJMdv4yt1tt*;y0%+0i8CNy0aO;afsi8t8V8;42=*%xf",
"g0878wwyffy41+wp8ld1lPZ04t4iHbv40;&@280xs7s&<++ga90af8tyyO.*,=NF",
"17=nMdFJZ3jb6=4k8Nd8ymGVbp44ty1477>2syilks778sO;%&=aZndf844,8tap",
"g9d4Mlfa,;qHkbNdftFfj;O=bt4,o4qrqsHNafVa7rVag<a:&0Oyyftxyi8ftl32",
"f4attFJfttCbypyvku,<fytACCmt6ui4-8nf*7f8;sNZs8087<8:M<;pjsvff98t",
"3,fF8ZRx4tbb64zy14t4mmi11ubiu46,;-2>q:x:;ay2ag&;a77;0gCNK;t<8y=1",
"ag8t&+;;K61pj4bmb2,28pFu3btpC461my,>Zkiykwy<7Dq+>MV83fNTft;@::;3",
"gy88=w8wCC41m4py1mby4tKp*o6bp4b471*O+s01yy;<N8wx3-w;;;8tyw;flJMl",
"gg8wHZptqnmmv9tby44<puui,164y46T7ie-;&8wpkh6t;:xum514kmt4;tipnbp",
"dNnwbpmbf4fbBYvvfq34iubbbmb43;,C8<7l4*;wCmJi,ozfCCC4hmvvg43tmp4i",
"Tgfi*;=ttttDRmi4fnmbTbibmb4366b3a<qJd#.ikyp3*qk6$=52$1bttZi%X=9V",
"ntai6,:4p2tGCHbknnb41*,pEC4ub,b&17msh2q;*Xy4pHy21umt4=,=,uut,,99",
"$ygfmmHtk2=pZ66Iu=3$1$,KLbbhbb6bjya8zHp;o;4pvb3,1t4k9y=,;3iu23,;",
"t,p48fu12hpe*XuHC246;1p,bmmmC1b4:ks8Ty8w,;4Gv4,4bp;14bybb;,4t,43",
"8;=3t44tpmt,2ytuy6m4=bbb46bbCCm6ut2124;;,31o$&vb4b%;4yv4b43149Ct",
"&142=pk*1f424tk,;tmp6b6bHC64Cb4mwlld42+dbCt==4ymb6&,b434bmpt3t4i",
"2i2ytmpfkmzibuu4,vmnbTii1,%1uZ4ymd4w;wf84Tft3m8,<3,g4ymb,&;6iu,=",
"&yi9pfp<4bGpmpt234bbtmp;;4614typN4sq;8ltpkhD4bNt3fy44tvy9$,,;;3;",
"$tftvtf2tGGbpbp4,ytbiCny,*b1ybbkt<vyyyyx3,4NbBbBNMt8iFVvb,b444k,",
",,tft1ibiq44tpbpb6,,;44u3o4umGtfBkd38VMtytDvpgypgfgvnFpb94vit=%=",
"Nd3*h14b4*32kpy4b4,,4y1,4;46=q,u42;8tEHy=8nnt8;;2bFMtyt9pnvv44,i",
"inlbt=1h*,ufbbn4=4,4t4ib6b6$t=$tga89gnyt8t0<4f4b4<lN9t49vbpmbbm9",
"d4<9kb44ybj;6ht;$333bt9bp4b4bZp,gDgt4N9vyn3y=<94Nt%8M9,;,4nvFvnv",
"9<=;,ybtit46=u3b,4bb,t,9Cmb,ttppdMy88by99<f8,99<fxfwm039bit4n,,3",
"=3ppmbpH3t46;1mGb64434b,,,4b9HnbNZwy44fg3yfFMi4gw*lby<,imH=,4y8=",
"8vNH4Fyqu;$=61tpm;4,b434Hf2ptmivutnDy2t2,4vbNd894*yysyNJgFDt9DHt",
"FDiFttpy3imy4v4bb$6b9,4vmypED13,*pg9y9fq<4,=NNd8,849<dbgN6k,y4pv",
"mvDgf1pbbbGyyp144y3bvvvb9fy&f,;;yfn83<=mtf440ydv8t8,814yvf1&,bm4",
"nbmnyig9tpvmt<myiy,4vB4=4pp24fZD220gayMnfVdMg8g03di92yvb2*;;=piG",
"Nf9=,bNtytbmnbp4mmbb4443<,34,4,llS,>:2MNd81at8fd88dy4=4yf,y8$dlg",
"t<9ftydnti4nFVmG6mTnyb49yp3pvi2fkm8aay11,<pf<4dffii4y,;14st124t4",
"2vdkmbyNb,4<4ibC3bt34vbMmb44ntby1i0M02a0;dl8fFMg8bd92fpfwg8lFi,4",
"nntnd9imv,4pplm9$un9NHpH9t3=fitqjysMs18fdaJf0v4a<byq4t+pwtufbygk",
"iu9vMfdifydBFbmg,*i4dbv4mm=4gwp4PfFNV0l0fNlM8<l8yMs;==$4;;4q*;t9",
"tivvfyf439bN2qlpti498tptt*t1299tMNgg8ag8;4dbfigigp;=98ws,8yty2up",
",ip,3l:;,yq4gtnHy9yli*=ts4fb88bm0igwai72fnndg0v;8pd880ntyfjtdo*=",
"ut4t9y8447pkuhDbiybtpubb21t42gyZ8afsUF38ywglnlaw;=&gfvg,v9Bp*2,2",
"91,4i1bpy2u<,ugfifp8fb46218dny,4f8ff0ly<iV8kElla4;1dgtqnydf3t,42",
"94u3411,ky1yp4;*=y8lt,u9y11yydj4J:fg08la4ww8w<%8db8<pkMyipd4,yvd",
"t,,;;p8dmNNxydy8tDmmbx,$=qindtwtf8fgyyGffMuI3w283tt14wydyt9inny3",
";84,49p98t1gi8dy4443pkbt8b9tNt=:gDFg00lss;:Sa8fl0nivgafydi2y9,1@",
"9<3fVNy9yd4i8<8%&3,vhnvtimU3,14ua<ya8<0gl3s807nTffd9=,<tv3t<;<38",
",80vBp09y49i2*;8tfbtt3tpk419wd1pgdy0gg08ylg=;78af0yi;442;824ti9,",
"0v9vp990i99;%=4tp9pu9,4t4q2tt4;*08;wgfMf8witk2889iv8081u2:;=84<,",
"43<9vTp9tkfd9,i94,4,m24t;BF3tyf;<:s00aMMs4a84dbN09t4FddnFmBf9934",
"93434v999tBVvt,gbi44i,;==w1fntwp-:0n07<lM81w8,yy0BfgBd4,tpkF43dv",
"ny3q449v34pf8fb9p43,%,3,3i14Vf;80;+<080;dkll7&0yyi944pB43nnpy98g",
"$$9,i4yf3<24,4b4&%1yyt3$,bn3PD3@F8<00;d=<S,kJN<Nm+$4$2DFN4%;<v8="
};
